*
G04 Mass Parameters ***
*
G04 Image ***
*
%IND:\UTENTI\00.LAVORI IN CORSO\METALTRONICA\22-304-0\22-304-0.GND*%
%ICAS*%
%MOIN*%
%IPPOS*%
%ASAXBY*%
G74*%FSLAN2X34Y34*%
*
G04 Aperture Definitions ***
*
%AMTHERMAL80*
1,1,0.1093,0,0,*
1,0,0.0854,0,0,*
21,0,0.1094,0.0100,0,0,45.0*
21,0,0.1094,0.0100,0,0,135.0*%
%AMTHERMAL85*
1,1,0.1172,0,0,*
1,0,0.0933,0,0,*
21,0,0.1173,0.0100,0,0,135.0*
21,0,0.1173,0.0100,0,0,225.0*%
%AMTHERMAL88*
1,1,0.1172,0,0,*
1,0,0.0933,0,0,*
21,0,0.1173,0.0100,0,0,45.0*
21,0,0.1173,0.0100,0,0,135.0*%
%ADD10C,0.0394*%
%ADD11R,0.0380X0.0320*%
%ADD12R,0.0501X0.0404*%
%ADD13R,0.0630X0.1260*%
%ADD14R,0.0710X0.0400*%
%ADD15R,0.0320X0.0380*%
%ADD16R,0.0886X0.0905*%
%ADD17R,0.1024X0.0510*%
%ADD18R,0.0510X0.1024*%
%ADD19R,0.0404X0.0501*%
%ADD20R,0.0315X0.0197*%
%ADD21R,0.0400X0.0500*%
%ADD22R,0.0550X0.0350*%
%ADD23R,0.0197X0.0315*%
%ADD24R,0.1500X0.1670*%
%ADD25C,0.2756*%
%ADD26C,0.0787*%
%ADD27C,0.0610*%
%ADD28R,0.0610X0.0610*%
%ADD29C,0.0590*%
%ADD30R,0.0630X0.0630*%
%ADD31O,0.0800X0.0620*%
%ADD32R,0.0800X0.0620*%
%ADD33R,0.0236X0.0413*%
%ADD34C,0.0187*%
%ADD35R,0.0500X0.0400*%
%ADD36R,0.0400X0.0710*%
%ADD37R,0.0866X0.0630*%
%ADD38R,0.0850X0.1080*%
%ADD39R,0.1080X0.0850*%
%ADD40R,0.0354X0.0512*%
%ADD41O,0.0256X0.0650*%
%ADD42R,0.1701X0.1181*%
%ADD43R,0.0177X0.0649*%
%ADD44R,0.0354X0.0165*%
%ADD45R,0.0680X0.1580*%
%ADD46R,0.0680X0.0550*%
%ADD47R,0.0500X0.0270*%
%ADD48R,0.1580X0.0680*%
%ADD49R,0.0550X0.0680*%
%ADD50C,0.0800*%
%ADD51O,0.0700X0.0110*%
%ADD52R,0.0700X0.0110*%
%ADD53O,0.0110X0.0700*%
%ADD54R,0.0110X0.0700*%
%ADD55R,0.0250X0.0350*%
%ADD56R,0.0350X0.0250*%
%ADD57R,0.0394X0.0197*%
%ADD58C,0.0276*%
%ADD59C,0.0250*%
%ADD60C,0.0050*%
%ADD61C,0.0100*%
%ADD62C,0.0276*%
%ADD63C,0.0080*%
%ADD64C,0.0150*%
%ADD65C,0.0276*%
%ADD66C,0.0120*%
%ADD67C,0.0500*%
%ADD68C,0.0200*%
%ADD69C,0.0276*%
%ADD70C,0.0300*%
%ADD71C,0.0060*%
%ADD72C,0.1575*%
%ADD73C,0.0866*%
%ADD74C,0.0050*%
%ADD75C,0.0866*%
%ADD76C,0.0710*%
%ADD77R,0.0710X0.0710*%
%ADD78C,0.0708*%
%ADD79R,0.0708X0.0708*%
%ADD80THERMAL80*%
%ADD81C,0.0708*%
%ADD82R,0.0708X0.0708*%
%ADD83C,0.0748*%
%ADD84O,0.0800X0.0620*%
%ADD85THERMAL85*%
%ADD86R,0.0800X0.0620*%
%ADD87C,0.1100*%
%ADD88THERMAL88*%
%ADD89C,0.1100*%
%ADD90C,0.0050*%
%ADD91C,0.0050*%
*
G04 Plot Data ***
*
G54D80*
X0024425Y0001750D03*
X0011675Y0001500D03*
X0009313D03*
G54D85*
X0002750Y0008500D03*
G54D88*
X0030000Y0012750D03*
G54D67*
G01X0046453Y0000000D02*
X0000000D01*
Y0019709D01*
X0046453D01*
Y0000000D01*
G54D71*
G01X0042084Y0018644D02*
Y0019111D01*
X0042057Y0018644D02*
X0042220D01*
X0042275Y0018800D01*
Y0018955D01*
X0042220Y0019111D01*
X0042057D01*
X0041910D02*
Y0018644D01*
X0041855Y0018722D01*
X0041747Y0019033D01*
X0041692Y0019111D01*
Y0018644D01*
X0041436Y0018878D02*
X0041545D01*
Y0018722D01*
X0041518Y0018644D01*
X0041354D01*
X0041327Y0018722D01*
Y0019033D01*
X0041354Y0019111D01*
X0041518D01*
X0041545Y0019033D01*
G54D62*
X0033400Y0002200D03*
X0011662Y0007712D03*
X0011100Y0005850D03*
X0009800Y0002700D03*
X0020350Y0002650D03*
X0003850Y0011050D03*
X0005700Y0006850D03*
X0003500Y0006100D03*
X0003550Y0010000D03*
X0028600Y0005250D03*
X0028000Y0007750D03*
X0008650Y0008650D03*
X0013050Y0005500D03*
X0024200Y0007500D03*
Y0006650D03*
X0009600Y0004550D03*
X0014600Y0011650D03*
X0010000Y0008700D03*
X0009600Y0005050D03*
X0022500Y0007550D03*
X0003900Y0010300D03*
Y0009700D03*
X0020400Y0001900D03*
X0005750Y0006200D03*
X0042100Y0013250D03*
X0009250Y0011800D03*
X0003450Y0012200D03*
X0019850Y0005750D03*
X0008100Y0006700D03*
X0008850Y0010850D03*
X0009350Y0006350D03*
X0020950Y0007600D03*
X0021250Y0011400D03*
X0012500Y0008240D03*
X0015300Y0011650D03*
X0013500Y0002300D03*
X0011700D03*
X0005550Y0012700D03*
X0009800Y0003950D03*
X0009850Y0007600D03*
X0022500Y0016300D03*
X0009700Y0008400D03*
X0020350Y0011100D03*
X0019550Y0007500D03*
X0011510Y0006340D03*
X0003900Y0006100D03*
X0018800Y0007250D03*
X0018100Y0009800D03*
X0008650Y0002950D03*
X0008950Y0006350D03*
X0014300Y0006200D03*
X0022350Y0011500D03*
X0020910Y0007170D03*
X0019150Y0007100D03*
X0010550Y0005950D03*
X0035500Y0015450D03*
Y0017200D03*
X0007800Y0006320D03*
X0011750Y0015250D03*
X0010300Y0009300D03*
X0043400Y0015450D03*
X0008050Y0007850D03*
X0020100Y0007500D03*
X0020600Y0009900D03*
X0010000Y0009100D03*
X0015950Y0016250D03*
X0019950Y0011250D03*
X0010500Y0005550D03*
X0012490Y0008970D03*
X0013300Y0011480D03*
X0013590Y0011270D03*
X0012120Y0009220D03*
X0014000Y0011500D03*
X0011735Y0009485D03*
X0005300Y0016700D03*
X0011300Y0012100D03*
X0008750Y0012850D03*
G54D69*
X0005550Y0004550D03*
X0007218Y0007318D03*
X0010350Y0007100D03*
X0007900Y0011000D03*
X0009550Y0011200D03*
X0005750Y0007300D03*
X0008050Y0008550D03*
X0006500Y0004700D03*
X0023050Y0015550D03*
X0021250D03*
X0019680Y0010220D03*
X0019600Y0015550D03*
X0014750D03*
X0016700D03*
X0013200D03*
X0012410Y0010470D03*
X0013950Y0006050D03*
X0013850Y0009100D03*
X0012950Y0002750D03*
X0019100Y0003500D03*
X0014250Y0002750D03*
Y0004470D03*
X0023020Y0003370D03*
X0024250Y0003450D03*
X0001750Y0010650D03*
X0014900Y0011350D03*
X0015250Y0007450D03*
X0028550Y0006350D03*
X0003500Y0003650D03*
X0023550Y0007000D03*
X0021650Y0007950D03*
X0022000Y0011100D03*
X0040210Y0012240D03*
X0030500Y0013750D03*
X0003250Y0006500D03*
X0033800Y0005770D03*
Y0007000D03*
X0030000Y0006600D03*
X0033950Y0004030D03*
X0028240Y0011214D03*
X0007300Y0009450D03*
X0028850Y0007850D03*
X0040800Y0012800D03*
X0007200Y0008950D03*
X0034400Y0008000D03*
X0031250Y0007950D03*
X0005550Y0019200D03*
X0030000Y0005700D03*
X0039750Y0015400D03*
X0026300Y0003450D03*
X0025500D03*
X0024700D03*
X0025500Y0004100D03*
X0026300D03*
Y0004700D03*
X0025500D03*
X0024700Y0004100D03*
Y0004700D03*
X0026300Y0005300D03*
X0025500D03*
X0024700D03*
X0018500Y0001700D03*
X0017800D03*
X0017150D03*
X0016500D03*
X0018500Y0002500D03*
X0017800D03*
X0017150D03*
X0016500D03*
X0018450Y0003350D03*
X0017800D03*
X0017150D03*
X0016500D03*
X0018400Y0004850D03*
X0017800D03*
X0017150D03*
X0016500D03*
X0018400Y0005500D03*
X0017750D03*
X0017150D03*
X0016500D03*
X0018400Y0006150D03*
X0017750D03*
X0017150D03*
X0016500D03*
X0009350Y0007250D03*
X0007750Y0005150D03*
X0011800Y0007300D03*
X0012250D03*
X0010000Y0011300D03*
X0008050Y0009050D03*
X0006750Y0010100D03*
Y0011050D03*
Y0010600D03*
X0005000Y0005200D03*
X0023050Y0014450D03*
Y0014900D03*
X0024350Y0015850D03*
X0023300Y0014050D03*
X0023800D03*
X0024300D03*
X0024750D03*
Y0014650D03*
Y0015250D03*
Y0015850D03*
X0028200Y0010450D03*
X0027550D03*
X0026950D03*
X0028150Y0011950D03*
X0027550D03*
X0027000D03*
X0030900Y0008650D03*
Y0008200D03*
Y0007700D03*
X0031650Y0008200D03*
X0031300Y0008650D03*
G54D72*
X0001968Y0017716D03*
Y0001968D03*
X0044488Y0017716D03*
Y0001968D03*
G54D73*
X0038750Y0005250D03*
Y0007218D03*
X0039734Y0006234D03*
G54D74*
Y0004266D03*
G54D75*
X0037766D03*
Y0006234D03*
G54D76*
X0007824Y0017606D03*
X0007037Y0018393D03*
Y0017606D03*
X0006250Y0018393D03*
Y0017606D03*
X0005463Y0018393D03*
Y0017606D03*
X0004675Y0018393D03*
Y0017606D03*
G54D77*
X0007824Y0018393D03*
G54D78*
X0044250Y0014213D03*
Y0013425D03*
X0020037Y0018750D03*
X0020825D03*
X0021612D03*
X0013537D03*
X0014325D03*
X0015112D03*
X0029463Y0003500D03*
X0028675D03*
X0027888D03*
X0029463Y0001750D03*
X0028675D03*
X0027888D03*
G54D79*
X0044250Y0015000D03*
X0019250Y0018750D03*
X0012750D03*
X0030250Y0003500D03*
Y0001750D03*
G54D81*
X0025213D03*
X0013250Y0001500D03*
X0012463D03*
X0010888D03*
X0010100D03*
G54D82*
X0026000Y0001750D03*
G54D83*
X0039075Y0001500D03*
X0038287D03*
X0037500D03*
G54D84*
X0002750Y0009500D03*
X0001750D03*
Y0008500D03*
Y0007500D03*
G54D86*
X0002750D03*
G54D87*
X0031000Y0012750D03*
G54D89*
X0036500Y0011250D03*
Y0010250D03*
Y0009250D03*
X0029000Y0012750D03*
G54D90*
X0042250Y0013800D03*
X0036500Y0015250D03*
X0039250Y0017750D03*
X0023000Y0001500D03*
X0021650Y0001880D03*
X0023400Y0004150D03*
X0023250Y0005700D03*
X0022910Y0003750D03*
X0021600Y0004150D03*
X0021280Y0007160D03*
X0019950Y0006900D03*
X0020450Y0007400D03*
X0029000Y0010000D03*
X0024500Y0009750D03*
X0012800Y0013500D03*
X0012600Y0014050D03*
X0023000Y0009600D03*
X0008250Y0016300D03*
X0009250Y0017500D03*
Y0018800D03*
X0004250Y0007250D03*
X0006450Y0014150D03*
X0004250Y0008500D03*
X0007250Y0013800D03*
X0007500Y0012700D03*
X0006050Y0012100D03*
X0005200Y0011950D03*
X0005000Y0010950D03*
X0004700Y0009750D03*
X0014750Y0017950D03*
X0013250D03*
X0011000Y0018800D03*
X0011250Y0017500D03*
X0007450Y0010950D03*
X0015500Y0009600D03*
X0010300Y0007500D03*
X0011370Y0003650D03*
X0020240Y0008920D03*
X0018650Y0008300D03*
X0017000Y0009750D03*
X0016900Y0008300D03*
X0006500Y0015050D03*
Y0015700D03*
X0001750Y0015750D03*
X0021900Y0014050D03*
X0022500Y0009850D03*
X0014000Y0010000D03*
X0013050Y0006050D03*
X0014250Y0005050D03*
X0015050Y0002400D03*
X0008550Y0001350D03*
X0008750Y0003800D03*
X0034180Y0004630D03*
X0035160Y0007000D03*
X0042500Y0017450D03*
X0043250Y0014950D03*
X0042450Y0016600D03*
X0034250Y0018400D03*
X0035000Y0018800D03*
X0041620Y0015900D03*
X0039250Y0016500D03*
X0040500Y0013250D03*
X0041250Y0014000D03*
X0032750Y0018400D03*
X0028250Y0016500D03*
X0026750D03*
X0029600Y0015050D03*
X0025500Y0015500D03*
X0024400Y0017250D03*
X0023350Y0018500D03*
X0021250Y0017950D03*
X0017900Y0017250D03*
X0019500Y0017950D03*
X0029000Y0008500D03*
X0029600Y0008200D03*
X0015849Y0014701D03*
X0027500Y0010000D03*
X0026000Y0009750D03*
X0027250Y0007000D03*
X0024400Y0008300D03*
X0026070Y0008030D03*
X0019400Y0013500D03*
X0019100Y0014050D03*
X0021250Y0009750D03*
X0040850Y0005250D03*
X0041500Y0007000D03*
X0040750Y0002000D03*
X0010450Y0011300D03*
X0010200Y0010950D03*
X0019800Y0013500D03*
X0020500Y0013550D03*
X0021200D03*
Y0013050D03*
X0020500D03*
X0019800D03*
X0021200Y0013950D03*
X0020500D03*
X0019800D03*
X0014700Y0013500D03*
X0014000D03*
X0013300D03*
Y0013050D03*
X0014000D03*
X0014700D03*
Y0013950D03*
X0014000D03*
X0013300D03*
G54D91*
X0007150Y0008500D03*
X0008450Y0006400D03*
X0004100Y0005750D03*
X0002000Y0004000D03*
X0013000Y0009050D03*
X0013750Y0007000D03*
X0003600Y0001300D03*
X0006850Y0003900D03*
M02*
