*
G04 Mass Parameters ***
*
G04 Image ***
*
%IND:\UTENTI\00.LAVORI IN CORSO\METALTRONICA\22-304-0\22-304-0.TOP*%
%ICAS*%
%MOIN*%
%IPPOS*%
%ASAXBY*%
G74*%FSLAN2X34Y34*%
*
G04 Aperture Definitions ***
*
%ADD10C,0.0394*%
%ADD11R,0.0380X0.0320*%
%ADD12R,0.0501X0.0404*%
%ADD13R,0.0630X0.1260*%
%ADD14R,0.0710X0.0400*%
%ADD15R,0.0320X0.0380*%
%ADD16R,0.0886X0.0905*%
%ADD17R,0.1024X0.0510*%
%ADD18R,0.0510X0.1024*%
%ADD19R,0.0404X0.0501*%
%ADD20R,0.0315X0.0197*%
%ADD21R,0.0400X0.0500*%
%ADD22R,0.0550X0.0350*%
%ADD23R,0.0197X0.0315*%
%ADD24R,0.1500X0.1670*%
%ADD25C,0.2756*%
%ADD26C,0.0787*%
%ADD27C,0.0610*%
%ADD28R,0.0610X0.0610*%
%ADD29C,0.0590*%
%ADD30R,0.0630X0.0630*%
%ADD31O,0.0800X0.0620*%
%ADD32R,0.0800X0.0620*%
%ADD33R,0.0236X0.0413*%
%ADD34C,0.0187*%
%ADD35R,0.0500X0.0400*%
%ADD36R,0.0400X0.0710*%
%ADD37R,0.0866X0.0630*%
%ADD38R,0.0850X0.1080*%
%ADD39R,0.1080X0.0850*%
%ADD40R,0.0354X0.0512*%
%ADD41O,0.0256X0.0650*%
%ADD42R,0.1701X0.1181*%
%ADD43R,0.0177X0.0649*%
%ADD44R,0.0354X0.0165*%
%ADD45R,0.0680X0.1580*%
%ADD46R,0.0680X0.0550*%
%ADD47R,0.0500X0.0270*%
%ADD48R,0.1580X0.0680*%
%ADD49R,0.0550X0.0680*%
%ADD50C,0.0800*%
%ADD51O,0.0700X0.0110*%
%ADD52R,0.0700X0.0110*%
%ADD53O,0.0110X0.0700*%
%ADD54R,0.0110X0.0700*%
%ADD55R,0.0250X0.0350*%
%ADD56R,0.0350X0.0250*%
%ADD57R,0.0394X0.0197*%
%ADD58C,0.0276*%
%ADD59C,0.0250*%
%ADD60C,0.0050*%
%ADD61C,0.0100*%
%ADD62C,0.0276*%
%ADD63C,0.0080*%
%ADD64C,0.0150*%
%ADD65C,0.0276*%
%ADD66C,0.0120*%
%ADD67C,0.0500*%
%ADD68C,0.0200*%
%ADD69C,0.0276*%
%ADD70C,0.0300*%
%ADD71C,0.0060*%
*
G04 Plot Data ***
*
G54D59*
G01X0031750Y0007000D02*
X0031250D01*
X0032000Y0009780D02*
X0031880D01*
X0031600Y0009500D01*
Y0008950D01*
X0032000Y0008550D01*
Y0007750D01*
X0031750Y0007500D01*
X0031250D02*
Y0007950D01*
X0028240Y0011214D02*
X0027500D01*
X0040250Y0005250D02*
X0040850D01*
X0029000Y0009285D02*
Y0010000D01*
X0027500D02*
Y0009285D01*
X0032750Y0004600D02*
Y0003870D01*
X0033500Y0004630D02*
X0033470Y0004600D01*
X0032750D01*
X0027888Y0003500D02*
X0028000Y0003610D01*
Y0004100D01*
Y0004720D01*
X0031750Y0003870D02*
X0030830D01*
X0030500Y0004200D01*
Y0004750D01*
X0035150Y0008000D02*
Y0007000D01*
X0034780D01*
X0033250Y0009285D02*
X0033184Y0009220D01*
X0032000D01*
X0030250Y0009600D02*
X0029314D01*
X0029000Y0009285D01*
X0030250Y0009600D02*
X0030350D01*
X0031220Y0010470D01*
X0031250D01*
X0028000Y0004720D02*
Y0004100D01*
X0030500D01*
Y0004200D01*
Y0004750D01*
X0033500Y0004630D02*
X0034180D01*
X0035160Y0007000D02*
X0035150D01*
X0034780D01*
X0014750Y0008720D02*
X0014230D01*
X0013850Y0009100D01*
Y0009650D01*
X0013450Y0010050D01*
X0011000D01*
X0010800Y0010250D01*
Y0011300D01*
X0011050Y0011550D01*
Y0011850D01*
X0010620Y0012280D01*
X0010500D01*
X0013500Y0005470D02*
X0013620D01*
X0013950Y0005800D01*
Y0006050D01*
X0013850Y0009100D02*
X0014230Y0008720D01*
X0014750D01*
X0013500Y0003280D02*
X0013130D01*
X0012950Y0003100D01*
Y0002750D01*
X0014250D02*
Y0001650D01*
X0014430Y0001470D01*
X0014750D01*
X0023020Y0003000D02*
Y0003370D01*
X0019100Y0003500D02*
X0019350Y0003750D01*
X0019470D01*
X0024600Y0006050D02*
Y0006080D01*
Y0006100D01*
X0025200Y0006700D01*
Y0007250D01*
X0025550Y0007600D01*
X0026450D01*
X0026500Y0007650D01*
Y0008470D01*
X0028070D01*
X0028200Y0008600D01*
Y0009700D01*
X0029000Y0010500D01*
X0029700D01*
X0030100Y0010900D01*
X0030250D01*
X0014750Y0001470D02*
X0014430D01*
X0014250Y0001650D01*
Y0002750D01*
Y0004470D02*
X0014750D01*
X0023020Y0003000D02*
Y0003370D01*
X0024250Y0003450D02*
X0024020Y0003220D01*
X0023750D01*
X0019470Y0003750D02*
X0019350D01*
X0019100Y0003500D01*
Y0001850D01*
X0019450Y0001500D01*
X0019470D01*
X0019170Y0001200D01*
X0016050D01*
X0015700Y0001550D01*
Y0001600D01*
X0023750Y0005030D02*
X0024250D01*
Y0004950D01*
Y0003450D01*
X0024020Y0003220D01*
X0023750D01*
X0014750Y0004470D02*
X0014250D01*
X0013780D01*
X0013520Y0004730D01*
Y0004750D01*
X0014750Y0007470D02*
X0014770Y0007450D01*
X0015250D01*
X0002750Y0012260D02*
Y0012700D01*
X0002700Y0012750D01*
X0002000D01*
X0001750Y0012500D01*
Y0010650D01*
X0015250Y0007450D02*
X0014770D01*
X0014750Y0007470D01*
X0023750Y0005030D02*
X0024250D01*
Y0005600D01*
X0024600Y0005950D01*
Y0006050D01*
X0037530Y0015250D02*
Y0014930D01*
X0037350Y0014750D01*
X0036600D01*
Y0014010D01*
X0036590Y0014000D01*
Y0014750D01*
X0035450D01*
X0034414Y0015785D01*
X0034250D01*
X0032750D02*
X0032664Y0015700D01*
X0031400D01*
Y0013150D01*
X0031000Y0012750D01*
X0031250Y0007500D02*
Y0007950D01*
X0030250Y0010900D02*
X0030270D01*
X0030400Y0011030D01*
X0031250D01*
X0025720Y0007000D02*
Y0006270D01*
X0025500Y0006050D01*
X0024750Y0006970D02*
X0024720Y0007000D01*
X0023550D01*
X0028550Y0006350D02*
X0028170Y0005970D01*
X0028000D01*
X0027500Y0009285D02*
Y0010000D01*
X0014750Y0007470D02*
X0014770Y0007450D01*
X0015250D01*
X0016550D01*
X0016900Y0007100D01*
X0017500D01*
X0017800Y0007400D01*
Y0007480D01*
X0017780Y0007500D01*
X0024750Y0006970D02*
X0024720Y0007000D01*
X0023550D01*
X0022000Y0011100D02*
Y0010650D01*
X0025500Y0004100D02*
Y0003450D01*
X0017780Y0007500D02*
X0018150D01*
X0018600Y0007950D01*
X0021650D01*
X0022000Y0011100D02*
Y0010650D01*
X0031000Y0012750D02*
X0031250Y0012500D01*
Y0011030D01*
X0016500Y0005500D02*
X0015700D01*
X0022000Y0008470D02*
X0019480D01*
X0019230Y0008720D01*
X0019000D01*
X0017150Y0005500D02*
X0016500D01*
X0040750Y0012240D02*
X0040210D01*
X0030500Y0013750D02*
Y0015700D01*
X0027500Y0011214D02*
X0028240D01*
X0003250Y0006500D02*
X0004720D01*
X0023000Y0006970D02*
X0023030Y0007000D01*
X0023550D01*
X0024720D01*
X0024750Y0006970D01*
X0023750Y0006280D02*
X0022670D01*
X0022170Y0006780D01*
X0022000D01*
X0024600Y0006050D02*
Y0006080D01*
X0024400Y0006280D01*
X0023750D01*
Y0005030D02*
X0023220D01*
X0023020Y0005230D01*
Y0005250D01*
X0033800Y0007000D02*
X0034220D01*
X0025500Y0004700D02*
Y0004100D01*
Y0005300D02*
Y0004700D01*
Y0006050D02*
Y0005300D01*
X0016500Y0002500D02*
X0015700D01*
X0031250Y0007500D02*
Y0007950D01*
X0017150Y0002500D02*
X0016500D01*
X0017800D02*
X0017150D01*
X0022000Y0010650D02*
Y0011100D01*
X0028250Y0017714D02*
X0028764D01*
X0029350Y0018300D01*
X0030500D01*
X0033500Y0005370D02*
Y0005750D01*
X0033520Y0005770D01*
X0033800D01*
Y0007000D02*
X0034220D01*
X0017750Y0005500D02*
X0017150D01*
X0018300D02*
X0017750D01*
X0031250Y0005280D02*
X0031230Y0005300D01*
X0031200D01*
X0031180Y0005280D01*
X0030020D01*
X0030000Y0005260D01*
Y0004750D01*
Y0007150D02*
Y0006600D01*
X0025500Y0017220D02*
X0025770D01*
X0026264Y0017714D01*
X0026750D01*
X0027250Y0005970D02*
Y0005280D01*
X0018300Y0002500D02*
X0017800D01*
X0013500Y0005470D02*
Y0004770D01*
X0013520Y0004750D01*
X0040250Y0005250D02*
X0040850D01*
X0041500Y0007000D02*
Y0006530D01*
X0028000Y0005970D02*
X0027250D01*
X0015700Y0004600D02*
X0015570Y0004470D01*
X0014750D01*
X0015700Y0001600D02*
X0015570Y0001470D01*
X0014750D01*
X0022000Y0008470D02*
Y0006780D01*
X0042000Y0018030D02*
X0044175D01*
X0044488Y0017716D01*
X0032000Y0011030D02*
X0031250D01*
X0029000Y0007150D02*
Y0006200D01*
X0030100D01*
X0030400Y0005900D01*
X0033350D01*
X0033500Y0005750D01*
Y0005370D01*
Y0004030D02*
X0033950D01*
X0027500Y0011214D02*
X0028240D01*
X0028850Y0007850D02*
X0028450D01*
Y0006980D01*
X0028000Y0006530D01*
X0030500Y0018300D02*
Y0015700D01*
X0010500Y0012280D02*
X0009750D01*
X0033850Y0008000D02*
X0034400D01*
X0031250Y0007500D02*
Y0007950D01*
X0025500Y0017220D02*
Y0016530D01*
X0010500Y0013250D02*
Y0012280D01*
X0029500Y0004750D02*
Y0005300D01*
X0030000D01*
Y0005700D01*
X0034220Y0007000D02*
X0033800D01*
X0033850Y0007050D01*
Y0008000D01*
X0029463Y0002600D02*
X0031000D01*
X0031530Y0003130D01*
X0031750D01*
X0032650Y0002200D02*
X0033400D01*
X0031250Y0005280D02*
X0031230Y0005300D01*
X0031200D01*
X0030000D02*
X0029500D01*
Y0004750D01*
X0041250Y0012970D02*
Y0012240D01*
X0028250Y0017714D02*
X0026750D01*
X0030000Y0007150D02*
Y0006600D01*
X0030500D01*
Y0007150D01*
X0034250Y0015785D02*
X0032750D01*
X0039250Y0014220D02*
X0039940D01*
X0040000Y0014280D01*
X0040500D01*
X0028000Y0005280D02*
X0028080D01*
X0029000Y0006200D01*
Y0007150D01*
X0041250Y0014970D02*
X0041270D01*
X0041840Y0014400D01*
X0043380D01*
Y0014380D01*
Y0011750D01*
X0029500Y0007150D02*
Y0007600D01*
X0029250Y0007850D02*
X0028850D01*
X0028450D01*
Y0006980D01*
X0028000Y0006530D01*
X0013250Y0001500D02*
X0013900Y0002150D01*
Y0003250D01*
X0014180Y0003530D01*
X0014750D01*
X0022000Y0010650D02*
Y0011100D01*
Y0010650D01*
X0037910Y0014000D02*
X0038500D01*
X0038720Y0014220D01*
X0039250D01*
X0041937Y0004750D02*
Y0005063D01*
X0041500Y0005500D01*
Y0005970D01*
X0026000Y0001750D02*
X0026850Y0002600D01*
Y0005700D01*
X0026500Y0006050D01*
X0026400D01*
X0026500Y0009030D02*
X0025770D01*
X0025600Y0009200D01*
X0025250D01*
X0043380Y0006500D02*
X0043350D01*
X0041630Y0008220D01*
X0041750D01*
X0042750Y0013220D02*
X0042400D01*
X0042130D01*
X0042100Y0013250D01*
X0037530Y0015250D02*
Y0014930D01*
X0037350Y0014750D01*
X0036600D01*
X0036590D01*
Y0014000D01*
X0041250Y0009760D02*
Y0009280D01*
X0041750Y0008780D01*
X0031250Y0007500D02*
Y0007950D01*
X0043380Y0011750D02*
Y0014380D01*
X0044000Y0015000D01*
X0044250D01*
X0023750Y0010106D02*
Y0009450D01*
X0023500Y0009200D01*
X0041937Y0004750D02*
X0042000Y0004687D01*
Y0002870D01*
X0032750Y0005400D02*
X0032120D01*
X0032000Y0005280D01*
X0014750Y0003530D02*
X0015570D01*
X0015700Y0003400D01*
X0040500Y0014970D02*
Y0014280D01*
X0027888Y0003500D02*
X0028000D01*
Y0003610D01*
Y0004100D01*
Y0004720D01*
X0024020Y0003220D02*
X0023750D01*
X0024850Y0008300D02*
X0024750Y0008200D01*
Y0007530D01*
X0029500Y0007150D02*
Y0007600D01*
Y0007650D01*
X0029300Y0007850D01*
X0029250D01*
X0029500Y0007600D02*
Y0007150D01*
X0023100Y0008300D02*
X0023000Y0008200D01*
Y0007530D01*
X0026280Y0007000D02*
X0026400Y0006880D01*
Y0006050D01*
X0025250Y0010106D02*
Y0009200D01*
X0023500D02*
X0023330Y0009030D01*
X0022000D01*
X0043380Y0008250D02*
X0043250D01*
X0042400Y0009100D01*
Y0013220D01*
X0042750D01*
X0031750Y0007180D02*
Y0007330D01*
X0040070Y0005250D02*
X0039920D01*
X0037180Y0008000D02*
X0037330D01*
X0031250Y0007180D02*
Y0007330D01*
G54D60*
G01X0027250Y0013985D02*
X0026550D01*
X0027250Y0013940D02*
X0026550D01*
X0027250Y0013895D02*
X0026550D01*
X0027250Y0013850D02*
X0026550D01*
X0027250Y0013805D02*
X0026550D01*
X0027250Y0013760D02*
X0026550D01*
X0027250Y0013715D02*
X0026550D01*
X0027250Y0013670D02*
X0026550D01*
X0027250Y0013625D02*
X0026550D01*
X0027250Y0013580D02*
X0026550D01*
X0027250Y0013535D02*
X0026550D01*
X0027250Y0013490D02*
X0026550D01*
X0027250Y0013445D02*
X0026550D01*
X0027250Y0013400D02*
X0026550D01*
X0027250Y0013355D02*
X0026550D01*
X0027250Y0013310D02*
X0026550D01*
X0027250Y0013265D02*
X0026550D01*
X0027250Y0013220D02*
X0026550D01*
X0027250Y0013175D02*
X0026550D01*
X0027250Y0013130D02*
X0026550D01*
X0027250Y0013085D02*
X0026550D01*
X0027250Y0013040D02*
X0026550D01*
X0027250Y0012995D02*
X0026550D01*
X0027250Y0012950D02*
X0026550D01*
X0027250Y0012905D02*
X0026550D01*
X0027250Y0012860D02*
X0026550D01*
X0027250Y0012815D02*
X0026550D01*
X0027250Y0012770D02*
X0026550D01*
X0027250Y0012725D02*
X0026550D01*
X0027250Y0012680D02*
X0026550D01*
X0027250Y0012635D02*
X0026550D01*
X0027250Y0012590D02*
X0026550D01*
X0026595Y0014500D02*
Y0012500D01*
X0027250Y0014500D02*
X0026550D01*
X0027250D02*
Y0012500D01*
X0026550D01*
X0027225Y0014500D02*
Y0012500D01*
X0027180Y0014500D02*
Y0012500D01*
X0027135Y0014500D02*
Y0012500D01*
X0027090Y0014500D02*
Y0012500D01*
X0027045Y0014500D02*
Y0012500D01*
X0027000Y0014500D02*
Y0012500D01*
X0026955Y0014500D02*
Y0012500D01*
X0026910Y0014500D02*
Y0012500D01*
X0026865Y0014500D02*
Y0012500D01*
X0026820Y0014500D02*
Y0012500D01*
X0026775Y0014500D02*
Y0012500D01*
X0026730Y0014500D02*
Y0012500D01*
X0026685Y0014500D02*
Y0012500D01*
X0026640Y0014500D02*
Y0012500D01*
X0027250Y0014480D02*
X0026550D01*
X0027250Y0014435D02*
X0026550D01*
X0027250Y0014390D02*
X0026550D01*
X0027250Y0014345D02*
X0026550D01*
X0027250Y0014300D02*
X0026550D01*
X0027250Y0014255D02*
X0026550D01*
X0027250Y0014210D02*
X0026550D01*
X0027250Y0014165D02*
X0026550D01*
X0027250Y0014120D02*
X0026550D01*
X0027250Y0014075D02*
X0026550D01*
X0027250Y0014030D02*
X0026550D01*
X0027250Y0012545D02*
X0026550D01*
Y0014500D02*
Y0012500D01*
X0025950Y0013985D02*
X0025250D01*
X0025950Y0013940D02*
X0025250D01*
X0025950Y0013895D02*
X0025250D01*
X0025950Y0013850D02*
X0025250D01*
X0025950Y0013805D02*
X0025250D01*
X0025950Y0013760D02*
X0025250D01*
X0025950Y0013715D02*
X0025250D01*
X0025950Y0013670D02*
X0025250D01*
X0025950Y0013625D02*
X0025250D01*
X0025950Y0013580D02*
X0025250D01*
X0025950Y0013535D02*
X0025250D01*
X0025950Y0013490D02*
X0025250D01*
X0025950Y0013445D02*
X0025250D01*
X0025950Y0013400D02*
X0025250D01*
X0025950Y0013355D02*
X0025250D01*
X0025950Y0013310D02*
X0025250D01*
X0025950Y0013265D02*
X0025250D01*
X0025950Y0013220D02*
X0025250D01*
X0025950Y0013175D02*
X0025250D01*
X0025950Y0013130D02*
X0025250D01*
X0025950Y0013085D02*
X0025250D01*
X0025950Y0013040D02*
X0025250D01*
X0025950Y0012995D02*
X0025250D01*
X0025950Y0012950D02*
X0025250D01*
X0025950Y0012905D02*
X0025250D01*
X0025950Y0012860D02*
X0025250D01*
X0025950Y0012815D02*
X0025250D01*
X0025950Y0012770D02*
X0025250D01*
X0025950Y0012725D02*
X0025250D01*
X0025950Y0012680D02*
X0025250D01*
X0025950Y0012635D02*
X0025250D01*
X0025950Y0012590D02*
X0025250D01*
X0025295Y0014500D02*
Y0012500D01*
X0025950Y0014500D02*
Y0012500D01*
Y0014500D02*
X0025250D01*
Y0012500D01*
X0025925Y0014500D02*
Y0012500D01*
X0025880Y0014500D02*
Y0012500D01*
X0025835Y0014500D02*
Y0012500D01*
X0025790Y0014500D02*
Y0012500D01*
X0025745Y0014500D02*
Y0012500D01*
X0025700Y0014500D02*
Y0012500D01*
X0025655Y0014500D02*
Y0012500D01*
X0025610Y0014500D02*
Y0012500D01*
X0025565Y0014500D02*
Y0012500D01*
X0025520Y0014500D02*
Y0012500D01*
X0025475Y0014500D02*
Y0012500D01*
X0025430Y0014500D02*
Y0012500D01*
X0025385Y0014500D02*
Y0012500D01*
X0025340Y0014500D02*
Y0012500D01*
X0025950Y0014480D02*
X0025250D01*
X0025950Y0014435D02*
X0025250D01*
X0025950Y0014390D02*
X0025250D01*
X0025950Y0014345D02*
X0025250D01*
X0025950Y0014300D02*
X0025250D01*
X0025950Y0014255D02*
X0025250D01*
X0025950Y0014210D02*
X0025250D01*
X0025950Y0014165D02*
X0025250D01*
X0025950Y0014120D02*
X0025250D01*
X0025950Y0014075D02*
X0025250D01*
X0025950Y0014030D02*
X0025250D01*
X0025950Y0012545D02*
X0025250D01*
X0025950Y0012500D02*
X0025250D01*
X0034750Y0013985D02*
X0034050D01*
X0034750Y0013940D02*
X0034050D01*
X0034750Y0013895D02*
X0034050D01*
X0034750Y0013850D02*
X0034050D01*
X0034750Y0013805D02*
X0034050D01*
X0034750Y0013760D02*
X0034050D01*
X0034750Y0013715D02*
X0034050D01*
X0034750Y0013670D02*
X0034050D01*
X0034750Y0013625D02*
X0034050D01*
X0034750Y0013580D02*
X0034050D01*
X0034750Y0013535D02*
X0034050D01*
X0034750Y0013490D02*
X0034050D01*
X0034750Y0013445D02*
X0034050D01*
X0034750Y0013400D02*
X0034050D01*
X0034750Y0013355D02*
X0034050D01*
X0034750Y0013310D02*
X0034050D01*
X0034750Y0013265D02*
X0034050D01*
X0034750Y0013220D02*
X0034050D01*
X0034750Y0013175D02*
X0034050D01*
X0034750Y0013130D02*
X0034050D01*
X0034750Y0013085D02*
X0034050D01*
X0034750Y0013040D02*
X0034050D01*
X0034750Y0012995D02*
X0034050D01*
X0034750Y0012950D02*
X0034050D01*
X0034750Y0012905D02*
X0034050D01*
X0034750Y0012860D02*
X0034050D01*
X0034750Y0012815D02*
X0034050D01*
X0034750Y0012770D02*
X0034050D01*
X0034750Y0012725D02*
X0034050D01*
X0034750Y0012680D02*
X0034050D01*
X0034750Y0012635D02*
X0034050D01*
X0034750Y0012590D02*
X0034050D01*
X0034095Y0014500D02*
Y0012500D01*
X0034750Y0014500D02*
X0034050D01*
X0034750D02*
Y0012500D01*
X0034050D01*
X0034725Y0014500D02*
Y0012500D01*
X0034680Y0014500D02*
Y0012500D01*
X0034635Y0014500D02*
Y0012500D01*
X0034590Y0014500D02*
Y0012500D01*
X0034545Y0014500D02*
Y0012500D01*
X0034500Y0014500D02*
Y0012500D01*
X0034455Y0014500D02*
Y0012500D01*
X0034410Y0014500D02*
Y0012500D01*
X0034365Y0014500D02*
Y0012500D01*
X0034320Y0014500D02*
Y0012500D01*
X0034275Y0014500D02*
Y0012500D01*
X0034230Y0014500D02*
Y0012500D01*
X0034185Y0014500D02*
Y0012500D01*
X0034140Y0014500D02*
Y0012500D01*
X0034750Y0014480D02*
X0034050D01*
X0034750Y0014435D02*
X0034050D01*
X0034750Y0014390D02*
X0034050D01*
X0034750Y0014345D02*
X0034050D01*
X0034750Y0014300D02*
X0034050D01*
X0034750Y0014255D02*
X0034050D01*
X0034750Y0014210D02*
X0034050D01*
X0034750Y0014165D02*
X0034050D01*
X0034750Y0014120D02*
X0034050D01*
X0034750Y0014075D02*
X0034050D01*
X0034750Y0014030D02*
X0034050D01*
X0034750Y0012545D02*
X0034050D01*
Y0014500D02*
Y0012500D01*
X0033450Y0013985D02*
X0032750D01*
X0033450Y0013940D02*
X0032750D01*
X0033450Y0013895D02*
X0032750D01*
X0033450Y0013850D02*
X0032750D01*
X0033450Y0013805D02*
X0032750D01*
X0033450Y0013760D02*
X0032750D01*
X0033450Y0013715D02*
X0032750D01*
X0033450Y0013670D02*
X0032750D01*
X0033450Y0013625D02*
X0032750D01*
X0033450Y0013580D02*
X0032750D01*
X0033450Y0013535D02*
X0032750D01*
X0033450Y0013490D02*
X0032750D01*
X0033450Y0013445D02*
X0032750D01*
X0033450Y0013400D02*
X0032750D01*
X0033450Y0013355D02*
X0032750D01*
X0033450Y0013310D02*
X0032750D01*
X0033450Y0013265D02*
X0032750D01*
X0033450Y0013220D02*
X0032750D01*
X0033450Y0013175D02*
X0032750D01*
X0033450Y0013130D02*
X0032750D01*
X0033450Y0013085D02*
X0032750D01*
X0033450Y0013040D02*
X0032750D01*
X0033450Y0012995D02*
X0032750D01*
X0033450Y0012950D02*
X0032750D01*
X0033450Y0012905D02*
X0032750D01*
X0033450Y0012860D02*
X0032750D01*
X0033450Y0012815D02*
X0032750D01*
X0033450Y0012770D02*
X0032750D01*
X0033450Y0012725D02*
X0032750D01*
X0033450Y0012680D02*
X0032750D01*
X0033450Y0012635D02*
X0032750D01*
X0033450Y0012590D02*
X0032750D01*
X0032795Y0014500D02*
Y0012500D01*
X0033450Y0014500D02*
Y0012500D01*
Y0014500D02*
X0032750D01*
Y0012500D01*
X0033425Y0014500D02*
Y0012500D01*
X0033380Y0014500D02*
Y0012500D01*
X0033335Y0014500D02*
Y0012500D01*
X0033290Y0014500D02*
Y0012500D01*
X0033245Y0014500D02*
Y0012500D01*
X0033200Y0014500D02*
Y0012500D01*
X0033155Y0014500D02*
Y0012500D01*
X0033110Y0014500D02*
Y0012500D01*
X0033065Y0014500D02*
Y0012500D01*
X0033020Y0014500D02*
Y0012500D01*
X0032975Y0014500D02*
Y0012500D01*
X0032930Y0014500D02*
Y0012500D01*
X0032885Y0014500D02*
Y0012500D01*
X0032840Y0014500D02*
Y0012500D01*
X0033450Y0014480D02*
X0032750D01*
X0033450Y0014435D02*
X0032750D01*
X0033450Y0014390D02*
X0032750D01*
X0033450Y0014345D02*
X0032750D01*
X0033450Y0014300D02*
X0032750D01*
X0033450Y0014255D02*
X0032750D01*
X0033450Y0014210D02*
X0032750D01*
X0033450Y0014165D02*
X0032750D01*
X0033450Y0014120D02*
X0032750D01*
X0033450Y0014075D02*
X0032750D01*
X0033450Y0014030D02*
X0032750D01*
X0033450Y0012545D02*
X0032750D01*
X0033450Y0012500D02*
X0032750D01*
G54D61*
G01X0034250Y0017714D02*
Y0018400D01*
X0032750D02*
Y0017714D01*
X0024500Y0010220D02*
Y0009750D01*
X0023000Y0009600D02*
Y0010100D01*
X0023900Y0008300D02*
X0024400D01*
X0024500Y0009750D02*
Y0010220D01*
X0023000Y0001500D02*
X0022530D01*
X0023000D01*
X0021650Y0001880D02*
X0021280Y0002250D01*
X0022910Y0003750D02*
X0022530D01*
X0023750Y0004470D02*
X0023720D01*
X0023400Y0004150D01*
X0022910Y0003750D02*
X0022530D01*
X0023250Y0005700D02*
X0023270Y0005720D01*
X0023750D01*
X0022530Y0003750D02*
X0022910D01*
X0021600Y0004150D02*
Y0004200D01*
X0021300Y0004500D01*
X0021280D01*
X0019550Y0006500D02*
X0019950Y0006900D01*
X0024500Y0010220D02*
Y0009750D01*
X0026000D02*
Y0010220D01*
X0023000Y0010100D02*
Y0009600D01*
X0011250Y0017030D02*
Y0017500D01*
X0007450Y0010950D02*
X0007447Y0010947D01*
Y0010265D01*
X0008250Y0016300D02*
X0008230Y0016280D01*
X0007750D01*
X0010500Y0018780D02*
X0010980D01*
X0011000Y0018800D01*
X0009250D02*
X0009270Y0018780D01*
X0009750D01*
X0007750Y0016280D02*
X0008230D01*
X0008250Y0016300D01*
X0009250Y0017500D02*
Y0017030D01*
Y0017500D01*
Y0018800D02*
X0009270Y0018780D01*
X0009750D01*
X0010500D02*
X0010980D01*
X0011000Y0018800D01*
X0011250Y0017500D02*
Y0017030D01*
X0007447Y0010265D02*
Y0010947D01*
X0007450Y0010950D01*
X0007150Y0008500D02*
X0006470D01*
X0014000Y0010470D02*
Y0010000D01*
X0010985Y0007515D02*
X0010315D01*
X0010300Y0007500D01*
X0008450Y0006400D02*
X0008432Y0006382D01*
Y0005750D01*
X0013500Y0006030D02*
X0013070D01*
X0013050Y0006050D01*
X0011000Y0003280D02*
X0011370Y0003650D01*
X0001750Y0015750D02*
X0001280D01*
X0014000Y0010470D02*
Y0010000D01*
X0013000Y0009050D02*
Y0009590D01*
X0013500Y0006030D02*
X0013070D01*
X0013050Y0006050D01*
X0013750Y0007000D02*
X0013280D01*
X0013500Y0006030D02*
X0013070D01*
X0013050Y0006050D01*
X0008750Y0003800D02*
Y0004220D01*
Y0003800D01*
X0036250Y0018780D02*
X0035500D01*
X0020500Y0013500D02*
X0019800D01*
X0014000D02*
X0013300D01*
X0023750Y0004470D02*
Y0003780D01*
X0021280Y0002250D02*
Y0002380D01*
X0021520Y0002620D01*
X0022000D01*
X0007250Y0004220D02*
X0007220Y0004250D01*
X0006850D01*
X0006530D01*
X0022000Y0004870D02*
X0021650D01*
X0021280Y0004500D01*
X0012500Y0004370D02*
X0011980D01*
X0011820Y0004530D01*
X0011750D01*
X0011000Y0003280D02*
X0011370Y0003650D01*
Y0004150D01*
X0011750Y0004530D01*
X0039250Y0018220D02*
X0039200Y0018200D01*
X0038620Y0018780D01*
X0038500D01*
X0034250Y0017714D02*
Y0018400D01*
X0035000Y0018800D02*
X0035020Y0018780D01*
X0035500D01*
X0032750Y0018400D02*
Y0017714D01*
X0023850Y0018500D02*
X0023350D01*
X0023850D01*
X0014000Y0013500D03*
X0026000Y0009750D02*
Y0010220D01*
X0027250Y0006530D02*
Y0007000D01*
X0026070Y0008030D02*
X0025800Y0008300D01*
X0025650D01*
X0023900D02*
X0024400D01*
X0026070Y0008030D02*
X0025800Y0008300D01*
X0025650D01*
X0040750Y0002000D02*
Y0001530D01*
X0010500Y0011720D02*
Y0011700D01*
X0010450Y0011650D01*
Y0011300D01*
X0010200Y0010950D02*
X0010205Y0010945D01*
Y0010265D01*
X0010200Y0010950D02*
X0010205Y0010945D01*
Y0010265D01*
X0006470Y0008500D02*
X0007150D01*
X0008450Y0006400D02*
X0008432Y0006382D01*
Y0005750D01*
X0008450Y0006400D02*
X0008432Y0006382D01*
Y0005750D01*
X0013000Y0009590D02*
Y0009050D01*
X0013750Y0007000D02*
X0013280D01*
X0006850Y0003900D02*
Y0004250D01*
X0006530D01*
X0036870Y0008400D02*
Y0007500D01*
X0036780Y0008400D02*
Y0007500D01*
X0036690Y0008400D02*
Y0007500D01*
X0036600Y0008400D02*
Y0007500D01*
X0036510Y0008400D02*
Y0007500D01*
X0036420Y0008400D02*
Y0007500D01*
X0036330Y0008400D02*
Y0007500D01*
X0036240Y0008400D02*
Y0007500D01*
X0036150Y0008400D02*
Y0007500D01*
X0036060Y0008400D02*
Y0007500D01*
X0035970Y0008400D02*
Y0007500D01*
X0035880Y0008400D02*
Y0007500D01*
X0035790Y0008400D02*
Y0007500D01*
X0038450Y0008350D02*
X0035750D01*
X0038540Y0008260D02*
X0035750D01*
X0038630Y0008170D02*
X0035750D01*
X0038720Y0008080D02*
X0035750D01*
X0038810Y0007990D02*
X0035750D01*
X0038900Y0007900D02*
X0035750D01*
X0038990Y0007810D02*
X0035750D01*
X0039080Y0007720D02*
X0035750D01*
X0039170Y0007630D02*
X0035750D01*
X0039260Y0007540D02*
X0035750D01*
X0039300Y0007450D02*
X0038450D01*
X0039300Y0007360D02*
X0038540D01*
X0039300Y0007270D02*
X0038630D01*
X0039300Y0007180D02*
X0038720D01*
X0039210Y0007590D02*
Y0007050D01*
X0039120Y0007680D02*
Y0007050D01*
X0039030Y0007770D02*
Y0007050D01*
X0038940Y0007860D02*
Y0007050D01*
X0038850Y0007950D02*
Y0007050D01*
X0038760Y0008040D02*
Y0007140D01*
X0038670Y0008130D02*
Y0007230D01*
X0038580Y0008220D02*
Y0007320D01*
X0038490Y0008310D02*
Y0007410D01*
X0038400Y0008400D02*
Y0007500D01*
X0038310Y0008400D02*
Y0007500D01*
X0038220Y0008400D02*
Y0007500D01*
X0038130Y0008400D02*
Y0007500D01*
X0038040Y0008400D02*
Y0007500D01*
X0037950Y0008400D02*
Y0007500D01*
X0037860Y0008400D02*
Y0007500D01*
X0037770Y0008400D02*
Y0007500D01*
X0037680Y0008400D02*
Y0007500D01*
X0037590Y0008400D02*
Y0007500D01*
X0037500Y0008400D02*
Y0007500D01*
X0037410Y0008400D02*
Y0007500D01*
X0037320Y0008400D02*
Y0007500D01*
X0037230Y0008400D02*
Y0007500D01*
X0037140Y0008400D02*
Y0007500D01*
X0037050Y0008400D02*
Y0007500D01*
X0036960Y0008400D02*
Y0007500D01*
X0035750Y0008400D02*
Y0007500D01*
X0038400Y0008400D02*
X0035750D01*
X0038400D02*
X0039300Y0007500D01*
Y0007050D01*
X0038850D01*
X0038400Y0007500D02*
X0038850Y0007050D01*
X0038400Y0007500D02*
X0035750D01*
X0039300Y0007090D02*
X0038810D01*
X0031340Y0008650D02*
Y0006300D01*
X0031250Y0008650D02*
Y0006300D01*
X0031160Y0008650D02*
Y0006300D01*
X0031070Y0008650D02*
Y0006300D01*
X0030980Y0008650D02*
Y0006300D01*
X0030890Y0008650D02*
Y0006300D01*
X0033150Y0008590D02*
X0030850D01*
X0033150Y0008500D02*
X0030850D01*
X0033150Y0008410D02*
X0030850D01*
X0033150Y0008320D02*
X0030850D01*
X0033150Y0008230D02*
X0030850D01*
X0033150Y0008140D02*
X0030850D01*
X0033150Y0008050D02*
X0030850D01*
X0033150Y0007960D02*
X0030850D01*
X0033150Y0007870D02*
X0030850D01*
X0033150Y0007780D02*
X0030850D01*
X0033150Y0007690D02*
X0030850D01*
X0033150Y0007600D02*
X0030850D01*
X0033150Y0007510D02*
X0030850D01*
X0033150Y0007420D02*
X0030850D01*
X0033150Y0007330D02*
X0030850D01*
X0033150Y0007240D02*
X0030850D01*
X0033150Y0007150D02*
X0030850D01*
X0033150Y0007060D02*
X0030850D01*
X0033150Y0006970D02*
X0030850D01*
X0033150Y0006880D02*
X0030850D01*
X0033150Y0006790D02*
X0030850D01*
X0033150Y0006700D02*
X0030850D01*
X0033150Y0006610D02*
X0030850D01*
X0033150Y0006520D02*
X0030850D01*
X0033150Y0006430D02*
X0030850D01*
X0033150Y0006340D02*
X0030850D01*
X0033150Y0006300D02*
X0031100D01*
X0033150Y0008650D02*
Y0006300D01*
Y0008650D02*
X0030850D01*
Y0006300D01*
X0031100D02*
X0030850D01*
X0033140Y0008650D02*
Y0006300D01*
X0033050Y0008650D02*
Y0006300D01*
X0032960Y0008650D02*
Y0006300D01*
X0032870Y0008650D02*
Y0006300D01*
X0032780Y0008650D02*
Y0006300D01*
X0032690Y0008650D02*
Y0006300D01*
X0032600Y0008650D02*
Y0006300D01*
X0032510Y0008650D02*
Y0006300D01*
X0032420Y0008650D02*
Y0006300D01*
X0032330Y0008650D02*
Y0006300D01*
X0032240Y0008650D02*
Y0006300D01*
X0032150Y0008650D02*
Y0006300D01*
X0032060Y0008650D02*
Y0006300D01*
X0031970Y0008650D02*
Y0006300D01*
X0031880Y0008650D02*
Y0006300D01*
X0031790Y0008650D02*
Y0006300D01*
X0031700Y0008650D02*
Y0006300D01*
X0031610Y0008650D02*
Y0006300D01*
X0031520Y0008650D02*
Y0006300D01*
X0031430Y0008650D02*
Y0006300D01*
X0039080Y0005600D02*
Y0003350D01*
X0038990Y0005600D02*
Y0003350D01*
X0038900Y0005600D02*
Y0003350D01*
X0038810Y0005600D02*
Y0003350D01*
X0038720Y0005600D02*
Y0003350D01*
X0038630Y0005600D02*
Y0003350D01*
X0040070Y0005600D02*
Y0005505D01*
X0041050Y0005420D02*
X0040555D01*
X0041050Y0005330D02*
X0040555D01*
X0041050Y0005510D02*
X0038450D01*
X0041050Y0005150D02*
X0040555D01*
X0039445Y0005060D02*
X0038450D01*
X0041050Y0004970D02*
X0038450D01*
X0041050Y0004880D02*
X0038450D01*
X0041050Y0004790D02*
X0038450D01*
X0041050Y0004700D02*
X0038450D01*
X0041050Y0004610D02*
X0038450D01*
X0041050Y0004520D02*
X0038450D01*
X0041050Y0004430D02*
X0038450D01*
X0041050Y0004340D02*
X0038450D01*
X0041050Y0004250D02*
X0038450D01*
X0041050Y0004160D02*
X0038450D01*
X0041050Y0004070D02*
X0038450D01*
X0041050Y0003980D02*
X0038450D01*
X0041050Y0003890D02*
X0038450D01*
X0041050Y0003800D02*
X0038450D01*
X0041050Y0003710D02*
X0038450D01*
X0041050Y0003620D02*
X0038450D01*
X0041050Y0003530D02*
X0038450D01*
X0040070Y0004995D02*
Y0003350D01*
X0040555Y0005505D02*
Y0004995D01*
X0039945Y0005505D02*
X0039920D01*
X0039445D02*
Y0004995D01*
X0040055D02*
X0039945D01*
X0039980Y0005600D02*
Y0005505D01*
X0038450Y0005600D02*
Y0003350D01*
X0041050Y0005600D02*
X0038450D01*
X0041050D02*
Y0003350D01*
X0038450D01*
X0040340Y0004995D02*
Y0003350D01*
X0040970Y0005600D02*
Y0003350D01*
X0040880Y0005600D02*
Y0003350D01*
X0040790Y0005600D02*
Y0003350D01*
X0040700Y0005600D02*
Y0003350D01*
X0040055Y0005505D02*
X0039945D01*
X0039710Y0005600D02*
Y0005505D01*
X0039530Y0005600D02*
Y0005505D01*
X0040340Y0005600D02*
Y0005505D01*
X0040250Y0005600D02*
Y0005505D01*
X0040160Y0005600D02*
Y0005505D01*
X0040555Y0004995D02*
X0040070D01*
X0039890Y0005600D02*
Y0005505D01*
X0039800Y0005600D02*
Y0005505D01*
X0040430Y0005600D02*
Y0005505D01*
X0039620Y0005600D02*
Y0005505D01*
X0041050Y0005240D02*
X0040555D01*
X0039440Y0005600D02*
Y0003350D01*
X0039350Y0005600D02*
Y0003350D01*
X0039260Y0005600D02*
Y0003350D01*
X0039170Y0005600D02*
Y0003350D01*
X0040055Y0004995D02*
X0039945D01*
X0039980D02*
Y0003350D01*
X0040520Y0004995D02*
Y0003350D01*
X0040430Y0004995D02*
Y0003350D01*
X0038540Y0005600D02*
Y0003350D01*
X0040520Y0005600D02*
Y0005505D01*
X0039890Y0004995D02*
Y0003350D01*
X0039800Y0004995D02*
Y0003350D01*
X0039710Y0004995D02*
Y0003350D01*
X0039620Y0004995D02*
Y0003350D01*
X0040160Y0004995D02*
Y0003350D01*
X0039530Y0004995D02*
Y0003350D01*
X0039445Y0005420D02*
X0038450D01*
X0039445Y0005330D02*
X0038450D01*
X0039445Y0005240D02*
X0038450D01*
X0041050Y0005060D02*
X0040555D01*
X0040055Y0005505D02*
X0039945D01*
X0040555D02*
X0040070D01*
X0039920D02*
X0039445D01*
X0039945Y0004995D02*
X0039920D01*
X0039445D01*
X0041050Y0003440D02*
X0038450D01*
X0039445Y0005150D02*
X0038450D01*
X0040250Y0004995D02*
Y0003350D01*
X0040070Y0004995D02*
X0040055D01*
X0040070Y0005505D02*
X0040055D01*
X0040610Y0005600D02*
Y0003350D01*
X0026550Y0003550D02*
X0024505D01*
X0026550Y0002660D02*
X0026539Y0002650D01*
X0024590Y0005500D02*
Y0002650D01*
X0026550Y0005260D02*
X0024505D01*
X0026550Y0005170D02*
X0024505D01*
X0026550Y0004990D02*
X0024505D01*
X0026550Y0004900D02*
X0024505D01*
X0026550Y0004810D02*
X0024505D01*
X0026550Y0004720D02*
X0024505D01*
X0026550Y0004630D02*
X0024505D01*
X0026550Y0004540D02*
X0024505D01*
X0026550Y0004450D02*
X0024505D01*
X0026550Y0004360D02*
X0024505D01*
X0026550Y0004270D02*
X0024505D01*
X0026550Y0004180D02*
X0024505D01*
X0026550Y0004090D02*
X0024505D01*
X0026550Y0004000D02*
X0024505D01*
X0026550Y0003910D02*
X0024505D01*
X0026550Y0003820D02*
X0024505D01*
X0026550Y0003730D02*
X0024505D01*
X0026550Y0003370D02*
X0024505D01*
X0026550Y0003280D02*
X0024500D01*
X0026550Y0003190D02*
X0024500D01*
X0026550Y0003100D02*
X0024500D01*
X0026550Y0003010D02*
X0024500D01*
X0026550Y0002920D02*
X0024500D01*
X0026550Y0002830D02*
X0024500D01*
X0026550Y0005080D02*
X0024505D01*
X0026550Y0005350D02*
X0024505D01*
X0026539Y0002650D02*
X0024500D01*
X0026550Y0005500D02*
X0024510D01*
X0026550D02*
Y0002660D01*
Y0003460D02*
X0024517D01*
X0026480Y0005500D02*
Y0002650D01*
X0026390Y0005500D02*
Y0002650D01*
X0026300Y0005500D02*
Y0002650D01*
X0026210Y0005500D02*
Y0002650D01*
X0026120Y0005500D02*
Y0002650D01*
X0026030Y0005500D02*
Y0002650D01*
X0025940Y0005500D02*
Y0002650D01*
X0025850Y0005500D02*
Y0002650D01*
X0025760Y0005500D02*
Y0002650D01*
X0025670Y0005500D02*
Y0002650D01*
X0025580Y0005500D02*
Y0002650D01*
X0025490Y0005500D02*
Y0002650D01*
X0025400Y0005500D02*
Y0002650D01*
X0025310Y0005500D02*
Y0002650D01*
X0025220Y0005500D02*
Y0002650D01*
X0025130Y0005500D02*
Y0002650D01*
X0025040Y0005500D02*
Y0002650D01*
X0024950Y0005500D02*
Y0002650D01*
X0024860Y0005500D02*
Y0002650D01*
X0024770Y0005500D02*
Y0002650D01*
X0024680Y0005500D02*
Y0002650D01*
X0026550Y0002740D02*
X0024500D01*
X0026550Y0005440D02*
X0024505D01*
X0026550Y0003640D02*
X0024505D01*
X0024500Y0003354D02*
Y0002650D01*
X0017010Y0003650D02*
Y0001455D01*
X0016920Y0003650D02*
Y0001455D01*
X0016830Y0003650D02*
Y0001455D01*
X0016740Y0003650D02*
Y0001455D01*
X0016650Y0003650D02*
Y0001455D01*
X0016560Y0003650D02*
Y0001455D01*
X0016470Y0003650D02*
Y0001455D01*
X0016380Y0003650D02*
Y0001455D01*
X0018850Y0003610D02*
X0016200D01*
X0018841Y0003430D02*
X0016200D01*
X0018845Y0003340D02*
X0016200D01*
X0018845Y0003250D02*
X0016200D01*
X0018845Y0003160D02*
X0016200D01*
X0018845Y0003070D02*
X0016200D01*
X0018845Y0002980D02*
X0016200D01*
X0018845Y0002890D02*
X0016200D01*
X0018845Y0002800D02*
X0016200D01*
X0018845Y0002710D02*
X0016200D01*
X0018845Y0002620D02*
X0016200D01*
X0018845Y0002530D02*
X0016200D01*
X0018845Y0002440D02*
X0016200D01*
X0018845Y0002350D02*
X0016200D01*
X0018845Y0002260D02*
X0016200D01*
X0018845Y0002170D02*
X0016200D01*
X0018850Y0001720D02*
X0016200D01*
X0018850Y0001630D02*
X0016200D01*
X0016290Y0003650D02*
Y0001455D01*
X0018848Y0001810D02*
X0016200D01*
X0018850Y0003650D02*
Y0003595D01*
Y0001450D02*
X0016200D01*
X0018845Y0002080D02*
X0016200D01*
X0018850Y0003650D02*
X0016200D01*
Y0001455D01*
X0018833Y0003520D02*
X0016200D01*
X0018845Y0001990D02*
X0016200D01*
X0018810Y0003650D02*
Y0001455D01*
X0018720Y0003650D02*
Y0001455D01*
X0018630Y0003650D02*
Y0001455D01*
X0018540Y0003650D02*
Y0001455D01*
X0018450Y0003650D02*
Y0001455D01*
X0018360Y0003650D02*
Y0001455D01*
X0018270Y0003650D02*
Y0001455D01*
X0018180Y0003650D02*
Y0001455D01*
X0018090Y0003650D02*
Y0001455D01*
X0018000Y0003650D02*
Y0001455D01*
X0017910Y0003650D02*
Y0001455D01*
X0017820Y0003650D02*
Y0001455D01*
X0017730Y0003650D02*
Y0001455D01*
X0017640Y0003650D02*
Y0001455D01*
X0017550Y0003650D02*
Y0001455D01*
X0017460Y0003650D02*
Y0001455D01*
X0017370Y0003650D02*
Y0001455D01*
X0017280Y0003650D02*
Y0001455D01*
X0017190Y0003650D02*
Y0001455D01*
X0017100Y0003650D02*
Y0001455D01*
X0018845Y0001900D02*
X0016200D01*
X0018850Y0001540D02*
X0016200D01*
X0018850Y0001800D02*
Y0001455D01*
X0016830Y0006450D02*
Y0004300D01*
X0016740Y0006450D02*
Y0004300D01*
X0016650Y0006450D02*
Y0004300D01*
X0016560Y0006450D02*
Y0004300D01*
X0016470Y0006450D02*
Y0004300D01*
X0016380Y0006450D02*
Y0004300D01*
X0018800Y0006370D02*
X0016200D01*
X0018800Y0006280D02*
X0016200D01*
X0018800Y0006190D02*
X0016200D01*
X0018800Y0006100D02*
X0016200D01*
X0018800Y0006010D02*
X0016200D01*
X0018800Y0005920D02*
X0016200D01*
X0018800Y0005830D02*
X0016200D01*
X0018800Y0005740D02*
X0016200D01*
X0018800Y0005650D02*
X0016200D01*
X0018800Y0005560D02*
X0016200D01*
X0018800Y0005470D02*
X0016200D01*
X0018800Y0005380D02*
X0016200D01*
X0018800Y0005290D02*
X0016200D01*
X0018800Y0005200D02*
X0016200D01*
X0018800Y0005110D02*
X0016200D01*
X0018800Y0005020D02*
X0016200D01*
X0018800Y0004930D02*
X0016200D01*
X0018800Y0004840D02*
X0016200D01*
X0018800Y0004750D02*
X0016200D01*
X0018800Y0004660D02*
X0016200D01*
X0018800Y0004570D02*
X0016200D01*
X0018800Y0004480D02*
X0016200D01*
X0016290Y0006450D02*
Y0004300D01*
X0018800Y0004390D02*
X0016200D01*
X0018800Y0004300D02*
X0016200D01*
X0018800Y0006450D02*
Y0004300D01*
Y0006450D02*
X0016200D01*
Y0004300D01*
X0018720Y0006450D02*
Y0004300D01*
X0018630Y0006450D02*
Y0004300D01*
X0018540Y0006450D02*
Y0004300D01*
X0018450Y0006450D02*
Y0004300D01*
X0018360Y0006450D02*
Y0004300D01*
X0018270Y0006450D02*
Y0004300D01*
X0018180Y0006450D02*
Y0004300D01*
X0018090Y0006450D02*
Y0004300D01*
X0018000Y0006450D02*
Y0004300D01*
X0017910Y0006450D02*
Y0004300D01*
X0017820Y0006450D02*
Y0004300D01*
X0017730Y0006450D02*
Y0004300D01*
X0017640Y0006450D02*
Y0004300D01*
X0017550Y0006450D02*
Y0004300D01*
X0017460Y0006450D02*
Y0004300D01*
X0017370Y0006450D02*
Y0004300D01*
X0017280Y0006450D02*
Y0004300D01*
X0017190Y0006450D02*
Y0004300D01*
X0017100Y0006450D02*
Y0004300D01*
X0017010Y0006450D02*
Y0004300D01*
X0016920Y0006450D02*
Y0004300D01*
X0031660Y0008540D02*
X0030700D01*
X0031700Y0008450D02*
X0030700D01*
X0031700Y0008360D02*
X0030700D01*
X0031700Y0008270D02*
X0030700D01*
X0031700Y0008180D02*
X0030700D01*
X0031700Y0008090D02*
X0030700D01*
X0031700Y0008000D02*
X0030700D01*
X0031700Y0007910D02*
X0030700D01*
X0031150Y0008750D02*
Y0007805D01*
X0031690Y0008510D02*
Y0007900D01*
X0030790Y0008750D02*
Y0007550D01*
X0031420Y0008750D02*
Y0007805D01*
X0031240Y0008750D02*
Y0007805D01*
X0030995Y0007730D02*
X0030700D01*
X0030970Y0008750D02*
Y0007550D01*
X0030880Y0008750D02*
Y0007550D01*
X0031480Y0008720D02*
X0030700D01*
X0031570Y0008630D02*
X0030700D01*
X0031450Y0008750D02*
X0031700Y0008500D01*
Y0007900D01*
X0031450D01*
Y0007805D01*
X0031330Y0008750D02*
Y0007805D01*
X0031060Y0008750D02*
Y0007805D01*
X0031450Y0007820D02*
X0030700D01*
X0030995Y0007550D02*
X0030700D01*
X0030995Y0007805D02*
Y0007550D01*
X0031510Y0008690D02*
Y0007900D01*
X0031450Y0007805D02*
X0030995D01*
X0030700Y0008750D02*
Y0007550D01*
X0031450Y0008750D02*
X0030700D01*
X0030995Y0007640D02*
X0030700D01*
X0031600Y0008600D02*
Y0007900D01*
X0025680Y0011070D02*
Y0010750D01*
Y0010840D02*
X0025550D01*
X0026270Y0012250D02*
Y0011070D01*
X0025680Y0010750D02*
X0025550D01*
X0026000Y0012250D02*
Y0011070D01*
X0028400Y0010390D02*
X0026500D01*
X0025680Y0010780D02*
X0026000D01*
X0028400Y0010750D02*
X0026500D01*
X0028400Y0012190D02*
X0025550D01*
X0028400Y0012100D02*
X0025550D01*
X0028400Y0012010D02*
X0025550D01*
X0028400Y0011920D02*
X0025550D01*
X0025640Y0012250D02*
Y0010750D01*
X0028400Y0011830D02*
X0025550D01*
X0028400Y0011740D02*
X0025550D01*
X0028400Y0011650D02*
X0025550D01*
X0028400Y0011560D02*
X0025550D01*
X0028400Y0011470D02*
X0025550D01*
X0028400Y0011380D02*
X0025550D01*
X0028400Y0011290D02*
X0025550D01*
X0025820Y0012250D02*
Y0011070D01*
X0026360Y0012250D02*
Y0010750D01*
X0028400Y0010930D02*
X0026320D01*
X0028400Y0011110D02*
X0025550D01*
X0028400Y0010660D02*
X0026500D01*
X0025910Y0012250D02*
Y0011070D01*
X0028400Y0010480D02*
X0026500D01*
X0025680Y0010930D02*
X0025550D01*
X0026500Y0010350D02*
Y0010300D01*
X0028400D02*
X0026500D01*
X0028400Y0012250D02*
Y0010300D01*
Y0012250D02*
X0025550D01*
Y0010750D01*
X0026500D02*
Y0010350D01*
X0028400Y0011020D02*
X0026320D01*
X0028340Y0012250D02*
Y0010300D01*
X0028250Y0012250D02*
Y0010300D01*
X0028160Y0012250D02*
Y0010300D01*
X0028070Y0012250D02*
Y0010300D01*
X0027980Y0012250D02*
Y0010300D01*
X0027890Y0012250D02*
Y0010300D01*
X0027800Y0012250D02*
Y0010300D01*
X0027710Y0012250D02*
Y0010300D01*
X0027620Y0012250D02*
Y0010300D01*
X0027530Y0012250D02*
Y0010300D01*
X0027440Y0012250D02*
Y0010300D01*
X0027350Y0012250D02*
Y0010300D01*
X0027260Y0012250D02*
Y0010300D01*
X0027170Y0012250D02*
Y0010300D01*
X0027080Y0012250D02*
Y0010300D01*
X0026990Y0012250D02*
Y0010300D01*
X0026900Y0012250D02*
Y0010300D01*
X0026810Y0012250D02*
Y0010300D01*
X0026720Y0012250D02*
Y0010300D01*
X0026630Y0012250D02*
Y0010300D01*
X0026540Y0012250D02*
Y0010300D01*
X0026450Y0012250D02*
Y0010750D01*
X0026090Y0012250D02*
Y0011070D01*
X0028400Y0010840D02*
X0026320D01*
X0028400Y0010570D02*
X0026500D01*
X0026000Y0011070D02*
Y0010780D01*
X0026320D02*
X0026000D01*
X0028400Y0011200D02*
X0025550D01*
X0025680Y0011020D02*
X0025550D01*
X0025730Y0012250D02*
Y0011070D01*
X0026320D02*
Y0010750D01*
Y0011070D02*
X0025680D01*
X0026500Y0010750D02*
X0026320D01*
X0026180Y0012250D02*
Y0011070D01*
G01X0024500Y0003354D02*
G03X0024518Y0003450I0000250J0000096D01*
G03X0024505Y0003531I0000268J0000000D01*
G01X0018850Y0003595D02*
G03X0018833Y0003500I0000250J0000095D01*
G01X0018832D02*
G03X0018845Y0003418I0000268J0000000D01*
G54D63*
G01X0006500Y0003530D02*
X0006470D01*
X0006150Y0003850D01*
X0005800D01*
X0005500Y0004150D01*
Y0004500D01*
X0005550Y0004550D01*
X0007218Y0007318D02*
X0006470D01*
X0010008Y0010265D02*
Y0010742D01*
X0009550Y0011200D01*
X0006750Y0011470D02*
Y0011050D01*
Y0010600D01*
X0005280Y0007250D02*
Y0006500D01*
X0004250Y0004220D02*
X0004270D01*
X0005000Y0004950D01*
Y0005200D01*
X0005400Y0005750D02*
Y0005600D01*
X0005000Y0005200D01*
X0005280Y0006500D02*
Y0005870D01*
X0005400Y0005750D01*
X0010985Y0007318D02*
X0012402D01*
X0012720Y0007000D01*
X0006750Y0010600D02*
X0007085Y0010265D01*
X0007250D01*
Y0009900D01*
X0007700Y0009450D01*
Y0008550D01*
X0007256Y0008106D01*
X0006470D01*
X0007256D01*
X0007700Y0008550D01*
X0008050D01*
X0010985Y0007318D02*
X0010568D01*
X0010350Y0007100D01*
X0008000Y0004220D02*
X0007930D01*
X0007650Y0004500D01*
Y0005050D01*
X0007750Y0005150D01*
X0008250Y0011720D02*
Y0011700D01*
X0007900Y0011350D01*
X0007850Y0011300D01*
X0007150D01*
X0006980Y0011470D01*
X0006750D01*
X0008250Y0011720D02*
Y0011700D01*
X0007900Y0011350D01*
Y0011000D01*
X0009550Y0011200D02*
X0010008Y0010742D01*
Y0010265D01*
X0005750Y0007300D02*
X0005350D01*
X0005300Y0007250D01*
X0005280D01*
X0006500Y0004700D02*
X0006650D01*
X0006850Y0004500D01*
X0007650D01*
Y0005050D01*
X0007750Y0005150D01*
X0019680Y0010220D02*
X0019250D01*
X0012410Y0010470D02*
X0012000D01*
X0015500Y0010900D02*
X0015650Y0011050D01*
Y0011850D01*
X0015407Y0012093D01*
Y0012299D01*
X0025500Y0003450D03*
X0014896Y0012299D02*
Y0011354D01*
X0014900Y0011350D01*
X0007500Y0011720D02*
X0007470Y0011750D01*
X0005800D01*
X0005300Y0012250D01*
X0005100D01*
X0004700Y0011850D01*
X0003100D01*
X0002750Y0012200D01*
Y0012260D01*
X0014750Y0010900D02*
X0014800Y0010950D01*
X0014896Y0011046D01*
Y0011350D01*
Y0012299D01*
X0022000Y0011100D02*
Y0011250D01*
X0021396Y0011854D01*
Y0012299D01*
X0023020Y0002250D02*
X0023350D01*
X0023400Y0002300D01*
Y0003650D01*
X0022950Y0004100D01*
Y0004410D01*
X0023020Y0004480D01*
Y0004500D01*
X0023000Y0010900D02*
Y0011500D01*
X0022201Y0012299D01*
X0021907D01*
X0006470Y0009485D02*
X0007265D01*
X0007300Y0009450D01*
X0041250Y0012970D02*
X0040970D01*
X0040800Y0012800D01*
X0007200Y0008950D02*
X0006862Y0009288D01*
X0006470D01*
X0005550Y0019200D02*
X0005650Y0019300D01*
X0037200D01*
X0037720Y0018780D01*
X0037750D01*
X0039750Y0015400D02*
X0039880Y0015530D01*
X0040500D01*
X0023000Y0010900D02*
X0023744D01*
X0023750Y0010894D01*
X0010985Y0008500D02*
X0011500D01*
X0011700Y0008700D01*
X0012700D01*
X0013370Y0008030D01*
X0014750D01*
X0010985Y0007712D02*
X0011662D01*
X0011100Y0005850D02*
Y0005550D01*
X0010700Y0005150D01*
X0010350D01*
X0009900Y0004700D01*
Y0004450D01*
X0009500Y0004050D01*
Y0003500D01*
X0009450Y0003450D01*
Y0003050D01*
X0009500Y0003000D01*
X0009800Y0002700D01*
X0020350Y0002650D02*
X0019800D01*
X0019470Y0002980D01*
X0003850Y0011530D02*
Y0011050D01*
X0005700Y0006850D02*
X0005971Y0007121D01*
X0006470D01*
X0014800Y0011050D02*
X0014896D01*
X0014800Y0010954D01*
Y0010950D01*
X0014750Y0010900D01*
X0003500Y0004780D02*
Y0006100D01*
X0003550Y0010000D02*
X0004000D01*
X0004100Y0010100D01*
X0004800D01*
X0005000Y0009900D01*
Y0009530D01*
X0005280Y0009250D01*
X0029000Y0004750D02*
X0028900D01*
X0028650Y0005000D01*
X0028600Y0005050D01*
Y0005250D01*
X0008650Y0008650D02*
X0008700D01*
X0008826Y0008776D01*
Y0010265D01*
X0029500Y0007600D02*
X0029250Y0007850D01*
X0004250Y0015470D02*
X0003980Y0015200D01*
X0003850D01*
X0002950Y0014300D01*
X0002300D01*
X0002250Y0014350D01*
Y0014740D01*
X0023750Y0010894D02*
X0024386D01*
X0024500Y0010780D01*
X0008629Y0005750D02*
Y0004901D01*
X0008750Y0004780D01*
X0006500Y0005466D02*
X0006766D01*
X0007050Y0005750D01*
X0007250D01*
X0024750Y0007530D02*
X0024720Y0007500D01*
X0024200D01*
X0009600Y0004550D02*
Y0004642D01*
X0010008Y0005050D01*
Y0005750D01*
X0025250Y0010894D02*
X0024610D01*
X0024500Y0010780D01*
X0014640Y0012299D02*
Y0011690D01*
X0014600Y0011650D01*
X0010000Y0008700D02*
X0009900D01*
X0009700Y0008900D01*
Y0009500D01*
X0009811Y0009611D01*
Y0010265D01*
Y0005750D02*
Y0005261D01*
X0009600Y0005050D01*
X0022500Y0007550D02*
X0022980D01*
X0023000Y0007530D01*
X0021250Y0010780D02*
Y0011000D01*
X0020884Y0011366D01*
Y0012299D01*
X0006450Y0012850D02*
X0005700D01*
X0005550Y0012700D01*
X0005750Y0006200D02*
X0005950Y0006400D01*
Y0006750D01*
X0006124Y0006924D01*
X0006470D01*
X0013000Y0010910D02*
Y0011550D01*
X0013360Y0011910D01*
Y0012299D01*
X0027250Y0004720D02*
X0027530Y0005000D01*
X0028650D01*
X0028900Y0004750D01*
X0029000D01*
X0007250Y0004780D02*
Y0005050D01*
X0007447Y0005247D01*
Y0005750D01*
X0009750Y0011720D02*
X0009350D01*
X0009270Y0011800D01*
X0009250D01*
X0003450Y0012200D02*
X0003940D01*
X0004000Y0012260D01*
X0019470Y0005250D02*
Y0005370D01*
X0019850Y0005750D01*
X0008850Y0010850D02*
X0009023Y0010677D01*
Y0010265D01*
X0009220Y0005750D02*
Y0006220D01*
X0009350Y0006350D01*
X0021250Y0011400D02*
X0021140Y0011510D01*
Y0012299D01*
X0010985Y0008106D02*
X0012366D01*
X0012500Y0008240D01*
X0015300Y0011650D02*
X0015151Y0011798D01*
Y0012299D01*
X0006450Y0012850D02*
X0005700D01*
X0005550Y0012700D01*
X0006600Y0012850D02*
X0006450D01*
X0010000Y0013250D02*
Y0014450D01*
X0009050Y0015400D01*
X0007500D01*
X0007350Y0015550D01*
Y0016100D01*
X0007170Y0016280D01*
X0007000D01*
X0007037Y0017606D02*
X0007000Y0017569D01*
Y0016280D01*
X0010250Y0003970D02*
X0010230Y0003950D01*
X0009800D01*
X0009850Y0007600D02*
X0010159Y0007909D01*
X0010985D01*
X0027230Y0004720D02*
X0027250D01*
X0021651Y0014701D02*
Y0015151D01*
X0021750Y0015250D01*
X0021900D01*
X0022500Y0015850D01*
Y0016300D01*
X0009700Y0008400D02*
Y0008350D01*
X0009350Y0008000D01*
Y0007650D01*
X0010273Y0006727D01*
X0010985D01*
X0011250Y0010470D02*
X0011270D01*
X0011600Y0010800D01*
Y0011300D01*
X0012100Y0011800D01*
X0012700D01*
X0012848Y0011948D01*
Y0012299D01*
X0007824Y0018393D02*
X0009393D01*
X0009500Y0018500D01*
X0010250D01*
X0010500Y0018250D01*
Y0018220D01*
X0006470Y0008894D02*
X0006006D01*
X0005650Y0009250D01*
X0005280D01*
X0009500Y0013250D02*
Y0012900D01*
X0008800Y0012200D01*
Y0011250D01*
X0008235Y0010685D01*
Y0010265D01*
X0020372Y0012299D02*
X0020350Y0012277D01*
Y0011100D01*
X0011510Y0006340D02*
X0011420Y0006250D01*
X0011020D01*
X0010985Y0006285D01*
Y0006530D01*
X0019250Y0010780D02*
Y0011550D01*
X0019604Y0011904D01*
Y0012299D01*
X0007750Y0015030D02*
X0008100D01*
Y0013100D01*
X0008600Y0012600D01*
Y0011300D01*
X0008038Y0010738D01*
Y0010265D01*
X0006470Y0008697D02*
X0005280D01*
X0002750Y0004220D02*
X0002920D01*
X0003480Y0004780D01*
X0003500D01*
X0008826Y0005750D02*
Y0005274D01*
X0009100Y0005000D01*
Y0003700D01*
X0008900Y0003500D01*
X0008650D01*
X0008300Y0003850D01*
X0007550D01*
X0007250Y0003550D01*
Y0003530D01*
X0007824Y0017606D02*
X0007831Y0017600D01*
X0007900D01*
X0008520Y0018220D01*
X0009750D01*
X0006470Y0007909D02*
X0006091D01*
X0005850Y0008150D01*
X0004100D01*
X0002750Y0009500D01*
X0004250Y0004780D02*
Y0005050D01*
X0003750Y0005550D01*
Y0005950D01*
X0003900Y0006100D01*
X0019860Y0012299D02*
Y0011560D01*
X0019650Y0011350D01*
Y0011100D01*
X0020100Y0010650D01*
X0020240D01*
X0020250Y0010660D01*
X0010985Y0006924D02*
X0011376D01*
X0011850Y0006450D01*
X0013950D01*
X0014350Y0006850D01*
X0016150D01*
X0016350Y0006650D01*
X0017700D01*
X0018050Y0007000D01*
X0018250D01*
X0018500Y0007250D01*
X0018800D01*
X0018100Y0009800D02*
Y0014350D01*
X0018900Y0015150D01*
X0019250D01*
X0019348Y0015051D01*
Y0014701D01*
X0004500Y0011530D02*
X0004480Y0011550D01*
X0003850D01*
Y0011530D01*
X0005750Y0003530D02*
X0005820D01*
X0006100Y0003250D01*
X0008350D01*
X0008650Y0002950D01*
X0008950Y0006350D02*
Y0007850D01*
X0009400Y0008300D01*
Y0009500D01*
X0009614Y0009714D01*
Y0010265D01*
X0014800Y0006330D02*
X0014750Y0006280D01*
X0014384Y0012299D02*
Y0011950D01*
X0014300Y0011866D01*
Y0011366D01*
X0014000Y0011066D01*
Y0011030D01*
X0005000Y0003530D02*
X0004850Y0003680D01*
Y0004300D01*
X0006350Y0005800D01*
X0006650D01*
X0009200Y0008350D01*
Y0009550D01*
X0009417Y0009767D01*
Y0010265D01*
X0007250Y0004780D02*
X0007087D01*
X0006833Y0005033D01*
X0006500D01*
X0021250Y0003750D02*
X0021280D01*
X0023750Y0003220D02*
X0023770Y0003200D01*
X0024000D01*
X0024020Y0003220D01*
X0011250Y0011030D02*
Y0011314D01*
X0012134Y0012214D01*
X0012593D01*
Y0012299D01*
X0001750Y0009500D02*
X0002250Y0009000D01*
X0003000D01*
X0004050Y0007950D01*
X0005800D01*
X0006038Y0007712D01*
X0006470D01*
X0031300Y0005300D02*
X0031250Y0005250D01*
Y0005280D01*
X0017220Y0007500D02*
X0017200D01*
X0016950Y0007750D01*
X0013400D01*
X0012650Y0008500D01*
X0011749D01*
X0011556Y0008303D01*
X0010985D01*
X0029250Y0007850D02*
X0029500Y0007600D01*
X0021651Y0012299D02*
Y0011948D01*
X0022100Y0011500D01*
X0022350D01*
X0010550Y0005950D02*
X0010600D01*
X0010300Y0006250D01*
X0009750D01*
X0009614Y0006114D01*
Y0005750D01*
X0035500Y0015970D02*
Y0015450D01*
X0007800Y0006320D02*
X0007830D01*
X0008038Y0006112D01*
Y0005750D01*
X0001750Y0008500D02*
X0002250Y0008000D01*
X0003750D01*
X0004000Y0007750D01*
X0005750D01*
X0005985Y0007515D01*
X0006470D01*
X0018500Y0010220D02*
X0018900Y0010620D01*
Y0011500D01*
X0019348Y0011948D01*
Y0012299D01*
X0012848Y0014701D02*
Y0015051D01*
X0012650Y0015250D01*
X0011750D01*
X0010300Y0009300D02*
X0010973D01*
X0010985Y0009288D01*
X0042000Y0014970D02*
X0042280Y0015250D01*
X0043200D01*
X0043400Y0015450D01*
X0008050Y0007850D02*
Y0007750D01*
X0006830Y0006530D01*
X0006470D01*
X0014896Y0012299D02*
Y0011346D01*
X0014891Y0011350D01*
X0014896D01*
Y0012299D01*
X0010985Y0007121D02*
X0011429D01*
X0011900Y0006650D01*
X0013900D01*
X0014400Y0007150D01*
X0016150D01*
X0016450Y0006850D01*
X0017650D01*
X0018050Y0007250D01*
X0018250D01*
X0018550Y0007550D01*
X0019100D01*
X0019450Y0007200D01*
X0019850D01*
X0020100Y0007450D01*
Y0007500D01*
X0020600Y0009900D02*
X0020750Y0010050D01*
Y0011178D01*
X0020628Y0011300D01*
Y0012299D01*
X0008000Y0003530D02*
Y0003500D01*
X0008400D01*
X0008600Y0003300D01*
X0009000D01*
X0009300Y0003600D01*
Y0005100D01*
X0009023Y0005377D01*
Y0005750D01*
X0008500Y0015030D02*
X0008100D01*
X0007750D01*
X0010985Y0009091D02*
X0010491D01*
X0010400Y0009000D01*
X0010150D01*
X0010050Y0009100D01*
X0010000D01*
X0015950Y0016250D02*
Y0015900D01*
X0015151Y0015101D01*
Y0014701D01*
X0020116Y0012299D02*
Y0011416D01*
X0019950Y0011250D01*
X0010500Y0005550D02*
X0010300Y0005750D01*
X0010205D01*
X0009220Y0010265D02*
Y0009820D01*
X0009000Y0009600D01*
Y0008400D01*
X0006600Y0006000D01*
X0006300D01*
X0004650Y0004350D01*
Y0004000D01*
X0004250Y0003600D01*
Y0003530D01*
X0010985Y0008697D02*
X0011444D01*
X0011701Y0008950D01*
X0012470D01*
X0012490Y0008970D01*
X0013300Y0011480D02*
X0013616Y0011796D01*
Y0012299D01*
X0013872D02*
Y0011810D01*
X0013650Y0011600D01*
Y0011330D01*
X0013590Y0011270D01*
X0012120Y0009220D02*
X0012100Y0009200D01*
X0011700D01*
X0011400Y0008900D01*
X0010991D01*
X0010985Y0008894D01*
X0014128Y0012299D02*
Y0012028D01*
X0014100Y0012000D01*
Y0011600D01*
X0014000Y0011500D01*
X0011735Y0009485D02*
X0011065D01*
X0011050Y0009500D01*
X0011000D01*
X0010985Y0009485D01*
X0005970Y0004250D02*
Y0005170D01*
X0006266Y0005466D01*
X0006500D01*
X0015600Y0008300D02*
X0015330Y0008030D01*
X0014750D01*
X0018500Y0010780D02*
Y0011800D01*
X0018999Y0012299D01*
X0019093D01*
X0013104D02*
Y0011904D01*
X0012800Y0011600D01*
X0012300D01*
X0012000Y0011300D01*
Y0011030D01*
X0011000Y0013250D02*
Y0012400D01*
X0011300Y0012100D01*
X0008750Y0012850D02*
X0008520Y0013080D01*
Y0013200D01*
X0008500Y0013220D01*
G54D64*
G01X0004250Y0004220D02*
X0003500D01*
X0023050Y0015550D02*
X0023334Y0015266D01*
X0023750D01*
X0021250Y0015550D02*
X0021140Y0015440D01*
Y0014701D01*
X0013360D02*
Y0015390D01*
X0013200Y0015550D01*
X0014750D02*
X0014640Y0015440D01*
Y0014701D01*
X0019600Y0015550D02*
X0019860Y0015290D01*
Y0014701D01*
Y0015290D01*
X0019600Y0015550D01*
X0016700D02*
X0016984Y0015266D01*
X0017250D01*
X0014640Y0014701D02*
Y0015440D01*
X0014750Y0015550D01*
X0016700D02*
X0016984Y0015266D01*
X0017250D01*
X0013360Y0014701D02*
Y0015390D01*
X0013200Y0015550D01*
X0041250Y0013530D02*
Y0014000D01*
X0042250Y0013800D02*
X0042270Y0013780D01*
X0042750D01*
X0042270D01*
X0042250Y0013800D01*
X0043250Y0014950D02*
X0043230Y0014970D01*
X0042750D01*
X0039750Y0016518D02*
X0039268D01*
X0039250Y0016500D01*
X0036500Y0015250D02*
X0036970D01*
X0039250Y0018220D02*
Y0017750D01*
Y0016500D02*
X0039268Y0016518D01*
X0039750D01*
X0028250Y0015785D02*
Y0016500D01*
X0029600Y0015050D02*
Y0015700D01*
X0021250Y0006780D02*
X0021280D01*
Y0007160D01*
X0020250Y0009340D02*
Y0008910D01*
X0020240Y0008920D01*
X0020450Y0007400D02*
Y0006900D01*
X0021250Y0006780D02*
X0021280D01*
Y0007160D01*
X0020450Y0007400D02*
Y0006900D01*
Y0007400D02*
Y0006900D01*
X0013300Y0013500D02*
X0012800D01*
X0012600Y0014050D02*
X0012593Y0014057D01*
Y0014701D01*
X0022500Y0009850D02*
X0022000D01*
X0021250Y0010220D02*
Y0009750D01*
X0020240Y0008920D02*
X0020250Y0008910D01*
Y0009340D01*
X0013250Y0017950D02*
Y0017410D01*
X0004600Y0005750D02*
X0004100D01*
X0004250Y0007250D02*
X0004720D01*
X0006750Y0012030D02*
X0006730D01*
X0006700Y0012000D01*
X0006180D01*
X0006080Y0012100D01*
X0006050D01*
X0007500Y0012700D02*
Y0012280D01*
X0007000Y0015720D02*
X0006520D01*
X0006500Y0015700D01*
X0004720Y0007250D02*
X0004250D01*
Y0008500D02*
X0004720D01*
X0004250D01*
X0007750Y0013780D02*
X0007270D01*
X0007250Y0013800D01*
X0006450Y0014150D02*
Y0013650D01*
Y0014150D01*
X0006500Y0015050D02*
X0006520Y0015030D01*
X0007000D01*
X0004720Y0008500D02*
X0004250D01*
X0004700Y0009750D02*
X0004720Y0009730D01*
Y0009250D01*
X0007750Y0013780D02*
X0007270D01*
X0007250Y0013800D01*
X0007500Y0012700D02*
Y0012280D01*
X0006750Y0012030D02*
X0006730D01*
X0006700Y0012000D01*
X0006180D01*
X0006080Y0012100D01*
X0006050D01*
X0005200Y0011950D02*
Y0011710D01*
X0005500Y0011410D01*
X0005200Y0011710D01*
Y0011950D01*
X0005000Y0010950D02*
X0004980Y0010970D01*
X0004500D01*
X0004980D01*
X0005000Y0010950D01*
X0004700Y0009750D02*
X0004720Y0009730D01*
Y0009250D01*
X0014750Y0017410D02*
Y0017950D01*
X0013250D02*
Y0017410D01*
X0018150Y0008300D02*
X0018650D01*
X0016900D02*
X0016400D01*
X0015500Y0010100D02*
Y0009600D01*
X0017000Y0009750D02*
Y0010220D01*
X0020250Y0009340D02*
Y0008910D01*
X0020240Y0008920D01*
X0018650Y0008300D02*
X0018150D01*
X0017000Y0010220D02*
Y0009750D01*
X0016900Y0008300D02*
X0016400D01*
X0007000Y0015030D02*
X0006520D01*
X0006500Y0015050D01*
Y0015700D02*
X0006520Y0015720D01*
X0007000D01*
X0006520D01*
X0006500Y0015700D01*
X0021900Y0014050D02*
X0021907Y0014057D01*
Y0014701D01*
X0022000Y0009850D02*
X0022500D01*
X0021250Y0009750D02*
Y0010220D01*
X0014250Y0005050D02*
X0014270Y0005030D01*
X0014750D01*
X0014270D01*
X0014250Y0005050D01*
X0015050Y0002400D02*
X0014750D01*
Y0002030D01*
X0008550Y0001350D02*
X0008000D01*
X0008250Y0012280D02*
X0007500D01*
X0015500Y0010100D02*
X0014750D01*
X0008000Y0001350D02*
X0007250D01*
X0006500D01*
X0005750D01*
X0005000D01*
X0004250D01*
X0032750Y0003870D02*
X0032250D01*
Y0001300D01*
X0031750Y0003870D02*
X0032250D01*
Y0001300D01*
X0042000Y0017470D02*
X0042480D01*
X0042500Y0017450D01*
X0042450Y0016600D02*
X0042230D01*
X0042050Y0016780D01*
X0042000D01*
X0041250Y0015530D02*
X0041620Y0015900D01*
X0042450Y0016600D02*
X0042230D01*
X0042050Y0016780D01*
X0042000D01*
X0042750Y0014970D02*
X0043230D01*
X0043250Y0014950D01*
X0042450Y0016600D02*
X0042230D01*
X0042050Y0016780D01*
X0042000D01*
X0041250Y0015530D02*
X0041620Y0015900D01*
X0039250Y0016500D02*
X0039268Y0016518D01*
X0039750D01*
X0040500Y0013720D02*
Y0013250D01*
X0041250Y0014000D02*
Y0013530D01*
X0029600Y0015700D02*
Y0015050D01*
X0026750Y0015785D02*
Y0016500D01*
X0028250D02*
Y0015785D01*
X0025500Y0015970D02*
Y0015500D01*
X0026750Y0016500D02*
Y0015785D01*
X0029600Y0015700D02*
Y0015050D01*
X0023750Y0017234D02*
X0024384D01*
X0024400Y0017250D01*
X0025500Y0015500D02*
Y0015970D01*
X0024400Y0017250D02*
X0024384Y0017234D01*
X0023750D01*
X0021250Y0017410D02*
Y0017950D01*
X0019500Y0017410D02*
Y0017950D01*
X0021250D02*
Y0017410D01*
X0017250Y0017234D02*
X0017884D01*
X0017900Y0017250D01*
X0019500Y0017950D02*
Y0017410D01*
X0036590Y0014000D02*
Y0012610D01*
X0037150Y0012050D01*
Y0010500D01*
X0039430Y0008220D01*
X0040750D01*
X0037530Y0015250D02*
Y0015530D01*
X0037750Y0015750D01*
X0037821D01*
X0014750Y0005720D02*
X0015480D01*
X0015700Y0005500D01*
X0003500Y0003650D02*
Y0004220D01*
X0029000Y0009285D02*
Y0008500D01*
X0029600Y0008200D02*
X0029700Y0008100D01*
X0030250D01*
X0015849Y0014701D02*
X0015407D01*
X0021396Y0012299D02*
Y0012696D01*
X0022650Y0013950D01*
Y0015650D01*
X0023250Y0016250D01*
X0024750D01*
X0025000Y0016500D01*
X0025470D01*
X0025500Y0016530D01*
X0015700Y0002500D02*
X0015600D01*
X0015130Y0002970D01*
X0014750D01*
X0019800Y0013500D02*
X0019400D01*
X0019100Y0014050D02*
X0019093Y0014057D01*
Y0014701D01*
X0021250Y0010220D02*
Y0009750D01*
X0042000Y0016220D02*
Y0015530D01*
X0022000Y0004500D02*
Y0003780D01*
X0021970Y0003750D01*
X0036250Y0016530D02*
X0035500D01*
X0031200Y0005300D02*
X0030000D01*
X0004500Y0011530D02*
X0003850D01*
X0002570D01*
X0002250Y0011850D01*
Y0012260D01*
X0031750Y0003130D02*
X0031850Y0003030D01*
Y0002200D01*
X0020450Y0006100D02*
X0019450D01*
X0019150Y0005800D01*
Y0004300D01*
X0018850Y0004000D01*
X0013520D01*
X0019470Y0002980D02*
Y0002250D01*
X0004500Y0011530D02*
X0003850D01*
X0021250Y0006220D02*
X0021280D01*
X0021300Y0006200D01*
X0021980D01*
X0022000Y0006220D01*
X0032750Y0003130D02*
X0033230D01*
X0033500Y0003400D01*
Y0003470D01*
X0044250Y0014213D02*
X0044900D01*
Y0015600D01*
X0044700Y0015800D01*
X0043700D01*
X0042400Y0017100D01*
X0041800D01*
X0040120Y0018780D01*
X0039250D01*
X0004600Y0005750D02*
X0004100D01*
X0002000Y0004000D02*
X0001530D01*
X0021970Y0003750D02*
X0021280D01*
X0032750Y0003130D02*
X0032650Y0003030D01*
Y0002200D01*
X0041250Y0014970D02*
X0041130D01*
X0040570Y0015530D01*
X0040500D01*
X0023020Y0004500D02*
X0022900D01*
X0022500Y0004900D01*
Y0005720D01*
X0022000Y0006220D01*
X0012500Y0004000D02*
X0012470Y0003970D01*
X0011750D01*
X0044250Y0014213D02*
X0044900D01*
Y0013100D01*
X0044300Y0012500D01*
Y0011040D01*
X0043380Y0010120D01*
Y0010000D01*
X0042750Y0015530D02*
X0042000D01*
X0014750Y0006280D02*
X0014380D01*
X0014300Y0006200D01*
X0013050Y0005500D02*
Y0003850D01*
X0012500Y0003300D01*
Y0002500D01*
X0012000Y0002000D01*
X0011388D01*
X0010888Y0001500D01*
X0003600Y0001300D02*
X0003650Y0001350D01*
X0004250D01*
X0016250Y0010106D02*
X0016000Y0009856D01*
Y0009200D01*
X0004500Y0012260D02*
X0004610D01*
X0005550Y0013200D01*
Y0013250D01*
X0036250Y0018220D02*
Y0016530D01*
X0037750Y0018220D02*
X0037680D01*
X0037120Y0018780D01*
X0037000D01*
X0015500Y0010900D02*
X0016244D01*
X0016250Y0010894D01*
X0009750Y0018220D02*
X0009880D01*
X0010100Y0018000D01*
Y0017650D01*
X0010050Y0017600D01*
X0010053D01*
X0005500Y0010090D02*
Y0010100D01*
X0005300D01*
X0005100Y0010300D01*
X0003900D01*
Y0009700D02*
Y0009500D01*
X0004500Y0008900D01*
X0005100D01*
X0005280Y0008720D01*
Y0008697D01*
Y0008500D01*
X0022000Y0002250D02*
X0021970Y0002220D01*
Y0001500D01*
X0019000Y0009280D02*
X0017830D01*
X0017750Y0009200D01*
X0037821Y0016006D02*
X0037036D01*
X0037000Y0015970D01*
X0020030Y0001500D02*
X0020400D01*
Y0001900D01*
X0025213Y0001750D02*
Y0001987D01*
X0024900Y0002300D01*
X0024000D01*
X0023600Y0001900D01*
X0022600D01*
X0022500Y0002000D01*
Y0003150D01*
X0022250Y0003400D01*
X0020900D01*
X0020720Y0003580D01*
Y0003750D01*
X0040500Y0016220D02*
X0040620D01*
X0041180Y0016780D01*
X0041250D01*
X0014896Y0014701D02*
Y0015146D01*
X0015600Y0015850D01*
Y0018262D01*
X0015112Y0018750D01*
X0007750Y0013220D02*
X0006820D01*
X0006450Y0012850D01*
X0004250Y0016030D02*
Y0016450D01*
X0003950Y0016750D01*
Y0018450D01*
X0004400Y0018900D01*
X0005750D01*
X0006250Y0018400D01*
Y0018393D01*
X0013500Y0002720D02*
Y0002300D01*
X0011700D02*
Y0002670D01*
X0011750Y0002720D01*
X0009250Y0016470D02*
X0009320Y0016400D01*
X0010053D01*
X0017750Y0010894D02*
X0017110D01*
X0017000Y0010780D01*
X0021970Y0001500D02*
X0021280D01*
X0015700Y0006400D02*
X0015750D01*
X0015800Y0006350D01*
X0015700D01*
X0015630Y0006280D01*
X0014750D01*
X0020720Y0003000D02*
X0020030D01*
X0011250Y0016470D02*
X0011180Y0016400D01*
X0010447D01*
X0021250Y0016090D02*
X0020884Y0015724D01*
Y0014701D01*
X0007750Y0014470D02*
X0007000D01*
X0014750Y0009280D02*
X0015920D01*
X0016000Y0009200D01*
X0003500Y0015470D02*
X0003570D01*
X0004100Y0016000D01*
X0004250D01*
Y0016030D01*
X0010053Y0016400D02*
X0010000Y0016346D01*
Y0015650D01*
X0040750Y0009760D02*
Y0008780D01*
X0011000Y0002720D02*
X0010250D01*
X0039250Y0014780D02*
Y0016050D01*
X0039462Y0016262D01*
X0039750D01*
X0020720Y0005250D02*
X0020030D01*
X0022000D02*
X0021280D01*
X0037000Y0015970D02*
X0036250D01*
X0005750Y0002970D02*
Y0002150D01*
X0020720Y0001500D02*
X0020400D01*
X0020030D01*
X0038500Y0018220D02*
X0037750D01*
X0005280Y0008697D02*
Y0008500D01*
X0017750Y0010106D02*
Y0009200D01*
X0010500Y0018220D02*
X0010447Y0018167D01*
Y0017600D01*
X0008500Y0014470D02*
Y0013780D01*
X0007250Y0002970D02*
Y0002150D01*
X0005000Y0002970D02*
Y0002150D01*
X0042000Y0016220D02*
X0041250D01*
X0006500Y0002970D02*
Y0002150D01*
X0037821Y0016518D02*
Y0016979D01*
X0037000Y0017800D01*
Y0018220D01*
X0003850Y0011530D02*
X0004500D01*
X0040500Y0016780D02*
X0040480D01*
X0040100Y0016400D01*
Y0016100D01*
X0040006Y0016006D01*
X0039750D01*
X0020720Y0003750D02*
X0020030D01*
X0019470Y0005250D02*
Y0004500D01*
X0014750Y0006280D02*
X0014380D01*
X0014300Y0006200D01*
X0021250Y0006220D02*
X0021130Y0006100D01*
X0020450D01*
X0016250Y0010894D02*
X0016886D01*
X0017000Y0010780D01*
X0010250Y0003970D02*
Y0003280D01*
X0013104Y0014701D02*
Y0015196D01*
X0012700Y0015600D01*
Y0018700D01*
X0012750Y0018750D01*
X0019250D02*
X0018800Y0018300D01*
Y0015700D01*
X0018950Y0015550D01*
X0019150D01*
X0019604Y0015096D01*
Y0014701D01*
X0008750Y0004780D02*
X0008000D01*
X0019470Y0003000D02*
Y0002980D01*
Y0002250D01*
X0011750Y0002720D02*
X0011700Y0002670D01*
Y0002300D01*
X0010900D01*
X0010100Y0001500D01*
X0011000Y0004530D02*
X0011470Y0005000D01*
X0012100D01*
X0012350Y0004750D01*
X0012500D01*
X0011750Y0003970D02*
Y0003280D01*
X0017350Y0008300D02*
X0017220Y0008170D01*
Y0007500D01*
X0039750Y0015750D02*
X0040150D01*
X0040500Y0016100D01*
Y0016220D01*
X0037821Y0016262D02*
X0037438D01*
X0037200Y0016500D01*
X0037030D01*
X0037000Y0016530D01*
X0020628Y0014701D02*
Y0018528D01*
X0020825Y0018725D01*
Y0018750D01*
X0020720Y0002250D02*
X0020030D01*
X0021612Y0018750D02*
X0021600Y0018738D01*
Y0018700D01*
X0021900Y0018400D01*
Y0015750D01*
X0021396Y0015246D01*
Y0014701D01*
X0010447Y0016400D02*
X0010500Y0016346D01*
Y0015650D01*
X0002750Y0007500D02*
Y0004780D01*
X0005300Y0016700D02*
X0005500Y0016500D01*
Y0015910D01*
X0020037Y0018750D02*
X0020372Y0018415D01*
Y0014701D01*
X0022000Y0003000D02*
X0021280D01*
X0008000Y0002970D02*
Y0002150D01*
X0020720Y0004500D02*
X0020030D01*
X0004250Y0002970D02*
Y0002150D01*
X0013616Y0014701D02*
Y0015884D01*
X0013410Y0016090D01*
X0013250D01*
X0032000Y0010470D02*
X0031970D01*
X0031100Y0009600D01*
Y0009450D01*
X0030550Y0008900D01*
X0030250D01*
X0011000Y0003970D02*
Y0004000D01*
X0010900D01*
X0010370Y0004530D01*
X0010250D01*
X0025500Y0017780D02*
X0025020D01*
X0024650Y0018150D01*
Y0018500D01*
X0013872Y0014701D02*
Y0018378D01*
X0013537Y0018713D01*
Y0018750D01*
X0014384Y0014701D02*
Y0015884D01*
X0014590Y0016090D01*
X0014750D01*
X0039250Y0018780D02*
Y0018850D01*
X0038900Y0019200D01*
X0038100D01*
X0037750Y0018850D01*
Y0018780D01*
X0007750Y0015720D02*
X0009430D01*
X0009500Y0015650D01*
X0014128Y0014701D02*
Y0018528D01*
X0014325Y0018725D01*
Y0018750D01*
X0036250Y0018220D02*
X0035500D01*
X0019500Y0016090D02*
X0020116Y0015474D01*
Y0014701D01*
G54D66*
G01X0004500Y0014740D02*
Y0015470D01*
X0004600D01*
X0004750Y0015620D01*
Y0016500D01*
X0004200Y0017050D01*
Y0018200D01*
X0004393Y0018393D01*
X0004675D01*
X0002894Y0015500D02*
Y0015644D01*
X0003280Y0016030D01*
X0003500D01*
X0002106Y0015500D02*
Y0014884D01*
X0002250Y0014740D01*
X0004250Y0015470D02*
X0004500D01*
Y0014740D01*
X0002894Y0015500D02*
X0002750Y0015356D01*
Y0014740D01*
X0005500Y0014590D02*
X0005160Y0014250D01*
X0004250D01*
X0004000Y0014500D01*
Y0014740D01*
G54D67*
G01X0026000Y0010780D02*
Y0011229D01*
X0026014Y0011214D01*
X0027500D01*
X0032000Y0009780D02*
X0032280D01*
X0033250Y0010750D01*
Y0011214D01*
X0032867Y0013500D02*
Y0011594D01*
X0033250Y0011214D01*
X0025367Y0013500D02*
Y0014333D01*
X0024400Y0015300D01*
X0023784D01*
X0023750Y0015266D01*
X0034750Y0009285D02*
X0033250D01*
X0037000Y0008000D02*
X0035150D01*
X0039750Y0005250D02*
X0038750D01*
X0027888Y0003500D02*
Y0001750D01*
X0039750Y0005250D02*
X0039734Y0005234D01*
Y0004266D01*
X0037500Y0008000D02*
X0037968D01*
X0038750Y0007218D01*
X0035150Y0008000D02*
Y0008750D01*
X0034750Y0009150D01*
Y0009285D01*
Y0009350D01*
X0035650Y0010250D01*
X0036500D01*
X0025367Y0013500D02*
X0025400D01*
Y0012300D01*
X0026000Y0011700D01*
Y0011229D01*
Y0010780D01*
X0040750Y0000970D02*
X0040670D01*
X0040300Y0000600D01*
X0003337D01*
X0001968Y0001968D01*
X0045120Y0011750D02*
Y0011920D01*
X0045600Y0012400D01*
Y0016605D01*
X0044488Y0017716D01*
X0001968D02*
X0000720Y0016468D01*
Y0015750D01*
Y0004250D01*
X0000970Y0004000D01*
X0045120Y0006500D02*
Y0002600D01*
X0044488Y0001968D01*
X0000970Y0004000D02*
Y0002967D01*
X0001968Y0001968D01*
X0044488D02*
X0043650Y0001130D01*
X0042000D01*
X0041840Y0000970D01*
X0040750D01*
X0029463Y0001750D02*
Y0002600D01*
X0045120Y0008250D02*
Y0006500D01*
X0029463Y0003500D02*
Y0002600D01*
Y0001750D01*
X0027132Y0013500D02*
X0028249D01*
X0029000Y0012750D01*
X0045120Y0010000D02*
Y0008250D01*
X0036500Y0011250D02*
X0036464Y0011214D01*
X0034750D01*
X0039075Y0001500D02*
Y0002125D01*
X0038705Y0002495D01*
X0035250D01*
X0034632Y0013500D02*
Y0011332D01*
X0034750Y0011214D01*
X0029000Y0012750D02*
Y0011214D01*
X0043380Y0006500D02*
X0044063Y0005817D01*
Y0004750D01*
X0035250Y0005005D02*
Y0005050D01*
X0036586D01*
X0037766Y0006234D01*
X0045120Y0011750D02*
Y0010000D01*
X0028675Y0003500D02*
Y0001750D01*
G54D68*
G01X0032000Y0004720D02*
X0032120D01*
X0032400Y0005000D01*
X0033130D01*
X0033500Y0005370D01*
X0032000Y0004720D02*
X0031250D01*
G54D70*
G01X0031750Y0007000D02*
X0032450Y0006300D01*
X0035300D01*
X0036000Y0007000D01*
X0038000D01*
X0038766Y0006234D01*
X0039734D01*
G54D71*
G01X0028614Y0018494D02*
X0028559Y0018572D01*
X0028532Y0018650D01*
Y0018805D01*
X0028559Y0018883D01*
X0028614Y0018961D01*
X0028668D01*
X0028723Y0018883D01*
X0028750Y0018805D01*
Y0018650D01*
X0028723Y0018572D01*
X0028668Y0018494D01*
X0028614D01*
X0028385Y0018728D02*
X0028167D01*
X0028020Y0018650D02*
X0027802D01*
X0027911Y0018961D01*
X0027965D01*
Y0018494D01*
X0027519D02*
X0027464Y0018572D01*
X0027437Y0018650D01*
Y0018805D01*
X0027464Y0018883D01*
X0027519Y0018961D01*
X0027573D01*
X0027628Y0018883D01*
X0027655Y0018805D01*
Y0018650D01*
X0027628Y0018572D01*
X0027573Y0018494D01*
X0027519D01*
X0027072Y0018572D02*
X0027127Y0018494D01*
X0027235D01*
X0027290Y0018572D01*
Y0018650D01*
X0027181Y0018805D01*
X0027290Y0018961D01*
X0027072D01*
X0026925Y0018728D02*
X0026707D01*
X0026560Y0018494D02*
X0026342D01*
X0026560Y0018805D01*
Y0018883D01*
X0026533Y0018961D01*
X0026369D01*
X0026342Y0018883D01*
X0026195Y0018494D02*
X0025977D01*
X0026195Y0018805D01*
Y0018883D01*
X0026168Y0018961D01*
X0026004D01*
X0025977Y0018883D01*
X0042140Y0018644D02*
X0042195D01*
Y0018722D01*
X0042140D01*
Y0018644D01*
X0041939Y0018722D02*
X0041911Y0018644D01*
X0041748D01*
X0041721Y0018722D01*
Y0019033D01*
X0041748Y0019111D01*
X0041911D01*
X0041939Y0019033D01*
X0041519Y0018644D02*
X0041574D01*
Y0018722D01*
X0041519D01*
Y0018644D01*
X0041318D02*
X0041127D01*
Y0019111D01*
G54D10*
X0043000Y0019000D03*
X0045750Y0000750D03*
X0000750Y0019000D03*
G54D11*
X0007250Y0003530D03*
Y0002970D03*
X0008000Y0003530D03*
Y0002970D03*
X0004250Y0003530D03*
Y0002970D03*
X0005000Y0003530D03*
Y0002970D03*
X0006500Y0003530D03*
Y0002970D03*
X0005750Y0003530D03*
Y0002970D03*
X0002750Y0004220D03*
Y0004780D03*
X0003500Y0004220D03*
Y0004780D03*
X0004250Y0004220D03*
Y0004780D03*
X0041250Y0012970D03*
Y0013530D03*
X0041500Y0005970D03*
Y0006530D03*
X0041750Y0008780D03*
Y0008220D03*
X0040750D03*
Y0008780D03*
X0032000Y0005280D03*
Y0004720D03*
X0025500Y0017220D03*
Y0017780D03*
X0032000Y0010470D03*
Y0011030D03*
X0022000Y0006220D03*
Y0006780D03*
X0010250Y0003970D03*
Y0004530D03*
X0011000Y0003970D03*
Y0004530D03*
X0010250Y0002720D03*
Y0003280D03*
X0011750D03*
Y0002720D03*
X0013500Y0003280D03*
Y0002720D03*
X0014750Y0006280D03*
Y0005720D03*
X0011000Y0003280D03*
Y0002720D03*
X0014750Y0003530D03*
Y0002970D03*
X0036250Y0018220D03*
Y0018780D03*
X0037000Y0016530D03*
Y0015970D03*
X0035500D03*
Y0016530D03*
X0036250D03*
Y0015970D03*
X0037000Y0018220D03*
Y0018780D03*
X0042000Y0016220D03*
Y0016780D03*
X0040500D03*
Y0016220D03*
X0042000Y0014970D03*
Y0015530D03*
X0041250Y0016220D03*
Y0016780D03*
X0039250Y0014780D03*
Y0014220D03*
X0024500Y0010780D03*
Y0010220D03*
X0023000Y0006970D03*
Y0007530D03*
X0024750Y0006970D03*
Y0007530D03*
X0022000Y0008470D03*
Y0009030D03*
X0026500Y0008470D03*
Y0009030D03*
X0021250Y0010780D03*
Y0010220D03*
X0017000Y0010780D03*
Y0010220D03*
X0014750Y0007470D03*
Y0008030D03*
X0019000Y0008720D03*
Y0009280D03*
X0014750Y0008720D03*
Y0009280D03*
X0014000Y0011030D03*
Y0010470D03*
X0028000Y0005970D03*
Y0006530D03*
X0027250Y0005280D03*
Y0004720D03*
X0033500Y0004030D03*
Y0003470D03*
X0031250Y0004720D03*
Y0005280D03*
X0007000Y0015030D03*
Y0014470D03*
X0007750D03*
Y0015030D03*
X0008500Y0013220D03*
Y0013780D03*
Y0014470D03*
Y0015030D03*
X0007750Y0016280D03*
Y0015720D03*
Y0013220D03*
Y0013780D03*
X0009750Y0012280D03*
Y0011720D03*
X0004250Y0016030D03*
Y0015470D03*
X0004500Y0011530D03*
Y0010970D03*
X0003500Y0016030D03*
Y0015470D03*
X0008000Y0004220D03*
Y0004780D03*
X0042750Y0013220D03*
Y0013780D03*
X0037750Y0018780D03*
Y0018220D03*
X0040500Y0015530D03*
Y0014970D03*
X0007000Y0016280D03*
Y0015720D03*
X0007250Y0004780D03*
Y0004220D03*
X0008750Y0004780D03*
Y0004220D03*
X0008250Y0011720D03*
Y0012280D03*
X0006750Y0011470D03*
Y0012030D03*
X0007500Y0011720D03*
Y0012280D03*
X0032000Y0009220D03*
Y0009780D03*
X0040750Y0001530D03*
Y0000970D03*
X0042000Y0017470D03*
Y0018030D03*
X0025500Y0015970D03*
Y0016530D03*
X0031250Y0010470D03*
Y0011030D03*
X0026000Y0010220D03*
Y0010780D03*
X0021250Y0006780D03*
Y0006220D03*
X0023750Y0005720D03*
Y0006280D03*
Y0004470D03*
Y0005030D03*
X0011750Y0004530D03*
Y0003970D03*
X0014750Y0005030D03*
Y0004470D03*
X0013500Y0006030D03*
Y0005470D03*
X0014750Y0002030D03*
Y0001470D03*
X0023750Y0003780D03*
Y0003220D03*
X0035500Y0018220D03*
Y0018780D03*
X0039250D03*
Y0018220D03*
X0038500D03*
Y0018780D03*
X0041250Y0014970D03*
Y0015530D03*
X0040500Y0014280D03*
Y0013720D03*
X0042750Y0015530D03*
Y0014970D03*
X0018500Y0010780D03*
Y0010220D03*
X0019250Y0010780D03*
Y0010220D03*
X0011250Y0011030D03*
Y0010470D03*
X0012000Y0011030D03*
Y0010470D03*
X0028000Y0004720D03*
Y0005280D03*
X0027250Y0006530D03*
Y0005970D03*
X0010500Y0018780D03*
Y0018220D03*
X0009750Y0018780D03*
Y0018220D03*
X0011250Y0017030D03*
Y0016470D03*
X0009250Y0017030D03*
Y0016470D03*
X0010500Y0011720D03*
Y0012280D03*
G54D12*
X0007250Y0001350D03*
Y0002150D03*
X0008000Y0001350D03*
Y0002150D03*
X0004250Y0001350D03*
Y0002150D03*
X0005000Y0001350D03*
Y0002150D03*
X0006500Y0001350D03*
Y0002150D03*
X0005750Y0001350D03*
Y0002150D03*
X0032750Y0004600D03*
Y0005400D03*
X0030250Y0008100D03*
Y0008900D03*
X0023000Y0010100D03*
Y0010900D03*
X0022000Y0009850D03*
Y0010650D03*
X0015500Y0010100D03*
Y0010900D03*
X0014750Y0010100D03*
Y0010900D03*
G54D13*
X0023750Y0017234D03*
Y0015266D03*
X0017250Y0017234D03*
Y0015266D03*
G54D14*
X0019500Y0017410D03*
Y0016090D03*
X0021250Y0017410D03*
Y0016090D03*
X0013250Y0017410D03*
Y0016090D03*
X0014750Y0017410D03*
Y0016090D03*
X0005500Y0014590D03*
Y0015910D03*
Y0010090D03*
Y0011410D03*
X0020250Y0009340D03*
Y0010660D03*
X0013000Y0009590D03*
Y0010910D03*
G54D15*
X0019470Y0005250D03*
X0020030D03*
X0020720D03*
X0021280D03*
X0020030Y0004500D03*
X0019470D03*
X0021280Y0003750D03*
X0020720D03*
X0019470D03*
X0020030D03*
X0021280Y0004500D03*
X0020720D03*
X0026280Y0007000D03*
X0025720D03*
X0019470Y0003000D03*
X0020030D03*
X0020720D03*
X0021280D03*
X0020030Y0002250D03*
X0019470D03*
X0021280Y0001500D03*
X0020720D03*
X0019470D03*
X0020030D03*
X0021280Y0002250D03*
X0020720D03*
X0017780Y0007500D03*
X0017220D03*
X0004720Y0006500D03*
X0005280D03*
X0005970Y0004250D03*
X0006530D03*
X0005280Y0009250D03*
X0004720D03*
X0005280Y0008500D03*
X0004720D03*
X0005280Y0007250D03*
X0004720D03*
X0012720Y0007000D03*
X0013280D03*
X0034780D03*
X0034220D03*
X0001280Y0015750D03*
X0000720D03*
X0001530Y0004000D03*
X0000970D03*
X0022530Y0003750D03*
X0021970D03*
X0022530Y0001500D03*
X0021970D03*
X0037530Y0015250D03*
X0036970D03*
G54D16*
X0034750Y0011214D03*
Y0009285D03*
X0033250Y0011214D03*
Y0009285D03*
X0028250Y0017714D03*
Y0015785D03*
X0026750Y0017714D03*
Y0015785D03*
X0032750D03*
Y0017714D03*
X0034250Y0015785D03*
Y0017714D03*
X0029000Y0011214D03*
Y0009285D03*
X0027500Y0011214D03*
Y0009285D03*
G54D17*
X0030250Y0010900D03*
Y0009600D03*
G54D18*
X0033850Y0008000D03*
X0035150D03*
G54D19*
X0023850Y0018500D03*
X0024650D03*
X0005400Y0005750D03*
X0004600D03*
G54D20*
X0002894Y0015500D03*
X0002106D03*
G54D21*
X0023500Y0009200D03*
X0023100Y0008300D03*
X0023900D03*
X0025250Y0009200D03*
X0024850Y0008300D03*
X0025650D03*
X0017750Y0009200D03*
X0017350Y0008300D03*
X0018150D03*
X0016000Y0009200D03*
X0015600Y0008300D03*
X0016400D03*
X0032250Y0001300D03*
X0032650Y0002200D03*
X0031850D03*
G54D22*
X0032750Y0003130D03*
Y0003870D03*
X0031750Y0003130D03*
Y0003870D03*
X0033500Y0005370D03*
Y0004630D03*
G54D23*
X0023750Y0010894D03*
Y0010106D03*
X0025250Y0010894D03*
Y0010106D03*
X0017750Y0010894D03*
Y0010106D03*
X0016250Y0010894D03*
Y0010106D03*
G54D24*
X0035250Y0002495D03*
Y0005005D03*
G54D25*
X0001968Y0017716D03*
Y0001968D03*
X0044488Y0017716D03*
Y0001968D03*
G54D26*
X0037766Y0004266D03*
Y0006234D03*
X0039734Y0004266D03*
X0038750Y0005250D03*
Y0007218D03*
X0039734Y0006234D03*
G54D27*
X0007824Y0017606D03*
X0007037Y0018393D03*
Y0017606D03*
X0006250Y0018393D03*
Y0017606D03*
X0005463Y0018393D03*
Y0017606D03*
X0004675Y0018393D03*
Y0017606D03*
G54D28*
X0007824Y0018393D03*
G54D29*
X0039075Y0001500D03*
X0038287D03*
X0037500D03*
X0025213Y0001750D03*
X0024425D03*
X0013250Y0001500D03*
X0012463D03*
X0011675D03*
X0010888D03*
X0010100D03*
X0009313D03*
X0044250Y0014213D03*
Y0013425D03*
X0020037Y0018750D03*
X0020825D03*
X0021612D03*
X0013537D03*
X0014325D03*
X0015112D03*
X0029463Y0003500D03*
X0028675D03*
X0027888D03*
X0029463Y0001750D03*
X0028675D03*
X0027888D03*
G54D30*
X0026000D03*
X0044250Y0015000D03*
X0019250Y0018750D03*
X0012750D03*
X0030250Y0003500D03*
Y0001750D03*
G54D31*
X0002750Y0008500D03*
Y0009500D03*
X0001750D03*
Y0008500D03*
Y0007500D03*
G54D32*
X0002750D03*
G54D33*
X0010447Y0016400D03*
Y0017600D03*
X0010053D03*
Y0016400D03*
G54D34*
X0032867Y0013500D03*
X0034632D03*
X0025367D03*
X0027132D03*
G54D35*
X0019550Y0006500D03*
X0020450Y0006100D03*
Y0006900D03*
X0005550Y0013250D03*
X0006450Y0012850D03*
Y0013650D03*
G54D36*
X0037910Y0014000D03*
X0036590D03*
G54D37*
X0044063Y0004750D03*
X0041937D03*
G54D38*
X0043380Y0006500D03*
X0045120D03*
X0043380Y0008250D03*
X0045120D03*
X0043380Y0010000D03*
X0045120D03*
X0043380Y0011750D03*
X0045120D03*
G54D39*
X0042000Y0002870D03*
Y0001130D03*
G54D40*
X0040750Y0009760D03*
X0041250D03*
Y0012240D03*
X0040750D03*
X0004000Y0012260D03*
X0004500D03*
Y0014740D03*
X0004000D03*
X0002750D03*
X0002250D03*
Y0012260D03*
X0002750D03*
G54D41*
X0029000Y0004750D03*
X0029500D03*
X0030000D03*
X0030500D03*
Y0007150D03*
X0030000D03*
X0029500D03*
X0029000D03*
X0009500Y0013250D03*
X0010000D03*
X0010500D03*
X0011000D03*
Y0015650D03*
X0010500D03*
X0010000D03*
X0009500D03*
G54D42*
X0020500Y0013500D03*
X0014000D03*
G54D43*
X0019093Y0012299D03*
X0019348D03*
X0019604D03*
X0019860D03*
X0020116D03*
X0020372D03*
X0020628D03*
X0020884D03*
X0021140D03*
X0021396D03*
X0021651D03*
X0021907D03*
Y0014701D03*
X0021651D03*
X0021396D03*
X0021140D03*
X0020884D03*
X0020628D03*
X0020372D03*
X0020116D03*
X0019860D03*
X0019604D03*
X0019348D03*
X0019093D03*
X0012593Y0012299D03*
X0012848D03*
X0013104D03*
X0013360D03*
X0013616D03*
X0013872D03*
X0014128D03*
X0014384D03*
X0014640D03*
X0014896D03*
X0015151D03*
X0015407D03*
Y0014701D03*
X0015151D03*
X0014896D03*
X0014640D03*
X0014384D03*
X0014128D03*
X0013872D03*
X0013616D03*
X0013360D03*
X0013104D03*
X0012848D03*
X0012593D03*
G54D44*
X0039750Y0015750D03*
Y0016006D03*
Y0016262D03*
Y0016518D03*
X0037821Y0015750D03*
Y0016006D03*
Y0016262D03*
Y0016518D03*
G54D45*
X0018300Y0005500D03*
Y0002500D03*
G54D46*
X0015700Y0006400D03*
Y0005500D03*
Y0004600D03*
Y0003400D03*
Y0002500D03*
Y0001600D03*
G54D47*
X0022000Y0005250D03*
Y0004870D03*
Y0004500D03*
X0023020D03*
Y0005250D03*
X0012500Y0004750D03*
Y0004370D03*
Y0004000D03*
X0013520D03*
Y0004750D03*
X0022000Y0003000D03*
Y0002620D03*
Y0002250D03*
X0023020D03*
Y0003000D03*
G54D48*
X0030500Y0018300D03*
X0025500Y0003450D03*
G54D49*
X0029600Y0015700D03*
X0030500D03*
X0031400D03*
X0026400Y0006050D03*
X0025500D03*
X0024600D03*
G54D50*
X0036500Y0011250D03*
Y0010250D03*
Y0009250D03*
X0029000Y0012750D03*
X0030000D03*
X0031000D03*
G54D51*
X0010985Y0006530D03*
Y0006727D03*
Y0006924D03*
Y0007318D03*
Y0007515D03*
Y0007712D03*
Y0007909D03*
Y0008106D03*
Y0008303D03*
Y0008500D03*
Y0008697D03*
Y0008894D03*
Y0009288D03*
Y0009485D03*
X0006470D03*
Y0009091D03*
Y0008894D03*
Y0008697D03*
Y0008500D03*
Y0008303D03*
Y0008106D03*
Y0007909D03*
Y0007712D03*
Y0007515D03*
Y0007121D03*
Y0006924D03*
Y0006727D03*
Y0006530D03*
G54D52*
X0010985Y0007121D03*
Y0009091D03*
X0006470Y0009288D03*
Y0007318D03*
G54D53*
X0007447Y0005750D03*
X0007644D03*
X0007841D03*
X0008038D03*
X0008235D03*
X0008432D03*
X0008629D03*
X0008826D03*
X0009220D03*
X0009417D03*
X0009614D03*
X0009811D03*
X0010008D03*
X0010205D03*
Y0010265D03*
X0010008D03*
X0009811D03*
X0009614D03*
X0009417D03*
X0009220D03*
X0009023D03*
X0008629D03*
X0008432D03*
X0008235D03*
X0008038D03*
X0007841D03*
X0007644D03*
X0007447D03*
X0007250D03*
G54D54*
Y0005750D03*
X0009023D03*
X0008826Y0010265D03*
G54D55*
X0031750Y0007500D03*
Y0007000D03*
X0031250Y0007500D03*
Y0007000D03*
G54D56*
X0037500Y0008000D03*
X0037000D03*
X0039750Y0005250D03*
X0040250D03*
G54D57*
X0006500Y0005033D03*
Y0005466D03*
G54D58*
X0026300Y0003450D03*
X0025500D03*
X0024700D03*
X0025500Y0004100D03*
X0026300D03*
Y0004700D03*
X0025500D03*
X0024700Y0004100D03*
Y0004700D03*
X0026300Y0005300D03*
X0025500D03*
X0024700D03*
X0018500Y0001700D03*
X0017800D03*
X0017150D03*
X0016500D03*
X0018500Y0002500D03*
X0017800D03*
X0017150D03*
X0016500D03*
X0018450Y0003350D03*
X0017800D03*
X0017150D03*
X0016500D03*
X0018400Y0004850D03*
X0017800D03*
X0017150D03*
X0016500D03*
X0018400Y0005500D03*
X0017750D03*
X0017150D03*
X0016500D03*
X0018400Y0006150D03*
X0017750D03*
X0017150D03*
X0016500D03*
X0009350Y0007250D03*
X0007750Y0005150D03*
X0011800Y0007300D03*
X0012250D03*
X0010000Y0011300D03*
X0008050Y0009050D03*
X0006750Y0010100D03*
Y0011050D03*
Y0010600D03*
X0005000Y0005200D03*
X0023050Y0014450D03*
Y0014900D03*
X0024350Y0015850D03*
X0023300Y0014050D03*
X0023800D03*
X0024300D03*
X0024750D03*
Y0014650D03*
Y0015250D03*
Y0015850D03*
X0028200Y0010450D03*
X0027550D03*
X0026950D03*
X0028150Y0011950D03*
X0027550D03*
X0027000D03*
X0030900Y0008650D03*
Y0008200D03*
Y0007700D03*
X0031650Y0008200D03*
X0031300Y0008650D03*
X0019800Y0013500D03*
X0020500Y0013550D03*
X0021200D03*
Y0013050D03*
X0020500D03*
X0019800D03*
X0021200Y0013950D03*
X0020500D03*
X0019800D03*
X0014700Y0013500D03*
X0014000D03*
X0013300D03*
Y0013050D03*
X0014000D03*
X0014700D03*
Y0013950D03*
X0014000D03*
X0013300D03*
G54D62*
X0011300Y0012100D03*
X0008750Y0012850D03*
G54D65*
X0005550Y0004550D03*
X0007218Y0007318D03*
X0010350Y0007100D03*
X0007900Y0011000D03*
X0009550Y0011200D03*
X0005750Y0007300D03*
X0008050Y0008550D03*
X0006500Y0004700D03*
X0023050Y0015550D03*
X0021250D03*
X0019680Y0010220D03*
X0019600Y0015550D03*
X0014750D03*
X0016700D03*
X0013200D03*
X0012410Y0010470D03*
X0042250Y0013800D03*
X0036500Y0015250D03*
X0039250Y0017750D03*
X0023000Y0001500D03*
X0021650Y0001880D03*
X0023400Y0004150D03*
X0023250Y0005700D03*
X0022910Y0003750D03*
X0021600Y0004150D03*
X0021280Y0007160D03*
X0019950Y0006900D03*
X0020450Y0007400D03*
X0029000Y0010000D03*
X0012800Y0013500D03*
X0012600Y0014050D03*
X0023000Y0009600D03*
X0008250Y0016300D03*
X0009250Y0017500D03*
Y0018800D03*
X0004250Y0007250D03*
X0006450Y0014150D03*
X0004250Y0008500D03*
X0007250Y0013800D03*
X0007500Y0012700D03*
X0006050Y0012100D03*
X0005200Y0011950D03*
X0005000Y0010950D03*
X0004700Y0009750D03*
X0014750Y0017950D03*
X0013250D03*
X0011000Y0018800D03*
X0011250Y0017500D03*
X0007450Y0010950D03*
X0015500Y0009600D03*
X0010300Y0007500D03*
X0011370Y0003650D03*
X0020240Y0008920D03*
X0018650Y0008300D03*
X0017000Y0009750D03*
X0016900Y0008300D03*
X0006500Y0015050D03*
Y0015700D03*
X0001750Y0015750D03*
X0021900Y0014050D03*
X0022500Y0009850D03*
X0014000Y0010000D03*
X0013050Y0006050D03*
X0014250Y0005050D03*
X0015050Y0002400D03*
X0008550Y0001350D03*
X0008750Y0003800D03*
X0034180Y0004630D03*
X0035160Y0007000D03*
X0042500Y0017450D03*
X0043250Y0014950D03*
X0042450Y0016600D03*
X0034250Y0018400D03*
X0035000Y0018800D03*
X0013950Y0006050D03*
X0013850Y0009100D03*
X0012950Y0002750D03*
X0041620Y0015900D03*
X0039250Y0016500D03*
X0019100Y0003500D03*
X0040500Y0013250D03*
X0041250Y0014000D03*
X0032750Y0018400D03*
X0028250Y0016500D03*
X0026750D03*
X0029600Y0015050D03*
X0014250Y0002750D03*
Y0004470D03*
X0023020Y0003370D03*
X0024250Y0003450D03*
X0025500Y0015500D03*
X0024400Y0017250D03*
X0023350Y0018500D03*
X0021250Y0017950D03*
X0017900Y0017250D03*
X0019500Y0017950D03*
X0001750Y0010650D03*
X0014900Y0011350D03*
X0015250Y0007450D03*
X0028550Y0006350D03*
X0003500Y0003650D03*
X0029000Y0008500D03*
X0029600Y0008200D03*
X0015849Y0014701D03*
X0027500Y0010000D03*
X0023550Y0007000D03*
X0027250D03*
X0021650Y0007950D03*
X0040210Y0012240D03*
X0030500Y0013750D03*
X0003250Y0006500D03*
X0024400Y0008300D03*
X0026070Y0008030D03*
X0033800Y0005770D03*
Y0007000D03*
X0030000Y0006600D03*
X0019400Y0013500D03*
X0019100Y0014050D03*
X0021250Y0009750D03*
X0040850Y0005250D03*
X0041500Y0007000D03*
X0033950Y0004030D03*
X0028240Y0011214D03*
X0007300Y0009450D03*
X0028850Y0007850D03*
X0040750Y0002000D03*
X0040800Y0012800D03*
X0007200Y0008950D03*
X0010450Y0011300D03*
X0034400Y0008000D03*
X0005550Y0019200D03*
X0030000Y0005700D03*
X0010200Y0010950D03*
X0007150Y0008500D03*
X0033400Y0002200D03*
X0011662Y0007712D03*
X0011100Y0005850D03*
X0009800Y0002700D03*
X0020350Y0002650D03*
X0003850Y0011050D03*
X0005700Y0006850D03*
X0008450Y0006400D03*
X0003500Y0006100D03*
X0003550Y0010000D03*
X0004100Y0005750D03*
X0002000Y0004000D03*
X0028600Y0005250D03*
X0028000Y0007750D03*
X0008650Y0008650D03*
X0013000Y0009050D03*
X0013750Y0007000D03*
X0022000Y0011100D03*
X0013050Y0005500D03*
X0003600Y0001300D03*
X0024200Y0007500D03*
Y0006650D03*
X0009600Y0004550D03*
X0014600Y0011650D03*
X0010000Y0008700D03*
X0009600Y0005050D03*
X0022500Y0007550D03*
X0003900Y0010300D03*
Y0009700D03*
X0020400Y0001900D03*
X0005750Y0006200D03*
X0042100Y0013250D03*
X0009250Y0011800D03*
X0003450Y0012200D03*
X0019850Y0005750D03*
X0008100Y0006700D03*
X0008850Y0010850D03*
X0009350Y0006350D03*
X0020950Y0007600D03*
X0021250Y0011400D03*
X0012500Y0008240D03*
X0015300Y0011650D03*
X0013500Y0002300D03*
X0011700D03*
X0005550Y0012700D03*
X0009800Y0003950D03*
X0009850Y0007600D03*
X0022500Y0016300D03*
X0009700Y0008400D03*
X0031250Y0007950D03*
X0020350Y0011100D03*
X0019550Y0007500D03*
X0011510Y0006340D03*
X0006850Y0003900D03*
X0003900Y0006100D03*
X0018800Y0007250D03*
X0018100Y0009800D03*
X0008650Y0002950D03*
X0008950Y0006350D03*
X0014300Y0006200D03*
X0022350Y0011500D03*
X0020910Y0007170D03*
X0019150Y0007100D03*
X0010550Y0005950D03*
X0035500Y0015450D03*
Y0017200D03*
X0007800Y0006320D03*
X0011750Y0015250D03*
X0010300Y0009300D03*
X0043400Y0015450D03*
X0008050Y0007850D03*
X0020100Y0007500D03*
X0020600Y0009900D03*
X0010000Y0009100D03*
X0015950Y0016250D03*
X0019950Y0011250D03*
X0010500Y0005550D03*
X0012490Y0008970D03*
X0013300Y0011480D03*
X0013590Y0011270D03*
X0012120Y0009220D03*
X0014000Y0011500D03*
X0011735Y0009485D03*
X0005300Y0016700D03*
G54D69*
X0024500Y0009750D03*
X0026000D03*
X0039750Y0015400D03*
M02*
