*
G04 Mass Parameters ***
*
G04 Image ***
*
%IND:\UTENTI\00.LAVORI IN CORSO\METALTRONICA\22-304-0\22-304-0.SMT*%
%ICAS*%
%MOIN*%
%IPPOS*%
%ASAXBY*%
G74*%FSLAN2X34Y34*%
*
G04 Aperture Definitions ***
*
%AMTHERMAL80*
1,1,0.1093,0,0,*
1,0,0.0854,0,0,*
21,0,0.1094,0.0100,0,0,45.0*
21,0,0.1094,0.0100,0,0,135.0*%
%AMTHERMAL85*
1,1,0.1172,0,0,*
1,0,0.0933,0,0,*
21,0,0.1173,0.0100,0,0,135.0*
21,0,0.1173,0.0100,0,0,225.0*%
%AMTHERMAL88*
1,1,0.1172,0,0,*
1,0,0.0933,0,0,*
21,0,0.1173,0.0100,0,0,45.0*
21,0,0.1173,0.0100,0,0,135.0*%
%ADD10C,0.0394*%
%ADD11R,0.0380X0.0320*%
%ADD12R,0.0501X0.0404*%
%ADD13R,0.0630X0.1260*%
%ADD14R,0.0710X0.0400*%
%ADD15R,0.0320X0.0380*%
%ADD16R,0.0886X0.0905*%
%ADD17R,0.1024X0.0510*%
%ADD18R,0.0510X0.1024*%
%ADD19R,0.0404X0.0501*%
%ADD20R,0.0315X0.0197*%
%ADD21R,0.0400X0.0500*%
%ADD22R,0.0550X0.0350*%
%ADD23R,0.0197X0.0315*%
%ADD24R,0.1500X0.1670*%
%ADD25C,0.2756*%
%ADD26C,0.0787*%
%ADD27C,0.0610*%
%ADD28R,0.0610X0.0610*%
%ADD29C,0.0590*%
%ADD30R,0.0630X0.0630*%
%ADD31O,0.0800X0.0620*%
%ADD32R,0.0800X0.0620*%
%ADD33R,0.0236X0.0413*%
%ADD34C,0.0187*%
%ADD35R,0.0500X0.0400*%
%ADD36R,0.0400X0.0710*%
%ADD37R,0.0866X0.0630*%
%ADD38R,0.0850X0.1080*%
%ADD39R,0.1080X0.0850*%
%ADD40R,0.0354X0.0512*%
%ADD41O,0.0256X0.0650*%
%ADD42R,0.1701X0.1181*%
%ADD43R,0.0177X0.0649*%
%ADD44R,0.0354X0.0165*%
%ADD45R,0.0680X0.1580*%
%ADD46R,0.0680X0.0550*%
%ADD47R,0.0500X0.0270*%
%ADD48R,0.1580X0.0680*%
%ADD49R,0.0550X0.0680*%
%ADD50C,0.0800*%
%ADD51O,0.0700X0.0110*%
%ADD52R,0.0700X0.0110*%
%ADD53O,0.0110X0.0700*%
%ADD54R,0.0110X0.0700*%
%ADD55R,0.0250X0.0350*%
%ADD56R,0.0350X0.0250*%
%ADD57R,0.0394X0.0197*%
%ADD58C,0.0276*%
%ADD59C,0.0250*%
%ADD60C,0.0050*%
%ADD61C,0.0100*%
%ADD62C,0.0276*%
%ADD63C,0.0080*%
%ADD64C,0.0150*%
%ADD65C,0.0276*%
%ADD66C,0.0120*%
%ADD67C,0.0500*%
%ADD68C,0.0200*%
%ADD69C,0.0276*%
%ADD70C,0.0300*%
%ADD71C,0.0060*%
%ADD72C,0.1575*%
%ADD73C,0.0866*%
%ADD74C,0.0050*%
%ADD75C,0.0866*%
%ADD76C,0.0710*%
%ADD77R,0.0710X0.0710*%
%ADD78C,0.0708*%
%ADD79R,0.0708X0.0708*%
%ADD80THERMAL80*%
%ADD81C,0.0708*%
%ADD82R,0.0708X0.0708*%
%ADD83C,0.0748*%
%ADD84O,0.0800X0.0620*%
%ADD85THERMAL85*%
%ADD86R,0.0800X0.0620*%
%ADD87C,0.1100*%
%ADD88THERMAL88*%
%ADD89C,0.1100*%
%ADD90C,0.0050*%
%ADD91C,0.0050*%
%ADD92C,0.1378*%
*
G04 Plot Data ***
*
G54D60*
G01X0025523Y0013820D02*
X0025277D01*
X0025505Y0013775D02*
X0025277D01*
X0025490Y0013730D02*
X0025277D01*
X0025478Y0013685D02*
X0025277D01*
X0025468Y0013640D02*
X0025277D01*
X0025462Y0013595D02*
X0025277D01*
X0025458Y0013550D02*
X0025277D01*
X0025457Y0013505D02*
X0025277D01*
X0025459Y0013460D02*
X0025277D01*
X0025463Y0013415D02*
X0025277D01*
X0025470Y0013370D02*
X0025277D01*
X0025479Y0013325D02*
X0025277D01*
X0025492Y0013280D02*
X0025277D01*
X0025507Y0013235D02*
X0025277D01*
X0025525Y0013190D02*
X0025277D01*
X0025546Y0013145D02*
X0025277D01*
X0025571Y0013100D02*
X0025277D01*
X0025599Y0013055D02*
X0025277D01*
X0025632Y0013010D02*
X0025277D01*
X0025670Y0012965D02*
X0025277D01*
X0025714Y0012920D02*
X0025277D01*
X0025766Y0012875D02*
X0025277D01*
X0025829Y0012830D02*
X0025277D01*
X0025897Y0012785D02*
X0025277D01*
X0025897Y0012740D02*
X0025277D01*
X0025897Y0012695D02*
X0025277D01*
X0025897Y0012650D02*
X0025277D01*
X0025897Y0012605D02*
X0025277D01*
X0025857Y0012812D02*
Y0012520D01*
X0025812Y0012841D02*
Y0012520D01*
X0025767Y0012874D02*
Y0012520D01*
X0025722Y0012913D02*
Y0012520D01*
X0025677Y0012958D02*
Y0012520D01*
X0025632Y0013010D02*
Y0012520D01*
X0025587Y0013073D02*
Y0012520D01*
X0025542Y0013153D02*
Y0012520D01*
X0025497Y0013263D02*
Y0012520D01*
X0025452Y0014480D02*
Y0012520D01*
X0025407Y0014480D02*
Y0012520D01*
X0025362Y0014480D02*
Y0012520D01*
X0025317Y0014470D02*
Y0012530D01*
X0025497Y0014480D02*
Y0013752D01*
X0025897Y0014450D02*
X0025294D01*
X0025897Y0014405D02*
X0025277D01*
X0025897Y0014360D02*
X0025277D01*
X0025897Y0014315D02*
X0025277D01*
X0025897Y0014270D02*
X0025277D01*
X0025897Y0014225D02*
X0025277D01*
X0025849Y0014180D02*
X0025277D01*
X0025779Y0014135D02*
X0025277D01*
X0025722Y0014090D02*
X0025277D01*
X0025675Y0014045D02*
X0025277D01*
X0025635Y0014000D02*
X0025277D01*
X0025600Y0013955D02*
X0025277D01*
X0025570Y0013910D02*
X0025277D01*
X0025545Y0013865D02*
X0025277D01*
X0025857Y0014480D02*
Y0014184D01*
X0025812Y0014480D02*
Y0014157D01*
X0025767Y0014480D02*
Y0014126D01*
X0025722Y0014480D02*
Y0014089D01*
X0025677Y0014480D02*
Y0014047D01*
X0025632Y0014480D02*
Y0013996D01*
X0025587Y0014480D02*
Y0013935D01*
X0025542Y0014480D02*
Y0013859D01*
X0025897Y0012560D02*
X0025287D01*
X0025897Y0014210D02*
X0025887Y0014200D01*
X0025897Y0014480D02*
Y0014210D01*
Y0014480D02*
X0025357D01*
X0025355D01*
X0025277Y0014400D02*
Y0012600D01*
Y0012598D01*
X0025897Y0012520D02*
X0025357D01*
X0025897Y0012790D02*
Y0012520D01*
X0025457Y0013505D02*
Y0013500D01*
X0027228Y0013823D02*
X0026976D01*
X0027228Y0013778D02*
X0026995D01*
X0027228Y0013733D02*
X0027010D01*
X0027228Y0013688D02*
X0027023D01*
X0027228Y0013643D02*
X0027033D01*
X0027228Y0013598D02*
X0027041D01*
X0027228Y0013553D02*
X0027046D01*
X0027228Y0013508D02*
X0027048D01*
X0027228Y0013463D02*
X0027048D01*
X0027228Y0013418D02*
X0027044D01*
X0027228Y0013373D02*
X0027038D01*
X0027228Y0013328D02*
X0027030D01*
X0027228Y0013283D02*
X0027018D01*
X0027228Y0013238D02*
X0027004D01*
X0027228Y0013193D02*
X0026986D01*
X0027228Y0013148D02*
X0026965D01*
X0027228Y0013103D02*
X0026941D01*
X0027228Y0013058D02*
X0026912D01*
X0027228Y0013013D02*
X0026878D01*
X0027228Y0012968D02*
X0026840D01*
X0027228Y0012923D02*
X0026794D01*
X0027228Y0012878D02*
X0026739D01*
X0027228Y0012833D02*
X0026673D01*
X0027228Y0012788D02*
X0026608D01*
X0027228Y0012743D02*
X0026608D01*
X0027228Y0012698D02*
X0026608D01*
X0027228Y0012653D02*
X0026608D01*
X0027228Y0012608D02*
X0026608D01*
X0027188Y0014473D02*
Y0012533D01*
X0027143Y0014483D02*
Y0012523D01*
X0027098Y0014483D02*
Y0012523D01*
X0027053Y0014483D02*
Y0012523D01*
X0027008Y0013251D02*
Y0012523D01*
X0026963Y0013144D02*
Y0012523D01*
X0026918Y0013067D02*
Y0012523D01*
X0026873Y0013006D02*
Y0012523D01*
X0026828Y0012956D02*
Y0012523D01*
X0026783Y0012913D02*
Y0012523D01*
X0026738Y0012877D02*
Y0012523D01*
X0026693Y0012846D02*
Y0012523D01*
X0026648Y0012819D02*
Y0012523D01*
Y0014483D02*
Y0014190D01*
X0027211Y0014453D02*
X0026608D01*
X0027228Y0014408D02*
X0026608D01*
X0027228Y0014363D02*
X0026608D01*
X0027228Y0014318D02*
X0026608D01*
X0027228Y0014273D02*
X0026608D01*
X0027228Y0014228D02*
X0026608D01*
X0027228Y0014183D02*
X0026661D01*
X0027228Y0014138D02*
X0026726D01*
X0027228Y0014093D02*
X0026780D01*
X0027228Y0014048D02*
X0026826D01*
X0027228Y0014003D02*
X0026865D01*
X0027228Y0013958D02*
X0026899D01*
X0027228Y0013913D02*
X0026928D01*
X0027228Y0013868D02*
X0026954D01*
X0027008Y0014483D02*
Y0013739D01*
X0026963Y0014483D02*
Y0013850D01*
X0026918Y0014483D02*
Y0013929D01*
X0026873Y0014483D02*
Y0013993D01*
X0026828Y0014483D02*
Y0014045D01*
X0026783Y0014483D02*
Y0014090D01*
X0026738Y0014483D02*
Y0014128D01*
X0026693Y0014483D02*
Y0014162D01*
X0027218Y0012563D02*
X0026608D01*
X0027048Y0013503D02*
Y0013498D01*
X0026608Y0014483D02*
Y0014213D01*
X0027148Y0014483D02*
X0026608D01*
X0027150D02*
X0027148D01*
X0027228Y0014403D02*
Y0012603D01*
Y0012601D01*
X0027148Y0012523D02*
X0026608D01*
Y0012793D02*
Y0012523D01*
X0026618Y0012803D02*
X0026608Y0012793D01*
X0033023Y0013820D02*
X0032777D01*
X0033005Y0013775D02*
X0032777D01*
X0032990Y0013730D02*
X0032777D01*
X0032978Y0013685D02*
X0032777D01*
X0032968Y0013640D02*
X0032777D01*
X0032962Y0013595D02*
X0032777D01*
X0032958Y0013550D02*
X0032777D01*
X0032957Y0013505D02*
X0032777D01*
X0032959Y0013460D02*
X0032777D01*
X0032963Y0013415D02*
X0032777D01*
X0032970Y0013370D02*
X0032777D01*
X0032979Y0013325D02*
X0032777D01*
X0032992Y0013280D02*
X0032777D01*
X0033007Y0013235D02*
X0032777D01*
X0033025Y0013190D02*
X0032777D01*
X0033046Y0013145D02*
X0032777D01*
X0033071Y0013100D02*
X0032777D01*
X0033099Y0013055D02*
X0032777D01*
X0033132Y0013010D02*
X0032777D01*
X0033170Y0012965D02*
X0032777D01*
X0033214Y0012920D02*
X0032777D01*
X0033266Y0012875D02*
X0032777D01*
X0033329Y0012830D02*
X0032777D01*
X0033397Y0012785D02*
X0032777D01*
X0033397Y0012740D02*
X0032777D01*
X0033397Y0012695D02*
X0032777D01*
X0033397Y0012650D02*
X0032777D01*
X0033397Y0012605D02*
X0032777D01*
X0033357Y0012812D02*
Y0012520D01*
X0033312Y0012841D02*
Y0012520D01*
X0033267Y0012874D02*
Y0012520D01*
X0033222Y0012913D02*
Y0012520D01*
X0033177Y0012958D02*
Y0012520D01*
X0033132Y0013010D02*
Y0012520D01*
X0033087Y0013073D02*
Y0012520D01*
X0033042Y0013153D02*
Y0012520D01*
X0032997Y0013263D02*
Y0012520D01*
X0032952Y0014480D02*
Y0012520D01*
X0032907Y0014480D02*
Y0012520D01*
X0032862Y0014480D02*
Y0012520D01*
X0032817Y0014470D02*
Y0012530D01*
X0032997Y0014480D02*
Y0013752D01*
X0033397Y0014450D02*
X0032794D01*
X0033397Y0014405D02*
X0032777D01*
X0033397Y0014360D02*
X0032777D01*
X0033397Y0014315D02*
X0032777D01*
X0033397Y0014270D02*
X0032777D01*
X0033397Y0014225D02*
X0032777D01*
X0033349Y0014180D02*
X0032777D01*
X0033279Y0014135D02*
X0032777D01*
X0033222Y0014090D02*
X0032777D01*
X0033175Y0014045D02*
X0032777D01*
X0033135Y0014000D02*
X0032777D01*
X0033100Y0013955D02*
X0032777D01*
X0033070Y0013910D02*
X0032777D01*
X0033045Y0013865D02*
X0032777D01*
X0033357Y0014480D02*
Y0014184D01*
X0033312Y0014480D02*
Y0014157D01*
X0033267Y0014480D02*
Y0014126D01*
X0033222Y0014480D02*
Y0014089D01*
X0033177Y0014480D02*
Y0014047D01*
X0033132Y0014480D02*
Y0013996D01*
X0033087Y0014480D02*
Y0013935D01*
X0033042Y0014480D02*
Y0013859D01*
X0033397Y0012560D02*
X0032787D01*
X0033397Y0014210D02*
X0033387Y0014200D01*
X0033397Y0014480D02*
Y0014210D01*
Y0014480D02*
X0032857D01*
X0032855D01*
X0032777Y0014400D02*
Y0012600D01*
Y0012598D01*
X0033397Y0012520D02*
X0032857D01*
X0033397Y0012790D02*
Y0012520D01*
X0032957Y0013505D02*
Y0013500D01*
X0034728Y0013823D02*
X0034476D01*
X0034728Y0013778D02*
X0034495D01*
X0034728Y0013733D02*
X0034510D01*
X0034728Y0013688D02*
X0034523D01*
X0034728Y0013643D02*
X0034533D01*
X0034728Y0013598D02*
X0034541D01*
X0034728Y0013553D02*
X0034546D01*
X0034728Y0013508D02*
X0034548D01*
X0034728Y0013463D02*
X0034548D01*
X0034728Y0013418D02*
X0034544D01*
X0034728Y0013373D02*
X0034538D01*
X0034728Y0013328D02*
X0034530D01*
X0034728Y0013283D02*
X0034518D01*
X0034728Y0013238D02*
X0034504D01*
X0034728Y0013193D02*
X0034486D01*
X0034728Y0013148D02*
X0034465D01*
X0034728Y0013103D02*
X0034441D01*
X0034728Y0013058D02*
X0034412D01*
X0034728Y0013013D02*
X0034378D01*
X0034728Y0012968D02*
X0034340D01*
X0034728Y0012923D02*
X0034294D01*
X0034728Y0012878D02*
X0034239D01*
X0034728Y0012833D02*
X0034173D01*
X0034728Y0012788D02*
X0034108D01*
X0034728Y0012743D02*
X0034108D01*
X0034728Y0012698D02*
X0034108D01*
X0034728Y0012653D02*
X0034108D01*
X0034728Y0012608D02*
X0034108D01*
X0034688Y0014473D02*
Y0012533D01*
X0034643Y0014483D02*
Y0012523D01*
X0034598Y0014483D02*
Y0012523D01*
X0034553Y0014483D02*
Y0012523D01*
X0034508Y0013251D02*
Y0012523D01*
X0034463Y0013144D02*
Y0012523D01*
X0034418Y0013067D02*
Y0012523D01*
X0034373Y0013006D02*
Y0012523D01*
X0034328Y0012956D02*
Y0012523D01*
X0034283Y0012913D02*
Y0012523D01*
X0034238Y0012877D02*
Y0012523D01*
X0034193Y0012846D02*
Y0012523D01*
X0034148Y0012819D02*
Y0012523D01*
Y0014483D02*
Y0014190D01*
X0034711Y0014453D02*
X0034108D01*
X0034728Y0014408D02*
X0034108D01*
X0034728Y0014363D02*
X0034108D01*
X0034728Y0014318D02*
X0034108D01*
X0034728Y0014273D02*
X0034108D01*
X0034728Y0014228D02*
X0034108D01*
X0034728Y0014183D02*
X0034161D01*
X0034728Y0014138D02*
X0034226D01*
X0034728Y0014093D02*
X0034280D01*
X0034728Y0014048D02*
X0034326D01*
X0034728Y0014003D02*
X0034365D01*
X0034728Y0013958D02*
X0034399D01*
X0034728Y0013913D02*
X0034428D01*
X0034728Y0013868D02*
X0034454D01*
X0034508Y0014483D02*
Y0013739D01*
X0034463Y0014483D02*
Y0013850D01*
X0034418Y0014483D02*
Y0013929D01*
X0034373Y0014483D02*
Y0013993D01*
X0034328Y0014483D02*
Y0014045D01*
X0034283Y0014483D02*
Y0014090D01*
X0034238Y0014483D02*
Y0014128D01*
X0034193Y0014483D02*
Y0014162D01*
X0034718Y0012563D02*
X0034108D01*
X0034548Y0013503D02*
Y0013498D01*
X0034108Y0014483D02*
Y0014213D01*
X0034648Y0014483D02*
X0034108D01*
X0034650D02*
X0034648D01*
X0034728Y0014403D02*
Y0012603D01*
Y0012601D01*
X0034648Y0012523D02*
X0034108D01*
Y0012793D02*
Y0012523D01*
X0034118Y0012803D02*
X0034108Y0012793D01*
G01X0025355Y0014480D02*
G03X0025277Y0014402I0000000J0000078D01*
G03X0025277Y0014400I0000078J0000000D01*
Y0012598D02*
G03X0025355Y0012520I0000078J0000000D01*
G03X0025357Y0012520I0000000J0000078D01*
G01X0025457Y0013500D02*
G03X0025897Y0012790I0000820J0000017D01*
G01X0025887Y0014200D02*
G03X0025457Y0013505I0000346J0000695D01*
G01X0026618Y0012803D02*
G03X0027049Y0013498I0000345J0000695D01*
G01X0027048Y0013503D02*
G03X0026608Y0014213I0000820J0000017D01*
G01X0027228Y0014405D02*
G03X0027150Y0014483I0000078J0000000D01*
G01X0027228Y0014403D02*
G03X0027228Y0014405I0000078J0000002D01*
G01X0027150Y0012523D02*
G03X0027228Y0012601I0000000J0000078D01*
G01X0027148Y0012523D02*
G03X0027150Y0012523I0000002J0000078D01*
G01X0032855Y0014480D02*
G03X0032777Y0014402I0000000J0000078D01*
G03X0032777Y0014400I0000078J0000000D01*
Y0012598D02*
G03X0032855Y0012520I0000078J0000000D01*
G03X0032857Y0012520I0000000J0000078D01*
G01X0032957Y0013500D02*
G03X0033397Y0012790I0000820J0000017D01*
G01X0033387Y0014200D02*
G03X0032957Y0013505I0000346J0000695D01*
G01X0034118Y0012803D02*
G03X0034549Y0013498I0000345J0000695D01*
G01X0034548Y0013503D02*
G03X0034108Y0014213I0000820J0000017D01*
G01X0034728Y0014405D02*
G03X0034650Y0014483I0000078J0000000D01*
G01X0034728Y0014403D02*
G03X0034728Y0014405I0000078J0000002D01*
G01X0034650Y0012523D02*
G03X0034728Y0012601I0000000J0000078D01*
G01X0034648Y0012523D02*
G03X0034650Y0012523I0000002J0000078D01*
G54D11*
X0007250Y0003530D03*
Y0002970D03*
X0008000Y0003530D03*
Y0002970D03*
X0004250Y0003530D03*
Y0002970D03*
X0005000Y0003530D03*
Y0002970D03*
X0006500Y0003530D03*
Y0002970D03*
X0005750Y0003530D03*
Y0002970D03*
X0002750Y0004220D03*
Y0004780D03*
X0003500Y0004220D03*
Y0004780D03*
X0004250Y0004220D03*
Y0004780D03*
X0041250Y0012970D03*
Y0013530D03*
X0041500Y0005970D03*
Y0006530D03*
X0041750Y0008780D03*
Y0008220D03*
X0040750D03*
Y0008780D03*
X0032000Y0005280D03*
Y0004720D03*
X0025500Y0017220D03*
Y0017780D03*
X0032000Y0010470D03*
Y0011030D03*
X0022000Y0006220D03*
Y0006780D03*
X0010250Y0003970D03*
Y0004530D03*
X0011000Y0003970D03*
Y0004530D03*
X0010250Y0002720D03*
Y0003280D03*
X0011750D03*
Y0002720D03*
X0013500Y0003280D03*
Y0002720D03*
X0014750Y0006280D03*
Y0005720D03*
X0011000Y0003280D03*
Y0002720D03*
X0014750Y0003530D03*
Y0002970D03*
X0036250Y0018220D03*
Y0018780D03*
X0037000Y0016530D03*
Y0015970D03*
X0035500D03*
Y0016530D03*
X0036250D03*
Y0015970D03*
X0037000Y0018220D03*
Y0018780D03*
X0042000Y0016220D03*
Y0016780D03*
X0040500D03*
Y0016220D03*
X0042000Y0014970D03*
Y0015530D03*
X0041250Y0016220D03*
Y0016780D03*
X0039250Y0014780D03*
Y0014220D03*
X0024500Y0010780D03*
Y0010220D03*
X0023000Y0006970D03*
Y0007530D03*
X0024750Y0006970D03*
Y0007530D03*
X0022000Y0008470D03*
Y0009030D03*
X0026500Y0008470D03*
Y0009030D03*
X0021250Y0010780D03*
Y0010220D03*
X0017000Y0010780D03*
Y0010220D03*
X0014750Y0007470D03*
Y0008030D03*
X0019000Y0008720D03*
Y0009280D03*
X0014750Y0008720D03*
Y0009280D03*
X0014000Y0011030D03*
Y0010470D03*
X0028000Y0005970D03*
Y0006530D03*
X0027250Y0005280D03*
Y0004720D03*
X0033500Y0004030D03*
Y0003470D03*
X0031250Y0004720D03*
Y0005280D03*
X0007000Y0015030D03*
Y0014470D03*
X0007750D03*
Y0015030D03*
X0008500Y0013220D03*
Y0013780D03*
Y0014470D03*
Y0015030D03*
X0007750Y0016280D03*
Y0015720D03*
Y0013220D03*
Y0013780D03*
X0009750Y0012280D03*
Y0011720D03*
X0004250Y0016030D03*
Y0015470D03*
X0004500Y0011530D03*
Y0010970D03*
X0003500Y0016030D03*
Y0015470D03*
X0008000Y0004220D03*
Y0004780D03*
X0042750Y0013220D03*
Y0013780D03*
X0037750Y0018780D03*
Y0018220D03*
X0040500Y0015530D03*
Y0014970D03*
X0007000Y0016280D03*
Y0015720D03*
X0007250Y0004780D03*
Y0004220D03*
X0008750Y0004780D03*
Y0004220D03*
X0008250Y0011720D03*
Y0012280D03*
X0006750Y0011470D03*
Y0012030D03*
X0007500Y0011720D03*
Y0012280D03*
X0032000Y0009220D03*
Y0009780D03*
X0040750Y0001530D03*
Y0000970D03*
X0042000Y0017470D03*
Y0018030D03*
X0025500Y0015970D03*
Y0016530D03*
X0031250Y0010470D03*
Y0011030D03*
X0026000Y0010220D03*
Y0010780D03*
X0021250Y0006780D03*
Y0006220D03*
X0023750Y0005720D03*
Y0006280D03*
Y0004470D03*
Y0005030D03*
X0011750Y0004530D03*
Y0003970D03*
X0014750Y0005030D03*
Y0004470D03*
X0013500Y0006030D03*
Y0005470D03*
X0014750Y0002030D03*
Y0001470D03*
X0023750Y0003780D03*
Y0003220D03*
X0035500Y0018220D03*
Y0018780D03*
X0039250D03*
Y0018220D03*
X0038500D03*
Y0018780D03*
X0041250Y0014970D03*
Y0015530D03*
X0040500Y0014280D03*
Y0013720D03*
X0042750Y0015530D03*
Y0014970D03*
X0018500Y0010780D03*
Y0010220D03*
X0019250Y0010780D03*
Y0010220D03*
X0011250Y0011030D03*
Y0010470D03*
X0012000Y0011030D03*
Y0010470D03*
X0028000Y0004720D03*
Y0005280D03*
X0027250Y0006530D03*
Y0005970D03*
X0010500Y0018780D03*
Y0018220D03*
X0009750Y0018780D03*
Y0018220D03*
X0011250Y0017030D03*
Y0016470D03*
X0009250Y0017030D03*
Y0016470D03*
X0010500Y0011720D03*
Y0012280D03*
G54D12*
X0007250Y0001350D03*
Y0002150D03*
X0008000Y0001350D03*
Y0002150D03*
X0004250Y0001350D03*
Y0002150D03*
X0005000Y0001350D03*
Y0002150D03*
X0006500Y0001350D03*
Y0002150D03*
X0005750Y0001350D03*
Y0002150D03*
X0032750Y0004600D03*
Y0005400D03*
X0030250Y0008100D03*
Y0008900D03*
X0023000Y0010100D03*
Y0010900D03*
X0022000Y0009850D03*
Y0010650D03*
X0015500Y0010100D03*
Y0010900D03*
X0014750Y0010100D03*
Y0010900D03*
G54D13*
X0023750Y0017234D03*
Y0015266D03*
X0017250Y0017234D03*
Y0015266D03*
G54D14*
X0019500Y0017410D03*
Y0016090D03*
X0021250Y0017410D03*
Y0016090D03*
X0013250Y0017410D03*
Y0016090D03*
X0014750Y0017410D03*
Y0016090D03*
X0005500Y0014590D03*
Y0015910D03*
Y0010090D03*
Y0011410D03*
X0020250Y0009340D03*
Y0010660D03*
X0013000Y0009590D03*
Y0010910D03*
G54D15*
X0019470Y0005250D03*
X0020030D03*
X0020720D03*
X0021280D03*
X0020030Y0004500D03*
X0019470D03*
X0021280Y0003750D03*
X0020720D03*
X0019470D03*
X0020030D03*
X0021280Y0004500D03*
X0020720D03*
X0026280Y0007000D03*
X0025720D03*
X0019470Y0003000D03*
X0020030D03*
X0020720D03*
X0021280D03*
X0020030Y0002250D03*
X0019470D03*
X0021280Y0001500D03*
X0020720D03*
X0019470D03*
X0020030D03*
X0021280Y0002250D03*
X0020720D03*
X0017780Y0007500D03*
X0017220D03*
X0004720Y0006500D03*
X0005280D03*
X0005970Y0004250D03*
X0006530D03*
X0005280Y0009250D03*
X0004720D03*
X0005280Y0008500D03*
X0004720D03*
X0005280Y0007250D03*
X0004720D03*
X0012720Y0007000D03*
X0013280D03*
X0034780D03*
X0034220D03*
X0001280Y0015750D03*
X0000720D03*
X0001530Y0004000D03*
X0000970D03*
X0022530Y0003750D03*
X0021970D03*
X0022530Y0001500D03*
X0021970D03*
X0037530Y0015250D03*
X0036970D03*
G54D16*
X0034750Y0011214D03*
Y0009285D03*
X0033250Y0011214D03*
Y0009285D03*
X0028250Y0017714D03*
Y0015785D03*
X0026750Y0017714D03*
Y0015785D03*
X0032750D03*
Y0017714D03*
X0034250Y0015785D03*
Y0017714D03*
X0029000Y0011214D03*
Y0009285D03*
X0027500Y0011214D03*
Y0009285D03*
G54D17*
X0030250Y0010900D03*
Y0009600D03*
G54D18*
X0033850Y0008000D03*
X0035150D03*
G54D19*
X0023850Y0018500D03*
X0024650D03*
X0005400Y0005750D03*
X0004600D03*
G54D20*
X0002894Y0015500D03*
X0002106D03*
G54D21*
X0023500Y0009200D03*
X0023100Y0008300D03*
X0023900D03*
X0025250Y0009200D03*
X0024850Y0008300D03*
X0025650D03*
X0017750Y0009200D03*
X0017350Y0008300D03*
X0018150D03*
X0016000Y0009200D03*
X0015600Y0008300D03*
X0016400D03*
X0032250Y0001300D03*
X0032650Y0002200D03*
X0031850D03*
G54D22*
X0032750Y0003130D03*
Y0003870D03*
X0031750Y0003130D03*
Y0003870D03*
X0033500Y0005370D03*
Y0004630D03*
G54D23*
X0023750Y0010894D03*
Y0010106D03*
X0025250Y0010894D03*
Y0010106D03*
X0017750Y0010894D03*
Y0010106D03*
X0016250Y0010894D03*
Y0010106D03*
G54D24*
X0035250Y0002495D03*
Y0005005D03*
G54D25*
X0001968Y0017716D03*
Y0001968D03*
X0044488Y0017716D03*
Y0001968D03*
G54D26*
X0037766Y0004266D03*
Y0006234D03*
X0039734Y0004266D03*
X0038750Y0005250D03*
Y0007218D03*
X0039734Y0006234D03*
G54D27*
X0007824Y0017606D03*
X0007037Y0018393D03*
Y0017606D03*
X0006250Y0018393D03*
Y0017606D03*
X0005463Y0018393D03*
Y0017606D03*
X0004675Y0018393D03*
Y0017606D03*
G54D28*
X0007824Y0018393D03*
G54D29*
X0039075Y0001500D03*
X0038287D03*
X0037500D03*
X0025213Y0001750D03*
X0024425D03*
X0013250Y0001500D03*
X0012463D03*
X0011675D03*
X0010888D03*
X0010100D03*
X0009313D03*
X0044250Y0014213D03*
Y0013425D03*
X0020037Y0018750D03*
X0020825D03*
X0021612D03*
X0013537D03*
X0014325D03*
X0015112D03*
X0029463Y0003500D03*
X0028675D03*
X0027888D03*
X0029463Y0001750D03*
X0028675D03*
X0027888D03*
X0043000Y0019000D03*
X0045750Y0000750D03*
X0000750Y0019000D03*
G54D30*
X0026000Y0001750D03*
X0044250Y0015000D03*
X0019250Y0018750D03*
X0012750D03*
X0030250Y0003500D03*
Y0001750D03*
G54D31*
X0002750Y0008500D03*
Y0009500D03*
X0001750D03*
Y0008500D03*
Y0007500D03*
G54D32*
X0002750D03*
G54D33*
X0010447Y0016400D03*
Y0017600D03*
X0010053D03*
Y0016400D03*
G54D35*
X0019550Y0006500D03*
X0020450Y0006100D03*
Y0006900D03*
X0005550Y0013250D03*
X0006450Y0012850D03*
Y0013650D03*
G54D36*
X0037910Y0014000D03*
X0036590D03*
G54D37*
X0044063Y0004750D03*
X0041937D03*
G54D38*
X0043380Y0006500D03*
X0045120D03*
X0043380Y0008250D03*
X0045120D03*
X0043380Y0010000D03*
X0045120D03*
X0043380Y0011750D03*
X0045120D03*
G54D39*
X0042000Y0002870D03*
Y0001130D03*
G54D40*
X0040750Y0009760D03*
X0041250D03*
Y0012240D03*
X0040750D03*
X0004000Y0012260D03*
X0004500D03*
Y0014740D03*
X0004000D03*
X0002750D03*
X0002250D03*
Y0012260D03*
X0002750D03*
G54D41*
X0029000Y0004750D03*
X0029500D03*
X0030000D03*
X0030500D03*
Y0007150D03*
X0030000D03*
X0029500D03*
X0029000D03*
X0009500Y0013250D03*
X0010000D03*
X0010500D03*
X0011000D03*
Y0015650D03*
X0010500D03*
X0010000D03*
X0009500D03*
G54D42*
X0020500Y0013500D03*
X0014000D03*
G54D43*
X0019093Y0012299D03*
X0019348D03*
X0019604D03*
X0019860D03*
X0020116D03*
X0020372D03*
X0020628D03*
X0020884D03*
X0021140D03*
X0021396D03*
X0021651D03*
X0021907D03*
Y0014701D03*
X0021651D03*
X0021396D03*
X0021140D03*
X0020884D03*
X0020628D03*
X0020372D03*
X0020116D03*
X0019860D03*
X0019604D03*
X0019348D03*
X0019093D03*
X0012593Y0012299D03*
X0012848D03*
X0013104D03*
X0013360D03*
X0013616D03*
X0013872D03*
X0014128D03*
X0014384D03*
X0014640D03*
X0014896D03*
X0015151D03*
X0015407D03*
Y0014701D03*
X0015151D03*
X0014896D03*
X0014640D03*
X0014384D03*
X0014128D03*
X0013872D03*
X0013616D03*
X0013360D03*
X0013104D03*
X0012848D03*
X0012593D03*
G54D44*
X0039750Y0015750D03*
Y0016006D03*
Y0016262D03*
Y0016518D03*
X0037821Y0015750D03*
Y0016006D03*
Y0016262D03*
Y0016518D03*
G54D45*
X0018300Y0005500D03*
Y0002500D03*
G54D46*
X0015700Y0006400D03*
Y0005500D03*
Y0004600D03*
Y0003400D03*
Y0002500D03*
Y0001600D03*
G54D47*
X0022000Y0005250D03*
Y0004870D03*
Y0004500D03*
X0023020D03*
Y0005250D03*
X0012500Y0004750D03*
Y0004370D03*
Y0004000D03*
X0013520D03*
Y0004750D03*
X0022000Y0003000D03*
Y0002620D03*
Y0002250D03*
X0023020D03*
Y0003000D03*
G54D48*
X0030500Y0018300D03*
X0025500Y0003450D03*
G54D49*
X0029600Y0015700D03*
X0030500D03*
X0031400D03*
X0026400Y0006050D03*
X0025500D03*
X0024600D03*
G54D50*
X0036500Y0011250D03*
Y0010250D03*
Y0009250D03*
X0029000Y0012750D03*
X0030000D03*
X0031000D03*
G54D51*
X0010985Y0006530D03*
Y0006727D03*
Y0006924D03*
Y0007318D03*
Y0007515D03*
Y0007712D03*
Y0007909D03*
Y0008106D03*
Y0008303D03*
Y0008500D03*
Y0008697D03*
Y0008894D03*
Y0009288D03*
Y0009485D03*
X0006470D03*
Y0009091D03*
Y0008894D03*
Y0008697D03*
Y0008500D03*
Y0008303D03*
Y0008106D03*
Y0007909D03*
Y0007712D03*
Y0007515D03*
Y0007121D03*
Y0006924D03*
Y0006727D03*
Y0006530D03*
G54D52*
X0010985Y0007121D03*
Y0009091D03*
X0006470Y0009288D03*
Y0007318D03*
G54D53*
X0007447Y0005750D03*
X0007644D03*
X0007841D03*
X0008038D03*
X0008235D03*
X0008432D03*
X0008629D03*
X0008826D03*
X0009220D03*
X0009417D03*
X0009614D03*
X0009811D03*
X0010008D03*
X0010205D03*
Y0010265D03*
X0010008D03*
X0009811D03*
X0009614D03*
X0009417D03*
X0009220D03*
X0009023D03*
X0008629D03*
X0008432D03*
X0008235D03*
X0008038D03*
X0007841D03*
X0007644D03*
X0007447D03*
X0007250D03*
G54D54*
Y0005750D03*
X0009023D03*
X0008826Y0010265D03*
G54D57*
X0006500Y0005033D03*
Y0005466D03*
M02*
