*
G04 Mass Parameters ***
*
G04 Image ***
*
%IND:\UTENTI\00.LAVORI IN CORSO\METALTRONICA\22-304-0\22-304-0.SMB*%
%ICAS*%
%MOIN*%
%IPPOS*%
%ASAXBY*%
G74*%FSLAN2X34Y34*%
*
G04 Aperture Definitions ***
*
%AMTHERMAL80*
1,1,0.1093,0,0,*
1,0,0.0854,0,0,*
21,0,0.1094,0.0100,0,0,45.0*
21,0,0.1094,0.0100,0,0,135.0*%
%AMTHERMAL85*
1,1,0.1172,0,0,*
1,0,0.0933,0,0,*
21,0,0.1173,0.0100,0,0,135.0*
21,0,0.1173,0.0100,0,0,225.0*%
%AMTHERMAL88*
1,1,0.1172,0,0,*
1,0,0.0933,0,0,*
21,0,0.1173,0.0100,0,0,45.0*
21,0,0.1173,0.0100,0,0,135.0*%
%ADD10C,0.0394*%
%ADD11R,0.0380X0.0320*%
%ADD12R,0.0501X0.0404*%
%ADD13R,0.0630X0.1260*%
%ADD14R,0.0710X0.0400*%
%ADD15R,0.0320X0.0380*%
%ADD16R,0.0886X0.0905*%
%ADD17R,0.1024X0.0510*%
%ADD18R,0.0510X0.1024*%
%ADD19R,0.0404X0.0501*%
%ADD20R,0.0315X0.0197*%
%ADD21R,0.0400X0.0500*%
%ADD22R,0.0550X0.0350*%
%ADD23R,0.0197X0.0315*%
%ADD24R,0.1500X0.1670*%
%ADD25C,0.2756*%
%ADD26C,0.0787*%
%ADD27C,0.0610*%
%ADD28R,0.0610X0.0610*%
%ADD29C,0.0590*%
%ADD30R,0.0630X0.0630*%
%ADD31O,0.0800X0.0620*%
%ADD32R,0.0800X0.0620*%
%ADD33R,0.0236X0.0413*%
%ADD34C,0.0187*%
%ADD35R,0.0500X0.0400*%
%ADD36R,0.0400X0.0710*%
%ADD37R,0.0866X0.0630*%
%ADD38R,0.0850X0.1080*%
%ADD39R,0.1080X0.0850*%
%ADD40R,0.0354X0.0512*%
%ADD41O,0.0256X0.0650*%
%ADD42R,0.1701X0.1181*%
%ADD43R,0.0177X0.0649*%
%ADD44R,0.0354X0.0165*%
%ADD45R,0.0680X0.1580*%
%ADD46R,0.0680X0.0550*%
%ADD47R,0.0500X0.0270*%
%ADD48R,0.1580X0.0680*%
%ADD49R,0.0550X0.0680*%
%ADD50C,0.0800*%
%ADD51O,0.0700X0.0110*%
%ADD52R,0.0700X0.0110*%
%ADD53O,0.0110X0.0700*%
%ADD54R,0.0110X0.0700*%
%ADD55R,0.0250X0.0350*%
%ADD56R,0.0350X0.0250*%
%ADD57R,0.0394X0.0197*%
%ADD58C,0.0276*%
%ADD59C,0.0250*%
%ADD60C,0.0050*%
%ADD61C,0.0100*%
%ADD62C,0.0276*%
%ADD63C,0.0080*%
%ADD64C,0.0150*%
%ADD65C,0.0276*%
%ADD66C,0.0120*%
%ADD67C,0.0500*%
%ADD68C,0.0200*%
%ADD69C,0.0276*%
%ADD70C,0.0300*%
%ADD71C,0.0060*%
%ADD72C,0.1575*%
%ADD73C,0.0866*%
%ADD74C,0.0050*%
%ADD75C,0.0866*%
%ADD76C,0.0710*%
%ADD77R,0.0710X0.0710*%
%ADD78C,0.0708*%
%ADD79R,0.0708X0.0708*%
%ADD80THERMAL80*%
%ADD81C,0.0708*%
%ADD82R,0.0708X0.0708*%
%ADD83C,0.0748*%
%ADD84O,0.0800X0.0620*%
%ADD85THERMAL85*%
%ADD86R,0.0800X0.0620*%
%ADD87C,0.1100*%
%ADD88THERMAL88*%
%ADD89C,0.1100*%
%ADD90C,0.0050*%
%ADD91C,0.0050*%
%ADD92C,0.1378*%
%ADD93C,0.0787*%
*
G04 Plot Data ***
*
G54D61*
G01X0022550Y0015060D02*
X0012600D01*
X0022550Y0014970D02*
X0012600D01*
X0026350Y0013170D02*
X0009300D01*
X0026350Y0013080D02*
X0009300D01*
X0026350Y0012990D02*
X0009300D01*
X0026350Y0012900D02*
X0009300D01*
X0026350Y0012810D02*
X0009300D01*
X0026350Y0012180D02*
X0015850D01*
X0026350Y0012090D02*
X0015850D01*
X0018750Y0012000D02*
X0015850D01*
X0026350Y0011910D02*
X0022900D01*
X0018750D02*
X0015850D01*
X0026350Y0011820D02*
X0022900D01*
X0018750D02*
X0015850D01*
X0026350Y0011730D02*
X0022900D01*
X0018750D02*
X0015850D01*
X0026350Y0011640D02*
X0022900D01*
X0018750D02*
X0015850D01*
X0026350Y0011550D02*
X0022900D01*
X0018750D02*
X0015850D01*
X0026350Y0011460D02*
X0022900D01*
X0018750D02*
X0015850D01*
X0026350Y0011370D02*
X0022900D01*
X0026350Y0011280D02*
X0022900D01*
X0026350Y0011190D02*
X0022900D01*
X0026350Y0011100D02*
X0022900D01*
X0026350Y0011010D02*
X0022900D01*
X0026350Y0010920D02*
X0022900D01*
X0026350Y0010830D02*
X0022900D01*
X0026350Y0010740D02*
X0022900D01*
X0026350Y0010650D02*
X0022900D01*
X0026350Y0010560D02*
X0022900D01*
X0026350Y0010470D02*
X0022900D01*
X0026350Y0010380D02*
X0022900D01*
X0026350Y0013440D02*
X0000900D01*
X0022900Y0013450D02*
Y0012000D01*
X0011200Y0015240D02*
X0000900D01*
X0005890Y0016500D02*
Y0013150D01*
X0000900Y0015900D02*
Y0013150D01*
X0006100D02*
X0000900D01*
X0006100D02*
Y0012750D01*
X0008200D02*
X0006100D01*
X0008200Y0013250D02*
Y0012750D01*
X0009300Y0013250D02*
X0008200D01*
X0009300D02*
Y0012650D01*
X0011700D02*
X0009300D01*
X0011700D02*
Y0011450D01*
X0012750D02*
X0011700D01*
X0012750Y0012200D02*
Y0011450D01*
X0015850Y0012200D02*
X0012750D01*
X0015850D02*
Y0010250D01*
X0018750D02*
X0015850D01*
X0018750Y0012000D02*
Y0010250D01*
X0022900Y0012000D02*
X0018750D01*
X0022900D02*
Y0010300D01*
X0026350D02*
X0022900D01*
X0026350Y0013450D02*
Y0010300D01*
Y0013450D02*
X0022550D01*
Y0015150D02*
Y0013450D01*
Y0015150D02*
X0012600D01*
Y0014800D01*
X0011200D01*
Y0016500D02*
Y0014800D01*
Y0016500D02*
X0005800D01*
Y0015900D01*
X0000900D01*
X0026350Y0012000D02*
X0022900D01*
X0026320Y0013450D02*
Y0010300D01*
X0026230Y0013450D02*
Y0010300D01*
X0026140Y0013450D02*
Y0010300D01*
X0026050Y0013450D02*
Y0010300D01*
X0025960Y0013450D02*
Y0010300D01*
X0025870Y0013450D02*
Y0010300D01*
X0025780Y0013450D02*
Y0010300D01*
X0025690Y0013450D02*
Y0010300D01*
X0025600Y0013450D02*
Y0010300D01*
X0025510Y0013450D02*
Y0010300D01*
X0025420Y0013450D02*
Y0010300D01*
X0025330Y0013450D02*
Y0010300D01*
X0025240Y0013450D02*
Y0010300D01*
X0025150Y0013450D02*
Y0010300D01*
X0025060Y0013450D02*
Y0010300D01*
X0024970Y0013450D02*
Y0010300D01*
X0024880Y0013450D02*
Y0010300D01*
X0024790Y0013450D02*
Y0010300D01*
X0024700Y0013450D02*
Y0010300D01*
X0024610Y0013450D02*
Y0010300D01*
X0024520Y0013450D02*
Y0010300D01*
X0024430Y0013450D02*
Y0010300D01*
X0024340Y0013450D02*
Y0010300D01*
X0024250Y0013450D02*
Y0010300D01*
X0024160Y0013450D02*
Y0010300D01*
X0024070Y0013450D02*
Y0010300D01*
X0023980Y0013450D02*
Y0010300D01*
X0023890Y0013450D02*
Y0010300D01*
X0023800Y0013450D02*
Y0010300D01*
X0023710Y0013450D02*
Y0010300D01*
X0023620Y0013450D02*
Y0010300D01*
X0023530Y0013450D02*
Y0010300D01*
X0023440Y0013450D02*
Y0010300D01*
X0023350Y0013450D02*
Y0010300D01*
X0023260Y0013450D02*
Y0010300D01*
X0023170Y0013450D02*
Y0010300D01*
X0023080Y0013450D02*
Y0010300D01*
X0022550Y0014880D02*
X0012600D01*
X0022810Y0013450D02*
Y0012000D01*
X0022720Y0013450D02*
Y0012000D01*
X0022630Y0013450D02*
Y0012000D01*
X0022540Y0015150D02*
Y0012000D01*
X0022450Y0015150D02*
Y0012000D01*
X0022360Y0015150D02*
Y0012000D01*
X0022270Y0015150D02*
Y0012000D01*
X0022180Y0015150D02*
Y0012000D01*
X0022090Y0015150D02*
Y0012000D01*
X0022000Y0015150D02*
Y0012000D01*
X0021910Y0015150D02*
Y0012000D01*
X0021820Y0015150D02*
Y0012000D01*
X0021730Y0015150D02*
Y0012000D01*
X0021640Y0015150D02*
Y0012000D01*
X0021550Y0015150D02*
Y0012000D01*
X0021460Y0015150D02*
Y0012000D01*
X0021370Y0015150D02*
Y0012000D01*
X0021280Y0015150D02*
Y0012000D01*
X0021190Y0015150D02*
Y0012000D01*
X0021100Y0015150D02*
Y0012000D01*
X0021010Y0015150D02*
Y0012000D01*
X0020920Y0015150D02*
Y0012000D01*
X0020830Y0015150D02*
Y0012000D01*
X0020740Y0015150D02*
Y0012000D01*
X0020650Y0015150D02*
Y0012000D01*
X0020560Y0015150D02*
Y0012000D01*
X0020470Y0015150D02*
Y0012000D01*
X0020380Y0015150D02*
Y0012000D01*
X0020290Y0015150D02*
Y0012000D01*
X0020200Y0015150D02*
Y0012000D01*
X0020110Y0015150D02*
Y0012000D01*
X0020020Y0015150D02*
Y0012000D01*
X0019930Y0015150D02*
Y0012000D01*
X0019840Y0015150D02*
Y0012000D01*
X0019750Y0015150D02*
Y0012000D01*
X0019660Y0015150D02*
Y0012000D01*
X0019570Y0015150D02*
Y0012000D01*
X0019480Y0015150D02*
Y0012000D01*
X0019390Y0015150D02*
Y0012000D01*
X0019300Y0015150D02*
Y0012000D01*
X0019210Y0015150D02*
Y0012000D01*
X0019120Y0015150D02*
Y0012000D01*
X0019030Y0015150D02*
Y0012000D01*
X0018940Y0015150D02*
Y0012000D01*
X0018850Y0015150D02*
Y0012000D01*
X0018760Y0015150D02*
Y0012000D01*
X0018670Y0015150D02*
Y0010250D01*
X0018580Y0015150D02*
Y0010250D01*
X0018490Y0015150D02*
Y0010250D01*
X0018400Y0015150D02*
Y0010250D01*
X0018310Y0015150D02*
Y0010250D01*
X0018220Y0015150D02*
Y0010250D01*
X0018130Y0015150D02*
Y0010250D01*
X0018040Y0015150D02*
Y0010250D01*
X0017950Y0015150D02*
Y0010250D01*
X0017860Y0015150D02*
Y0010250D01*
X0017770Y0015150D02*
Y0010250D01*
X0017680Y0015150D02*
Y0010250D01*
X0017590Y0015150D02*
Y0010250D01*
X0017500Y0015150D02*
Y0010250D01*
X0017410Y0015150D02*
Y0010250D01*
X0017320Y0015150D02*
Y0010250D01*
X0017230Y0015150D02*
Y0010250D01*
X0017140Y0015150D02*
Y0010250D01*
X0017050Y0015150D02*
Y0010250D01*
X0016960Y0015150D02*
Y0010250D01*
X0016870Y0015150D02*
Y0010250D01*
X0016780Y0015150D02*
Y0010250D01*
X0016690Y0015150D02*
Y0010250D01*
X0016600Y0015150D02*
Y0010250D01*
X0016510Y0015150D02*
Y0010250D01*
X0016420Y0015150D02*
Y0010250D01*
X0016330Y0015150D02*
Y0010250D01*
X0016240Y0015150D02*
Y0010250D01*
X0016150Y0015150D02*
Y0010250D01*
X0016060Y0015150D02*
Y0010250D01*
X0015970Y0015150D02*
Y0010250D01*
X0015880Y0015150D02*
Y0010250D01*
X0015790Y0015150D02*
Y0012200D01*
X0015700Y0015150D02*
Y0012200D01*
X0015610Y0015150D02*
Y0012200D01*
X0015520Y0015150D02*
Y0012200D01*
X0015430Y0015150D02*
Y0012200D01*
X0015340Y0015150D02*
Y0012200D01*
X0015250Y0015150D02*
Y0012200D01*
X0015160Y0015150D02*
Y0012200D01*
X0015070Y0015150D02*
Y0012200D01*
X0014980Y0015150D02*
Y0012200D01*
X0014890Y0015150D02*
Y0012200D01*
X0014800Y0015150D02*
Y0012200D01*
X0014710Y0015150D02*
Y0012200D01*
X0014620Y0015150D02*
Y0012200D01*
X0014530Y0015150D02*
Y0012200D01*
X0014440Y0015150D02*
Y0012200D01*
X0014350Y0015150D02*
Y0012200D01*
X0014260Y0015150D02*
Y0012200D01*
X0014170Y0015150D02*
Y0012200D01*
X0014080Y0015150D02*
Y0012200D01*
X0013990Y0015150D02*
Y0012200D01*
X0013900Y0015150D02*
Y0012200D01*
X0013810Y0015150D02*
Y0012200D01*
X0012750Y0011910D02*
X0011700D01*
X0013630Y0015150D02*
Y0012200D01*
X0013540Y0015150D02*
Y0012200D01*
X0013450Y0015150D02*
Y0012200D01*
X0013360Y0015150D02*
Y0012200D01*
X0013270Y0015150D02*
Y0012200D01*
X0013180Y0015150D02*
Y0012200D01*
X0013090Y0015150D02*
Y0012200D01*
X0013000Y0015150D02*
Y0012200D01*
X0012910Y0015150D02*
Y0012200D01*
X0012820Y0015150D02*
Y0012200D01*
X0012730Y0015150D02*
Y0011450D01*
X0012640Y0015150D02*
Y0011450D01*
X0012550Y0014800D02*
Y0011450D01*
X0012460Y0014800D02*
Y0011450D01*
X0012370Y0014800D02*
Y0011450D01*
X0012280Y0014800D02*
Y0011450D01*
X0012190Y0014800D02*
Y0011450D01*
X0012100Y0014800D02*
Y0011450D01*
X0012010Y0014800D02*
Y0011450D01*
X0011920Y0014800D02*
Y0011450D01*
X0011830Y0014800D02*
Y0011450D01*
X0011740Y0014800D02*
Y0011450D01*
X0011650Y0014800D02*
Y0012650D01*
X0011560Y0014800D02*
Y0012650D01*
X0011470Y0014800D02*
Y0012650D01*
X0011380Y0014800D02*
Y0012650D01*
X0012750Y0012090D02*
X0011700D01*
X0011200Y0014800D02*
Y0012650D01*
X0011110Y0016500D02*
Y0012650D01*
X0011020Y0016500D02*
Y0012650D01*
X0010930Y0016500D02*
Y0012650D01*
X0010840Y0016500D02*
Y0012650D01*
X0010750Y0016500D02*
Y0012650D01*
X0010660Y0016500D02*
Y0012650D01*
X0010570Y0016500D02*
Y0012650D01*
X0010480Y0016500D02*
Y0012650D01*
X0010390Y0016500D02*
Y0012650D01*
X0010300Y0016500D02*
Y0012650D01*
X0010210Y0016500D02*
Y0012650D01*
X0010120Y0016500D02*
Y0012650D01*
X0010030Y0016500D02*
Y0012650D01*
X0009940Y0016500D02*
Y0012650D01*
X0009850Y0016500D02*
Y0012650D01*
X0009760Y0016500D02*
Y0012650D01*
X0009670Y0016500D02*
Y0012650D01*
X0009580Y0016500D02*
Y0012650D01*
X0009490Y0016500D02*
Y0012650D01*
X0009400Y0016500D02*
Y0012650D01*
X0009310Y0016500D02*
Y0012650D01*
X0009220Y0016500D02*
Y0013250D01*
X0009130Y0016500D02*
Y0013250D01*
X0009040Y0016500D02*
Y0013250D01*
X0008950Y0016500D02*
Y0013250D01*
X0008860Y0016500D02*
Y0013250D01*
X0008770Y0016500D02*
Y0013250D01*
X0008680Y0016500D02*
Y0013250D01*
X0008590Y0016500D02*
Y0013250D01*
X0008500Y0016500D02*
Y0013250D01*
X0008410Y0016500D02*
Y0013250D01*
X0008320Y0016500D02*
Y0013250D01*
X0008230Y0016500D02*
Y0013250D01*
X0008140Y0016500D02*
Y0012750D01*
X0008050Y0016500D02*
Y0012750D01*
X0007960Y0016500D02*
Y0012750D01*
X0007870Y0016500D02*
Y0012750D01*
X0007780Y0016500D02*
Y0012750D01*
X0007690Y0016500D02*
Y0012750D01*
X0007600Y0016500D02*
Y0012750D01*
X0007510Y0016500D02*
Y0012750D01*
X0007420Y0016500D02*
Y0012750D01*
X0007330Y0016500D02*
Y0012750D01*
X0007240Y0016500D02*
Y0012750D01*
X0007150Y0016500D02*
Y0012750D01*
X0007060Y0016500D02*
Y0012750D01*
X0006970Y0016500D02*
Y0012750D01*
X0006880Y0016500D02*
Y0012750D01*
X0006790Y0016500D02*
Y0012750D01*
X0006700Y0016500D02*
Y0012750D01*
X0006610Y0016500D02*
Y0012750D01*
X0006520Y0016500D02*
Y0012750D01*
X0006430Y0016500D02*
Y0012750D01*
X0006340Y0016500D02*
Y0012750D01*
X0006250Y0016500D02*
Y0012750D01*
X0006160Y0016500D02*
Y0012750D01*
X0006070Y0016500D02*
Y0013150D01*
X0005980Y0016500D02*
Y0013150D01*
X0011290Y0014800D02*
Y0012650D01*
X0005800Y0015900D02*
Y0013150D01*
X0005710Y0015900D02*
Y0013150D01*
X0005620Y0015900D02*
Y0013150D01*
X0005530Y0015900D02*
Y0013150D01*
X0005440Y0015900D02*
Y0013150D01*
X0005350Y0015900D02*
Y0013150D01*
X0005260Y0015900D02*
Y0013150D01*
X0005170Y0015900D02*
Y0013150D01*
X0005080Y0015900D02*
Y0013150D01*
X0004990Y0015900D02*
Y0013150D01*
X0004900Y0015900D02*
Y0013150D01*
X0004810Y0015900D02*
Y0013150D01*
X0004720Y0015900D02*
Y0013150D01*
X0004630Y0015900D02*
Y0013150D01*
X0004540Y0015900D02*
Y0013150D01*
X0004450Y0015900D02*
Y0013150D01*
X0004360Y0015900D02*
Y0013150D01*
X0004270Y0015900D02*
Y0013150D01*
X0004180Y0015900D02*
Y0013150D01*
X0004090Y0015900D02*
Y0013150D01*
X0004000Y0015900D02*
Y0013150D01*
X0003910Y0015900D02*
Y0013150D01*
X0003820Y0015900D02*
Y0013150D01*
X0003730Y0015900D02*
Y0013150D01*
X0003640Y0015900D02*
Y0013150D01*
X0003550Y0015900D02*
Y0013150D01*
X0003460Y0015900D02*
Y0013150D01*
X0003370Y0015900D02*
Y0013150D01*
X0003280Y0015900D02*
Y0013150D01*
X0003190Y0015900D02*
Y0013150D01*
X0003100Y0015900D02*
Y0013150D01*
X0003010Y0015900D02*
Y0013150D01*
X0002920Y0015900D02*
Y0013150D01*
X0002830Y0015900D02*
Y0013150D01*
X0002740Y0015900D02*
Y0013150D01*
X0002650Y0015900D02*
Y0013150D01*
X0002560Y0015900D02*
Y0013150D01*
X0002470Y0015900D02*
Y0013150D01*
X0002380Y0015900D02*
Y0013150D01*
X0002290Y0015900D02*
Y0013150D01*
X0002200Y0015900D02*
Y0013150D01*
X0002110Y0015900D02*
Y0013150D01*
X0002020Y0015900D02*
Y0013150D01*
X0001930Y0015900D02*
Y0013150D01*
X0001840Y0015900D02*
Y0013150D01*
X0001750Y0015900D02*
Y0013150D01*
X0001660Y0015900D02*
Y0013150D01*
X0001570Y0015900D02*
Y0013150D01*
X0001480Y0015900D02*
Y0013150D01*
X0001390Y0015900D02*
Y0013150D01*
X0001300Y0015900D02*
Y0013150D01*
X0001210Y0015900D02*
Y0013150D01*
X0001120Y0015900D02*
Y0013150D01*
X0001030Y0015900D02*
Y0013150D01*
X0018750Y0010290D02*
X0015850D01*
X0011200Y0015150D02*
X0000900D01*
X0011200Y0016410D02*
X0005800D01*
X0011200Y0016320D02*
X0005800D01*
X0011200Y0016230D02*
X0005800D01*
X0011200Y0016140D02*
X0005800D01*
X0011200Y0016050D02*
X0005800D01*
X0011200Y0015960D02*
X0005800D01*
X0011200Y0015870D02*
X0000900D01*
X0011200Y0015780D02*
X0000900D01*
X0011200Y0015690D02*
X0000900D01*
X0011200Y0015600D02*
X0000900D01*
X0011200Y0015510D02*
X0000900D01*
X0011200Y0015420D02*
X0000900D01*
X0011200Y0015330D02*
X0000900D01*
X0011200Y0015060D02*
X0000900D01*
X0011200Y0014970D02*
X0000900D01*
X0011200Y0014880D02*
X0000900D01*
X0022550Y0014790D02*
X0000900D01*
X0022550Y0014700D02*
X0000900D01*
X0022550Y0014610D02*
X0000900D01*
X0022550Y0014520D02*
X0000900D01*
X0022550Y0014430D02*
X0000900D01*
X0022550Y0014340D02*
X0000900D01*
X0022550Y0014250D02*
X0000900D01*
X0022550Y0014160D02*
X0000900D01*
X0022550Y0014070D02*
X0000900D01*
X0022550Y0013980D02*
X0000900D01*
X0022550Y0013890D02*
X0000900D01*
X0022550Y0013800D02*
X0000900D01*
X0022550Y0013710D02*
X0000900D01*
X0022550Y0013620D02*
X0000900D01*
X0022550Y0013530D02*
X0000900D01*
X0013720Y0015150D02*
Y0012200D01*
X0026350Y0013350D02*
X0000900D01*
X0026350Y0013260D02*
X0000900D01*
X0008200Y0013170D02*
X0000900D01*
X0008200Y0013080D02*
X0006100D01*
X0008200Y0012990D02*
X0006100D01*
X0008200Y0012900D02*
X0006100D01*
X0008200Y0012810D02*
X0006100D01*
X0026350Y0012720D02*
X0009300D01*
X0026350Y0012630D02*
X0011700D01*
X0026350Y0012540D02*
X0011700D01*
X0026350Y0012450D02*
X0011700D01*
X0026350Y0012360D02*
X0011700D01*
X0026350Y0012270D02*
X0011700D01*
X0012750Y0012180D02*
X0011700D01*
X0022990Y0013450D02*
Y0010300D01*
X0012750Y0012000D02*
X0011700D01*
X0000940Y0015900D02*
Y0013150D01*
X0012750Y0011820D02*
X0011700D01*
X0012750Y0011730D02*
X0011700D01*
X0012750Y0011640D02*
X0011700D01*
X0012750Y0011550D02*
X0011700D01*
X0012750Y0011460D02*
X0011700D01*
X0018750Y0011370D02*
X0015850D01*
X0018750Y0011280D02*
X0015850D01*
X0018750Y0011190D02*
X0015850D01*
X0018750Y0011100D02*
X0015850D01*
X0018750Y0011010D02*
X0015850D01*
X0018750Y0010920D02*
X0015850D01*
X0018750Y0010830D02*
X0015850D01*
X0018750Y0010740D02*
X0015850D01*
X0018750Y0010650D02*
X0015850D01*
X0018750Y0010560D02*
X0015850D01*
X0018750Y0010470D02*
X0015850D01*
X0018750Y0010380D02*
X0015850D01*
X0026350Y0005050D02*
X0024650D01*
X0026350Y0004960D02*
X0024650D01*
X0026350Y0004870D02*
X0024650D01*
X0026350Y0004780D02*
X0024650D01*
X0026350Y0004690D02*
X0024650D01*
X0026350Y0004600D02*
X0024650D01*
X0026350Y0004510D02*
X0024650D01*
X0026350Y0004420D02*
X0024650D01*
X0026350Y0004330D02*
X0024650D01*
X0026350Y0004240D02*
X0024650D01*
X0026350Y0004150D02*
X0024650D01*
X0026350Y0004060D02*
X0024650D01*
X0026350Y0003970D02*
X0024650D01*
X0026350Y0003880D02*
X0024650D01*
X0026350Y0003790D02*
X0024650D01*
X0026350Y0003700D02*
X0024650D01*
X0026350Y0003610D02*
X0024650D01*
X0026350Y0003520D02*
X0024650D01*
X0026350Y0003430D02*
X0024650D01*
X0026350Y0003340D02*
X0024650D01*
X0026350Y0003250D02*
X0024650D01*
X0026350Y0003160D02*
X0024650D01*
X0026350Y0003070D02*
X0024650D01*
X0026350Y0002980D02*
X0024650D01*
Y0005300D02*
Y0002850D01*
X0026310Y0005300D02*
Y0002850D01*
X0026220Y0005300D02*
Y0002850D01*
X0026130Y0005300D02*
Y0002850D01*
X0026040Y0005300D02*
Y0002850D01*
X0025950Y0005300D02*
Y0002850D01*
X0025860Y0005300D02*
Y0002850D01*
X0025770Y0005300D02*
Y0002850D01*
X0025680Y0005300D02*
Y0002850D01*
X0025590Y0005300D02*
Y0002850D01*
X0025500Y0005300D02*
Y0002850D01*
X0025410Y0005300D02*
Y0002850D01*
X0025320Y0005300D02*
Y0002850D01*
X0025230Y0005300D02*
Y0002850D01*
X0025140Y0005300D02*
Y0002850D01*
X0025050Y0005300D02*
Y0002850D01*
X0024960Y0005300D02*
Y0002850D01*
X0024870Y0005300D02*
Y0002850D01*
X0024780Y0005300D02*
Y0002850D01*
X0024690Y0005300D02*
Y0002850D01*
X0026350Y0005230D02*
X0024650D01*
X0026350Y0005140D02*
X0024650D01*
X0026350Y0002890D02*
X0024650D01*
X0026350Y0002850D02*
X0024650D01*
X0026350Y0005300D02*
Y0002850D01*
Y0005300D02*
X0024650D01*
X0016800Y0003400D02*
Y0001650D01*
X0016710Y0003400D02*
Y0001650D01*
X0016620Y0003400D02*
Y0001650D01*
X0016530Y0003400D02*
Y0001650D01*
X0018700Y0001690D02*
X0016400D01*
X0018700Y0003310D02*
X0016400D01*
X0018700Y0003220D02*
X0016400D01*
X0018700Y0003130D02*
X0016400D01*
X0018700Y0003040D02*
X0016400D01*
X0018700Y0002950D02*
X0016400D01*
X0018700Y0002860D02*
X0016400D01*
X0018700Y0002770D02*
X0016400D01*
X0018700Y0002680D02*
X0016400D01*
X0018700Y0002590D02*
X0016400D01*
X0018700Y0002500D02*
X0016400D01*
X0018700Y0002410D02*
X0016400D01*
X0018700Y0002320D02*
X0016400D01*
X0018700Y0002230D02*
X0016400D01*
X0018700Y0002140D02*
X0016400D01*
X0018700Y0002050D02*
X0016400D01*
X0018700Y0001960D02*
X0016400D01*
X0018700Y0001870D02*
X0016400D01*
X0018700Y0001780D02*
X0016400D01*
X0018700Y0003400D02*
Y0001650D01*
X0016400D01*
X0018690Y0003400D02*
Y0001650D01*
X0018600Y0003400D02*
Y0001650D01*
X0018510Y0003400D02*
Y0001650D01*
X0018420Y0003400D02*
Y0001650D01*
X0018330Y0003400D02*
Y0001650D01*
X0018240Y0003400D02*
Y0001650D01*
X0018150Y0003400D02*
Y0001650D01*
X0018060Y0003400D02*
Y0001650D01*
X0017970Y0003400D02*
Y0001650D01*
X0017880Y0003400D02*
Y0001650D01*
X0017790Y0003400D02*
Y0001650D01*
X0017700Y0003400D02*
Y0001650D01*
X0017610Y0003400D02*
Y0001650D01*
X0017520Y0003400D02*
Y0001650D01*
X0017430Y0003400D02*
Y0001650D01*
X0017340Y0003400D02*
Y0001650D01*
X0017250Y0003400D02*
Y0001650D01*
X0017160Y0003400D02*
Y0001650D01*
X0017070Y0003400D02*
Y0001650D01*
X0016980Y0003400D02*
Y0001650D01*
X0016890Y0003400D02*
Y0001650D01*
X0016440Y0003400D02*
Y0001650D01*
X0016400Y0003400D02*
Y0001650D01*
X0018700Y0003400D02*
X0016400D01*
X0016750Y0006300D02*
Y0004550D01*
X0016660Y0006300D02*
Y0004550D01*
X0016570Y0006300D02*
Y0004550D01*
X0016480Y0006300D02*
Y0004550D01*
X0018650Y0004590D02*
X0016350D01*
X0018650Y0006210D02*
X0016350D01*
X0018650Y0006120D02*
X0016350D01*
X0018650Y0006030D02*
X0016350D01*
X0018650Y0005940D02*
X0016350D01*
X0018650Y0005850D02*
X0016350D01*
X0018650Y0005760D02*
X0016350D01*
X0018650Y0005670D02*
X0016350D01*
X0018650Y0005580D02*
X0016350D01*
X0018650Y0005490D02*
X0016350D01*
X0018650Y0005400D02*
X0016350D01*
X0018650Y0005310D02*
X0016350D01*
X0018650Y0005220D02*
X0016350D01*
X0018650Y0005130D02*
X0016350D01*
X0018650Y0005040D02*
X0016350D01*
X0018650Y0004950D02*
X0016350D01*
X0018650Y0004860D02*
X0016350D01*
X0018650Y0004770D02*
X0016350D01*
X0018650Y0004680D02*
X0016350D01*
X0018650Y0006300D02*
Y0004550D01*
X0016350D01*
X0018640Y0006300D02*
Y0004550D01*
X0018550Y0006300D02*
Y0004550D01*
X0018460Y0006300D02*
Y0004550D01*
X0018370Y0006300D02*
Y0004550D01*
X0018280Y0006300D02*
Y0004550D01*
X0018190Y0006300D02*
Y0004550D01*
X0018100Y0006300D02*
Y0004550D01*
X0018010Y0006300D02*
Y0004550D01*
X0017920Y0006300D02*
Y0004550D01*
X0017830Y0006300D02*
Y0004550D01*
X0017740Y0006300D02*
Y0004550D01*
X0017650Y0006300D02*
Y0004550D01*
X0017560Y0006300D02*
Y0004550D01*
X0017470Y0006300D02*
Y0004550D01*
X0017380Y0006300D02*
Y0004550D01*
X0017290Y0006300D02*
Y0004550D01*
X0017200Y0006300D02*
Y0004550D01*
X0017110Y0006300D02*
Y0004550D01*
X0017020Y0006300D02*
Y0004550D01*
X0016930Y0006300D02*
Y0004550D01*
X0016840Y0006300D02*
Y0004550D01*
X0016390Y0006300D02*
Y0004550D01*
X0016350Y0006300D02*
Y0004550D01*
X0018650Y0006300D02*
X0016350D01*
G54D93*
G01X0031350Y0007800D02*
Y0008150D01*
X0030200Y0009300D01*
Y0010200D01*
X0029150Y0011250D01*
X0027250D01*
G54D25*
X0001968Y0017716D03*
Y0001968D03*
X0044488Y0017716D03*
Y0001968D03*
G54D26*
X0037766Y0004266D03*
Y0006234D03*
X0039734Y0004266D03*
X0038750Y0005250D03*
Y0007218D03*
X0039734Y0006234D03*
G54D27*
X0007824Y0017606D03*
X0007037Y0018393D03*
Y0017606D03*
X0006250Y0018393D03*
Y0017606D03*
X0005463Y0018393D03*
Y0017606D03*
X0004675Y0018393D03*
Y0017606D03*
G54D28*
X0007824Y0018393D03*
G54D29*
X0039075Y0001500D03*
X0038287D03*
X0037500D03*
X0025213Y0001750D03*
X0024425D03*
X0013250Y0001500D03*
X0012463D03*
X0011675D03*
X0010888D03*
X0010100D03*
X0009313D03*
X0044250Y0014213D03*
Y0013425D03*
X0020037Y0018750D03*
X0020825D03*
X0021612D03*
X0013537D03*
X0014325D03*
X0015112D03*
X0029463Y0003500D03*
X0028675D03*
X0027888D03*
X0029463Y0001750D03*
X0028675D03*
X0027888D03*
G54D30*
X0026000D03*
X0044250Y0015000D03*
X0019250Y0018750D03*
X0012750D03*
X0030250Y0003500D03*
Y0001750D03*
G54D31*
X0002750Y0008500D03*
Y0009500D03*
X0001750D03*
Y0008500D03*
Y0007500D03*
G54D32*
X0002750D03*
G54D50*
X0036500Y0011250D03*
Y0010250D03*
Y0009250D03*
X0029000Y0012750D03*
X0030000D03*
X0031000D03*
M02*
