%
T1C0.0079F200S100
X001750Y010650
X001750Y015750
X002000Y004000
X003250Y006500
X003450Y012200
X003500Y003650
X003500Y006100
X003550Y010000
X003600Y001300
X003850Y011050
X003900Y006100
X004100Y005750
X003900Y009700
X003900Y010300
X004250Y007250
X004250Y008500
X004700Y009750
X005000Y005200
X005000Y010950
X005200Y011950
X005300Y016700
X005550Y004550
X005550Y012700
X005550Y019200
X005700Y006850
X005750Y006200
X005750Y007300
X006050Y012100
X006450Y014150
X006500Y004700
X006750Y010100
X006750Y010600
X006750Y011050
X006500Y015050
X006500Y015700
X006850Y003900
X007150Y008500
X007200Y008950
X007218Y007318
X007250Y013800
X007300Y009450
X007450Y010950
X007500Y012700
X007750Y005150
X007800Y006320
X007900Y011000
X008050Y007850
X008050Y008550
X008050Y009050
X008100Y006700
X008250Y016300
X008450Y006400
X008550Y001350
X008650Y002950
X008750Y003800
X008650Y008650
X008750Y012850
X008850Y010850
X008950Y006350
X009250Y011800
X009350Y006350
X009350Y007250
X009250Y017500
X009250Y018800
X009550Y011200
X009600Y004550
X009600Y005050
X009700Y008400
X009800Y002700
X009800Y003950
X009850Y007600
X010000Y008700
X010000Y009100
X010000Y011300
X010200Y010950
X010300Y007500
X010300Y009300
X010350Y007100
X010450Y011300
X010500Y005550
X010550Y005950
X011000Y018800
X011100Y005850
X011250Y017500
X011300Y012100
X011370Y003650
X011510Y006340
X011662Y007712
X011700Y002300
X011735Y009485
X011750Y015250
X011800Y007300
X012120Y009220
X012250Y007300
X012410Y010470
X012490Y008970
X012500Y008240
X012600Y014050
X012800Y013500
X012950Y002750
X013000Y009050
X013050Y005500
X013050Y006050
X013200Y015550
X013250Y017950
X013300Y011480
X013300Y013050
X013300Y013500
X013300Y013950
X013500Y002300
X013590Y011270
X013750Y007000
X013850Y009100
X013950Y006050
X014000Y010000
X014000Y011500
X014000Y013050
X014000Y013500
X014000Y013950
X014250Y002750
X014250Y004470
X014250Y005050
X014300Y006200
X014600Y011650
X014700Y013050
X014700Y013500
X014700Y013950
X014750Y015550
X014750Y017950
X014900Y011350
X015050Y002400
X015250Y007450
X015300Y011650
X015500Y009600
X015849Y014701
X015950Y016250
X016500Y001700
X016500Y002500
X016500Y003350
X016500Y004850
X016500Y005500
X016500Y006150
X016700Y015550
X016900Y008300
X017000Y009750
X017150Y001700
X017150Y002500
X017150Y003350
X017150Y004850
X017150Y005500
X017750Y005500
X017750Y006150
X017150Y006150
X017800Y001700
X017800Y002500
X017800Y003350
X017800Y004850
X017900Y017250
X018100Y009800
X018400Y004850
X018400Y005500
X018400Y006150
X018450Y003350
X018500Y001700
X018500Y002500
X018650Y008300
X018800Y007250
X019100Y003500
X019150Y007100
X019100Y014050
X019400Y013500
X019500Y017950
X019550Y007500
X019600Y015550
X019680Y010220
X019800Y013050
X019800Y013500
X019800Y013950
X019850Y005750
X019950Y006900
X019950Y011250
X020100Y007500
X020240Y008920
X020350Y002650
X020400Y001900
X020350Y011100
X020450Y007400
X020500Y013050
X020500Y013550
X020500Y013950
X020600Y009900
X020910Y007170
X020950Y007600
X021200Y013050
X021200Y013550
X021200Y013950
X021250Y009750
X021250Y011400
X021250Y015550
X021250Y017950
X021280Y007160
X021600Y004150
X021650Y001880
X021650Y007950
X021900Y014050
X022000Y011100
X022350Y011500
X022500Y007550
X022500Y009850
X022500Y016300
X022910Y003750
X023000Y001500
X023000Y009600
X023020Y003370
X023050Y014450
X023050Y014900
X023050Y015550
X023250Y005700
X023300Y014050
X023350Y018500
X023400Y004150
X023550Y007000
X023800Y014050
X024200Y006650
X024200Y007500
X024250Y003450
X024300Y014050
X024350Y015850
X024400Y008300
X024500Y009750
X024400Y017250
X024700Y003450
X024700Y004100
X024700Y004700
X024700Y005300
X024750Y014050
X024750Y014650
X024750Y015250
X024750Y015850
X025500Y003450
X025500Y004100
X025500Y004700
X025500Y005300
X026000Y009750
X025500Y015500
X026070Y008030
X026300Y003450
X026300Y004100
X026300Y004700
X026300Y005300
X026750Y016500
X026950Y010450
X027000Y011950
X027250Y007000
X027500Y010000
X027550Y010450
X027550Y011950
X028000Y007750
X028150Y011950
X028200Y010450
X028240Y011214
X028250Y016500
X028550Y006350
X028600Y005250
X028850Y007850
X029000Y008500
X029600Y008200
X029000Y010000
X029600Y015050
X030000Y005700
X030000Y006600
X030500Y013750
X030900Y007700
X031250Y007950
X030900Y008200
X030900Y008650
X031300Y008650
X031650Y008200
X032750Y018400
X033400Y002200
X033800Y005770
X033800Y007000
X033950Y004030
X034180Y004630
X034250Y018400
X034400Y008000
X035000Y018800
X035160Y007000
X035500Y015450
X035500Y017200
X036500Y015250
X039250Y016500
X039250Y017750
X039750Y015400
X040210Y012240
X040500Y013250
X040750Y002000
X040800Y012800
X040850Y005250
X041250Y014000
X041500Y007000
X041620Y015900
X042100Y013250
X042250Y013800
X042450Y016600
X042500Y017450
X043250Y014950
X043400Y015450
T5C0.0512F200S100
X037766Y004266
X038750Y005250
X037766Y006234
X038750Y007218
X039734Y004266
X039734Y006234
T3C0.0354F200S100
X009313Y001500
X010100Y001500
X010888Y001500
X011675Y001500
X012463Y001500
X012750Y018750
X013250Y001500
X013537Y018750
X014325Y018750
X015112Y018750
X019250Y018750
X020037Y018750
X020825Y018750
X021612Y018750
X024425Y001750
X025213Y001750
X026000Y001750
X027888Y001750
X027888Y003500
X028675Y001750
X029463Y001750
X029463Y003500
X028675Y003500
X030250Y001750
X030250Y003500
X044250Y013425
X044250Y014213
X044250Y015000
T4C0.0433F200S100
X001750Y007500
X001750Y008500
X001750Y009500
X002750Y007500
X002750Y008500
X002750Y009500
X029000Y012750
X030000Y012750
X031000Y012750
X036500Y009250
X036500Y010250
X036500Y011250
T2C0.0315F200S100
X004675Y017606
X004675Y018393
X005463Y017606
X005463Y018393
X006250Y017606
X006250Y018393
X007037Y017606
X007037Y018393
X007824Y017606
X007824Y018393
X037500Y001500
X038287Y001500
X039075Y001500
T6C0.1378F200S100
X001968Y001968
X001968Y017716
X044488Y001968
X044488Y017716
M30
