*
G04 Mass Parameters ***
*
G04 Image ***
*
%IND:\00.CAD\00.PROGETTI\METALTRONICA\22-304-X\22-304-2\22-304-2.SST*%
%ICAS*%
%MOIN*%
%IPPOS*%
%ASAXBY*%
G74*%FSLAN2X34Y34*%
*
G04 Aperture Definitions ***
*
%ADD10C,0.2362*%
%ADD11C,0.0394*%
%ADD12R,0.0380X0.0320*%
%ADD13R,0.0197X0.0315*%
%ADD14C,0.1000*%
%ADD15C,0.0709*%
%ADD16R,0.0709X0.0709*%
%ADD17O,0.0620X0.0800*%
%ADD18C,0.0512*%
%ADD19R,0.0787X0.0787*%
%ADD20R,0.0669X0.0669*%
%ADD21C,0.0472*%
%ADD22R,0.0291X0.1610*%
%ADD23C,0.0433*%
%ADD24R,0.0472X0.2165*%
%ADD25R,0.3228X0.1575*%
%ADD26O,0.0800X0.0620*%
%ADD27R,0.0590X0.0590*%
%ADD28C,0.0590*%
%ADD29C,0.0866*%
%ADD30C,0.0669*%
%ADD31R,0.0598X0.1201*%
%ADD32C,0.0610*%
%ADD33R,0.0610X0.0610*%
%ADD34C,0.0787*%
%ADD35O,0.0787X0.1181*%
%ADD36R,0.0710X0.0400*%
%ADD37R,0.0354X0.0512*%
%ADD38C,0.0800*%
%ADD39R,0.0799X0.0799*%
%ADD40C,0.0315*%
%ADD41C,0.0100*%
%ADD42C,0.0150*%
%ADD43C,0.0315*%
%ADD44C,0.0315*%
%ADD45C,0.0300*%
%ADD46C,0.0250*%
%ADD47C,0.0315*%
%ADD48C,0.0500*%
%ADD49C,0.0080*%
%ADD50R,0.0404X0.0501*%
%ADD51R,0.1260X0.0630*%
%ADD52R,0.0320X0.0380*%
%ADD53R,0.0400X0.0710*%
%ADD54R,0.0886X0.0905*%
%ADD55R,0.1024X0.0510*%
%ADD56R,0.0500X0.0400*%
%ADD57R,0.0315X0.0197*%
%ADD58R,0.0550X0.0350*%
%ADD59R,0.0501X0.0404*%
%ADD60R,0.1669X0.1500*%
%ADD61R,0.0905X0.1220*%
%ADD62R,0.0118X0.0472*%
%ADD63R,0.1063X0.1181*%
%ADD64R,0.0413X0.0236*%
%ADD65C,0.0187*%
%ADD66R,0.0400X0.0500*%
%ADD67R,0.0276X0.0197*%
%ADD68R,0.0354X0.0165*%
%ADD69O,0.0650X0.0256*%
%ADD70R,0.0315X0.0236*%
%ADD71R,0.0512X0.0354*%
%ADD72R,0.1181X0.1701*%
%ADD73R,0.0649X0.0177*%
%ADD74R,0.0600X0.1000*%
%ADD75R,0.2760X0.2760*%
%ADD76R,0.4252X0.3701*%
%ADD77R,0.0531X0.1811*%
%ADD78R,0.0236X0.0512*%
%ADD79O,0.0700X0.0110*%
%ADD80R,0.0700X0.0110*%
%ADD81O,0.0110X0.0700*%
%ADD82R,0.0110X0.0700*%
%ADD83R,0.0197X0.0394*%
%ADD84C,0.0050*%
%ADD85C,0.0120*%
%ADD86C,0.0060*%
%ADD87R,0.0492X0.1772*%
%ADD88C,0.0039*%
%ADD89C,0.0079*%
%ADD90C,0.0059*%
%ADD91C,0.0078*%
*
G04 Plot Data ***
*
G54D41*
G01X0042722Y0017638D02*
X0042555D01*
X0042638D02*
Y0018138D01*
X0042555Y0018055D01*
X-0000192Y0014961D02*
Y0015128D01*
Y0015045D02*
X0000308D01*
X0000225Y0015128D01*
X0034292Y0030086D02*
X0034125D01*
X0034208D02*
Y0030586D01*
X0034125Y0030502D01*
X0024492Y0017408D02*
X0024325D01*
X0024408D02*
Y0017908D01*
X0024325Y0017825D01*
X0028092Y0013108D02*
X0027925D01*
X0028008D02*
Y0013608D01*
X0027925Y0013525D01*
X0053562Y0004960D02*
X0053396D01*
X0053479D02*
Y0005460D01*
X0053396Y0005377D01*
X0017582Y0028046D02*
X0017415D01*
X0017498D02*
Y0028546D01*
X0017415Y0028462D01*
X0043175Y-0006992D02*
X0042842D01*
X0043175Y-0007242D02*
Y-0006742D01*
X0042842Y-0007242D02*
Y-0006742D01*
X0042600Y-0007158D02*
X0042558Y-0007242D01*
X0042308D01*
X0042267Y-0007158D01*
Y-0006825D01*
X0042308Y-0006742D01*
X0042558D01*
X0042600Y-0006825D01*
X0042025D02*
X0041983Y-0006742D01*
X0041733D01*
X0041692Y-0006825D01*
Y-0006908D01*
X0041733Y-0006992D01*
X0041983D01*
X0042025Y-0007075D01*
Y-0007158D01*
X0041983Y-0007242D01*
X0041733D01*
X0041692Y-0007158D01*
X0000158Y0006861D02*
Y0007028D01*
Y0006945D02*
X0000658D01*
X0000575Y0007028D01*
X0029792Y0028086D02*
X0029625D01*
X0029708D02*
Y0028586D01*
X0029625Y0028502D01*
X0024042Y0027958D02*
X0023875D01*
X0023958D02*
Y0028458D01*
X0023875Y0028375D01*
X0043033Y-0006092D02*
Y-0005842D01*
X0043200Y-0005592D02*
X0043075Y-0005842D01*
X0042992D01*
X0042867Y-0005592D01*
X0042625Y-0005675D02*
X0042583Y-0005592D01*
X0042333D01*
X0042292Y-0005675D01*
Y-0005758D01*
X0042333Y-0005842D01*
X0042583D01*
X0042625Y-0005925D01*
Y-0006008D01*
X0042583Y-0006092D01*
X0042333D01*
X0042292Y-0006008D01*
X0042050Y-0005675D02*
X0042008Y-0005592D01*
X0041758D01*
X0041717Y-0005675D01*
Y-0005758D01*
X0041758Y-0005842D01*
X0042008D01*
X0042050Y-0005925D01*
Y-0006008D01*
X0042008Y-0006092D01*
X0041758D01*
X0041717Y-0006008D01*
X0041475Y-0005925D02*
X0041142D01*
X0041475Y-0006092D02*
Y-0005842D01*
X0041350Y-0005592D01*
X0041267D01*
X0041142Y-0005842D01*
Y-0006092D01*
X-0000918Y0021448D02*
X-0001085D01*
X-0001002D02*
Y0021948D01*
X-0001085Y0021865D01*
X0012342Y0027958D02*
X0012175D01*
X0012258D02*
Y0028458D01*
X0012175Y0028375D01*
X0039324Y0016426D02*
X0039157D01*
X0039240D02*
Y0016926D01*
X0039157Y0016843D01*
X0046190Y-0006500D02*
Y-0007450D01*
X0046100Y-0006500D02*
Y-0007450D01*
X0046010Y-0006500D02*
Y-0007450D01*
X0045920Y-0006500D02*
Y-0007450D01*
X0045830Y-0006500D02*
Y-0007450D01*
X0045740Y-0006500D02*
Y-0007450D01*
X0045650Y-0006500D02*
Y-0007450D01*
X0045560Y-0006500D02*
Y-0007450D01*
X0045470Y-0006500D02*
Y-0007450D01*
X0045380Y-0006500D02*
Y-0007450D01*
X0045290Y-0006500D02*
Y-0007450D01*
X0045200Y-0006500D02*
Y-0007450D01*
X0045110Y-0006500D02*
Y-0007450D01*
X0045020Y-0006500D02*
Y-0007450D01*
X0044930Y-0006500D02*
Y-0007450D01*
X0044840Y-0006500D02*
Y-0007450D01*
X0044750Y-0006500D02*
Y-0007450D01*
X0044660Y-0006500D02*
Y-0007450D01*
X0044570Y-0006500D02*
Y-0007450D01*
X0044480Y-0006500D02*
Y-0007450D01*
X0044390Y-0006500D02*
Y-0007450D01*
X0044300Y-0006500D02*
Y-0007450D01*
X0044210Y-0006500D02*
Y-0007450D01*
X0044120Y-0006500D02*
Y-0007450D01*
X0044030Y-0006500D02*
Y-0007450D01*
X0043940Y-0006500D02*
Y-0007450D01*
X0043850Y-0006500D02*
Y-0007450D01*
X0043760Y-0006500D02*
Y-0007450D01*
X0043670Y-0006500D02*
Y-0007450D01*
X0043580Y-0006500D02*
Y-0007450D01*
X0043490Y-0006500D02*
Y-0007450D01*
X0050800Y-0006510D02*
X0043450D01*
X0050800Y-0006600D02*
X0043450D01*
X0050800Y-0006690D02*
X0043450D01*
X0050800Y-0006780D02*
X0043450D01*
X0050800Y-0006870D02*
X0043450D01*
X0050800Y-0006960D02*
X0043450D01*
X0050800Y-0007050D02*
X0043450D01*
X0050800Y-0007140D02*
X0043450D01*
X0050800Y-0007230D02*
X0043450D01*
X0050800Y-0007320D02*
X0043450D01*
X0049880Y-0006500D02*
Y-0007450D01*
X0049790Y-0006500D02*
Y-0007450D01*
X0049700Y-0006500D02*
Y-0007450D01*
X0049610Y-0006500D02*
Y-0007450D01*
X0049520Y-0006500D02*
Y-0007450D01*
X0049430Y-0006500D02*
Y-0007450D01*
X0049340Y-0006500D02*
Y-0007450D01*
X0049250Y-0006500D02*
Y-0007450D01*
X0049160Y-0006500D02*
Y-0007450D01*
X0049070Y-0006500D02*
Y-0007450D01*
X0048980Y-0006500D02*
Y-0007450D01*
X0048890Y-0006500D02*
Y-0007450D01*
X0048800Y-0006500D02*
Y-0007450D01*
X0048710Y-0006500D02*
Y-0007450D01*
X0048620Y-0006500D02*
Y-0007450D01*
X0048530Y-0006500D02*
Y-0007450D01*
X0048440Y-0006500D02*
Y-0007450D01*
X0048350Y-0006500D02*
Y-0007450D01*
X0048260Y-0006500D02*
Y-0007450D01*
X0048170Y-0006500D02*
Y-0007450D01*
X0048080Y-0006500D02*
Y-0007450D01*
X0047990Y-0006500D02*
Y-0007450D01*
X0047900Y-0006500D02*
Y-0007450D01*
X0047810Y-0006500D02*
Y-0007450D01*
X0047720Y-0006500D02*
Y-0007450D01*
X0047630Y-0006500D02*
Y-0007450D01*
X0047540Y-0006500D02*
Y-0007450D01*
X0047450Y-0006500D02*
Y-0007450D01*
X0047360Y-0006500D02*
Y-0007450D01*
X0047270Y-0006500D02*
Y-0007450D01*
X0047180Y-0006500D02*
Y-0007450D01*
X0047090Y-0006500D02*
Y-0007450D01*
X0047000Y-0006500D02*
Y-0007450D01*
X0046910Y-0006500D02*
Y-0007450D01*
X0046820Y-0006500D02*
Y-0007450D01*
X0046730Y-0006500D02*
Y-0007450D01*
X0046640Y-0006500D02*
Y-0007450D01*
X0046550Y-0006500D02*
Y-0007450D01*
X0046460Y-0006500D02*
Y-0007450D01*
X0046370Y-0006500D02*
Y-0007450D01*
X0046280Y-0006500D02*
Y-0007450D01*
X0050800Y-0007410D02*
X0043450D01*
X0050800Y-0007450D02*
X0043450D01*
X0050800Y-0006500D02*
Y-0007450D01*
Y-0006500D02*
X0043450D01*
Y-0007450D01*
X0050780Y-0006500D02*
Y-0007450D01*
X0050690Y-0006500D02*
Y-0007450D01*
X0050600Y-0006500D02*
Y-0007450D01*
X0050510Y-0006500D02*
Y-0007450D01*
X0050420Y-0006500D02*
Y-0007450D01*
X0050330Y-0006500D02*
Y-0007450D01*
X0050240Y-0006500D02*
Y-0007450D01*
X0050150Y-0006500D02*
Y-0007450D01*
X0050060Y-0006500D02*
Y-0007450D01*
X0049970Y-0006500D02*
Y-0007450D01*
X0046190Y-0005300D02*
Y-0006250D01*
X0046100Y-0005300D02*
Y-0006250D01*
X0046010Y-0005300D02*
Y-0006250D01*
X0045920Y-0005300D02*
Y-0006250D01*
X0045830Y-0005300D02*
Y-0006250D01*
X0045740Y-0005300D02*
Y-0006250D01*
X0045650Y-0005300D02*
Y-0006250D01*
X0045560Y-0005300D02*
Y-0006250D01*
X0045470Y-0005300D02*
Y-0006250D01*
X0045380Y-0005300D02*
Y-0006250D01*
X0045290Y-0005300D02*
Y-0006250D01*
X0045200Y-0005300D02*
Y-0006250D01*
X0045110Y-0005300D02*
Y-0006250D01*
X0045020Y-0005300D02*
Y-0006250D01*
X0044930Y-0005300D02*
Y-0006250D01*
X0044840Y-0005300D02*
Y-0006250D01*
X0044750Y-0005300D02*
Y-0006250D01*
X0044660Y-0005300D02*
Y-0006250D01*
X0044570Y-0005300D02*
Y-0006250D01*
X0044480Y-0005300D02*
Y-0006250D01*
X0044390Y-0005300D02*
Y-0006250D01*
X0044300Y-0005300D02*
Y-0006250D01*
X0044210Y-0005300D02*
Y-0006250D01*
X0044120Y-0005300D02*
Y-0006250D01*
X0044030Y-0005300D02*
Y-0006250D01*
X0043940Y-0005300D02*
Y-0006250D01*
X0043850Y-0005300D02*
Y-0006250D01*
X0043760Y-0005300D02*
Y-0006250D01*
X0043670Y-0005300D02*
Y-0006250D01*
X0043580Y-0005300D02*
Y-0006250D01*
X0043490Y-0005300D02*
Y-0006250D01*
X0050800Y-0005310D02*
X0043450D01*
X0050800Y-0005400D02*
X0043450D01*
X0050800Y-0005490D02*
X0043450D01*
X0050800Y-0005580D02*
X0043450D01*
X0050800Y-0005670D02*
X0043450D01*
X0050800Y-0005760D02*
X0043450D01*
X0050800Y-0005850D02*
X0043450D01*
X0050800Y-0005940D02*
X0043450D01*
X0050800Y-0006030D02*
X0043450D01*
X0050800Y-0006120D02*
X0043450D01*
X0049880Y-0005300D02*
Y-0006250D01*
X0049790Y-0005300D02*
Y-0006250D01*
X0049700Y-0005300D02*
Y-0006250D01*
X0049610Y-0005300D02*
Y-0006250D01*
X0049520Y-0005300D02*
Y-0006250D01*
X0049430Y-0005300D02*
Y-0006250D01*
X0049340Y-0005300D02*
Y-0006250D01*
X0049250Y-0005300D02*
Y-0006250D01*
X0049160Y-0005300D02*
Y-0006250D01*
X0049070Y-0005300D02*
Y-0006250D01*
X0048980Y-0005300D02*
Y-0006250D01*
X0048890Y-0005300D02*
Y-0006250D01*
X0048800Y-0005300D02*
Y-0006250D01*
X0048710Y-0005300D02*
Y-0006250D01*
X0048620Y-0005300D02*
Y-0006250D01*
X0048530Y-0005300D02*
Y-0006250D01*
X0048440Y-0005300D02*
Y-0006250D01*
X0048350Y-0005300D02*
Y-0006250D01*
X0048260Y-0005300D02*
Y-0006250D01*
X0048170Y-0005300D02*
Y-0006250D01*
X0048080Y-0005300D02*
Y-0006250D01*
X0047990Y-0005300D02*
Y-0006250D01*
X0047900Y-0005300D02*
Y-0006250D01*
X0047810Y-0005300D02*
Y-0006250D01*
X0047720Y-0005300D02*
Y-0006250D01*
X0047630Y-0005300D02*
Y-0006250D01*
X0047540Y-0005300D02*
Y-0006250D01*
X0047450Y-0005300D02*
Y-0006250D01*
X0047360Y-0005300D02*
Y-0006250D01*
X0047270Y-0005300D02*
Y-0006250D01*
X0047180Y-0005300D02*
Y-0006250D01*
X0047090Y-0005300D02*
Y-0006250D01*
X0047000Y-0005300D02*
Y-0006250D01*
X0046910Y-0005300D02*
Y-0006250D01*
X0046820Y-0005300D02*
Y-0006250D01*
X0046730Y-0005300D02*
Y-0006250D01*
X0046640Y-0005300D02*
Y-0006250D01*
X0046550Y-0005300D02*
Y-0006250D01*
X0046460Y-0005300D02*
Y-0006250D01*
X0046370Y-0005300D02*
Y-0006250D01*
X0046280Y-0005300D02*
Y-0006250D01*
X0050800Y-0006210D02*
X0043450D01*
X0050800Y-0006250D02*
X0043450D01*
X0050800Y-0005300D02*
Y-0006250D01*
Y-0005300D02*
X0043450D01*
Y-0006250D01*
X0050780Y-0005300D02*
Y-0006250D01*
X0050690Y-0005300D02*
Y-0006250D01*
X0050600Y-0005300D02*
Y-0006250D01*
X0050510Y-0005300D02*
Y-0006250D01*
X0050420Y-0005300D02*
Y-0006250D01*
X0050330Y-0005300D02*
Y-0006250D01*
X0050240Y-0005300D02*
Y-0006250D01*
X0050150Y-0005300D02*
Y-0006250D01*
X0050060Y-0005300D02*
Y-0006250D01*
X0049970Y-0005300D02*
Y-0006250D01*
G54D49*
G01X0050030Y-0012817D02*
X0049657D01*
X0050030Y-0012283D01*
Y-0012150D01*
X0049983Y-0012017D01*
X0049703D01*
X0049657Y-0012150D01*
X0049450Y-0012417D02*
X0049077D01*
X0048870Y-0012550D02*
X0048497D01*
X0048683Y-0012017D01*
X0048777D01*
Y-0012817D01*
X0048057D02*
X0047963Y-0012683D01*
X0047917Y-0012550D01*
Y-0012283D01*
X0047963Y-0012150D01*
X0048057Y-0012017D01*
X0048150D01*
X0048243Y-0012150D01*
X0048290Y-0012283D01*
Y-0012550D01*
X0048243Y-0012683D01*
X0048150Y-0012817D01*
X0048057D01*
X0047337Y-0012683D02*
X0047430Y-0012817D01*
X0047617D01*
X0047710Y-0012683D01*
Y-0012550D01*
X0047523Y-0012283D01*
X0047710Y-0012017D01*
X0047337D01*
X0047130Y-0012417D02*
X0046757D01*
X0046550Y-0012550D02*
X0046177D01*
X0046363Y-0012017D01*
X0046457D01*
Y-0012817D01*
X0045970D02*
X0045597D01*
X0045970Y-0012283D01*
Y-0012150D01*
X0045923Y-0012017D01*
X0045643D01*
X0045597Y-0012150D01*
G54D86*
G01X0041933Y0015997D02*
X0041840D01*
X0041887D02*
Y0016397D01*
X0041840Y0016330D01*
X0041650Y0015997D02*
X0041557D01*
X0041603D02*
Y0016397D01*
X0041557Y0016330D01*
X0041203Y0016130D02*
Y0016063D01*
X0041227Y0015997D01*
X0041320D01*
X0041343Y0016063D01*
Y0016397D01*
X0041367D02*
X0041273D01*
X0019473Y0023209D02*
Y0023349D01*
X0019539Y0023372D01*
X0019606D01*
X0019673Y0023349D01*
Y0023209D01*
X0019606Y0023185D01*
X0019539D01*
X0019273Y0023279D01*
X0019339Y0023702D02*
X0019273Y0023655D01*
Y0023562D01*
X0019339Y0023515D01*
X0019406D01*
X0019539Y0023609D01*
X0019673Y0023515D01*
Y0023702D01*
X0019473Y0023915D02*
X0019273Y0023845D01*
X0019473Y0024032D02*
Y0023892D01*
X0019539Y0023845D01*
X0019606D01*
X0019673Y0023892D01*
Y0024032D01*
X0019273D01*
X0000660Y0008167D02*
X0000800Y0008567D01*
X0000613D01*
X0000470Y0008167D02*
X0000377D01*
X0000423D02*
Y0008567D01*
X0000377Y0008500D01*
X0000023Y0008300D02*
Y0008233D01*
X0000047Y0008167D01*
X0000140D01*
X0000163Y0008233D01*
Y0008567D01*
X0000187D02*
X0000093D01*
X0027630Y0021333D02*
X0027653Y0021267D01*
X0027793D01*
X0027817Y0021333D01*
Y0021467D01*
X0027770Y0021533D01*
X0027630D01*
Y0021667D01*
X0027817D01*
X0027323Y0021400D02*
Y0021333D01*
X0027347Y0021267D01*
X0027440D01*
X0027463Y0021333D01*
Y0021667D01*
X0027487D02*
X0027393D01*
X0031217Y0016550D02*
X0031030D01*
X0031123Y0016817D01*
X0031170D01*
Y0016417D01*
X0030723Y0016550D02*
Y0016483D01*
X0030747Y0016417D01*
X0030840D01*
X0030863Y0016483D01*
Y0016817D01*
X0030887D02*
X0030793D01*
X0022810Y0027214D02*
X0023210Y0027074D01*
Y0027261D01*
X0022810Y0027404D02*
Y0027591D01*
X0023077Y0027404D01*
X0023144D01*
X0023210Y0027428D01*
Y0027568D01*
X0023144Y0027591D01*
X0023010Y0027804D02*
X0022810Y0027734D01*
X0023010Y0027921D02*
Y0027781D01*
X0023077Y0027734D01*
X0023144D01*
X0023210Y0027781D01*
Y0027921D01*
X0022810D01*
X0026673Y0022039D02*
X0026739Y0022015D01*
X0026806D01*
X0026873Y0022039D01*
Y0022179D01*
X0026806Y0022202D01*
X0026739D01*
X0026673Y0022179D01*
Y0022039D01*
X0026606Y0022015D01*
X0026539D01*
X0026473Y0022039D01*
Y0022179D01*
X0026539Y0022202D01*
X0026606D01*
X0026673Y0022179D01*
X0026539Y0022345D02*
X0026473Y0022369D01*
Y0022509D01*
X0026539Y0022532D01*
X0026806D01*
X0026873Y0022509D01*
Y0022369D01*
X0026806Y0022345D01*
X0024273Y0023085D02*
Y0023272D01*
X0024539Y0023085D01*
X0024606D01*
X0024673Y0023109D01*
Y0023249D01*
X0024606Y0023272D01*
X0024339Y0023602D02*
X0024273Y0023555D01*
Y0023462D01*
X0024339Y0023415D01*
X0024406D01*
X0024539Y0023509D01*
X0024673Y0023415D01*
Y0023602D01*
X0024473Y0023815D02*
X0024273Y0023745D01*
X0024473Y0023932D02*
Y0023792D01*
X0024539Y0023745D01*
X0024606D01*
X0024673Y0023792D01*
Y0023932D01*
X0024273D01*
X0052797Y0003869D02*
X0052657D01*
X0052634Y0003935D01*
Y0004002D01*
X0052657Y0004069D01*
X0052797D01*
X0052821Y0004002D01*
Y0003935D01*
X0052727Y0003669D01*
X0052491D02*
X0052397D01*
X0052444D02*
Y0004069D01*
X0052397Y0004002D01*
X0052044Y0003802D02*
Y0003735D01*
X0052067Y0003669D01*
X0052161D01*
X0052184Y0003735D01*
Y0004069D01*
X0052207D02*
X0052114D01*
X0036564Y0026567D02*
X0036497Y0026544D01*
Y0026404D01*
X0036564Y0026381D01*
X0036697D01*
X0036764Y0026427D01*
Y0026567D01*
X0036897D01*
Y0026381D01*
Y0026711D02*
X0036564D01*
X0036497Y0026734D01*
Y0026874D01*
X0036564Y0026897D01*
X0036897D01*
X0023019Y0023656D02*
Y0023516D01*
X0022952Y0023493D01*
X0022885D01*
X0022819Y0023516D01*
Y0023656D01*
X0022885Y0023680D01*
X0022952D01*
X0023219Y0023586D01*
X0022819Y0023986D02*
X0023219D01*
X0022819Y0024010D02*
Y0023870D01*
X0022952Y0023823D01*
X0023085D01*
X0023219Y0023870D01*
Y0024010D01*
X0019430Y0031461D02*
X0019477Y0031394D01*
X0019570D01*
X0019617Y0031461D01*
Y0031527D01*
X0019523Y0031661D01*
X0019617Y0031794D01*
X0019430D01*
X0019123Y0031527D02*
Y0031461D01*
X0019147Y0031394D01*
X0019240D01*
X0019263Y0031461D01*
Y0031794D01*
X0019287D02*
X0019193D01*
X0021786Y0023303D02*
Y0023396D01*
Y0023349D02*
X0022186D01*
X0022119Y0023396D01*
X0021786Y0023586D02*
Y0023679D01*
Y0023633D02*
X0022186D01*
X0022119Y0023679D01*
X0022186Y0023869D02*
X0021853D01*
X0021786Y0023893D01*
Y0024033D01*
X0021853Y0024056D01*
X0022186D01*
X0039064Y0026587D02*
X0038997Y0026541D01*
Y0026447D01*
X0039064Y0026401D01*
X0039130D01*
X0039264Y0026494D01*
X0039397Y0026401D01*
Y0026587D01*
X0039064Y0026917D02*
X0038997Y0026871D01*
Y0026777D01*
X0039064Y0026731D01*
X0039130D01*
X0039264Y0026824D01*
X0039397Y0026731D01*
Y0026917D01*
Y0027061D02*
X0039064D01*
X0038997Y0027084D01*
Y0027224D01*
X0039064Y0027247D01*
X0039397D01*
X0001767Y0005126D02*
X0001833Y0005103D01*
X0001900D01*
X0001967Y0005126D01*
Y0005266D01*
X0001900Y0005290D01*
X0001833D01*
X0001767Y0005266D01*
Y0005126D01*
X0001700Y0005103D01*
X0001633D01*
X0001567Y0005126D01*
Y0005266D01*
X0001633Y0005290D01*
X0001700D01*
X0001767Y0005266D01*
X0001567Y0005433D02*
Y0005526D01*
Y0005480D02*
X0001967D01*
X0001900Y0005526D01*
X0001700Y0005880D02*
X0001633D01*
X0001567Y0005856D01*
Y0005763D01*
X0001633Y0005740D01*
X0001967D01*
Y0005716D02*
Y0005810D01*
X0027986Y0025823D02*
X0028053Y0025869D01*
X0028119Y0025893D01*
X0028253D01*
X0028319Y0025869D01*
X0028386Y0025823D01*
Y0025776D01*
X0028319Y0025729D01*
X0028253Y0025706D01*
X0028119D01*
X0028053Y0025729D01*
X0027986Y0025776D01*
Y0025823D01*
Y0026036D02*
Y0026129D01*
Y0026083D02*
X0028386D01*
X0028319Y0026129D01*
X0028386Y0026319D02*
X0028053D01*
X0027986Y0026343D01*
Y0026483D01*
X0028053Y0026506D01*
X0028386D01*
X0018439Y0023200D02*
X0018505Y0023177D01*
X0018572D01*
X0018639Y0023200D01*
Y0023340D01*
X0018572Y0023364D01*
X0018505D01*
X0018439Y0023340D01*
Y0023200D01*
X0018372Y0023177D01*
X0018305D01*
X0018239Y0023200D01*
Y0023340D01*
X0018305Y0023364D01*
X0018372D01*
X0018439Y0023340D01*
X0018305Y0023694D02*
X0018239Y0023647D01*
Y0023554D01*
X0018305Y0023507D01*
X0018372D01*
X0018505Y0023600D01*
X0018639Y0023507D01*
Y0023694D01*
X0018439Y0023907D02*
X0018239Y0023837D01*
X0018439Y0024024D02*
Y0023884D01*
X0018505Y0023837D01*
X0018572D01*
X0018639Y0023884D01*
Y0024024D01*
X0018239D01*
X0029164Y0025884D02*
X0029097Y0025861D01*
Y0025721D01*
X0029164Y0025697D01*
X0029297D01*
X0029364Y0025744D01*
Y0025884D01*
X0029497D01*
Y0025697D01*
X0029097Y0026027D02*
Y0026121D01*
Y0026074D02*
X0029497D01*
X0029430Y0026121D01*
X0029497Y0026311D02*
X0029164D01*
X0029097Y0026334D01*
Y0026474D01*
X0029164Y0026497D01*
X0029497D01*
X0031367Y0031494D02*
X0031180D01*
X0031367Y0031761D01*
Y0031827D01*
X0031343Y0031894D01*
X0031203D01*
X0031180Y0031827D01*
X0030873Y0031627D02*
Y0031561D01*
X0030897Y0031494D01*
X0030990D01*
X0031013Y0031561D01*
Y0031894D01*
X0031037D02*
X0030943D01*
X0028135Y0023680D02*
X0028069Y0023656D01*
Y0023516D01*
X0028135Y0023493D01*
X0028269D01*
X0028335Y0023540D01*
Y0023680D01*
X0028469D01*
Y0023493D01*
X0028069Y0023986D02*
X0028469D01*
X0028069Y0024010D02*
Y0023870D01*
X0028202Y0023823D01*
X0028335D01*
X0028469Y0023870D01*
Y0024010D01*
X0037863Y0031403D02*
X0037910Y0031337D01*
X0038003D01*
X0038050Y0031403D01*
Y0031470D01*
X0037956Y0031603D01*
X0038050Y0031737D01*
X0037863D01*
X0037720Y0031337D02*
X0037626D01*
X0037673D02*
Y0031737D01*
X0037626Y0031670D01*
X0037273Y0031470D02*
Y0031403D01*
X0037296Y0031337D01*
X0037390D01*
X0037413Y0031403D01*
Y0031737D01*
X0037436D02*
X0037343D01*
X0023710Y0025498D02*
Y0025638D01*
X0023777Y0025661D01*
X0023844D01*
X0023910Y0025638D01*
Y0025498D01*
X0023844Y0025474D01*
X0023777D01*
X0023510Y0025568D01*
Y0025804D02*
Y0025991D01*
X0023777Y0025804D01*
X0023844D01*
X0023910Y0025828D01*
Y0025968D01*
X0023844Y0025991D01*
X0023710Y0026204D02*
X0023510Y0026134D01*
X0023710Y0026321D02*
Y0026181D01*
X0023777Y0026134D01*
X0023844D01*
X0023910Y0026181D01*
Y0026321D01*
X0023510D01*
X0020497Y0023321D02*
Y0023461D01*
X0020564Y0023484D01*
X0020630D01*
X0020697Y0023461D01*
Y0023321D01*
X0020630Y0023297D01*
X0020564D01*
X0020297Y0023391D01*
Y0023627D02*
Y0023721D01*
Y0023674D02*
X0020697D01*
X0020630Y0023721D01*
X0020697Y0023911D02*
X0020364D01*
X0020297Y0023934D01*
Y0024074D01*
X0020364Y0024097D01*
X0020697D01*
X0025863Y0031483D02*
X0025887Y0031417D01*
X0026027D01*
X0026050Y0031483D01*
Y0031617D01*
X0026003Y0031683D01*
X0025863D01*
Y0031817D01*
X0026050D01*
X0025720Y0031417D02*
X0025627D01*
X0025673D02*
Y0031817D01*
X0025627Y0031750D01*
X0025273Y0031550D02*
Y0031483D01*
X0025297Y0031417D01*
X0025390D01*
X0025413Y0031483D01*
Y0031817D01*
X0025437D02*
X0025343D01*
X0032686Y0025713D02*
X0032753Y0025689D01*
X0032819D01*
X0032886Y0025713D01*
Y0025853D01*
X0032819Y0025876D01*
X0032753D01*
X0032686Y0025853D01*
Y0025713D01*
X0032619Y0025689D01*
X0032553D01*
X0032486Y0025713D01*
Y0025853D01*
X0032553Y0025876D01*
X0032619D01*
X0032686Y0025853D01*
X0032886Y0026019D02*
X0032553D01*
X0032486Y0026043D01*
Y0026183D01*
X0032553Y0026206D01*
X0032886D01*
X0026473Y0023189D02*
Y0023375D01*
X0026739Y0023189D01*
X0026806D01*
X0026873Y0023212D01*
Y0023352D01*
X0026806Y0023375D01*
X0026473Y0023519D02*
Y0023682D01*
X0026873D01*
X0020363Y0014244D02*
X0020270D01*
X0020317D02*
Y0014644D01*
X0020270Y0014577D01*
X0021883Y0016444D02*
X0021837Y0016511D01*
X0021813Y0016577D01*
Y0016711D01*
X0021837Y0016777D01*
X0021883Y0016844D01*
X0021930D01*
X0021977Y0016777D01*
X0022000Y0016711D01*
Y0016577D01*
X0021977Y0016511D01*
X0021930Y0016444D01*
X0021883D01*
X0021670D02*
X0021577D01*
X0021623D02*
Y0016844D01*
X0021577Y0016777D01*
X0021223Y0016577D02*
Y0016511D01*
X0021247Y0016444D01*
X0021340D01*
X0021363Y0016511D01*
Y0016844D01*
X0021387D02*
X0021293D01*
X0032114Y0022570D02*
X0032181Y0022617D01*
Y0022710D01*
X0032114Y0022757D01*
X0032048D01*
X0031914Y0022663D01*
X0031781Y0022757D01*
Y0022570D01*
X0032181Y0022263D02*
X0031781D01*
X0032181Y0022240D02*
Y0022380D01*
X0032048Y0022427D01*
X0031914D01*
X0031781Y0022380D01*
Y0022240D01*
X0017718Y0020786D02*
X0017531D01*
X0017718Y0021053D01*
Y0021119D01*
X0017694Y0021186D01*
X0017554D01*
X0017531Y0021119D01*
X0017388Y0020786D02*
X0017294D01*
X0017341D02*
Y0021186D01*
X0017294Y0021119D01*
X0016941Y0020919D02*
Y0020853D01*
X0016964Y0020786D01*
X0017058D01*
X0017081Y0020853D01*
Y0021186D01*
X0017104D02*
X0017011D01*
X0014795Y0018740D02*
X0014702D01*
X0014748D02*
Y0019140D01*
X0014702Y0019074D01*
X0039984Y0027600D02*
X0040031Y0027533D01*
X0040124D01*
X0040171Y0027600D01*
Y0027667D01*
X0040078Y0027800D01*
X0040171Y0027933D01*
X0039984D01*
X0039841Y0027533D02*
X0039748D01*
X0039794D02*
Y0027933D01*
X0039748Y0027867D01*
X0039394Y0027533D02*
Y0027933D01*
X0039371Y0027533D02*
X0039511D01*
X0039558Y0027667D01*
Y0027800D01*
X0039511Y0027933D01*
X0039371D01*
X0041747Y0026474D02*
Y0026614D01*
X0041814Y0026637D01*
X0041880D01*
X0041947Y0026614D01*
Y0026474D01*
X0041880Y0026451D01*
X0041814D01*
X0041547Y0026544D01*
Y0026781D02*
Y0026967D01*
X0041814Y0026781D01*
X0041880D01*
X0041947Y0026804D01*
Y0026944D01*
X0041880Y0026967D01*
X0041947Y0027111D02*
X0041614D01*
X0041547Y0027134D01*
Y0027274D01*
X0041614Y0027297D01*
X0041947D01*
X0033719Y0027356D02*
Y0027543D01*
X0033986Y0027449D01*
Y0027403D01*
X0033586D01*
Y0027686D02*
Y0027779D01*
Y0027733D02*
X0033986D01*
X0033919Y0027779D01*
X0033986Y0027969D02*
X0033653D01*
X0033586Y0027993D01*
Y0028133D01*
X0033653Y0028156D01*
X0033986D01*
X0000543Y0022817D02*
X0000567Y0022883D01*
Y0022950D01*
X0000543Y0023017D01*
X0000403D01*
X0000380Y0022950D01*
Y0022883D01*
X0000403Y0022817D01*
X0000543D01*
X0000567Y0022750D01*
Y0022683D01*
X0000543Y0022617D01*
X0000403D01*
X0000380Y0022683D01*
Y0022750D01*
X0000403Y0022817D01*
X0000073Y0022750D02*
Y0022683D01*
X0000097Y0022617D01*
X0000190D01*
X0000213Y0022683D01*
Y0023017D01*
X0000237D02*
X0000143D01*
X0037131Y0027583D02*
X0037271Y0027983D01*
X0037084D01*
X0036941Y0027583D02*
X0036848D01*
X0036894D02*
Y0027983D01*
X0036848Y0027917D01*
X0036494Y0027583D02*
Y0027983D01*
X0036471Y0027583D02*
X0036611D01*
X0036658Y0027717D01*
Y0027850D01*
X0036611Y0027983D01*
X0036471D01*
X0037526Y0025472D02*
X0037339D01*
X0037526Y0025739D01*
Y0025805D01*
X0037503Y0025872D01*
X0037363D01*
X0037339Y0025805D01*
X0037173Y0025672D02*
X0037196Y0025739D01*
Y0025805D01*
X0037173Y0025872D01*
X0037033D01*
X0037009Y0025805D01*
Y0025739D01*
X0037033Y0025672D01*
X0037173D01*
X0037196Y0025605D01*
Y0025539D01*
X0037173Y0025472D01*
X0037033D01*
X0037009Y0025539D01*
Y0025605D01*
X0037033Y0025672D01*
X0036796D02*
X0036866Y0025472D01*
X0036679Y0025672D02*
X0036819D01*
X0036866Y0025739D01*
Y0025805D01*
X0036819Y0025872D01*
X0036679D01*
Y0025472D01*
X0034519Y0025683D02*
X0034919Y0025543D01*
Y0025730D01*
X0034519Y0026036D02*
X0034919D01*
X0034519Y0026060D02*
Y0025920D01*
X0034652Y0025873D01*
X0034785D01*
X0034919Y0025920D01*
Y0026060D01*
X0024664Y0025884D02*
X0024597Y0025837D01*
Y0025744D01*
X0024664Y0025697D01*
X0024730D01*
X0024864Y0025791D01*
X0024997Y0025697D01*
Y0025884D01*
X0024597Y0026027D02*
Y0026121D01*
Y0026074D02*
X0024997D01*
X0024930Y0026121D01*
X0024997Y0026311D02*
X0024664D01*
X0024597Y0026334D01*
Y0026474D01*
X0024664Y0026497D01*
X0024997D01*
X0039953Y0025672D02*
X0039813D01*
X0039789Y0025739D01*
Y0025805D01*
X0039813Y0025872D01*
X0039953D01*
X0039976Y0025805D01*
Y0025739D01*
X0039883Y0025472D01*
X0039483Y0025672D02*
X0039623D01*
X0039646Y0025605D01*
Y0025539D01*
X0039623Y0025472D01*
X0039483D01*
X0039459Y0025539D01*
Y0025605D01*
X0039553Y0025872D01*
X0039246Y0025672D02*
X0039316Y0025472D01*
X0039129Y0025672D02*
X0039269D01*
X0039316Y0025739D01*
Y0025805D01*
X0039269Y0025872D01*
X0039129D01*
Y0025472D01*
X0028839Y0023322D02*
X0028773Y0023299D01*
Y0023159D01*
X0028839Y0023135D01*
X0028973D01*
X0029039Y0023182D01*
Y0023322D01*
X0029173D01*
Y0023135D01*
X0028839Y0023652D02*
X0028773Y0023605D01*
Y0023512D01*
X0028839Y0023465D01*
X0028906D01*
X0029039Y0023559D01*
X0029173Y0023465D01*
Y0023652D01*
X0028973Y0023865D02*
X0028773Y0023795D01*
X0028973Y0023982D02*
Y0023842D01*
X0029039Y0023795D01*
X0029106D01*
X0029173Y0023842D01*
Y0023982D01*
X0028773D01*
X0016336Y0025329D02*
X0016403Y0025306D01*
X0016469D01*
X0016536Y0025329D01*
Y0025469D01*
X0016469Y0025493D01*
X0016403D01*
X0016336Y0025469D01*
Y0025329D01*
X0016269Y0025306D01*
X0016203D01*
X0016136Y0025329D01*
Y0025469D01*
X0016203Y0025493D01*
X0016269D01*
X0016336Y0025469D01*
X0016136Y0025636D02*
Y0025729D01*
Y0025683D02*
X0016536D01*
X0016469Y0025729D01*
X0016536Y0025919D02*
X0016203D01*
X0016136Y0025943D01*
Y0026083D01*
X0016203Y0026106D01*
X0016536D01*
X0026770Y0039167D02*
X0026677D01*
X0026723D02*
Y0039567D01*
X0026677Y0039500D01*
X0026323Y0039300D02*
Y0039233D01*
X0026347Y0039167D01*
X0026440D01*
X0026463Y0039233D01*
Y0039567D01*
X0026487D02*
X0026393D01*
X0041975Y0012315D02*
X0042115Y0012715D01*
X0041928D01*
X0041621Y0012448D02*
Y0012381D01*
X0041645Y0012315D01*
X0041738D01*
X0041761Y0012381D01*
Y0012715D01*
X0041785D02*
X0041691D01*
X0014250Y0031550D02*
X0014063D01*
X0014157Y0031817D01*
X0014203D01*
Y0031417D01*
X0013920D02*
X0013827D01*
X0013873D02*
Y0031817D01*
X0013827Y0031750D01*
X0013473Y0031550D02*
Y0031483D01*
X0013497Y0031417D01*
X0013590D01*
X0013613Y0031483D01*
Y0031817D01*
X0013637D02*
X0013543D01*
X0019519Y0027016D02*
X0019585Y0026993D01*
X0019652D01*
X0019719Y0027016D01*
Y0027156D01*
X0019652Y0027180D01*
X0019585D01*
X0019519Y0027156D01*
Y0027016D01*
X0019452Y0026993D01*
X0019385D01*
X0019319Y0027016D01*
Y0027156D01*
X0019385Y0027180D01*
X0019452D01*
X0019519Y0027156D01*
X0019319Y0027486D02*
X0019719D01*
X0019319Y0027510D02*
Y0027370D01*
X0019452Y0027323D01*
X0019585D01*
X0019719Y0027370D01*
Y0027510D01*
X0037935Y0016685D02*
X0038075D01*
X0038099Y0016618D01*
Y0016551D01*
X0038075Y0016485D01*
X0037935D01*
X0037912Y0016551D01*
Y0016618D01*
X0038005Y0016885D01*
X0037605Y0016618D02*
Y0016551D01*
X0037629Y0016485D01*
X0037722D01*
X0037745Y0016551D01*
Y0016885D01*
X0037769D02*
X0037675D01*
X0047063Y0016912D02*
Y0016675D01*
X0047151D01*
Y0016498D01*
X0047309D01*
Y0016675D01*
X0047397D01*
Y0016912D01*
X0047309D01*
Y0017089D01*
X0047151D01*
Y0016912D01*
X0047063D01*
X0046809Y0016085D02*
X0046897D01*
Y0016321D01*
X0046809D01*
Y0016498D01*
X0046651D01*
Y0016321D01*
X0046563D01*
Y0016085D01*
X0046651D01*
Y0015908D01*
X0046809D01*
Y0016085D01*
X0046063Y0016912D02*
Y0016675D01*
X0046151D01*
Y0016498D01*
X0046309D01*
Y0016675D01*
X0046397D01*
Y0016912D01*
X0046309D01*
Y0017089D01*
X0046151D01*
Y0016912D01*
X0046063D01*
X0045809Y0016085D02*
X0045897D01*
Y0016321D01*
X0045809D01*
Y0016498D01*
X0045651D01*
Y0016321D01*
X0045563D01*
Y0016085D01*
X0045651D01*
Y0015908D01*
X0045809D01*
Y0016085D01*
X0045063Y0016912D02*
Y0016675D01*
X0045151D01*
Y0016498D01*
X0045309D01*
Y0016675D01*
X0045397D01*
Y0016912D01*
X0045309D01*
Y0017089D01*
X0045151D01*
Y0016912D01*
X0045063D01*
X0044809Y0016085D02*
X0044897D01*
Y0016321D01*
X0044809D01*
Y0016498D01*
X0044651D01*
Y0016321D01*
X0044563D01*
Y0016085D01*
X0044651D01*
Y0015908D01*
X0044809D01*
Y0016085D01*
X0044063Y0016912D02*
Y0016675D01*
X0044151D01*
Y0016498D01*
X0044309D01*
Y0016675D01*
X0044397D01*
Y0016912D01*
X0044309D01*
Y0017089D01*
X0044151D01*
Y0016912D01*
X0044063D01*
X0043809Y0016085D02*
X0043897D01*
Y0016321D01*
X0043809D01*
Y0016498D01*
X0043651D01*
Y0016321D01*
X0043563D01*
Y0016085D01*
X0043651D01*
Y0015908D01*
X0043809D01*
Y0016085D01*
X0043063Y0016912D02*
Y0016675D01*
X0043151D01*
Y0016498D01*
X0043309D01*
Y0016675D01*
X0043397D01*
Y0016912D01*
X0043309D01*
Y0017089D01*
X0043151D01*
Y0016912D01*
X0043063D01*
X0053761Y0017256D02*
Y0015740D01*
X0053683Y0015737D01*
Y0016105D01*
X0053490D01*
Y0016301D01*
X0053683D01*
Y0016695D01*
X0053490D01*
Y0016892D01*
X0053683D01*
Y0017259D01*
X0053761Y0017256D01*
X0053860D01*
X0053360Y0015986D02*
X0053478D01*
Y0015514D01*
X0053360D01*
Y0017482D01*
X0042876Y0017256D02*
X0053084D01*
Y0017286D01*
X0052545D01*
Y0017482D01*
X0052415Y0015514D02*
X0052045D01*
X0051415D02*
Y0015711D01*
X0051045D01*
Y0015514D01*
X0050415D02*
Y0015711D01*
X0050045D01*
Y0015514D01*
X0049415D02*
Y0015711D01*
X0049045D01*
Y0015514D01*
X0048415D02*
Y0015711D01*
X0048045D01*
Y0015514D01*
X0047415D02*
Y0015711D01*
X0047045D01*
Y0015514D01*
X0046415D02*
Y0015711D01*
X0046045D01*
Y0015514D01*
X0045415D02*
Y0015711D01*
X0045045D01*
Y0015514D01*
X0042100Y0017286D02*
X0042277D01*
Y0017482D01*
X0042100D01*
Y0017286D01*
Y0017256D01*
Y0015740D01*
Y0015711D01*
Y0015514D01*
X0042277D01*
X0042395D01*
X0042482D01*
X0042600D01*
X0043415D01*
X0044045Y0015701D02*
X0043415D01*
X0045045D02*
X0044415D01*
X0046045D02*
X0045415D01*
X0047045D02*
X0046415D01*
X0048045D02*
X0047415D01*
X0049045D02*
X0048415D01*
X0050045D02*
X0049415D01*
X0051045D02*
X0050415D01*
X0052045D02*
X0051415D01*
X0053045D02*
X0052415D01*
X0042277Y0015737D02*
X0042198Y0015740D01*
Y0017256D01*
X0042277Y0017259D01*
Y0016892D01*
X0042470D01*
Y0016695D01*
X0042277D01*
Y0016301D01*
X0042470D01*
Y0016105D01*
X0042277D01*
Y0015737D01*
Y0015711D01*
Y0015514D01*
X0050915Y0017296D02*
X0051545D01*
X0049915D02*
X0050545D01*
X0048915D02*
X0049545D01*
X0047915D02*
X0048545D01*
X0046915D02*
X0047545D01*
X0045915D02*
X0046545D01*
X0044915D02*
X0045545D01*
X0043915D02*
X0044545D01*
X0042915D02*
X0043545D01*
X0051915D02*
X0052545D01*
X0052779Y0017482D02*
Y0017544D01*
X0052681D01*
Y0017482D01*
X0044279Y0015514D02*
Y0015451D01*
X0044181D01*
Y0015514D01*
X0045279D02*
Y0015451D01*
X0045181D01*
Y0015514D01*
X0046279D02*
Y0015451D01*
X0046181D01*
Y0015514D01*
X0047279D02*
Y0015451D01*
X0047181D01*
Y0015514D01*
X0048279D02*
Y0015451D01*
X0048181D01*
Y0015514D01*
X0049279D02*
Y0015451D01*
X0049181D01*
Y0015514D01*
X0050279D02*
Y0015451D01*
X0050181D01*
Y0015514D01*
X0051279D02*
Y0015451D01*
X0051181D01*
Y0015514D01*
X0052279D02*
Y0015451D01*
X0052181D01*
Y0015514D01*
X0051779Y0017482D02*
Y0017544D01*
X0051681D01*
Y0017482D01*
X0050779D02*
Y0017544D01*
X0050681D01*
Y0017482D01*
X0049779D02*
Y0017544D01*
X0049681D01*
Y0017482D01*
X0048779D02*
Y0017544D01*
X0048681D01*
Y0017482D01*
X0047779D02*
Y0017544D01*
X0047681D01*
Y0017482D01*
X0046779D02*
Y0017544D01*
X0046681D01*
Y0017482D01*
X0045779D02*
Y0017544D01*
X0045681D01*
Y0017482D01*
X0044779D02*
Y0017544D01*
X0044681D01*
Y0017482D01*
X0043779D02*
Y0017544D01*
X0043681D01*
Y0017482D01*
X0052779Y0015190D02*
X0052681D01*
X0043181Y0017796D02*
Y0017609D01*
X0043279Y0015514D02*
Y0015451D01*
X0043181D01*
Y0015514D01*
X0044181Y0017796D02*
Y0017609D01*
X0045181Y0017796D02*
Y0017609D01*
X0046181Y0017796D02*
Y0017609D01*
X0047181Y0017796D02*
Y0017609D01*
X0048181Y0017796D02*
Y0017609D01*
X0049181Y0017796D02*
Y0017609D01*
X0050181Y0017796D02*
Y0017609D01*
X0051181Y0017796D02*
Y0017609D01*
X0052181Y0017796D02*
Y0017609D01*
X0053683Y0015986D02*
X0053565D01*
Y0015514D01*
X0053478D01*
X0042395D02*
Y0015986D01*
X0042277D01*
X0042395Y0017482D02*
X0042482D01*
Y0017010D01*
X0042395D01*
Y0017482D01*
X0042277D01*
X0042395Y0017010D02*
X0042277D01*
X0042482Y0015514D02*
Y0015986D01*
X0042395D01*
X0042876D02*
X0042600D01*
X0042482D01*
X0042915Y0017482D02*
X0042600D01*
X0042482D01*
X0042600D02*
Y0017010D01*
X0042482D01*
X0053360D02*
X0053478D01*
Y0017482D01*
X0053565D02*
Y0017010D01*
X0053478D01*
X0053565Y0015514D02*
X0053683D01*
X0053565Y0017010D02*
X0053683D01*
X0053478Y0015986D02*
X0053565D01*
X0053084Y0017256D02*
Y0015740D01*
X0053360Y0015514D02*
X0053045D01*
X0042600D02*
Y0015986D01*
X0042876Y0017010D02*
X0042600D01*
X0053860Y0017286D02*
X0053683D01*
Y0017482D01*
X0053761Y0015740D02*
X0053860D01*
X0053683Y0015711D02*
Y0015737D01*
X0042100Y0015740D02*
X0042198D01*
X0042277Y0015711D02*
X0042100D01*
X0053683Y0017259D02*
Y0017286D01*
X0042198Y0017256D02*
X0042100D01*
X0042277Y0017286D02*
Y0017259D01*
X0052681Y0015373D02*
Y0015190D01*
Y0015134D01*
X0052779D01*
Y0015190D01*
Y0015373D01*
Y0015429D01*
X0052681D01*
Y0015373D01*
X0052779D01*
Y0015429D01*
Y0015514D01*
X0052681Y0015429D02*
Y0015514D01*
X0043279Y0017609D02*
Y0017553D01*
Y0017482D01*
Y0017553D01*
X0043181D01*
Y0017609D01*
X0043279D01*
Y0017796D01*
X0043181D01*
Y0017852D01*
Y0017858D01*
X0043279D01*
Y0017852D01*
X0043181D01*
X0043279D02*
Y0017796D01*
X0043181Y0017553D02*
Y0017482D01*
X0044279Y0017609D02*
Y0017553D01*
Y0017482D01*
Y0017553D01*
X0044181D01*
Y0017482D01*
Y0017553D01*
Y0017609D01*
X0044279D01*
Y0017796D01*
X0044181D01*
Y0017852D01*
Y0017858D01*
X0044279D01*
Y0017852D01*
X0044181D01*
X0044279D02*
Y0017796D01*
X0045279Y0017609D02*
Y0017553D01*
Y0017482D01*
Y0017553D01*
X0045181D01*
Y0017482D01*
Y0017553D01*
Y0017609D01*
X0045279D01*
Y0017796D01*
X0045181D01*
Y0017852D01*
Y0017858D01*
X0045279D01*
Y0017852D01*
X0045181D01*
X0045279D02*
Y0017796D01*
X0046279Y0017609D02*
Y0017553D01*
Y0017482D01*
Y0017553D01*
X0046181D01*
Y0017482D01*
Y0017553D01*
Y0017609D01*
X0046279D01*
Y0017796D01*
X0046181D01*
Y0017852D01*
Y0017858D01*
X0046279D01*
Y0017852D01*
X0046181D01*
X0046279D02*
Y0017796D01*
X0047279Y0017609D02*
Y0017553D01*
Y0017482D01*
Y0017553D01*
X0047181D01*
Y0017482D01*
Y0017553D01*
Y0017609D01*
X0047279D01*
Y0017796D01*
X0047181D01*
Y0017852D01*
Y0017858D01*
X0047279D01*
Y0017852D01*
X0047181D01*
X0047279D02*
Y0017796D01*
X0048279Y0017609D02*
Y0017553D01*
Y0017482D01*
Y0017553D01*
X0048181D01*
Y0017482D01*
Y0017553D01*
Y0017609D01*
X0048279D01*
Y0017796D01*
X0048181D01*
Y0017852D01*
Y0017858D01*
X0048279D01*
Y0017852D01*
X0048181D01*
X0048279D02*
Y0017796D01*
X0049181Y0017852D02*
X0049279D01*
Y0017858D01*
X0049181D01*
Y0017852D01*
Y0017796D01*
X0049279D01*
Y0017609D01*
X0049181D01*
Y0017553D01*
Y0017482D01*
X0049279Y0017852D02*
Y0017796D01*
X0049181Y0017553D02*
X0049279D01*
Y0017482D01*
Y0017553D01*
Y0017609D01*
X0050181Y0017852D02*
X0050279D01*
Y0017858D01*
X0050181D01*
Y0017852D01*
Y0017796D01*
X0050279D01*
Y0017609D01*
X0050181D01*
Y0017553D01*
Y0017482D01*
X0050279Y0017852D02*
Y0017796D01*
X0050181Y0017553D02*
X0050279D01*
Y0017482D01*
Y0017553D01*
Y0017609D01*
X0051279D02*
Y0017553D01*
Y0017482D01*
Y0017553D01*
X0051181D01*
Y0017609D01*
X0051279D01*
Y0017796D01*
X0051181D01*
Y0017852D01*
Y0017858D01*
X0051279D01*
Y0017852D01*
X0051181D01*
X0051279D02*
Y0017796D01*
X0052279Y0017609D02*
Y0017553D01*
Y0017482D01*
Y0017553D01*
X0052181D01*
Y0017609D01*
X0052279D01*
Y0017796D01*
X0052181D01*
Y0017852D01*
Y0017858D01*
X0052279D01*
Y0017852D01*
X0052181D01*
X0052279D02*
Y0017796D01*
X0051779Y0015190D02*
Y0015373D01*
Y0015429D01*
X0051681D01*
Y0015373D01*
Y0015190D01*
Y0015134D01*
X0051779D01*
Y0015190D01*
X0051681D01*
X0051779Y0015514D02*
Y0015429D01*
Y0015373D01*
X0051681D01*
Y0015429D01*
Y0015514D01*
X0050779Y0015190D02*
Y0015373D01*
Y0015429D01*
X0050681D01*
Y0015373D01*
Y0015190D01*
Y0015134D01*
X0050779D01*
Y0015190D01*
X0050681D01*
X0050779Y0015514D02*
Y0015429D01*
Y0015373D01*
X0050681D01*
Y0015429D01*
Y0015514D01*
X0049779D02*
Y0015429D01*
Y0015196D01*
Y0015190D01*
Y0015373D01*
Y0015429D01*
X0049681D01*
Y0015373D01*
Y0015190D01*
Y0015134D01*
X0049779D01*
Y0015190D01*
X0049681D01*
X0049779Y0015373D02*
X0049681D01*
Y0015429D01*
Y0015514D01*
X0048779Y0015190D02*
Y0015373D01*
Y0015429D01*
X0048681D01*
Y0015373D01*
Y0015190D01*
Y0015134D01*
X0048779D01*
Y0015190D01*
X0048681D01*
X0048779Y0015514D02*
Y0015429D01*
Y0015373D01*
X0048681D01*
Y0015429D01*
Y0015514D01*
X0047779Y0015190D02*
Y0015373D01*
Y0015429D01*
X0047681D01*
Y0015373D01*
Y0015190D01*
Y0015134D01*
X0047779D01*
Y0015190D01*
X0047681D01*
X0047779Y0015514D02*
Y0015429D01*
Y0015373D01*
X0047681D01*
Y0015429D01*
Y0015514D01*
X0046779D02*
Y0015429D01*
Y0015196D01*
Y0015190D01*
Y0015373D01*
Y0015429D01*
X0046681D01*
Y0015373D01*
Y0015190D01*
Y0015134D01*
X0046779D01*
Y0015190D01*
X0046681D01*
X0046779Y0015373D02*
X0046681D01*
Y0015429D01*
Y0015514D01*
X0045779Y0015190D02*
Y0015373D01*
Y0015429D01*
X0045681D01*
Y0015196D01*
Y0015190D01*
X0045779D01*
Y0015134D01*
X0045681D01*
Y0015190D01*
Y0015373D01*
Y0015429D01*
Y0015514D01*
Y0015373D02*
X0045779D01*
Y0015429D01*
Y0015514D01*
X0044779Y0015190D02*
Y0015373D01*
Y0015429D01*
X0044681D01*
Y0015373D01*
Y0015190D01*
Y0015134D01*
X0044779D01*
Y0015190D01*
X0044681D01*
X0044779Y0015514D02*
Y0015429D01*
Y0015373D01*
X0044681D01*
Y0015429D01*
Y0015514D01*
X0043779Y0015190D02*
Y0015373D01*
Y0015429D01*
X0043681D01*
Y0015373D01*
Y0015190D01*
Y0015134D01*
X0043779D01*
Y0015190D01*
X0043681D01*
X0043779Y0015514D02*
Y0015429D01*
Y0015373D01*
X0043681D01*
Y0015429D01*
Y0015514D01*
X0051415Y0015602D02*
X0052045D01*
X0050415D02*
X0051045D01*
X0049415D02*
X0050045D01*
X0048415D02*
X0049045D01*
X0047415D02*
X0048045D01*
X0046415D02*
X0047045D01*
X0045415D02*
X0046045D01*
X0044415D02*
X0045045D01*
X0043415D02*
X0044045D01*
X0052415D02*
X0053045D01*
X0044415Y0015514D02*
Y0015711D01*
X0044045D01*
Y0015514D01*
X0043415D01*
Y0015711D01*
X0042876D01*
Y0015740D01*
X0053084D01*
Y0015711D01*
X0053045D01*
Y0015514D01*
X0052415D01*
Y0015711D01*
X0052045D01*
Y0015514D01*
X0051415D01*
X0051045D01*
X0050415D01*
X0050045D01*
X0049415D01*
X0049045D01*
X0048415D01*
X0048045D01*
X0047415D01*
X0047045D01*
X0046415D01*
X0046045D01*
X0045415D01*
X0045045D01*
X0044415D01*
X0044045D01*
X0043545Y0017394D02*
X0042915D01*
X0043915D02*
X0044545D01*
X0044915D02*
X0045545D01*
X0045915D02*
X0046545D01*
X0046915D02*
X0047545D01*
X0047915D02*
X0048545D01*
X0048915D02*
X0049545D01*
X0049915D02*
X0050545D01*
X0050915D02*
X0051545D01*
X0051915D02*
X0052545D01*
X0053860Y0015711D02*
X0053683D01*
Y0015514D01*
X0053860D01*
Y0015711D01*
Y0015740D01*
Y0017256D01*
Y0017286D01*
Y0017482D01*
X0053683D01*
X0053565D01*
X0053478D01*
X0053360D01*
X0052545D01*
X0051915D01*
X0051545D01*
Y0017286D01*
X0051915D01*
Y0017482D01*
X0043545D02*
Y0017286D01*
X0043915D01*
Y0017482D01*
X0043545D01*
X0042915D01*
Y0017286D01*
X0042876D01*
Y0017256D01*
Y0015740D01*
X0044545Y0017482D02*
Y0017286D01*
X0044915D01*
Y0017482D01*
X0044545D01*
X0043915D01*
X0045545D02*
Y0017286D01*
X0045915D01*
Y0017482D01*
X0045545D01*
X0044915D01*
X0046545D02*
Y0017286D01*
X0046915D01*
Y0017482D01*
X0046545D01*
X0045915D01*
X0047545D02*
Y0017286D01*
X0047915D01*
Y0017482D01*
X0047545D01*
X0046915D01*
X0048545D02*
Y0017286D01*
X0048915D01*
Y0017482D01*
X0048545D01*
X0047915D01*
X0049545D02*
Y0017286D01*
X0049915D01*
Y0017482D01*
X0049545D01*
X0048915D01*
X0050545D02*
Y0017286D01*
X0050915D01*
Y0017482D01*
X0050545D01*
X0049915D01*
X0019825Y0024175D02*
Y0025325D01*
X0019180D01*
Y0024175D01*
X0019825D01*
X0001750Y0014344D02*
Y0009155D01*
X0001986Y0008919D01*
Y0014581D01*
X0001750Y0014344D01*
X-0000750D01*
X-0000986Y0014581D01*
X0001986D01*
X-0001242Y0010864D02*
Y0012636D01*
Y0014758D01*
X0002242D01*
Y0013911D01*
Y0013655D02*
Y0011878D01*
Y0011622D02*
Y0009844D01*
Y0009588D02*
Y0008742D01*
X-0001242D01*
Y0010864D01*
X-0000986D01*
Y0008919D01*
X-0000750Y0009155D01*
X0001750D01*
X-0000750Y0014344D02*
Y0012636D01*
X-0000986D01*
Y0014581D01*
X-0000750Y0009155D02*
Y0010864D01*
X-0000986D01*
Y0008919D02*
X0001986D01*
X-0001242Y0012636D02*
X-0000986D01*
X0001047Y0011797D02*
X0001126Y0011876D01*
X0000874D01*
X0000953Y0011797D01*
X0001047D01*
Y0011703D01*
X0001126Y0011624D01*
Y0011876D01*
X0001047Y0011703D02*
X0000953D01*
X0000874Y0011624D01*
Y0011876D01*
X0001126Y0011624D02*
X0000874D01*
X0000953Y0011797D02*
Y0011703D01*
X0000047Y0012797D02*
X0000126Y0012876D01*
X-0000126D01*
X-0000047Y0012797D01*
X0000047D01*
Y0012703D01*
X0000126Y0012624D01*
Y0012876D01*
X0000047Y0012703D02*
X-0000047D01*
X-0000126Y0012624D01*
Y0012876D01*
X0000126Y0012624D02*
X-0000126D01*
X-0000047Y0012797D02*
Y0012703D01*
X0000047Y0011797D02*
X0000126Y0011876D01*
X-0000126D01*
X-0000047Y0011797D01*
X0000047D01*
Y0011703D01*
X0000126Y0011624D01*
Y0011876D01*
X0000047Y0011703D02*
X-0000047D01*
X-0000126Y0011624D01*
Y0011876D01*
X0000126Y0011624D02*
X-0000126D01*
X-0000047Y0011797D02*
Y0011703D01*
X0000047Y0010797D02*
X0000126Y0010876D01*
X-0000126D01*
X-0000047Y0010797D01*
X0000047D01*
Y0010703D01*
X0000126Y0010624D01*
Y0010876D01*
X0000047Y0010703D02*
X-0000047D01*
X-0000126Y0010624D01*
Y0010876D01*
X0000126Y0010624D02*
X-0000126D01*
X-0000047Y0010797D02*
Y0010703D01*
X0001047Y0010797D02*
X0001126Y0010876D01*
X0000874D01*
X0000953Y0010797D01*
X0001047D01*
Y0010703D01*
X0001126Y0010624D01*
Y0010876D01*
X0001047Y0010703D02*
X0000953D01*
X0000874Y0010624D01*
Y0010876D01*
X0001126Y0010624D02*
X0000874D01*
X0000953Y0010797D02*
Y0010703D01*
X0001047Y0012797D02*
X0001126Y0012876D01*
X0000874D01*
X0000953Y0012797D01*
X0001047D01*
Y0012703D01*
X0001126Y0012624D01*
Y0012876D01*
X0001047Y0012703D02*
X0000953D01*
X0000874Y0012624D01*
Y0012876D01*
X0001126Y0012624D02*
X0000874D01*
X0000953Y0012797D02*
Y0012703D01*
X0024560Y0018109D02*
X0024550D01*
Y0018209D01*
X0024950D01*
Y0018109D01*
X0024940D01*
X0024750D01*
X0024560D01*
Y0018199D01*
X0024940D01*
Y0018109D01*
X0021739Y0018674D02*
Y0019774D01*
X0021650D01*
Y0018674D01*
X0021739D01*
X0021757D01*
X0021970D01*
Y0018224D01*
X0022303D01*
X0022566D01*
Y0020224D01*
X0023370D01*
Y0018224D01*
X0024011D01*
Y0020224D01*
X0024070D01*
Y0018224D01*
X0024011D01*
Y0020224D02*
X0023370D01*
X0021739Y0019774D02*
X0021757D01*
X0021970D01*
Y0020224D01*
X0022303D01*
Y0018224D01*
X0033743Y0019774D02*
Y0018674D01*
X0033761D01*
Y0019774D01*
X0033743D01*
X0033530D01*
Y0020224D01*
X0033197D01*
X0032934D01*
X0032130D01*
Y0018224D01*
X0031488D01*
Y0020224D01*
X0031430D01*
Y0018224D01*
X0031488D01*
X0032130Y0020224D02*
X0031488D01*
X0033743Y0018674D02*
X0033530D01*
Y0018224D01*
X0033197D01*
Y0020224D01*
X0027250Y0020339D02*
Y0020539D01*
X0028250D01*
Y0020339D01*
X0021650Y0019774D02*
Y0020339D01*
X0022006D01*
X0023500D01*
X0032000D01*
X0033494D01*
Y0020224D01*
X0024070Y0019899D02*
X0031429D01*
X0024950Y0018109D02*
X0027250D01*
Y0017909D01*
X0028250D01*
Y0018109D01*
Y0018549D01*
X0031430D01*
X0027250Y0018109D02*
Y0018549D01*
X0024070D01*
X0032850Y0018109D02*
Y0017909D01*
X0033850D01*
Y0018109D01*
X0033494D01*
X0032000D01*
X0028250D01*
X0022006Y0018224D02*
Y0018109D01*
X0023500D01*
X0024550D01*
X0030670Y0020664D02*
X0030830D01*
Y0020704D01*
X0030670D01*
Y0020664D01*
Y0020339D01*
X0030170Y0020664D02*
X0030330D01*
Y0020704D01*
X0030170D01*
Y0020664D01*
Y0020339D01*
X0029670Y0020664D02*
X0029830D01*
Y0020704D01*
X0029670D01*
Y0020664D01*
Y0020339D01*
X0029170Y0020664D02*
X0029330D01*
Y0020704D01*
X0029170D01*
Y0020664D01*
Y0020339D01*
X0028670Y0020664D02*
X0028830D01*
Y0020704D01*
X0028670D01*
Y0020664D01*
Y0020339D01*
X0028170Y0020664D02*
X0028330D01*
Y0020704D01*
X0028170D01*
Y0020664D01*
Y0020539D01*
X0027670Y0020664D02*
X0027830D01*
Y0020704D01*
X0027670D01*
Y0020664D01*
Y0020539D01*
X0027170Y0020664D02*
X0027330D01*
Y0020704D01*
X0027170D01*
Y0020664D01*
Y0020339D01*
X0026670Y0020664D02*
X0026830D01*
Y0020704D01*
X0026670D01*
Y0020664D01*
Y0020339D01*
X0026170Y0020664D02*
X0026330D01*
Y0020704D01*
X0026170D01*
Y0020664D01*
Y0020339D01*
X0025670Y0020664D02*
X0025830D01*
Y0020704D01*
X0025670D01*
Y0020664D01*
Y0020339D01*
X0025170Y0020664D02*
X0025330D01*
Y0020704D01*
X0025170D01*
Y0020664D01*
Y0020339D01*
X0030330Y0017784D02*
Y0017744D01*
X0030170D01*
Y0017784D01*
X0030330D01*
Y0018109D01*
X0029830Y0017784D02*
Y0017744D01*
X0029670D01*
Y0017784D01*
X0029830D01*
Y0018109D01*
X0029330Y0017784D02*
Y0017744D01*
X0029170D01*
Y0017784D01*
X0029330D01*
Y0018109D01*
X0028830Y0017784D02*
Y0017744D01*
X0028670D01*
Y0017784D01*
X0028830D01*
Y0018109D01*
X0028330Y0017784D02*
Y0017744D01*
X0028170D01*
Y0017784D01*
X0028330D01*
Y0018109D01*
X0027830Y0017784D02*
Y0017744D01*
X0027670D01*
Y0017784D01*
X0027830D01*
Y0017909D01*
X0027330Y0017784D02*
Y0017744D01*
X0027170D01*
Y0017784D01*
X0027330D01*
Y0017909D01*
X0026830Y0017784D02*
Y0017744D01*
X0026670D01*
Y0017784D01*
X0026830D01*
Y0018109D01*
X0026330Y0017784D02*
Y0017744D01*
X0026170D01*
Y0017784D01*
X0026330D01*
Y0018109D01*
X0025830Y0017784D02*
Y0017744D01*
X0025670D01*
Y0017784D01*
X0025830D01*
Y0018109D01*
X0025330Y0017784D02*
Y0017744D01*
X0025170D01*
Y0017784D01*
X0025330D01*
Y0018109D01*
X0030830Y0020664D02*
Y0020339D01*
X0024670Y0020664D02*
X0024830D01*
Y0020704D01*
X0024670D01*
Y0020664D01*
Y0020339D01*
Y0018109D02*
Y0017784D01*
X0024830D01*
Y0018109D01*
X0024750Y0018199D02*
Y0018109D01*
X0030330Y0020339D02*
Y0020664D01*
X0029830Y0020339D02*
Y0020664D01*
X0029330Y0020339D02*
Y0020664D01*
X0028830Y0020339D02*
Y0020664D01*
X0028330Y0020339D02*
Y0020664D01*
X0027830Y0020539D02*
Y0020664D01*
X0027330Y0020539D02*
Y0020664D01*
X0026830Y0020339D02*
Y0020664D01*
X0026330Y0020339D02*
Y0020664D01*
X0025830Y0020339D02*
Y0020664D01*
X0025330Y0020339D02*
Y0020664D01*
X0024830Y0020339D02*
Y0020664D01*
X0030670Y0017784D02*
Y0017744D01*
X0030830D01*
Y0017784D01*
X0030670D01*
Y0018109D01*
X0030170D02*
Y0017784D01*
X0029670Y0018109D02*
Y0017784D01*
X0029170Y0018109D02*
Y0017784D01*
X0028670Y0018108D02*
Y0017784D01*
X0028170Y0017909D02*
Y0017784D01*
X0027670Y0017909D02*
Y0017784D01*
X0027170Y0018109D02*
Y0017784D01*
X0026670Y0018109D02*
Y0017784D01*
X0026170Y0018109D02*
Y0017784D01*
X0025670Y0018109D02*
Y0017784D01*
X0025170Y0018109D02*
Y0017784D01*
X0024830D02*
Y0017744D01*
X0024670D01*
Y0017784D01*
X0030830Y0018109D02*
Y0017784D01*
X0024830Y0019514D02*
Y0019554D01*
X0024670D01*
Y0019514D01*
X0024830D01*
Y0019434D01*
X0024670D01*
Y0019514D01*
X0025330D02*
Y0019434D01*
Y0019394D01*
X0025170D01*
Y0019434D01*
Y0019514D01*
Y0019554D01*
X0025330D01*
Y0019514D01*
X0025170D01*
X0025830D02*
Y0019434D01*
Y0019394D01*
X0025670D01*
Y0019434D01*
Y0019514D01*
Y0019554D01*
X0025830D01*
Y0019514D01*
X0025670D01*
X0026330D02*
Y0019434D01*
Y0019394D01*
X0026170D01*
Y0019434D01*
Y0019514D01*
Y0019554D01*
X0026330D01*
Y0019514D01*
X0026170D01*
X0026830D02*
Y0019434D01*
Y0019394D01*
X0026670D01*
Y0019434D01*
Y0019514D01*
Y0019554D01*
X0026830D01*
Y0019514D01*
X0026670D01*
X0027330D02*
Y0019434D01*
Y0019394D01*
X0027170D01*
Y0019434D01*
Y0019514D01*
Y0019554D01*
X0027330D01*
Y0019514D01*
X0027170D01*
X0027830D02*
Y0019434D01*
Y0019394D01*
X0027670D01*
Y0019434D01*
Y0019514D01*
Y0019554D01*
X0027830D01*
Y0019514D01*
X0027670D01*
X0028330D02*
Y0019434D01*
Y0019394D01*
X0028170D01*
Y0019434D01*
Y0019514D01*
Y0019554D01*
X0028330D01*
Y0019514D01*
X0028170D01*
X0028830D02*
Y0019434D01*
Y0019394D01*
X0028670D01*
Y0019434D01*
Y0019514D01*
Y0019554D01*
X0028830D01*
Y0019514D01*
X0028670D01*
X0029330D02*
Y0019434D01*
Y0019394D01*
X0029170D01*
Y0019434D01*
Y0019514D01*
Y0019554D01*
X0029330D01*
Y0019514D01*
X0029170D01*
X0029830D02*
Y0019434D01*
Y0019394D01*
X0029670D01*
Y0019434D01*
Y0019514D01*
Y0019554D01*
X0029830D01*
Y0019514D01*
X0029670D01*
X0030330D02*
Y0019434D01*
Y0019394D01*
X0030170D01*
Y0019434D01*
Y0019514D01*
Y0019554D01*
X0030330D01*
Y0019514D01*
X0030170D01*
X0030670Y0019434D02*
Y0019394D01*
X0030830D01*
Y0019434D01*
X0030670D01*
Y0019514D01*
X0030830D01*
Y0019554D01*
X0030670D01*
Y0019514D01*
X0024830Y0019434D02*
Y0019394D01*
X0024670D01*
Y0019434D01*
X0025330D02*
X0025170D01*
X0025830D02*
X0025670D01*
X0026330D02*
X0026170D01*
X0026830D02*
X0026670D01*
X0027330D02*
X0027170D01*
X0027830D02*
X0027670D01*
X0028330D02*
X0028170D01*
X0028830D02*
X0028670D01*
X0029330D02*
X0029170D01*
X0029830D02*
X0029670D01*
X0030330D02*
X0030170D01*
X0024670Y0019014D02*
Y0018934D01*
X0024830D01*
Y0019014D01*
X0024670D01*
Y0019054D01*
X0024830D01*
Y0019014D01*
X0025330D02*
Y0018934D01*
Y0018894D01*
X0025170D01*
Y0018934D01*
Y0019014D01*
Y0019054D01*
X0025330D01*
Y0019014D01*
X0025170D01*
X0025830D02*
Y0018934D01*
Y0018894D01*
X0025670D01*
Y0018934D01*
Y0019014D01*
Y0019054D01*
X0025830D01*
Y0019014D01*
X0025670D01*
X0026330D02*
Y0018934D01*
Y0018894D01*
X0026170D01*
Y0018934D01*
Y0019014D01*
Y0019054D01*
X0026330D01*
Y0019014D01*
X0026170D01*
X0026830D02*
Y0018934D01*
Y0018894D01*
X0026670D01*
Y0018934D01*
Y0019014D01*
Y0019054D01*
X0026830D01*
Y0019014D01*
X0026670D01*
X0027330D02*
Y0018934D01*
Y0018894D01*
X0027170D01*
Y0018934D01*
Y0019014D01*
Y0019054D01*
X0027330D01*
Y0019014D01*
X0027170D01*
X0027830D02*
Y0018934D01*
Y0018894D01*
X0027670D01*
Y0018934D01*
Y0019014D01*
Y0019054D01*
X0027830D01*
Y0019014D01*
X0027670D01*
X0028330D02*
Y0018934D01*
Y0018894D01*
X0028170D01*
Y0018934D01*
Y0019014D01*
Y0019054D01*
X0028330D01*
Y0019014D01*
X0028170D01*
X0028830D02*
Y0018934D01*
Y0018894D01*
X0028670D01*
Y0018934D01*
Y0019014D01*
Y0019054D01*
X0028830D01*
Y0019014D01*
X0028670D01*
X0029330D02*
Y0018934D01*
Y0018894D01*
X0029170D01*
Y0018934D01*
Y0019014D01*
Y0019054D01*
X0029330D01*
Y0019014D01*
X0029170D01*
X0029830D02*
Y0018934D01*
Y0018894D01*
X0029670D01*
Y0018934D01*
Y0019014D01*
Y0019054D01*
X0029830D01*
Y0019014D01*
X0029670D01*
X0030330D02*
Y0018934D01*
Y0018894D01*
X0030170D01*
Y0018934D01*
Y0019014D01*
Y0019054D01*
X0030330D01*
Y0019014D01*
X0030170D01*
X0030830Y0018934D02*
Y0018894D01*
X0030670D01*
Y0018934D01*
X0030830D01*
Y0019014D01*
X0030670D01*
Y0019054D01*
X0030830D01*
Y0019014D01*
X0030670D02*
Y0018934D01*
X0024830D02*
Y0018894D01*
X0024670D01*
Y0018934D01*
X0025330D02*
X0025170D01*
X0025830D02*
X0025670D01*
X0026330D02*
X0026170D01*
X0026830D02*
X0026670D01*
X0027330D02*
X0027170D01*
X0027830D02*
X0027670D01*
X0028330D02*
X0028170D01*
X0028830D02*
X0028670D01*
X0029330D02*
X0029170D01*
X0029830D02*
X0029670D01*
X0030330D02*
X0030170D01*
X0030830Y0019514D02*
Y0019434D01*
X0032130Y0018224D02*
X0032934D01*
Y0020224D01*
X0022006Y0018109D02*
X0021650D01*
Y0017909D01*
X0022650D01*
Y0018109D01*
X0033761Y0018674D02*
X0033850D01*
Y0018109D01*
X0021650Y0018674D02*
Y0018109D01*
X0023500Y0020339D02*
Y0020224D01*
X0032000Y0020339D02*
Y0020224D01*
X0032850Y0020339D02*
Y0020539D01*
X0033850D01*
Y0020339D01*
Y0019774D01*
X0033760D01*
X0022303Y0020224D02*
X0022566D01*
Y0018224D02*
X0023370D01*
X0021757Y0019774D02*
Y0018674D01*
X0033197Y0018224D02*
X0032934D01*
X0021650Y0020339D02*
Y0020539D01*
X0022650D01*
Y0020339D01*
X0023500Y0018224D02*
Y0018109D01*
X0032000Y0018224D02*
Y0018109D01*
X0033494Y0018224D02*
Y0018109D01*
X0033850Y0020339D02*
X0033494D01*
X0022006Y0020224D02*
Y0020339D01*
X0033850Y0019774D02*
Y0018674D01*
X0032843Y0014633D02*
Y0014383D01*
X0032902Y0014442D02*
Y0014574D01*
X0033093Y0015617D02*
Y0015367D01*
Y0014633D02*
Y0014383D01*
X0030875Y0015617D02*
Y0015367D01*
X0031125D01*
X0031066Y0015426D01*
Y0015558D01*
X0031125Y0015617D01*
X0030875D01*
X0030934Y0015558D01*
Y0015426D01*
X0031066D01*
X0030934Y0015558D02*
X0031066D01*
X0030875Y0015367D02*
X0030934Y0015426D01*
X0031066Y0014442D02*
X0031125Y0014383D01*
X0030875D01*
X0030934Y0014442D01*
X0031066D01*
Y0014574D01*
X0031125Y0014633D01*
X0030875D01*
X0030934Y0014574D01*
X0031066D01*
X0030875Y0014633D02*
Y0014383D01*
X0030934Y0014442D02*
Y0014574D01*
X0031125Y0015617D02*
Y0015367D01*
Y0014633D02*
Y0014383D01*
X0029891Y0015617D02*
Y0015367D01*
X0030141D01*
X0030082Y0015426D01*
Y0015558D01*
X0030141Y0015617D01*
X0029891D01*
X0029950Y0015558D01*
Y0015426D01*
X0030082D01*
X0029950Y0015558D02*
X0030082D01*
X0029891Y0015367D02*
X0029950Y0015426D01*
X0030082Y0014442D02*
X0030141Y0014383D01*
X0029891D01*
X0029950Y0014442D01*
X0030082D01*
Y0014574D01*
X0030141Y0014633D01*
X0029891D01*
X0029950Y0014574D01*
X0030082D01*
X0029891Y0014633D02*
Y0014383D01*
X0029950Y0014442D02*
Y0014574D01*
X0030141Y0015617D02*
Y0015367D01*
Y0014633D02*
Y0014383D01*
X0028484Y0014077D02*
Y0014939D01*
X0027610D01*
Y0014077D01*
X0028484D01*
X0033405Y0015923D02*
X0032531D01*
Y0015061D01*
X0033405D01*
Y0015923D01*
Y0014077D02*
Y0014939D01*
X0032531D01*
Y0014077D01*
X0033405D01*
X0032421Y0015923D02*
X0031547D01*
Y0015061D01*
X0032421D01*
Y0015923D01*
X0031437D02*
X0030563D01*
Y0015061D01*
X0031437D01*
Y0015923D01*
X0030453D02*
X0029579D01*
Y0015061D01*
X0030453D01*
Y0015923D01*
X0029468D02*
X0028594D01*
Y0015061D01*
X0029468D01*
Y0015923D01*
Y0014077D02*
Y0014939D01*
X0028594D01*
Y0014077D01*
X0029468D01*
X0028484Y0015923D02*
X0027610D01*
Y0015061D01*
X0028484D01*
Y0015923D01*
X0027981Y0014442D02*
Y0014574D01*
X0028172Y0014633D02*
Y0014383D01*
X0028906Y0015617D02*
Y0015367D01*
X0029156D01*
X0029097Y0015426D01*
Y0015558D01*
X0029156Y0015617D01*
X0028906D01*
X0028965Y0015558D01*
Y0015426D01*
X0029097D01*
X0028965Y0015558D02*
X0029097D01*
X0028906Y0015367D02*
X0028965Y0015426D01*
X0029097Y0014442D02*
X0029156Y0014383D01*
X0028906D01*
X0028965Y0014442D01*
X0029097D01*
Y0014574D01*
X0029156Y0014633D01*
X0028906D01*
X0028965Y0014574D01*
X0029097D01*
X0028906Y0014633D02*
Y0014383D01*
X0028965Y0014442D02*
Y0014574D01*
X0029156Y0015617D02*
Y0015367D01*
Y0014633D02*
Y0014383D01*
X0031859Y0015617D02*
Y0015367D01*
X0032109D01*
X0032050Y0015426D01*
Y0015558D01*
X0032109Y0015617D01*
X0031859D01*
X0031918Y0015558D01*
Y0015426D01*
X0032050D01*
X0031918Y0015558D02*
X0032050D01*
X0031859Y0015367D02*
X0031918Y0015426D01*
X0032050Y0014442D02*
X0032109Y0014383D01*
X0031859D01*
X0031918Y0014442D01*
X0032050D01*
Y0014574D01*
X0032109Y0014633D01*
X0031859D01*
X0031918Y0014574D01*
X0032050D01*
X0031859Y0014633D02*
Y0014383D01*
X0031918Y0014442D02*
Y0014574D01*
X0032109Y0015617D02*
Y0015367D01*
Y0014633D02*
Y0014383D01*
X0029976Y0012776D02*
Y0012921D01*
X0032024D01*
Y0012776D01*
X0031945Y0012697D02*
X0030060D01*
X0029976Y0013496D02*
Y0012921D01*
X0032024Y0013496D02*
Y0012921D01*
X0031547Y0014077D02*
X0031866D01*
X0030134Y0013496D02*
X0029976D01*
Y0013823D01*
X0027370D01*
Y0016177D01*
X0034630D01*
Y0013823D01*
X0032024D01*
Y0013496D01*
X0031866D01*
Y0013031D01*
X0030134D01*
Y0013496D01*
Y0014077D01*
X0030453D01*
X0033874Y0015061D02*
X0033516D01*
Y0015923D01*
X0034390D01*
Y0014077D01*
X0033516D01*
Y0014939D01*
X0033874D01*
X0034110D01*
Y0015061D01*
X0033874D01*
Y0014939D01*
X0031437Y0014077D02*
Y0014939D01*
X0030563D01*
Y0014077D01*
X0031437D01*
X0030134D02*
X0029579D01*
Y0014939D01*
X0030453D01*
Y0013968D01*
X0031547D01*
Y0014939D01*
X0032421D01*
Y0014077D01*
X0031866D01*
Y0013496D01*
X0027922Y0015617D02*
Y0015367D01*
X0028172D01*
Y0015617D01*
X0027922D01*
X0027981Y0015558D01*
Y0015426D01*
X0028113D01*
Y0015558D01*
X0027981D01*
X0028113Y0014442D02*
X0028172Y0014383D01*
X0027922D01*
X0027981Y0014442D01*
X0028113D01*
Y0014574D01*
X0028172Y0014633D01*
X0027922D01*
X0027981Y0014574D01*
X0028113D01*
X0027922Y0014633D02*
Y0014383D01*
Y0015367D02*
X0027981Y0015426D01*
X0028172Y0015367D02*
X0028113Y0015426D01*
X0028172Y0015617D02*
X0028113Y0015558D01*
X0033887D02*
X0033828Y0015617D01*
X0034078D01*
X0034019Y0015558D01*
X0033887D01*
Y0015426D01*
X0033828Y0015367D01*
X0034078D01*
X0034019Y0015426D01*
X0033887D01*
X0034019Y0015558D02*
Y0015426D01*
Y0014442D02*
X0034078Y0014383D01*
X0033828D01*
X0033887Y0014442D01*
X0034019D01*
Y0014574D01*
X0034078Y0014633D01*
X0033828D01*
X0033887Y0014574D01*
X0034019D01*
X0033828Y0015617D02*
Y0015367D01*
Y0014633D02*
Y0014383D01*
X0033887Y0014442D02*
Y0014574D01*
X0034078Y0015617D02*
Y0015367D01*
Y0014633D02*
Y0014383D01*
X0034110Y0015061D02*
X0034390D01*
Y0014939D02*
X0034110D01*
X0032843Y0015617D02*
Y0015367D01*
X0033093D01*
X0033034Y0015426D01*
Y0015558D01*
X0033093Y0015617D01*
X0032843D01*
X0032902Y0015558D01*
Y0015426D01*
X0033034D01*
X0032902Y0015558D02*
X0033034D01*
X0032843Y0015367D02*
X0032902Y0015426D01*
X0033034Y0014442D02*
X0033093Y0014383D01*
X0032843D01*
X0032902Y0014442D01*
X0033034D01*
Y0014574D01*
X0033093Y0014633D01*
X0032843D01*
X0032902Y0014574D01*
X0033034D01*
X0022675Y0026825D02*
Y0025675D01*
X0023320D01*
Y0026825D01*
X0022675D01*
X0026325Y0021675D02*
Y0022825D01*
X0025680D01*
Y0021675D01*
X0026325D01*
X0024825Y0024175D02*
Y0025325D01*
X0024180D01*
Y0024175D01*
X0024825D01*
X0052571Y0006512D02*
Y0006472D01*
X0052531Y0006433D02*
X0052295D01*
X0052177Y0006551D02*
Y0006630D01*
X0052212Y0006546D01*
X0052295Y0006512D01*
X0052964D01*
Y0005974D01*
Y0005778D01*
X0053043D01*
X0053201D01*
Y0005905D01*
X0053142D01*
X0053043Y0005778D01*
X0052964Y0005974D02*
X0053083Y0006092D01*
Y0006630D01*
X0052295D01*
Y0006669D01*
X0052177D01*
X0051783D01*
Y0004386D01*
X0052177D01*
X0052295D01*
X0053201D01*
Y0005207D01*
X0053083D01*
X0052964Y0005325D01*
Y0004543D01*
X0052295D01*
X0052212Y0004509D01*
X0052177Y0004425D01*
Y0004386D01*
X0053201Y0005207D02*
Y0005394D01*
X0053142D01*
X0053043Y0005522D01*
X0053201D01*
Y0005778D01*
X0053083Y0006092D02*
X0053201D01*
Y0006669D01*
X0052295D01*
Y0004386D02*
Y0004425D01*
X0053083D01*
Y0005207D01*
X0052886Y0006512D02*
Y0005650D01*
Y0004543D01*
X0052212Y0006546D02*
X0052295Y0006630D01*
X0053201Y0005905D02*
Y0006092D01*
X0052964Y0005768D02*
Y0005778D01*
X0053043Y0005522D02*
X0052964D01*
Y0005531D01*
X0053201Y0005394D02*
Y0005522D01*
X0052964D02*
Y0005325D01*
Y0006512D02*
X0053083Y0006630D01*
X0052295Y0004425D02*
X0052212Y0004509D01*
X0052964Y0004543D02*
X0053083Y0004425D01*
X0052177Y0006669D02*
Y0006630D01*
Y0004504D02*
Y0004425D01*
X0052271Y0004622D02*
X0052531D01*
X0036404Y0027034D02*
X0036277D01*
X0036364Y0027131D02*
Y0026998D01*
X0036310Y0027128D02*
Y0027001D01*
X0036407Y0027088D02*
X0036274D01*
X0023197Y0025157D02*
Y0025118D01*
X0022803D01*
Y0025157D01*
X0023197D01*
X0022843Y0025275D02*
X0022803D01*
Y0024725D01*
X0022843D01*
X0023157D02*
X0023197D01*
Y0025275D01*
X0023157D01*
X0018634Y0028523D02*
X0018476D01*
Y0028850D01*
X0016854D01*
Y0031205D01*
X0022146D01*
Y0028850D01*
X0020524D01*
Y0028523D01*
X0020366D01*
Y0028059D01*
X0018634D01*
Y0028523D01*
Y0029104D01*
X0018953D01*
X0021905Y0030951D02*
X0021031D01*
Y0030088D01*
X0021390D01*
Y0029966D01*
X0021031D01*
Y0029104D01*
X0021905D01*
Y0030951D01*
X0019937Y0029104D02*
Y0029966D01*
X0019063D01*
Y0029104D01*
X0019937D01*
X0018634D02*
X0018079D01*
Y0029966D01*
X0018953D01*
Y0028996D01*
X0020047D01*
Y0029966D01*
X0020921D01*
Y0029104D01*
X0020366D01*
Y0028523D01*
X0017406Y0030645D02*
Y0030395D01*
X0017656D01*
Y0030645D01*
X0017406D01*
X0017465Y0030585D01*
Y0030454D01*
X0017597D01*
Y0030585D01*
X0017465D01*
X0017597Y0029469D02*
X0017656Y0029410D01*
X0017406D01*
X0017465Y0029469D01*
X0017597D01*
Y0029601D01*
X0017656Y0029660D01*
X0017406D01*
X0017465Y0029601D01*
X0017597D01*
X0017406Y0029660D02*
Y0029410D01*
Y0030395D02*
X0017465Y0030454D01*
X0017656Y0030395D02*
X0017597Y0030454D01*
X0017656Y0030645D02*
X0017597Y0030585D01*
X0021402D02*
X0021343Y0030645D01*
X0021593D01*
X0021534Y0030585D01*
X0021402D01*
Y0030454D01*
X0021343Y0030395D01*
X0021593D01*
X0021534Y0030454D01*
X0021402D01*
X0021534Y0030585D02*
Y0030454D01*
Y0029469D02*
X0021593Y0029410D01*
X0021343D01*
X0021402Y0029469D01*
X0021534D01*
Y0029601D01*
X0021593Y0029660D01*
X0021343D01*
X0021402Y0029601D01*
X0021534D01*
X0021343Y0030645D02*
Y0030395D01*
Y0029660D02*
Y0029410D01*
X0021402Y0029469D02*
Y0029601D01*
X0021593Y0030645D02*
Y0030395D01*
Y0029660D02*
Y0029410D01*
X0021390Y0030088D02*
X0021626D01*
Y0029966D01*
X0021390D01*
X0021905Y0030088D02*
X0021626D01*
Y0029966D02*
X0021905D01*
X0019375Y0030645D02*
Y0030395D01*
X0019625D01*
X0019566Y0030454D01*
Y0030585D01*
X0019625Y0030645D01*
X0019375D01*
X0019434Y0030585D01*
Y0030454D01*
X0019566D01*
X0019434Y0030585D02*
X0019566D01*
X0019375Y0030395D02*
X0019434Y0030454D01*
X0019566Y0029469D02*
X0019625Y0029410D01*
X0019375D01*
X0019434Y0029469D01*
X0019566D01*
Y0029601D01*
X0019625Y0029660D01*
X0019375D01*
X0019434Y0029601D01*
X0019566D01*
X0019375Y0029660D02*
Y0029410D01*
X0019434Y0029469D02*
Y0029601D01*
X0019625Y0030645D02*
Y0030395D01*
Y0029660D02*
Y0029410D01*
X0018391Y0030645D02*
Y0030395D01*
X0018641D01*
X0018582Y0030454D01*
Y0030585D01*
X0018641Y0030645D01*
X0018391D01*
X0018450Y0030585D01*
Y0030454D01*
X0018582D01*
X0018450Y0030585D02*
X0018582D01*
X0018391Y0030395D02*
X0018450Y0030454D01*
X0018582Y0029469D02*
X0018641Y0029410D01*
X0018391D01*
X0018450Y0029469D01*
X0018582D01*
Y0029601D01*
X0018641Y0029660D01*
X0018391D01*
X0018450Y0029601D01*
X0018582D01*
X0018391Y0029660D02*
Y0029410D01*
X0018450Y0029469D02*
Y0029601D01*
X0018641Y0030645D02*
Y0030395D01*
Y0029660D02*
Y0029410D01*
X0020359Y0030645D02*
Y0030395D01*
X0020609D01*
X0020550Y0030454D01*
Y0030585D01*
X0020609Y0030645D01*
X0020359D01*
X0020418Y0030585D01*
Y0030454D01*
X0020550D01*
X0020418Y0030585D02*
X0020550D01*
X0020359Y0030395D02*
X0020418Y0030454D01*
X0020550Y0029469D02*
X0020609Y0029410D01*
X0020359D01*
X0020418Y0029469D01*
X0020550D01*
Y0029601D01*
X0020609Y0029660D01*
X0020359D01*
X0020418Y0029601D01*
X0020550D01*
X0020359Y0029660D02*
Y0029410D01*
X0020418Y0029469D02*
Y0029601D01*
X0020609Y0030645D02*
Y0030395D01*
Y0029660D02*
Y0029410D01*
X0018476Y0027803D02*
Y0027949D01*
X0020524D01*
Y0027803D01*
X0020445Y0027724D02*
X0018540D01*
X0018476Y0028523D02*
Y0027949D01*
X0020524Y0028523D02*
Y0027949D01*
X0020047Y0029104D02*
X0020366D01*
X0017968D02*
Y0029966D01*
X0017094D01*
Y0029104D01*
X0017968D01*
X0020921Y0030951D02*
X0020047D01*
Y0030088D01*
X0020921D01*
Y0030951D01*
X0019937D02*
X0019063D01*
Y0030088D01*
X0019937D01*
Y0030951D01*
X0018953D02*
X0018079D01*
Y0030088D01*
X0018953D01*
Y0030951D01*
X0017968D02*
X0017094D01*
Y0030088D01*
X0017968D01*
Y0030951D01*
X0017465Y0029469D02*
Y0029601D01*
X0017656Y0029660D02*
Y0029410D01*
X0051545Y0017482D02*
X0050915D01*
X0021473Y0024404D02*
X0021345D01*
X0021432Y0024502D02*
Y0024368D01*
X0021378Y0024499D02*
Y0024371D01*
X0021476Y0024458D02*
X0021342D01*
X0038904Y0027034D02*
X0038777D01*
X0038864Y0027131D02*
Y0026998D01*
X0038810Y0027128D02*
Y0027001D01*
X0038907Y0027088D02*
X0038774D01*
X0000500Y0004543D02*
Y0004583D01*
X0000539Y0004622D02*
X0000776D01*
X0000894Y0004504D02*
Y0004425D01*
X0000859Y0004509D01*
X0000776Y0004543D01*
X0000106D01*
Y0005081D01*
Y0005277D01*
X0000027D01*
X-0000130D01*
Y0005150D01*
X-0000071D01*
X0000027Y0005277D01*
X0000106Y0005081D02*
X-0000012Y0004963D01*
Y0004425D01*
X0000776D01*
Y0004386D01*
X0000894D01*
X0001287D01*
Y0006669D01*
X0000894D01*
X0000776D01*
X-0000130D01*
Y0005848D01*
X-0000012D01*
X0000106Y0005730D01*
Y0006512D01*
X0000776D01*
X0000859Y0006546D01*
X0000894Y0006630D01*
Y0006669D01*
X-0000130Y0005848D02*
Y0005661D01*
X-0000071D01*
X0000027Y0005533D01*
X-0000130D01*
Y0005277D01*
X-0000012Y0004963D02*
X-0000130D01*
Y0004386D01*
X0000776D01*
Y0006669D02*
Y0006630D01*
X-0000012D01*
Y0005848D01*
X0000185Y0004543D02*
Y0005405D01*
Y0006512D01*
X0000859Y0004509D02*
X0000776Y0004425D01*
X-0000130Y0005150D02*
Y0004963D01*
X0000106Y0005287D02*
Y0005277D01*
X0000027Y0005533D02*
X0000106D01*
Y0005524D01*
X-0000130Y0005661D02*
Y0005533D01*
X0000106D02*
Y0005730D01*
Y0004543D02*
X-0000012Y0004425D01*
X0000776Y0006630D02*
X0000859Y0006546D01*
X0000106Y0006512D02*
X-0000012Y0006630D01*
X0000894Y0004386D02*
Y0004425D01*
Y0006551D02*
Y0006630D01*
X0000800Y0006433D02*
X0000539D01*
X0052809Y0016085D02*
X0052897D01*
Y0016321D01*
X0052809D01*
Y0016498D01*
X0052651D01*
Y0016321D01*
X0052563D01*
Y0016085D01*
X0052651D01*
Y0015908D01*
X0052809D01*
Y0016085D01*
X0026723Y0024404D02*
X0026595D01*
X0026682Y0024502D02*
Y0024368D01*
X0026628Y0024499D02*
Y0024371D01*
X0026726Y0024458D02*
X0026592D01*
X0017950Y0026300D02*
X0019050D01*
Y0024200D01*
X0017950D01*
Y0026300D01*
X0030904Y0027034D02*
X0030777D01*
X0030864Y0027131D02*
Y0026998D01*
X0030810Y0027128D02*
Y0027001D01*
X0030907Y0027088D02*
X0030774D01*
X0052063Y0016912D02*
Y0016675D01*
X0052151D01*
Y0016498D01*
X0052309D01*
Y0016675D01*
X0052397D01*
Y0016912D01*
X0052309D01*
Y0017089D01*
X0052151D01*
Y0016912D01*
X0052063D01*
X0033163Y0030951D02*
X0032289D01*
Y0030088D01*
X0032648D01*
Y0029966D01*
X0032289D01*
Y0029104D01*
X0033163D01*
Y0030951D01*
X0030384Y0028523D02*
X0030226D01*
Y0028850D01*
X0029096D01*
Y0031205D01*
X0033403D01*
Y0028850D01*
X0032274D01*
Y0028523D01*
X0032116D01*
Y0028059D01*
X0030384D01*
Y0028523D01*
Y0029104D01*
X0030726D01*
X0031195D01*
Y0029966D01*
X0030321D01*
Y0029104D01*
X0030384D01*
X0032116Y0028523D02*
Y0029104D01*
X0032179D01*
Y0029966D01*
X0031305D01*
Y0029104D01*
X0031774D01*
Y0028996D01*
X0030726D01*
Y0029104D01*
X0029649Y0030645D02*
Y0030395D01*
X0029899D01*
Y0030645D01*
X0029649D01*
X0029708Y0030585D01*
Y0030454D01*
X0029839D01*
Y0030585D01*
X0029708D01*
X0029839Y0029469D02*
X0029899Y0029410D01*
X0029649D01*
X0029708Y0029469D01*
X0029839D01*
Y0029601D01*
X0029899Y0029660D01*
X0029649D01*
X0029708Y0029601D01*
X0029839D01*
X0029649Y0029660D02*
Y0029410D01*
Y0030395D02*
X0029708Y0030454D01*
X0029899Y0030395D02*
X0029839Y0030454D01*
X0029899Y0030645D02*
X0029839Y0030585D01*
X0032660D02*
X0032601Y0030645D01*
X0032851D01*
X0032792Y0030585D01*
X0032660D01*
Y0030454D01*
X0032601Y0030395D01*
X0032851D01*
X0032792Y0030454D01*
X0032660D01*
X0032792Y0030585D02*
Y0030454D01*
Y0029469D02*
X0032851Y0029410D01*
X0032601D01*
X0032660Y0029469D01*
X0032792D01*
Y0029601D01*
X0032851Y0029660D01*
X0032601D01*
X0032660Y0029601D01*
X0032792D01*
X0032601Y0030645D02*
Y0030395D01*
Y0029660D02*
Y0029410D01*
X0032660Y0029469D02*
Y0029601D01*
X0032851Y0030645D02*
Y0030395D01*
Y0029660D02*
Y0029410D01*
X0032648Y0030088D02*
X0032884D01*
Y0029966D01*
X0032648D01*
X0033163Y0030088D02*
X0032884D01*
Y0029966D02*
X0033163D01*
X0030633Y0030645D02*
Y0030395D01*
X0030883D01*
X0030824Y0030454D01*
Y0030585D01*
X0030883Y0030645D01*
X0030633D01*
X0030692Y0030585D01*
Y0030454D01*
X0030824D01*
X0030692Y0030585D02*
X0030824D01*
X0030633Y0030395D02*
X0030692Y0030454D01*
X0030824Y0029469D02*
X0030883Y0029410D01*
X0030633D01*
X0030692Y0029469D01*
X0030824D01*
Y0029601D01*
X0030883Y0029660D01*
X0030633D01*
X0030692Y0029601D01*
X0030824D01*
X0030633Y0029660D02*
Y0029410D01*
X0030692Y0029469D02*
Y0029601D01*
X0030883Y0030645D02*
Y0030395D01*
Y0029660D02*
Y0029410D01*
X0031617Y0030645D02*
Y0030395D01*
X0031867D01*
X0031808Y0030454D01*
Y0030585D01*
X0031867Y0030645D01*
X0031617D01*
X0031676Y0030585D01*
Y0030454D01*
X0031808D01*
X0031676Y0030585D02*
X0031808D01*
X0031617Y0030395D02*
X0031676Y0030454D01*
X0031808Y0029469D02*
X0031867Y0029410D01*
X0031617D01*
X0031676Y0029469D01*
X0031808D01*
Y0029601D01*
X0031867Y0029660D01*
X0031617D01*
X0031676Y0029601D01*
X0031808D01*
X0031617Y0029660D02*
Y0029410D01*
X0031676Y0029469D02*
Y0029601D01*
X0031867Y0030645D02*
Y0030395D01*
Y0029660D02*
Y0029410D01*
X0030226Y0027803D02*
Y0027949D01*
X0032274D01*
Y0027803D01*
X0032195Y0027724D02*
X0030305D01*
X0030226Y0028523D02*
Y0027949D01*
X0032274Y0028523D02*
Y0027949D01*
X0031774Y0029104D02*
X0032116D01*
X0030211D02*
Y0029966D01*
X0029337D01*
Y0029104D01*
X0030211D01*
X0032179Y0030951D02*
X0031305D01*
Y0030088D01*
X0032179D01*
Y0030951D01*
X0031195D02*
X0030321D01*
Y0030088D01*
X0031195D01*
Y0030951D01*
X0030211D02*
X0029337D01*
Y0030088D01*
X0030211D01*
Y0030951D01*
X0029708Y0029469D02*
Y0029601D01*
X0029899Y0029660D02*
Y0029410D01*
X0028447Y0024907D02*
Y0024868D01*
X0028053D01*
Y0024907D01*
X0028447D01*
X0028093Y0025025D02*
X0028053D01*
Y0024475D01*
X0028093D01*
X0028407D02*
X0028447D01*
Y0025025D01*
X0028407D01*
X0040279Y0030596D02*
Y0030982D01*
X0040456D01*
X0040460D01*
X0040830Y0030833D01*
Y0030596D01*
X0040279D01*
Y0028589D01*
X0040830D01*
Y0029199D01*
X0040279D01*
X0038872Y0030982D02*
Y0031183D01*
X0039265D01*
Y0030982D01*
X0038872D01*
X0036628D01*
X0036234D01*
X0035221D01*
Y0030596D01*
Y0028589D01*
X0034669D01*
Y0029199D01*
Y0029406D01*
Y0029858D01*
Y0030065D01*
X0035221D01*
Y0030982D02*
X0035043D01*
Y0031183D01*
X0034571D01*
Y0028282D01*
X0034669D01*
Y0028589D01*
X0040279D02*
Y0028282D01*
X0040830D01*
Y0028589D01*
X0038025Y0028282D02*
Y0027730D01*
X0037474D01*
Y0028282D01*
X0038025D01*
X0040279D01*
X0039265Y0030982D02*
X0040279D01*
X0035043D02*
X0035040D01*
X0034669Y0030833D01*
Y0030596D01*
Y0030065D01*
X0040830Y0030596D02*
Y0030065D01*
Y0029858D01*
X0040279D01*
X0040830D02*
Y0029406D01*
X0040279D01*
X0036104Y0030336D02*
X0035852D01*
Y0030084D01*
X0036104D01*
Y0030336D01*
X0039395D02*
Y0030084D01*
X0039647D01*
Y0030336D01*
X0039395D01*
Y0028904D02*
X0039647D01*
Y0029156D01*
X0039395D01*
Y0028904D01*
X0038466Y0030336D02*
X0038214D01*
Y0030084D01*
X0038466D01*
Y0030336D01*
X0038214Y0029156D02*
Y0028904D01*
X0038466D01*
Y0029156D01*
X0038214D01*
X0037286Y0030336D02*
X0037034D01*
Y0030084D01*
X0037286D01*
Y0030336D01*
X0037034Y0029156D02*
Y0028904D01*
X0037286D01*
Y0029156D01*
X0037034D01*
X0040456Y0030982D02*
Y0031183D01*
X0040929D01*
Y0028282D01*
X0040830D01*
X0036104Y0029156D02*
X0035852D01*
Y0028904D01*
X0036104D01*
Y0029156D01*
X0039021Y0029722D02*
X0040021D01*
Y0030722D01*
X0039297D01*
X0039021Y0030447D01*
Y0029722D01*
X0037840Y0030722D02*
Y0029722D01*
X0038840D01*
Y0030447D01*
X0038565Y0030722D01*
X0037840D01*
X0038565Y0029542D02*
X0037840D01*
Y0028542D01*
X0038840D01*
Y0029266D01*
X0038565Y0029542D01*
X0036660Y0028542D02*
X0037660D01*
Y0029542D01*
X0036935D01*
X0036660Y0029266D01*
Y0028542D01*
Y0029722D02*
X0037660D01*
Y0030722D01*
X0036935D01*
X0036660Y0030447D01*
Y0029722D01*
X0035478Y0030722D02*
Y0029722D01*
X0036478D01*
Y0030447D01*
X0036203Y0030722D01*
X0035478D01*
Y0029542D02*
Y0028542D01*
X0036478D01*
Y0029266D01*
X0036203Y0029542D01*
X0035478D01*
X0036234Y0030982D02*
Y0031183D01*
X0036628D01*
Y0030982D01*
X0040021Y0029542D02*
X0039021D01*
Y0028542D01*
X0040021D01*
Y0029542D01*
X0034669Y0028282D02*
X0035221D01*
X0037474D01*
X0035221Y0029406D02*
X0034669D01*
Y0029858D02*
X0035221D01*
Y0029199D02*
X0034669D01*
Y0030596D02*
X0035221D01*
Y0028282D02*
Y0028589D01*
X0040279Y0030065D02*
X0040830D01*
Y0029406D02*
Y0029199D01*
X0023425Y0025325D02*
Y0024175D01*
X0024070D01*
Y0025325D01*
X0023425D01*
X0051809Y0016085D02*
X0051897D01*
Y0016321D01*
X0051809D01*
Y0016498D01*
X0051651D01*
Y0016321D01*
X0051563D01*
Y0016085D01*
X0051651D01*
Y0015908D01*
X0051809D01*
Y0016085D01*
X0021154Y0027034D02*
X0021027D01*
X0021114Y0027131D02*
Y0026998D01*
X0021060Y0027128D02*
Y0027001D01*
X0021157Y0027088D02*
X0021024D01*
X0051063Y0016912D02*
Y0016675D01*
X0051151D01*
Y0016498D01*
X0051309D01*
Y0016675D01*
X0051397D01*
Y0016912D01*
X0051309D01*
Y0017089D01*
X0051151D01*
Y0016912D01*
X0051063D01*
X0023838Y0029059D02*
X0023303D01*
Y0028823D01*
X0023838D01*
Y0031177D01*
X0027161D01*
Y0028823D01*
X0026524D01*
Y0028500D01*
X0026366D01*
Y0028031D01*
X0024634D01*
Y0028500D01*
Y0029077D01*
X0024079D01*
Y0030923D01*
X0024953D01*
Y0030061D01*
X0024594D01*
Y0029939D01*
X0024953D01*
Y0028966D01*
X0026047D01*
Y0029939D01*
X0026921D01*
Y0029077D01*
X0026366D01*
Y0028500D01*
X0027161Y0030437D02*
X0027697D01*
Y0029059D01*
Y0028823D01*
X0027161D01*
X0026550Y0030426D02*
X0026609Y0030367D01*
Y0030617D01*
X0026359D01*
X0026418Y0030558D01*
Y0030426D01*
X0026550D01*
Y0030558D01*
X0026418D01*
X0026609Y0030367D02*
X0026359D01*
X0026418Y0030426D01*
X0026550Y0029442D02*
X0026609Y0029383D01*
X0026359D01*
X0026418Y0029442D01*
X0026550D01*
Y0029574D01*
X0026609Y0029633D01*
X0026359D01*
X0026418Y0029574D01*
X0026550D01*
X0026359Y0030617D02*
Y0030367D01*
Y0029633D02*
Y0029383D01*
X0026418Y0029442D02*
Y0029574D01*
X0026609Y0029633D02*
Y0029383D01*
X0024079Y0029939D02*
X0024358D01*
Y0030061D01*
X0024594D01*
Y0029939D02*
X0024358D01*
X0024391Y0030617D02*
Y0030367D01*
X0024641D01*
X0024582Y0030426D01*
Y0030558D01*
X0024641Y0030617D01*
X0024391D01*
X0024450Y0030558D01*
Y0030426D01*
X0024582D01*
X0024450Y0030558D02*
X0024582D01*
X0024391Y0030367D02*
X0024450Y0030426D01*
X0024582Y0029442D02*
X0024641Y0029383D01*
X0024391D01*
X0024450Y0029442D01*
X0024582D01*
Y0029574D01*
X0024641Y0029633D01*
X0024391D01*
X0024450Y0029574D01*
X0024582D01*
X0024391Y0029633D02*
Y0029383D01*
X0024450Y0029442D02*
Y0029574D01*
X0024641Y0030617D02*
Y0030367D01*
Y0029633D02*
Y0029383D01*
X0024079Y0030061D02*
X0024358D01*
X0024560Y0027697D02*
X0026445D01*
X0026524Y0027776D02*
Y0027925D01*
X0024476D01*
Y0027776D01*
X0023838Y0028823D02*
X0024476D01*
Y0028500D01*
Y0027925D01*
X0026524Y0028500D02*
Y0027925D01*
X0026609Y0030617D02*
X0026550Y0030558D01*
X0024634Y0029077D02*
X0024953D01*
X0026047D02*
X0026366D01*
X0025375Y0030617D02*
Y0030367D01*
X0025625D01*
X0025566Y0030426D01*
Y0030558D01*
X0025625Y0030617D01*
X0025375D01*
X0025434Y0030558D01*
Y0030426D01*
X0025566D01*
X0025434Y0030558D02*
X0025566D01*
X0025375Y0030367D02*
X0025434Y0030426D01*
X0025566Y0029442D02*
X0025625Y0029383D01*
X0025375D01*
X0025434Y0029442D01*
X0025566D01*
Y0029574D01*
X0025625Y0029633D01*
X0025375D01*
X0025434Y0029574D01*
X0025566D01*
X0025375Y0029633D02*
Y0029383D01*
X0025434Y0029442D02*
Y0029574D01*
X0025625Y0030617D02*
Y0030367D01*
Y0029633D02*
Y0029383D01*
X0025937Y0029077D02*
Y0029939D01*
X0025063D01*
Y0029077D01*
X0025937D01*
X0026921Y0030923D02*
X0026047D01*
Y0030061D01*
X0026921D01*
Y0030923D01*
X0025937D02*
X0025063D01*
Y0030061D01*
X0025937D01*
Y0030923D01*
X0024634Y0028500D02*
X0024476D01*
X0027161Y0029059D02*
X0027697D01*
Y0030437D02*
Y0030673D01*
X0027161D01*
X0023838D02*
X0023303D01*
Y0030437D01*
Y0029059D01*
X0023838Y0030437D02*
X0023303D01*
X0031223Y0024404D02*
X0031095D01*
X0031182Y0024502D02*
Y0024368D01*
X0031128Y0024499D02*
Y0024371D01*
X0031226Y0024458D02*
X0031092D01*
X0026325Y0022925D02*
Y0024075D01*
X0025680D01*
Y0022925D01*
X0026325D01*
X0022919Y0016053D02*
X0023455D01*
Y0016212D01*
X0022919D01*
Y0014842D01*
X0022774D01*
Y0014520D01*
X0022616D01*
Y0014051D01*
X0020884D01*
Y0014520D01*
X0020726D01*
Y0013945D01*
X0022774D01*
Y0014520D01*
X0020581Y0016053D02*
X0020045D01*
Y0015002D01*
Y0014842D01*
X0020581D01*
Y0016212D01*
X0020045D01*
Y0016053D01*
X0020884Y0014520D02*
Y0015096D01*
X0020821D01*
Y0015959D01*
X0022679D01*
Y0015096D01*
X0022616D01*
X0022274D01*
X0021805D01*
Y0015443D01*
Y0015679D01*
X0021695D01*
Y0015443D01*
X0021805D01*
X0020884Y0015096D02*
X0021226D01*
X0021695D01*
Y0015443D01*
X0022274Y0015096D02*
Y0014986D01*
X0021226D01*
Y0015096D01*
X0022774Y0013945D02*
Y0013716D01*
X0020726D01*
Y0013945D01*
X0022616Y0014520D02*
Y0015096D01*
X0022919Y0015002D02*
X0023455D01*
Y0014842D01*
X0022919D01*
X0021133Y0015402D02*
X0021383D01*
Y0015652D01*
X0021324Y0015593D01*
X0021192D01*
X0021133Y0015652D01*
Y0015402D01*
X0021192Y0015461D01*
Y0015593D01*
X0021383Y0015652D02*
X0021133D01*
X0022308Y0015461D02*
X0022367Y0015402D01*
X0022117D01*
X0022176Y0015461D01*
X0022308D01*
Y0015593D01*
X0022367Y0015652D01*
X0022117D01*
X0022176Y0015593D01*
X0022308D01*
X0022117Y0015652D02*
Y0015402D01*
X0022176Y0015461D02*
Y0015593D01*
X0022367Y0015652D02*
Y0015402D01*
X0020581Y0015002D02*
X0020045D01*
X0020726Y0014520D02*
Y0014842D01*
X0020581D01*
X0021805Y0015679D02*
Y0015959D01*
X0021695Y0015679D02*
Y0015959D01*
X0021383Y0015402D02*
X0021324Y0015461D01*
X0021192D01*
X0021324D02*
Y0015593D01*
X0023455Y0015002D02*
Y0016053D01*
X0020581Y0016212D02*
X0022919D01*
X0031803Y0023343D02*
Y0023382D01*
X0032197D01*
Y0023343D01*
X0031803D01*
X0032157Y0023225D02*
X0032197D01*
Y0023775D01*
X0032157D01*
X0031843D02*
X0031803D01*
Y0023225D01*
X0031843D01*
X0039553Y0026593D02*
Y0026632D01*
X0039947D01*
Y0026593D01*
X0039553D01*
X0039907Y0026475D02*
X0039947D01*
Y0027025D01*
X0039907D01*
X0039593D02*
X0039553D01*
Y0026475D01*
X0039593D01*
X0041404Y0027034D02*
X0041277D01*
X0041364Y0027131D02*
Y0026998D01*
X0041310Y0027128D02*
Y0027001D01*
X0041407Y0027088D02*
X0041274D01*
X0033223Y0024404D02*
X0033095D01*
X0033182Y0024502D02*
Y0024368D01*
X0033128Y0024499D02*
Y0024371D01*
X0033226Y0024458D02*
X0033092D01*
X0050809Y0016085D02*
X0050897D01*
Y0016321D01*
X0050809D01*
Y0016498D01*
X0050651D01*
Y0016321D01*
X0050563D01*
Y0016085D01*
X0050651D01*
Y0015908D01*
X0050809D01*
Y0016085D01*
X0001423Y0016352D02*
Y0017226D01*
X0000561D01*
Y0016868D01*
X0000439D01*
Y0017226D01*
X-0000423D01*
Y0016352D01*
X0001423D01*
X-0001004Y0020116D02*
Y0020274D01*
X-0000677D01*
Y0022388D01*
X0001677D01*
Y0016112D01*
X-0000677D01*
Y0018226D01*
X-0001004D01*
Y0018384D01*
X-0001468D01*
Y0020116D01*
X-0001004D01*
X-0000423D01*
Y0019774D01*
Y0019305D01*
X0000439D01*
Y0020179D01*
X-0000423D01*
Y0020116D01*
X-0001004Y0018384D02*
X-0000423D01*
Y0018321D01*
X0000439D01*
Y0019195D01*
X-0000423D01*
Y0018726D01*
X-0000531D01*
Y0019774D01*
X-0000423D01*
X0001117Y0021836D02*
X0000867D01*
Y0021586D01*
X0001117D01*
Y0021836D01*
X0001058Y0021776D01*
X0000926D01*
Y0021645D01*
X0001058D01*
Y0021776D01*
X-0000058Y0021645D02*
X-0000117Y0021586D01*
Y0021836D01*
X-0000058Y0021776D01*
Y0021645D01*
X0000074D01*
X0000133Y0021586D01*
Y0021836D01*
X0000074Y0021776D01*
Y0021645D01*
X0000133Y0021836D02*
X-0000117D01*
X0000867D02*
X0000926Y0021776D01*
X0000867Y0021586D02*
X0000926Y0021645D01*
X0001117Y0021586D02*
X0001058Y0021645D01*
Y0016855D02*
X0001117Y0016914D01*
Y0016664D01*
X0001058Y0016723D01*
Y0016855D01*
X0000926D01*
X0000867Y0016914D01*
Y0016664D01*
X0000926Y0016723D01*
Y0016855D01*
X0001058Y0016723D02*
X0000926D01*
X-0000058D02*
X-0000117Y0016664D01*
Y0016914D01*
X-0000058Y0016855D01*
Y0016723D01*
X0000074D01*
X0000133Y0016664D01*
Y0016914D01*
X0000074Y0016855D01*
Y0016723D01*
X0001117Y0016914D02*
X0000867D01*
X0000133D02*
X-0000117D01*
X-0000058Y0016855D02*
X0000074D01*
X0001117Y0016664D02*
X0000867D01*
X0000133D02*
X-0000117D01*
X0000561Y0016868D02*
Y0016632D01*
X0000439D01*
Y0016868D01*
X0000561Y0016352D02*
Y0016632D01*
X0000439D02*
Y0016352D01*
X0001117Y0017899D02*
X0000867D01*
Y0017649D01*
X0000926Y0017708D01*
X0001058D01*
X0001117Y0017649D01*
Y0017899D01*
X0001058Y0017839D01*
X0000926D01*
Y0017708D01*
X0001058Y0017839D02*
Y0017708D01*
X0000867Y0017899D02*
X0000926Y0017839D01*
X-0000058Y0017708D02*
X-0000117Y0017649D01*
Y0017899D01*
X-0000058Y0017839D01*
Y0017708D01*
X0000074D01*
X0000133Y0017649D01*
Y0017899D01*
X0000074Y0017839D01*
Y0017708D01*
X0000133Y0017899D02*
X-0000117D01*
X-0000058Y0017839D02*
X0000074D01*
X0001117Y0017649D02*
X0000867D01*
X0000133D02*
X-0000117D01*
X0001117Y0019867D02*
X0000867D01*
Y0019617D01*
X0000926Y0019676D01*
X0001058D01*
X0001117Y0019617D01*
Y0019867D01*
X0001058Y0019808D01*
X0000926D01*
Y0019676D01*
X0001058Y0019808D02*
Y0019676D01*
X0000867Y0019867D02*
X0000926Y0019808D01*
X-0000058Y0019676D02*
X-0000117Y0019617D01*
Y0019867D01*
X-0000058Y0019808D01*
Y0019676D01*
X0000074D01*
X0000133Y0019617D01*
Y0019867D01*
X0000074Y0019808D01*
Y0019676D01*
X0000133Y0019867D02*
X-0000117D01*
X-0000058Y0019808D02*
X0000074D01*
X0001117Y0019617D02*
X0000867D01*
X0000133D02*
X-0000117D01*
X0001117Y0018883D02*
X0000867D01*
Y0018633D01*
X0000926Y0018692D01*
X0001058D01*
X0001117Y0018633D01*
Y0018883D01*
X0001058Y0018824D01*
X0000926D01*
Y0018692D01*
X0001058Y0018824D02*
Y0018692D01*
X0000867Y0018883D02*
X0000926Y0018824D01*
X-0000058Y0018692D02*
X-0000117Y0018633D01*
Y0018883D01*
X-0000058Y0018824D01*
Y0018692D01*
X0000074D01*
X0000133Y0018633D01*
Y0018883D01*
X0000074Y0018824D01*
Y0018692D01*
X0000133Y0018883D02*
X-0000117D01*
X-0000058Y0018824D02*
X0000074D01*
X0001117Y0018633D02*
X0000867D01*
X0000133D02*
X-0000117D01*
X-0001803Y0020200D02*
Y0018305D01*
X-0001724Y0018226D02*
X-0001579D01*
Y0020274D01*
X-0001724D01*
X-0001004D02*
X-0001579D01*
X-0001004Y0018226D02*
X-0001579D01*
X-0000423Y0018726D02*
Y0018384D01*
X0001117Y0020851D02*
X0000867D01*
Y0020601D01*
X0000926Y0020660D01*
X0001058D01*
X0001117Y0020601D01*
Y0020851D01*
X0001058Y0020792D01*
X0000926D01*
Y0020660D01*
X0001058Y0020792D02*
Y0020660D01*
X0000867Y0020851D02*
X0000926Y0020792D01*
X-0000058Y0020660D02*
X-0000117Y0020601D01*
Y0020851D01*
X-0000058Y0020792D01*
Y0020660D01*
X0000074D01*
X0000133Y0020601D01*
Y0020851D01*
X0000074Y0020792D01*
Y0020660D01*
X0000133Y0020851D02*
X-0000117D01*
X-0000058Y0020792D02*
X0000074D01*
X0001117Y0020601D02*
X0000867D01*
X0000133D02*
X-0000117D01*
X-0000423Y0021274D02*
X0000439D01*
Y0022148D01*
X-0000423D01*
Y0021274D01*
X0001423Y0017337D02*
Y0018211D01*
X0000561D01*
Y0017337D01*
X0001423D01*
X-0000423D02*
X0000439D01*
Y0018211D01*
X-0000423D01*
Y0017337D01*
X0001423Y0018321D02*
Y0019195D01*
X0000561D01*
Y0018321D01*
X0001423D01*
Y0019305D02*
Y0020179D01*
X0000561D01*
Y0019305D01*
X0001423D01*
Y0020289D02*
Y0021163D01*
X0000561D01*
Y0020289D01*
X0001423D01*
X-0000423D02*
X0000439D01*
Y0021163D01*
X-0000423D01*
Y0020289D01*
X0001423Y0021274D02*
Y0022148D01*
X0000561D01*
Y0021274D01*
X0001423D01*
X-0000058Y0021776D02*
X0000074D01*
X0000133Y0021586D02*
X-0000117D01*
X0037053Y0026593D02*
Y0026632D01*
X0037447D01*
Y0026593D01*
X0037053D01*
X0037407Y0026475D02*
X0037447D01*
Y0027025D01*
X0037407D01*
X0037093D02*
X0037053D01*
Y0026475D01*
X0037093D01*
X0037325Y0024175D02*
Y0025325D01*
X0036680D01*
Y0024175D01*
X0037325D01*
X0034947Y0024907D02*
Y0024868D01*
X0034553D01*
Y0024907D01*
X0034947D01*
X0034593Y0025025D02*
X0034553D01*
Y0024475D01*
X0034593D01*
X0034907D02*
X0034947D01*
Y0025025D01*
X0034907D01*
X0026404Y0027034D02*
X0026277D01*
X0026364Y0027131D02*
Y0026998D01*
X0026310Y0027128D02*
Y0027001D01*
X0026407Y0027088D02*
X0026274D01*
X0039825Y0024175D02*
Y0025325D01*
X0039180D01*
Y0024175D01*
X0039825D01*
X0029325D02*
Y0025325D01*
X0028680D01*
Y0024175D01*
X0029325D01*
X0016723Y0024404D02*
X0016595D01*
X0016682Y0024502D02*
Y0024368D01*
X0016628Y0024499D02*
Y0024371D01*
X0016726Y0024458D02*
X0016592D01*
X0031675Y0035575D02*
X0031500Y0035750D01*
X0027500D01*
X0025500D01*
Y0035575D01*
X0021325D01*
Y0038425D01*
X0031675D01*
Y0035575D01*
X0027500D01*
Y0035250D01*
X0032000D01*
Y0038900D01*
X0031500D01*
Y0038750D01*
X0027000D01*
Y0038900D01*
X0026000D01*
Y0038750D01*
X0021500D01*
Y0038900D01*
X0021000D01*
Y0035250D01*
X0022750D01*
X0022760D01*
Y0035340D01*
X0023240D01*
Y0035250D01*
X0023000D01*
X0022760D01*
X0023000Y0035340D02*
Y0035250D01*
X0023240D02*
X0023250D01*
Y0035350D01*
X0022750D01*
Y0035250D01*
X0031675Y0038425D02*
X0031500Y0038250D01*
Y0035750D01*
X0021325Y0035575D02*
X0021500Y0035750D01*
Y0038250D01*
X0021325Y0038425D01*
X0027500Y0035575D02*
Y0035750D01*
X0031500Y0038250D02*
X0021500D01*
X0025500Y0035575D02*
Y0035250D01*
X0027500D01*
X0023250D02*
X0025500D01*
X0021500Y0035750D02*
X0025500D01*
X0029875Y0036437D02*
Y0036562D01*
Y0036625D01*
X0030125D01*
Y0036562D01*
Y0036437D01*
Y0036375D01*
X0029875D01*
Y0036437D01*
X0030125D01*
X0028875D02*
Y0036562D01*
Y0036625D01*
X0029125D01*
Y0036562D01*
Y0036437D01*
Y0036375D01*
X0028875D01*
Y0036437D01*
X0029125D01*
X0027875D02*
Y0036562D01*
Y0036625D01*
X0028125D01*
Y0036562D01*
Y0036437D01*
Y0036375D01*
X0027875D01*
Y0036437D01*
X0028125D01*
X0026875D02*
Y0036562D01*
Y0036625D01*
X0027125D01*
Y0036562D01*
Y0036437D01*
Y0036375D01*
X0026875D01*
Y0036437D01*
X0027125D01*
X0025875D02*
Y0036562D01*
Y0036625D01*
X0026125D01*
Y0036562D01*
Y0036437D01*
Y0036375D01*
X0025875D01*
Y0036437D01*
X0026125D01*
X0024875D02*
Y0036562D01*
Y0036625D01*
X0025125D01*
Y0036562D01*
Y0036437D01*
Y0036375D01*
X0024875D01*
Y0036437D01*
X0025125D01*
X0023875D02*
Y0036562D01*
Y0036625D01*
X0024125D01*
Y0036562D01*
Y0036437D01*
Y0036375D01*
X0023875D01*
Y0036437D01*
X0024125D01*
X0023125Y0036562D02*
Y0036625D01*
X0022875D01*
Y0036562D01*
X0023125D01*
Y0036437D01*
X0022875D01*
Y0036375D01*
X0023125D01*
Y0036437D01*
X0022875Y0036562D02*
Y0036437D01*
X0029875Y0036562D02*
X0030125D01*
X0028875D02*
X0029125D01*
X0027875D02*
X0028125D01*
X0026875D02*
X0027125D01*
X0025875D02*
X0026125D01*
X0024875D02*
X0025125D01*
X0023875D02*
X0024125D01*
X0029875Y0037437D02*
Y0037562D01*
Y0037625D01*
X0030125D01*
Y0037562D01*
Y0037437D01*
Y0037375D01*
X0029875D01*
Y0037437D01*
X0030125D01*
X0028875D02*
Y0037562D01*
Y0037625D01*
X0029125D01*
Y0037562D01*
Y0037437D01*
Y0037375D01*
X0028875D01*
Y0037437D01*
X0029125D01*
X0027875D02*
Y0037562D01*
Y0037625D01*
X0028125D01*
Y0037562D01*
Y0037437D01*
Y0037375D01*
X0027875D01*
Y0037437D01*
X0028125D01*
X0026875D02*
Y0037562D01*
Y0037625D01*
X0027125D01*
Y0037562D01*
Y0037437D01*
Y0037375D01*
X0026875D01*
Y0037437D01*
X0027125D01*
X0025875D02*
Y0037562D01*
Y0037625D01*
X0026125D01*
Y0037562D01*
Y0037437D01*
Y0037375D01*
X0025875D01*
Y0037437D01*
X0026125D01*
X0024875D02*
Y0037562D01*
Y0037625D01*
X0025125D01*
Y0037562D01*
Y0037437D01*
Y0037375D01*
X0024875D01*
Y0037437D01*
X0025125D01*
X0023875D02*
Y0037562D01*
Y0037625D01*
X0024125D01*
Y0037562D01*
Y0037437D01*
Y0037375D01*
X0023875D01*
Y0037437D01*
X0024125D01*
X0022875Y0037562D02*
Y0037625D01*
X0023125D01*
Y0037562D01*
X0022875D01*
Y0037437D01*
X0023125D01*
Y0037375D01*
X0022875D01*
Y0037437D01*
X0023125D02*
Y0037562D01*
X0029875D02*
X0030125D01*
X0028875D02*
X0029125D01*
X0027875D02*
X0028125D01*
X0026875D02*
X0027125D01*
X0025875D02*
X0026125D01*
X0024875D02*
X0025125D01*
X0023875D02*
X0024125D01*
X0038366Y0008051D02*
X0038655D01*
X0040628Y0005258D02*
Y0004719D01*
X0038366Y0008051D02*
X0037947D01*
Y0007618D01*
X0036962D01*
Y0008878D01*
X0037947D01*
Y0008445D01*
X0038366D01*
X0040628Y0011776D02*
Y0011237D01*
X0038655Y0008445D02*
X0039105D01*
X0039534D01*
Y0008878D01*
X0040249D01*
X0040375D01*
Y0007618D01*
X0040924D01*
Y0008878D01*
X0041072D01*
X0043547D01*
X0043605D01*
X0044102D01*
X0044349D01*
X0045886D01*
X0046335D01*
Y0007618D01*
X0045886D01*
Y0008878D01*
X0040924Y0007618D02*
X0041072D01*
X0043547D01*
X0043605D01*
X0044102D01*
X0044349D01*
X0045886D01*
X0038655Y0008051D02*
X0039105D01*
X0039534D01*
Y0007618D01*
X0040249D01*
X0039983D01*
Y0008878D01*
X0040249D01*
Y0007618D01*
X0040375D01*
Y0008878D02*
X0040924D01*
X0040903Y0011340D02*
Y0011864D01*
X0044877Y0010525D02*
X0046830Y0009814D01*
X0047348Y0009075D02*
Y0008642D01*
X0047151Y0008445D02*
X0047549D01*
Y0008878D01*
X0048533D01*
Y0007618D01*
X0047549D01*
Y0008051D01*
X0047151D01*
X0046335D01*
X0047348Y0007854D02*
Y0007421D01*
X0046830Y0006681D02*
X0044877Y0005970D01*
X0040903Y0004632D02*
Y0005156D01*
X0046335Y0008445D02*
X0047151D01*
X0038655D02*
X0038366D01*
X0039534Y0008051D02*
Y0008445D01*
X0044102Y0007618D02*
Y0008878D01*
X0044349Y0007618D02*
Y0008878D01*
X0043605Y0007618D02*
Y0008878D01*
X0043547Y0007618D02*
Y0008878D01*
X0041072Y0007618D02*
Y0008878D01*
X0046532Y0008051D02*
Y0008445D01*
X0039337Y0008051D02*
Y0008445D01*
X0039983Y0008248D02*
X0044349D01*
X0040903Y0011340D02*
X0040902D01*
X0040900Y0011339D01*
X0040898Y0011338D01*
X0040896D01*
X0040895Y0011337D01*
X0040893D01*
X0040891Y0011336D01*
X0040890Y0011335D01*
X0040888D01*
X0040886Y0011334D01*
X0040884D01*
X0040883Y0011333D01*
X0040881D01*
X0040879Y0011332D01*
X0040877Y0011331D01*
X0040876D01*
X0040874Y0011330D01*
X0040872D01*
X0040870Y0011329D01*
X0040869D01*
X0040867Y0011328D01*
X0040865Y0011327D01*
X0040864D01*
X0040862Y0011326D01*
X0040860D01*
X0040858Y0011325D01*
X0040857Y0011324D01*
X0040855D01*
X0040853Y0011323D01*
X0040851D01*
X0040850Y0011322D01*
X0040848Y0011321D01*
X0040846D01*
X0040844Y0011320D01*
X0040843D01*
X0040841Y0011319D01*
X0040839D01*
X0040837Y0011318D01*
X0040836Y0011317D01*
X0040834D01*
X0040832Y0011316D01*
X0040831D01*
X0040829Y0011315D01*
X0040827Y0011314D01*
X0040825D01*
X0040824Y0011313D01*
X0040822D01*
X0040820Y0011312D01*
X0040818Y0011311D01*
X0040817D01*
X0040815Y0011310D01*
X0040813D01*
X0040811Y0011309D01*
X0040810Y0011308D01*
X0040808D01*
X0040806Y0011307D01*
X0040805Y0011306D01*
X0040803D01*
X0040801Y0011305D01*
X0040799D01*
X0040798Y0011304D01*
X0040796Y0011303D01*
X0040794D01*
X0040792Y0011302D01*
X0040791D01*
X0040789Y0011301D01*
X0040787Y0011300D01*
X0040785D01*
X0040784Y0011299D01*
X0040782Y0011298D01*
X0040780D01*
X0040778Y0011297D01*
X0040777Y0011296D01*
X0040775D01*
X0040773Y0011295D01*
X0040772D01*
X0040770Y0011294D01*
X0040768Y0011293D01*
X0040766D01*
X0040765Y0011292D01*
X0040763Y0011291D01*
X0040761D01*
X0040759Y0011290D01*
X0040758Y0011289D01*
X0040756D01*
X0040754Y0011288D01*
X0040752Y0011287D01*
X0040751D01*
X0040749Y0011286D01*
X0040747Y0011285D01*
X0040746D01*
X0040744Y0011284D01*
X0040742Y0011283D01*
X0040740D01*
X0040739Y0011282D01*
X0040737Y0011281D01*
X0040735D01*
X0040733Y0011280D01*
X0040732Y0011279D01*
X0040730D01*
X0040728Y0011278D01*
X0040727Y0011277D01*
X0040725D01*
X0040723Y0011276D01*
X0040721Y0011275D01*
X0040720D01*
X0040718Y0011274D01*
X0040716Y0011273D01*
X0040714D01*
X0040713Y0011272D01*
X0040711Y0011271D01*
X0040709Y0011270D01*
X0040707D01*
X0040706Y0011269D01*
X0040704Y0011268D01*
X0040702D01*
X0040701Y0011267D01*
X0040699Y0011266D01*
X0040697D01*
X0040695Y0011265D01*
X0040694Y0011264D01*
X0040692D01*
X0040690Y0011263D01*
X0040688Y0011262D01*
X0040687Y0011261D01*
X0040685D01*
X0040683Y0011260D01*
X0040681Y0011259D01*
X0040680D01*
X0040678Y0011258D01*
X0040676Y0011257D01*
X0040675D01*
X0040673Y0011256D01*
X0040671Y0011255D01*
X0040669Y0011254D01*
X0040668D01*
X0040666Y0011253D01*
X0040664Y0011252D01*
X0040662D01*
X0040661Y0011251D01*
X0040659Y0011250D01*
X0040657D01*
X0040656Y0011249D01*
X0040654Y0011248D01*
X0040652Y0011247D01*
X0040650D01*
X0040649Y0011246D01*
X0040647Y0011245D01*
X0040645D01*
X0040643Y0011244D01*
X0040642Y0011243D01*
X0040640Y0011242D01*
X0040638D01*
X0040636Y0011241D01*
X0040635Y0011240D01*
X0040633D01*
X0040631Y0011239D01*
X0040630Y0011238D01*
X0040628Y0011237D01*
Y0011776D02*
X0040630Y0011777D01*
X0040631Y0011778D01*
X0040633D01*
X0040635Y0011779D01*
X0040636D01*
X0040638Y0011780D01*
X0040640Y0011781D01*
X0040642D01*
X0040643Y0011782D01*
X0040645D01*
X0040647Y0011783D01*
X0040649Y0011784D01*
X0040650D01*
X0040652Y0011785D01*
X0040654Y0011786D01*
X0040656D01*
X0040657Y0011787D01*
X0040659D01*
X0040661Y0011788D01*
X0040662Y0011789D01*
X0040664D01*
X0040666Y0011790D01*
X0040668D01*
X0040669Y0011791D01*
X0040671Y0011792D01*
X0040673D01*
X0040675Y0011793D01*
X0040676D01*
X0040678Y0011794D01*
X0040680Y0011795D01*
X0040682D01*
X0040683Y0011796D01*
X0040685D01*
X0040687Y0011797D01*
X0040688Y0011798D01*
X0040690D01*
X0040692Y0011799D01*
X0040694D01*
X0040695Y0011800D01*
X0040697D01*
X0040699Y0011801D01*
X0040701Y0011802D01*
X0040702D01*
X0040704Y0011803D01*
X0040706D01*
X0040707Y0011804D01*
X0040709Y0011805D01*
X0040711D01*
X0040713Y0011806D01*
X0040714D01*
X0040716Y0011807D01*
X0040718D01*
X0040720Y0011808D01*
X0040721Y0011809D01*
X0040723D01*
X0040725Y0011810D01*
X0040727D01*
X0040728Y0011811D01*
X0040730Y0011812D01*
X0040732D01*
X0040733Y0011813D01*
X0040735D01*
X0040737Y0011814D01*
X0040739D01*
X0040740Y0011815D01*
X0040742D01*
X0040744Y0011816D01*
X0040746Y0011817D01*
X0040747D01*
X0040749Y0011818D01*
X0040751D01*
X0040753Y0011819D01*
X0040754D01*
X0040756Y0011820D01*
X0040758D01*
X0040759Y0011821D01*
X0040761Y0011822D01*
X0040763D01*
X0040765Y0011823D01*
X0040766D01*
X0040768Y0011824D01*
X0040770D01*
X0040772Y0011825D01*
X0040773D01*
X0040775Y0011826D01*
X0040777D01*
X0040779Y0011827D01*
X0040780Y0011828D01*
X0040782D01*
X0040784Y0011829D01*
X0040785D01*
X0040787Y0011830D01*
X0040789D01*
X0040791Y0011831D01*
X0040792D01*
X0040794Y0011832D01*
X0040796D01*
X0040798Y0011833D01*
X0040799D01*
X0040801Y0011834D01*
X0040803D01*
X0040805Y0011835D01*
X0040806D01*
X0040808Y0011836D01*
X0040810Y0011837D01*
X0040811D01*
X0040813Y0011838D01*
X0040815D01*
X0040817Y0011839D01*
X0040818D01*
X0040820Y0011840D01*
X0040822D01*
X0040824Y0011841D01*
X0040825D01*
X0040827Y0011842D01*
X0040829D01*
X0040831Y0011843D01*
X0040832D01*
X0040834Y0011844D01*
X0040836D01*
X0040837Y0011845D01*
X0040839D01*
X0040841Y0011846D01*
X0040843D01*
X0040844Y0011847D01*
X0040846D01*
X0040848Y0011848D01*
X0040850D01*
X0040851Y0011849D01*
X0040853D01*
X0040855Y0011850D01*
X0040857D01*
X0040858Y0011851D01*
X0040860D01*
X0040862Y0011852D01*
X0040864D01*
X0040865Y0011853D01*
X0040867D01*
X0040869Y0011854D01*
X0040870D01*
X0040872Y0011855D01*
X0040874D01*
X0040876Y0011856D01*
X0040877D01*
X0040879Y0011857D01*
X0040881D01*
X0040883Y0011858D01*
X0040884D01*
X0040886Y0011859D01*
X0040888D01*
X0040890Y0011860D01*
X0040891D01*
X0040893Y0011861D01*
X0040895D01*
X0040896Y0011862D01*
X0040898D01*
X0040900Y0011863D01*
X0040902D01*
X0040903Y0011864D01*
X0040628Y0005258D02*
X0040630D01*
X0040631Y0005257D01*
X0040633Y0005256D01*
X0040635Y0005255D01*
X0040636D01*
X0040638Y0005254D01*
X0040640Y0005253D01*
X0040642D01*
X0040643Y0005252D01*
X0040645Y0005251D01*
X0040647Y0005250D01*
X0040649D01*
X0040650Y0005249D01*
X0040652Y0005248D01*
X0040654D01*
X0040656Y0005247D01*
X0040657Y0005246D01*
X0040659D01*
X0040661Y0005245D01*
X0040662Y0005244D01*
X0040664Y0005243D01*
X0040666D01*
X0040668Y0005242D01*
X0040669Y0005241D01*
X0040671D01*
X0040673Y0005240D01*
X0040675Y0005239D01*
X0040676Y0005238D01*
X0040678D01*
X0040680Y0005237D01*
X0040681Y0005236D01*
X0040683D01*
X0040685Y0005235D01*
X0040687Y0005234D01*
X0040688D01*
X0040690Y0005233D01*
X0040692Y0005232D01*
X0040694Y0005231D01*
X0040695D01*
X0040697Y0005230D01*
X0040699Y0005229D01*
X0040701D01*
X0040702Y0005228D01*
X0040704Y0005227D01*
X0040706D01*
X0040707Y0005226D01*
X0040709Y0005225D01*
X0040711Y0005224D01*
X0040713D01*
X0040714Y0005223D01*
X0040716Y0005222D01*
X0040718D01*
X0040720Y0005221D01*
X0040721Y0005220D01*
X0040723D01*
X0040725Y0005219D01*
X0040727Y0005218D01*
X0040728D01*
X0040730Y0005217D01*
X0040732Y0005216D01*
X0040733D01*
X0040735Y0005215D01*
X0040737Y0005214D01*
X0040739D01*
X0040740Y0005213D01*
X0040742Y0005212D01*
X0040744D01*
X0040746Y0005211D01*
X0040747Y0005210D01*
X0040749D01*
X0040751Y0005209D01*
X0040752Y0005208D01*
X0040754D01*
X0040756Y0005207D01*
X0040758Y0005206D01*
X0040759D01*
X0040761Y0005205D01*
X0040763D01*
X0040765Y0005204D01*
X0040766Y0005203D01*
X0040768D01*
X0040770Y0005202D01*
X0040772Y0005201D01*
X0040773D01*
X0040775Y0005200D01*
X0040777Y0005199D01*
X0040778D01*
X0040780Y0005198D01*
X0040782D01*
X0040784Y0005197D01*
X0040785Y0005196D01*
X0040787D01*
X0040789Y0005195D01*
X0040791Y0005194D01*
X0040792D01*
X0040794Y0005193D01*
X0040796D01*
X0040798Y0005192D01*
X0040799Y0005191D01*
X0040801D01*
X0040803Y0005190D01*
X0040805Y0005189D01*
X0040806D01*
X0040808Y0005188D01*
X0040810D01*
X0040811Y0005187D01*
X0040813Y0005186D01*
X0040815D01*
X0040817Y0005185D01*
X0040818D01*
X0040820Y0005184D01*
X0040822Y0005183D01*
X0040824D01*
X0040825Y0005182D01*
X0040827D01*
X0040829Y0005181D01*
X0040831Y0005180D01*
X0040832D01*
X0040834Y0005179D01*
X0040836D01*
X0040837Y0005178D01*
X0040839Y0005177D01*
X0040841D01*
X0040843Y0005176D01*
X0040844D01*
X0040846Y0005175D01*
X0040848Y0005174D01*
X0040850D01*
X0040851Y0005173D01*
X0040853D01*
X0040855Y0005172D01*
X0040857D01*
X0040858Y0005171D01*
X0040860Y0005170D01*
X0040862D01*
X0040864Y0005169D01*
X0040865D01*
X0040867Y0005168D01*
X0040869Y0005167D01*
X0040870D01*
X0040872Y0005166D01*
X0040874D01*
X0040876Y0005165D01*
X0040877Y0005164D01*
X0040879D01*
X0040881Y0005163D01*
X0040883D01*
X0040884Y0005162D01*
X0040886D01*
X0040888Y0005161D01*
X0040890Y0005160D01*
X0040891D01*
X0040893Y0005159D01*
X0040895D01*
X0040896Y0005158D01*
X0040898Y0005157D01*
X0040900D01*
X0040902Y0005156D01*
X0040903D01*
Y0004632D02*
X0040902Y0004633D01*
X0040900D01*
X0040898Y0004634D01*
X0040896D01*
X0040895Y0004635D01*
X0040893D01*
X0040891Y0004636D01*
X0040890D01*
X0040888Y0004637D01*
X0040886D01*
X0040884Y0004638D01*
X0040883D01*
X0040881D01*
X0040879Y0004639D01*
X0040877D01*
X0040876Y0004640D01*
X0040874D01*
X0040872Y0004641D01*
X0040870D01*
X0040869Y0004642D01*
X0040867D01*
X0040865Y0004643D01*
X0040864D01*
X0040862Y0004644D01*
X0040860D01*
X0040858Y0004645D01*
X0040857D01*
X0040855Y0004646D01*
X0040853D01*
X0040851Y0004647D01*
X0040850D01*
X0040848Y0004648D01*
X0040846D01*
X0040844Y0004649D01*
X0040843D01*
X0040841Y0004650D01*
X0040839D01*
X0040837Y0004651D01*
X0040836D01*
X0040834Y0004652D01*
X0040832Y0004653D01*
X0040831D01*
X0040829Y0004654D01*
X0040827D01*
X0040825Y0004655D01*
X0040824D01*
X0040822Y0004656D01*
X0040820D01*
X0040818Y0004657D01*
X0040817D01*
X0040815Y0004658D01*
X0040813D01*
X0040811Y0004659D01*
X0040810D01*
X0040808Y0004660D01*
X0040806D01*
X0040805Y0004661D01*
X0040803D01*
X0040801Y0004662D01*
X0040799D01*
X0040798Y0004663D01*
X0040796D01*
X0040794Y0004664D01*
X0040792D01*
X0040791Y0004665D01*
X0040789Y0004666D01*
X0040787D01*
X0040785Y0004667D01*
X0040784D01*
X0040782Y0004668D01*
X0040780D01*
X0040779Y0004669D01*
X0040777D01*
X0040775Y0004670D01*
X0040773D01*
X0040772Y0004671D01*
X0040770D01*
X0040768Y0004672D01*
X0040766Y0004673D01*
X0040765D01*
X0040763Y0004674D01*
X0040761D01*
X0040759Y0004675D01*
X0040758D01*
X0040756Y0004676D01*
X0040754D01*
X0040753Y0004677D01*
X0040751Y0004678D01*
X0040749D01*
X0040747Y0004679D01*
X0040746D01*
X0040744Y0004680D01*
X0040742D01*
X0040740Y0004681D01*
X0040739Y0004682D01*
X0040737D01*
X0040735Y0004683D01*
X0040733D01*
X0040732Y0004684D01*
X0040730D01*
X0040728Y0004685D01*
X0040727Y0004686D01*
X0040725D01*
X0040723Y0004687D01*
X0040721D01*
X0040720Y0004688D01*
X0040718D01*
X0040716Y0004689D01*
X0040714Y0004690D01*
X0040713D01*
X0040711Y0004691D01*
X0040709D01*
X0040707Y0004692D01*
X0040706Y0004693D01*
X0040704D01*
X0040702Y0004694D01*
X0040701D01*
X0040699Y0004695D01*
X0040697Y0004696D01*
X0040695D01*
X0040694Y0004697D01*
X0040692D01*
X0040690Y0004698D01*
X0040688D01*
X0040687Y0004699D01*
X0040685Y0004700D01*
X0040683D01*
X0040682Y0004701D01*
X0040680D01*
X0040678Y0004702D01*
X0040676Y0004703D01*
X0040675D01*
X0040673Y0004704D01*
X0040671D01*
X0040669Y0004705D01*
X0040668Y0004706D01*
X0040666D01*
X0040664Y0004707D01*
X0040662D01*
X0040661Y0004708D01*
X0040659Y0004709D01*
X0040657D01*
X0040656Y0004710D01*
X0040654D01*
X0040652Y0004711D01*
X0040650Y0004712D01*
X0040649D01*
X0040647Y0004713D01*
X0040645D01*
X0040643Y0004714D01*
X0040642Y0004715D01*
X0040640D01*
X0040638Y0004716D01*
X0040636D01*
X0040635Y0004717D01*
X0040633Y0004718D01*
X0040631D01*
X0040630Y0004719D01*
X0040628D01*
X0014919Y0029059D02*
X0015455D01*
Y0030437D02*
Y0030673D01*
X0014919D01*
X0012581D02*
X0012045D01*
Y0030437D01*
Y0029059D01*
X0012581Y0030437D02*
X0012045D01*
X0012884Y0028031D02*
X0014616D01*
Y0028500D01*
Y0029077D01*
X0014679D01*
Y0029939D01*
X0013805D01*
Y0029077D01*
X0014274D01*
Y0028966D01*
X0013226D01*
Y0029077D01*
X0013695D01*
Y0029939D01*
X0013337D01*
Y0030061D01*
X0013695D01*
Y0030923D01*
X0012821D01*
Y0029077D01*
X0012884D01*
Y0028500D01*
Y0028031D01*
X0012581Y0029059D02*
X0012045D01*
Y0028823D01*
X0012581D01*
Y0031177D01*
X0014919D01*
Y0028823D01*
X0015455D01*
Y0029059D01*
Y0030437D01*
X0014919D01*
X0014308Y0030426D02*
X0014367Y0030367D01*
Y0030617D01*
X0014117D01*
X0014176Y0030558D01*
Y0030426D01*
X0014308D01*
Y0030558D01*
X0014176D01*
X0014367Y0030367D02*
X0014117D01*
X0014176Y0030426D01*
X0014308Y0029442D02*
X0014367Y0029383D01*
X0014117D01*
X0014176Y0029442D01*
X0014308D01*
Y0029574D01*
X0014367Y0029633D01*
X0014117D01*
X0014176Y0029574D01*
X0014308D01*
X0014117Y0030617D02*
Y0030367D01*
Y0029633D02*
Y0029383D01*
X0014176Y0029442D02*
Y0029574D01*
X0014367Y0029633D02*
Y0029383D01*
X0012821Y0029939D02*
X0013100D01*
Y0030061D01*
X0013337D01*
Y0029939D02*
X0013100D01*
X0013133Y0030617D02*
Y0030367D01*
X0013383D01*
X0013324Y0030426D01*
Y0030558D01*
X0013383Y0030617D01*
X0013133D01*
X0013192Y0030558D01*
Y0030426D01*
X0013324D01*
X0013192Y0030558D02*
X0013324D01*
X0013133Y0030367D02*
X0013192Y0030426D01*
X0013324Y0029442D02*
X0013383Y0029383D01*
X0013133D01*
X0013192Y0029442D01*
X0013324D01*
Y0029574D01*
X0013383Y0029633D01*
X0013133D01*
X0013192Y0029574D01*
X0013324D01*
X0013133Y0029633D02*
Y0029383D01*
X0013192Y0029442D02*
Y0029574D01*
X0013383Y0030617D02*
Y0030367D01*
Y0029633D02*
Y0029383D01*
X0012821Y0030061D02*
X0013100D01*
X0012726Y0027776D02*
Y0027925D01*
X0014774D01*
Y0027776D01*
X0014695Y0027697D02*
X0012800Y0027700D01*
X0012581Y0028823D02*
X0012726D01*
Y0028500D01*
Y0027925D01*
X0014616Y0028500D02*
X0014774D01*
Y0027925D01*
X0014367Y0030617D02*
X0014308Y0030558D01*
X0012884Y0029077D02*
X0013226D01*
X0014274D02*
X0014616D01*
X0014679Y0030923D02*
X0013805D01*
Y0030061D01*
X0014679D01*
Y0030923D01*
X0014919Y0028823D02*
X0014774D01*
Y0028500D01*
X0012884D02*
X0012726D01*
X0019697Y0026407D02*
Y0026368D01*
X0019303D01*
Y0026407D01*
X0019697D01*
X0019343Y0026525D02*
X0019303D01*
Y0025975D01*
X0019343D01*
X0019657D02*
X0019697D01*
Y0026525D01*
X0019657D01*
X0039378Y0015329D02*
X0039339D01*
X0039299Y0015289D02*
Y0015092D01*
X0039417Y0014974D02*
X0039496D01*
X0039378Y0015092D02*
Y0015762D01*
Y0015840D01*
X0038984D01*
Y0015762D01*
X0039378D01*
X0039496Y0015880D01*
X0038256D01*
X0038138Y0015762D01*
X0038984D01*
X0038256Y0015880D02*
Y0015998D01*
X0037508D01*
Y0015880D01*
X0036504D01*
Y0015092D01*
X0036425D01*
Y0015998D01*
X0037016D01*
Y0016155D01*
X0036425D01*
Y0015998D01*
X0039575Y0016155D02*
Y0015998D01*
X0038984D01*
Y0016155D01*
X0039575D01*
X0038984D02*
X0037016D01*
X0038787D02*
Y0016943D01*
X0038669D01*
X0038551D01*
Y0016155D01*
X0037095D01*
X0037508Y0015880D02*
X0037626Y0015762D01*
X0037016D01*
Y0015840D01*
X0036622D01*
Y0015762D01*
Y0015092D01*
X0036504Y0014974D02*
X0036583D01*
X0036701Y0015092D02*
Y0015289D01*
X0039496Y0014974D02*
X0039575D01*
Y0014581D01*
X0036425D01*
Y0014974D01*
Y0015092D01*
X0037213Y0016155D02*
Y0016943D01*
X0037095D01*
X0036976D01*
Y0016155D01*
X0038000Y0014581D02*
Y0013793D01*
X0037882D01*
X0037764D01*
Y0014581D01*
X0039575Y0014974D02*
Y0015092D01*
X0039496D01*
Y0015880D01*
X0038158Y0015998D02*
Y0015939D01*
X0038039Y0015821D01*
Y0015762D01*
X0037724D01*
Y0015821D01*
Y0015998D01*
X0038039Y0015821D02*
Y0015998D01*
Y0015762D02*
X0038138D01*
X0037626D02*
X0037724D01*
X0037606Y0015998D02*
Y0015939D01*
X0037724Y0015821D01*
X0036504Y0015880D02*
X0036622Y0015762D01*
X0037016D01*
X0036425Y0014974D02*
X0036504D01*
X0036622Y0015329D02*
X0036661D01*
X0039575Y0015998D02*
Y0015092D01*
X0050063Y0016912D02*
Y0016675D01*
X0050151D01*
Y0016498D01*
X0050309D01*
Y0016675D01*
X0050397D01*
Y0016912D01*
X0050309D01*
Y0017089D01*
X0050151D01*
Y0016912D01*
X0050063D01*
X0049809Y0016085D02*
X0049897D01*
Y0016321D01*
X0049809D01*
Y0016498D01*
X0049651D01*
Y0016321D01*
X0049563D01*
Y0016085D01*
X0049651D01*
Y0015908D01*
X0049809D01*
Y0016085D01*
X0049063Y0016912D02*
Y0016675D01*
X0049151D01*
Y0016498D01*
X0049309D01*
Y0016675D01*
X0049397D01*
Y0016912D01*
X0049309D01*
Y0017089D01*
X0049151D01*
Y0016912D01*
X0049063D01*
X0048809Y0016085D02*
X0048897D01*
Y0016321D01*
X0048809D01*
Y0016498D01*
X0048651D01*
Y0016321D01*
X0048563D01*
Y0016085D01*
X0048651D01*
Y0015908D01*
X0048809D01*
Y0016085D01*
X0048063Y0016912D02*
Y0016675D01*
X0048151D01*
Y0016498D01*
X0048309D01*
Y0016675D01*
X0048397D01*
Y0016912D01*
X0048309D01*
Y0017089D01*
X0048151D01*
Y0016912D01*
X0048063D01*
X0047809Y0016085D02*
X0047897D01*
Y0016321D01*
X0047809D01*
Y0016498D01*
X0047651D01*
Y0016321D01*
X0047563D01*
Y0016085D01*
X0047651D01*
Y0015908D01*
X0047809D01*
Y0016085D01*
G01X0002340Y0013783D02*
G03X0002242Y0013911I0000132J0000000D01*
Y0013655D02*
G03X0002340Y0013783I0000034J0000128D01*
G01X0002370Y0011750D02*
G03X0002242Y0011878I0000128J0000000D01*
Y0011622D02*
G03X0002370Y0011750I0000000J0000128D01*
G01X0002340Y0009716D02*
G03X0002242Y0009844I0000132J0000000D01*
Y0009588D02*
G03X0002340Y0009716I0000034J0000128D01*
G01X0031945Y0012697D02*
G03X0032024Y0012776I0000000J0000079D01*
G01X0030054Y0012697D02*
G03X0030060Y0012697I0000000J0000074D01*
G01X0029980Y0012771D02*
G03X0030054Y0012697I0000074J0000000D01*
G01X0029980Y0012777D02*
G03X0029980Y0012771I0000074J0000006D01*
G01X0052531Y0006433D02*
G03X0052570Y0006472I0000000J0000039D01*
G01X0052177Y0006551D02*
G03X0052295Y0006433I0000118J0000000D01*
G01X0052886Y0004854D02*
G03X0052964Y0004736I0000128J0000000D01*
Y0004972D02*
G03X0052886Y0004854I0000050J0000118D01*
G01X0052571Y0005896D02*
G03X0052690Y0006015I0000000J0000119D01*
G01X0052453D02*
G03X0052571Y0005897I0000118J0000000D01*
Y0006133D02*
G03X0052453Y0006015I0000000J0000118D01*
G01X0052689D02*
G03X0052571Y0006133I0000118J0000000D01*
Y0005134D02*
G03X0052689Y0005252I0000000J0000118D01*
G01X0052453D02*
G03X0052571Y0005134I0000118J0000000D01*
Y0005370D02*
G03X0052453Y0005252I0000000J0000118D01*
G01X0052689D02*
G03X0052571Y0005370I0000118J0000000D01*
G01X0052170Y0004537D02*
G03X0052171Y0004522I0000086J0000000D01*
G01X0052256Y0004623D02*
G03X0052170Y0004537I0000000J0000086D01*
G01X0052271Y0004622D02*
G03X0052256Y0004623I0000015J0000085D01*
G01X0036340Y0026994D02*
G03X0036411Y0027065I0000000J0000071D01*
G01X0036270D02*
G03X0036340Y0026995I0000070J0000000D01*
Y0027135D02*
G03X0036270Y0027065I0000000J0000070D01*
G01X0036411D02*
G03X0036340Y0027136I0000071J0000000D01*
G01X0020445Y0027724D02*
G03X0020524Y0027803I0000000J0000079D01*
G01X0018470Y0027794D02*
G03X0018540Y0027724I0000071J0000002D01*
G01X0021409Y0024364D02*
G03X0021480Y0024435I0000000J0000071D01*
G01X0021338D02*
G03X0021409Y0024364I0000071J0000000D01*
Y0024506D02*
G03X0021338Y0024435I0000000J0000071D01*
G01X0021480D02*
G03X0021409Y0024506I0000071J0000000D01*
G01X0038840Y0026994D02*
G03X0038911Y0027065I0000000J0000071D01*
G01X0038770D02*
G03X0038840Y0026995I0000070J0000000D01*
Y0027135D02*
G03X0038770Y0027065I0000000J0000070D01*
G01X0038911D02*
G03X0038840Y0027136I0000071J0000000D01*
G01X0000539Y0004622D02*
G03X0000500Y0004583I0000000J0000039D01*
G01X0000894Y0004504D02*
G03X0000776Y0004622I0000118J0000000D01*
G01X0000185Y0006201D02*
G03X0000106Y0006319I0000128J0000000D01*
Y0006083D02*
G03X0000185Y0006201I0000049J0000118D01*
G01X0000500Y0005159D02*
G03X0000381Y0005040I0000000J0000119D01*
G01X0000618D02*
G03X0000500Y0005158I0000118J0000000D01*
Y0004922D02*
G03X0000618Y0005040I0000000J0000118D01*
G01X0000382D02*
G03X0000500Y0004922I0000118J0000000D01*
Y0005921D02*
G03X0000382Y0005803I0000000J0000118D01*
G01X0000618D02*
G03X0000500Y0005921I0000118J0000000D01*
Y0005685D02*
G03X0000618Y0005803I0000000J0000118D01*
G01X0000382D02*
G03X0000500Y0005685I0000118J0000000D01*
G01X0000901Y0006518D02*
G03X0000900Y0006533I0000086J0000000D01*
G01X0000815Y0006432D02*
G03X0000901Y0006518I0000000J0000086D01*
G01X0000800Y0006433D02*
G03X0000815Y0006432I0000015J0000085D01*
G01X0026659Y0024364D02*
G03X0026730Y0024435I0000000J0000071D01*
G01X0026588D02*
G03X0026659Y0024364I0000071J0000000D01*
Y0024506D02*
G03X0026588Y0024435I0000000J0000071D01*
G01X0026730D02*
G03X0026659Y0024506I0000071J0000000D01*
G01X0030840Y0026994D02*
G03X0030911Y0027065I0000000J0000071D01*
G01X0030770D02*
G03X0030840Y0026995I0000070J0000000D01*
Y0027135D02*
G03X0030770Y0027065I0000000J0000070D01*
G01X0030911D02*
G03X0030840Y0027136I0000071J0000000D01*
G01X0032195Y0027724D02*
G03X0032274Y0027803I0000000J0000079D01*
G01X0030292Y0027724D02*
G03X0030305Y0027724I0000000J0000068D01*
G01X0030224Y0027792D02*
G03X0030292Y0027724I0000068J0000000D01*
G01X0030225Y0027804D02*
G03X0030224Y0027792I0000067J0000012D01*
G01X0021090Y0026994D02*
G03X0021161Y0027065I0000000J0000071D01*
G01X0021020D02*
G03X0021090Y0026995I0000070J0000000D01*
Y0027135D02*
G03X0021020Y0027065I0000000J0000070D01*
G01X0021161D02*
G03X0021090Y0027136I0000071J0000000D01*
G01X0024480Y0027777D02*
G03X0024560Y0027697I0000083J0000003D01*
G01X0026445D02*
G03X0026524Y0027776I0000000J0000079D01*
G01X0031159Y0024364D02*
G03X0031230Y0024435I0000000J0000071D01*
G01X0031088D02*
G03X0031159Y0024364I0000071J0000000D01*
Y0024506D02*
G03X0031088Y0024435I0000000J0000071D01*
G01X0031230D02*
G03X0031159Y0024506I0000071J0000000D01*
G01X0041340Y0026994D02*
G03X0041411Y0027065I0000000J0000071D01*
G01X0041270D02*
G03X0041340Y0026995I0000070J0000000D01*
Y0027135D02*
G03X0041270Y0027065I0000000J0000070D01*
G01X0041411D02*
G03X0041340Y0027136I0000071J0000000D01*
G01X0033159Y0024364D02*
G03X0033230Y0024435I0000000J0000071D01*
G01X0033088D02*
G03X0033159Y0024364I0000071J0000000D01*
Y0024506D02*
G03X0033088Y0024435I0000000J0000071D01*
G01X0033230D02*
G03X0033159Y0024506I0000071J0000000D01*
G01X-0001733Y0020270D02*
G03X-0001803Y0020200I0000004J0000074D01*
Y0018305D02*
G03X-0001724Y0018226I0000079J0000000D01*
G01X0026340Y0026994D02*
G03X0026411Y0027065I0000000J0000071D01*
G01X0026270D02*
G03X0026340Y0026995I0000070J0000000D01*
Y0027135D02*
G03X0026270Y0027065I0000000J0000070D01*
G01X0026411D02*
G03X0026340Y0027136I0000071J0000000D01*
G01X0016659Y0024364D02*
G03X0016730Y0024435I0000000J0000071D01*
G01X0016588D02*
G03X0016659Y0024364I0000071J0000000D01*
Y0024506D02*
G03X0016588Y0024435I0000000J0000071D01*
G01X0016730D02*
G03X0016659Y0024506I0000071J0000000D01*
G01X0038655Y0008051D02*
G03X0040628Y0005258I0003243J0000197D01*
G01X0038171Y0007832D02*
G03X0040628Y0004719I0003727J0000416D01*
G01X0038169Y0007854D02*
G03X0038171Y0007832I0000197J0000000D01*
G01X0038366Y0008051D02*
G03X0038169Y0007854I0000000J0000197D01*
Y0008642D02*
G03X0038366Y0008445I0000197J0000000D01*
G01X0038171Y0008663D02*
G03X0038170Y0008642I0000195J0000021D01*
G01X0040628Y0011776D02*
G03X0038171Y0008663I0001270J0003528D01*
G01X0040628Y0011237D02*
G03X0038655Y0008445I0001270J0002989D01*
G01X0045084Y0008878D02*
G03X0041898Y0011496I0003186J0000630D01*
G03X0040903Y0011340I0000000J0003248D01*
G01X0041898Y0011998D02*
G03X0040903Y0011864I0000000J0003750D01*
G01X0044877Y0010525D02*
G03X0041898Y0011998I0002979J0002277D01*
G01X0047348Y0009075D02*
G03X0046830Y0009814I0000787J0000000D01*
G01X0047151Y0008445D02*
G03X0047348Y0008642I0000000J0000197D01*
Y0007854D02*
G03X0047151Y0008051I0000197J0000000D01*
G01X0046830Y0006681D02*
G03X0047348Y0007421I0000269J0000740D01*
G01X0041898Y0004498D02*
G03X0044877Y0005970I0000000J0003750D01*
G01X0040903Y0004632D02*
G03X0041898Y0004498I0000995J0003616D01*
G01X0040903Y0005156D02*
G03X0041898Y0005000I0000995J0003092D01*
G03X0045084Y0007618I0000000J0003248D01*
G01X0041898Y0011047D02*
G03X0039105Y0008445I0000000J0002799D01*
G01X0044625Y0008878D02*
G03X0041898Y0011047I0002727J0000630D01*
Y0005449D02*
G03X0044625Y0007618I0000000J0002799D01*
G01X0039105Y0008051D02*
G03X0041898Y0005448I0002793J0000197D01*
Y0007008D02*
G03X0042966Y0007618I0000000J0001240D01*
G01X0040829D02*
G03X0041898Y0007007I0001069J0000630D01*
Y0009488D02*
G03X0040829Y0008878I0000000J0001240D01*
G01X0042966D02*
G03X0041898Y0009488I0001068J0000630D01*
G01X0014695Y0027697D02*
G03X0014774Y0027776I0000000J0000079D01*
G01X0012730Y0027770D02*
G03X0012800Y0027700I0000080J0000010D01*
G01X0039339Y0015329D02*
G03X0039299Y0015289I0000000J0000040D01*
Y0015092D02*
G03X0039417Y0014974I0000118J0000000D01*
G01X0039378Y0015092D02*
G03X0039496Y0014974I0000118J0000000D01*
G01X0036504D02*
G03X0036622Y0015092I0000000J0000118D01*
G01X0036583Y0014974D02*
G03X0036701Y0015092I0000000J0000118D01*
G01X0037764Y0015368D02*
G03X0037882Y0015250I0000118J0000000D01*
Y0015486D02*
G03X0037764Y0015368I0000000J0000118D01*
G01X0038000D02*
G03X0037882Y0015486I0000118J0000000D01*
Y0015250D02*
G03X0038000Y0015368I0000000J0000118D01*
G01X0038551D02*
G03X0038669Y0015250I0000118J0000000D01*
Y0015486D02*
G03X0038551Y0015368I0000000J0000118D01*
G01X0038787D02*
G03X0038669Y0015486I0000118J0000000D01*
Y0015250D02*
G03X0038787Y0015368I0000000J0000118D01*
G01X0036976D02*
G03X0037095Y0015249I0000119J0000000D01*
Y0015486D02*
G03X0036977Y0015368I0000000J0000118D01*
G01X0037213D02*
G03X0037095Y0015486I0000118J0000000D01*
Y0015250D02*
G03X0037213Y0015368I0000000J0000118D01*
G01X0036706Y0015290D02*
G03X0036666Y0015330I0000040J0000000D01*
G54D89*
G01X0036340Y0026400D02*
Y0024900D01*
X0035150D01*
Y0026610D01*
X0036130D01*
X0036340Y0026400D01*
X0021410Y0025100D02*
Y0026600D01*
X0022600D01*
Y0024890D01*
X0021620D01*
X0021410Y0025100D01*
X0038840Y0026400D02*
Y0024900D01*
X0037650D01*
Y0026610D01*
X0038630D01*
X0038840Y0026400D01*
X0026660Y0025100D02*
Y0026600D01*
X0027850D01*
Y0024890D01*
X0026870D01*
X0026660Y0025100D01*
X0030840Y0026400D02*
Y0024900D01*
X0029650D01*
Y0026610D01*
X0030630D01*
X0030840Y0026400D01*
X0021090D02*
Y0024900D01*
X0019900D01*
Y0026610D01*
X0020880D01*
X0021090Y0026400D01*
X0031160Y0025100D02*
Y0026600D01*
X0032350D01*
Y0024890D01*
X0031370D01*
X0031160Y0025100D01*
X0041340Y0026400D02*
Y0024900D01*
X0040150D01*
Y0026610D01*
X0041130D01*
X0041340Y0026400D01*
X0033160Y0025100D02*
Y0026600D01*
X0034350D01*
Y0024890D01*
X0033370D01*
X0033160Y0025100D01*
X0026340Y0026400D02*
Y0024900D01*
X0025150D01*
Y0026610D01*
X0026130D01*
X0026340Y0026400D01*
X0016660Y0025100D02*
Y0026600D01*
X0017850D01*
Y0024890D01*
X0016870D01*
X0016660Y0025100D01*
G54D90*
G01X0016728Y0018799D02*
X0016334Y0019193D01*
X0015447Y0020501D02*
X0015250D01*
Y0020572D02*
Y0020473D01*
X0015447D02*
X0015250D01*
X0015447Y0020572D02*
Y0020473D01*
Y0020572D02*
X0015250D01*
X0015436D02*
Y0020473D01*
X0015383Y0020572D02*
Y0020473D01*
X0015331Y0020572D02*
Y0020473D01*
X0015278Y0020572D02*
Y0020473D01*
X0015447Y0020554D02*
X0015250D01*
X0019681Y0020276D02*
X0014957D01*
X0019387Y0020501D02*
X0019190D01*
X0019387Y0020572D02*
X0019190D01*
X0019387D02*
Y0020473D01*
X0019190D01*
Y0020572D02*
Y0020473D01*
X0019376Y0020572D02*
Y0020473D01*
X0019323Y0020572D02*
Y0020473D01*
X0019270Y0020572D02*
Y0020473D01*
X0019217Y0020572D02*
Y0020473D01*
X0019387Y0020554D02*
X0019190D01*
X0019092Y0018799D02*
X0018698Y0019193D01*
X0016334D02*
Y0018799D01*
X0016728D01*
Y0019193D01*
X0016334D01*
X0019669Y0020276D02*
Y0019784D01*
X0019616Y0020276D02*
Y0019784D01*
X0019687Y0020234D02*
X0019589D01*
X0019687Y0020181D02*
X0019589D01*
X0019687Y0020128D02*
X0019589D01*
X0019687Y0020075D02*
X0019589D01*
X0019687Y0020023D02*
X0019589D01*
X0019687Y0019970D02*
X0019589D01*
X0019687Y0019917D02*
X0019589D01*
X0019687Y0019864D02*
X0019589D01*
X0019687Y0019811D02*
X0019589D01*
X0019687Y0020276D02*
X0019589D01*
X0019687D02*
Y0019784D01*
X0019589D01*
Y0020276D02*
Y0019784D01*
X0017122Y0019193D02*
Y0018799D01*
X0017516D01*
Y0019193D01*
X0017122D01*
X0017516Y0018799D02*
X0017122Y0019193D01*
Y0018799D02*
X0017516Y0019193D01*
X0015546Y0019587D02*
X0015940Y0019981D01*
X0016334D02*
Y0019587D01*
X0016728D01*
Y0019981D01*
X0016334D01*
X0016728Y0019587D02*
X0016334Y0019981D01*
Y0019587D02*
X0016728Y0019981D01*
X0017122D02*
Y0019587D01*
X0017516D01*
Y0019981D01*
X0017122D01*
X0017516Y0019587D02*
X0017122Y0019981D01*
X0017910D02*
Y0019587D01*
X0018304D01*
Y0019981D01*
X0017910D01*
X0019669Y0019094D02*
Y0018602D01*
X0019616Y0019094D02*
Y0018602D01*
X0019687Y0019052D02*
X0019589D01*
X0019687Y0018999D02*
X0019589D01*
X0019687Y0018947D02*
X0019589D01*
X0019687Y0018894D02*
X0019589D01*
X0019687Y0018841D02*
X0019589D01*
X0019687Y0018788D02*
X0019589D01*
X0019687Y0018735D02*
X0019589D01*
X0019687Y0018683D02*
X0019589D01*
X0019687Y0018630D02*
X0019589D01*
Y0019094D02*
Y0018602D01*
X0019687D02*
X0019589D01*
X0019687Y0019094D02*
Y0018602D01*
Y0019094D02*
X0019589D01*
X0015893Y0018306D02*
Y0018208D01*
X0015840Y0018306D02*
Y0018208D01*
X0015788Y0018306D02*
Y0018208D01*
X0015735Y0018306D02*
Y0018208D01*
X0015682Y0018306D02*
Y0018208D01*
X0015629Y0018306D02*
Y0018208D01*
X0015576Y0018306D02*
Y0018208D01*
X0015524Y0018306D02*
Y0018208D01*
X0015471Y0018306D02*
Y0018208D01*
X0015935Y0018289D02*
X0015443D01*
X0015935Y0018236D02*
X0015443D01*
Y0018306D02*
Y0018208D01*
X0015935Y0018306D02*
X0015443D01*
X0015935D02*
Y0018208D01*
X0015443D01*
X0018304Y0018799D02*
X0017910Y0019193D01*
Y0018799D02*
X0018304Y0019193D01*
X0015546Y0019981D02*
Y0019587D01*
X0015940D01*
Y0019981D01*
X0015546D01*
X0018698D02*
Y0019587D01*
X0019092D01*
Y0019981D01*
X0018698D01*
X0019092Y0019587D02*
X0018698Y0019981D01*
Y0019587D02*
X0019092Y0019981D01*
X0017910Y0018503D02*
X0019681D01*
X0016728D02*
X0014957D01*
X0015031Y0020276D02*
Y0019784D01*
X0014978Y0020276D02*
Y0019784D01*
X0015048Y0020234D02*
X0014950D01*
X0015048Y0020181D02*
X0014950D01*
X0015048Y0020128D02*
X0014950D01*
X0015048Y0020075D02*
X0014950D01*
X0015048Y0020023D02*
X0014950D01*
X0015048Y0019970D02*
X0014950D01*
X0015048Y0019917D02*
X0014950D01*
X0015048Y0019864D02*
X0014950D01*
X0015048Y0019811D02*
X0014950D01*
X0015048Y0020276D02*
X0014950D01*
X0015048D02*
Y0019784D01*
X0014950D01*
Y0020276D02*
Y0019784D01*
X0015031Y0019094D02*
Y0018602D01*
X0014978Y0019094D02*
Y0018602D01*
X0015048Y0019052D02*
X0014950D01*
X0015048Y0018999D02*
X0014950D01*
X0015048Y0018947D02*
X0014950D01*
X0015048Y0018894D02*
X0014950D01*
X0015048Y0018841D02*
X0014950D01*
X0015048Y0018788D02*
X0014950D01*
X0015048Y0018735D02*
X0014950D01*
X0015048Y0018683D02*
X0014950D01*
X0015048Y0018630D02*
X0014950D01*
Y0019094D02*
Y0018602D01*
X0015048D02*
X0014950D01*
X0015048Y0019094D02*
Y0018602D01*
Y0019094D02*
X0014950D01*
X0017910Y0019193D02*
Y0018799D01*
X0018304D01*
Y0019193D01*
X0017910D01*
X0018698D02*
Y0018799D01*
X0019092D01*
Y0019193D01*
X0018698D01*
X0016334Y0018799D02*
X0016728Y0019193D01*
X0017122Y0019587D02*
X0017516Y0019981D01*
X0018304Y0019587D02*
X0017910Y0019981D01*
Y0019587D02*
X0018304Y0019981D01*
X0018698Y0018799D02*
X0019092Y0019193D01*
X0015546D02*
Y0018799D01*
X0015940D01*
Y0019193D01*
X0015546D01*
X0015940Y0018799D02*
X0015546Y0019193D01*
Y0018799D02*
X0015940Y0019193D01*
Y0019587D02*
X0015546Y0019981D01*
G54D91*
G01X0015154Y0018209D02*
X0019681D01*
Y0020473D01*
X0014957D01*
Y0018209D01*
X0015154D01*
X0016728D02*
Y0018603D01*
X0014957D01*
X0017909Y0018209D02*
Y0018603D01*
X0019681D01*
X0015743Y0020473D02*
X0016137D01*
Y0020572D01*
X0018501D01*
Y0020473D01*
M02*
