*
G04 Mass Parameters ***
*
G04 Image ***
*
%IND:\00.LAVORI IN CORSO\METALTRONICA\22-304-2\22-304-2.SMT*%
%ICAS*%
%MOIN*%
%IPPOS*%
%ASAXBY*%
G74*%FSLAN2X34Y34*%
*
G04 Aperture Definitions ***
*
%ADD10C,0.2362*%
%ADD11C,0.0394*%
%ADD12R,0.0380X0.0320*%
%ADD13R,0.0197X0.0315*%
%ADD14C,0.1000*%
%ADD15C,0.0709*%
%ADD16R,0.0709X0.0709*%
%ADD17O,0.0620X0.0800*%
%ADD18C,0.0512*%
%ADD19R,0.0787X0.0787*%
%ADD20R,0.0669X0.0669*%
%ADD21C,0.0472*%
%ADD22R,0.0291X0.1610*%
%ADD23C,0.0433*%
%ADD24R,0.0472X0.2165*%
%ADD25R,0.3228X0.1575*%
%ADD26O,0.0800X0.0620*%
%ADD27R,0.0590X0.0590*%
%ADD28C,0.0590*%
%ADD29C,0.0866*%
%ADD30C,0.0669*%
%ADD31R,0.0598X0.1201*%
%ADD32C,0.0610*%
%ADD33R,0.0610X0.0610*%
%ADD34C,0.0787*%
%ADD35O,0.0787X0.1181*%
%ADD36R,0.0710X0.0400*%
%ADD37R,0.0354X0.0512*%
%ADD38C,0.0800*%
%ADD39R,0.0799X0.0799*%
%ADD40C,0.0315*%
%ADD41C,0.0100*%
%ADD42C,0.0150*%
%ADD43C,0.0315*%
%ADD44C,0.0315*%
%ADD45C,0.0300*%
%ADD46C,0.0250*%
%ADD47C,0.0315*%
%ADD48C,0.0500*%
%ADD49C,0.0080*%
%ADD50R,0.0404X0.0501*%
%ADD51R,0.1260X0.0630*%
%ADD52R,0.0320X0.0380*%
%ADD53R,0.0400X0.0710*%
%ADD54R,0.0886X0.0905*%
%ADD55R,0.1024X0.0510*%
%ADD56R,0.0500X0.0400*%
%ADD57R,0.0315X0.0197*%
%ADD58R,0.0550X0.0350*%
%ADD59R,0.0501X0.0404*%
%ADD60R,0.1669X0.1500*%
%ADD61R,0.0905X0.1220*%
%ADD62R,0.0118X0.0472*%
%ADD63R,0.1063X0.1181*%
%ADD64R,0.0413X0.0236*%
%ADD65C,0.0187*%
%ADD66R,0.0400X0.0500*%
%ADD67R,0.0276X0.0197*%
%ADD68R,0.0354X0.0165*%
%ADD69O,0.0650X0.0256*%
%ADD70R,0.0315X0.0236*%
%ADD71R,0.0512X0.0354*%
%ADD72R,0.1181X0.1701*%
%ADD73R,0.0649X0.0177*%
%ADD74R,0.0600X0.1000*%
%ADD75R,0.2760X0.2760*%
%ADD76R,0.4252X0.3701*%
%ADD77R,0.0531X0.1811*%
%ADD78R,0.0236X0.0512*%
%ADD79O,0.0700X0.0110*%
%ADD80R,0.0700X0.0110*%
%ADD81O,0.0110X0.0700*%
%ADD82R,0.0110X0.0700*%
%ADD83R,0.0197X0.0394*%
%ADD84C,0.0050*%
%ADD85C,0.0120*%
%ADD86C,0.0060*%
*
G04 Plot Data ***
*
G54D41*
G01X0051500Y0011180D02*
X0049500D01*
X0051500Y0011090D02*
X0049500D01*
X0051500Y0011000D02*
X0049500D01*
X0051500Y0010910D02*
X0049500D01*
X0051500Y0010820D02*
X0049500D01*
X0051500Y0010730D02*
X0049500D01*
X0051500Y0010640D02*
X0049500D01*
X0051500Y0010550D02*
X0049500D01*
X0051500Y0010460D02*
X0049500D01*
X0051500Y0010370D02*
X0049500D01*
X0051500Y0010280D02*
X0049500D01*
X0051500Y0010190D02*
X0049500D01*
X0051500Y0010100D02*
X0049500D01*
X0051500Y0010010D02*
X0049500D01*
X0051500Y0009920D02*
X0049500D01*
X0051500Y0009830D02*
X0049500D01*
X0051500Y0009740D02*
X0049500D01*
X0051500Y0009650D02*
X0049500D01*
X0051500Y0009560D02*
X0049500D01*
X0051500Y0009470D02*
X0049500D01*
X0051500Y0009380D02*
X0049500D01*
X0051500Y0009290D02*
X0049500D01*
X0051500Y0009200D02*
X0049500D01*
X0051500Y0009110D02*
X0049500D01*
X0051500Y0009020D02*
X0049500D01*
X0051500Y0008930D02*
X0049500D01*
X0051500Y0008840D02*
X0049500D01*
X0051500Y0008750D02*
X0049500D01*
X0051500Y0008660D02*
X0049500D01*
X0051500Y0008570D02*
X0049500D01*
X0051500Y0008480D02*
X0049500D01*
X0051500Y0008390D02*
X0049500D01*
X0051500Y0008300D02*
X0049500D01*
X0051500Y0008210D02*
X0049500D01*
X0046660Y0011340D02*
Y0009500D01*
X0046570Y0011430D02*
Y0009500D01*
X0046480Y0011500D02*
Y0009500D01*
X0051500Y0008120D02*
X0049500D01*
X0051500Y0008030D02*
X0049500D01*
X0051500Y0007940D02*
X0049500D01*
X0051500Y0007850D02*
X0049500D01*
X0051500Y0007760D02*
X0049500D01*
X0054500Y0007670D02*
X0049500D01*
X0054500Y0007580D02*
X0049500D01*
X0054500Y0007490D02*
X0049500D01*
X0054500Y0007400D02*
X0049500D01*
X0054500Y0007310D02*
X0049500D01*
X0054500Y0007220D02*
X0049500D01*
X0054500Y0007130D02*
X0049500D01*
X0054500Y0007040D02*
X0049500D01*
X0046390Y0011500D02*
Y0009500D01*
X0046300Y0011500D02*
Y0009500D01*
X0046210Y0011500D02*
Y0009500D01*
X0046120Y0011500D02*
Y0009500D01*
X0046030Y0011500D02*
Y0009500D01*
X0045940Y0011500D02*
Y0009500D01*
X0045850Y0011500D02*
Y0009500D01*
X0045760Y0011500D02*
Y0009500D01*
X0045670Y0011500D02*
Y0009500D01*
X0045580Y0011500D02*
Y0009500D01*
X0045490Y0011500D02*
Y0009500D01*
X0045400Y0011500D02*
Y0009500D01*
X0045310Y0011500D02*
Y0009500D01*
X0046840Y0007000D02*
Y0004750D01*
X0040250Y0009500D02*
Y0005750D01*
Y0009500D02*
X0038250D01*
Y0011500D02*
Y0009500D01*
X0046500Y0011500D02*
X0038250D01*
X0046500D02*
X0046750Y0011250D01*
Y0009500D01*
X0045250D01*
Y0007000D01*
X0049500D02*
X0045250D01*
X0049500Y0011250D02*
Y0007000D01*
X0051500Y0011250D02*
X0049500D01*
X0051500D02*
Y0007750D01*
X0054500D02*
X0051500D01*
X0054500D02*
Y0006000D01*
X0051750D01*
Y0005250D01*
X0051250Y0004750D01*
X0041750D01*
X0041250Y0005250D02*
X0041750Y0004750D01*
X0041250Y0005250D02*
X0040250D01*
Y0005750D02*
Y0005250D01*
X0045250Y0008210D02*
X0040250D01*
X0054490Y0007750D02*
Y0006000D01*
X0054400Y0007750D02*
Y0006000D01*
X0054310Y0007750D02*
Y0006000D01*
X0054220Y0007750D02*
Y0006000D01*
X0054130Y0007750D02*
Y0006000D01*
X0054040Y0007750D02*
Y0006000D01*
X0053950Y0007750D02*
Y0006000D01*
X0053860Y0007750D02*
Y0006000D01*
X0053770Y0007750D02*
Y0006000D01*
X0053680Y0007750D02*
Y0006000D01*
X0053590Y0007750D02*
Y0006000D01*
X0053500Y0007750D02*
Y0006000D01*
X0053410Y0007750D02*
Y0006000D01*
X0053320Y0007750D02*
Y0006000D01*
X0053230Y0007750D02*
Y0006000D01*
X0053140Y0007750D02*
Y0006000D01*
X0053050Y0007750D02*
Y0006000D01*
X0052960Y0007750D02*
Y0006000D01*
X0052870Y0007750D02*
Y0006000D01*
X0052780Y0007750D02*
Y0006000D01*
X0052690Y0007750D02*
Y0006000D01*
X0052600Y0007750D02*
Y0006000D01*
X0052510Y0007750D02*
Y0006000D01*
X0052420Y0007750D02*
Y0006000D01*
X0052330Y0007750D02*
Y0006000D01*
X0052240Y0007750D02*
Y0006000D01*
X0052150Y0007750D02*
Y0006000D01*
X0052060Y0007750D02*
Y0006000D01*
X0051970Y0007750D02*
Y0006000D01*
X0051880Y0007750D02*
Y0006000D01*
X0051790Y0007750D02*
Y0006000D01*
X0051700Y0007750D02*
Y0005200D01*
X0051610Y0007750D02*
Y0005110D01*
X0051520Y0007750D02*
Y0005020D01*
X0051430Y0011250D02*
Y0004930D01*
X0051340Y0011250D02*
Y0004840D01*
X0051250Y0011250D02*
Y0004750D01*
X0051160Y0011250D02*
Y0004750D01*
X0051070Y0011250D02*
Y0004750D01*
X0050980Y0011250D02*
Y0004750D01*
X0050890Y0011250D02*
Y0004750D01*
X0050800Y0011250D02*
Y0004750D01*
X0050710Y0011250D02*
Y0004750D01*
X0050620Y0011250D02*
Y0004750D01*
X0050530Y0011250D02*
Y0004750D01*
X0050440Y0011250D02*
Y0004750D01*
X0050350Y0011250D02*
Y0004750D01*
X0050260Y0011250D02*
Y0004750D01*
X0050170Y0011250D02*
Y0004750D01*
X0050080Y0011250D02*
Y0004750D01*
X0049990Y0011250D02*
Y0004750D01*
X0049900Y0011250D02*
Y0004750D01*
X0049810Y0011250D02*
Y0004750D01*
X0049720Y0011250D02*
Y0004750D01*
X0049630Y0011250D02*
Y0004750D01*
X0049540Y0011250D02*
Y0004750D01*
X0049450Y0007000D02*
Y0004750D01*
X0049360Y0007000D02*
Y0004750D01*
X0049270Y0007000D02*
Y0004750D01*
X0049180Y0007000D02*
Y0004750D01*
X0049090Y0007000D02*
Y0004750D01*
X0049000Y0007000D02*
Y0004750D01*
X0048910Y0007000D02*
Y0004750D01*
X0048820Y0007000D02*
Y0004750D01*
X0048730Y0007000D02*
Y0004750D01*
X0048640Y0007000D02*
Y0004750D01*
X0048550Y0007000D02*
Y0004750D01*
X0048460Y0007000D02*
Y0004750D01*
X0048370Y0007000D02*
Y0004750D01*
X0048280Y0007000D02*
Y0004750D01*
X0048190Y0007000D02*
Y0004750D01*
X0048100Y0007000D02*
Y0004750D01*
X0048010Y0007000D02*
Y0004750D01*
X0047920Y0007000D02*
Y0004750D01*
X0047830Y0007000D02*
Y0004750D01*
X0047740Y0007000D02*
Y0004750D01*
X0047650Y0007000D02*
Y0004750D01*
X0047560Y0007000D02*
Y0004750D01*
X0047470Y0007000D02*
Y0004750D01*
X0047380Y0007000D02*
Y0004750D01*
X0047290Y0007000D02*
Y0004750D01*
X0047200Y0007000D02*
Y0004750D01*
X0047110Y0007000D02*
Y0004750D01*
X0047020Y0007000D02*
Y0004750D01*
X0046930Y0007000D02*
Y0004750D01*
X0051290Y0004790D02*
X0041710D01*
X0046750Y0007000D02*
Y0004750D01*
X0046660Y0007000D02*
Y0004750D01*
X0046570Y0007000D02*
Y0004750D01*
X0054500Y0006500D02*
X0040250D01*
X0046390Y0007000D02*
Y0004750D01*
X0046300Y0007000D02*
Y0004750D01*
X0046210Y0007000D02*
Y0004750D01*
X0046120Y0007000D02*
Y0004750D01*
X0046030Y0007000D02*
Y0004750D01*
X0045940Y0007000D02*
Y0004750D01*
X0045850Y0007000D02*
Y0004750D01*
X0045760Y0007000D02*
Y0004750D01*
X0045670Y0007000D02*
Y0004750D01*
X0045580Y0007000D02*
Y0004750D01*
X0045490Y0007000D02*
Y0004750D01*
X0045400Y0007000D02*
Y0004750D01*
X0045310Y0007000D02*
Y0004750D01*
X0045220Y0011500D02*
Y0004750D01*
X0045130Y0011500D02*
Y0004750D01*
X0045040Y0011500D02*
Y0004750D01*
X0044950Y0011500D02*
Y0004750D01*
X0044860Y0011500D02*
Y0004750D01*
X0044770Y0011500D02*
Y0004750D01*
X0044680Y0011500D02*
Y0004750D01*
X0044590Y0011500D02*
Y0004750D01*
X0044500Y0011500D02*
Y0004750D01*
X0044410Y0011500D02*
Y0004750D01*
X0044320Y0011500D02*
Y0004750D01*
X0044230Y0011500D02*
Y0004750D01*
X0044140Y0011500D02*
Y0004750D01*
X0044050Y0011500D02*
Y0004750D01*
X0043960Y0011500D02*
Y0004750D01*
X0043870Y0011500D02*
Y0004750D01*
X0043780Y0011500D02*
Y0004750D01*
X0043690Y0011500D02*
Y0004750D01*
X0043600Y0011500D02*
Y0004750D01*
X0043510Y0011500D02*
Y0004750D01*
X0043420Y0011500D02*
Y0004750D01*
X0043330Y0011500D02*
Y0004750D01*
X0043240Y0011500D02*
Y0004750D01*
X0043150Y0011500D02*
Y0004750D01*
X0043060Y0011500D02*
Y0004750D01*
X0042970Y0011500D02*
Y0004750D01*
X0042880Y0011500D02*
Y0004750D01*
X0042790Y0011500D02*
Y0004750D01*
X0042700Y0011500D02*
Y0004750D01*
X0042610Y0011500D02*
Y0004750D01*
X0042520Y0011500D02*
Y0004750D01*
X0042430Y0011500D02*
Y0004750D01*
X0042340Y0011500D02*
Y0004750D01*
X0042250Y0011500D02*
Y0004750D01*
X0042160Y0011500D02*
Y0004750D01*
X0042070Y0011500D02*
Y0004750D01*
X0041980Y0011500D02*
Y0004750D01*
X0041890Y0011500D02*
Y0004750D01*
X0041800Y0011500D02*
Y0004750D01*
X0041710Y0011500D02*
Y0004790D01*
X0041620Y0011500D02*
Y0004880D01*
X0041530Y0011500D02*
Y0004970D01*
X0041440Y0011500D02*
Y0005060D01*
X0041350Y0011500D02*
Y0005150D01*
X0041260Y0011500D02*
Y0005240D01*
X0041170Y0011500D02*
Y0005250D01*
X0041080Y0011500D02*
Y0005250D01*
X0040990Y0011500D02*
Y0005250D01*
X0040900Y0011500D02*
Y0005250D01*
X0040810Y0011500D02*
Y0005250D01*
X0040720Y0011500D02*
Y0005250D01*
X0040630Y0011500D02*
Y0005250D01*
X0040540Y0011500D02*
Y0005250D01*
X0040450Y0011500D02*
Y0005250D01*
X0040360Y0011500D02*
Y0005250D01*
X0040270Y0011500D02*
Y0005250D01*
X0040180Y0011500D02*
Y0009500D01*
X0040090Y0011500D02*
Y0009500D01*
X0040000Y0011500D02*
Y0009500D01*
X0039910Y0011500D02*
Y0009500D01*
X0039820Y0011500D02*
Y0009500D01*
X0039730Y0011500D02*
Y0009500D01*
X0039640Y0011500D02*
Y0009500D01*
X0039550Y0011500D02*
Y0009500D01*
X0039460Y0011500D02*
Y0009500D01*
X0039370Y0011500D02*
Y0009500D01*
X0039280Y0011500D02*
Y0009500D01*
X0039190Y0011500D02*
Y0009500D01*
X0039100Y0011500D02*
Y0009500D01*
X0039010Y0011500D02*
Y0009500D01*
X0038920Y0011500D02*
Y0009500D01*
X0038830Y0011500D02*
Y0009500D01*
X0038740Y0011500D02*
Y0009500D01*
X0038650Y0011500D02*
Y0009500D01*
X0038560Y0011500D02*
Y0009500D01*
X0038470Y0011500D02*
Y0009500D01*
X0038380Y0011500D02*
Y0009500D01*
X0046550Y0011450D02*
X0038250D01*
X0046640Y0011360D02*
X0038250D01*
X0046730Y0011270D02*
X0038250D01*
X0046750Y0011180D02*
X0038250D01*
X0046750Y0011090D02*
X0038250D01*
X0046750Y0011000D02*
X0038250D01*
X0046750Y0010910D02*
X0038250D01*
X0046750Y0010820D02*
X0038250D01*
X0046750Y0010730D02*
X0038250D01*
X0046750Y0010640D02*
X0038250D01*
X0046750Y0010550D02*
X0038250D01*
X0046750Y0010460D02*
X0038250D01*
X0046750Y0010370D02*
X0038250D01*
X0046750Y0010280D02*
X0038250D01*
X0046750Y0010190D02*
X0038250D01*
X0046750Y0010100D02*
X0038250D01*
X0046750Y0010010D02*
X0038250D01*
X0046750Y0009920D02*
X0038250D01*
X0046750Y0009830D02*
X0038250D01*
X0046750Y0009740D02*
X0038250D01*
X0046750Y0009650D02*
X0038250D01*
X0046750Y0009560D02*
X0038250D01*
X0045250Y0009470D02*
X0040250D01*
X0045250Y0009380D02*
X0040250D01*
X0045250Y0009290D02*
X0040250D01*
X0045250Y0009200D02*
X0040250D01*
X0045250Y0009110D02*
X0040250D01*
X0045250Y0009020D02*
X0040250D01*
X0045250Y0008930D02*
X0040250D01*
X0045250Y0008840D02*
X0040250D01*
X0045250Y0008750D02*
X0040250D01*
X0045250Y0008660D02*
X0040250D01*
X0045250Y0008570D02*
X0040250D01*
X0045250Y0008480D02*
X0040250D01*
X0045250Y0008390D02*
X0040250D01*
X0045250Y0008300D02*
X0040250D01*
X0046480Y0007000D02*
Y0004750D01*
X0045250Y0008120D02*
X0040250D01*
X0045250Y0008030D02*
X0040250D01*
X0045250Y0007940D02*
X0040250D01*
X0045250Y0007850D02*
X0040250D01*
X0045250Y0007760D02*
X0040250D01*
X0045250Y0007670D02*
X0040250D01*
X0045250Y0007580D02*
X0040250D01*
X0045250Y0007490D02*
X0040250D01*
X0045250Y0007400D02*
X0040250D01*
X0045250Y0007310D02*
X0040250D01*
X0045250Y0007220D02*
X0040250D01*
X0045250Y0007130D02*
X0040250D01*
X0045250Y0007040D02*
X0040250D01*
X0054500Y0006950D02*
X0040250D01*
X0054500Y0006860D02*
X0040250D01*
X0054500Y0006770D02*
X0040250D01*
X0054500Y0006680D02*
X0040250D01*
X0054500Y0006590D02*
X0040250D01*
X0038290Y0011500D02*
Y0009500D01*
X0054500Y0006410D02*
X0040250D01*
X0054500Y0006320D02*
X0040250D01*
X0054500Y0006230D02*
X0040250D01*
X0054500Y0006140D02*
X0040250D01*
X0054500Y0006050D02*
X0040250D01*
X0051750Y0005960D02*
X0040250D01*
X0051750Y0005870D02*
X0040250D01*
X0051750Y0005780D02*
X0040250D01*
X0051750Y0005690D02*
X0040250D01*
X0051750Y0005600D02*
X0040250D01*
X0051750Y0005510D02*
X0040250D01*
X0051750Y0005420D02*
X0040250D01*
X0051750Y0005330D02*
X0040250D01*
X0051740Y0005240D02*
X0041260D01*
X0051650Y0005150D02*
X0041350D01*
X0051560Y0005060D02*
X0041440D01*
X0051470Y0004970D02*
X0041530D01*
X0051380Y0004880D02*
X0041620D01*
X0037950Y0035390D02*
X0032950D01*
X0037950Y0035350D02*
X0032950D01*
X0037950Y0035750D02*
Y0035350D01*
X0039250Y0037050D02*
X0037950Y0035750D01*
X0040850Y0037050D02*
X0039250D01*
X0040850Y0037450D02*
Y0037050D01*
X0038400Y0039900D02*
X0040850Y0037450D01*
X0038400Y0039900D02*
X0032950D01*
Y0035350D01*
X0040570Y0037730D02*
X0032950D01*
X0040820Y0037480D02*
Y0037050D01*
X0040730Y0037570D02*
Y0037050D01*
X0040640Y0037660D02*
Y0037050D01*
X0040550Y0037750D02*
Y0037050D01*
X0040460Y0037840D02*
Y0037050D01*
X0040370Y0037930D02*
Y0037050D01*
X0040280Y0038020D02*
Y0037050D01*
X0040190Y0038110D02*
Y0037050D01*
X0040100Y0038200D02*
Y0037050D01*
X0040010Y0038290D02*
Y0037050D01*
X0039920Y0038380D02*
Y0037050D01*
X0039830Y0038470D02*
Y0037050D01*
X0039740Y0038560D02*
Y0037050D01*
X0039650Y0038650D02*
Y0037050D01*
X0039560Y0038740D02*
Y0037050D01*
X0039470Y0038830D02*
Y0037050D01*
X0039380Y0038920D02*
Y0037050D01*
X0039290Y0039010D02*
Y0037050D01*
X0039200Y0039100D02*
Y0037000D01*
X0039110Y0039190D02*
Y0036910D01*
X0039020Y0039280D02*
Y0036820D01*
X0038930Y0039370D02*
Y0036730D01*
X0038840Y0039460D02*
Y0036640D01*
X0038750Y0039550D02*
Y0036550D01*
X0038660Y0039640D02*
Y0036460D01*
X0038570Y0039730D02*
Y0036370D01*
X0038480Y0039820D02*
Y0036280D01*
X0038390Y0039900D02*
Y0036190D01*
X0038300Y0039900D02*
Y0036100D01*
X0038210Y0039900D02*
Y0036010D01*
X0038120Y0039900D02*
Y0035920D01*
X0038030Y0039900D02*
Y0035830D01*
X0037940Y0039900D02*
Y0035350D01*
X0037850Y0039900D02*
Y0035350D01*
X0037760Y0039900D02*
Y0035350D01*
X0037670Y0039900D02*
Y0035350D01*
X0037580Y0039900D02*
Y0035350D01*
X0037490Y0039900D02*
Y0035350D01*
X0037400Y0039900D02*
Y0035350D01*
X0037310Y0039900D02*
Y0035350D01*
X0037220Y0039900D02*
Y0035350D01*
X0037130Y0039900D02*
Y0035350D01*
X0037040Y0039900D02*
Y0035350D01*
X0036950Y0039900D02*
Y0035350D01*
X0036860Y0039900D02*
Y0035350D01*
X0036770Y0039900D02*
Y0035350D01*
X0036680Y0039900D02*
Y0035350D01*
X0036590Y0039900D02*
Y0035350D01*
X0036500Y0039900D02*
Y0035350D01*
X0036410Y0039900D02*
Y0035350D01*
X0036320Y0039900D02*
Y0035350D01*
X0036230Y0039900D02*
Y0035350D01*
X0036140Y0039900D02*
Y0035350D01*
X0036050Y0039900D02*
Y0035350D01*
X0035960Y0039900D02*
Y0035350D01*
X0035870Y0039900D02*
Y0035350D01*
X0035780Y0039900D02*
Y0035350D01*
X0035690Y0039900D02*
Y0035350D01*
X0035600Y0039900D02*
Y0035350D01*
X0035510Y0039900D02*
Y0035350D01*
X0035420Y0039900D02*
Y0035350D01*
X0035330Y0039900D02*
Y0035350D01*
X0035240Y0039900D02*
Y0035350D01*
X0035150Y0039900D02*
Y0035350D01*
X0035060Y0039900D02*
Y0035350D01*
X0034970Y0039900D02*
Y0035350D01*
X0034880Y0039900D02*
Y0035350D01*
X0034790Y0039900D02*
Y0035350D01*
X0034700Y0039900D02*
Y0035350D01*
X0034610Y0039900D02*
Y0035350D01*
X0034520Y0039900D02*
Y0035350D01*
X0034430Y0039900D02*
Y0035350D01*
X0034340Y0039900D02*
Y0035350D01*
X0034250Y0039900D02*
Y0035350D01*
X0034160Y0039900D02*
Y0035350D01*
X0034070Y0039900D02*
Y0035350D01*
X0033980Y0039900D02*
Y0035350D01*
X0033890Y0039900D02*
Y0035350D01*
X0033800Y0039900D02*
Y0035350D01*
X0033710Y0039900D02*
Y0035350D01*
X0033620Y0039900D02*
Y0035350D01*
X0033530Y0039900D02*
Y0035350D01*
X0033440Y0039900D02*
Y0035350D01*
X0033350Y0039900D02*
Y0035350D01*
X0033260Y0039900D02*
Y0035350D01*
X0033170Y0039900D02*
Y0035350D01*
X0033080Y0039900D02*
Y0035350D01*
X0038410Y0039890D02*
X0032950D01*
X0038500Y0039800D02*
X0032950D01*
X0038590Y0039710D02*
X0032950D01*
X0038680Y0039620D02*
X0032950D01*
X0038770Y0039530D02*
X0032950D01*
X0038860Y0039440D02*
X0032950D01*
X0038950Y0039350D02*
X0032950D01*
X0039040Y0039260D02*
X0032950D01*
X0039130Y0039170D02*
X0032950D01*
X0039220Y0039080D02*
X0032950D01*
X0039310Y0038990D02*
X0032950D01*
X0039400Y0038900D02*
X0032950D01*
X0039490Y0038810D02*
X0032950D01*
X0039580Y0038720D02*
X0032950D01*
X0039670Y0038630D02*
X0032950D01*
X0039760Y0038540D02*
X0032950D01*
X0039850Y0038450D02*
X0032950D01*
X0039940Y0038360D02*
X0032950D01*
X0040030Y0038270D02*
X0032950D01*
X0040120Y0038180D02*
X0032950D01*
X0040210Y0038090D02*
X0032950D01*
X0040300Y0038000D02*
X0032950D01*
X0040390Y0037910D02*
X0032950D01*
X0040480Y0037820D02*
X0032950D01*
X0032990Y0039900D02*
Y0035350D01*
X0040660Y0037640D02*
X0032950D01*
X0040750Y0037550D02*
X0032950D01*
X0040840Y0037460D02*
X0032950D01*
X0040850Y0037370D02*
X0032950D01*
X0040850Y0037280D02*
X0032950D01*
X0040850Y0037190D02*
X0032950D01*
X0040850Y0037100D02*
X0032950D01*
X0039210Y0037010D02*
X0032950D01*
X0039120Y0036920D02*
X0032950D01*
X0039030Y0036830D02*
X0032950D01*
X0038940Y0036740D02*
X0032950D01*
X0038850Y0036650D02*
X0032950D01*
X0038760Y0036560D02*
X0032950D01*
X0038670Y0036470D02*
X0032950D01*
X0038580Y0036380D02*
X0032950D01*
X0038490Y0036290D02*
X0032950D01*
X0038400Y0036200D02*
X0032950D01*
X0038310Y0036110D02*
X0032950D01*
X0038220Y0036020D02*
X0032950D01*
X0038130Y0035930D02*
X0032950D01*
X0038040Y0035840D02*
X0032950D01*
X0037950Y0035750D02*
X0032950D01*
X0037950Y0035660D02*
X0032950D01*
X0037950Y0035570D02*
X0032950D01*
X0037950Y0035480D02*
X0032950D01*
X0012200Y0010130D02*
X0011100D01*
X0012200Y0010040D02*
X0011100D01*
X0012200Y0009950D02*
X0011100D01*
X0012200Y0009860D02*
X0011100D01*
X0012200Y0009770D02*
X0011100D01*
X0012200Y0009680D02*
X0011100D01*
X0012200Y0009590D02*
X0011100D01*
X0012200Y0009500D02*
X0011100D01*
X0012200Y0009410D02*
X0011100D01*
X0012200Y0009320D02*
X0011100D01*
X0012200Y0009230D02*
X0011100D01*
X0012200Y0009140D02*
X0011100D01*
X0012200Y0009050D02*
X0011100D01*
X0012200Y0008960D02*
X0011100D01*
X0012200Y0005090D02*
X0009400D01*
X0012200Y0005050D02*
X0009400D01*
X0012200Y0010150D02*
Y0005050D01*
Y0010150D02*
X0011100D01*
Y0008950D01*
X0009850D01*
Y0010300D02*
Y0008950D01*
X0008950Y0011200D02*
X0009850Y0010300D01*
X0008950Y0011200D02*
X0007600D01*
Y0008500D01*
X0009400D02*
X0007600D01*
X0009400D02*
Y0005050D01*
X0012140Y0010150D02*
Y0005050D01*
X0012050Y0010150D02*
Y0005050D01*
X0011960Y0010150D02*
Y0005050D01*
X0011870Y0010150D02*
Y0005050D01*
X0011780Y0010150D02*
Y0005050D01*
X0011690Y0010150D02*
Y0005050D01*
X0011600Y0010150D02*
Y0005050D01*
X0011510Y0010150D02*
Y0005050D01*
X0011420Y0010150D02*
Y0005050D01*
X0011330Y0010150D02*
Y0005050D01*
X0011240Y0010150D02*
Y0005050D01*
X0011150Y0010150D02*
Y0005050D01*
X0011060Y0008950D02*
Y0005050D01*
X0010970Y0008950D02*
Y0005050D01*
X0010880Y0008950D02*
Y0005050D01*
X0010790Y0008950D02*
Y0005050D01*
X0010700Y0008950D02*
Y0005050D01*
X0010610Y0008950D02*
Y0005050D01*
X0010520Y0008950D02*
Y0005050D01*
X0010430Y0008950D02*
Y0005050D01*
X0010340Y0008950D02*
Y0005050D01*
X0010250Y0008950D02*
Y0005050D01*
X0010160Y0008950D02*
Y0005050D01*
X0010070Y0008950D02*
Y0005050D01*
X0009980Y0008950D02*
Y0005050D01*
X0009890Y0008950D02*
Y0005050D01*
X0009800Y0010350D02*
Y0005050D01*
X0009710Y0010440D02*
Y0005050D01*
X0009620Y0010530D02*
Y0005050D01*
X0009530Y0010620D02*
Y0005050D01*
X0009440Y0010710D02*
Y0005050D01*
X0009350Y0010800D02*
Y0008500D01*
X0009260Y0010890D02*
Y0008500D01*
X0009170Y0010980D02*
Y0008500D01*
X0009080Y0011070D02*
Y0008500D01*
X0008990Y0011160D02*
Y0008500D01*
X0008900Y0011200D02*
Y0008500D01*
X0008810Y0011200D02*
Y0008500D01*
X0008720Y0011200D02*
Y0008500D01*
X0008630Y0011200D02*
Y0008500D01*
X0008540Y0011200D02*
Y0008500D01*
X0008450Y0011200D02*
Y0008500D01*
X0008360Y0011200D02*
Y0008500D01*
X0008270Y0011200D02*
Y0008500D01*
X0008180Y0011200D02*
Y0008500D01*
X0008090Y0011200D02*
Y0008500D01*
X0008000Y0011200D02*
Y0008500D01*
X0007910Y0011200D02*
Y0008500D01*
X0007820Y0011200D02*
Y0008500D01*
X0007730Y0011200D02*
Y0008500D01*
X0007640Y0011200D02*
Y0008500D01*
X0009030Y0011120D02*
X0007600D01*
X0009120Y0011030D02*
X0007600D01*
X0009210Y0010940D02*
X0007600D01*
X0009300Y0010850D02*
X0007600D01*
X0009390Y0010760D02*
X0007600D01*
X0009480Y0010670D02*
X0007600D01*
X0009570Y0010580D02*
X0007600D01*
X0009660Y0010490D02*
X0007600D01*
X0009750Y0010400D02*
X0007600D01*
X0009840Y0010310D02*
X0007600D01*
X0009850Y0010220D02*
X0007600D01*
X0009850Y0010130D02*
X0007600D01*
X0009850Y0010040D02*
X0007600D01*
X0009850Y0009950D02*
X0007600D01*
X0009850Y0009860D02*
X0007600D01*
X0009850Y0009770D02*
X0007600D01*
X0009850Y0009680D02*
X0007600D01*
X0009850Y0009590D02*
X0007600D01*
X0009850Y0009500D02*
X0007600D01*
X0009850Y0009410D02*
X0007600D01*
X0009850Y0009320D02*
X0007600D01*
X0009850Y0009230D02*
X0007600D01*
X0009850Y0009140D02*
X0007600D01*
X0009850Y0009050D02*
X0007600D01*
X0009850Y0008960D02*
X0007600D01*
X0012200Y0008870D02*
X0007600D01*
X0012200Y0008780D02*
X0007600D01*
X0012200Y0008690D02*
X0007600D01*
X0012200Y0008600D02*
X0007600D01*
X0012200Y0008510D02*
X0007600D01*
X0012200Y0008420D02*
X0009400D01*
X0012200Y0008330D02*
X0009400D01*
X0012200Y0008240D02*
X0009400D01*
X0012200Y0008150D02*
X0009400D01*
X0012200Y0008060D02*
X0009400D01*
X0012200Y0007970D02*
X0009400D01*
X0012200Y0007880D02*
X0009400D01*
X0012200Y0007790D02*
X0009400D01*
X0012200Y0007700D02*
X0009400D01*
X0012200Y0007610D02*
X0009400D01*
X0012200Y0007520D02*
X0009400D01*
X0012200Y0007430D02*
X0009400D01*
X0012200Y0007340D02*
X0009400D01*
X0012200Y0007250D02*
X0009400D01*
X0012200Y0007160D02*
X0009400D01*
X0012200Y0007070D02*
X0009400D01*
X0012200Y0006980D02*
X0009400D01*
X0012200Y0006890D02*
X0009400D01*
X0012200Y0006800D02*
X0009400D01*
X0012200Y0006710D02*
X0009400D01*
X0012200Y0006620D02*
X0009400D01*
X0012200Y0006530D02*
X0009400D01*
X0012200Y0006440D02*
X0009400D01*
X0012200Y0006350D02*
X0009400D01*
X0012200Y0006260D02*
X0009400D01*
X0012200Y0006170D02*
X0009400D01*
X0012200Y0006080D02*
X0009400D01*
X0012200Y0005990D02*
X0009400D01*
X0012200Y0005900D02*
X0009400D01*
X0012200Y0005810D02*
X0009400D01*
X0012200Y0005720D02*
X0009400D01*
X0012200Y0005630D02*
X0009400D01*
X0012200Y0005540D02*
X0009400D01*
X0012200Y0005450D02*
X0009400D01*
X0012200Y0005360D02*
X0009400D01*
X0012200Y0005270D02*
X0009400D01*
X0012200Y0005180D02*
X0009400D01*
G54D10*
X0007874Y0016142D03*
X0012795Y0034646D03*
X0040276D03*
X0039291Y0022047D03*
X0053071D03*
Y-0011417D03*
X0037323D03*
X0009055Y-0044882D03*
X0015748Y-0004724D03*
X0000000Y0000000D03*
G54D12*
X0037000Y0024470D03*
Y0025030D03*
X0039500Y0024470D03*
Y0025030D03*
X0019500Y0024470D03*
Y0025030D03*
X0029000Y0024470D03*
Y0025030D03*
X0024500Y0024470D03*
Y0025030D03*
X0023750D03*
Y0024470D03*
X0023000Y0026530D03*
Y0025970D03*
X0026000Y0023220D03*
Y0023780D03*
Y0021970D03*
Y0022530D03*
G54D13*
X0037250Y0026356D03*
Y0027144D03*
X0039750Y0026356D03*
Y0027144D03*
X0019500Y0026644D03*
Y0025856D03*
X0034750Y0025144D03*
Y0024356D03*
X0023000Y0025394D03*
Y0024606D03*
X0028250Y0025144D03*
Y0024356D03*
X0032000Y0023106D03*
Y0023894D03*
G54D14*
X0015734Y0012766D03*
X0013766D03*
X0012781Y0013750D03*
X0013766Y0014734D03*
X0015734D03*
X0014750Y0013750D03*
G54D15*
X0030000Y0037500D03*
X0029000D03*
X0028000D03*
X0027000D03*
X0026000D03*
X0025000D03*
X0024000D03*
X0023000D03*
X0024000Y0036500D03*
X0025000D03*
X0026000D03*
X0027000D03*
X0028000D03*
X0029000D03*
X0030000D03*
G54D16*
X0023000D03*
G54D17*
X0033953Y0015492D03*
X0032968D03*
X0031984D03*
X0031000D03*
X0030016D03*
X0029031D03*
X0028047D03*
X0033953Y0014508D03*
X0032968D03*
X0031984D03*
X0031000D03*
X0030016D03*
X0029031D03*
X0021468Y0030520D03*
X0020484D03*
X0019500D03*
X0018516D03*
X0017531D03*
X0021468Y0029535D03*
X0020484D03*
X0019500D03*
X0018516D03*
X0032726Y0030520D03*
X0031742D03*
X0030758D03*
X0029774D03*
X0032726Y0029535D03*
X0031742D03*
X0030758D03*
G54D19*
X0050500Y0000250D03*
X0000000Y0012750D03*
X0035978Y0030210D03*
X0000008Y0021711D03*
X0017531Y0029535D03*
X0029774D03*
G54D20*
X0024516Y0029508D03*
X0013258D03*
X0021258Y0015527D03*
X0028047Y0014508D03*
G54D22*
X0030750Y0020199D03*
X0030250D03*
X0029750D03*
X0029250D03*
X0028750D03*
X0028250D03*
X0027750D03*
X0027250D03*
X0026750D03*
X0026250D03*
X0025750D03*
X0025250D03*
X0024750D03*
Y0018250D03*
X0025250D03*
X0025750D03*
X0026250D03*
X0026750D03*
X0027250D03*
X0027750D03*
X0028250D03*
X0028750D03*
X0029250D03*
X0029750D03*
X0030250D03*
X0030750D03*
G54D24*
X0038669Y0016057D03*
X0037095D03*
X0037882Y0014679D03*
G54D25*
X0047295Y0008248D03*
X0038201D03*
G54D26*
X0000992Y0016789D03*
Y0017774D03*
Y0018758D03*
Y0019742D03*
Y0020726D03*
Y0021711D03*
X0000008Y0016789D03*
Y0017774D03*
Y0018758D03*
Y0019742D03*
Y0020726D03*
G54D27*
X0052571Y0005252D03*
X0000500Y0005803D03*
X0016500Y0006500D03*
G54D28*
X0052571Y0006039D03*
X0000500Y0005016D03*
X0016500Y0008862D03*
Y0008075D03*
Y0007287D03*
X0012500Y0037500D03*
X0016000Y-0046000D03*
X0054000Y-0008500D03*
G54D29*
X0023096Y0015527D03*
X0020403D03*
G54D30*
X0026484Y0030492D03*
X0025500D03*
X0024516D03*
X0025500Y0029508D03*
X0026484D03*
X0014242Y0030492D03*
X0013258D03*
X0014242Y0029508D03*
X0022242Y0015527D03*
G54D31*
X0043730Y0015608D03*
X0044730D03*
X0045730D03*
X0046730D03*
X0047730D03*
X0048730D03*
X0049730D03*
X0050730D03*
X0051730D03*
X0052730D03*
X0052230Y0017380D03*
X0051230D03*
X0050230D03*
X0049230D03*
X0048230D03*
X0047230D03*
X0046230D03*
X0045230D03*
X0044230D03*
X0043230D03*
G54D32*
X0015744Y0019783D03*
X0016532Y0018996D03*
Y0019783D03*
X0017319Y0018996D03*
Y0019783D03*
X0018106Y0018996D03*
Y0019783D03*
X0018893Y0018996D03*
Y0019783D03*
G54D33*
X0015744Y0018996D03*
G54D34*
X0000000Y0011750D03*
Y0010750D03*
X0001000D03*
Y0011750D03*
Y0012750D03*
X0039521Y0030210D03*
X0038340D03*
X0037160D03*
X0039521Y0029030D03*
X0038340D03*
X0037160D03*
X0035978D03*
G54D35*
X0023661Y0029622D03*
X0027338D03*
X0012403D03*
X0015096D03*
G54D36*
X0018500Y0025910D03*
Y0024590D03*
G54D37*
X0038500Y0026990D03*
X0038000D03*
Y0024510D03*
X0038500D03*
X0041000Y0026990D03*
X0040500D03*
Y0024510D03*
X0041000D03*
X0020750Y0026990D03*
X0020250D03*
Y0024510D03*
X0020750D03*
X0017000D03*
X0017500D03*
Y0026990D03*
X0017000D03*
X0030500D03*
X0030000D03*
Y0024510D03*
X0030500D03*
X0033500D03*
X0034000D03*
Y0026990D03*
X0033500D03*
X0026000D03*
X0025500D03*
Y0024510D03*
X0026000D03*
X0021750D03*
X0022250D03*
Y0026990D03*
X0021750D03*
X0027000Y0024510D03*
X0027500D03*
Y0026990D03*
X0027000D03*
X0031500Y0024510D03*
X0032000D03*
Y0026990D03*
X0031500D03*
X0036000D03*
X0035500D03*
Y0024510D03*
X0036000D03*
G54D38*
X0051500Y0000250D03*
X0052500D03*
X0043250D03*
X0044250D03*
G54D39*
X0042250D03*
M02*
