*
G04 Mass Parameters ***
*
G04 Image ***
*
%IND:\00.CAD\00.PROGETTI\METALTRONICA\22-304-X\22-304-2\22-304-2.DRL*%
%ICAS*%
%MOIN*%
%IPPOS*%
%ASAXBY*%
G74*%FSLAN2X34Y34*%
*
G04 Aperture Definitions ***
*
%ADD10C,0.2362*%
%ADD11C,0.0394*%
%ADD12R,0.0380X0.0320*%
%ADD13R,0.0197X0.0315*%
%ADD14C,0.1000*%
%ADD15C,0.0709*%
%ADD16R,0.0709X0.0709*%
%ADD17O,0.0620X0.0800*%
%ADD18C,0.0512*%
%ADD19R,0.0787X0.0787*%
%ADD20R,0.0669X0.0669*%
%ADD21C,0.0472*%
%ADD22R,0.0291X0.1610*%
%ADD23C,0.0433*%
%ADD24R,0.0472X0.2165*%
%ADD25R,0.3228X0.1575*%
%ADD26O,0.0800X0.0620*%
%ADD27R,0.0590X0.0590*%
%ADD28C,0.0590*%
%ADD29C,0.0866*%
%ADD30C,0.0669*%
%ADD31R,0.0598X0.1201*%
%ADD32C,0.0610*%
%ADD33R,0.0610X0.0610*%
%ADD34C,0.0787*%
%ADD35O,0.0787X0.1181*%
%ADD36R,0.0710X0.0400*%
%ADD37R,0.0354X0.0512*%
%ADD38C,0.0800*%
%ADD39R,0.0799X0.0799*%
%ADD40C,0.0315*%
%ADD41C,0.0100*%
%ADD42C,0.0150*%
%ADD43C,0.0315*%
%ADD44C,0.0315*%
%ADD45C,0.0300*%
%ADD46C,0.0250*%
%ADD47C,0.0315*%
%ADD48C,0.0500*%
%ADD49C,0.0080*%
%ADD50R,0.0404X0.0501*%
%ADD51R,0.1260X0.0630*%
%ADD52R,0.0320X0.0380*%
%ADD53R,0.0400X0.0710*%
%ADD54R,0.0886X0.0905*%
%ADD55R,0.1024X0.0510*%
%ADD56R,0.0500X0.0400*%
%ADD57R,0.0315X0.0197*%
%ADD58R,0.0550X0.0350*%
%ADD59R,0.0501X0.0404*%
%ADD60R,0.1669X0.1500*%
%ADD61R,0.0905X0.1220*%
%ADD62R,0.0118X0.0472*%
%ADD63R,0.1063X0.1181*%
%ADD64R,0.0413X0.0236*%
%ADD65C,0.0187*%
%ADD66R,0.0400X0.0500*%
%ADD67R,0.0276X0.0197*%
%ADD68R,0.0354X0.0165*%
%ADD69O,0.0650X0.0256*%
%ADD70R,0.0315X0.0236*%
%ADD71R,0.0512X0.0354*%
%ADD72R,0.1181X0.1701*%
%ADD73R,0.0649X0.0177*%
%ADD74R,0.0600X0.1000*%
%ADD75R,0.2760X0.2760*%
%ADD76R,0.4252X0.3701*%
%ADD77R,0.0531X0.1811*%
%ADD78R,0.0236X0.0512*%
%ADD79O,0.0700X0.0110*%
%ADD80R,0.0700X0.0110*%
%ADD81O,0.0110X0.0700*%
%ADD82R,0.0110X0.0700*%
%ADD83R,0.0197X0.0394*%
%ADD84C,0.0050*%
%ADD85C,0.0120*%
%ADD86C,0.0060*%
%ADD87R,0.0492X0.1772*%
%ADD88C,0.0039*%
%ADD89C,0.0079*%
%ADD90C,0.0059*%
%ADD91C,0.0078*%
%ADD92C,0.1260*%
%ADD93C,0.0354*%
%ADD94C,0.0630*%
%ADD95C,0.0079*%
%ADD96C,0.0079*%
%ADD97C,0.0079*%
*
G04 Plot Data ***
*
G54D41*
G01X0017716Y-0045669D02*
Y0010236D01*
X0018898Y0011417D01*
X0034173D01*
X0035354Y0010236D01*
Y-0012205D01*
X0036535Y-0013386D01*
X0053858D01*
X0055039Y-0012205D01*
Y0022835D01*
X0053858Y0024016D01*
X0045394D01*
X0042244Y0027165D01*
Y0037401D01*
X0039094Y0040551D01*
X0013976D01*
X0010827Y0037401D01*
Y0027165D01*
X0007677Y0024016D01*
X-0000787D01*
X-0001968Y0022835D01*
Y-0001181D01*
X0007087Y-0010236D01*
Y-0045669D01*
X0008268Y-0046850D01*
X0016535D01*
X0017716Y-0045669D01*
G54D18*
X0021750Y0015000D03*
X-0000520Y0019250D03*
X0030508Y0013980D03*
X0019008Y0029008D03*
X0031250D03*
G54D21*
X0026484Y0030492D03*
X0025500D03*
X0024516D03*
Y0029508D03*
X0025500D03*
X0026484D03*
X0014242Y0030492D03*
X0013258D03*
Y0029508D03*
X0014242D03*
X0022242Y0015527D03*
X0021258D03*
X0000992Y0016789D03*
Y0017774D03*
Y0018758D03*
Y0019742D03*
Y0020726D03*
Y0021711D03*
X0000008D03*
Y0016789D03*
Y0017774D03*
Y0018758D03*
Y0019742D03*
Y0020726D03*
X0023299Y0018394D03*
X0032201D03*
X0033953Y0015492D03*
X0032968D03*
X0031984D03*
X0031000D03*
X0030016D03*
X0029031D03*
X0028047D03*
Y0014508D03*
X0033953D03*
X0032968D03*
X0031984D03*
X0031000D03*
X0030016D03*
X0029031D03*
X0021468Y0030520D03*
X0020484D03*
X0019500D03*
X0018516D03*
X0017531D03*
Y0029535D03*
X0021468D03*
X0020484D03*
X0019500D03*
X0018516D03*
X0032726Y0030520D03*
X0031742D03*
X0030758D03*
X0029774D03*
Y0029535D03*
X0032726D03*
X0031742D03*
X0030758D03*
X0015734Y0012766D03*
X0013766D03*
X0012781Y0013750D03*
X0013766Y0014734D03*
X0015734D03*
X0014750Y0013750D03*
G54D23*
X0050500Y0000250D03*
X0051500D03*
X0052500D03*
X0042250D03*
X0043250D03*
X0044250D03*
X0000000Y0012750D03*
Y0011750D03*
Y0010750D03*
X0001000D03*
Y0011750D03*
Y0012750D03*
X0039521Y0030210D03*
X0038340D03*
X0037160D03*
X0035978D03*
X0034797Y0028660D03*
X0040703D03*
X0039521Y0029030D03*
X0038340D03*
X0037160D03*
X0035978D03*
X0036661Y0015762D03*
X0039339D03*
X0030000Y0037500D03*
X0029000D03*
X0028000D03*
X0027000D03*
X0026000D03*
X0025000D03*
X0024000D03*
X0023000D03*
Y0036500D03*
X0024000D03*
X0025000D03*
X0026000D03*
X0027000D03*
X0028000D03*
X0029000D03*
X0030000D03*
G54D40*
X0015744Y0018996D03*
Y0019783D03*
X0016532Y0018996D03*
Y0019783D03*
X0017319Y0018996D03*
Y0019783D03*
X0018106Y0018996D03*
Y0019783D03*
X0018893Y0018996D03*
Y0019783D03*
G54D92*
X0007874Y0016142D03*
X0012795Y0034646D03*
X0040276D03*
X0039291Y0022047D03*
X0053071D03*
Y-0011417D03*
X0037323D03*
X0009055Y-0044882D03*
X0015748Y-0004724D03*
X0000000Y0000000D03*
G54D93*
X0052571Y0006039D03*
Y0005252D03*
X0000500Y0005016D03*
Y0005803D03*
X0016500Y0008862D03*
Y0008075D03*
Y0007287D03*
Y0006500D03*
G54D94*
X0023661Y0029622D03*
X0027338D03*
X0012403D03*
X0015096D03*
X0023096Y0015527D03*
X0020403D03*
G54D95*
X0044500Y0010000D03*
Y0011000D03*
X0039000Y0010500D03*
X0039500Y0010000D03*
X0038500D03*
Y0011000D03*
X0039500D03*
X0045500Y0006500D03*
Y0007000D03*
X0050000D03*
X0049500D03*
X0046000D03*
X0045500Y0006000D03*
Y0005500D03*
Y0005000D03*
X0046000D03*
Y0005500D03*
Y0006000D03*
Y0006500D03*
X0050000Y0005000D03*
X0049500D03*
X0050000Y0005500D03*
Y0006000D03*
X0049500Y0005500D03*
Y0006000D03*
X0050000Y0006500D03*
X0049500D03*
X0048750Y0005000D03*
Y0005500D03*
Y0006000D03*
Y0006500D03*
X0048250Y0005000D03*
Y0005500D03*
Y0006000D03*
Y0006500D03*
X0047750Y0005000D03*
Y0005500D03*
Y0006000D03*
Y0006500D03*
X0047250Y0005000D03*
Y0005500D03*
Y0006000D03*
Y0006500D03*
X0046750Y0005000D03*
Y0005500D03*
Y0006000D03*
Y0006500D03*
X0048750Y0007000D03*
X0047750D03*
X0048250D03*
X0047250D03*
X0046750D03*
X0043000Y0008500D03*
X0042000D03*
X0041000D03*
Y0009500D03*
X0042000D03*
X0043000D03*
Y0010500D03*
X0042000D03*
X0041000D03*
X0043500Y0008000D03*
X0042500D03*
X0041500D03*
X0040500D03*
X0043500Y0009000D03*
X0042500D03*
X0041500D03*
X0040500D03*
X0043500Y0010000D03*
X0042500D03*
X0041500D03*
X0040500D03*
X0043500Y0011000D03*
X0042500D03*
X0041500D03*
X0040500D03*
X0038000Y0036000D03*
X0037500D03*
X0037000D03*
X0036500D03*
X0036000D03*
X0035500D03*
X0035000D03*
X0034500D03*
X0034000D03*
X0033500D03*
X0033000D03*
X0041000Y0037000D03*
X0040500D03*
X0040000D03*
X0039500D03*
X0039000D03*
X0038500D03*
X0038000D03*
X0037500D03*
X0037000D03*
X0036500D03*
X0036000D03*
X0035500D03*
X0035000D03*
X0034500D03*
X0034000D03*
X0033500D03*
X0033000D03*
X0040000Y0038000D03*
X0039500D03*
X0039000D03*
X0038500D03*
X0038000D03*
X0037500D03*
X0037000D03*
X0036500D03*
X0036000D03*
X0035500D03*
X0035000D03*
X0034500D03*
X0034000D03*
X0033500D03*
X0033000D03*
X0039000Y0039000D03*
X0038500D03*
X0038000D03*
X0037500D03*
X0037000D03*
X0036500D03*
X0036000D03*
X0035500D03*
X0035000D03*
X0034500D03*
X0034000D03*
X0033500D03*
X0033000D03*
X0038500Y0040000D03*
X0038000D03*
X0037500D03*
X0037000D03*
X0036500D03*
X0036000D03*
X0035500D03*
X0035000D03*
X0034500D03*
X0034000D03*
X0033500D03*
X0033000D03*
X0011150Y0005050D03*
X0010350D03*
Y0008100D03*
X0011150D03*
Y0005850D03*
X0010350D03*
X0010750Y0006500D03*
X0011150Y0007150D03*
X0010350D03*
X0039750Y0025950D03*
G54D96*
X0050500Y0016500D03*
X0048300Y0014550D03*
X0032500Y0013500D03*
X0026116Y0016416D03*
X0030016D03*
X0004500Y0013500D03*
X0002400Y0009100D03*
X0002350Y-0002100D03*
X0010200Y-0001700D03*
X0039250Y0027150D03*
X0022000Y0021500D03*
X0026400D03*
X0027000Y0025900D03*
X0012500Y-0000300D03*
X0011600Y-0000050D03*
X0022850Y0030800D03*
X0022750Y0028000D03*
X0011350Y0003600D03*
X0004900D03*
Y0006500D03*
X0008200D03*
X0054000Y0017000D03*
Y0011300D03*
X0036700Y0011850D03*
X-0001050Y0009650D03*
X0001400Y0003300D03*
X0005650Y-0000050D03*
X0050900Y0019000D03*
X0053600Y0011600D03*
X0036400Y0012250D03*
X-0001200Y0014000D03*
X0001400Y0002900D03*
X0005600Y-0000500D03*
X0011450Y0021850D03*
X0013000Y0020650D03*
Y0019550D03*
X-0000800Y0014800D03*
X0002650Y-0003550D03*
X0008150Y-0003000D03*
X0011050Y0018300D03*
X-0000400Y0014900D03*
X0003300Y-0003350D03*
X0008350Y-0004500D03*
X0014750Y-0032000D03*
X0017000D03*
X0031950Y0038500D03*
X0040250Y0030000D03*
X0051000Y0012250D03*
X0024750Y0026700D03*
X0036450Y0027150D03*
X0037000Y0018410D03*
X0026500Y0027400D03*
X0011750Y-0032000D03*
X0007550D03*
X0051250Y0016500D03*
X0027550Y0028250D03*
X0021900Y0032100D03*
X0042400Y0017100D03*
X0044200Y0016500D03*
X0052730Y0013820D03*
X0044700Y0014300D03*
X0050850Y0014450D03*
X0048500Y0016500D03*
X0031650Y0039300D03*
X0035480Y0014620D03*
X0045730D03*
X0004400Y0019500D03*
X0049250Y0016500D03*
X0047200D03*
X0040000Y0016000D03*
X0039700Y0013300D03*
X0034950D03*
X0052150Y0013850D03*
X0031350Y0016400D03*
X0030600Y0039000D03*
X0026800Y0023850D03*
X0029000D03*
X0013000Y-0008050D03*
X0010250D03*
X0026760Y0034240D03*
X0021250Y0033600D03*
X0002500Y0010450D03*
X0030500Y0026400D03*
X0016500Y-0031500D03*
X0013250D03*
X0026350Y0027900D03*
X0020750Y0026400D03*
X0045450Y0016500D03*
X0039000Y0005850D03*
X0035500Y0025100D03*
X0046200Y0016500D03*
X0008550Y0006150D03*
X0004600D03*
X0004950Y0003100D03*
X0011350D03*
X-0000850Y0017800D03*
G54D97*
X0008750Y-0005000D03*
X0007750Y-0005500D03*
X0003550Y-0001250D03*
X0006150Y-0004000D03*
X0013950Y-0002950D03*
X0010500Y-0005800D03*
X0010700Y-0004200D03*
X0015500Y0020800D03*
X0021500Y0028200D03*
X0023500Y0026500D03*
X0029300Y0026420D03*
X0030000Y0027600D03*
X0028350Y0028380D03*
X0028750Y0028450D03*
X0014250Y0019800D03*
X0006500Y0021300D03*
X0007150Y0021100D03*
X0009050Y0021650D03*
X0040200Y0003964D03*
X0044000Y0003650D03*
X0045650D03*
X0045250Y0002700D03*
X0037750Y0006700D03*
X0054000Y0002950D03*
X0052750Y0003650D03*
X0050250Y0008100D03*
X0051500Y0007300D03*
X0011951Y0008250D03*
X0011750Y-0040700D03*
X0020250Y0026400D03*
X0013250Y-0040700D03*
X0018750Y0028000D03*
X0017050Y0027900D03*
X0018250Y0022450D03*
X0015500Y0024700D03*
X0016250D03*
X0007250Y0003900D03*
X0013775Y-0043850D03*
X0015400Y-0042750D03*
X0015216Y-0043800D03*
X0007700Y-0006030D03*
X0008000Y-0011600D03*
X0016450Y-0001750D03*
X0005750Y0005850D03*
X0006800Y0005500D03*
X0007200Y0005850D03*
X0006800Y0007250D03*
X0006870Y0007650D03*
X0047750Y0002700D03*
X0047200Y0003714D03*
X0040750Y0004200D03*
X0042000Y0003000D03*
X0003050Y0014220D03*
X0004150Y0015800D03*
X0005150Y0008750D03*
X0005500Y0013800D03*
X0006500Y0003900D03*
X0012950Y-0029040D03*
X0009500Y-0032550D03*
X0029500Y0032800D03*
X0013455Y-0027100D03*
X0014840Y-0027050D03*
X0011340D03*
X0010750Y0007700D03*
X0009500Y0004200D03*
X0024500Y0025450D03*
X0025500Y0026150D03*
X0011150Y0021350D03*
X0015100Y0007250D03*
X0015000Y0010400D03*
X0011951Y0004750D03*
X0015100Y0005750D03*
X0007300Y0011600D03*
X0005150Y0009500D03*
X0037000Y0025450D03*
X0047000Y0022050D03*
X0046250Y0021700D03*
X0039050Y0024580D03*
X0035850Y0026400D03*
X0010000Y-0006450D03*
X0026750Y0017099D03*
X0027750D03*
X0010245Y-0039450D03*
X0010250Y-0040700D03*
X0008750D03*
X0013245Y-0039450D03*
X0011745D03*
X0014000Y-0032550D03*
X0014400Y-0039375D03*
X0035200Y0029900D03*
X0012500Y-0032550D03*
X0001800Y0016850D03*
X0050950Y0003714D03*
X0048650Y0012894D03*
X0008450Y0021300D03*
X0006550Y0019250D03*
X0006500Y0020220D03*
X0017300Y0023800D03*
X0020750Y0025100D03*
X0010050Y0018850D03*
X0015590Y-0027050D03*
X0010340D03*
X0012090D03*
X0014232Y-0043800D03*
X0013130Y0000650D03*
X0013840Y-0027000D03*
X0049000Y0022050D03*
X0048700Y0020510D03*
X0049300D03*
X0045800Y0022350D03*
X0047450Y0021400D03*
X0041450Y0024510D03*
X0026000Y0025100D03*
X0042050Y0022990D03*
X0010250Y-0011600D03*
X0011000D03*
X0011750D03*
X0012500D03*
X0013250D03*
X0013050Y-0002200D03*
X0011500Y-0004500D03*
X0008750Y-0006450D03*
Y-0011600D03*
X0014700Y-0029040D03*
X0016450D03*
X0011000Y-0032550D03*
X0011200Y-0029040D03*
X0009500Y-0011600D03*
X0009590Y-0027050D03*
X0018930Y0038350D03*
X0027750Y0032700D03*
X0025000Y0033600D03*
X0002850Y-0002840D03*
X0008400Y-0002600D03*
X0001900Y0018500D03*
X0002510Y0019800D03*
X0025250Y0017099D03*
X0025750D03*
X0026450Y0021970D03*
X0026250Y0017099D03*
X0005500Y0003900D03*
X0004550Y0000900D03*
X0016750Y0020800D03*
X0018250Y0017050D03*
X0013350Y0000250D03*
X0012300Y-0001000D03*
X0010300D03*
X0008300Y-0000100D03*
X0028200Y0034240D03*
X0008000Y0003900D03*
X0018000Y0035950D03*
X0018200Y0034600D03*
X0019406Y0035606D03*
X0018550Y0036490D03*
X0029950Y0035268D03*
X0028350Y0034620D03*
X0031050Y0031850D03*
X0038950Y0028400D03*
X0037250Y0031950D03*
X0007100Y-0001370D03*
X0003950Y-0002700D03*
X0039000Y0007150D03*
X0052800Y0017100D03*
X0016650Y0010550D03*
X0008650Y0012750D03*
X0050000Y0021500D03*
X0052000Y0008300D03*
X0010450Y0009500D03*
X0018950Y0026900D03*
X0021700Y0026400D03*
X0009150Y0012300D03*
X0015950Y0003950D03*
X0008650Y0007650D03*
X0005200Y0007250D03*
X0012700Y0022950D03*
X0054000Y0001550D03*
X0050700Y0011960D03*
X0052750Y0002350D03*
X0016100Y0035950D03*
X0008000Y-0014200D03*
X0050250Y0018450D03*
Y0013900D03*
X0016000Y0034550D03*
X0015700Y0035600D03*
X0007950Y-0008300D03*
X0034100Y0029050D03*
X0026800Y0034750D03*
X0019150Y0026300D03*
X0020550Y0031760D03*
X0006350Y0004500D03*
X0030900Y0032400D03*
X0044250Y0021950D03*
X0044550Y0020510D03*
X0022950Y0034400D03*
X0026250D03*
X0012750Y0008750D03*
X0054000Y0018450D03*
X0052250Y0018300D03*
X0045250Y0010450D03*
X0049200Y0013970D03*
X0031550Y0025100D03*
X0025550Y0023780D03*
X0026550Y0024510D03*
X0043730Y0014300D03*
X0042700Y0019780D03*
X0006050Y0001250D03*
X0045200Y0001100D03*
X0032250Y0035450D03*
X0012750Y0005700D03*
Y0007250D03*
X0011000Y0024000D03*
X0010203Y-0002197D03*
X0002500Y-0002500D03*
X0002450Y0009550D03*
X0004400Y0014150D03*
X0030500Y0025150D03*
X0027800D03*
X0033300Y0026000D03*
X0030650Y0034130D03*
X0030750Y0035250D03*
X0010250Y0004200D03*
X0037750Y0005250D03*
X0018250Y0026800D03*
X0007200Y0009850D03*
X0004000Y0009050D03*
Y0004150D03*
X0011000Y0002600D03*
X0011050Y0016470D03*
X0011500Y0019950D03*
X0009250Y0018300D03*
X-0000800Y0014400D03*
X0001750Y0002500D03*
X0008800Y-0000800D03*
X0022350Y0026350D03*
X0010850Y-0025500D03*
X0015500D03*
X0010600Y0002200D03*
X0004450Y0002400D03*
X0004300Y0008050D03*
X0008900D03*
X0043300Y0022350D03*
X0042050Y0020510D03*
X0003500Y0000350D03*
X0003300Y-0000500D03*
X0032300Y0034050D03*
X0014000Y-0001000D03*
X0033250Y0028450D03*
X0008650Y-0003000D03*
X0017250Y-0002550D03*
X0017400Y0011600D03*
X0010050Y0012700D03*
X0019500Y0022000D03*
X0025200D03*
X0029300Y0026950D03*
X0035650Y0026050D03*
X0034850Y0017450D03*
X0022950Y0026930D03*
X0024000Y0026800D03*
X0045550Y0021800D03*
X0043150Y0024750D03*
X0029450Y0031550D03*
X-0000550Y0015500D03*
X0002700Y0002900D03*
X0008050Y0001900D03*
X0022450Y0022550D03*
X0026500D03*
X0041550Y0014000D03*
X0043750Y0023650D03*
X0033500Y0023850D03*
X0029550Y0022850D03*
X0035850D03*
Y0012550D03*
X0021250Y0019800D03*
Y0023850D03*
X0024450D03*
X0036000Y0023950D03*
X0034300Y0025150D03*
X0041700Y0018200D03*
M02*
