*
G04 Mass Parameters ***
*
G04 Image ***
*
%IND:\00.LAVORI IN CORSO\METALTRONICA\22-304-2\22-304-2.SPT*%
%ICAS*%
%MOIN*%
%IPPOS*%
%ASAXBY*%
G74*%FSLAN2X34Y34*%
*
G04 Aperture Definitions ***
*
%ADD10C,0.2362*%
%ADD11C,0.0394*%
%ADD12R,0.0380X0.0320*%
%ADD13R,0.0197X0.0315*%
%ADD14C,0.1000*%
%ADD15C,0.0709*%
%ADD16R,0.0709X0.0709*%
%ADD17O,0.0620X0.0800*%
%ADD18C,0.0512*%
%ADD19R,0.0787X0.0787*%
%ADD20R,0.0669X0.0669*%
%ADD21C,0.0472*%
%ADD22R,0.0291X0.1610*%
%ADD23C,0.0433*%
%ADD24R,0.0472X0.2165*%
%ADD25R,0.3228X0.1575*%
%ADD26O,0.0800X0.0620*%
%ADD27R,0.0590X0.0590*%
%ADD28C,0.0590*%
%ADD29C,0.0866*%
%ADD30C,0.0669*%
%ADD31R,0.0598X0.1201*%
%ADD32C,0.0610*%
%ADD33R,0.0610X0.0610*%
%ADD34C,0.0787*%
%ADD35O,0.0787X0.1181*%
%ADD36R,0.0710X0.0400*%
%ADD37R,0.0354X0.0512*%
%ADD38C,0.0800*%
%ADD39R,0.0799X0.0799*%
%ADD40C,0.0315*%
%ADD41C,0.0100*%
%ADD42C,0.0150*%
%ADD43C,0.0315*%
%ADD44C,0.0315*%
%ADD45C,0.0300*%
%ADD46C,0.0250*%
%ADD47C,0.0315*%
%ADD48C,0.0500*%
%ADD49C,0.0080*%
%ADD50R,0.0404X0.0501*%
%ADD51R,0.1260X0.0630*%
%ADD52R,0.0320X0.0380*%
%ADD53R,0.0400X0.0710*%
%ADD54R,0.0886X0.0905*%
%ADD55R,0.1024X0.0510*%
%ADD56R,0.0500X0.0400*%
%ADD57R,0.0315X0.0197*%
%ADD58R,0.0550X0.0350*%
%ADD59R,0.0501X0.0404*%
%ADD60R,0.1669X0.1500*%
%ADD61R,0.0905X0.1220*%
%ADD62R,0.0118X0.0472*%
%ADD63R,0.1063X0.1181*%
%ADD64R,0.0413X0.0236*%
%ADD65C,0.0187*%
%ADD66R,0.0400X0.0500*%
%ADD67R,0.0276X0.0197*%
%ADD68R,0.0354X0.0165*%
%ADD69O,0.0650X0.0256*%
%ADD70R,0.0315X0.0236*%
%ADD71R,0.0512X0.0354*%
%ADD72R,0.1181X0.1701*%
%ADD73R,0.0649X0.0177*%
%ADD74R,0.0600X0.1000*%
%ADD75R,0.2760X0.2760*%
%ADD76R,0.4252X0.3701*%
%ADD77R,0.0531X0.1811*%
%ADD78R,0.0236X0.0512*%
%ADD79O,0.0700X0.0110*%
%ADD80R,0.0700X0.0110*%
%ADD81O,0.0110X0.0700*%
%ADD82R,0.0110X0.0700*%
%ADD83R,0.0197X0.0394*%
%ADD84C,0.0050*%
%ADD85C,0.0120*%
%ADD86C,0.0060*%
*
G04 Plot Data ***
*
G54D12*
X0037000Y0024470D03*
Y0025030D03*
X0039500Y0024470D03*
Y0025030D03*
X0019500Y0024470D03*
Y0025030D03*
X0029000Y0024470D03*
Y0025030D03*
X0024500Y0024470D03*
Y0025030D03*
X0023750D03*
Y0024470D03*
X0023000Y0026530D03*
Y0025970D03*
X0026000Y0023220D03*
Y0023780D03*
Y0021970D03*
Y0022530D03*
G54D13*
X0037250Y0026356D03*
Y0027144D03*
X0039750Y0026356D03*
Y0027144D03*
X0019500Y0026644D03*
Y0025856D03*
X0034750Y0025144D03*
Y0024356D03*
X0023000Y0025394D03*
Y0024606D03*
X0028250Y0025144D03*
Y0024356D03*
X0032000Y0023106D03*
Y0023894D03*
G54D22*
X0030750Y0020199D03*
X0030250D03*
X0029750D03*
X0029250D03*
X0028750D03*
X0028250D03*
X0027750D03*
X0027250D03*
X0026750D03*
X0026250D03*
X0025750D03*
X0025250D03*
X0024750D03*
Y0018250D03*
X0025250D03*
X0025750D03*
X0026250D03*
X0026750D03*
X0027250D03*
X0027750D03*
X0028250D03*
X0028750D03*
X0029250D03*
X0029750D03*
X0030250D03*
X0030750D03*
G54D24*
X0038669Y0016057D03*
X0037095D03*
X0037882Y0014679D03*
G54D25*
X0047295Y0008248D03*
X0038201D03*
G54D31*
X0043730Y0015608D03*
X0044730D03*
X0045730D03*
X0046730D03*
X0047730D03*
X0048730D03*
X0049730D03*
X0050730D03*
X0051730D03*
X0052730D03*
X0052230Y0017380D03*
X0051230D03*
X0050230D03*
X0049230D03*
X0048230D03*
X0047230D03*
X0046230D03*
X0045230D03*
X0044230D03*
X0043230D03*
G54D36*
X0018500Y0025910D03*
Y0024590D03*
G54D37*
X0038500Y0026990D03*
X0038000D03*
Y0024510D03*
X0038500D03*
X0041000Y0026990D03*
X0040500D03*
Y0024510D03*
X0041000D03*
X0020750Y0026990D03*
X0020250D03*
Y0024510D03*
X0020750D03*
X0017000D03*
X0017500D03*
Y0026990D03*
X0017000D03*
X0030500D03*
X0030000D03*
Y0024510D03*
X0030500D03*
X0033500D03*
X0034000D03*
Y0026990D03*
X0033500D03*
X0026000D03*
X0025500D03*
Y0024510D03*
X0026000D03*
X0021750D03*
X0022250D03*
Y0026990D03*
X0021750D03*
X0027000Y0024510D03*
X0027500D03*
Y0026990D03*
X0027000D03*
X0031500Y0024510D03*
X0032000D03*
Y0026990D03*
X0031500D03*
X0036000D03*
X0035500D03*
Y0024510D03*
X0036000D03*
M02*
