%
T1C0.0079F200S100
X-001200Y014000
X-001050Y009650
X-000850Y017800
X-000800Y014400
X-000800Y014800
X-000550Y015500
X-000400Y014900
X001400Y002900
X001400Y003300
X001750Y002500
X001800Y016850
X001900Y018500
X002350Y-002100
X002400Y009100
X002450Y009550
X002500Y-002500
X002500Y010450
X002510Y019800
X002650Y-003550
X002700Y002900
X002850Y-002840
X003050Y014220
X003300Y-003350
X003300Y-000500
X003500Y000350
X003550Y-001250
X003950Y-002700
X004000Y004150
X004000Y009050
X004150Y015800
X004300Y008050
X004400Y014150
X004400Y019500
X004450Y002400
X004500Y013500
X004550Y000900
X004600Y006150
X004900Y003600
X004900Y006500
X004950Y003100
X005150Y008750
X005150Y009500
X005200Y007250
X005500Y003900
X005500Y013800
X005600Y-000500
X005650Y-000050
X005750Y005850
X006050Y001250
X006150Y-004000
X006350Y004500
X006500Y003900
X006550Y019250
X006500Y020220
X006500Y021300
X006800Y005500
X006800Y007250
X006870Y007650
X007100Y-001370
X007150Y021100
X007200Y005850
X007250Y003900
X007200Y009850
X007300Y011600
X007550Y-032000
X007700Y-006030
X007750Y-005500
X007950Y-008300
X008000Y-014200
X008000Y-011600
X008000Y003900
X008050Y001900
X008150Y-003000
X008200Y006500
X008300Y-000100
X008350Y-004500
X008400Y-002600
X008450Y021300
X008550Y006150
X008650Y-003000
X008650Y007650
X008650Y012750
X008750Y-040700
X008750Y-011600
X008750Y-006450
X008750Y-005000
X008800Y-000800
X008900Y008050
X009050Y021650
X009150Y012300
X009250Y018300
X009500Y-032550
X009500Y-011600
X009500Y004200
X009590Y-027050
X010000Y-006450
X010050Y012700
X010050Y018850
X010200Y-001700
X010203Y-002197
X010245Y-039450
X010250Y-040700
X010250Y-011600
X010250Y-008050
X010300Y-001000
X010250Y004200
X010340Y-027050
X010350Y005050
X010350Y005850
X010350Y007150
X010350Y008100
X010450Y009500
X010500Y-005800
X010600Y002200
X010700Y-004200
X010750Y006500
X010750Y007700
X010850Y-025500
X011000Y-032550
X011000Y-011600
X011000Y002600
X011050Y016470
X011050Y018300
X011000Y024000
X011150Y005050
X011150Y005850
X011150Y007150
X011150Y008100
X011150Y021350
X011200Y-029040
X011340Y-027050
X011350Y003100
X011350Y003600
X011450Y021850
X011500Y-004500
X011500Y019950
X011600Y-000050
X011745Y-039450
X011750Y-040700
X011750Y-032000
X011750Y-011600
X011951Y004750
X011951Y008250
X012090Y-027050
X012300Y-001000
X012500Y-032550
X012500Y-011600
X012500Y-000300
X012700Y022950
X012750Y005700
X012750Y007250
X012750Y008750
X012950Y-029040
X013000Y-008050
X013050Y-002200
X013000Y019550
X013000Y020650
X013130Y000650
X013245Y-039450
X013250Y-040700
X013250Y-031500
X013250Y-011600
X013350Y000250
X013455Y-027100
X013775Y-043850
X013840Y-027000
X013950Y-002950
X014000Y-032550
X014232Y-043800
X014000Y-001000
X014250Y019800
X014400Y-039375
X014700Y-029040
X014750Y-032000
X014840Y-027050
X015000Y010400
X015100Y005750
X015100Y007250
X015216Y-043800
X015400Y-042750
X015500Y-025500
X015500Y020800
X015500Y024700
X015590Y-027050
X015700Y035600
X015950Y003950
X016000Y034550
X016100Y035950
X016250Y024700
X016450Y-029040
X016500Y-031500
X016450Y-001750
X016650Y010550
X016750Y020800
X017000Y-032000
X017050Y027900
X017250Y-002550
X017300Y023800
X017400Y011600
X018000Y035950
X018200Y034600
X018250Y017050
X018250Y022450
X018250Y026800
X018550Y036490
X018750Y028000
X018930Y038350
X018950Y026900
X019150Y026300
X019406Y035606
X019500Y022000
X020250Y026400
X020550Y031760
X020750Y025100
X020750Y026400
X021250Y019800
X021250Y023850
X021500Y028200
X021250Y033600
X021700Y026400
X021900Y032100
X022000Y021500
X022350Y026350
X022450Y022550
X022750Y028000
X022850Y030800
X022950Y026930
X022950Y034400
X023500Y026500
X024000Y026800
X024450Y023850
X024500Y025450
X024750Y026700
X025000Y033600
X025200Y022000
X025250Y017099
X025500Y026150
X025550Y023780
X025750Y017099
X026000Y025100
X026116Y016416
X026250Y017099
X026250Y034400
X026350Y027900
X026400Y021500
X026450Y021970
X026500Y022550
X026500Y027400
X026550Y024510
X026750Y017099
X026760Y034240
X026800Y023850
X026800Y034750
X027000Y025900
X027550Y028250
X027750Y017099
X027800Y025150
X027750Y032700
X028200Y034240
X028350Y028380
X028350Y034620
X028750Y028450
X029000Y023850
X029300Y026420
X029300Y026950
X029450Y031550
X029500Y032800
X029550Y022850
X029950Y035268
X030000Y027600
X030016Y016416
X030500Y025150
X030500Y026400
X030600Y039000
X030650Y034130
X030750Y035250
X030900Y032400
X031050Y031850
X031350Y016400
X031550Y025100
X031650Y039300
X031950Y038500
X032250Y035450
X032300Y034050
X032500Y013500
X033000Y036000
X033000Y037000
X033000Y038000
X033000Y039000
X033000Y040000
X033250Y028450
X033300Y026000
X033500Y023850
X033500Y036000
X033500Y037000
X033500Y038000
X033500Y039000
X033500Y040000
X034000Y036000
X034000Y037000
X034000Y038000
X034000Y039000
X034000Y040000
X034100Y029050
X034300Y025150
X034500Y036000
X034500Y037000
X034500Y038000
X034500Y039000
X034500Y040000
X034850Y017450
X034950Y013300
X035000Y036000
X035000Y037000
X035000Y038000
X035000Y039000
X035000Y040000
X035200Y029900
X035480Y014620
X035500Y025100
X035500Y036000
X035500Y037000
X035500Y038000
X035500Y039000
X035500Y040000
X035650Y026050
X035850Y012550
X035850Y022850
X035850Y026400
X036000Y023950
X036400Y012250
X036000Y036000
X036000Y037000
X036000Y038000
X036000Y039000
X036000Y040000
X036450Y027150
X036500Y036000
X036500Y037000
X036500Y038000
X036500Y039000
X036500Y040000
X036700Y011850
X037000Y018410
X037000Y025450
X037000Y036000
X037000Y037000
X037000Y038000
X037000Y039000
X037000Y040000
X037250Y031950
X037500Y036000
X037500Y037000
X037500Y038000
X037500Y039000
X037500Y040000
X037750Y005250
X037750Y006700
X038000Y036000
X038000Y037000
X038000Y038000
X038000Y039000
X038000Y040000
X038500Y010000
X038500Y011000
X038950Y028400
X038500Y037000
X038500Y038000
X038500Y039000
X038500Y040000
X039000Y005850
X039000Y007150
X039000Y010500
X039050Y024580
X039000Y037000
X039000Y038000
X039000Y039000
X039250Y027150
X039500Y010000
X039500Y011000
X039500Y037000
X039500Y038000
X039700Y013300
X039750Y025950
X040000Y016000
X040200Y003964
X040000Y037000
X040000Y038000
X040250Y030000
X040500Y008000
X040500Y009000
X040500Y010000
X040500Y011000
X040500Y037000
X040750Y004200
X041000Y008500
X041000Y009500
X041000Y010500
X041000Y037000
X041450Y024510
X041500Y008000
X041500Y009000
X041500Y010000
X041500Y011000
X041550Y014000
X041700Y018200
X042000Y003000
X042000Y008500
X042000Y009500
X042000Y010500
X042050Y020510
X042050Y022990
X042400Y017100
X042500Y008000
X042500Y009000
X042500Y010000
X042500Y011000
X042700Y019780
X043000Y008500
X043000Y009500
X043000Y010500
X043150Y024750
X043300Y022350
X043500Y008000
X043500Y009000
X043500Y010000
X043500Y011000
X043730Y014300
X043750Y023650
X044000Y003650
X044200Y016500
X044250Y021950
X044500Y010000
X044500Y011000
X044550Y020510
X044700Y014300
X045200Y001100
X045250Y002700
X045250Y010450
X045450Y016500
X045500Y005000
X045500Y005500
X045500Y006000
X045500Y006500
X045500Y007000
X045550Y021800
X045650Y003650
X045730Y014620
X045800Y022350
X046000Y005000
X046000Y005500
X046000Y006000
X046000Y006500
X046000Y007000
X046200Y016500
X046250Y021700
X046750Y005000
X046750Y005500
X046750Y006000
X046750Y006500
X046750Y007000
X047000Y022050
X047200Y003714
X047250Y005000
X047250Y005500
X047250Y006000
X047250Y006500
X047250Y007000
X047200Y016500
X047450Y021400
X047750Y002700
X047750Y005000
X047750Y005500
X047750Y006000
X047750Y006500
X047750Y007000
X048250Y005000
X048250Y005500
X048250Y006000
X048250Y006500
X048250Y007000
X048300Y014550
X048500Y016500
X048650Y012894
X048700Y020510
X048750Y005000
X048750Y005500
X048750Y006000
X048750Y006500
X048750Y007000
X049000Y022050
X049200Y013970
X049250Y016500
X049300Y020510
X049500Y005000
X049500Y005500
X049500Y006000
X049500Y006500
X049500Y007000
X050000Y005000
X050000Y005500
X050000Y006000
X050000Y006500
X050000Y007000
X050000Y021500
X050250Y008100
X050250Y013900
X050500Y016500
X050250Y018450
X050700Y011960
X050850Y014450
X050900Y019000
X050950Y003714
X051000Y012250
X051250Y016500
X051500Y007300
X052000Y008300
X052150Y013850
X052250Y018300
X052730Y013820
X052750Y002350
X052750Y003650
X052800Y017100
X053600Y011600
X054000Y001550
X054000Y002950
X054000Y011300
X054000Y017000
X054000Y018450
T4C0.0433F200S100
X000000Y010750
X000000Y011750
X000000Y012750
X001000Y010750
X001000Y011750
X001000Y012750
X023000Y036500
X023000Y037500
X024000Y036500
X024000Y037500
X025000Y036500
X025000Y037500
X026000Y036500
X026000Y037500
X027000Y036500
X027000Y037500
X028000Y036500
X028000Y037500
X029000Y036500
X029000Y037500
X030000Y036500
X030000Y037500
X042250Y000250
X043250Y000250
X044250Y000250
X050500Y000250
X051500Y000250
X052500Y000250
T5C0.0472F200S100
X000008Y016789
X000008Y017774
X000008Y018758
X000008Y019742
X000008Y020726
X000008Y021711
X000992Y016789
X000992Y017774
X000992Y018758
X000992Y019742
X000992Y020726
X000992Y021711
X012781Y013750
X013258Y029508
X013258Y030492
X013766Y012766
X013766Y014734
X014242Y029508
X014242Y030492
X014750Y013750
X015734Y012766
X015734Y014734
X017531Y029535
X018516Y029535
X018516Y030520
X017531Y030520
X019500Y029535
X019500Y030520
X020484Y029535
X020484Y030520
X021258Y015527
X021468Y029535
X021468Y030520
X022242Y015527
X024516Y029508
X024516Y030492
X025500Y029508
X025500Y030492
X026484Y029508
X026484Y030492
X028047Y014508
X028047Y015492
X029031Y014508
X029031Y015492
X029774Y029535
X029774Y030520
X030016Y014508
X030016Y015492
X030758Y029535
X030758Y030520
X031000Y014508
X031000Y015492
X031742Y029535
X031742Y030520
X031984Y014508
X031984Y015492
X032726Y029535
X032726Y030520
X032968Y014508
X032968Y015492
X033953Y014508
X033953Y015492
T7C0.0630F200S100
X012403Y029622
X015096Y029622
X020403Y015527
X023096Y015527
X023661Y029622
X027338Y029622
T2C0.0315F200S100
X015744Y018996
X015744Y019783
X016532Y018996
X016532Y019783
X017319Y018996
X017319Y019783
X018106Y018996
X018106Y019783
X018893Y018996
X018893Y019783
T3C0.0354F200S100
X000500Y005016
X000500Y005803
X016500Y006500
X016500Y007287
X016500Y008075
X016500Y008862
X052571Y005252
X052571Y006039
T8C0.1260F200S100
X000000Y000000
X007874Y016142
X009055Y-044882
X012795Y034646
X015748Y-004724
X037323Y-011417
X039291Y022047
X040276Y034646
X053071Y-011417
X053071Y022047
M30
