*
G04 Mass Parameters ***
*
G04 Image ***
*
%IND:\UTENTI\00.LAVORI IN CORSO\METALTRONICA\22-304-1\22-304-1.BOT*%
%ICAS*%
%MOIN*%
%IPPOS*%
%ASAXBY*%
G74*%FSLAN2X34Y34*%
*
G04 Aperture Definitions ***
*
%ADD10C,0.1260*%
%ADD11C,0.0394*%
%ADD12R,0.0380X0.0320*%
%ADD13R,0.1024X0.0510*%
%ADD14R,0.0380X0.0320*%
%ADD15R,0.0905X0.0886*%
%ADD16R,0.0501X0.0404*%
%ADD17R,0.0630X0.1260*%
%ADD18R,0.0710X0.0400*%
%ADD19R,0.0886X0.0905*%
%ADD20R,0.0197X0.0315*%
%ADD21R,0.0400X0.0500*%
%ADD22R,0.0550X0.0350*%
%ADD23R,0.1500X0.1670*%
%ADD24C,0.1000*%
%ADD25C,0.0787*%
%ADD26C,0.0512*%
%ADD27R,0.0669X0.0669*%
%ADD28R,0.0787X0.0787*%
%ADD29C,0.0590*%
%ADD30R,0.0590X0.0590*%
%ADD31C,0.0866*%
%ADD32C,0.0669*%
%ADD33R,0.0472X0.0118*%
%ADD34R,0.1181X0.1063*%
%ADD35R,0.0413X0.0236*%
%ADD36C,0.0187*%
%ADD37R,0.0500X0.0400*%
%ADD38R,0.0512X0.0354*%
%ADD39O,0.0650X0.0256*%
%ADD40O,0.0256X0.0650*%
%ADD41R,0.0820X0.1500*%
%ADD42R,0.4500X0.3500*%
%ADD43R,0.1701X0.1181*%
%ADD44R,0.0177X0.0649*%
%ADD45C,0.0800*%
%ADD46R,0.1000X0.0600*%
%ADD47R,0.2760X0.2760*%
%ADD48R,0.1500X0.0820*%
%ADD49R,0.3500X0.4500*%
%ADD50O,0.0700X0.0110*%
%ADD51R,0.0700X0.0110*%
%ADD52O,0.0110X0.0700*%
%ADD53R,0.0110X0.0700*%
%ADD54R,0.0250X0.0350*%
%ADD55R,0.0350X0.0250*%
%ADD56R,0.0197X0.0394*%
%ADD57C,0.0276*%
%ADD58C,0.0250*%
%ADD59C,0.0050*%
%ADD60C,0.0100*%
%ADD61C,0.0600*%
%ADD62C,0.0080*%
%ADD63C,0.0170*%
%ADD64C,0.0276*%
%ADD65C,0.0110*%
%ADD66C,0.0500*%
%ADD67C,0.0118*%
%ADD68C,0.0150*%
%ADD69C,0.0276*%
%ADD70C,0.0060*%
%ADD71C,0.0276*%
*
G04 Plot Data ***
*
G54D58*
G01X0034000Y0006750D02*
Y0008350D01*
X0022800Y0004550D02*
X0025700D01*
X0022800D02*
X0022720Y0004530D01*
X0022000Y0005250D01*
Y0010650D01*
X0030750Y0011250D02*
X0028800D01*
X0030750D02*
Y0012500D01*
X0030400Y0012850D01*
X0030750Y0011250D02*
X0028800D01*
X0024550D01*
G54D60*
G01X0056080Y0006331D02*
X0056329Y0006083D01*
X0054810Y-0000686D02*
Y-0001151D01*
X0021746Y0007130D02*
X0006750D01*
X0076350Y0003710D02*
X0065763D01*
X0053304Y0000830D02*
X0050369D01*
X0048600Y0008200D02*
Y0006527D01*
X0054450Y0001324D02*
Y-0001324D01*
X0054360Y0001257D02*
Y-0001257D01*
X0054270Y0001234D02*
Y-0001234D01*
X0053910Y0001949D02*
Y-0001600D01*
X0039870Y0008330D02*
Y0003632D01*
X0057600Y0006331D02*
Y-0001600D01*
X0061331Y0003800D02*
X0053069D01*
X0053640Y0000645D02*
Y-0001600D01*
X0053550Y0000634D02*
Y-0001600D01*
X0053370Y0000714D02*
Y-0001600D01*
X0053280Y0001897D02*
Y-0001600D01*
X0052724Y0002450D02*
X0050369D01*
X0053190Y0001948D02*
Y-0001600D01*
X0053100Y0002074D02*
Y-0001600D01*
X0052920Y0001984D02*
Y-0001600D01*
X0052830Y0001993D02*
Y-0001600D01*
X0052650Y0002158D02*
Y-0001600D01*
X0052560Y0006001D02*
Y-0001600D01*
X0052470Y0006091D02*
Y-0001600D01*
X0052380Y0006181D02*
Y-0001600D01*
X0052290Y0006271D02*
Y-0001600D01*
X0052110Y0006451D02*
Y-0001600D01*
X0052020Y0006531D02*
Y-0001600D01*
X0051930Y0006531D02*
Y-0001600D01*
X0052100Y0006869D02*
X0051656D01*
X0051840Y0006531D02*
Y-0001600D01*
X0051660Y0006531D02*
Y-0001600D01*
X0051570Y0006462D02*
Y-0001600D01*
X0050794Y0003419D02*
X0050550D01*
X0051300Y0006480D02*
Y-0001600D01*
X0051210Y0003086D02*
Y-0001600D01*
X0051120Y0003012D02*
Y-0001600D01*
X0051030Y0002985D02*
Y-0001600D01*
X0050940Y0002990D02*
Y-0001600D01*
X0050400Y0002861D02*
Y0000476D01*
X0050850Y0003030D02*
Y-0001600D01*
X0050670Y0003081D02*
Y-0001600D01*
X0050490Y0002951D02*
Y-0001600D01*
X0050580Y0003041D02*
Y-0001600D01*
X0047790Y-0000950D02*
Y-0001600D01*
X0050220Y0000034D02*
Y-0001600D01*
X0050130Y0000043D02*
Y-0001600D01*
X0049950Y0007138D02*
Y0000392D01*
Y0000208D02*
Y-0001600D01*
X0049391Y0000470D02*
X0047869D01*
X0049770Y0003336D02*
Y-0001600D01*
X0049680Y-0000134D02*
Y-0001600D01*
X0049590Y-0000226D02*
Y-0001600D01*
X0049500Y-0000261D02*
Y-0001600D01*
X0049410Y-0000263D02*
Y-0001600D01*
X0049320Y0002293D02*
Y0000307D01*
X0049230Y0002284D02*
Y0000150D01*
X0048755Y0002810D02*
X0047869D01*
X0048773Y0003170D02*
X0047869D01*
X0049140Y0002307D02*
Y-0001600D01*
X0048791Y0006030D02*
Y0003186D01*
X0048780Y0002784D02*
Y-0001600D01*
X0048003Y0002000D02*
X0047869D01*
X0048600Y0006033D02*
Y-0001600D01*
X0048510Y0002042D02*
Y-0001600D01*
X0048420Y0001895D02*
Y-0001600D01*
X0048330Y0001846D02*
Y-0001600D01*
X0048240Y0001834D02*
Y-0001600D01*
X0048060Y0001913D02*
Y-0001600D01*
X0047070Y-0001464D02*
Y-0001600D01*
X0047880Y-0000896D02*
Y-0001600D01*
X0047160Y-0001459D02*
Y-0001600D01*
X0047520Y0003341D02*
Y-0000504D01*
X0047970Y0008200D02*
Y-0001600D01*
X0046637Y-0000610D02*
X0035882D01*
X0050310Y0000057D02*
Y-0001600D01*
X0047610Y-0001492D02*
Y-0001600D01*
X0047340Y-0001463D02*
Y-0001600D01*
X0046890Y-0001364D02*
Y-0001600D01*
X0046408Y0002000D02*
X0008392D01*
X0046710Y0001586D02*
Y-0000463D01*
Y-0000836D02*
Y-0001600D01*
X0046620Y0001512D02*
Y-0001600D01*
X0046530Y0001485D02*
Y-0001600D01*
X0046260Y0001634D02*
Y-0001600D01*
X0046170Y0008200D02*
Y-0001600D01*
X0046080Y0008200D02*
Y-0001600D01*
X0045990Y0008200D02*
Y-0001600D01*
X0045900Y0008200D02*
Y-0001600D01*
X0049335Y0007373D02*
X0049225Y0007264D01*
X0040860Y0008200D02*
Y0002976D01*
X0045810Y0008200D02*
Y-0001600D01*
X0045720Y0003350D02*
Y-0001600D01*
X0045630Y0003267D02*
Y-0001600D01*
X0045540Y0003237D02*
Y-0001600D01*
X0045270Y0003366D02*
Y-0001600D01*
X0045180Y0008200D02*
Y-0001600D01*
X0045090Y0008200D02*
Y-0001600D01*
X0045000Y0008200D02*
Y-0001600D01*
X0044910Y0008200D02*
Y-0001600D01*
X0044820Y0008200D02*
Y-0001600D01*
X0044730Y0008200D02*
Y-0001600D01*
X0044640Y0008200D02*
Y-0001600D01*
X0044550Y0008200D02*
Y-0001600D01*
X0044460Y0008200D02*
Y-0001600D01*
X0044370Y0008200D02*
Y-0001600D01*
X0044280Y0008200D02*
Y-0001600D01*
X0044190Y0008200D02*
Y-0001600D01*
X0044100Y0008200D02*
Y-0001600D01*
X0044010Y0008200D02*
Y-0001600D01*
X0043920Y0008200D02*
Y-0001600D01*
X0043830Y0008200D02*
Y-0001600D01*
X0043740Y0008200D02*
Y-0001600D01*
X0043650Y0008200D02*
Y-0001600D01*
X0043560Y0008200D02*
Y-0001600D01*
X0043470Y0008200D02*
Y-0001600D01*
X0043380Y0008200D02*
Y-0001600D01*
X0043290Y0008200D02*
Y-0001600D01*
X0043200Y0008200D02*
Y-0001600D01*
X0043110Y0008200D02*
Y-0001600D01*
X0043020Y0008200D02*
Y-0001600D01*
X0042930Y0008200D02*
Y-0001600D01*
X0042840Y0008200D02*
Y-0001600D01*
X0042750Y0008200D02*
Y-0001600D01*
X0042660Y0008200D02*
Y-0001600D01*
X0042570Y0008200D02*
Y-0001600D01*
X0042480Y0008200D02*
Y-0001600D01*
X0042390Y0008200D02*
Y-0001600D01*
X0042300Y0008200D02*
Y-0001600D01*
X0042210Y0008200D02*
Y-0001600D01*
X0042120Y0008200D02*
Y-0001600D01*
X0042030Y0008200D02*
Y-0001600D01*
X0041940Y0008200D02*
Y-0001600D01*
X0041850Y0008200D02*
Y-0001600D01*
X0041760Y0008200D02*
Y-0001600D01*
X0041670Y0008200D02*
Y-0001600D01*
X0033300Y0014900D02*
Y0000301D01*
X0041490Y0008200D02*
Y-0001600D01*
X0041400Y0008200D02*
Y-0001600D01*
X0045280Y0003350D02*
X0040261D01*
X0030496Y0011504D02*
X0028881D01*
X0041310Y0008200D02*
Y-0001600D01*
X0041220Y0002600D02*
Y-0001600D01*
X0041130Y0002517D02*
Y-0001600D01*
X0041040Y0002487D02*
Y-0001600D01*
X0040770Y0002616D02*
Y-0001600D01*
X0040680Y0008200D02*
Y-0001600D01*
X0040590Y0008200D02*
Y-0001600D01*
X0040500Y0008200D02*
Y-0001600D01*
X0040410Y0008200D02*
Y-0001600D01*
X0050691Y0004070D02*
X0049419D01*
X0040320Y0008200D02*
Y-0001600D01*
X0040230Y0003266D02*
Y-0001600D01*
X0040140Y0003173D02*
Y-0001600D01*
X0040050Y0003138D02*
Y-0001600D01*
X0039960Y0003137D02*
Y-0001600D01*
X0039780Y0003250D02*
Y-0001600D01*
X0039690Y0008510D02*
Y-0001600D01*
X0039600Y0008600D02*
Y-0001600D01*
X0039510Y0008690D02*
Y-0001600D01*
X0039420Y0008780D02*
Y-0001600D01*
X0039330Y0008870D02*
Y-0001600D01*
X0039240Y0008960D02*
Y-0001600D01*
X0039150Y0009050D02*
Y-0001600D01*
X0033335Y-0000430D02*
X0031490D01*
X0039060Y0009140D02*
Y-0001600D01*
X0038970Y-0000350D02*
Y-0001600D01*
X0038880Y-0000432D02*
Y-0001600D01*
X0038790Y-0000463D02*
Y-0001600D01*
X0038700Y-0000461D02*
Y-0001600D01*
X0038520Y-0000334D02*
Y-0001600D01*
X0038430Y0009770D02*
Y-0001600D01*
X0038340Y0009860D02*
Y-0001600D01*
X0038250Y0009950D02*
Y-0001600D01*
X0038160Y0010040D02*
Y-0001600D01*
X0038070Y0010130D02*
Y-0001600D01*
X0037980Y0010220D02*
Y-0001600D01*
X0037890Y0010310D02*
Y-0001600D01*
X0037800Y0010400D02*
Y-0001600D01*
X0037710Y0010490D02*
Y-0001600D01*
X0037620Y0010580D02*
Y-0001600D01*
X0037530Y0010670D02*
Y-0001600D01*
X0037440Y0010760D02*
Y-0001600D01*
X0037350Y0010850D02*
Y-0001600D01*
X0037260Y0010940D02*
Y-0001600D01*
X0037170Y0011030D02*
Y-0001600D01*
X0037080Y0011120D02*
Y-0001600D01*
X0036990Y0011210D02*
Y-0001600D01*
X0036900Y0011300D02*
Y-0001600D01*
X0036810Y0011390D02*
Y-0001600D01*
X0036720Y0011480D02*
Y-0001600D01*
X0036630Y0011570D02*
Y-0001600D01*
X0036540Y0011660D02*
Y-0001600D01*
X0036450Y0011750D02*
Y-0001600D01*
X0036360Y0011840D02*
Y-0001600D01*
X0036270Y0011930D02*
Y-0001600D01*
X0036180Y0012020D02*
Y-0001600D01*
X0046837Y-0001240D02*
X0035249D01*
X0036090Y0012110D02*
Y-0001600D01*
X0036000Y-0000259D02*
Y-0001600D01*
X0035910Y-0000550D02*
Y-0001600D01*
X0035820Y-0000723D02*
Y-0001600D01*
X0035730Y-0000852D02*
Y-0001600D01*
X0035640Y-0000955D02*
Y-0001600D01*
X0023727Y-0000790D02*
X0006750D01*
X0035550Y-0001041D02*
Y-0001600D01*
X0035460Y-0001113D02*
Y-0001600D01*
X0035370Y-0001173D02*
Y-0001600D01*
X0035280Y-0001224D02*
Y-0001600D01*
X0035190Y-0001267D02*
Y-0001600D01*
X0035100Y-0001302D02*
Y-0001600D01*
X0035010Y-0001330D02*
Y-0001600D01*
X0034920Y-0001351D02*
Y-0001600D01*
X0034830Y-0001366D02*
Y-0001600D01*
X0034740Y-0001375D02*
Y-0001600D01*
X0034650Y-0001379D02*
Y-0001600D01*
X0034560Y-0001376D02*
Y-0001600D01*
X0034470Y-0001367D02*
Y-0001600D01*
X0034380Y-0001353D02*
Y-0001600D01*
X0034290Y-0001332D02*
Y-0001600D01*
X0034200Y-0001305D02*
Y-0001600D01*
X0034110Y0006507D02*
Y0001270D01*
X0034020Y0006484D02*
Y0001229D01*
X0033840Y-0001119D02*
Y-0001600D01*
X0033750Y-0001048D02*
Y-0001600D01*
X0033660Y-0000964D02*
Y-0001600D01*
X0033570Y-0000863D02*
Y-0001600D01*
X0033480Y-0000736D02*
Y-0001600D01*
X0033300Y-0000301D02*
Y-0001600D01*
X0033210Y0014990D02*
Y-0001600D01*
X0033120Y0015080D02*
Y-0001600D01*
X0033030Y0015170D02*
Y-0001600D01*
X0030330Y-0000655D02*
Y-0001600D01*
X0032850Y0015350D02*
Y-0001600D01*
X0032760Y0015440D02*
Y-0001600D01*
X0032670Y0015530D02*
Y-0001600D01*
X0032580Y0015620D02*
Y-0001600D01*
X0032490Y0015710D02*
Y-0001600D01*
X0032400Y0015800D02*
Y-0001600D01*
X0032310Y0015890D02*
Y-0001600D01*
X0032220Y0015980D02*
Y-0001600D01*
X0032130Y0016070D02*
Y-0001600D01*
X0032040Y0016160D02*
Y-0001600D01*
X0031950Y0016250D02*
Y-0001600D01*
X0031860Y0016340D02*
Y-0001600D01*
X0031770Y0016430D02*
Y-0001600D01*
X0031680Y0016520D02*
Y-0001600D01*
X0030510Y-0000431D02*
Y-0001600D01*
X0031500Y-0000401D02*
Y-0001600D01*
X0031410Y-0000573D02*
Y-0001600D01*
X0029160Y-0000772D02*
Y-0001600D01*
X0031590Y0016610D02*
Y-0001600D01*
X0031140Y-0000753D02*
Y-0001600D01*
X0031050Y-0000770D02*
Y-0001600D01*
X0030960Y-0000771D02*
Y-0001600D01*
X0030870Y-0000756D02*
Y-0001600D01*
X0030780Y-0000724D02*
Y-0001600D01*
X0029522Y-0000461D02*
Y-0000772D01*
X0029250D02*
Y-0001600D01*
X0031230Y-0000719D02*
Y-0001600D01*
X0030600Y-0000586D02*
Y-0001600D01*
X0030240Y-0000714D02*
Y-0001600D01*
X0030150Y-0000750D02*
Y-0001600D01*
X0030060Y-0000769D02*
Y-0001600D01*
X0029970Y-0000771D02*
Y-0001600D01*
X0029880Y-0000758D02*
Y-0001600D01*
X0029790Y-0000728D02*
Y-0001600D01*
X0029700Y-0000677D02*
Y-0001600D01*
X0031320Y-0000663D02*
Y-0001600D01*
X0029340Y-0000772D02*
Y-0001600D01*
X0030420Y-0000560D02*
Y-0001600D01*
X0029520Y-0000456D02*
Y-0001600D01*
X0029070Y-0000772D02*
Y-0001600D01*
X0028980Y-0000772D02*
Y-0001600D01*
X0028890Y-0000772D02*
Y-0001600D01*
X0028800Y-0000772D02*
Y-0001600D01*
X0028710Y-0000772D02*
Y-0001600D01*
X0035940Y0012260D02*
X0031004D01*
X0024930Y-0000277D02*
Y-0001600D01*
X0028440Y0010996D02*
Y-0001600D01*
X0028350Y0010996D02*
Y-0001600D01*
X0028260Y0010996D02*
Y-0001600D01*
X0028170Y0010996D02*
Y-0001600D01*
X0028080Y0010996D02*
Y-0001600D01*
X0027990Y0010996D02*
Y-0001600D01*
X0027900Y0010996D02*
Y-0001600D01*
X0027810Y0010996D02*
Y-0001600D01*
X0027720Y0010996D02*
Y-0001600D01*
X0027630Y0010996D02*
Y-0001600D01*
X0027540Y0010996D02*
Y-0001600D01*
X0027450Y0010996D02*
Y-0001600D01*
X0027360Y0010996D02*
Y-0001600D01*
X0027270Y0010996D02*
Y-0001600D01*
X0027180Y0010996D02*
Y-0001600D01*
X0027090Y0010996D02*
Y-0001600D01*
X0027000Y0010996D02*
Y-0001600D01*
X0026910Y0010996D02*
Y-0001600D01*
X0026820Y0010996D02*
Y-0001600D01*
X0026730Y0010996D02*
Y-0001600D01*
X0026640Y0010996D02*
Y-0001600D01*
X0026550Y0010996D02*
Y-0001600D01*
X0026460Y0010996D02*
Y-0001600D01*
X0026370Y0010996D02*
Y-0001600D01*
X0026280Y0010996D02*
Y-0001600D01*
X0026190Y0010996D02*
Y-0001600D01*
X0024210Y-0000841D02*
Y-0001600D01*
X0026010Y0010996D02*
Y-0001600D01*
X0025830Y-0000377D02*
Y-0001600D01*
X0025740Y-0000443D02*
Y-0001600D01*
X0025650Y-0000485D02*
Y-0001600D01*
X0025560Y-0000508D02*
Y-0001600D01*
X0025470Y-0000514D02*
Y-0001600D01*
X0025380Y-0000506D02*
Y-0001600D01*
X0025290Y-0000480D02*
Y-0001600D01*
X0025920Y-0000268D02*
Y-0001600D01*
X0025020Y-0000246D02*
Y-0001600D01*
X0024840Y-0000382D02*
Y-0001600D01*
X0024750Y-0000446D02*
Y-0001600D01*
X0024660Y-0000487D02*
Y-0001600D01*
X0024570Y-0000509D02*
Y-0001600D01*
X0024120Y-0000885D02*
Y-0001600D01*
X0024030Y-0000903D02*
Y-0001600D01*
X0023940Y-0000899D02*
Y-0001600D01*
X0023850Y-0000873D02*
Y-0001600D01*
X0023046Y-0000236D02*
Y-0000515D01*
X0023670Y-0000717D02*
Y-0001600D01*
X0023580Y-0000509D02*
Y-0001600D01*
X0023490Y-0000514D02*
Y-0001600D01*
X0023400Y-0000503D02*
Y-0001600D01*
X0023130Y-0000353D02*
Y-0001600D01*
X0023040Y-0000515D02*
Y-0001600D01*
X0022950Y-0000515D02*
Y-0001600D01*
X0022860Y-0000515D02*
Y-0001600D01*
X0022770Y-0000515D02*
Y-0001600D01*
X0022680Y-0000515D02*
Y-0001600D01*
X0022590Y-0000515D02*
Y-0001600D01*
X0022500Y-0000515D02*
Y-0001600D01*
X0022410Y-0000515D02*
Y-0001600D01*
X0022320Y0004571D02*
Y0001473D01*
X0022230Y0004661D02*
Y0001424D01*
X0022140Y0004751D02*
Y0001346D01*
X0022050Y-0000515D02*
Y-0001600D01*
X0021780Y0005124D02*
Y-0001600D01*
X0019620Y0017300D02*
Y0011359D01*
X0021600Y0010471D02*
Y-0001600D01*
X0021510Y0010471D02*
Y-0001600D01*
X0021420Y0010471D02*
Y-0001600D01*
X0021330Y0010471D02*
Y-0001600D01*
X0021240Y0010471D02*
Y-0001600D01*
X0021150Y0010471D02*
Y-0001600D01*
X0019324Y0010640D02*
X0006750D01*
X0021060Y0010471D02*
Y-0001600D01*
X0020970Y0010471D02*
Y-0001600D01*
X0020790Y0010471D02*
Y-0001600D01*
X0020700Y0010471D02*
Y-0001600D01*
X0020610Y0010471D02*
Y-0001600D01*
X0020520Y0010471D02*
Y-0001600D01*
X0020430Y0010471D02*
Y-0001600D01*
X0020340Y0010471D02*
Y-0001600D01*
X0020250Y0010471D02*
Y-0001600D01*
X0020160Y0010471D02*
Y-0001600D01*
X0020070Y0010471D02*
Y-0001600D01*
X0019440Y0017300D02*
Y0011374D01*
X0019890Y0010471D02*
Y-0001600D01*
X0019800Y0010471D02*
Y-0001600D01*
X0022552Y0004340D02*
X0006750D01*
X0019710Y0010471D02*
Y-0001600D01*
X0019620Y0010472D02*
Y-0001600D01*
X0019350Y0010614D02*
Y-0001600D01*
X0019170Y0010814D02*
Y-0001600D01*
X0019080Y0017300D02*
Y-0001600D01*
X0018990Y0017300D02*
Y-0001600D01*
X0018900Y0017300D02*
Y-0001600D01*
X0018810Y0017300D02*
Y-0001600D01*
X0018720Y0017300D02*
Y-0001600D01*
X0018630Y0017300D02*
Y-0001600D01*
X0018540Y0017300D02*
Y-0001600D01*
X0018450Y0017300D02*
Y-0001600D01*
X0018360Y0017300D02*
Y-0001600D01*
X0018270Y0017300D02*
Y-0001600D01*
X0018180Y0017300D02*
Y-0001600D01*
X0018090Y0017300D02*
Y-0001600D01*
X0018000Y0017300D02*
Y-0001600D01*
X0017910Y0017300D02*
Y-0001600D01*
X0017820Y0017300D02*
Y-0001600D01*
X0017730Y0017300D02*
Y-0001600D01*
X0017640Y0017300D02*
Y-0001600D01*
X0017550Y0017300D02*
Y-0001600D01*
X0017460Y0017300D02*
Y-0001600D01*
X0017370Y0017300D02*
Y-0001600D01*
X0017280Y0017300D02*
Y-0001600D01*
X0017190Y0017300D02*
Y-0001600D01*
X0017100Y0017300D02*
Y-0001600D01*
X0017010Y0017300D02*
Y-0001600D01*
X0016920Y0017300D02*
Y-0001600D01*
X0016830Y0017300D02*
Y-0001600D01*
X0016740Y0017300D02*
Y-0001600D01*
X0016650Y0017300D02*
Y-0001600D01*
X0016560Y0017300D02*
Y-0001600D01*
X0016470Y0017300D02*
Y-0001600D01*
X0016380Y0017300D02*
Y-0001600D01*
X0016290Y0017300D02*
Y-0001600D01*
X0016200Y0017300D02*
Y-0001600D01*
X0016110Y0017300D02*
Y-0001600D01*
X0016020Y0017300D02*
Y-0001600D01*
X0015930Y0017300D02*
Y-0001600D01*
X0015840Y0017300D02*
Y-0001600D01*
X0015750Y0017300D02*
Y-0001600D01*
X0015660Y0017300D02*
Y-0001600D01*
X0015570Y0017300D02*
Y-0001600D01*
X0022001Y-0000340D02*
X0006750D01*
X0015390Y0017300D02*
Y-0001600D01*
X0015300Y0017300D02*
Y-0001600D01*
X0015210Y0017300D02*
Y-0001600D01*
X0015120Y0017300D02*
Y-0001600D01*
X0015030Y0017300D02*
Y-0001600D01*
X0014940Y0017300D02*
Y-0001600D01*
X0014850Y0017300D02*
Y-0001600D01*
X0014760Y0017300D02*
Y-0001600D01*
X0014670Y0017300D02*
Y-0001600D01*
X0014580Y0017300D02*
Y-0001600D01*
X0014490Y0017300D02*
Y-0001600D01*
X0014400Y0017300D02*
Y-0001600D01*
X0014310Y0017300D02*
Y-0001600D01*
X0014220Y0017300D02*
Y-0001600D01*
X0014130Y0017300D02*
Y-0001600D01*
X0014040Y0017300D02*
Y-0001600D01*
X0013950Y0017300D02*
Y-0001600D01*
X0013860Y0017300D02*
Y-0001600D01*
X0013770Y0017300D02*
Y-0001600D01*
X0013680Y0017300D02*
Y-0001600D01*
X0013590Y0017300D02*
Y-0001600D01*
X0013500Y0017300D02*
Y-0001600D01*
X0013410Y0017300D02*
Y-0001600D01*
X0013320Y0017300D02*
Y-0001600D01*
X0013230Y0017300D02*
Y-0001600D01*
X0013140Y0017300D02*
Y-0001600D01*
X0013050Y0017300D02*
Y-0001600D01*
X0012960Y0017300D02*
Y-0001600D01*
X0012870Y0017300D02*
Y-0001600D01*
X0012780Y0017300D02*
Y-0001600D01*
X0012690Y0017300D02*
Y-0001600D01*
X0012600Y0017300D02*
Y-0001600D01*
X0012510Y0017300D02*
Y-0001600D01*
X0012420Y0017300D02*
Y-0001600D01*
X0012330Y0017300D02*
Y-0001600D01*
X0012240Y0017300D02*
Y-0001600D01*
X0012150Y0017300D02*
Y-0001600D01*
X0012060Y0017300D02*
Y-0001600D01*
X0011970Y0017300D02*
Y-0001600D01*
X0011880Y0017300D02*
Y-0001600D01*
X0028896Y0016670D02*
X0008600D01*
X0010740Y0015140D02*
X0008600D01*
X0010722Y0013970D02*
X0008600D01*
X0011790Y0017300D02*
Y-0001600D01*
X0011700Y0013722D02*
Y-0001600D01*
X0011610Y0013613D02*
Y-0001600D01*
X0011520Y0013545D02*
Y-0001600D01*
X0011250Y0013471D02*
Y-0001600D01*
X0011160Y0013479D02*
Y-0001600D01*
X0010980Y0013545D02*
Y-0001600D01*
X0010710Y0017300D02*
Y-0001600D01*
X0010620Y0017300D02*
Y-0001600D01*
X0010530Y0017300D02*
Y-0001600D01*
X0010440Y0017300D02*
Y-0001600D01*
X0010350Y0017300D02*
Y-0001600D01*
X0010260Y0017300D02*
Y-0001600D01*
X0010170Y0017300D02*
Y-0001600D01*
X0010080Y0017300D02*
Y-0001600D01*
X0009990Y0017300D02*
Y-0001600D01*
X0009900Y0017300D02*
Y-0001600D01*
X0009810Y0017300D02*
Y-0001600D01*
X0009720Y0017300D02*
Y-0001600D01*
X0009630Y0017300D02*
Y-0001600D01*
X0009540Y0017300D02*
Y-0001600D01*
X0009450Y0017300D02*
Y-0001600D01*
X0009360Y0017300D02*
Y-0001600D01*
X0009270Y0017300D02*
Y-0001600D01*
X0008353Y0002450D02*
X0006750D01*
X0009180Y0017300D02*
Y-0001600D01*
X0009090Y0011034D02*
Y-0001600D01*
X0007395Y0002270D02*
X0006750D01*
X0054539Y0001820D02*
X0050369D01*
X0008910Y0010890D02*
Y-0001600D01*
X0008820Y0002200D02*
Y-0001600D01*
X0008730Y0002117D02*
Y-0001600D01*
X0047531Y0001550D02*
X0047292D01*
X0008460Y0001537D02*
Y-0001600D01*
X0021746Y0007760D02*
X0006750D01*
X0008370Y0001493D02*
Y-0001600D01*
X0007453Y0005600D02*
X0006750D01*
X0008100Y0001574D02*
Y-0001600D01*
X0007334Y0002090D02*
X0006750D01*
X0008010Y0001784D02*
Y-0001600D01*
X0007830Y0001845D02*
Y-0001600D01*
X0007740Y0001873D02*
Y-0001600D01*
X0007560Y0001837D02*
Y-0001600D01*
X0040762Y0002630D02*
X0006750D01*
Y0002958D02*
Y-0001600D01*
X0007290Y0012300D02*
Y-0001600D01*
X0007200Y0002874D02*
Y-0001600D01*
X0007110Y0002807D02*
Y-0001600D01*
X0007020Y0002784D02*
Y-0001600D01*
X0010822Y0016310D02*
X0008600D01*
X0025107Y0000623D02*
X0025476Y0000992D01*
X0010769Y0016220D02*
X0008600D01*
X0073980Y0005586D02*
Y0005125D01*
X0030990Y0017210D02*
X0008600D01*
X0029783Y0017120D02*
X0008600D01*
X0029413Y0017030D02*
X0008600D01*
X0029228Y0016940D02*
X0008600D01*
X0024300Y0017300D02*
Y0016499D01*
X0034110Y-0001270D02*
Y-0001600D01*
X0028985Y0016760D02*
X0008600D01*
X0010822Y0014690D02*
X0008600D01*
X0023660Y-0000700D02*
X0006750D01*
X0011160Y0017300D02*
Y0016521D01*
X0029430Y-0000772D02*
Y-0001600D01*
X0024948Y0016205D02*
X0024371D01*
X0010916Y0015410D02*
X0008600D01*
X0010829Y0015320D02*
X0008600D01*
X0010723Y0016040D02*
X0008600D01*
X0010724Y0015950D02*
X0008600D01*
X0010740Y0015860D02*
X0008600D01*
X0010774Y0015770D02*
X0008600D01*
X0011078Y0015500D02*
X0008600D01*
X0010916Y0015590D02*
X0008600D01*
X0022320Y-0000515D02*
Y-0001600D01*
X0010837Y0014330D02*
X0008600D01*
X0010779Y0014240D02*
X0008600D01*
X0010737Y0014870D02*
X0008600D01*
X0010769Y0014780D02*
X0008600D01*
X0010724Y0015050D02*
X0008600D01*
X0010929Y0014420D02*
X0008600D01*
X0010904Y0014600D02*
X0008600D01*
X0011051Y0014510D02*
X0008600D01*
X0010743Y0014150D02*
X0008600D01*
X0010725Y0014060D02*
X0008600D01*
X0010890Y0013613D02*
Y-0001600D01*
X0024685Y0013250D02*
X0008600D01*
X0046793Y0006230D02*
X0025311D01*
X0008460Y0012300D02*
Y0006376D01*
X0039738Y0003350D02*
X0006750D01*
X0030167Y0012980D02*
X0025065D01*
X0024690Y0013160D02*
X0008600D01*
X0030137Y0012890D02*
X0008600D01*
X0008820Y0017300D02*
Y0011414D01*
X0030637Y0012972D02*
X0030927Y0012682D01*
X0030496Y0012350D02*
X0008600D01*
X0030496Y0012260D02*
X0006750D01*
X0030496Y0012170D02*
X0006750D01*
X0030496Y0012080D02*
X0006750D01*
X0030496Y0011990D02*
X0006750D01*
X0030496Y0011900D02*
X0006750D01*
X0030496Y0011810D02*
X0006750D01*
X0030496Y0011720D02*
X0006750D01*
X0019260Y0010704D02*
Y-0001600D01*
X0008640Y0010986D02*
Y0006413D01*
X0021690Y0010424D02*
Y-0001600D01*
X0008585Y0011180D02*
X0006750D01*
X0019530Y0010491D02*
Y-0001600D01*
X0022050Y0004841D02*
Y0001212D01*
X0019440Y0010535D02*
Y-0001600D01*
X0008640Y0017300D02*
Y0011314D01*
X0008686Y0011360D02*
X0006750D01*
X0008612Y0011270D02*
X0006750D01*
X0008590Y0011090D02*
X0006750D01*
X0019419Y0010550D02*
X0006750D01*
X0021654Y0010460D02*
X0006750D01*
X0029070Y0009804D02*
Y0001267D01*
X0039540Y0008660D02*
X0022254D01*
X0021746Y0010190D02*
X0006750D01*
X0021746Y0010100D02*
X0006750D01*
X0021746Y0010010D02*
X0006750D01*
X0021746Y0009830D02*
X0006750D01*
X0021746Y0009740D02*
X0006750D01*
X0021746Y0009650D02*
X0006750D01*
X0021746Y0009560D02*
X0006750D01*
X0021746Y0009470D02*
X0006750D01*
X0021746Y0009380D02*
X0006750D01*
X0021746Y0009290D02*
X0006750D01*
X0021746Y0009200D02*
X0006750D01*
X0021746Y0009110D02*
X0006750D01*
X0021746Y0009020D02*
X0006750D01*
X0021746Y0008930D02*
X0006750D01*
X0021746Y0008840D02*
X0006750D01*
X0021746Y0008750D02*
X0006750D01*
X0021746Y0008660D02*
X0006750D01*
X0021746Y0008570D02*
X0006750D01*
X0021746Y0008480D02*
X0006750D01*
X0021746Y0008390D02*
X0006750D01*
X0021746Y0008300D02*
X0006750D01*
X0021746Y0008210D02*
X0006750D01*
X0051461Y0007400D02*
X0050266D01*
X0051281Y0007580D02*
X0050418D01*
X0050130Y0008200D02*
Y0007768D01*
X0051230Y0007631D02*
X0051529Y0007333D01*
X0010829Y0015680D02*
X0008600D01*
X0050760Y0008200D02*
Y0007969D01*
X0051230Y0007631D02*
X0050470D01*
X0055260Y0008200D02*
Y0007269D01*
X0049500Y0007061D02*
Y0003759D01*
X0045262Y0003620D02*
X0040150D01*
X0053820Y0000838D02*
Y-0001600D01*
X0053511Y0006500D02*
X0052542D01*
X0021746Y0007400D02*
X0006750D01*
X0074160Y0005473D02*
Y0005125D01*
X0056080Y0006331D02*
X0054550D01*
X0053984Y-0001510D02*
X0047558D01*
X0054080Y0006731D02*
X0054429Y0006383D01*
X0056520Y0006031D02*
Y-0001600D01*
X0053730Y0000694D02*
Y-0001600D01*
X0008280Y0001484D02*
Y-0001600D01*
X0007850Y0006230D02*
X0006750D01*
X0007642Y0005960D02*
X0006750D01*
X0007495Y0005870D02*
X0006750D01*
X0007446Y0005780D02*
X0006750D01*
X0007434Y0005690D02*
X0006750D01*
X0052539Y0006499D02*
X0053017Y0006021D01*
X0047315Y0006273D02*
X0047617Y0005971D01*
X0021960Y0004931D02*
Y-0001600D01*
X0007470Y0012300D02*
Y0005834D01*
X0021746Y0005420D02*
X0006750D01*
X0019132Y0011090D02*
X0009109D01*
X0063781Y0004494D02*
Y0002820D01*
X0021746Y0005330D02*
X0006750D01*
X0021767Y0005150D02*
X0006750D01*
X0021831Y0005060D02*
X0006750D01*
X0021921Y0004970D02*
X0006750D01*
X0022101Y0004790D02*
X0006750D01*
X0062331Y0001668D02*
Y-0000044D01*
X0022281Y0004610D02*
X0006750D01*
X0047520Y-0001515D02*
Y-0001600D01*
X0047331Y0004250D02*
X0006750D01*
X0047331Y0004160D02*
X0006750D01*
X0008034Y0001730D02*
X0006750D01*
X0047331Y0004070D02*
X0006750D01*
X0022371Y0004520D02*
X0006750D01*
X0050795Y0003080D02*
X0050618D01*
X0039870Y0003167D02*
Y-0001600D01*
X0039850Y0003620D02*
X0006750D01*
X0050670Y0003660D02*
Y0003419D01*
X0050760Y0003081D02*
Y-0001600D01*
X0047381Y0003481D02*
X0047531Y0003330D01*
X0046440Y0001490D02*
Y-0001600D01*
X0040860Y0002523D02*
Y-0001600D01*
X0046295Y0003080D02*
X0007264D01*
X0040884Y0002990D02*
X0007259D01*
X0008550Y0001658D02*
Y-0001600D01*
X0006780Y0002900D02*
X0006750D01*
X0008413Y0002540D02*
X0006750D01*
X0053248Y0001910D02*
X0050369D01*
X0007542Y0002360D02*
X0006750D01*
X0050431Y0003369D02*
X0050082Y0003021D01*
X0046980Y0001650D02*
Y-0000396D01*
X0022140Y-0000515D02*
Y-0001600D01*
X0008124Y0001550D02*
X0006750D01*
X0022292Y0001460D02*
X0006750D01*
X0022163Y0001370D02*
X0006750D01*
X0022088Y0001280D02*
X0006750D01*
X0025200Y-0000435D02*
Y-0001600D01*
X0022027Y0000830D02*
X0006750D01*
X0022230Y-0000515D02*
Y-0001600D01*
Y0000560D02*
X0006750D01*
X0022001Y0000470D02*
X0006750D01*
X0022001Y0000380D02*
X0006750D01*
X0022001Y0000290D02*
X0006750D01*
X0022001Y0000200D02*
X0006750D01*
X0059130Y-0000792D02*
Y-0001600D01*
X0022001Y0000110D02*
X0006750D01*
X0022001Y0000020D02*
X0006750D01*
X0022001Y-0000070D02*
X0006750D01*
X0022001Y-0000160D02*
X0006750D01*
X0029621Y-0000610D02*
X0029522D01*
X0023616Y-0000520D02*
X0006750D01*
X0023626Y-0000610D02*
X0006750D01*
X0033746Y0006950D02*
X0025315D01*
X0046980Y-0001438D02*
Y-0001600D01*
X0033457Y-0000700D02*
X0031265D01*
X0023866Y-0000880D02*
X0006750D01*
X0033665Y-0000970D02*
X0006750D01*
X0033764Y-0001060D02*
X0006750D01*
X0033885Y-0001150D02*
X0006750D01*
X0007110Y0012300D02*
Y0003292D01*
X0048467Y0006410D02*
X0047292D01*
X0021746Y0006230D02*
X0008854D01*
X0047340Y0008200D02*
Y0006248D01*
X0025560Y0010996D02*
Y0004804D01*
X0047520Y0008200D02*
Y0006068D01*
X0050031Y0002450D02*
X0049729D01*
X0049230Y-0000150D02*
Y-0001600D01*
X0050614Y0003980D02*
X0049419D01*
X0048791Y0004160D02*
X0047669D01*
X0073511Y0000650D02*
X0070888D01*
X0048791Y0005510D02*
X0047669D01*
X0048791Y0003980D02*
X0047669D01*
X0048791Y0003440D02*
X0047864D01*
X0073584Y0000740D02*
X0070798D01*
X0047434Y-0000700D02*
X0047161D01*
X0054757Y-0000610D02*
X0047950D01*
X0055171Y-0000790D02*
X0047950D01*
X0047869Y0003400D02*
Y-0000494D01*
X0046260Y0008200D02*
Y0003365D01*
X0062331Y0000470D02*
X0061969D01*
X0062331Y0000290D02*
X0061969D01*
X0062331Y0000200D02*
X0062020D01*
X0061331Y0003530D02*
X0053069D01*
X0061290Y0003886D02*
Y0000513D01*
X0062324Y0003800D02*
X0061669D01*
X0062010Y0001549D02*
Y0000214D01*
X0062331Y0000380D02*
X0061969D01*
X0049320Y0008200D02*
Y0007358D01*
X0062331Y0000560D02*
X0061969D01*
X0062331Y0000650D02*
X0061969D01*
X0062331Y0001010D02*
X0061969D01*
X0060210Y0008200D02*
Y-0000075D01*
X0062331Y0000920D02*
X0061969D01*
X0062331Y0000020D02*
X0062064D01*
X0062331Y0001100D02*
X0061969D01*
X0061920Y-0000188D02*
Y-0001600D01*
X0062831Y0004340D02*
X0053069D01*
X0062831Y0004794D02*
Y0002706D01*
X0063143Y0002270D02*
X0063134D01*
X0062866D02*
X0062669D01*
X0063224Y0002000D02*
X0062669D01*
X0062831Y0002810D02*
X0062669D01*
X0063699Y0004790D02*
X0063169D01*
X0063754Y0004880D02*
X0063238D01*
X0052731Y0005830D02*
Y0002456D01*
X0053908Y0002450D02*
X0053076D01*
X0053144Y0002000D02*
X0052992D01*
X0052634Y0002270D02*
X0050369D01*
X0052731Y0002540D02*
X0050369D01*
X0050220Y0007250D02*
Y0003158D01*
X0056091Y0006320D02*
X0052718D01*
X0073635Y0005960D02*
X0057115D01*
X0051750Y0007281D02*
Y0006869D01*
X0052030Y0006531D02*
X0052731Y0005830D01*
X0073962Y0005600D02*
X0053069D01*
X0073856Y0005690D02*
X0053069D01*
X0008370Y0012300D02*
Y0006284D01*
X0046800Y0006208D02*
Y-0000403D01*
X0056884Y0005960D02*
X0053057D01*
X0073696Y0005870D02*
X0053069D01*
X0051660Y0007281D02*
Y0006869D01*
X0056271Y0006140D02*
X0052898D01*
X0074094Y0005510D02*
X0053069D01*
X0053640Y0006361D02*
Y0001154D01*
X0076350Y0003170D02*
X0065669D01*
X0065331D02*
X0064119D01*
X0066781Y0001190D02*
X0066063D01*
X0065331Y0003544D02*
Y0000806D01*
X0066004Y0000978D02*
Y-0000028D01*
X0062280Y0003850D02*
Y0003346D01*
X0065331Y0003530D02*
X0064119D01*
X0007470Y0001867D02*
Y-0001600D01*
X0047070Y0001567D02*
Y-0000445D01*
X0008280Y0012300D02*
Y0002015D01*
X0063630Y0008200D02*
Y0002668D01*
X0065267Y0003620D02*
X0064119D01*
X0022011Y0004880D02*
X0006750D01*
X0073901Y0004520D02*
X0064146D01*
X0065331Y0003260D02*
X0064119D01*
X0022191Y0004700D02*
X0006750D01*
X0062767Y0002630D02*
X0062669D01*
X0065331Y0002900D02*
X0064119D01*
X0065331Y0002720D02*
X0064116D01*
X0065331Y0003440D02*
X0064119D01*
X0021746Y0007040D02*
X0006750D01*
X0065331Y0002090D02*
X0063642D01*
X0063540Y0008200D02*
Y0002578D01*
X0063180Y0004804D02*
Y0002696D01*
X0053100Y0006581D02*
Y0002426D01*
X0053469Y0000650D02*
X0050369D01*
X0007830Y0005467D02*
Y0002255D01*
X0050400Y0007561D02*
Y0003338D01*
X0050670Y0008200D02*
Y0007969D01*
X0021746Y0008120D02*
X0006750D01*
X0050281Y0007919D02*
X0050026Y0007665D01*
X0052266Y0007220D02*
X0050196D01*
X0051556Y0007310D02*
X0050250D01*
X0021746Y0007940D02*
X0006750D01*
X0049860Y0008200D02*
Y0007626D01*
X0051371Y0007490D02*
X0050328D01*
X0048960Y0002714D02*
Y-0001600D01*
X0051300Y0007969D02*
X0050400D01*
X0052250Y0007670D02*
X0051668D01*
X0008010Y0012300D02*
Y0006716D01*
X0051750Y0008200D02*
Y0007619D01*
X0050310Y0007471D02*
Y0003248D01*
X0052290Y0008200D02*
Y0007692D01*
X0051300Y0008200D02*
Y0007969D01*
X0050490Y0008200D02*
Y0007969D01*
X0050580Y0008200D02*
Y0007969D01*
X0051419Y0007919D02*
X0051720Y0007619D01*
X0052290Y0007207D02*
Y0006963D01*
X0052194Y0007281D02*
X0051650D01*
X0051660Y0008200D02*
Y0007678D01*
X0052742Y0007760D02*
X0051578D01*
X0051480Y0008200D02*
Y0007858D01*
X0052657Y0002360D02*
X0050369D01*
X0053910Y0002881D02*
Y0002860D01*
X0058819Y0007569D02*
X0058973Y0007415D01*
X0057870Y0008200D02*
Y0007619D01*
X0055980Y0008200D02*
Y0007269D01*
X0058050Y0008200D02*
Y0007619D01*
X0073747Y0007580D02*
X0058807D01*
X0059130Y0006331D02*
Y-0000075D01*
Y0008200D02*
Y0007382D01*
X0073424Y0006680D02*
X0059768D01*
X0054000Y0006489D02*
Y0003315D01*
X0054900Y0008200D02*
Y0007269D01*
X0050726Y0003620D02*
X0049798D01*
X0058700Y0007619D02*
X0057550D01*
X0055257Y0002810D02*
X0054329D01*
X0056250Y0008200D02*
Y0007269D01*
X0057240Y0008200D02*
Y0007378D01*
X0055080Y0008200D02*
Y0007269D01*
X0055324Y0002900D02*
X0054306D01*
X0058140Y0008200D02*
Y0007619D01*
X0058230Y0008200D02*
Y0007619D01*
X0057431Y0007569D02*
X0057130Y0007269D01*
X0021240Y0017300D02*
Y0011229D01*
X0020880Y0017300D02*
Y0011229D01*
X0050031Y0001100D02*
X0049729D01*
X0060030Y0008200D02*
Y0007332D01*
X0057690Y0008200D02*
Y0007619D01*
X0054270Y0008200D02*
Y0007803D01*
X0053280Y0008200D02*
Y0007819D01*
X0052650Y0008200D02*
Y0007720D01*
X0052470Y0008200D02*
Y0007707D01*
X0057960Y0008200D02*
Y0007619D01*
X0054720Y0008200D02*
Y0007368D01*
X0055350Y0008200D02*
Y0007269D01*
X0052380Y0008200D02*
Y0007715D01*
X0053550Y0008200D02*
Y0007819D01*
X0054200D02*
X0052950D01*
X0021746Y0007670D02*
X0006750D01*
X0053370Y0008200D02*
Y0007819D01*
X0052830Y0008200D02*
Y0007768D01*
X0055234Y0002720D02*
X0054362D01*
X0057130Y0007269D02*
X0054820D01*
X0057960Y0006331D02*
Y-0001600D01*
X0053100Y0008200D02*
Y0007819D01*
X0059400Y0006339D02*
Y-0000075D01*
X0021420Y0017300D02*
Y0011229D01*
X0050031Y0002360D02*
X0049729D01*
X0062249Y-0000340D02*
X0060735D01*
X0065538Y-0000250D02*
X0062766D01*
X0065537Y-0000160D02*
X0062750D01*
X0047669Y0003670D02*
X0047817Y0003521D01*
X0062831Y0003980D02*
X0062765D01*
X0052731Y0002720D02*
X0050369D01*
X0050794Y0003081D02*
X0050620D01*
X0046890Y0006087D02*
Y-0000384D01*
X0052731Y0003350D02*
X0051247D01*
X0050620Y0003081D02*
X0050369Y0002830D01*
X0050670Y0006037D02*
Y0004052D01*
X0007346Y0002180D02*
X0006750D01*
X0052200Y0007274D02*
Y0006842D01*
X0047340Y0001573D02*
Y-0001037D01*
X0046950Y-0001420D02*
X0006750D01*
X0052643Y0002180D02*
X0050369D01*
X0047531Y0000290D02*
X0035994D01*
X0055331Y0000380D02*
X0050454D01*
X0050400Y0000124D02*
Y-0001600D01*
X0050130Y0007167D02*
Y0003068D01*
X0055331Y0000470D02*
X0050405D01*
X0053460Y0000653D02*
Y-0001600D01*
X0039960Y0008240D02*
Y0003663D01*
X0022050Y0014521D02*
Y0011134D01*
X0052030Y0006531D02*
X0051656D01*
X0053571Y0006410D02*
X0052628D01*
X0053492Y0006581D02*
X0052656D01*
X0054131Y0006680D02*
X0054012D01*
X0050031Y0001640D02*
X0049729D01*
X0040230Y0008200D02*
Y0003534D01*
X0056373Y0006050D02*
X0052988D01*
X0054221Y0006590D02*
X0054024D01*
X0033746Y0007220D02*
X0025142D01*
X0040050Y0008200D02*
Y0003661D01*
X0062190Y0001549D02*
Y-0001600D01*
X0040140Y0008200D02*
Y0003626D01*
X0056160Y0008200D02*
Y0007269D01*
X0025200Y0017300D02*
Y0013312D01*
X0059643Y0007031D02*
X0059280Y0006669D01*
X0020160Y0017300D02*
Y0011229D01*
X0041580Y0008200D02*
Y-0001600D01*
X0021060Y0017300D02*
Y0011229D01*
X0058320Y0007281D02*
Y0006669D01*
X0021960Y0017300D02*
Y0011193D01*
X0054540Y0008200D02*
Y0007548D01*
X0020250Y0017300D02*
Y0011229D01*
X0019980Y0010471D02*
Y-0001600D01*
X0059940Y0008200D02*
Y0007363D01*
X0007830Y0012300D02*
Y0006655D01*
X0050813Y0003440D02*
X0049819D01*
X0057870Y0007000D02*
Y0006669D01*
X0025020Y0017300D02*
Y0013477D01*
X0054319Y0007769D02*
X0054820Y0007269D01*
X0021510Y0017300D02*
Y0011229D01*
X0058410Y0007281D02*
Y0006669D01*
X0059350Y0006331D02*
X0057232D01*
X0073583Y0006050D02*
X0057220D01*
X0073428Y0006590D02*
X0059678D01*
X0058590Y0007281D02*
Y0006669D01*
X0058500Y0007281D02*
Y0006669D01*
X0011340Y0013479D02*
Y-0001600D01*
X0006840Y0002837D02*
Y-0001600D01*
X0056794Y0006031D02*
X0056450D01*
X0011430Y0013503D02*
Y-0001600D01*
X0011070Y0013503D02*
Y-0001600D01*
X0022053Y0015500D02*
X0011422D01*
X0028478Y-0000340D02*
X0025866D01*
X0030735Y-0000700D02*
X0030265D01*
X0029790Y0000272D02*
Y0000228D01*
X0033276Y-0000160D02*
X0031514D01*
X0028484Y0000830D02*
X0025973D01*
X0030960Y0011086D02*
Y0001271D01*
X0028620Y0000391D02*
Y0000272D01*
X0028631Y0000380D02*
X0025842D01*
X0028752Y0000290D02*
X0025916D01*
X0029610Y0000402D02*
Y0000097D01*
X0030690Y0000329D02*
Y0000170D01*
X0046958Y0006050D02*
X0025184D01*
X0032940Y0015260D02*
Y-0001600D01*
X0030420Y0000439D02*
Y0000060D01*
X0028559Y0000470D02*
X0025719D01*
X0028478Y0000272D02*
Y-0000772D01*
X0029522D02*
X0028478D01*
X0010800Y0013722D02*
Y-0001600D01*
X0022129Y0000650D02*
X0006750D01*
X0028530Y-0000772D02*
Y-0001600D01*
X0022066Y0000740D02*
X0006750D01*
X0015480Y0017300D02*
Y-0001600D01*
X0023760Y-0000820D02*
Y-0001600D01*
X0022001Y0000530D02*
Y-0000515D01*
X0023046D02*
X0022001D01*
Y0001010D02*
X0006750D01*
X0022280Y0000530D02*
X0022001D01*
X0022012Y0001100D02*
X0006750D01*
X0022006Y0000920D02*
X0006750D01*
X0022040Y0001190D02*
X0006750D01*
X0025022Y-0000250D02*
X0024946D01*
X0025086Y-0000340D02*
X0024882D01*
X0010800Y0017300D02*
Y0016277D01*
X0022230Y0015305D02*
Y0015195D01*
X0010774Y0015230D02*
X0008600D01*
X0024120Y0017300D02*
Y0016632D01*
X0024948Y0016205D02*
Y0015279D01*
X0023430Y0014240D02*
X0022585D01*
X0034410Y0013790D02*
X0011735D01*
X0024415Y0014240D02*
X0023569D01*
X0010904Y0016400D02*
X0008600D01*
X0046638Y-0000700D02*
X0035834D01*
X0046867Y-0001330D02*
X0035009D01*
X0033930Y0006493D02*
Y0001178D01*
X0047531Y0000830D02*
X0035747D01*
X0033060Y0015140D02*
X0031159D01*
X0024390Y0017300D02*
Y0016205D01*
X0031530Y0016670D02*
X0030946D01*
X0031440Y0016760D02*
X0030858D01*
X0076350Y0006050D02*
X0076023D01*
X0076350Y0005870D02*
X0075909D01*
X0074160Y0008200D02*
Y0007912D01*
X0076350Y0007760D02*
X0075676D01*
X0060735Y-0000792D02*
X0057968D01*
X0060735Y-0000075D02*
Y-0000792D01*
Y-0000075D02*
X0057968D01*
Y-0000792D01*
X0075185Y0004408D02*
X0073901D01*
X0075185Y0005125D02*
Y0004408D01*
Y0005125D02*
X0073901D01*
Y0004408D01*
X0030900Y0017300D02*
X0040000Y0008200D01*
X0076350D02*
X0040000D01*
X0076350D02*
Y-0001600D01*
X0054720Y0001734D02*
Y-0001241D01*
X0006836Y0003260D02*
X0006750D01*
X0008600Y0012300D02*
X0006750D01*
X0008600Y0017300D02*
Y0012300D01*
X0030900Y0017300D02*
X0008600D01*
X0076320Y0008200D02*
Y-0001600D01*
X0076350Y0005510D02*
X0075512D01*
X0076230Y0008200D02*
Y-0001600D01*
X0076140Y0006355D02*
Y-0001600D01*
X0076050Y0006104D02*
Y-0001600D01*
X0075960Y0005942D02*
Y-0001600D01*
X0075870Y0005819D02*
Y-0001600D01*
X0075780Y0005719D02*
Y-0001600D01*
X0054311Y0006500D02*
X0054005D01*
X0075690Y0005637D02*
Y-0001600D01*
X0075600Y0005567D02*
Y-0001600D01*
X0075510Y0005509D02*
Y-0001600D01*
X0058140Y-0000792D02*
Y-0001600D01*
X0075240Y0005385D02*
Y-0001600D01*
X0075150Y0004408D02*
Y-0001600D01*
X0075060Y0004408D02*
Y-0001600D01*
X0074970Y0004408D02*
Y-0001600D01*
X0074880Y0004408D02*
Y-0001600D01*
X0074790Y0004408D02*
Y-0001600D01*
X0074700Y0004408D02*
Y-0001600D01*
X0074610Y0004408D02*
Y-0001600D01*
X0074520Y0004408D02*
Y-0001600D01*
X0074430Y0004408D02*
Y-0001600D01*
X0074340Y0004408D02*
Y-0001600D01*
X0074250Y0004408D02*
Y-0001600D01*
X0074160Y0004408D02*
Y-0001600D01*
X0074070Y0004408D02*
Y-0001600D01*
X0073980Y0000397D02*
Y-0001600D01*
X0073890Y0000305D02*
Y-0001600D01*
X0073800Y0000270D02*
Y-0001600D01*
X0073710Y0000268D02*
Y-0001600D01*
X0073530Y0006163D02*
Y0000681D01*
X0073440Y0006484D02*
Y-0001600D01*
X0073350Y0008200D02*
Y-0001600D01*
X0073260Y0008200D02*
Y-0001600D01*
X0073170Y0008200D02*
Y-0001600D01*
X0073080Y0008200D02*
Y-0001600D01*
X0047531Y0002540D02*
X0041164D01*
X0072990Y0008200D02*
Y-0001600D01*
X0072900Y0000058D02*
Y-0001600D01*
X0072810Y-0000063D02*
Y-0001600D01*
X0072720Y-0000107D02*
Y-0001600D01*
X0072630Y-0000115D02*
Y-0001600D01*
X0072450Y-0000026D02*
Y-0001600D01*
X0072360Y0008200D02*
Y-0001600D01*
X0072270Y0008200D02*
Y-0001600D01*
X0072180Y0008200D02*
Y-0001600D01*
X0072090Y0008200D02*
Y-0001600D01*
X0072000Y0008200D02*
Y-0001600D01*
X0071910Y0008200D02*
Y-0001600D01*
X0071820Y0008200D02*
Y-0001600D01*
X0071730Y0008200D02*
Y-0001600D01*
X0071640Y0008200D02*
Y-0001600D01*
X0071550Y0008200D02*
Y-0001600D01*
X0071460Y0008200D02*
Y-0001600D01*
X0071370Y0000000D02*
Y-0001600D01*
X0071280Y-0000082D02*
Y-0001600D01*
X0071190Y-0000113D02*
Y-0001600D01*
X0071100Y-0000111D02*
Y-0001600D01*
X0046253Y0003350D02*
X0045720D01*
X0070920Y0000016D02*
Y-0001600D01*
X0070830Y0000132D02*
Y-0001600D01*
X0070740Y0000222D02*
Y-0001600D01*
X0070650Y0000312D02*
Y-0001600D01*
X0070560Y0000402D02*
Y-0001600D01*
X0070470Y0000492D02*
Y-0001600D01*
X0070380Y0000582D02*
Y-0001600D01*
X0070290Y0000672D02*
Y-0001600D01*
X0070110Y0000876D02*
Y-0001600D01*
X0070020Y0008200D02*
Y-0001600D01*
X0069930Y0008200D02*
Y-0001600D01*
X0069840Y0008200D02*
Y-0001600D01*
X0069750Y0008200D02*
Y-0001600D01*
X0069660Y0008200D02*
Y-0001600D01*
X0069570Y0008200D02*
Y-0001600D01*
X0069480Y0008200D02*
Y-0001600D01*
X0069390Y0008200D02*
Y-0001600D01*
X0069300Y0008200D02*
Y-0001600D01*
X0069210Y0008200D02*
Y-0001600D01*
X0069120Y0008200D02*
Y-0001600D01*
X0069030Y0008200D02*
Y-0001600D01*
X0068940Y0008200D02*
Y-0001600D01*
X0068850Y0008200D02*
Y-0001600D01*
X0068760Y0008200D02*
Y-0001600D01*
X0068670Y0008200D02*
Y-0001600D01*
X0068580Y0008200D02*
Y-0001600D01*
X0068490Y0008200D02*
Y-0001600D01*
X0068400Y0008200D02*
Y-0001600D01*
X0068310Y0008200D02*
Y-0001600D01*
X0068220Y0008200D02*
Y-0001600D01*
X0068130Y0008200D02*
Y-0001600D01*
X0068040Y0008200D02*
Y-0001600D01*
X0067950Y0008200D02*
Y-0001600D01*
X0067860Y0008200D02*
Y-0001600D01*
X0076350Y-0000430D02*
X0067184D01*
X0067680Y0008200D02*
Y-0001600D01*
X0067590Y0008200D02*
Y-0001600D01*
X0067500Y0008200D02*
Y-0001600D01*
X0067410Y0008200D02*
Y-0001600D01*
X0066916Y-0000430D02*
X0065934D01*
X0067320Y0008200D02*
Y-0001600D01*
X0067230Y-0000396D02*
Y-0001600D01*
X0067140Y-0000450D02*
Y-0001600D01*
X0067050Y-0000466D02*
Y-0001600D01*
X0066781Y0001644D02*
Y-0000100D01*
X0066870Y-0000396D02*
Y-0001600D01*
X0066690Y0001792D02*
Y-0001600D01*
X0066600Y0008200D02*
Y-0001600D01*
X0066510Y0008200D02*
Y-0001600D01*
X0066420Y0008200D02*
Y-0001600D01*
X0066330Y0008200D02*
Y-0001600D01*
X0066240Y0008200D02*
Y-0001600D01*
X0066787Y-0000160D02*
X0066063D01*
X0065666Y-0000430D02*
X0062696D01*
X0066150Y0008200D02*
Y-0001600D01*
X0066060Y-0000258D02*
Y-0001600D01*
X0066781Y0000650D02*
X0066004D01*
X0065331Y0000920D02*
X0062669D01*
X0065880Y-0000454D02*
Y-0001600D01*
X0065790Y-0000466D02*
Y-0001600D01*
X0065610Y-0000386D02*
Y-0001600D01*
X0065520Y0000334D02*
Y-0001600D01*
X0065250Y0000508D02*
Y-0001600D01*
X0065160Y0008200D02*
Y-0001600D01*
X0065070Y0008200D02*
Y-0001600D01*
X0064980Y0008200D02*
Y-0001600D01*
X0064890Y0008200D02*
Y-0001600D01*
X0064800Y0008200D02*
Y-0001600D01*
X0064710Y0008200D02*
Y-0001600D01*
X0064620Y0008200D02*
Y-0001600D01*
X0064530Y0008200D02*
Y-0001600D01*
X0064440Y0008200D02*
Y-0001600D01*
X0064350Y0008200D02*
Y-0001600D01*
X0062831Y0003080D02*
X0062669D01*
X0073901Y0004610D02*
X0064200D01*
X0062831Y0003260D02*
X0062669D01*
X0064080Y0002642D02*
Y-0001600D01*
X0063990Y0002551D02*
Y-0001600D01*
X0063900Y0002461D02*
Y-0001600D01*
X0065331Y0003350D02*
X0064119D01*
X0063720Y0002281D02*
Y-0001600D01*
X0063630Y0002066D02*
Y-0001600D01*
X0063540Y0001973D02*
Y-0001600D01*
X0063450Y0001938D02*
Y-0001600D01*
X0060390Y-0000792D02*
Y-0001600D01*
X0063169Y0004794D02*
Y0002706D01*
X0063180Y0002050D02*
Y-0001600D01*
X0063090Y0002249D02*
Y-0001600D01*
X0062669Y0003794D02*
Y-0000044D01*
X0063360Y0001937D02*
Y-0001600D01*
X0062820Y0002304D02*
Y-0001600D01*
X0062640Y-0000476D02*
Y-0001600D01*
X0062550Y-0000511D02*
Y-0001600D01*
X0062460Y-0000513D02*
Y-0001600D01*
X0062280Y0001604D02*
Y-0000100D01*
Y-0000400D02*
Y-0001600D01*
X0062100Y0001534D02*
Y-0001600D01*
X0062010Y-0000114D02*
Y-0001600D01*
X0048870Y0008200D02*
Y0007490D01*
X0062257Y0003890D02*
X0061713D01*
X0061830Y-0000214D02*
Y-0001600D01*
X0061740Y-0000209D02*
Y-0001600D01*
X0061560Y-0000065D02*
Y-0001600D01*
X0061470Y0000034D02*
Y-0001600D01*
X0061380Y0000043D02*
Y-0001600D01*
X0061200Y0000208D02*
Y-0001600D01*
X0061110Y0008200D02*
Y-0001600D01*
X0061020Y0008200D02*
Y-0001600D01*
X0060930Y0008200D02*
Y-0001600D01*
X0060840Y0008200D02*
Y-0001600D01*
X0008190Y0012300D02*
Y0006636D01*
X0062730Y-0000384D02*
Y-0001600D01*
X0060660Y-0000792D02*
Y-0001600D01*
X0060570Y-0000792D02*
Y-0001600D01*
X0060480Y-0000792D02*
Y-0001600D01*
X0060750Y0008200D02*
Y-0001600D01*
X0060300Y-0000792D02*
Y-0001600D01*
X0060210Y-0000792D02*
Y-0001600D01*
X0060120Y-0000792D02*
Y-0001600D01*
X0060030Y-0000792D02*
Y-0001600D01*
X0059940Y-0000792D02*
Y-0001600D01*
X0059850Y-0000792D02*
Y-0001600D01*
X0059760Y-0000792D02*
Y-0001600D01*
X0059670Y-0000792D02*
Y-0001600D01*
X0059580Y-0000792D02*
Y-0001600D01*
X0059490Y-0000792D02*
Y-0001600D01*
X0059400Y-0000792D02*
Y-0001600D01*
X0059310Y-0000792D02*
Y-0001600D01*
X0059220Y-0000792D02*
Y-0001600D01*
X0022001Y-0000430D02*
X0006750D01*
X0055170Y-0001268D02*
Y-0001600D01*
X0058950Y-0000792D02*
Y-0001600D01*
X0058860Y-0000792D02*
Y-0001600D01*
X0058770Y-0000792D02*
Y-0001600D01*
X0058680Y-0000792D02*
Y-0001600D01*
X0058590Y-0000792D02*
Y-0001600D01*
X0058500Y-0000792D02*
Y-0001600D01*
X0058410Y-0000792D02*
Y-0001600D01*
X0058320Y-0000792D02*
Y-0001600D01*
X0058230Y-0000792D02*
Y-0001600D01*
X0058140Y0006331D02*
Y-0000075D01*
X0058050Y0006331D02*
Y-0000075D01*
X0076350Y0007490D02*
X0075928D01*
X0058630Y0007281D02*
X0057882D01*
X0058050Y-0000792D02*
Y-0001600D01*
X0057870Y0006331D02*
Y-0001600D01*
X0049860Y0007173D02*
Y-0001600D01*
X0057780Y0006917D02*
Y0006669D01*
X0047430Y-0001507D02*
Y-0001600D01*
X0057330Y0006331D02*
Y-0001600D01*
X0057240Y-0000265D02*
Y-0001600D01*
X0057150Y-0000370D02*
Y-0001600D01*
X0057060Y-0000409D02*
Y-0001600D01*
X0056970Y-0000414D02*
Y-0001600D01*
X0056790Y-0000314D02*
Y-0001600D01*
X0056700Y0006031D02*
Y-0001600D01*
X0056610Y0006031D02*
Y-0001600D01*
X0056430Y0006032D02*
Y-0001600D01*
X0055890Y0006331D02*
Y0001992D01*
X0056169Y0001544D02*
Y-0000200D01*
X0055441Y-0000520D02*
X0055318D01*
X0048060Y0008200D02*
Y0002286D01*
X0056160Y-0000253D02*
Y-0001600D01*
X0055669Y0002494D02*
Y-0000100D01*
X0055331Y0001820D02*
X0054931D01*
X0055710Y-0000728D02*
Y-0001600D01*
X0055620Y-0000818D02*
Y-0001600D01*
X0055331Y-0000030D02*
X0055106Y-0000255D01*
X0056119Y-0000319D02*
X0054838Y-0001600D01*
X0055350Y-0001088D02*
Y-0001600D01*
X0052687Y0002090D02*
X0050369D01*
X0055260Y-0001178D02*
Y-0001600D01*
X0056250Y0001658D02*
Y-0001600D01*
X0029520Y0017300D02*
Y0017067D01*
X0029340Y0017300D02*
Y0016998D01*
X0030600Y0017300D02*
Y0016948D01*
X0033240Y0014960D02*
X0031053D01*
X0032160Y0016040D02*
X0031269D01*
X0032250Y0015950D02*
X0031285D01*
X0032340Y0015860D02*
X0031296D01*
X0032430Y0015770D02*
X0031300D01*
X0032520Y0015680D02*
X0031298D01*
X0032610Y0015590D02*
X0031291D01*
X0032700Y0015500D02*
X0031278D01*
X0032790Y0015410D02*
X0031258D01*
X0032880Y0015320D02*
X0031232D01*
X0032970Y0015230D02*
X0031199D01*
X0073570Y0007310D02*
X0060064D01*
X0076350Y0007670D02*
X0075776D01*
X0076350Y0007400D02*
X0075986D01*
X0076350Y0007310D02*
X0076036D01*
X0076350Y0007220D02*
X0076077D01*
X0076350Y0007130D02*
X0076111D01*
X0076350Y0007040D02*
X0076137D01*
X0076350Y0006950D02*
X0076158D01*
X0076350Y0006860D02*
X0076172D01*
X0076350Y0006770D02*
X0076180D01*
X0076350Y0007850D02*
X0075552D01*
X0075510Y0008200D02*
Y0007876D01*
X0075420Y0008200D02*
Y0007926D01*
X0075330Y0008200D02*
Y0007967D01*
X0075240Y0008200D02*
Y0008000D01*
X0075150Y0008200D02*
Y0008027D01*
X0075060Y0008200D02*
Y0008047D01*
X0074970Y0008200D02*
Y0008061D01*
X0074880Y0008200D02*
Y0008069D01*
X0074790Y0008200D02*
Y0008071D01*
X0074700Y0008200D02*
Y0008068D01*
X0074610Y0008200D02*
Y0008058D01*
X0074520Y0008200D02*
Y0008042D01*
X0074430Y0008200D02*
Y0008020D01*
X0074340Y0008200D02*
Y0007991D01*
X0074250Y0008200D02*
Y0007956D01*
X0073769Y0005780D02*
X0053069D01*
X0076350D02*
X0075836D01*
X0076350Y0006590D02*
X0076178D01*
X0076350Y0006500D02*
X0076168D01*
X0076350Y0006410D02*
X0076152D01*
X0076350Y0006320D02*
X0076130D01*
X0076350Y0006230D02*
X0076102D01*
X0076350Y0006140D02*
X0076066D01*
X0067230Y0008200D02*
Y-0000004D01*
X0060660Y0008200D02*
Y-0000075D01*
X0060570Y0008200D02*
Y-0000075D01*
X0060480Y0008200D02*
Y-0000075D01*
X0060390Y0008200D02*
Y-0000075D01*
X0060300Y0008200D02*
Y-0000075D01*
X0073426Y0006770D02*
X0059858D01*
X0060120Y0006950D02*
Y-0000075D01*
X0060030Y0006867D02*
Y-0000075D01*
X0059850Y0006761D02*
Y-0000075D01*
X0059760Y0006671D02*
Y-0000075D01*
X0059670Y0006581D02*
Y-0000075D01*
X0073453Y0006410D02*
X0059498D01*
X0059580Y0006491D02*
Y-0000075D01*
X0059490Y0006401D02*
Y-0000075D01*
X0059310Y0006331D02*
Y-0000075D01*
X0059220Y0006331D02*
Y-0000075D01*
X0055831Y-0000070D02*
X0055669D01*
X0055331Y0000110D02*
X0050386D01*
X0062234Y-0000250D02*
X0060735D01*
X0062370Y-0000482D02*
Y-0001600D01*
X0059040Y-0000792D02*
Y-0001600D01*
X0076350Y-0000520D02*
X0060735D01*
X0076350Y-0000610D02*
X0060735D01*
X0059220Y0008200D02*
Y0007300D01*
X0049391Y0000830D02*
X0047869D01*
X0059923Y0006835D02*
X0059471Y0006382D01*
X0058950Y0006331D02*
Y-0000075D01*
X0058680Y0006331D02*
Y-0000075D01*
X0058590Y0006331D02*
Y-0000075D01*
X0058500Y0006331D02*
Y-0000075D01*
X0058410Y0006331D02*
Y-0000075D01*
X0058320Y0006331D02*
Y-0000075D01*
X0058230Y0006331D02*
Y-0000075D01*
X0075420Y0005459D02*
Y-0001600D01*
X0074592Y0005330D02*
X0053069D01*
X0075150Y0005358D02*
Y0005125D01*
X0075060Y0005338D02*
Y0005125D01*
X0074970Y0005324D02*
Y0005125D01*
X0074880Y0005316D02*
Y0005125D01*
X0074790Y0005314D02*
Y0005125D01*
X0074700Y0005317D02*
Y0005125D01*
X0074610Y0005327D02*
Y0005125D01*
X0074520Y0005343D02*
Y0005125D01*
X0074430Y0005365D02*
Y0005125D01*
X0074340Y0005394D02*
Y0005125D01*
X0074250Y0005429D02*
Y0005125D01*
X0074070Y0005525D02*
Y0005125D01*
X0076350Y0005330D02*
X0075014D01*
X0076350Y0005060D02*
X0075185D01*
X0076350Y0004970D02*
X0075185D01*
X0076350Y0004880D02*
X0075185D01*
X0076350Y0004790D02*
X0075185D01*
X0076350Y0004700D02*
X0075185D01*
X0076350Y0004610D02*
X0075185D01*
X0076350Y0004520D02*
X0075185D01*
X0007740Y0006392D02*
Y0005963D01*
X0010876Y0014626D02*
X0011250Y0015000D01*
X0011624Y0015374D02*
X0011250Y0015000D01*
X0011624Y0014626D02*
X0011250Y0015000D01*
X0010876Y0015374D02*
X0011250Y0015000D01*
X0029631Y0000119D02*
X0030000Y-0000250D01*
X0030369Y-0000619D02*
X0030000Y-0000250D01*
X0029631Y-0000619D02*
X0030000Y-0000250D01*
X0030369Y0000119D02*
X0030000Y-0000250D01*
X0025846Y-0000362D02*
X0025476Y0000008D01*
X0025107Y0000377D02*
X0025476Y0000008D01*
X0025846Y0000377D02*
X0025476Y0000008D01*
X0025107Y-0000362D02*
X0025476Y0000008D01*
X0025846Y0000623D02*
X0025476Y0000992D01*
X0025107Y0001361D02*
X0025476Y0000992D01*
X0025846Y0001361D02*
X0025476Y0000992D01*
X0028620Y0017300D02*
Y0016204D01*
X0070920Y0008200D02*
Y0000618D01*
X0055831Y0000830D02*
X0055669D01*
X0052740Y0002037D02*
Y-0001600D01*
X0052207Y0006860D02*
X0052153D01*
X0050031Y0001910D02*
X0049729D01*
X0048438Y0006230D02*
X0047358D01*
X0055801Y-0000160D02*
X0055657D01*
X0053996Y-0001420D02*
X0047705D01*
X0054630Y-0001331D02*
X0054456D01*
X0048690Y0008200D02*
Y0006546D01*
X0076350Y-0001510D02*
X0054928D01*
X0054630Y0001755D02*
Y-0001331D01*
X0048791Y0007034D02*
Y0006530D01*
X0055831Y0000290D02*
X0055669D01*
X0061184D02*
X0056169D01*
X0061196Y0000380D02*
X0056169D01*
X0055831Y-0000130D02*
X0054630Y-0001331D01*
X0048780Y0007044D02*
Y0006534D01*
X0055530Y-0000908D02*
Y-0001600D01*
X0061331Y0001820D02*
X0056257D01*
X0055787Y0001910D02*
X0055669D01*
X0061331Y0002000D02*
X0056092D01*
X0056340Y0006072D02*
Y-0001600D01*
X0055621Y-0000340D02*
X0055498D01*
X0033746Y0008210D02*
X0022254D01*
X0039900Y0008300D02*
X0034261D01*
X0048791Y0006590D02*
X0034213D01*
X0033908Y0006500D02*
X0025200D01*
X0046874D02*
X0034092D01*
X0033743Y0006680D02*
X0022254D01*
X0048747Y0007400D02*
X0034254D01*
X0039990Y0008210D02*
X0034254D01*
X0025619Y0004296D02*
X0022881D01*
X0025619Y0004804D02*
X0022881D01*
X0047331Y0005330D02*
X0022279D01*
X0024480Y0010993D02*
Y0004804D01*
X0021870Y0005021D02*
Y-0001600D01*
X0022320Y0010447D02*
Y0005289D01*
X0024210Y0004296D02*
Y0001432D01*
X0025470Y0010996D02*
Y0004804D01*
X0006884Y0002810D02*
X0006750D01*
X0007020Y0012300D02*
Y0003315D01*
X0024390Y0011037D02*
Y0004804D01*
X0025560Y0004296D02*
Y0001507D01*
X0024300Y0011158D02*
Y0004804D01*
X0024570Y0010984D02*
Y0004804D01*
X0024210Y0014313D02*
Y0004804D01*
X0022860Y0004290D02*
Y0001391D01*
X0022950Y0004296D02*
Y0001294D01*
Y0014467D02*
Y0004804D01*
X0021746Y0005240D02*
X0006750D01*
X0047331Y0005150D02*
X0022459D01*
X0047331Y0005240D02*
X0022369D01*
X0022461Y0004430D02*
X0006750D01*
X0022860Y0014365D02*
Y0004809D01*
X0008734Y0010910D02*
X0006750D01*
X0024293Y0011180D02*
X0021986D01*
X0019167Y0010820D02*
X0006750D01*
X0021643Y0010471D02*
X0021732Y0010382D01*
X0021780Y0017300D02*
Y0011229D01*
X0021745Y0010370D02*
X0006750D01*
X0019890Y0017300D02*
Y0011229D01*
X0024337Y0011090D02*
X0022095D01*
X0028530Y0010996D02*
Y0000978D01*
X0035850Y0012350D02*
X0031004D01*
X0028710Y0015089D02*
Y0011504D01*
X0028719Y0010996D02*
X0024631D01*
X0046784Y0006320D02*
X0025313D01*
X0030420Y0012471D02*
Y0011504D01*
X0036480Y0011720D02*
X0031004D01*
X0029070Y0014663D02*
Y0011504D01*
X0029160Y0010996D02*
Y0010250D01*
X0036120Y0012080D02*
X0031004D01*
X0030240Y0012637D02*
Y0011504D01*
X0029430Y0014459D02*
Y0011504D01*
X0025290Y0017300D02*
Y0011504D01*
X0030150Y0012758D02*
Y0011504D01*
X0030138Y0012800D02*
X0008600D01*
X0035400D02*
X0030809D01*
X0035310Y0012890D02*
X0030719D01*
X0030451Y0012440D02*
X0008600D01*
X0036030Y0012170D02*
X0031004D01*
X0030266Y0012620D02*
X0008600D01*
X0028890Y0010996D02*
Y0001260D01*
X0033960Y0014240D02*
X0024554D01*
X0030658Y0011000D02*
X0028892D01*
X0047331Y0005420D02*
X0022254D01*
X0029610Y0010996D02*
Y0001097D01*
X0030510Y0014501D02*
Y0013092D01*
X0030669Y0010996D02*
X0028881D01*
X0037110Y0011090D02*
X0030963D01*
X0036840Y0011360D02*
X0031004D01*
X0029520Y0014429D02*
Y0011504D01*
X0037020Y0011180D02*
X0031007D01*
X0024458Y0011000D02*
X0022185D01*
X0036300Y0011900D02*
X0031004D01*
Y0012500D02*
Y0011331D01*
X0036210Y0011990D02*
X0031004D01*
X0029610Y0014405D02*
Y0011504D01*
X0030496Y0011540D02*
X0006750D01*
X0028800Y0010984D02*
Y0001232D01*
X0066823Y-0000340D02*
X0066026D01*
X0076350Y-0000250D02*
X0067311D01*
X0070087Y0001640D02*
X0067119D01*
X0066781Y0001010D02*
X0066026D01*
X0066730Y0002000D02*
X0065669D01*
X0066781Y0001640D02*
X0065669D01*
X0066780Y0001645D02*
Y-0001600D01*
X0076350Y-0000160D02*
X0067313D01*
X0067770Y0008200D02*
Y-0001600D01*
X0070672Y0000290D02*
X0067119D01*
X0070034Y0001820D02*
X0067214D01*
X0066781Y0000290D02*
X0066004D01*
X0066781Y0000380D02*
X0066004D01*
X0070096Y0001100D02*
X0067119D01*
X0066781Y0000020D02*
X0066004D01*
X0046324Y0001550D02*
X0008476D01*
X0047250Y-0001420D02*
Y-0001600D01*
X0066781Y0000470D02*
X0066004D01*
X0070560Y0008200D02*
Y0001858D01*
X0070200Y0008200D02*
Y0002047D01*
X0070290Y0008200D02*
Y0002066D01*
X0047531Y0002990D02*
X0046558D01*
X0070043Y0001730D02*
X0067188D01*
X0072516Y0000380D02*
X0071284D01*
X0072417Y0000020D02*
X0071382D01*
X0072387Y0000110D02*
X0071413D01*
X0047531Y0003080D02*
X0046705D01*
X0046350Y0008200D02*
Y0003470D01*
X0070200Y0000762D02*
Y-0001600D01*
X0070156Y0000806D02*
X0070898Y0000064D01*
X0072388Y0000200D02*
X0071411D01*
X0072423Y0000290D02*
X0071376D01*
X0072540Y-0000092D02*
Y-0001600D01*
X0071100Y0008200D02*
Y0000438D01*
X0071190Y0008200D02*
Y0000413D01*
X0071010Y0008200D02*
Y0000528D01*
X0049770Y0008200D02*
Y0007605D01*
X0049271Y0007310D02*
X0049217D01*
X0070830Y0008200D02*
Y0000708D01*
X0048706Y0002900D02*
X0047869D01*
X0048694Y0002990D02*
X0047869D01*
X0047984Y0002090D02*
X0047869D01*
X0052731Y0004520D02*
X0049419D01*
X0073620Y0000299D02*
Y-0001600D01*
X0021746Y0006860D02*
X0006750D01*
X0033746Y0007310D02*
X0022254D01*
X0051358Y0006950D02*
X0049419D01*
X0062331Y0000830D02*
X0061969D01*
X0062008Y0001550D02*
X0061969D01*
X0062331D02*
X0062192D01*
X0041040Y0008200D02*
Y0003013D01*
X0041220Y0008200D02*
Y0002900D01*
X0047531D02*
X0041220D01*
X0063270Y0001967D02*
Y-0001600D01*
X0052731Y0003260D02*
X0051266D01*
X0048780Y0008200D02*
Y0007436D01*
X0052496Y0007130D02*
X0049568D01*
X0053318Y0001010D02*
X0050369D01*
X0066781Y0001100D02*
X0066061D01*
X0066781Y0001550D02*
X0065669D01*
X0065350Y0000380D02*
X0062669D01*
X0065573Y-0000340D02*
X0062750D01*
X0066788Y-0000250D02*
X0066061D01*
X0065700Y-0000447D02*
Y-0001600D01*
X0062280Y0008200D02*
Y0004150D01*
X0065669Y0003544D02*
Y0001382D01*
X0062190Y0008200D02*
Y0003400D01*
X0040836Y0002540D02*
X0008786D01*
X0055170Y0006331D02*
Y-0000191D01*
X0055831Y0000740D02*
X0055669D01*
X0048063Y0001910D02*
X0047869D01*
X0055331Y0002000D02*
X0055001D01*
X0056880Y-0000388D02*
Y-0001600D01*
X0061331Y0002450D02*
X0055669D01*
X0054824Y-0000700D02*
X0047966D01*
X0055351Y-0000610D02*
X0055242D01*
X0054631Y-0001330D02*
X0054455D01*
X0055440Y-0000998D02*
Y-0001600D01*
X0055831Y0000020D02*
X0055669D01*
X0055831Y0000560D02*
X0055669D01*
X0055831Y0000650D02*
X0055669D01*
X0054787Y-0000340D02*
X0047869D01*
X0055619Y-0000219D02*
X0055252Y-0000586D01*
X0055890Y-0000548D02*
Y-0001600D01*
X0055201Y-0000160D02*
X0049663D01*
X0056795Y0000020D02*
X0056169D01*
X0056753Y-0000250D02*
X0056161D01*
X0055831Y0000200D02*
X0055669D01*
X0055261Y-0000700D02*
X0055176D01*
X0055331Y0002494D02*
Y-0000030D01*
X0007920Y0001796D02*
Y-0001600D01*
X0049349Y0007490D02*
X0049052D01*
X0048902Y0002720D02*
X0047869D01*
X0047996Y0002180D02*
X0047869D01*
X0049391Y0000380D02*
X0049332Y0000321D01*
X0050031Y0002090D02*
X0049729D01*
X0052731Y0004700D02*
X0049419D01*
X0025110Y0004296D02*
Y0001364D01*
X0049230Y0008200D02*
Y0007268D01*
X0049410Y0008200D02*
Y0007586D01*
X0049500Y0008200D02*
Y0007647D01*
X0051184Y0006680D02*
X0049419D01*
X0051193Y0006770D02*
X0049419D01*
X0051237Y0006860D02*
X0049419D01*
X0049334Y0007400D02*
X0049173D01*
X0050040Y0008200D02*
Y0007678D01*
X0061636Y-0000160D02*
X0060735D01*
X0062249D02*
X0061964D01*
X0062304Y-0000070D02*
X0062038D01*
X0053915Y0003260D02*
X0053069D01*
X0055331Y0000200D02*
X0050447D01*
X0041130Y0008200D02*
Y0002982D01*
X0052484Y0007040D02*
X0049478D01*
X0062331Y0000110D02*
X0062059D01*
X0062331Y0000740D02*
X0061969D01*
X0019234Y0010730D02*
X0006750D01*
X0019710Y0017300D02*
Y0011315D01*
X0020790Y0017300D02*
Y0011229D01*
X0019800Y0017300D02*
Y0011235D01*
X0019768Y0011268D02*
X0019807Y0011229D01*
X0019232Y0010732D02*
X0019380Y0010584D01*
X0024307Y0011360D02*
X0019617D01*
X0019170Y0017300D02*
Y0011186D01*
X0037740Y0010460D02*
X0022327D01*
X0021870Y0017300D02*
Y0011222D01*
X0021000Y0010471D02*
X0019650D01*
X0020880D02*
Y-0001600D01*
X0019530Y0017300D02*
Y0011377D01*
X0024390Y0004296D02*
Y0001504D01*
X0020700Y0017300D02*
Y0011229D01*
X0019980Y0017300D02*
Y0011229D01*
X0021000D02*
X0019807D01*
X0021800D02*
X0021000D01*
X0037650Y0010550D02*
X0022365D01*
X0037830Y0010370D02*
X0022255D01*
X0022068Y0011118D02*
X0022268Y0010918D01*
X0046234Y0003260D02*
X0045615D01*
X0037470Y0010730D02*
X0022370D01*
X0037290Y0010910D02*
X0022275D01*
X0037920Y0010280D02*
X0022254D01*
X0020070Y0017300D02*
Y0011229D01*
X0021600Y0017300D02*
Y0011229D01*
X0021690Y0017300D02*
Y0011229D01*
X0020970Y0017300D02*
Y0011229D01*
X0073619Y0007400D02*
X0059092D01*
X0034950Y0013250D02*
X0025214D01*
X0059850Y0008200D02*
Y0007361D01*
X0073529Y0007220D02*
X0060138D01*
X0073830Y0007670D02*
X0054418D01*
X0059635Y0007130D02*
X0059265D01*
X0073448Y0006950D02*
X0060120D01*
X0059040Y0006331D02*
Y-0000075D01*
Y0006887D02*
Y0006669D01*
X0059130Y0006917D02*
Y0006669D01*
X0059220Y0007000D02*
Y0006669D01*
X0059310Y0008200D02*
Y0006698D01*
X0030250Y0013070D02*
X0025170D01*
X0059940Y0006837D02*
Y-0000075D01*
X0057510Y0006331D02*
Y-0001600D01*
X0058050Y0007281D02*
Y0006669D01*
X0008334Y0006140D02*
X0006750D01*
X0073468Y0007040D02*
X0060159D01*
X0050031Y0000830D02*
X0049729D01*
X0073434Y0006860D02*
X0060015D01*
X0034770Y0013430D02*
X0025114D01*
X0059580Y0008200D02*
Y0006968D01*
X0021746Y0007220D02*
X0006750D01*
X0007767Y0006320D02*
X0006750D01*
X0057420Y0006331D02*
Y-0001600D01*
X0058860Y0006923D02*
Y0006669D01*
X0020340Y0017300D02*
Y0011229D01*
X0024284Y0011270D02*
X0019765D01*
X0025110Y0017300D02*
Y0013433D01*
X0058770Y0007016D02*
Y0006669D01*
X0022320Y0014273D02*
Y0010852D01*
X0008640Y0002087D02*
Y-0001600D01*
X0024930Y0014485D02*
Y0013485D01*
X0049419Y0006980D02*
Y0003726D01*
X0020430Y0017300D02*
Y0011229D01*
X0021643Y0010471D02*
X0021000D01*
X0058757Y0007040D02*
X0057892D01*
X0049770Y0007195D02*
Y0003664D01*
X0050031Y0001820D02*
X0049729D01*
X0050031Y0001460D02*
X0049729D01*
X0049680Y0007146D02*
Y0003738D01*
X0049358Y-0000250D02*
X0047869D01*
X0050031Y0000740D02*
X0049729D01*
X0048791Y0003710D02*
X0047669D01*
X0052731Y0003530D02*
X0049824D01*
X0049934Y0000290D02*
X0049727D01*
X0048791Y0004070D02*
X0047669D01*
X0048791Y0003530D02*
X0047808D01*
X0065700Y0003574D02*
Y0001397D01*
X0055291Y-0000070D02*
X0049707D01*
X0049953Y0000200D02*
X0049688D01*
X0050031Y0000560D02*
X0049729D01*
X0050031Y0000650D02*
X0049729D01*
X0049307Y0000290D02*
X0047869D01*
X0049679Y0000191D02*
X0049656Y0000168D01*
X0061331Y0002540D02*
X0055713D01*
X0061650Y-0000170D02*
Y-0001600D01*
X0050013Y0000110D02*
X0049692D01*
X0049946Y0000380D02*
X0049729D01*
X0052511Y0006050D02*
X0050807D01*
X0058140Y0007281D02*
Y0006669D01*
X0057960Y0007281D02*
Y0006669D01*
X0057261Y0007400D02*
X0054688D01*
X0058691Y0007220D02*
X0057907D01*
X0058860Y0006331D02*
Y-0000075D01*
X0074053Y0007850D02*
X0051488D01*
X0059471Y0006860D02*
X0057598D01*
X0058734Y0007130D02*
X0057915D01*
X0057623Y0006885D02*
X0057407Y0006669D01*
X0034860Y0013340D02*
X0025188D01*
X0057171Y0007310D02*
X0054778D01*
X0050411Y0003350D02*
X0049780D01*
X0024750Y0014308D02*
Y0013396D01*
X0057690Y0006331D02*
Y-0001600D01*
X0049391Y0000380D02*
X0047869D01*
X0048791Y0004430D02*
X0047669D01*
X0020520Y0017300D02*
Y0011229D01*
X0021330Y0017300D02*
Y0011229D01*
X0058824Y0006950D02*
X0057826D01*
X0037560Y0010640D02*
X0022378D01*
X0059291Y0006680D02*
X0057418D01*
X0045240Y0003440D02*
X0040263D01*
X0045235Y0003530D02*
X0040232D01*
X0053820Y0008200D02*
Y0007819D01*
X0038460Y0009740D02*
X0029308D01*
X0050031Y0001550D02*
X0049729D01*
X0022140Y0014395D02*
Y0011045D01*
X0050589Y0003800D02*
X0049419D01*
X0057600Y0008200D02*
Y0007619D01*
X0054360Y0008200D02*
Y0007728D01*
X0049590Y0007134D02*
Y0003764D01*
X0073678Y0007490D02*
X0058898D01*
X0022230Y0014320D02*
Y0010955D01*
X0053910Y0008200D02*
Y0007819D01*
X0050031Y0002180D02*
X0049729D01*
X0050040Y0007137D02*
Y0002953D01*
X0050031Y0002270D02*
X0049729D01*
X0048791Y0003260D02*
X0047869D01*
X0073930Y0007760D02*
X0054328D01*
X0051840Y0008200D02*
Y0007619D01*
X0061290Y0000087D02*
Y-0001600D01*
X0059490Y0008200D02*
Y0006878D01*
X0021746Y0005600D02*
X0007947D01*
X0048791Y0005690D02*
X0047669D01*
X0048791Y0005780D02*
X0047669D01*
X0048437Y0006320D02*
X0047315D01*
X0047076Y0006035D02*
X0047331Y0005780D01*
X0047430Y0008200D02*
Y0006158D01*
X0008057Y0001640D02*
X0006750D01*
X0054630Y0008200D02*
Y0007458D01*
X0053190Y0008200D02*
Y0007819D01*
X0054090Y0008200D02*
Y0007819D01*
X0054539Y0002180D02*
X0054265D01*
X0054484Y0002090D02*
X0054242D01*
X0055287Y0002540D02*
X0054330D01*
X0055331Y0002450D02*
X0054244D01*
X0054469Y0002000D02*
X0054176D01*
X0054180Y0002420D02*
Y0002396D01*
X0053910Y0002487D02*
Y0002450D01*
X0054090Y0006721D02*
Y0003334D01*
X0053834Y0003080D02*
X0053069D01*
X0054360Y0003010D02*
Y0002732D01*
X0054270Y0006541D02*
Y0003273D01*
X0054180Y0006631D02*
Y0003322D01*
X0054080Y0006731D02*
X0053990D01*
X0053845Y0002990D02*
X0053069D01*
X0053893Y0002900D02*
X0053069D01*
X0060120Y0008200D02*
Y0007250D01*
X0058770Y0006331D02*
Y-0000075D01*
X0057510Y0008200D02*
Y0007614D01*
X0058860Y0008200D02*
Y0007528D01*
X0059040Y0008200D02*
Y0007413D01*
X0059381Y0006770D02*
X0057508D01*
X0049680Y0000191D02*
Y0000134D01*
X0059561Y0006950D02*
X0059176D01*
X0055243Y0002630D02*
X0054363D01*
X0058950Y0008200D02*
Y0007438D01*
X0062100Y0008200D02*
Y0003416D01*
X0058680Y0008200D02*
Y0007619D01*
X0058590Y0008200D02*
Y0007619D01*
X0058500Y0008200D02*
Y0007619D01*
X0058410Y0008200D02*
Y0007619D01*
X0058320Y0008200D02*
Y0007619D01*
X0057442Y0007580D02*
X0054508D01*
X0057150Y0008200D02*
Y0007288D01*
X0056070Y0008200D02*
Y0007269D01*
X0058630Y0007281D02*
X0058735Y0007176D01*
X0057420Y0008200D02*
Y0007558D01*
X0057351Y0007490D02*
X0054598D01*
X0057780Y0008200D02*
Y0007619D01*
X0054990Y0008200D02*
Y0007269D01*
X0057330Y0008200D02*
Y0007468D01*
X0057060Y0008200D02*
Y0007269D01*
X0056970Y0008200D02*
Y0007269D01*
X0056880Y0008200D02*
Y0007269D01*
X0056700Y0008200D02*
Y0007269D01*
X0056610Y0008200D02*
Y0007269D01*
X0056520Y0008200D02*
Y0007269D01*
X0055890Y0008200D02*
Y0007269D01*
X0055800Y0008200D02*
Y0007269D01*
X0056790Y0008200D02*
Y0007269D01*
X0055710Y0008200D02*
Y0007269D01*
X0056430Y0008200D02*
Y0007269D01*
X0056340Y0008200D02*
Y0007269D01*
X0055620Y0008200D02*
Y0007269D01*
X0055530Y0008200D02*
Y0007269D01*
X0055440Y0008200D02*
Y0007269D01*
X0035580Y0012620D02*
X0030973D01*
X0055170Y0008200D02*
Y0007269D01*
X0054810Y0008200D02*
Y0007278D01*
X0052560Y0008200D02*
Y0007663D01*
X0052731Y0004340D02*
X0049419D01*
X0054450Y0008200D02*
Y0007638D01*
X0054180Y0008200D02*
Y0007819D01*
X0052200Y0008200D02*
Y0007626D01*
X0054000Y0008200D02*
Y0007819D01*
X0045360Y0003273D02*
Y-0001600D01*
X0025020Y0004296D02*
Y0001246D01*
X0053730Y0008200D02*
Y0007819D01*
X0021150Y0017300D02*
Y0011229D01*
X0053010Y0008200D02*
Y0007819D01*
X0053460Y0008200D02*
Y0007819D01*
X0055331Y0002360D02*
X0054213D01*
X0055331Y0002270D02*
X0054257D01*
X0055331Y0002180D02*
X0054931D01*
X0054990Y0006331D02*
Y0002077D01*
X0054900Y0006331D02*
Y0002209D01*
X0054810Y0006331D02*
Y0002255D01*
X0054720Y0006331D02*
Y0002266D01*
X0054630Y0006331D02*
Y0002245D01*
X0054540Y0006331D02*
Y0002181D01*
X0055331Y0002090D02*
X0054985D01*
X0055331Y0000830D02*
X0053818D01*
X0008820Y0006000D02*
Y0002500D01*
X0008730Y0005917D02*
Y0002582D01*
X0008640Y0005887D02*
Y0002613D01*
X0008550Y0005888D02*
Y0002611D01*
X0008460Y0005923D02*
Y0002576D01*
X0008370Y0006016D02*
Y0002484D01*
X0007353Y0002000D02*
X0006750D01*
X0047531Y0002450D02*
X0008847D01*
X0047531Y0002360D02*
X0008866D01*
X0047531Y0002270D02*
X0008854D01*
X0047531Y0002180D02*
X0008805D01*
X0009000Y0010930D02*
Y-0001600D01*
X0008820Y0010885D02*
Y0006300D01*
X0008730Y0010912D02*
Y0006382D01*
X0007920Y0012300D02*
Y0006704D01*
X0007513Y0005510D02*
X0006750D01*
X0008550Y0012300D02*
Y0006411D01*
X0052200Y0006361D02*
Y-0001600D01*
X0024930Y0004296D02*
Y0001276D01*
X0021746Y0006590D02*
X0008226D01*
X0021746Y0006500D02*
X0008261D01*
X0021746Y0006410D02*
X0008658D01*
X0021746Y0006320D02*
X0008805D01*
X0062831Y0003890D02*
X0062742D01*
X0062831Y0003800D02*
X0062676D01*
X0062831Y0003710D02*
X0062669D01*
X0062831Y0003620D02*
X0062669D01*
X0062831Y0003530D02*
X0062669D01*
X0062831Y0003440D02*
X0062669D01*
X0062831Y0003350D02*
X0062669D01*
X0064170Y0004550D02*
Y-0001600D01*
X0062831Y0002720D02*
X0062669D01*
X0062831Y0002990D02*
X0062669D01*
X0062831Y0002900D02*
X0062669D01*
X0062910Y0002249D02*
Y-0001600D01*
X0063681Y0002720D02*
X0063169D01*
X0064069Y0002631D02*
X0063665Y0002226D01*
X0062737Y0002540D02*
X0062669D01*
X0062738Y0002450D02*
X0062669D01*
X0062773Y0002360D02*
X0062669D01*
X0063134Y0002180D02*
X0062669D01*
X0063157Y0002090D02*
X0062669D01*
X0065331Y0002630D02*
X0064068D01*
X0065331Y0001910D02*
X0062669D01*
X0065331Y0001820D02*
X0062669D01*
X0065331Y0001730D02*
X0062669D01*
X0065331Y0001640D02*
X0062669D01*
X0065331Y0001550D02*
X0062669D01*
X0065331Y0001460D02*
X0062669D01*
X0065331Y0001370D02*
X0062669D01*
X0065331Y0001280D02*
X0062669D01*
X0065331Y0001190D02*
X0062669D01*
X0065331Y0001100D02*
X0062669D01*
X0065331Y0001010D02*
X0062669D01*
X0065340Y0000387D02*
Y-0001600D01*
X0065273Y0000740D02*
X0062669D01*
X0065238Y0000650D02*
X0062669D01*
X0065237Y0000560D02*
X0062669D01*
X0065267Y0000470D02*
X0062669D01*
X0061290Y0008200D02*
Y0004214D01*
X0062730Y0008200D02*
Y0004134D01*
X0062640Y0008200D02*
Y0004226D01*
X0062550Y0008200D02*
Y0004261D01*
X0062460Y0008200D02*
Y0004263D01*
X0062370Y0008200D02*
Y0004232D01*
X0062831Y0004250D02*
X0062592D01*
X0062831Y0004160D02*
X0062713D01*
X0065596Y0000110D02*
X0062669D01*
X0065567Y-0000070D02*
X0062696D01*
X0062730Y0003866D02*
Y-0000116D01*
X0047531Y0000200D02*
X0036010D01*
X0062331Y0003794D02*
Y0003282D01*
X0065596Y0000200D02*
X0062669D01*
X0065596Y0000290D02*
X0062669D01*
X0065596Y0000352D02*
Y-0000028D01*
X0038487Y-0000160D02*
X0036015D01*
X0047790Y0008200D02*
Y0003548D01*
X0047504Y-0000520D02*
X0047132D01*
X0047449Y-0000610D02*
X0047163D01*
X0047449Y-0000790D02*
X0047126D01*
X0047504Y-0000880D02*
X0047034D01*
X0047331Y0003980D02*
X0006750D01*
X0045336Y0003710D02*
X0006750D01*
X0052731Y0003440D02*
X0051186D01*
X0051480Y0006435D02*
Y-0001600D01*
X0051390Y0006440D02*
Y-0001600D01*
X0051120Y0007631D02*
Y0003488D01*
X0050627Y0003710D02*
X0049724D01*
X0051030Y0003660D02*
Y0003514D01*
X0050850Y0006070D02*
Y0004122D01*
X0054180Y0001243D02*
Y-0001243D01*
X0045450Y0003238D02*
Y-0001600D01*
X0046800Y-0000897D02*
Y-0001600D01*
X0046246Y0003170D02*
X0040134D01*
X0050850Y0003590D02*
Y0003470D01*
X0047160Y0001537D02*
Y-0000592D01*
X0050940Y0003605D02*
Y0003509D01*
X0050369Y0002830D02*
Y0000506D01*
X0047331Y0005780D02*
Y0003600D01*
X0052731Y0002990D02*
X0051058D01*
X0052731Y0002900D02*
X0050438D01*
X0052731Y0002810D02*
X0050369D01*
X0052731Y0003080D02*
X0051205D01*
X0052731Y0002630D02*
X0050369D01*
X0052808Y0002000D02*
X0050369D01*
X0040950Y0008200D02*
Y0003011D01*
X0049140Y0008200D02*
Y0007436D01*
X0054090Y0001287D02*
Y-0001287D01*
X0054116Y0001730D02*
X0050369D01*
X0054023Y0001640D02*
X0050369D01*
X0053988Y0001550D02*
X0050369D01*
X0053987Y0001460D02*
X0050369D01*
X0054017Y0001370D02*
X0050369D01*
X0055331D02*
X0054482D01*
X0055331Y0001280D02*
X0054400D01*
X0054990Y-0001448D02*
Y-0001600D01*
X0053385Y0001100D02*
X0050369D01*
X0053295Y0000920D02*
X0050369D01*
X0039737Y0003440D02*
X0006750D01*
X0033707Y0001010D02*
X0031453D01*
X0047531Y0000740D02*
X0035809D01*
X0040950Y0002488D02*
Y-0001600D01*
X0050031Y0001370D02*
X0049729D01*
X0053640Y0008200D02*
Y0007819D01*
X0022590Y0004312D02*
Y0001510D01*
X0050031Y0001190D02*
X0049729D01*
X0050031Y0002900D02*
Y0000506D01*
X0055331Y0000560D02*
X0050369D01*
X0053348Y0000740D02*
X0050369D01*
X0049729Y0003294D02*
Y0000310D01*
X0050031Y0001730D02*
X0049729D01*
X0052545Y0007220D02*
X0052534D01*
X0052470Y0007193D02*
Y0007015D01*
X0052380Y0007184D02*
Y0007007D01*
X0053010Y0002007D02*
Y-0001600D01*
X0007413Y0001910D02*
X0006750D01*
X0021746Y0007310D02*
X0006750D01*
X0050031Y0001280D02*
X0049729D01*
X0006930Y0002793D02*
Y-0001600D01*
X0058950Y0006888D02*
Y0006669D01*
X0020610Y0017300D02*
Y0011229D01*
X0047331Y0003890D02*
X0006750D01*
X0052920Y0008200D02*
Y0007816D01*
X0051570Y0008200D02*
Y0007768D01*
X0048791Y0003890D02*
X0047669D01*
X0057600Y0006861D02*
Y0006669D01*
X0076350Y0005960D02*
X0075971D01*
X0059400Y0008200D02*
Y0006788D01*
X0058230Y0007281D02*
Y0006669D01*
X0059736Y0007310D02*
X0059213D01*
X0059662Y0007220D02*
X0059257D01*
X0059640Y0007040D02*
X0059242D01*
X0073495Y0007130D02*
X0060164D01*
X0055080Y-0001358D02*
Y-0001600D01*
X0024840Y0014375D02*
Y0013462D01*
X0019260Y0017300D02*
Y0011293D01*
X0058680Y0007231D02*
Y0006669D01*
X0059280D02*
X0057407D01*
X0057510Y0006771D02*
Y0006669D01*
X0057780Y0006331D02*
Y-0001600D01*
X0059760Y0008200D02*
Y0007326D01*
X0057240Y0006331D02*
Y0006315D01*
X0057420Y0006681D02*
Y0006669D01*
X0007737Y0006410D02*
X0006750D01*
X0057690Y0006887D02*
Y0006669D01*
X0073437Y0006500D02*
X0059588D01*
X0073475Y0006320D02*
X0057238D01*
X0073504Y0006230D02*
X0057264D01*
X0073540Y0006140D02*
X0057259D01*
X0022117Y0014420D02*
X0011571D01*
X0022216Y0014330D02*
X0011663D01*
X0022446Y0014240D02*
X0011721D01*
X0010723Y0014960D02*
X0008600D01*
X0034050Y0014150D02*
X0011757D01*
X0034140Y0014060D02*
X0011775D01*
X0034230Y0013970D02*
X0011778D01*
X0034320Y0013880D02*
X0011765D01*
X0011700Y0014722D02*
Y0014277D01*
X0011610Y0014613D02*
Y0014387D01*
X0011520Y0014545D02*
Y0014454D01*
X0010980Y0014545D02*
Y0014454D01*
X0010890Y0014613D02*
Y0014387D01*
X0010800Y0014722D02*
Y0014277D01*
X0010765Y0013790D02*
X0008600D01*
X0034500Y0013700D02*
X0011685D01*
X0034590Y0013610D02*
X0011607D01*
X0022112Y0015410D02*
X0011584D01*
X0022208Y0015320D02*
X0011671D01*
X0022292Y0015230D02*
X0011726D01*
X0022160Y0015140D02*
X0011760D01*
X0022083Y0015050D02*
X0011776D01*
X0022034Y0014960D02*
X0011777D01*
X0011700Y0015722D02*
Y0015277D01*
X0011610Y0015613D02*
Y0015387D01*
X0011520Y0015545D02*
Y0015454D01*
X0010980Y0015545D02*
Y0015454D01*
X0010890Y0015613D02*
Y0015387D01*
X0010800Y0015722D02*
Y0015277D01*
X0022005Y0014870D02*
X0011762D01*
X0021994Y0014780D02*
X0011731D01*
X0021998Y0014690D02*
X0011678D01*
X0022018Y0014600D02*
X0011596D01*
X0022056Y0014510D02*
X0011448D01*
X0023677Y0016490D02*
X0011448D01*
X0023630Y0016400D02*
X0011596D01*
X0023610Y0016310D02*
X0011678D01*
X0022305Y0016220D02*
X0011731D01*
X0022166Y0016130D02*
X0011762D01*
X0022050Y0017300D02*
Y0015978D01*
X0011700Y0017300D02*
Y0016277D01*
X0011610Y0017300D02*
Y0016387D01*
X0011520Y0017300D02*
Y0016454D01*
X0011430Y0017300D02*
Y0016497D01*
X0011340Y0017300D02*
Y0016521D01*
X0011250Y0017300D02*
Y0016529D01*
X0010737Y0016130D02*
X0008600D01*
X0011070Y0017300D02*
Y0016497D01*
X0010980Y0017300D02*
Y0016454D01*
X0010890Y0017300D02*
Y0016387D01*
X0022087Y0016040D02*
X0011777D01*
X0022036Y0015950D02*
X0011776D01*
X0022007Y0015860D02*
X0011760D01*
X0021994Y0015770D02*
X0011726D01*
X0021997Y0015680D02*
X0011671D01*
X0022016Y0015590D02*
X0011584D01*
X0010815Y0013700D02*
X0008600D01*
X0029718Y0001190D02*
X0029281D01*
X0029612Y0001100D02*
X0029388D01*
X0029547Y0001010D02*
X0029453D01*
X0029506Y0000920D02*
X0029494D01*
X0066960Y-0000450D02*
Y-0001600D01*
X0029430Y0009804D02*
Y0001046D01*
X0029340Y0009749D02*
Y0001146D01*
X0028980Y0010996D02*
Y0001272D01*
X0028710Y0010996D02*
Y0001184D01*
X0028620Y0010996D02*
Y0001108D01*
X0029513Y0000560D02*
X0029486D01*
X0029631Y0000380D02*
X0029369D01*
X0029752Y0000290D02*
X0029247D01*
X0029559Y0000470D02*
X0029441D01*
X0029522Y0000272D02*
X0029211D01*
X0030718Y0001190D02*
X0030281D01*
X0030612Y0001100D02*
X0030388D01*
X0030547Y0001010D02*
X0030453D01*
X0030506Y0000920D02*
X0030494D01*
X0030513Y0000560D02*
X0030486D01*
X0030631Y0000380D02*
X0030369D01*
X0030752Y0000290D02*
X0030247D01*
X0030559Y0000470D02*
X0030441D01*
X0030496Y0011504D02*
X0028881D01*
X0030510Y0010996D02*
Y0000931D01*
X0030420Y0010996D02*
Y0001060D01*
X0029970Y0010996D02*
Y0001271D01*
X0029880Y0010996D02*
Y0001258D01*
X0029790Y0010996D02*
Y0001228D01*
X0029700Y0010996D02*
Y0001177D01*
X0007380Y0001950D02*
Y-0001600D01*
X0034489Y0001370D02*
X0025837D01*
X0034133Y0001280D02*
X0025912D01*
X0033949Y0001190D02*
X0031281D01*
X0033814Y0001100D02*
X0031388D01*
X0033544Y0000830D02*
X0031516D01*
X0033482Y0000740D02*
X0031522D01*
X0033429Y0000650D02*
X0031513D01*
X0033385Y0000560D02*
X0031486D01*
X0033320Y0000380D02*
X0031369D01*
X0033309Y-0000340D02*
X0031514D01*
X0033570Y0014630D02*
Y0000863D01*
X0031500Y0016700D02*
Y0000901D01*
X0031410Y0016790D02*
Y0001073D01*
X0030600Y0014548D02*
Y0013026D01*
X0030870Y0011012D02*
Y0001256D01*
X0030780Y0010985D02*
Y0001224D01*
X0030690Y0010990D02*
Y0001170D01*
X0033297Y0000290D02*
X0031247D01*
X0033281Y0000200D02*
X0031265D01*
X0033271Y0000110D02*
X0031378D01*
X0033267Y0000020D02*
X0031447D01*
X0030510Y0000569D02*
Y-0000069D01*
X0031500Y0000599D02*
Y-0000099D01*
X0031410Y0000426D02*
Y0000073D01*
X0031320Y0000337D02*
Y0000163D01*
X0031230Y0000281D02*
Y0000219D01*
Y0015313D02*
Y0001219D01*
X0031140Y0015103D02*
Y0001253D01*
X0030780Y0000276D02*
Y0000224D01*
X0047531Y0000920D02*
X0035673D01*
X0033368Y-0000520D02*
X0031447D01*
X0033584Y-0000880D02*
X0024134D01*
X0034042Y-0001240D02*
X0006750D01*
X0030600Y0000414D02*
Y0000086D01*
X0030735Y0000200D02*
X0030265D01*
X0030621Y0000110D02*
X0030378D01*
X0029522Y0000272D02*
Y-0000038D01*
X0033289Y-0000250D02*
X0031522D01*
X0030330Y0000345D02*
Y0000155D01*
X0030240Y0000286D02*
Y0000214D01*
X0030330Y0010996D02*
Y0001155D01*
X0030240Y0010996D02*
Y0001214D01*
X0030150Y0010996D02*
Y0001250D01*
X0030060Y0010996D02*
Y0001269D01*
X0029700Y0000322D02*
Y0000177D01*
X0030690Y-0000670D02*
Y-0001600D01*
X0030553Y-0000520D02*
X0030447D01*
X0030621Y-0000610D02*
X0030378D01*
X0030509Y-0000430D02*
X0030490D01*
X0029735Y0000200D02*
X0029522D01*
X0029621Y0000110D02*
X0029522D01*
X0029553Y0000020D02*
X0029522D01*
X0030553D02*
X0030447D01*
X0030509Y-0000070D02*
X0030490D01*
X0033268D02*
X0031490D01*
X0029430Y0000453D02*
Y0000272D01*
X0029340Y0000353D02*
Y0000272D01*
X0029250Y0000291D02*
Y0000272D01*
Y0009734D02*
Y0001208D01*
X0029160Y0009749D02*
Y0001247D01*
X0024660Y0014266D02*
Y0011504D01*
X0029430Y0010996D02*
Y0010196D01*
X0029070Y0010996D02*
Y0010196D01*
X0028710Y0000315D02*
Y0000272D01*
X0024930Y0000707D02*
Y0000292D01*
X0024840Y0000602D02*
Y0000397D01*
X0024750Y0000538D02*
Y0000462D01*
X0025037Y0000290D02*
X0024931D01*
X0028478Y0000740D02*
X0025934D01*
X0028487Y0000650D02*
X0025871D01*
X0028478Y0000200D02*
X0025962D01*
X0028478Y0000110D02*
X0025988D01*
X0028478Y0000020D02*
X0025998D01*
X0028478Y-0000070D02*
X0025993D01*
X0028478Y-0000160D02*
X0025971D01*
X0028478Y-0000250D02*
X0025931D01*
X0025920Y0000716D02*
Y0000283D01*
X0025830Y0000607D02*
Y0000392D01*
X0025740Y0000541D02*
Y0000458D01*
X0025290Y0000504D02*
Y0000495D01*
X0025200Y0000549D02*
Y0000451D01*
X0025110Y0000620D02*
Y0000380D01*
X0025020Y0000738D02*
Y0000262D01*
X0028478Y-0000700D02*
X0024339D01*
X0025233Y0000470D02*
X0024735D01*
X0023220Y-0000428D02*
Y-0001600D01*
X0028620Y-0000772D02*
Y-0001600D01*
X0028478Y-0000520D02*
X0024384D01*
X0046667D02*
X0035923D01*
X0033409Y-0000610D02*
X0031378D01*
X0028478D02*
X0024373D01*
X0025110Y-0000364D02*
Y-0001600D01*
X0029553Y-0000520D02*
X0029522D01*
X0023118Y-0000340D02*
X0023046D01*
X0025110Y0000380D02*
X0024858D01*
X0029610Y-0000597D02*
Y-0001600D01*
X0023222Y-0000430D02*
X0023046D01*
X0025191D02*
X0024777D01*
X0024300Y-0000760D02*
Y-0001600D01*
X0028478Y-0000430D02*
X0025761D01*
X0029735Y-0000700D02*
X0029522D01*
X0047442Y-0001510D02*
X0006750D01*
X0022230Y0000560D02*
Y0000530D01*
X0022140Y0000637D02*
Y0000530D01*
X0022050Y0000772D02*
Y0000530D01*
X0023276Y0001460D02*
X0022755D01*
X0023147Y0001370D02*
X0022884D01*
X0023072Y0001280D02*
X0022959D01*
X0023024Y0001190D02*
X0023007D01*
X0022254Y0010369D02*
Y0005355D01*
X0023130Y0004296D02*
Y0001353D01*
X0023040Y0004296D02*
Y0001224D01*
X0021820Y0005070D02*
X0022538Y0004353D01*
X0022770Y0004281D02*
Y0001452D01*
X0022680Y0004279D02*
Y0001490D01*
X0022500Y0004391D02*
Y0001514D01*
X0047331Y0005060D02*
X0022549D01*
X0021746Y0010369D02*
Y0005250D01*
X0022410Y0004481D02*
Y0001502D01*
X0021746Y0005510D02*
X0007886D01*
X0022001Y-0000250D02*
X0006750D01*
X0024260Y0001460D02*
X0023739D01*
X0024131Y0001370D02*
X0023868D01*
X0024056Y0001280D02*
X0023943D01*
X0024008Y0001190D02*
X0023991D01*
X0024030Y0004296D02*
Y0001236D01*
X0023940Y0004296D02*
Y0001285D01*
X0023850Y0004296D02*
Y0001386D01*
X0023760Y0004296D02*
Y0001449D01*
X0023670Y0004296D02*
Y0001488D01*
X0023580Y0004296D02*
Y0001509D01*
X0023490Y0004296D02*
Y0001514D01*
X0023400Y0004296D02*
Y0001503D01*
X0023310Y0004296D02*
Y0001475D01*
X0023220Y0004296D02*
Y0001428D01*
X0022254Y0005355D02*
X0022792Y0004816D01*
X0024991Y0000200D02*
X0024977D01*
X0025290Y0004296D02*
Y0001480D01*
X0025200Y0004296D02*
Y0001435D01*
X0025020Y0010996D02*
Y0007234D01*
X0024840Y0010996D02*
Y0007134D01*
Y0004296D02*
Y0001381D01*
X0024660Y0004296D02*
Y0001486D01*
X0024570Y0004296D02*
Y0001508D01*
X0024480Y0004296D02*
Y0001514D01*
X0024300Y0004296D02*
Y0001478D01*
X0025244Y0001460D02*
X0024724D01*
X0025116Y0001370D02*
X0024852D01*
X0025040Y0001280D02*
X0024928D01*
X0024993Y0001190D02*
X0024975D01*
X0023040Y0014510D02*
Y0004804D01*
X0024120Y0004296D02*
Y0001359D01*
X0025019Y0000740D02*
X0024949D01*
X0025081Y0000650D02*
X0024887D01*
X0025183Y0000560D02*
X0024785D01*
X0028513D02*
X0025770D01*
X0007380Y0012300D02*
Y0002250D01*
X0007866Y0001820D02*
X0006750D01*
X0047531Y0001460D02*
X0025708D01*
X0029520Y0000544D02*
Y-0000044D01*
X0028788Y0000272D02*
X0028478D01*
X0028718Y0001190D02*
X0025960D01*
X0028612Y0001100D02*
X0025987D01*
X0026100Y0010996D02*
Y-0001600D01*
X0047331Y0004340D02*
X0025864D01*
X0025920Y0004400D02*
Y0001267D01*
X0025830Y0004317D02*
Y0001376D01*
X0025740Y0004287D02*
Y0001443D01*
X0025650Y0004288D02*
Y0001484D01*
X0052061Y0006500D02*
X0051626D01*
X0021746Y0009920D02*
X0006750D01*
X0031050Y0014956D02*
Y0001270D01*
X0025380Y0004296D02*
Y0001505D01*
X0028547Y0001010D02*
X0025998D01*
X0028506Y0000920D02*
X0025994D01*
X0023400Y0017300D02*
Y0016255D01*
X0023310Y0017300D02*
Y0016228D01*
X0023670Y0017300D02*
Y0016479D01*
X0022140Y0017300D02*
Y0016105D01*
X0023289Y0016220D02*
X0022726D01*
X0023071Y0016040D02*
X0022944D01*
X0023021Y0015950D02*
X0022995D01*
X0028530Y0000522D02*
Y0000272D01*
X0023130Y0017300D02*
Y0016111D01*
X0023220Y0017300D02*
Y0016183D01*
X0022860Y0017300D02*
Y0016135D01*
X0022410Y0017300D02*
Y0016253D01*
X0022320Y0017300D02*
Y0016226D01*
X0022950Y0017300D02*
Y0016032D01*
X0023040Y0017300D02*
Y0015989D01*
X0029092Y0016850D02*
X0008600D01*
X0028822Y0016580D02*
X0024219D01*
X0028759Y0016490D02*
X0024307D01*
X0028706Y0016400D02*
X0024353D01*
X0028662Y0016310D02*
X0024374D01*
X0024030Y0017300D02*
Y0016652D01*
X0023940Y0017300D02*
Y0016650D01*
X0023850Y0017300D02*
Y0016627D01*
X0023760Y0017300D02*
Y0016576D01*
X0024210Y0017300D02*
Y0016586D01*
X0024930Y0017300D02*
Y0016205D01*
X0024840Y0017300D02*
Y0016205D01*
X0024750Y0017300D02*
Y0016205D01*
X0022050Y0015505D02*
Y0014994D01*
X0028626Y0016220D02*
X0024373D01*
X0029430Y0017300D02*
Y0017036D01*
X0028574Y0016040D02*
X0024948D01*
X0028557Y0015950D02*
X0024948D01*
X0028547Y0015860D02*
X0024948D01*
X0028542Y0015770D02*
X0024948D01*
X0028544Y0015680D02*
X0024948D01*
X0028551Y0015590D02*
X0024948D01*
X0028565Y0015500D02*
X0024948D01*
X0028584Y0015410D02*
X0024948D01*
X0011051Y0016490D02*
X0008600D01*
X0022230Y0017300D02*
Y0016179D01*
X0024930Y0015279D02*
Y0015030D01*
X0024840Y0015279D02*
Y0015140D01*
X0024750Y0015279D02*
Y0015207D01*
X0024660Y0015279D02*
Y0015249D01*
Y0017300D02*
Y0016205D01*
X0024570Y0017300D02*
Y0016205D01*
X0024480Y0017300D02*
Y0016205D01*
X0028610Y0015320D02*
X0024948D01*
X0028643Y0015230D02*
X0024707D01*
X0028684Y0015140D02*
X0024840D01*
X0028732Y0015050D02*
X0024917D01*
X0024948Y0015279D02*
X0024521D01*
X0023765Y0016580D02*
X0008600D01*
X0029157Y0014600D02*
X0024982D01*
X0029314Y0014510D02*
X0024944D01*
X0033780Y0014420D02*
X0030292D01*
X0033870Y0014330D02*
X0024784D01*
X0024480Y-0000514D02*
Y-0001600D01*
X0035040Y0013160D02*
X0025209D01*
X0023580Y0017300D02*
Y0016258D01*
X0023490Y0017300D02*
Y0016264D01*
X0029037Y0014690D02*
X0025002D01*
X0024024Y0014510D02*
X0023960D01*
X0024086Y0014420D02*
X0023898D01*
X0024184Y0014330D02*
X0023800D01*
X0023150Y0016130D02*
X0022865D01*
X0022770Y0017300D02*
Y0016198D01*
X0022680Y0017300D02*
Y0016238D01*
X0022590Y0017300D02*
Y0016259D01*
X0022500Y0017300D02*
Y0016264D01*
X0022320Y0015258D02*
Y0015242D01*
X0022140Y0015379D02*
Y0015120D01*
X0023310Y-0000476D02*
Y-0001600D01*
X0028620Y0015292D02*
Y0011504D01*
X0028858Y0014870D02*
X0024994D01*
X0028939Y0014780D02*
X0025006D01*
X0023040Y0014510D02*
X0022975D01*
X0023101Y0014420D02*
X0022914D01*
X0023200Y0014330D02*
X0022815D01*
X0050942Y0002990D02*
X0050528D01*
X0033618Y0000920D02*
X0031494D01*
X0050040Y0000087D02*
Y-0001600D01*
X0033349Y0000470D02*
X0031441D01*
X0047531Y0000650D02*
X0035862D01*
X0047531Y0000560D02*
X0035906D01*
X0047531Y0000470D02*
X0035942D01*
X0047531Y0000380D02*
X0035971D01*
X0055331Y0000290D02*
X0050466D01*
X0062831Y0004070D02*
X0062757D01*
X0047531Y0000110D02*
X0036020D01*
X0038600Y0000020D02*
X0036024D01*
X0038517Y-0000070D02*
X0036023D01*
X0062304Y-0000430D02*
X0060735D01*
X0038488Y-0000250D02*
X0036002D01*
X0038616Y-0000430D02*
X0035956D01*
X0033515Y-0000790D02*
X0024273D01*
X0038523Y-0000340D02*
X0035982D01*
X0040770Y0008200D02*
Y0002884D01*
X0035370Y0012830D02*
Y0001173D01*
X0035280Y0012920D02*
Y0001224D01*
X0035190Y0013010D02*
Y0001267D01*
X0035100Y0013100D02*
Y0001302D01*
X0035010Y0013190D02*
Y0001330D01*
X0034920Y0013280D02*
Y0001351D01*
X0034830Y0013370D02*
Y0001366D01*
X0034740Y0013460D02*
Y0001375D01*
X0034650Y0013550D02*
Y0001379D01*
X0034560Y0013640D02*
Y0001376D01*
X0034470Y0013730D02*
Y0001367D01*
X0033746Y0008269D02*
Y0006831D01*
X0034254Y0008269D02*
Y0006831D01*
X0034380Y0013820D02*
Y0001353D01*
X0034200Y0006574D02*
Y0001305D01*
X0028596Y0016130D02*
X0024948D01*
X0031620Y0016580D02*
X0031021D01*
X0031710Y0016490D02*
X0031083D01*
X0031800Y0016400D02*
X0031136D01*
X0031890Y0016310D02*
X0031180D01*
X0028790Y0014960D02*
X0024966D01*
X0031980Y0016220D02*
X0031217D01*
X0032070Y0016130D02*
X0031246D01*
X0030510Y0017300D02*
Y0016995D01*
X0030420Y0017300D02*
Y0017033D01*
X0030330Y0017300D02*
Y0017065D01*
X0030240Y0017300D02*
Y0017089D01*
X0030150Y0017300D02*
Y0017108D01*
X0030060Y0017300D02*
Y0017120D01*
X0029970Y0017300D02*
Y0017126D01*
X0029880Y0017300D02*
Y0017126D01*
X0029790Y0017300D02*
Y0017120D01*
X0029700Y0017300D02*
Y0017109D01*
X0029610Y0017300D02*
Y0017091D01*
X0029250Y0014543D02*
Y0011504D01*
X0030330Y0012561D02*
Y0011504D01*
X0030150Y0014388D02*
Y0012942D01*
X0030060Y0014376D02*
Y0011504D01*
X0029970Y0014370D02*
Y0011504D01*
X0029880Y0014370D02*
Y0011504D01*
X0029790Y0014375D02*
Y0011504D01*
X0028890Y0014833D02*
Y0011504D01*
X0029250Y0010996D02*
Y0010266D01*
X0029700Y0014387D02*
Y0011504D01*
X0021746Y0006140D02*
X0008866D01*
X0028530Y0017300D02*
Y0011504D01*
X0019121Y0011000D02*
X0009070D01*
X0030690Y0014603D02*
Y0012919D01*
X0030496Y0012395D02*
Y0011504D01*
X0036750Y0011450D02*
X0031004D01*
X0028440Y0017300D02*
Y0011504D01*
X0028350Y0017300D02*
Y0011504D01*
X0028260Y0017300D02*
Y0011504D01*
X0028170Y0017300D02*
Y0011504D01*
X0028080Y0017300D02*
Y0011504D01*
X0027990Y0017300D02*
Y0011504D01*
X0027900Y0017300D02*
Y0011504D01*
X0027810Y0017300D02*
Y0011504D01*
X0027720Y0017300D02*
Y0011504D01*
X0027630Y0017300D02*
Y0011504D01*
X0027540Y0017300D02*
Y0011504D01*
X0027450Y0017300D02*
Y0011504D01*
X0027360Y0017300D02*
Y0011504D01*
X0027270Y0017300D02*
Y0011504D01*
X0027180Y0017300D02*
Y0011504D01*
X0027090Y0017300D02*
Y0011504D01*
X0027000Y0017300D02*
Y0011504D01*
X0026910Y0017300D02*
Y0011504D01*
X0026820Y0017300D02*
Y0011504D01*
X0026730Y0017300D02*
Y0011504D01*
X0026640Y0017300D02*
Y0011504D01*
X0026550Y0017300D02*
Y0011504D01*
X0026460Y0017300D02*
Y0011504D01*
X0026370Y0017300D02*
Y0011504D01*
X0026280Y0017300D02*
Y0011504D01*
X0026190Y0017300D02*
Y0011504D01*
X0026100Y0017300D02*
Y0011504D01*
X0026010Y0017300D02*
Y0011504D01*
X0025920Y0017300D02*
Y0011504D01*
X0025830Y0017300D02*
Y0011504D01*
X0025740Y0017300D02*
Y0011504D01*
X0025650Y0017300D02*
Y0011504D01*
X0025560Y0017300D02*
Y0011504D01*
X0025470Y0017300D02*
Y0011504D01*
X0025380Y0017300D02*
Y0011504D01*
X0025200Y0013128D02*
Y0011504D01*
X0025110Y0013007D02*
Y0011504D01*
X0025020Y0012963D02*
Y0011504D01*
X0024930Y0012954D02*
Y0011504D01*
X0024840Y0012977D02*
Y0011504D01*
X0036930Y0011270D02*
X0031015D01*
X0036570Y0011630D02*
X0031004D01*
X0024750Y0013044D02*
Y0011504D01*
X0024570Y0014242D02*
Y0011515D01*
X0024480Y0014235D02*
Y0011507D01*
X0024390Y0014244D02*
Y0011463D01*
X0024300Y0014269D02*
Y0011342D01*
X0024750Y0004296D02*
Y0001446D01*
X0036390Y0011810D02*
X0031004D01*
X0029340Y0014497D02*
Y0011504D01*
X0076350Y0000290D02*
X0073862D01*
X0072900Y0008200D02*
Y0000242D01*
X0072810Y0008200D02*
Y0000363D01*
X0072720Y0008200D02*
Y0000407D01*
X0072630Y0008200D02*
Y0000415D01*
X0072540Y0008200D02*
Y0000392D01*
X0073491Y0000470D02*
X0071068D01*
X0076350Y0000380D02*
X0073969D01*
X0076350Y0000200D02*
X0072911D01*
X0076350Y0000110D02*
X0072913D01*
X0073637Y0000290D02*
X0072876D01*
X0076350Y0000020D02*
X0072882D01*
X0070096Y0001550D02*
X0067119D01*
X0070096Y0001460D02*
X0067119D01*
X0070096Y0001370D02*
X0067119D01*
X0070096Y0001280D02*
X0067119D01*
X0070762Y0000200D02*
X0067119D01*
X0070852Y0000110D02*
X0067119D01*
X0070222Y0000740D02*
X0067119D01*
X0070312Y0000650D02*
X0067119D01*
X0070402Y0000560D02*
X0067119D01*
X0070492Y0000470D02*
X0067119D01*
X0076350Y0001550D02*
X0070504D01*
X0070124Y0002000D02*
X0067170D01*
X0076350Y0002090D02*
X0067065D01*
X0065790Y0008200D02*
Y0001416D01*
X0066780Y0008200D02*
Y0002055D01*
X0067140Y0008200D02*
Y0002036D01*
X0076350Y0002180D02*
X0065669D01*
X0066960Y0008200D02*
Y0002116D01*
X0070917Y0000020D02*
X0067200D01*
X0071000Y-0000070D02*
X0067282D01*
X0061200Y0008200D02*
Y0000392D01*
X0076350Y-0000340D02*
X0067276D01*
X0067119Y0001644D02*
Y0000057D01*
X0067140Y0001663D02*
Y0000050D01*
X0070098Y0000920D02*
X0067119D01*
X0070135Y0000830D02*
X0067119D01*
X0029520Y0010996D02*
Y0000956D01*
X0046837Y0006140D02*
X0025276D01*
X0030669Y0010996D02*
X0028881D01*
X0029340D02*
Y0010250D01*
X0030600Y0010996D02*
Y0001086D01*
X0076350Y0008120D02*
X0034254D01*
X0038010Y0010190D02*
X0029436D01*
X0038100Y0010100D02*
X0029497D01*
X0038190Y0010010D02*
X0029516D01*
X0038280Y0009920D02*
X0029504D01*
X0038370Y0009830D02*
X0029455D01*
X0055081Y-0000880D02*
X0047896D01*
X0047295Y-0001420D02*
X0047250D01*
X0047160Y-0000708D02*
Y-0000940D01*
X0047070Y-0000855D02*
Y-0000935D01*
X0046980Y-0000904D02*
Y-0000962D01*
X0046890Y-0000916D02*
Y-0001036D01*
X0054991Y-0000970D02*
X0047234D01*
X0054901Y-0001060D02*
X0047686D01*
X0054811Y-0001150D02*
X0047747D01*
X0054003Y-0001600D02*
X0006750D01*
X0054192Y-0001240D02*
X0047766D01*
X0054045Y-0001330D02*
X0047754D01*
X0034282D02*
X0006750D01*
X0047700Y-0000966D02*
Y-0001074D01*
X0047610Y-0000950D02*
Y-0001007D01*
X0047520Y-0000896D02*
Y-0000984D01*
X0046980Y0006043D02*
Y0001950D01*
X0047250Y0001538D02*
Y-0000980D01*
X0057240Y0006084D02*
Y-0000034D01*
X0057150Y0005980D02*
Y0000070D01*
X0057060Y0005940D02*
Y0000109D01*
X0056970Y0005935D02*
Y0000114D01*
X0056880Y0005962D02*
Y0000088D01*
X0056790Y0006031D02*
Y0000014D01*
X0057968Y-0000250D02*
X0057247D01*
X0057968Y-0000340D02*
X0057186D01*
X0061263Y0000110D02*
X0057058D01*
X0061535Y0000020D02*
X0057205D01*
X0061562Y-0000070D02*
X0057254D01*
X0057968Y-0000160D02*
X0057266D01*
X0047531Y0000020D02*
X0038900D01*
X0047531Y-0000070D02*
X0038982D01*
X0047531Y-0000160D02*
X0039013D01*
X0047531Y-0000250D02*
X0039011D01*
X0047531Y-0000340D02*
X0038976D01*
X0046750Y-0000430D02*
X0038884D01*
X0031320Y0016880D02*
Y0001163D01*
X0038970Y0009230D02*
Y-0000050D01*
X0038880Y0009320D02*
Y0000032D01*
X0038790Y0009410D02*
Y0000063D01*
X0038700Y0009500D02*
Y0000061D01*
X0038610Y0009590D02*
Y0000026D01*
X0047421Y0003440D02*
X0046686D01*
X0047511Y0003350D02*
X0046747D01*
X0047531Y0003260D02*
X0046766D01*
X0047531Y0003170D02*
X0046754D01*
X0047610Y0008200D02*
Y0005978D01*
X0046710Y0008200D02*
Y0003414D01*
X0046620Y0008200D02*
Y0003488D01*
X0046530Y0008200D02*
Y0003514D01*
X0045270Y0008200D02*
Y0003634D01*
X0070110Y0008200D02*
Y0001986D01*
X0076350Y0001910D02*
X0070542D01*
X0076350Y0001820D02*
X0070565D01*
X0076350Y0001730D02*
X0070557D01*
X0076350Y0001190D02*
X0070504D01*
X0070650Y0008200D02*
Y0000888D01*
X0076350Y0002000D02*
X0070476D01*
X0070470Y0008200D02*
Y0002005D01*
X0070380Y0008200D02*
Y0002054D01*
X0066781Y0000830D02*
X0066004D01*
X0076350Y0001640D02*
X0070513D01*
X0076350Y0001010D02*
X0070528D01*
X0076350Y0000830D02*
X0070708D01*
X0076350Y-0000070D02*
X0072800D01*
X0076350Y0000920D02*
X0070618D01*
X0070740Y0008200D02*
Y0000798D01*
X0070504Y0001628D02*
Y0001034D01*
X0070560Y0001742D02*
Y0000978D01*
X0076350Y0001100D02*
X0070504D01*
X0076350Y0001280D02*
X0070504D01*
X0076350Y0001370D02*
X0070504D01*
X0076350Y0001460D02*
X0070504D01*
X0048791Y0004340D02*
X0047669D01*
X0071370Y0008200D02*
Y0000300D01*
X0052740Y0008200D02*
Y0007759D01*
X0049050Y0008200D02*
Y0007490D01*
X0048960Y0008200D02*
Y0007506D01*
X0045384Y0003260D02*
X0040226D01*
X0047700Y0008200D02*
Y0003638D01*
X0045720Y0008200D02*
Y0003650D01*
X0045630Y0008200D02*
Y0003732D01*
X0045540Y0008200D02*
Y0003763D01*
X0045450Y0008200D02*
Y0003761D01*
X0045360Y0008200D02*
Y0003726D01*
X0047331Y0003710D02*
X0045664D01*
X0047331Y0003620D02*
X0045738D01*
X0047346Y0003530D02*
X0045764D01*
X0038610Y-0000426D02*
Y-0001600D01*
X0046313Y0003440D02*
X0045759D01*
X0065596Y0000020D02*
X0062669D01*
X0066781Y0000560D02*
X0066004D01*
X0070096Y0001010D02*
X0067119D01*
X0066781Y0000920D02*
X0066004D01*
X0066060Y0001092D02*
Y-0000142D01*
X0070096Y0001190D02*
X0067119D01*
X0066781Y0000110D02*
X0066004D01*
X0046440Y0008200D02*
Y0003509D01*
X0071010Y-0000076D02*
Y-0001600D01*
X0070057Y0001910D02*
X0067209D01*
X0063270Y0008200D02*
Y0002432D01*
X0066060Y0008200D02*
Y0001208D01*
X0065970Y0008200D02*
Y0001355D01*
X0065880Y0008200D02*
Y0001404D01*
X0052731Y0004070D02*
X0051008D01*
X0052731Y0003980D02*
X0051086D01*
X0052731Y0003890D02*
X0051114D01*
X0052731Y0003800D02*
X0051110D01*
X0052731Y0003620D02*
X0050973D01*
X0052731Y0003710D02*
X0051073D01*
X0051030Y0007631D02*
Y0004052D01*
X0073531Y0000380D02*
X0072784D01*
X0054401Y0006410D02*
X0053944D01*
X0050940Y0006157D02*
Y0004106D01*
X0050580Y0006070D02*
Y0003419D01*
X0049391Y0002270D02*
X0048455D01*
X0049391Y0002180D02*
X0048504D01*
X0049391Y0002090D02*
X0048516D01*
X0049063Y0002360D02*
X0048308D01*
X0049391Y0002000D02*
X0048497D01*
X0048690Y0006014D02*
Y-0001600D01*
X0076350Y-0000700D02*
X0060735D01*
X0048420Y0008200D02*
Y0002305D01*
X0048330Y0008200D02*
Y0002354D01*
X0048240Y0008200D02*
Y0002366D01*
X0048150Y0008200D02*
Y0002347D01*
X0049391Y0001910D02*
X0048436D01*
X0061331Y0002360D02*
X0055669D01*
X0061331Y0002270D02*
X0055669D01*
X0061331Y0002180D02*
X0055669D01*
X0061331Y0002090D02*
X0055669D01*
X0054000Y0001408D02*
Y-0001408D01*
X0055980Y-0000458D02*
Y-0001600D01*
X0061331Y0001730D02*
X0056265D01*
X0061331Y0001640D02*
X0056242D01*
X0054540Y0001818D02*
Y-0001331D01*
X0055831Y0001460D02*
X0055669D01*
X0055831Y0001370D02*
X0055669D01*
X0055831Y0001280D02*
X0055669D01*
X0055831Y0001190D02*
X0055669D01*
X0055831Y0001100D02*
X0055669D01*
X0055831Y0001010D02*
X0055669D01*
X0055831Y0000920D02*
X0055669D01*
X0061331Y0001550D02*
X0056176D01*
X0061331Y0001910D02*
X0056213D01*
X0055831Y0000110D02*
X0055669D01*
X0055710Y0006331D02*
Y0002864D01*
X0055260Y0006331D02*
Y0002815D01*
X0055620Y0006331D02*
Y0002938D01*
X0055530Y0006331D02*
Y0002964D01*
X0055440Y0006331D02*
Y0002959D01*
X0055350Y0006331D02*
Y0002920D01*
X0061331Y0002900D02*
X0055676D01*
X0061331Y0002810D02*
X0055742D01*
X0061331Y0002720D02*
X0055765D01*
X0061331Y0002630D02*
X0055757D01*
X0055331Y0000020D02*
X0049715D01*
X0056813Y-0000340D02*
X0056098D01*
X0055831Y0000470D02*
X0055669D01*
X0055260Y0002584D02*
Y-0000101D01*
X0055531Y-0000430D02*
X0055408D01*
X0056070Y-0000368D02*
Y-0001600D01*
X0055080Y0006331D02*
Y-0000246D01*
X0054990Y0001923D02*
Y-0000234D01*
X0054900Y0001791D02*
Y-0000253D01*
X0054810Y0001744D02*
Y-0000313D01*
X0055331Y0001190D02*
X0050369D01*
X0055331Y0001100D02*
X0053737D01*
X0055331Y0001010D02*
X0053803D01*
X0055331Y0000920D02*
X0053826D01*
X0053820Y0002004D02*
Y0000962D01*
X0053550Y0006433D02*
Y0002340D01*
X0053730Y0006335D02*
Y0001106D01*
X0053550Y0001959D02*
Y0001166D01*
X0053460Y0001901D02*
Y0001146D01*
X0053370Y0001884D02*
Y0001085D01*
X0055800Y-0000638D02*
Y-0001600D01*
X0055331Y0000740D02*
X0053774D01*
X0008550Y0002088D02*
Y0001842D01*
X0008460Y0002123D02*
Y0001963D01*
X0008370Y0002216D02*
Y0002007D01*
X0006930Y0012300D02*
Y0003307D01*
X0046350Y0001530D02*
Y-0001600D01*
X0046287Y0001910D02*
X0008513D01*
X0046243Y0001820D02*
X0008557D01*
X0051207Y0006590D02*
X0049419D01*
X0052601Y0005960D02*
X0049419D01*
X0050490Y0006157D02*
Y0003407D01*
X0050760Y0006037D02*
Y0004106D01*
X0050539Y0006500D02*
X0049419D01*
X0052691Y0005870D02*
X0049419D01*
X0050472Y0006410D02*
X0049419D01*
X0052731Y0005780D02*
X0049419D01*
X0052731Y0005690D02*
X0049419D01*
X0052731Y0005600D02*
X0049419D01*
X0052731Y0005510D02*
X0049419D01*
X0050449Y0006320D02*
X0049419D01*
X0050458Y0006230D02*
X0049419D01*
X0052731Y0005420D02*
X0049419D01*
X0052731Y0005330D02*
X0049419D01*
X0052731Y0005240D02*
X0049419D01*
X0052731Y0005150D02*
X0049419D01*
X0052731Y0005060D02*
X0049419D01*
X0052731Y0004970D02*
X0049419D01*
X0052731Y0004880D02*
X0049419D01*
X0052731Y0004790D02*
X0049419D01*
X0048791Y0003800D02*
X0047669D01*
X0050586Y0003890D02*
X0049419D01*
X0048870Y0002729D02*
Y-0001600D01*
X0076350Y0003530D02*
X0065669D01*
X0062010Y0008200D02*
Y0003584D01*
X0061920Y0008200D02*
Y0003658D01*
X0061740Y0003934D02*
Y0003679D01*
X0061669Y0003844D02*
Y0003652D01*
X0050231Y0003170D02*
X0049729D01*
X0050141Y0003080D02*
X0049729D01*
X0050057Y0002990D02*
X0049729D01*
X0050031Y0002900D02*
X0049729D01*
X0050031Y0002810D02*
X0049729D01*
X0050031Y0002720D02*
X0049729D01*
X0050031Y0002630D02*
X0049729D01*
X0050031Y0002540D02*
X0049729D01*
X0048510Y0008200D02*
Y0006466D01*
X0047250Y0008200D02*
Y0006476D01*
X0047160Y0008200D02*
Y0006542D01*
X0047070Y0008200D02*
Y0006565D01*
X0046980Y0008200D02*
Y0006557D01*
X0046890Y0008200D02*
Y0006513D01*
X0021746Y0006680D02*
X0008134D01*
X0048791Y0005960D02*
X0047628D01*
X0048510Y0006093D02*
Y0002158D01*
X0021746Y0005960D02*
X0008786D01*
X0071280Y0008200D02*
Y0000382D01*
X0048791Y0005870D02*
X0047667D01*
X0048473Y0006140D02*
X0047448D01*
X0048791Y0005420D02*
X0047669D01*
X0048791Y0005330D02*
X0047669D01*
X0048791Y0005240D02*
X0047669D01*
X0048791Y0005150D02*
X0047669D01*
X0048791Y0005060D02*
X0047669D01*
X0048791Y0004970D02*
X0047669D01*
X0048791Y0004880D02*
X0047669D01*
X0048791Y0004790D02*
X0047669D01*
X0048791Y0004700D02*
X0047669D01*
X0048791Y0004610D02*
X0047669D01*
X0048791Y0004520D02*
X0047669D01*
X0048791Y0003620D02*
X0047718D01*
X0048791Y0003350D02*
X0047869D01*
X0048791Y0004250D02*
X0047669D01*
X0039767Y0003530D02*
X0006750D01*
X0048791Y0005600D02*
X0047669D01*
X0046800Y0008200D02*
Y0006392D01*
X0047331Y0003800D02*
X0006750D01*
X0050321Y0003260D02*
X0049729D01*
X0052731Y0004430D02*
X0049419D01*
X0052731Y0004160D02*
X0049419D01*
X0049045Y0002720D02*
X0049018D01*
X0048713Y0003080D02*
X0047869D01*
X0049050Y0002374D02*
Y-0001600D01*
X0052731Y0004250D02*
X0049419D01*
X0048780Y0006026D02*
Y0003176D01*
X0048996Y0002630D02*
X0047869D01*
X0048984Y0002540D02*
X0047869D01*
X0049003Y0002450D02*
X0047869D01*
X0050760Y0003605D02*
Y0003419D01*
X0048045Y0002270D02*
X0047869D01*
X0052731Y0004610D02*
X0049419D01*
X0048192Y0002360D02*
X0047869D01*
X0048150Y0001853D02*
Y-0001600D01*
X0049391Y0001820D02*
X0047869D01*
X0049391Y0001730D02*
X0047869D01*
X0049391Y0001640D02*
X0047869D01*
X0049391Y0001550D02*
X0047869D01*
X0049391Y0001460D02*
X0047869D01*
X0049391Y0001370D02*
X0047869D01*
X0049391Y0001280D02*
X0047869D01*
X0049391Y0001190D02*
X0047869D01*
X0049391Y0001100D02*
X0047869D01*
X0049391Y0001010D02*
X0047869D01*
X0049391Y0000920D02*
X0047869D01*
X0049995Y0000470D02*
X0049729D01*
X0049391Y0000740D02*
X0047869D01*
X0049391Y0000650D02*
X0047869D01*
X0050031Y0001010D02*
X0049729D01*
X0049391Y0000560D02*
X0047869D01*
X0050031Y0000920D02*
X0049729D01*
X0049320Y-0000232D02*
Y-0001600D01*
X0049274Y0000200D02*
X0047869D01*
X0049207Y0000110D02*
X0047869D01*
X0049184Y0000020D02*
X0047869D01*
X0049193Y-0000070D02*
X0047869D01*
X0049237Y-0000160D02*
X0047869D01*
X0054908Y-0000250D02*
X0049542D01*
X0055111D02*
X0055092D01*
X0054743Y-0000430D02*
X0047869D01*
X0054734Y-0000520D02*
X0047896D01*
X0053910Y0006381D02*
Y0003254D01*
X0047700Y-0001426D02*
Y-0001600D01*
X0047531Y-0000430D02*
X0047050D01*
X0047669Y0005850D02*
Y0003670D01*
X0047531Y0003330D02*
Y-0000494D01*
X0062331Y0003710D02*
X0061669D01*
X0033746Y0007040D02*
X0025307D01*
X0062331Y0003620D02*
X0061976D01*
X0062331Y0003530D02*
X0062042D01*
X0062331Y0003440D02*
X0062065D01*
X0062331Y0003350D02*
X0062276D01*
X0006840Y0012300D02*
Y0003263D01*
X0047531Y0002810D02*
X0041259D01*
X0046442Y0002990D02*
X0041115D01*
X0061969Y0001568D02*
Y0000256D01*
X0047531Y0002720D02*
X0041264D01*
X0047531Y0002630D02*
X0041238D01*
X0040735Y0002720D02*
X0006750D01*
X0062331Y0001640D02*
X0062313D01*
X0062331Y0001460D02*
X0061969D01*
X0062331Y0001370D02*
X0061969D01*
X0062331Y0001280D02*
X0061969D01*
X0062331Y0001190D02*
X0061969D01*
X0061830Y0008200D02*
Y0003684D01*
X0063720Y0008200D02*
Y0004834D01*
X0061560Y0008200D02*
Y0004309D01*
X0061650Y0008200D02*
Y0004270D01*
X0061740Y0008200D02*
Y0004165D01*
X0061380Y0008200D02*
Y0004288D01*
X0062408Y0004250D02*
X0061676D01*
X0062287Y0004160D02*
X0061742D01*
X0062243Y0004070D02*
X0061765D01*
X0062234Y0003980D02*
X0061757D01*
X0055331Y0000650D02*
X0053653D01*
X0063684Y0004700D02*
X0063169D01*
X0063699Y0004610D02*
X0063169D01*
X0063754Y0004520D02*
X0063169D01*
X0063781Y0004430D02*
X0063169D01*
X0063781Y0004340D02*
X0063169D01*
X0063781Y0004250D02*
X0063169D01*
X0063781Y0004160D02*
X0063169D01*
X0063781Y0004070D02*
X0063169D01*
X0063781Y0003980D02*
X0063169D01*
X0063781Y0003890D02*
X0063169D01*
X0063781Y0003800D02*
X0063169D01*
X0063781Y0003710D02*
X0063169D01*
X0063781Y0003620D02*
X0063169D01*
X0063781Y0003530D02*
X0063169D01*
X0063781Y0003440D02*
X0063169D01*
X0063781Y0002990D02*
X0063169D01*
X0063781Y0003080D02*
X0063169D01*
X0063781Y0002900D02*
X0063169D01*
X0063771Y0002810D02*
X0063169D01*
X0062831Y0003170D02*
X0062669D01*
X0063781D02*
X0063169D01*
X0063781Y0003260D02*
X0063169D01*
X0062820Y0004804D02*
Y0002696D01*
X0063781Y0003350D02*
X0063169D01*
X0063591Y0002630D02*
X0063232D01*
X0063501Y0002540D02*
X0063263D01*
X0061470Y0008200D02*
Y0004314D01*
X0063180Y0008200D02*
Y0005196D01*
X0063090Y0008200D02*
Y0005250D01*
X0063000Y0008200D02*
Y0005266D01*
X0062910Y0008200D02*
Y0005250D01*
X0062820Y0008200D02*
Y0005196D01*
X0076350Y0005240D02*
X0063115D01*
X0073901Y0005060D02*
X0063259D01*
X0073901Y0004970D02*
X0063264D01*
X0073530Y0000381D02*
Y-0001600D01*
X0074272Y0005420D02*
X0053069D01*
X0063000Y0002234D02*
Y-0001600D01*
X0062884Y0005240D02*
X0053069D01*
X0062780Y0005150D02*
X0053069D01*
X0062740Y0005060D02*
X0053069D01*
X0062735Y0004970D02*
X0053069D01*
X0062762Y0004880D02*
X0053069D01*
X0062831Y0004790D02*
X0053069D01*
X0062831Y0004700D02*
X0053069D01*
X0062831Y0004610D02*
X0053069D01*
X0062831Y0004520D02*
X0053069D01*
X0062831Y0004430D02*
X0053069D01*
X0061331Y0003844D02*
Y0000538D01*
X0061324Y0004250D02*
X0053069D01*
X0061257Y0004160D02*
X0053069D01*
X0061234Y0004070D02*
X0053069D01*
X0061243Y0003980D02*
X0053069D01*
X0047880Y0008200D02*
Y-0000504D01*
X0061331Y0003710D02*
X0053069D01*
X0061331Y0003620D02*
X0053069D01*
X0061287Y0003890D02*
X0053069D01*
X0053854Y0003170D02*
X0053069D01*
X0053871Y0002810D02*
X0053069D01*
X0053838Y0002720D02*
X0053069D01*
X0055831Y0000380D02*
X0055669D01*
X0053837Y0002630D02*
X0053069D01*
X0053870Y0002540D02*
X0053069D01*
X0052731Y0003170D02*
X0051254D01*
X0055743Y0001820D02*
X0055669D01*
X0061331Y0003350D02*
X0053069D01*
X0061331Y0003440D02*
X0053069D01*
X0052650Y0005911D02*
Y0002342D01*
X0053200Y0002360D02*
X0053142D01*
X0052110Y0007281D02*
Y0006868D01*
X0053010Y0006581D02*
Y0006028D01*
X0052920Y0006581D02*
Y0006118D01*
X0052830Y0006581D02*
Y0006208D01*
X0052740Y0006581D02*
Y0006298D01*
X0052650Y0006574D02*
Y0006388D01*
X0052560Y0006507D02*
Y0006478D01*
X0052020Y0007281D02*
Y0006869D01*
X0051930Y0007281D02*
Y0006869D01*
X0051840Y0007281D02*
Y0006869D01*
X0052274Y0006950D02*
X0051542D01*
X0056181Y0006230D02*
X0052808D01*
X0051570Y0007301D02*
Y0006938D01*
X0051480Y0007381D02*
Y0006964D01*
X0051390Y0007471D02*
Y0006959D01*
X0051300Y0007561D02*
Y0006920D01*
X0051210Y0007631D02*
Y0006815D01*
X0051750Y0006531D02*
Y-0001600D01*
X0021746Y0006950D02*
X0006750D01*
X0037380Y0010820D02*
X0022338D01*
X0025470Y0004296D02*
Y0001514D01*
X0025290Y0010996D02*
Y0007085D01*
X0025200Y0010996D02*
Y0007190D01*
X0025110Y0010996D02*
Y0007229D01*
X0049391Y0002324D02*
Y0000380D01*
X0050031Y0002000D02*
X0049729D01*
X0021746Y0007490D02*
X0006750D01*
X0021746Y0005690D02*
X0007966D01*
X0024930Y0010996D02*
Y0007208D01*
X0073485Y0000560D02*
X0070978D01*
X0076350Y0005150D02*
X0063220D01*
X0076350Y0003440D02*
X0065669D01*
X0076350Y0003620D02*
X0065732D01*
X0076350Y0003260D02*
X0065669D01*
X0067050Y0008200D02*
Y0002097D01*
X0076350Y0002450D02*
X0065669D01*
X0076350Y0002360D02*
X0065669D01*
X0076350Y0002270D02*
X0065669D01*
X0070582Y0000380D02*
X0067119D01*
X0070504Y0001034D02*
X0071123Y0000415D01*
X0066870Y0008200D02*
Y0002104D01*
X0076350Y0002990D02*
X0065669D01*
X0063450Y0008200D02*
Y0002488D01*
X0076350Y0002900D02*
X0065669D01*
X0076350Y0002540D02*
X0065669D01*
X0076350Y0002810D02*
X0065669D01*
X0063360Y0008200D02*
Y0002463D01*
X0066834Y0002090D02*
X0065669D01*
X0066690Y0001910D02*
X0065669D01*
X0066685Y0001820D02*
X0065669D01*
X0066712Y0001730D02*
X0065669D01*
X0072500Y-0000070D02*
X0071300D01*
X0065970Y-0000405D02*
Y-0001600D01*
X0065331Y0000830D02*
X0062669D01*
X0066781Y0001460D02*
X0065669D01*
X0066781Y0001280D02*
X0066032D01*
X0070096Y0001628D02*
Y0000950D01*
X0066781Y0001370D02*
X0065950D01*
X0065250Y0003658D02*
Y0000692D01*
X0066781Y-0000070D02*
X0066032D01*
X0066781Y0000200D02*
X0066004D01*
X0066781Y0000740D02*
X0066004D01*
X0076350Y0003350D02*
X0065669D01*
X0065700Y0008200D02*
Y0003926D01*
X0065610Y0008200D02*
Y0003992D01*
X0065520Y0008200D02*
Y0004015D01*
X0065430Y0008200D02*
Y0004007D01*
X0065340Y0008200D02*
Y0003963D01*
X0065250Y0008200D02*
Y0003842D01*
X0076350Y0003980D02*
X0065634D01*
X0076350Y0004070D02*
X0064119D01*
X0076350Y0003800D02*
X0065761D01*
X0054450Y0006364D02*
Y0001676D01*
X0054360Y0002616D02*
Y0001742D01*
X0054270Y0002469D02*
Y0001765D01*
X0054180Y0002004D02*
Y0001757D01*
X0054090Y0001949D02*
Y0001713D01*
X0054000Y0001934D02*
Y0001592D01*
X0055331Y0001910D02*
X0054985D01*
X0055331Y0001730D02*
X0054384D01*
X0055331Y0001640D02*
X0054476D01*
X0055331Y0001550D02*
X0054511D01*
X0055331Y0001460D02*
X0054513D01*
X0008346Y0002270D02*
X0008150D01*
X0008190Y0006263D02*
Y0002236D01*
X0008100Y0006203D02*
Y0002297D01*
X0008010Y0006184D02*
Y0002316D01*
X0007920Y0005550D02*
Y0002304D01*
X0008190Y0001507D02*
Y-0001600D01*
X0033746Y0007130D02*
X0025263D01*
X0011028Y0013520D02*
X0008600D01*
X0024834Y0012980D02*
X0008600D01*
X0021746Y0006770D02*
X0006750D01*
X0008542Y0006410D02*
X0008263D01*
X0008395Y0006320D02*
X0008232D01*
X0008346Y0006230D02*
X0008150D01*
X0051210Y0006584D02*
Y0003414D01*
X0049573Y0007135D02*
X0049419Y0006980D01*
X0030361Y0012530D02*
X0008600D01*
X0007866Y0006680D02*
X0006750D01*
X0008100Y0012300D02*
Y0006697D01*
X0073901Y0004430D02*
X0064119D01*
X0076350D02*
X0075185D01*
X0076350Y0003890D02*
X0065726D01*
X0076350Y0004250D02*
X0064119D01*
X0076350Y0004160D02*
X0064119D01*
X0065430Y0000343D02*
Y-0001600D01*
X0065366Y0003980D02*
X0064119D01*
X0065273Y0003890D02*
X0064119D01*
X0065238Y0003800D02*
X0064119D01*
X0065237Y0003710D02*
X0064119D01*
X0076350Y0004340D02*
X0064119D01*
X0064080Y0008200D02*
Y0004932D01*
X0064170Y0008200D02*
Y0004850D01*
X0063990Y0008200D02*
Y0004963D01*
X0063900Y0008200D02*
Y0004961D01*
X0063810Y0008200D02*
Y0004926D01*
X0073901Y0004880D02*
X0064146D01*
X0073901Y0004790D02*
X0064200D01*
X0073901Y0004700D02*
X0064216D01*
X0064119Y0004494D02*
Y0002750D01*
X0064260Y0008200D02*
Y-0001600D01*
X0065331Y0002990D02*
X0064119D01*
X0065331Y0002000D02*
X0063576D01*
X0063781Y0002820D02*
X0063426Y0002465D01*
X0065331Y0003080D02*
X0064119D01*
X0065331Y0002540D02*
X0063978D01*
X0065331Y0002810D02*
X0064119D01*
X0063810Y0002371D02*
Y-0001600D01*
X0065331Y0002450D02*
X0063888D01*
X0065331Y0002270D02*
X0063708D01*
X0065331Y0002180D02*
X0063665D01*
X0065331Y0002360D02*
X0063798D01*
X0076350Y0003080D02*
X0065669D01*
X0063720Y0004566D02*
Y0002758D01*
X0076350Y0002720D02*
X0065669D01*
X0076350Y0002630D02*
X0065669D01*
X0063308Y0002450D02*
X0063261D01*
X0053734Y0002180D02*
X0053628D01*
X0053757Y0002090D02*
X0053623D01*
X0053787Y0002360D02*
X0053528D01*
X0053743Y0002270D02*
X0053602D01*
X0053824Y0002000D02*
X0053584D01*
X0053820Y0006341D02*
Y0002396D01*
X0053460Y0006581D02*
Y0002398D01*
X0053370Y0006581D02*
Y0002416D01*
X0053280Y0006581D02*
Y0002403D01*
X0053190Y0006581D02*
Y0002351D01*
X0053069Y0005900D02*
Y0002456D01*
X0054484Y0001910D02*
X0053479D01*
X0008334Y0002360D02*
X0007658D01*
X0054100Y0001280D02*
X0050369D01*
X0007850Y0002270D02*
X0007805D01*
X0008395Y0002180D02*
X0008232D01*
X0008542Y0002090D02*
X0008263D01*
X0047531D02*
X0008658D01*
X0007740Y0005437D02*
Y0002326D01*
X0007650Y0005438D02*
Y0002361D01*
X0007560Y0005473D02*
Y0002363D01*
X0007470Y0005566D02*
Y0002332D01*
X0024390Y-0000504D02*
Y-0001600D01*
X0008413Y0005960D02*
X0007758D01*
X0048550Y0006500D02*
X0047226D01*
X0047430Y0001666D02*
Y-0000993D01*
X0021746Y0006050D02*
X0008847D01*
X0021746Y0005870D02*
X0007905D01*
X0021746Y0005780D02*
X0007954D01*
X0007773Y0006590D02*
X0006750D01*
X0007920Y0006196D02*
Y0005850D01*
X0007830Y0006245D02*
Y0005932D01*
X0008353Y0006050D02*
X0006750D01*
X0007740Y0012300D02*
Y0006508D01*
X0007650Y0012300D02*
Y0005961D01*
X0021746Y0008030D02*
X0006750D01*
X0039780Y0008420D02*
Y0003550D01*
X0050310Y0008200D02*
Y0007942D01*
X0049590Y0008200D02*
Y0007666D01*
X0049680Y0008200D02*
Y0007654D01*
X0049950Y0008200D02*
Y0007661D01*
X0021746Y0007580D02*
X0006750D01*
X0051210Y0008200D02*
Y0007969D01*
X0051120Y0008200D02*
Y0007969D01*
X0051030Y0008200D02*
Y0007969D01*
X0050940Y0008200D02*
Y0007969D01*
X0050850Y0008200D02*
Y0007969D01*
X0007650Y0001838D02*
Y-0001600D01*
X0050470Y0007631D02*
X0050265Y0007426D01*
X0074215Y0007940D02*
X0051394D01*
X0050400Y0008200D02*
Y0007969D01*
X0074467Y0008030D02*
X0034254D01*
X0074070Y0008200D02*
Y0007860D01*
X0051390Y0008200D02*
Y0007942D01*
X0052194Y0007619D02*
X0051720D01*
X0058770Y0008200D02*
Y0007603D01*
X0052110Y0008200D02*
Y0007619D01*
X0052020Y0008200D02*
Y0007619D01*
X0051930Y0008200D02*
Y0007619D01*
X0052595Y0007670D02*
X0052550D01*
X0047531Y0001370D02*
X0034802D01*
X0047531Y0001280D02*
X0035158D01*
X0047531Y0001190D02*
X0035342D01*
X0047531Y0001100D02*
X0035477D01*
X0047531Y0001010D02*
X0035584D01*
X0046673Y-0000790D02*
X0035776D01*
X0046766Y-0000880D02*
X0035707D01*
X0046966Y-0000970D02*
X0035626D01*
X0046873Y-0001060D02*
X0035527D01*
X0046838Y-0001150D02*
X0035406D01*
X0038520Y0009680D02*
Y-0000066D01*
X0036000Y0012200D02*
Y0000259D01*
X0035910Y0012290D02*
Y0000550D01*
X0034290Y0013910D02*
Y0001332D01*
X0035730Y0012470D02*
Y0000852D01*
X0035640Y0012560D02*
Y0000955D01*
X0035550Y0012650D02*
Y0001041D01*
X0033840Y0006537D02*
Y0001119D01*
X0033750Y0006658D02*
Y0001048D01*
X0035460Y0012740D02*
Y0001113D01*
X0033660Y0014540D02*
Y0000964D01*
X0035820Y0012380D02*
Y0000723D01*
X0033480Y0014720D02*
Y0000736D01*
X0033390Y0014810D02*
Y0000570D01*
X0076350Y0008030D02*
X0075139D01*
X0076350Y0007940D02*
X0075391D01*
X0021746Y0007850D02*
X0006750D01*
X0076350Y0007580D02*
X0075858D01*
X0073980Y0008200D02*
Y0007799D01*
X0076350Y0005690D02*
X0075749D01*
X0076350Y0005600D02*
X0075644D01*
X0076350Y0006680D02*
X0076182D01*
X0076140Y0008200D02*
Y0007030D01*
X0076050Y0008200D02*
Y0007281D01*
X0075960Y0008200D02*
Y0007443D01*
X0075870Y0008200D02*
Y0007566D01*
X0075780Y0008200D02*
Y0007666D01*
X0075690Y0008200D02*
Y0007748D01*
X0075600Y0008200D02*
Y0007818D01*
X0073890Y0008200D02*
Y0007726D01*
X0073800Y0008200D02*
Y0007639D01*
X0073710Y0008200D02*
Y0007533D01*
X0073620Y0008200D02*
Y0007401D01*
X0073530Y0008200D02*
Y0007222D01*
X0059670Y0008200D02*
Y0007234D01*
X0076350Y0005420D02*
X0075334D01*
X0073440Y0008200D02*
Y0006901D01*
X0050220Y0008200D02*
Y0007858D01*
X0031080Y0017120D02*
X0030059D01*
X0031170Y0017030D02*
X0030429D01*
X0031260Y0016940D02*
X0030614D01*
X0029250Y0017300D02*
Y0016952D01*
X0031230Y0016970D02*
Y0016182D01*
X0031140Y0017060D02*
Y0016393D01*
X0031050Y0017150D02*
Y0016540D01*
X0030960Y0017240D02*
Y0016655D01*
X0030870Y0017300D02*
Y0016749D01*
X0030780Y0017300D02*
Y0016827D01*
X0030690Y0017300D02*
Y0016893D01*
X0028980Y0017300D02*
Y0016755D01*
X0028890Y0017300D02*
Y0016663D01*
X0028800Y0017300D02*
Y0016550D01*
X0029070Y0017300D02*
Y0016833D01*
X0029160Y0017300D02*
Y0016897D01*
X0028710Y0017300D02*
Y0016407D01*
X0033150Y0015050D02*
X0031110D01*
X0033330Y0014870D02*
X0030984D01*
X0033420Y0014780D02*
X0030903D01*
X0033510Y0014690D02*
X0030805D01*
X0033600Y0014600D02*
X0030685D01*
X0033690Y0014510D02*
X0030528D01*
X0047024Y0002000D02*
X0046592D01*
X0046710Y0003086D02*
Y0001914D01*
X0046620Y0003012D02*
Y0001988D01*
X0046530Y0002985D02*
Y0002014D01*
X0046440Y0002990D02*
Y0002009D01*
X0046350Y0003030D02*
Y0001970D01*
X0046260Y0003134D02*
Y0001865D01*
X0046957Y0001910D02*
X0046713D01*
X0046934Y0001820D02*
X0046757D01*
X0046943Y0001730D02*
X0046765D01*
X0046987Y0001640D02*
X0046742D01*
X0047108Y0001550D02*
X0046676D01*
X0029550Y0014420D02*
X0024883D01*
X0047531Y0002000D02*
X0047376D01*
X0046257Y0001640D02*
X0008542D01*
X0047250Y0005861D02*
Y0002061D01*
X0047340Y0003546D02*
Y0002026D01*
X0047160Y0005951D02*
Y0002063D01*
X0047070Y0006034D02*
Y0002032D01*
X0047430Y0003431D02*
Y0001934D01*
X0047531Y0001910D02*
X0047442D01*
X0047531Y0001820D02*
X0047465D01*
X0047531Y0001730D02*
X0047457D01*
X0047531Y0001640D02*
X0047413D01*
X0061331Y0003260D02*
X0054284D01*
X0061331Y0003170D02*
X0054346D01*
X0061331Y0002990D02*
X0054354D01*
X0061331Y0003080D02*
X0054366D01*
X0054360Y0006451D02*
Y0003126D01*
X0048566Y0006050D02*
X0047538D01*
X0054721Y-0001240D02*
X0054308D01*
X0057968Y-0000610D02*
X0055828D01*
X0057968Y-0000700D02*
X0055738D01*
X0057968Y-0000430D02*
X0056008D01*
X0057968Y-0000520D02*
X0055918D01*
X0055831Y0001544D02*
Y-0000130D01*
X0055710Y0002536D02*
Y-0000251D01*
X0055620Y-0000218D02*
Y-0000341D01*
X0055530Y-0000308D02*
Y-0000431D01*
X0055440Y-0000398D02*
Y-0000521D01*
X0055350Y-0000488D02*
Y-0000611D01*
X0055260Y-0000578D02*
Y-0000701D01*
X0055170Y-0000705D02*
Y-0000791D01*
X0055080Y-0000754D02*
Y-0000881D01*
X0054990Y-0000766D02*
Y-0000971D01*
X0054900Y-0000747D02*
Y-0001061D01*
X0076350Y-0001600D02*
X0054838D01*
X0054900Y-0001538D02*
Y-0001600D01*
X0076350Y-0000790D02*
X0055648D01*
X0076350Y-0000880D02*
X0055558D01*
X0076350Y-0000970D02*
X0055468D01*
X0076350Y-0001060D02*
X0055378D01*
X0076350Y-0001150D02*
X0055288D01*
X0076350Y-0001240D02*
X0055198D01*
X0076350Y-0001330D02*
X0055108D01*
X0076350Y-0001420D02*
X0055018D01*
X0054000Y0006731D02*
Y0006711D01*
X0061331Y0001460D02*
X0056169D01*
X0061331Y0001370D02*
X0056169D01*
X0061331Y0001280D02*
X0056169D01*
X0061331Y0001190D02*
X0056169D01*
X0061331Y0001100D02*
X0056169D01*
X0061331Y0001010D02*
X0056169D01*
X0061331Y0000920D02*
X0056169D01*
X0061331Y0000830D02*
X0056169D01*
X0055711Y-0000250D02*
X0055588D01*
X0056942Y0000110D02*
X0056169D01*
X0061331Y0000740D02*
X0056169D01*
X0061331Y0000650D02*
X0056169D01*
X0061331Y0000560D02*
X0056169D01*
X0061245Y0000470D02*
X0056169D01*
X0061203Y0000200D02*
X0056169D01*
X0056746Y-0000070D02*
X0056169D01*
X0056734Y-0000160D02*
X0056169D01*
X0046234Y0001730D02*
X0008565D01*
X0055800Y0001574D02*
Y-0000161D01*
X0055908Y0002000D02*
X0055669D01*
X0056160Y0006251D02*
Y0001963D01*
X0056070Y0006331D02*
Y0002007D01*
X0055980Y0006331D02*
Y0002015D01*
X0056250Y0006161D02*
Y0001842D01*
X0055800Y0006331D02*
Y0001926D01*
X0055734Y0001730D02*
X0055669D01*
X0055757Y0001640D02*
X0055669D01*
X0007738Y0006500D02*
X0006750D01*
X0010735Y0013880D02*
X0008600D01*
X0034680Y0013520D02*
X0011471D01*
X0024786Y0013430D02*
X0008600D01*
X0010893Y0013610D02*
X0008600D01*
X0073980Y0004408D02*
Y0000665D01*
X0075330Y0005418D02*
Y-0001600D01*
X0073890Y0005659D02*
Y0000758D01*
X0073800Y0005746D02*
Y0000793D01*
X0073710Y0005852D02*
Y0000794D01*
X0073620Y0005984D02*
Y0000764D01*
X0066690Y0008200D02*
Y0001908D01*
X0076350Y0000740D02*
X0073915D01*
X0076350Y0000650D02*
X0073988D01*
X0076350Y0000560D02*
X0074015D01*
X0076350Y0000470D02*
X0074009D01*
X0072450Y0008200D02*
Y0000326D01*
X0050623Y0006050D02*
X0049419D01*
X0050940Y0007631D02*
Y0006442D01*
X0050850Y0007631D02*
Y0006529D01*
X0050670Y0007631D02*
Y0006562D01*
X0050580Y0007631D02*
Y0006529D01*
X0050490Y0007631D02*
Y0006442D01*
X0050760Y0007631D02*
Y0006562D01*
X0051274Y0006500D02*
X0050891D01*
X0052151Y0006410D02*
X0050957D01*
X0052241Y0006320D02*
X0050980D01*
X0052331Y0006230D02*
X0050972D01*
X0052421Y0006140D02*
X0050928D01*
X0030173Y0012710D02*
X0008600D01*
X0024712Y0013340D02*
X0008600D01*
X0033390Y-0000570D02*
Y-0001600D01*
X0050306Y0007940D02*
X0034254D01*
X0050211Y0007850D02*
X0034254D01*
X0050121Y0007760D02*
X0034254D01*
X0050031Y0007670D02*
X0034254D01*
X0049404Y0007580D02*
X0034254D01*
X0048868Y0007490D02*
X0034254D01*
X0033746Y0006860D02*
X0025292D01*
X0048791Y0006950D02*
X0034254D01*
X0048791Y0006770D02*
X0034265D01*
X0048791Y0006680D02*
X0034257D01*
X0048791Y0006860D02*
X0034254D01*
X0048784Y0007040D02*
X0034254D01*
X0048717Y0007130D02*
X0034254D01*
X0048694Y0007220D02*
X0034254D01*
X0048703Y0007310D02*
X0034254D01*
X0033750Y0008258D02*
Y0006842D01*
X0037200Y0011000D02*
X0030842D01*
X0034200Y0014000D02*
Y0008526D01*
X0034110Y0014090D02*
Y0008592D01*
X0034020Y0014180D02*
Y0008615D01*
X0033930Y0014270D02*
Y0008607D01*
X0033840Y0014360D02*
Y0008563D01*
X0033750Y0014450D02*
Y0008442D01*
X0039630Y0008570D02*
X0034150D01*
X0039720Y0008480D02*
X0034232D01*
X0039810Y0008390D02*
X0034263D01*
X0025380Y0010996D02*
Y0004804D01*
X0025290Y0006164D02*
Y0004804D01*
X0025200Y0006060D02*
Y0004804D01*
X0025110Y0006020D02*
Y0004804D01*
X0025020Y0006015D02*
Y0004804D01*
X0024930Y0006042D02*
Y0004804D01*
X0024840Y0006116D02*
Y0004804D01*
X0024750Y0010996D02*
Y0004804D01*
X0024120Y0014383D02*
Y0004804D01*
X0024030Y0014500D02*
Y0004804D01*
X0023940Y0014476D02*
Y0004804D01*
X0023850Y0014370D02*
Y0004804D01*
X0023760Y0014304D02*
Y0004804D01*
X0023670Y0014264D02*
Y0004804D01*
X0023580Y0014241D02*
Y0004804D01*
X0023490Y0014235D02*
Y0004804D01*
X0023400Y0014245D02*
Y0004804D01*
X0023310Y0014271D02*
Y0004804D01*
X0023220Y0014317D02*
Y0004804D01*
X0023130Y0014389D02*
Y0004804D01*
X0047331Y0004790D02*
X0025815D01*
X0047331Y0004700D02*
X0025920D01*
X0047331Y0004610D02*
X0025959D01*
X0047331Y0004520D02*
X0025964D01*
X0047331Y0004430D02*
X0025938D01*
X0025920Y0010996D02*
Y0004700D01*
X0025830Y0010996D02*
Y0004782D01*
X0025740Y0010996D02*
Y0004813D01*
X0025650Y0010996D02*
Y0004811D01*
X0033746Y0007850D02*
X0022254D01*
X0039773Y0003260D02*
X0007164D01*
X0039866Y0003170D02*
X0007238D01*
X0006750Y0012300D02*
Y0003142D01*
X0007560Y0012300D02*
Y0005926D01*
X0006762Y0003170D02*
X0006750D01*
X0007200Y0012300D02*
Y0003226D01*
X0050502Y0006140D02*
X0049419D01*
X0055824Y0001550D02*
X0055669D01*
X0040780Y0002900D02*
X0007220D01*
X0040740Y0002810D02*
X0007115D01*
X0024374Y0011450D02*
X0006750D01*
X0009090Y0017300D02*
Y0011265D01*
X0019350Y0017300D02*
Y0011348D01*
X0008910Y0017300D02*
Y0011409D01*
X0009000Y0017300D02*
Y0011370D01*
X0008730Y0017300D02*
Y0011388D01*
X0019382Y0011360D02*
X0009014D01*
X0019234Y0011270D02*
X0009088D01*
X0019167Y0011180D02*
X0009114D01*
X0047331Y0004970D02*
X0022639D01*
X0047331Y0004880D02*
X0022729D01*
X0019132Y0010910D02*
X0008965D01*
X0024660Y0010996D02*
Y0004804D01*
X0022770Y0014301D02*
Y0004839D01*
X0022680Y0014262D02*
Y0004929D01*
X0022590Y0014240D02*
Y0005019D01*
X0022500Y0014235D02*
Y0005109D01*
X0022410Y0014246D02*
Y0005199D01*
X0029063Y0010190D02*
X0022254D01*
X0029003Y0010100D02*
X0022254D01*
X0028984Y0010010D02*
X0022254D01*
X0028996Y0009920D02*
X0022254D01*
X0029045Y0009830D02*
X0022254D01*
X0029192Y0009740D02*
X0022254D01*
X0021746Y0010280D02*
X0006750D01*
X0038550Y0009650D02*
X0022254D01*
X0038640Y0009560D02*
X0022254D01*
X0038730Y0009470D02*
X0022254D01*
X0038820Y0009380D02*
X0022254D01*
X0038910Y0009290D02*
X0022254D01*
X0039000Y0009200D02*
X0022254D01*
X0039090Y0009110D02*
X0022254D01*
X0039180Y0009020D02*
X0022254D01*
X0039270Y0008930D02*
X0022254D01*
X0039360Y0008840D02*
X0022254D01*
X0039450Y0008750D02*
X0022254D01*
X0034020Y-0001229D02*
Y-0001600D01*
X0033850Y0008570D02*
X0022254D01*
X0033767Y0008480D02*
X0022254D01*
X0033737Y0008390D02*
X0022254D01*
X0033738Y0008300D02*
X0022254D01*
X0024730Y0013070D02*
X0008600D01*
X0033746Y0008120D02*
X0022254D01*
X0033746Y0008030D02*
X0022254D01*
X0033746Y0007940D02*
X0022254D01*
X0033746Y0007760D02*
X0022254D01*
X0033746Y0007670D02*
X0022254D01*
X0033746Y0007580D02*
X0022254D01*
X0033746Y0007490D02*
X0022254D01*
X0033746Y0007400D02*
X0022254D01*
X0024958Y0007220D02*
X0022254D01*
X0024837Y0007130D02*
X0022254D01*
X0024793Y0007040D02*
X0022254D01*
X0024784Y0006950D02*
X0022254D01*
X0024807Y0006860D02*
X0022254D01*
X0024874Y0006770D02*
X0022254D01*
X0033734D02*
X0025226D01*
X0033930Y-0001178D02*
Y-0001600D01*
X0024900Y0006500D02*
X0022254D01*
X0024817Y0006410D02*
X0022254D01*
X0024787Y0006320D02*
X0022254D01*
X0024788Y0006230D02*
X0022254D01*
X0024823Y0006140D02*
X0022254D01*
X0024916Y0006050D02*
X0022254D01*
X0047151Y0005960D02*
X0022254D01*
X0047241Y0005870D02*
X0022254D01*
X0047331Y0005780D02*
X0022254D01*
X0047331Y0005690D02*
X0022254D01*
X0047331Y0005600D02*
X0022254D01*
X0047331Y0005510D02*
X0022254D01*
X0030496Y0011630D02*
X0006750D01*
X0036660Y0011540D02*
X0031004D01*
X0035670Y0012530D02*
X0031002D01*
X0035220Y0012980D02*
X0030632D01*
X0030960Y0014841D02*
Y0012642D01*
X0030870Y0014747D02*
Y0012739D01*
X0030780Y0014669D02*
Y0012829D01*
X0031350Y0016850D02*
X0030750D01*
X0028800Y0014945D02*
Y0011516D01*
X0030420Y0014462D02*
Y0013115D01*
X0030330Y0014431D02*
Y0013107D01*
X0030240Y0014406D02*
Y0013063D01*
X0029160Y0014598D02*
Y0011504D01*
X0035490Y0012710D02*
X0030899D01*
X0035130Y0013070D02*
X0030550D01*
X0008630Y0011000D02*
X0006750D01*
X0025290Y0006854D02*
Y0006395D01*
X0025200Y0006750D02*
Y0006500D01*
X0025110Y0006710D02*
Y0006539D01*
X0025020Y0006705D02*
Y0006544D01*
X0024930Y0006732D02*
Y0006518D01*
X0024840Y0006806D02*
Y0006444D01*
X0033787Y0006590D02*
X0022254D01*
X0046807Y0006410D02*
X0025282D01*
X0028719Y0011504D02*
X0024631D01*
X0035760Y0012440D02*
X0031004D01*
X0030278Y0012613D02*
X0030496Y0012395D01*
X0028980Y0014740D02*
Y0011504D01*
X0003510Y-0000610D02*
X0003053D01*
X0003307Y-0000790D02*
X0003255D01*
X0003326Y-0001240D02*
X0003237D01*
X0003409Y-0001330D02*
X0003153D01*
X0003620Y-0001420D02*
X0002943D01*
X0003376Y-0000700D02*
X0003187D01*
X0006500Y0005690D02*
X-0001550D01*
X0003137Y0009290D02*
X-0001550D01*
X0003220Y0006084D02*
Y0002465D01*
X0003040Y0006137D02*
Y0002413D01*
X0002860Y0015228D02*
Y-0000577D01*
X0003220Y-0001263D02*
Y-0001600D01*
X0002770Y0006200D02*
Y-0000593D01*
X0002680Y0006117D02*
Y-0000631D01*
X0001399Y0008030D02*
X-0001550D01*
X0003670Y0015316D02*
Y0008076D01*
X0004030Y0007684D02*
Y-0000768D01*
X0003940Y0007629D02*
Y-0000669D01*
X0003850Y0007614D02*
Y-0000614D01*
X0004840Y0007787D02*
Y0006759D01*
X0004297Y-0000610D02*
X0003841D01*
X0004095Y-0000790D02*
X0004043D01*
X0004113Y-0001240D02*
X0004024D01*
X0004197Y-0001330D02*
X0003941D01*
X0004407Y-0001420D02*
X0003731D01*
X0004163Y-0000700D02*
X0003974D01*
X0001719Y0002540D02*
X-0001550D01*
X0003130Y0006093D02*
Y0002457D01*
X0004826Y-0000610D02*
X0004628D01*
X0004826Y-0001240D02*
X0004812D01*
X0004826Y-0001330D02*
X0004728D01*
X0006500Y-0001240D02*
X0005674D01*
X0004826Y-0000700D02*
X0004762D01*
X0004826Y-0000576D02*
Y-0000782D01*
X0005020Y0006262D02*
Y0002350D01*
X0004660Y0006086D02*
Y0002426D01*
X0004930Y0006235D02*
Y0002432D01*
X0004750Y0006280D02*
Y0002461D01*
X0004480Y0005985D02*
Y-0000577D01*
X0004390Y0005990D02*
Y-0000582D01*
X0004300Y0006030D02*
Y-0000609D01*
X0006500Y-0000430D02*
X0001310D01*
X0003670Y-0001423D02*
Y-0001600D01*
X0004660Y-0001375D02*
Y-0001600D01*
X0006500Y-0000790D02*
X0005674D01*
X0006500Y-0000880D02*
X0005674D01*
X0006500Y-0000970D02*
X0005674D01*
X0006500Y-0001060D02*
X0005674D01*
X0006500Y-0001150D02*
X0005674D01*
X-0000364Y-0001330D02*
X-0001550D01*
X0006500Y0002090D02*
X0005858D01*
X0005830Y0002085D02*
Y-0001600D01*
X0005650Y0002130D02*
Y-0000576D01*
X0005470Y0015202D02*
Y-0000576D01*
X0005380Y0015189D02*
Y-0000576D01*
X0005290Y0015191D02*
Y-0000576D01*
X0005537Y0012890D02*
X0002356D01*
X0004955Y0015347D02*
Y0015287D01*
X0001726Y0002450D02*
X-0001550D01*
X0001673Y0013610D02*
X-0000173D01*
X0001405Y0013520D02*
X0000095D01*
X0001291Y0013430D02*
X0000209D01*
X0001216Y0013340D02*
X0000284D01*
X0001164Y0013250D02*
X0000335D01*
X0001131Y0013160D02*
X0000369D01*
X0001111Y0013070D02*
X0000388D01*
X0001106Y0012980D02*
X0000394D01*
X0001113Y0012890D02*
X0000387D01*
X0001133Y0012800D02*
X0000367D01*
X0001169Y0012710D02*
X0000331D01*
X0001222Y0012620D02*
X0000278D01*
X-0001190Y-0000696D02*
Y-0001600D01*
X0000340Y0014412D02*
Y0013240D01*
X0008400Y0014060D02*
X-0001550D01*
X0000160Y0014378D02*
Y0013474D01*
X0000070Y0014371D02*
Y0013534D01*
X-0000020Y0014369D02*
Y0013575D01*
X-0000110Y0014373D02*
Y0013600D01*
X-0000200Y0014384D02*
Y0013612D01*
X-0000290Y0014400D02*
Y0013610D01*
X-0000380Y0014422D02*
Y0013596D01*
X-0000470Y0014452D02*
Y0013567D01*
X-0000560Y0014488D02*
Y0013522D01*
X-0000650Y0014532D02*
Y0013456D01*
X-0000830Y0014647D02*
Y0013185D01*
X0001300Y0012530D02*
X0000200D01*
X0001420Y0012440D02*
X0000080D01*
X0008400Y0013790D02*
X-0001550D01*
X0008400Y0014780D02*
X0000982D01*
X0008400Y0013610D02*
X0001796D01*
X0008400Y0013520D02*
X0002063D01*
X0005560Y0012863D02*
Y0002465D01*
X0005740Y0007892D02*
Y0002609D01*
X0005574Y0013250D02*
X0002304D01*
X0005507Y0013160D02*
X0002338D01*
X0005484Y0013070D02*
X0002357D01*
X0005493Y0012980D02*
X0002363D01*
X0008400Y0013250D02*
X0005926D01*
X0008400Y0013340D02*
X0002253D01*
X0008400Y0012890D02*
X0005963D01*
X-0000830Y0017300D02*
Y0016849D01*
X-0001337Y0015410D02*
X-0001550D01*
X0002320Y0015298D02*
Y0013213D01*
X0002230Y0015381D02*
Y0013371D01*
X0002140Y0017300D02*
Y0015978D01*
X0002050Y0017300D02*
Y0013528D01*
X0001960Y0017300D02*
Y0013571D01*
X0001870Y0017300D02*
Y0013598D01*
X0001780Y0017300D02*
Y0013611D01*
X0001690Y0017300D02*
Y0013611D01*
X0001600Y0017300D02*
Y0013598D01*
X0001510Y0017300D02*
Y0013571D01*
X0001150Y-0000761D02*
Y-0001600D01*
X0001330Y0015384D02*
Y0013466D01*
X0001240Y0015145D02*
Y0013373D01*
X0006500Y0008300D02*
X0002350D01*
X0002320Y0012756D02*
Y0011244D01*
X0002230Y0012597D02*
Y0011402D01*
X0002140Y0012504D02*
Y0011496D01*
X0002050Y0012440D02*
Y0011559D01*
X0001960Y0012397D02*
Y0011602D01*
X0001870Y0012370D02*
Y0011629D01*
X0001780Y0012357D02*
Y0011643D01*
X0001690Y0012357D02*
Y0011643D01*
X0001600Y0012370D02*
Y0011630D01*
X0001510Y0012397D02*
Y0011603D01*
X0001420Y0012440D02*
Y0011560D01*
X0001330Y0012503D02*
Y0011497D01*
X0001240Y0012596D02*
Y0011404D01*
X0006500Y0012260D02*
X-0001550D01*
X0006500Y0012440D02*
X0002049D01*
X0006500Y0011630D02*
X0001868D01*
X0006500Y0011540D02*
X0002081D01*
X0006500Y0011450D02*
X0002189D01*
X0006500Y0011360D02*
X0002260D01*
X0006500Y0011270D02*
X0002309D01*
X0006500Y0011180D02*
X0002341D01*
X0006500Y0011090D02*
X0002358D01*
X0006500Y0010910D02*
X0002354D01*
X0006500Y0010820D02*
X0002332D01*
X0006500Y0010730D02*
X0002294D01*
X0006500Y0010640D02*
X0002238D01*
X0000880Y-0001061D02*
Y-0001600D01*
X0000790Y-0001130D02*
Y-0001600D01*
X0000610Y-0001236D02*
Y-0001600D01*
X0001060Y0014866D02*
Y0000882D01*
X-0000800Y0012710D02*
X-0001550D01*
X0000520Y-0001277D02*
Y-0001600D01*
X0000430Y-0001310D02*
Y-0001600D01*
X0000340Y-0001336D02*
Y-0001600D01*
X0000250Y-0001356D02*
Y-0001600D01*
X0000160Y-0001369D02*
Y-0001600D01*
X0000070Y-0001377D02*
Y-0001600D01*
X-0000020Y-0001379D02*
Y-0001600D01*
X-0000110Y-0001374D02*
Y-0001600D01*
X-0000200Y-0001364D02*
Y-0001600D01*
X-0000290Y-0001348D02*
Y-0001600D01*
X-0000380Y-0001325D02*
Y-0001600D01*
X0000430Y0014438D02*
Y0001310D01*
X-0000650Y-0001216D02*
Y-0001600D01*
X-0001163Y0000740D02*
X-0001550D01*
X-0001216Y0000650D02*
X-0001550D01*
X-0001260Y0000560D02*
X-0001550D01*
X-0001296Y0000470D02*
X-0001550D01*
X-0001325Y0000380D02*
X-0001550D01*
X-0001348Y0000290D02*
X-0001550D01*
X-0001364Y0000200D02*
X-0001550D01*
X-0001027Y0000920D02*
X-0001550D01*
X-0001101Y0000830D02*
X-0001550D01*
X-0001377Y-0000070D02*
X-0001550D01*
X-0001369Y-0000160D02*
X-0001550D01*
X-0001356Y-0000250D02*
X-0001550D01*
X-0001336Y-0000340D02*
X-0001550D01*
X0004210Y-0001340D02*
Y-0001600D01*
X-0001061Y-0000880D02*
X-0001550D01*
X0006500Y0000200D02*
X0001364D01*
X0000250Y0014392D02*
Y0013385D01*
X-0001370Y0017300D02*
Y0015904D01*
X0000700Y0017300D02*
Y0016936D01*
X0000610Y0017300D02*
Y0016984D01*
X0000520Y0017300D02*
Y0017025D01*
X0000430Y0017300D02*
Y0017058D01*
X0000340Y0017300D02*
Y0017084D01*
X0000250Y0017300D02*
Y0017104D01*
X0000160Y0017300D02*
Y0017117D01*
X0000070Y0017300D02*
Y0017125D01*
X-0000020Y0017300D02*
Y0017127D01*
X-0000110Y0017300D02*
Y0017122D01*
X-0000200Y0017300D02*
Y0017112D01*
X-0000290Y0017300D02*
Y0017096D01*
X-0000380Y0017300D02*
Y0017073D01*
X-0000470Y0017300D02*
Y0017044D01*
X-0000560Y0017300D02*
Y0017008D01*
X-0000650Y0017300D02*
Y0016964D01*
X-0001099Y0016580D02*
X-0001550D01*
X0002590Y0006087D02*
Y-0000698D01*
X-0001162Y0016490D02*
X-0001550D01*
X-0001215Y0016400D02*
X-0001550D01*
X-0001259Y0016310D02*
X-0001550D01*
X-0001295Y0016220D02*
X-0001550D01*
X-0001325Y0016130D02*
X-0001550D01*
X-0001347Y0016040D02*
X-0001550D01*
X-0001100Y0017300D02*
Y0016579D01*
X-0001025Y0016670D02*
X-0001550D01*
X-0001379Y0015770D02*
X-0001550D01*
X-0001377Y0015680D02*
X-0001550D01*
X-0001370Y0015590D02*
X-0001550D01*
X-0001356Y0015500D02*
X-0001550D01*
X-0001311Y0015320D02*
X-0001550D01*
X0006100Y0017300D02*
Y0008197D01*
X0006010Y0002186D02*
Y-0001600D01*
X0006500Y0007940D02*
X0006266D01*
X0004210Y0007737D02*
Y0006365D01*
X0004030Y0015894D02*
Y0008150D01*
X0003490Y-0001381D02*
Y-0001600D01*
X0006500Y0002450D02*
X0006047D01*
X0006500Y0002360D02*
X0006066D01*
X0002386Y0006140D02*
X-0001550D01*
X0006500Y0006590D02*
X0005150D01*
X0003580Y0009316D02*
Y-0000587D01*
X0004029Y0015320D02*
X0003680D01*
X0003760Y0017300D02*
Y0016577D01*
X0004955Y0016213D02*
X0004379D01*
X0004955Y0015287D02*
X0004029D01*
X0004985Y0015320D02*
X0004955D01*
X0002140Y0015522D02*
Y0013464D01*
X0004029Y0015894D02*
Y0015287D01*
X0003335Y0015320D02*
X0003015D01*
X-0000603Y-0001240D02*
X-0001550D01*
X0002832Y-0001420D02*
X-0001550D01*
X-0000761Y-0001150D02*
X-0001550D01*
X0002590Y-0001301D02*
Y-0001600D01*
X-0000882Y-0001060D02*
X-0001550D01*
X0005674Y-0000576D02*
X0004826D01*
X0005674Y-0001424D02*
X0004826D01*
X0005674Y-0000576D02*
Y-0001424D01*
X-0000560Y-0001260D02*
Y-0001600D01*
X0000790Y0014618D02*
Y0001130D01*
X0000880Y0014686D02*
Y0001061D01*
X0000970Y0014768D02*
Y0000980D01*
X-0001364Y0015950D02*
X-0001550D01*
X0003763Y0016580D02*
X0001099D01*
X-0001280Y0017300D02*
Y0016261D01*
X-0001190Y0017300D02*
Y0016444D01*
X0006500Y-0001600D02*
X-0001550D01*
X0006500Y0012550D02*
Y-0001600D01*
X0008400Y0012550D02*
X0006500D01*
X0008400Y0017300D02*
Y0012550D01*
Y0017300D02*
X-0001550D01*
Y-0001600D01*
X0003024Y0002000D02*
X-0001550D01*
X0004840Y0001937D02*
Y-0000576D01*
X0006730Y0017300D02*
Y0012550D01*
X0006500Y0002540D02*
X0005986D01*
X0006500Y0002990D02*
X-0001550D01*
X0007360Y0017300D02*
Y0012550D01*
X0007270Y0017300D02*
Y0012550D01*
X0006550Y0017300D02*
Y0012550D01*
X0006460Y0017300D02*
Y-0001600D01*
X0006370Y0017300D02*
Y-0001600D01*
X0001937Y0008120D02*
X0001916D01*
X0006500Y0006050D02*
X0004626D01*
X0001870Y0001267D02*
Y-0001600D01*
X0005560Y0002234D02*
Y-0000576D01*
X0002957Y0002090D02*
X-0001550D01*
X0006500Y-0000700D02*
X0005674D01*
X0005650Y-0001424D02*
Y-0001600D01*
X0005560Y-0001424D02*
Y-0001600D01*
X0005470Y-0001424D02*
Y-0001600D01*
X0003580Y-0001413D02*
Y-0001600D01*
X0005920Y0002112D02*
Y-0001600D01*
X0005200Y-0001424D02*
Y-0001600D01*
X0005110Y-0001424D02*
Y-0001600D01*
X0005020Y-0001424D02*
Y-0001600D01*
X0004826Y-0001217D02*
Y-0001424D01*
X0006500Y-0000610D02*
X0005674D01*
X0004750Y-0001311D02*
Y-0001600D01*
X0005380Y-0001424D02*
Y-0001600D01*
X0005290Y-0001424D02*
Y-0001600D01*
X0004840Y-0001424D02*
Y-0001600D01*
X0004390Y-0001417D02*
Y-0001600D01*
X0004300Y-0001391D02*
Y-0001600D01*
X0005740Y0002090D02*
Y-0001600D01*
X0004030Y-0001232D02*
Y-0001600D01*
X0003940Y-0001331D02*
Y-0001600D01*
X0003850Y-0001386D02*
Y-0001600D01*
X0003760Y-0001415D02*
Y-0001600D01*
X0004570Y-0001410D02*
Y-0001600D01*
X0003040Y-0001395D02*
Y-0001600D01*
X0002050Y0001238D02*
Y-0001600D01*
X0002410Y0006123D02*
Y-0001600D01*
X0003130Y-0001347D02*
Y-0001600D01*
X0003400Y-0001322D02*
Y-0001600D01*
X0003310Y-0001214D02*
Y-0001600D01*
X0002860Y-0001423D02*
Y-0001600D01*
X0002770Y-0001407D02*
Y-0001600D01*
X0002680Y-0001369D02*
Y-0001600D01*
X0001150Y0012752D02*
Y0011247D01*
X0002500Y0006088D02*
Y-0000829D01*
X0001737Y0001460D02*
X-0001550D01*
X0006500Y-0000520D02*
X0001277D01*
X0002230Y0001366D02*
Y-0001600D01*
X0002140Y0001273D02*
Y-0001600D01*
X0002320Y0006216D02*
Y-0001600D01*
X0001960Y0001237D02*
Y-0001600D01*
X0001780Y0001350D02*
Y-0001600D01*
X0001690Y0007857D02*
Y-0001600D01*
X0001600Y0007858D02*
Y-0001600D01*
X0006100Y0007703D02*
Y-0001600D01*
X0006500Y0003170D02*
X-0001550D01*
X0006500Y-0001510D02*
X-0001550D01*
X0001240Y-0000603D02*
Y-0001600D01*
X0001150Y0014987D02*
Y0013216D01*
X0001060Y-0000882D02*
Y-0001600D01*
X0002588Y-0000700D02*
X0001188D01*
X0001312Y0010550D02*
X-0001550D01*
X0001420Y0007986D02*
Y-0001600D01*
X0000700Y-0001188D02*
Y-0001600D01*
Y0014560D02*
Y0001188D01*
X0000610Y0014511D02*
Y0001236D01*
X0000340Y0012729D02*
Y0001336D01*
X0000250Y0012583D02*
Y0001356D01*
X0000160Y0012495D02*
Y0001369D01*
X0000070Y0012434D02*
Y0001377D01*
X-0000020Y0012393D02*
Y0001379D01*
X-0000110Y0012368D02*
Y0001374D01*
X-0000200Y0012356D02*
Y0001364D01*
X-0000290Y0012358D02*
Y0001348D01*
X-0000380Y0012373D02*
Y0001325D01*
X-0000470Y0012401D02*
Y0001296D01*
X-0000560Y0012446D02*
Y0001260D01*
X-0000470Y-0001296D02*
Y-0001600D01*
X0000520Y0014471D02*
Y0001277D01*
X-0001374Y0000110D02*
X-0001550D01*
X-0000830Y-0001101D02*
Y-0001600D01*
X-0000920Y-0001027D02*
Y-0001600D01*
X-0001010Y-0000939D02*
Y-0001600D01*
X-0001100Y-0000831D02*
Y-0001600D01*
X-0001379Y0000020D02*
X-0001550D01*
X0008400Y0012980D02*
X0006007D01*
X0002500Y0017300D02*
Y0016290D01*
X-0000740Y-0001163D02*
Y-0001600D01*
X0002092Y0015770D02*
X0001379D01*
X0008400Y0017120D02*
X0000138D01*
X0008400Y0017030D02*
X0000508D01*
X0008400Y0016940D02*
X0000693D01*
X0008400Y0016850D02*
X0000829D01*
X0008400Y0016760D02*
X0000936D01*
X0004012Y0008120D02*
X0003965D01*
X-0001236Y-0000610D02*
X-0001550D01*
X-0000740Y0017300D02*
Y0016911D01*
X0003680Y0016490D02*
X0001162D01*
X0002610Y0016310D02*
X0001259D01*
X0002346Y0016220D02*
X0001295D01*
X0002240Y0016130D02*
X0001325D01*
X0002172Y0016040D02*
X0001347D01*
X0002128Y0015950D02*
X0001364D01*
X0002102Y0015860D02*
X0001374D01*
X0003636Y0016400D02*
X0001215D01*
X0002096Y0015680D02*
X0001377D01*
X0002115Y0015590D02*
X0001370D01*
X0002150Y0015500D02*
X0001356D01*
X0002206Y0015410D02*
X0001337D01*
X0002292Y0015320D02*
X0001311D01*
X0002441Y0015230D02*
X0001278D01*
X0001150Y0017300D02*
Y0016509D01*
X-0001237Y0015140D02*
X-0001550D01*
X-0001189Y0015050D02*
X-0001550D01*
X-0001131Y0014960D02*
X-0001550D01*
X-0001063Y0014870D02*
X-0001550D01*
X0008400Y0014330D02*
X-0001550D01*
X0008400Y0014240D02*
X-0001550D01*
X0008400Y0014150D02*
X-0001550D01*
X0008400Y0014870D02*
X0001063D01*
X-0000982Y0014780D02*
X-0001550D01*
X-0000884Y0014690D02*
X-0001550D01*
X-0000764Y0014600D02*
X-0001550D01*
X-0000607Y0014510D02*
X-0001550D01*
X-0000371Y0014420D02*
X-0001550D01*
X0008400Y0013970D02*
X-0001550D01*
X0008400Y0013880D02*
X-0001550D01*
X-0000669Y0012530D02*
X-0001550D01*
X0004930Y-0001424D02*
Y-0001600D01*
X0008400Y0012620D02*
X0002246D01*
X-0000296Y0013610D02*
X-0001550D01*
X-0000563Y0013520D02*
X-0001550D01*
X-0000678Y0013430D02*
X-0001550D01*
X-0000753Y0013340D02*
X-0001550D01*
X-0000804Y0013250D02*
X-0001550D01*
X-0000838Y0013160D02*
X-0001550D01*
X-0000857Y0013070D02*
X-0001550D01*
X-0000863Y0012980D02*
X-0001550D01*
X-0000856Y0012890D02*
X-0001550D01*
X-0000835Y0012800D02*
X-0001550D01*
X-0001130Y-0000790D02*
X-0001550D01*
X0006500Y0012530D02*
X0002169D01*
X-0000549Y0012440D02*
X-0001550D01*
X0006500Y0009830D02*
X-0001550D01*
X0006500Y0009740D02*
X-0001550D01*
X0006500Y0012170D02*
X-0001550D01*
X0006500Y0012080D02*
X-0001550D01*
X0006500Y0012350D02*
X-0001550D01*
X0001330Y-0000364D02*
Y-0001600D01*
X0006500Y0010010D02*
X-0001550D01*
X0001601Y0011630D02*
X-0001550D01*
X0001387Y0011540D02*
X-0001550D01*
X0001280Y0011450D02*
X-0001550D01*
X0001208Y0011360D02*
X-0001550D01*
X0001159Y0011270D02*
X-0001550D01*
X0001127Y0011180D02*
X-0001550D01*
X0001110Y0011090D02*
X-0001550D01*
X0001106Y0011000D02*
X-0001550D01*
X0001114Y0010910D02*
X-0001550D01*
X0001137Y0010820D02*
X-0001550D01*
X0001174Y0010730D02*
X-0001550D01*
X0001230Y0010640D02*
X-0001550D01*
X0006500Y0010550D02*
X0002157D01*
X0006500Y0011720D02*
X-0001550D01*
X0006500Y0010370D02*
X-0001550D01*
X0006500Y0010280D02*
X-0001550D01*
X0006500Y0010190D02*
X-0001550D01*
X0006500Y0010100D02*
X-0001550D01*
X0001440Y0010460D02*
X-0001550D01*
X0006500Y0009920D02*
X-0001550D01*
X0004930Y0007743D02*
Y0006764D01*
X0003310Y0009187D02*
Y0006592D01*
X0006500Y0011810D02*
X-0001550D01*
X0003174Y0009650D02*
X-0001550D01*
X0003107Y0009560D02*
X-0001550D01*
X0003084Y0009470D02*
X-0001550D01*
X0006640Y0017300D02*
Y0012550D01*
X0003258Y0009200D02*
X-0001550D01*
X0006500Y0009110D02*
X-0001550D01*
X0006500Y0009020D02*
X-0001550D01*
X0006500Y0008930D02*
X-0001550D01*
X0006500Y0008840D02*
X-0001550D01*
X0006500Y0008750D02*
X-0001550D01*
X0006500Y0008660D02*
X-0001550D01*
X0006500Y0008570D02*
X-0001550D01*
X0001510Y0007893D02*
Y-0001600D01*
X0006500Y0008390D02*
X-0001550D01*
X0001454Y0008300D02*
X-0001550D01*
X0001399Y0008210D02*
X-0001550D01*
X0001384Y0008120D02*
X-0001550D01*
X0001967Y0008210D02*
X0001900D01*
X0005920Y0007696D02*
Y0002588D01*
X0003760Y0007629D02*
Y-0000585D01*
X0006500Y0007760D02*
X0006186D01*
X0003612D02*
X-0001550D01*
X0006500Y0007580D02*
X-0001550D01*
X0006500Y0007490D02*
X-0001550D01*
X0006500Y0007400D02*
X-0001550D01*
X0006500Y0007310D02*
X-0001550D01*
X0006500Y0007220D02*
X-0001550D01*
X0006500Y0007130D02*
X-0001550D01*
X0006500Y0007040D02*
X-0001550D01*
X0006500Y0006950D02*
X-0001550D01*
X0004840Y0006240D02*
Y0002463D01*
X0002500Y-0001171D02*
Y-0001600D01*
X0004210Y0006134D02*
Y-0000660D01*
X0004704Y0006680D02*
X-0001550D01*
X0002434Y0006590D02*
X-0001550D01*
X0002330Y0006500D02*
X-0001550D01*
X0002290Y0006410D02*
X-0001550D01*
X0002285Y0006320D02*
X-0001550D01*
X0006500Y0006230D02*
X0004715D01*
X0006500Y0006140D02*
X0004692D01*
X0004274Y0006050D02*
X-0001550D01*
X0006500Y0005960D02*
X-0001550D01*
X0006500Y0005870D02*
X-0001550D01*
X0006500Y0005780D02*
X-0001550D01*
X0006500Y0005600D02*
X-0001550D01*
X0006500Y0005510D02*
X-0001550D01*
X0006500Y0005420D02*
X-0001550D01*
X0006500Y0005330D02*
X-0001550D01*
X0006500Y0005240D02*
X-0001550D01*
X0006500Y0005150D02*
X-0001550D01*
X0006500Y0005060D02*
X-0001550D01*
X0006500Y0004970D02*
X-0001550D01*
X0006500Y0004880D02*
X-0001550D01*
X0006500Y0004790D02*
X-0001550D01*
X0006500Y0004700D02*
X-0001550D01*
X0006500Y0004610D02*
X-0001550D01*
X0006500Y0004520D02*
X-0001550D01*
X0006500Y0004430D02*
X-0001550D01*
X0006500Y0004340D02*
X-0001550D01*
X0006500Y0004250D02*
X-0001550D01*
X0006500Y0004160D02*
X-0001550D01*
X0006500Y0004070D02*
X-0001550D01*
X0006500Y0003980D02*
X-0001550D01*
X0006500Y0003890D02*
X-0001550D01*
X0006500Y0003800D02*
X-0001550D01*
X0006500Y0003710D02*
X-0001550D01*
X0006500Y0003620D02*
X-0001550D01*
X0006500Y0003530D02*
X-0001550D01*
X0004570Y0002066D02*
Y-0000590D01*
X0006500Y0003440D02*
X-0001550D01*
X0006500Y0003350D02*
X-0001550D01*
X-0001460Y0017300D02*
Y-0001600D01*
X0006500Y0003080D02*
X-0001550D01*
X0003310Y0001957D02*
Y-0000785D01*
X0006500Y0002810D02*
X-0001550D01*
X0004480Y-0001423D02*
Y-0001600D01*
X0003490Y0017300D02*
Y0016213D01*
X0001813Y0002720D02*
X-0001550D01*
X0004543Y0002270D02*
X0003457D01*
X0001744Y0002630D02*
X-0001550D01*
X0006190Y0007763D02*
Y-0001600D01*
X0002950Y0006258D02*
Y0002292D01*
X0003093Y0009380D02*
X-0001550D01*
X0002312Y0006230D02*
X-0001550D01*
X0006500Y0001820D02*
X-0001550D01*
X0001866Y0001730D02*
X-0001550D01*
X0001773Y0001640D02*
X-0001550D01*
X0001738Y0001550D02*
X-0001550D01*
X-0001370Y-0000156D02*
Y-0001600D01*
X-0000156Y0001370D02*
X-0001550D01*
X0006500Y0001190D02*
X0000696D01*
X0006500Y0001100D02*
X0000831D01*
X0006500Y0001010D02*
X0000939D01*
X-0000939D02*
X-0001550D01*
X-0000650Y0012513D02*
Y0001216D01*
X0006500Y0001370D02*
X0002232D01*
X0006500Y0001280D02*
X0002150D01*
X0006500Y0000740D02*
X0001163D01*
X0006500Y0000650D02*
X0001216D01*
X0006500Y0000560D02*
X0001260D01*
X0006500Y0002000D02*
X0004976D01*
X0006500Y0000380D02*
X0001325D01*
X0006500Y0000290D02*
X0001348D01*
X-0001280Y-0000513D02*
Y-0001600D01*
X0006500Y0000920D02*
X0001027D01*
X0006500Y0000830D02*
X0001101D01*
X0006500Y-0000070D02*
X0001377D01*
X0006500Y-0000160D02*
X0001369D01*
X0006500Y-0000250D02*
X0001356D01*
X0006500Y-0000340D02*
X0001336D01*
X0002722Y-0000610D02*
X0001236D01*
X0002950Y-0001419D02*
Y-0001600D01*
X0004120Y-0001249D02*
Y-0001600D01*
X-0001310Y-0000430D02*
X-0001550D01*
X-0001277Y-0000520D02*
X-0001550D01*
X-0000740Y0012611D02*
Y0001163D01*
X-0001188Y-0000700D02*
X-0001550D01*
X-0000980Y-0000970D02*
X-0001550D01*
X0006500Y-0001330D02*
X0005674D01*
X-0001278Y0015230D02*
X-0001550D01*
X0001330Y0010534D02*
Y0000364D01*
X0001240Y0010627D02*
Y0000603D01*
X0001150Y0010784D02*
Y0000761D01*
X-0000830Y0012783D02*
Y0001101D01*
X-0000920Y0014721D02*
Y0001027D01*
X-0001010Y0014809D02*
Y0000939D01*
X-0001100Y0014916D02*
Y0000831D01*
X-0001190Y0015051D02*
Y0000696D01*
X-0001280Y0015235D02*
Y0000513D01*
X-0001370Y0015591D02*
Y0000156D01*
X0001767Y0001370D02*
X0000156D01*
X0001850Y0001280D02*
X0000513D01*
X0006500Y0000110D02*
X0001374D01*
X-0000513Y0001280D02*
X-0001550D01*
X-0000696Y0001190D02*
X-0001550D01*
X-0000831Y0001100D02*
X-0001550D01*
X0006500Y0000020D02*
X0001379D01*
X0002520Y-0000790D02*
X0001130D01*
X0002481Y-0000880D02*
X0001061D01*
X0002465Y-0000970D02*
X0000980D01*
X0002468Y-0001060D02*
X0000882D01*
X0002491Y-0001150D02*
X0000761D01*
X0002538Y-0001240D02*
X0000603D01*
X0002622Y-0001330D02*
X0000364D01*
X0006500Y0009200D02*
X0005092D01*
X0001060Y0017300D02*
Y0016630D01*
X0000970Y0017300D02*
Y0016728D01*
X0001330Y0017300D02*
Y0016112D01*
X0001240Y0017300D02*
Y0016351D01*
X-0000746Y0012620D02*
X-0001550D01*
X0000880Y0017300D02*
Y0016809D01*
X0000790Y0017300D02*
Y0016878D01*
X-0000920Y0017300D02*
Y0016775D01*
X-0001010Y0017300D02*
Y0016687D01*
X-0001374Y0015860D02*
X-0001550D01*
X0008400Y0017210D02*
X-0001550D01*
X0008400Y0015410D02*
X0005793D01*
X-0000508Y0017030D02*
X-0001550D01*
X-0000693Y0016940D02*
X-0001550D01*
X-0000829Y0016850D02*
X-0001550D01*
X0008400Y0015140D02*
X0001237D01*
X0002230Y0017300D02*
Y0016119D01*
X0008400Y0014960D02*
X0001131D01*
X0001420Y0017300D02*
Y0013529D01*
X0008400Y0013700D02*
X-0001550D01*
X0008400Y0014690D02*
X0000884D01*
X0008400Y0014600D02*
X0000764D01*
X0008400Y0014420D02*
X0000371D01*
X0006500Y0009290D02*
X0005213D01*
X0008400Y0012800D02*
X0005842D01*
X0008170Y0017300D02*
Y0012550D01*
X0008080Y0017300D02*
Y0012550D01*
X0007990Y0017300D02*
Y0012550D01*
X0007900Y0017300D02*
Y0012550D01*
X0004750Y0007908D02*
Y0006720D01*
X0006500Y0008480D02*
X-0001550D01*
X0004086Y0008210D02*
X0002432D01*
X0003585Y0007850D02*
X0002334D01*
X0003734Y0008120D02*
X0002463D01*
X0003630Y0008030D02*
X0002461D01*
X0002230Y0010629D02*
Y0008344D01*
X0002140Y0010535D02*
Y0008339D01*
X0002050Y0010472D02*
Y0008300D01*
X0001960Y0010429D02*
Y0008195D01*
X0002410Y0015244D02*
Y0008244D01*
X0002320Y0010787D02*
Y0008318D01*
X0006500Y0011000D02*
X0002363D01*
X0004836Y0008210D02*
X0004414D01*
X0004120Y0015287D02*
Y0008232D01*
X0005200Y0007824D02*
Y-0000576D01*
X0004480Y0015287D02*
Y0008134D01*
X0004390Y0015287D02*
Y0008226D01*
X0004300Y0015287D02*
Y0008261D01*
X0004210Y0015287D02*
Y0008263D01*
X0002050Y0008300D02*
X0001846D01*
X0003590Y0007940D02*
X0002426D01*
X0004762Y0008120D02*
X0004488D01*
X0004735Y0008030D02*
X0004514D01*
X0004740Y0007940D02*
X0004509D01*
X0003940Y0015583D02*
Y0008130D01*
X0003850Y0015438D02*
Y0008146D01*
X0003760Y0015361D02*
Y0008130D01*
X0003686Y0007670D02*
X-0001550D01*
X0004120Y0007767D02*
Y-0000751D01*
X0004780Y0007850D02*
X0004470D01*
X0005942Y0008210D02*
X0005164D01*
X0005795Y0008120D02*
X0005238D01*
X0005746Y0008030D02*
X0005264D01*
X0005734Y0007940D02*
X0005259D01*
X0005753Y0007850D02*
X0005220D01*
X0004884Y0007760D02*
X0004365D01*
X0005200Y0009274D02*
Y0008176D01*
X0005110Y0009207D02*
Y0008242D01*
X0005020Y0009184D02*
Y0008265D01*
X0004930Y0009193D02*
Y0008257D01*
X0004840Y0009237D02*
Y0008213D01*
X0003580Y0015292D02*
Y0009584D01*
X0003490Y0015287D02*
Y0009676D01*
X0003220Y0015387D02*
Y0009682D01*
X0003130Y0015453D02*
Y0009600D01*
X0003400Y0015299D02*
Y0009711D01*
X0003310Y0015331D02*
Y0009713D01*
X0004824Y0009650D02*
X0003526D01*
X0004757Y0009560D02*
X0003592D01*
X0004734Y0009470D02*
X0003615D01*
X0004743Y0009380D02*
X0003607D01*
X0004787Y0009290D02*
X0003563D01*
X0004908Y0009200D02*
X0003442D01*
X0003490Y0009223D02*
Y-0000619D01*
X0003220Y0009217D02*
Y0006615D01*
X0003040Y0015342D02*
Y0006563D01*
X0003130Y0009300D02*
Y0006607D01*
X0002950Y0015273D02*
Y0006442D01*
X0003400Y0009188D02*
Y0006526D01*
X0004649Y0006590D02*
X0003315D01*
X0004358Y0006500D02*
X0003420D01*
X0004237Y0006410D02*
X0003459D01*
X0004193Y0006320D02*
X0003464D01*
X0004184Y0006230D02*
X0003438D01*
X0004207Y0006140D02*
X0003364D01*
X0006500Y0003260D02*
X-0001550D01*
X0006500Y-0001420D02*
X0004518D01*
X0006500Y0007850D02*
X0006247D01*
X0007090Y0017300D02*
Y0012550D01*
X0007000Y0017300D02*
Y0012550D01*
X0006500Y0002900D02*
X-0001550D01*
X0000970Y-0000980D02*
Y-0001600D01*
X0005613Y0002540D02*
X0002249D01*
X0001881Y0002270D02*
X-0001550D01*
X0003108Y0002450D02*
X0002242D01*
X0002987Y0002360D02*
X0002200D01*
X0001973Y0007940D02*
X0001846D01*
X0002230Y0007815D02*
Y0002618D01*
X0002140Y0007820D02*
Y0002732D01*
X0002050Y0007860D02*
Y0002774D01*
X0001870Y0007970D02*
Y0002756D01*
X0001780Y0007887D02*
Y0002686D01*
X0006500Y0009380D02*
X0005257D01*
X0007810Y0017300D02*
Y0012550D01*
X0008350Y0017300D02*
Y0012550D01*
X0006500Y0008210D02*
X0006058D01*
X0006500Y0008120D02*
X0006205D01*
X0006500Y0008030D02*
X0006254D01*
X0007180Y0017300D02*
Y0012550D01*
X0006190Y0017300D02*
Y0008136D01*
X0006010Y0012992D02*
Y0008216D01*
X0005830Y0012796D02*
Y0008155D01*
X0005740Y0012784D02*
Y0008008D01*
X0005920Y0012845D02*
Y0008204D01*
X0006910Y0017300D02*
Y0012550D01*
X0002943Y0002270D02*
X0002087D01*
X0003036Y0006140D02*
X0002714D01*
X0004624Y0002000D02*
X0003376D01*
X0004557Y0002090D02*
X0003442D01*
X0004587Y0002360D02*
X0003413D01*
X0004708Y0002450D02*
X0003292D01*
X0003220Y0001934D02*
Y-0000737D01*
X0003130Y0001943D02*
Y-0000652D01*
X0003040Y0001987D02*
Y-0000605D01*
X0003400Y0002024D02*
Y-0000678D01*
X0002950Y0002108D02*
Y-0000581D01*
X0004534Y0002180D02*
X0003465D01*
X0006500Y0002720D02*
X0002155D01*
X0005742Y0002090D02*
X0005042D01*
X0005553Y0002450D02*
X0004892D01*
X0005534Y0002360D02*
X0005013D01*
X0005546Y0002270D02*
X0005057D01*
X0005595Y0002180D02*
X0005065D01*
X0005020Y0002050D02*
Y-0000576D01*
X0004930Y0001967D02*
Y-0000576D01*
X0004660Y0001973D02*
Y-0000625D01*
X0006280Y0017300D02*
Y-0001600D01*
X0005658Y0012800D02*
X0002335D01*
X0005830Y0015464D02*
Y0013304D01*
X0005740Y0015349D02*
Y0013316D01*
X0005650Y0015277D02*
Y0013297D01*
X0005560Y0015230D02*
Y0013236D01*
X0008400Y0012710D02*
X0002300D01*
X0006010Y0017300D02*
Y0013108D01*
X0008400Y0013160D02*
X0005992D01*
X0008400Y0014510D02*
X0000607D01*
X0005200Y0015208D02*
Y0009626D01*
X0005110Y0015240D02*
Y0009692D01*
X0005020Y0015293D02*
Y0009715D01*
X0004930Y0015287D02*
Y0009707D01*
X0004840Y0015287D02*
Y0009663D01*
X0004750Y0015287D02*
Y0009542D01*
X0006500Y0011900D02*
X-0001550D01*
X0006500Y0010460D02*
X0002028D01*
X0006500Y0009650D02*
X0005176D01*
X0006500Y0009560D02*
X0005242D01*
X0006500Y0001730D02*
X0002134D01*
X0002066Y0007850D02*
X-0001550D01*
X0008260Y0017300D02*
Y0012550D01*
X-0000740Y0014584D02*
Y0013358D01*
X0001938Y0008030D02*
X0001900D01*
X0003670Y0007684D02*
Y-0000576D01*
X0005813Y0007760D02*
X0005115D01*
X0005110Y0007757D02*
Y0006664D01*
X0005020Y0007734D02*
Y0006738D01*
X0006500Y0006860D02*
X-0001550D01*
X0006500Y0007670D02*
X0004014D01*
X0002934Y0002180D02*
X-0001550D01*
X0004750Y0001938D02*
Y-0000688D01*
X0006500Y0006410D02*
X0005150D01*
X0006820Y0017300D02*
Y0012550D01*
X0007720Y0017300D02*
Y0012550D01*
X0007630Y0017300D02*
Y0012550D01*
X0007540Y0017300D02*
Y0012550D01*
X0001960Y0007964D02*
Y0002781D01*
X0002770Y0015200D02*
Y0006500D01*
X0002680Y0015189D02*
Y0006582D01*
X0002590Y0015192D02*
Y0006613D01*
X0002500Y0015210D02*
Y0006611D01*
X0002410Y0007916D02*
Y0006576D01*
X0006500Y0006770D02*
X-0001550D01*
X0003084Y0006590D02*
X0002665D01*
X0002980Y0006500D02*
X0002770D01*
X0002940Y0006410D02*
X0002809D01*
X0002935Y0006320D02*
X0002814D01*
X0002962Y0006230D02*
X0002788D01*
X0004570Y0006012D02*
Y0002334D01*
X0006500Y0001910D02*
X-0001550D01*
X0006500Y0002630D02*
X0002225D01*
X0006500Y0001640D02*
X0002226D01*
X0006500Y0001550D02*
X0002261D01*
X0006500Y0001460D02*
X0002263D01*
X0001768Y0002360D02*
X-0001550D01*
X0002230Y0002413D02*
Y0001634D01*
X0002140Y0002299D02*
Y0001726D01*
X0002050Y0002257D02*
Y0001761D01*
X0001960Y0002250D02*
Y0001763D01*
X0001870Y0002275D02*
Y0001732D01*
X0006500Y0002180D02*
X0006005D01*
X0006500Y0002270D02*
X0006054D01*
X0006500Y0000470D02*
X0001296D01*
X0007450Y0017300D02*
Y0012550D01*
X0004750Y0009358D02*
Y0008092D01*
X0008400Y0013070D02*
X0006015D01*
X0006010Y0007684D02*
Y0002514D01*
X0005830Y0007745D02*
Y0002614D01*
X0005650Y0012803D02*
Y0002570D01*
X0001780Y0002345D02*
Y0001650D01*
X0004134Y0007760D02*
X0004088D01*
X0003310Y0006107D02*
Y0002442D01*
X0004570Y0015287D02*
Y0006488D01*
X0004480Y0007866D02*
Y0006514D01*
X0004390Y0007773D02*
Y0006509D01*
X0004300Y0007738D02*
Y0006470D01*
X0004660Y0015287D02*
Y0006615D01*
X0004634Y0006500D02*
X0004542D01*
X0006500Y0006680D02*
X0005096D01*
X0006500Y0006500D02*
X0005166D01*
X0006500Y0006320D02*
X0005096D01*
X0001870Y0010402D02*
Y0008270D01*
X0001780Y0010388D02*
Y0008352D01*
X0001690Y0010388D02*
Y0008383D01*
X0001600Y0010401D02*
Y0008381D01*
X0001510Y0010428D02*
Y0008346D01*
X0001420Y0010471D02*
Y0008254D01*
X0001454Y0007940D02*
X-0001550D01*
X0006500Y0009470D02*
X0005265D01*
X0006500Y0011990D02*
X-0001550D01*
X0002320Y0007842D02*
Y0006484D01*
X0008400Y0016490D02*
X0004320D01*
X-0000138Y0017120D02*
X-0001550D01*
X0005920Y0017300D02*
Y0013255D01*
X0008400Y0016220D02*
X0005654D01*
X0005830Y0017300D02*
Y0016035D01*
X0005740Y0017300D02*
Y0016150D01*
X0005650Y0017300D02*
Y0016222D01*
X0005560Y0017300D02*
Y0016269D01*
X0005470Y0017300D02*
Y0016298D01*
X0005380Y0017300D02*
Y0016310D01*
X0005290Y0017300D02*
Y0016309D01*
X0005200Y0017300D02*
Y0016292D01*
X0005110Y0017300D02*
Y0016259D01*
X0004030Y0017300D02*
Y0016660D01*
X0008400Y0016400D02*
X0004364D01*
X0008400Y0016310D02*
X0005389D01*
X0008400Y0015500D02*
X0005849D01*
X0004955Y0016213D02*
Y0016153D01*
X0008400Y0015860D02*
X0005897D01*
X0004930Y0017300D02*
Y0016213D01*
X0004840Y0017300D02*
Y0016213D01*
X0004750Y0017300D02*
Y0016213D01*
X0004660Y0017300D02*
Y0016213D01*
X0004570Y0017300D02*
Y0016213D01*
X0004480Y0017300D02*
Y0016213D01*
X0003620Y0016220D02*
X0002961D01*
X0004390Y0017300D02*
Y0016213D01*
X0008400Y0015770D02*
X0005907D01*
X0005134Y0015230D02*
X0002865D01*
X0005020Y0017300D02*
Y0016207D01*
X0008400Y0015230D02*
X0005558D01*
X0008400Y0016130D02*
X0005760D01*
X0008400Y0016040D02*
X0005827D01*
X0008400Y0015950D02*
X0005871D01*
X0004300Y0017300D02*
Y0016517D01*
X0004210Y0017300D02*
Y0016599D01*
X0004120Y0017300D02*
Y0016642D01*
X0003940Y0017300D02*
Y0016657D01*
X0008400Y0016580D02*
X0004237D01*
X0008400Y0015590D02*
X0005885D01*
X0008400Y0015320D02*
X0005708D01*
X0003850Y0017300D02*
Y0016631D01*
X0003670Y0017300D02*
Y0016474D01*
X0003580Y0017300D02*
Y0016207D01*
X0008400Y0015050D02*
X0001189D01*
X0003220Y0017300D02*
Y0016113D01*
X0003400Y0017300D02*
Y0016200D01*
X0008400Y0015680D02*
X0005903D01*
X0004029Y0015500D02*
X0003898D01*
X0004029Y0015410D02*
X0003822D01*
X0008400Y0016670D02*
X0001025D01*
X0002410Y0017300D02*
Y0016256D01*
X0003130Y0017300D02*
Y0016047D01*
X0003040Y0017300D02*
Y0016157D01*
X0002950Y0017300D02*
Y0016227D01*
X0002860Y0017300D02*
Y0016272D01*
X0002770Y0017300D02*
Y0016299D01*
X0002680Y0017300D02*
Y0016311D01*
X0002590Y0017300D02*
Y0016308D01*
X0005110Y0006336D02*
Y-0000576D01*
X-0000936Y0016760D02*
X-0001550D01*
X0003400Y0006174D02*
Y0002376D01*
X0003242Y0016130D02*
X0003067D01*
X0003146Y0016040D02*
X0003134D01*
X0005039Y0016220D02*
X0004380D01*
X0005303Y0016310D02*
X0004383D01*
X0004029Y0015860D02*
X0003958D01*
X0004029Y0015770D02*
X0003970D01*
X0004029Y0015680D02*
X0003966D01*
X0004029Y0015590D02*
X0003942D01*
X0003193Y0015410D02*
X0003100D01*
X0003617Y0016310D02*
X0002696D01*
X0003310Y0017300D02*
Y0016169D01*
X0002320Y0017300D02*
Y0016202D01*
X0008400Y0013430D02*
X0002178D01*
G01X0054158Y0002414D02*
G03X0054366Y0002674I0000058J0000260D01*
G01X0052484Y0007050D02*
G03X0052486Y0007014I0000266J0000000D01*
G01X0051531Y0007331D02*
G03X0051650Y0007282I0000119J0000119D01*
G01X0050031Y0000506D02*
G03X0049934Y0000300I0000169J0000206D01*
G01X0049560Y0003766D02*
G03X0049419Y0003726I0000000J0000266D01*
G01X0047321Y-0001052D02*
G03X0047100Y-0000934I0000221J0000148D01*
G01X0047050Y0006034D02*
G03X0047076Y0006035I0000000J0000266D01*
G01X0047500Y-0000984D02*
G03X0047321Y-0001052I0000000J0000266D01*
G01X0030000Y-0000772D02*
G03X0030500Y-0000401I0000000J0000522D01*
Y0000599D02*
G03X0030849Y0000250I0000500J0000151D01*
G01X0029522Y-0000461D02*
G03X0030000Y-0000772I0000478J0000211D01*
G01X0024984Y0001167D02*
G03X0024492Y0001514I0000492J0000175D01*
Y-0000515D02*
G03X0024984Y-0000167I0000000J0000523D01*
G01X0025476Y0001514D02*
G03X0024984Y0001167I0000000J0000522D01*
Y-0000167D02*
G03X0025476Y-0000514I0000492J0000175D01*
G01X0024000Y0001167D02*
G03X0023508Y0001514I0000492J0000175D01*
G01X0024492D02*
G03X0024000Y0001167I0000000J0000522D01*
G01X0023508Y0001514D02*
G03X0023016Y0001167I0000000J0000522D01*
G01X0019382Y0010582D02*
G03X0019650Y0010471I0000268J0000268D01*
G01X0011779Y0015000D02*
G03X0011422Y0015500I0000529J0000000D01*
G01X0011779Y0014000D02*
G03X0011422Y0014500I0000529J0000000D01*
G01X0007821Y0002248D02*
G03X0007600Y0002366I0000221J0000148D01*
G01X0022341Y0015250D02*
G03X0021994Y0014758I0000175J0000492D01*
G01X0011078Y0014500D02*
G03X0010721Y0014000I0000172J0000500D01*
Y0015000D02*
G03X0011078Y0014500I0000529J0000000D01*
G01X0030637Y0012972D02*
G03X0030400Y0013117I0000237J0000122D01*
G01X0024631Y0011504D02*
G03X0024550Y0011517I0000081J0000254D01*
G01X0022254Y0010369D02*
G03X0022379Y0010650I0000254J0000281D01*
G01X0052400Y0007184D02*
G03X0052562Y0007238I0000000J0000266D01*
G01X0052400Y0007716D02*
G03X0052194Y0007619I0000000J0000266D01*
G01X0056331Y0006081D02*
G03X0056450Y0006032I0000119J0000119D01*
G01X0007000Y0003316D02*
G03X0006750Y0003142I0000000J0000266D01*
G01X0050794Y0003081D02*
G03X0051000Y0002984I0000206J0000169D01*
G01X0008000Y0002316D02*
G03X0007821Y0002248I0000000J0000266D01*
G01X0007778Y0001902D02*
G03X0008000Y0001783I0000222J0000148D01*
G01X0007600Y0001834D02*
G03X0007778Y0001902I0000000J0000266D01*
G01X0008000Y0001784D02*
G03X0008036Y0001786I0000000J0000266D01*
G01X0024984Y0000182D02*
G03X0024667Y0000500I0000492J0000174D01*
G01X0023046Y-0000236D02*
G03X0023508Y-0000514I0000462J0000244D01*
G01X0046784Y0006300D02*
G03X0047050Y0006034I0000266J0000000D01*
G01X0047316Y0006300D02*
G03X0047050Y0006566I0000266J0000000D01*
G03X0046784Y0006300I0000000J0000266D01*
G01X0047331Y0003600D02*
G03X0047381Y0003481I0000169J0000000D01*
G01X0047669Y0005850D02*
G03X0047619Y0005969I0000169J0000000D01*
G01X0047669Y0005850D02*
G03X0047619Y0005969I0000169J0000000D01*
G01X0047869Y0003400D02*
G03X0047819Y0003519I0000169J0000000D01*
G01X0047869Y0003400D02*
G03X0047819Y0003519I0000169J0000000D01*
G01X0047434Y-0000700D02*
G03X0047700Y-0000966I0000266J0000000D01*
G03X0047966Y-0000700I0000000J0000266D01*
G03X0047869Y-0000494I0000266J0000000D01*
G01X0061800Y0003686D02*
G03X0061669Y0003652I0000000J0000266D01*
G01X0061234Y0004050D02*
G03X0061331Y0003844I0000266J0000000D01*
G01X0061766Y0004050D02*
G03X0061500Y0004316I0000266J0000000D01*
G03X0061234Y0004050I0000000J0000266D01*
G01X0061184Y0000300D02*
G03X0061450Y0000034I0000266J0000000D01*
G03X0061534Y0000047I0000000J0000266D01*
G01X0063145Y0002276D02*
G03X0063134Y0002200I0000255J0000076D01*
G01X0062734Y0002500D02*
G03X0063000Y0002234I0000266J0000000D01*
G01X0063266Y0002500D02*
G03X0063169Y0002706I0000266J0000000D01*
G01X0062734Y0005000D02*
G03X0062831Y0004794I0000266J0000000D01*
G01X0063266Y0005000D02*
G03X0063000Y0005266I0000266J0000000D01*
G03X0062734Y0005000I0000000J0000266D01*
G01X0053069Y0005900D02*
G03X0053019Y0006019I0000169J0000000D01*
G01X0052198Y0006837D02*
G03X0052100Y0006868I0000098J0000137D01*
G01X0052634Y0002250D02*
G03X0052900Y0001984I0000266J0000000D01*
G03X0053106Y0002082I0000000J0000266D01*
G01X0033746Y0006831D02*
G03X0033733Y0006750I0000254J0000081D01*
G01X0051184Y0006700D02*
G03X0051450Y0006434I0000266J0000000D01*
Y0006966D02*
G03X0051184Y0006700I0000000J0000266D01*
G01X0024784Y0006970D02*
G03X0025050Y0006704I0000266J0000000D01*
G03X0025316Y0006970I0000000J0000266D01*
G03X0025050Y0007236I0000266J0000000D01*
G03X0024784Y0006970I0000000J0000266D01*
G01X0065234Y0000600D02*
G03X0065500Y0000334I0000266J0000000D01*
G01X0065800Y0001416D02*
G03X0065669Y0001382I0000000J0000266D01*
G01X0065500Y0000334D02*
G03X0065596Y0000352I0000000J0000266D01*
G01X0065234Y0003750D02*
G03X0065331Y0003544I0000266J0000000D01*
G01X0065766Y0003750D02*
G03X0065500Y0004016I0000266J0000000D01*
G03X0065234Y0003750I0000000J0000266D01*
G01X0053984Y0001500D02*
G03X0054250Y0001234I0000266J0000000D01*
G03X0054516Y0001500I0000000J0000266D01*
G03X0054250Y0001766I0000266J0000000D01*
G03X0053984Y0001500I0000000J0000266D01*
G01X0008266Y0002050D02*
G03X0008000Y0002316I0000266J0000000D01*
G01X0007734Y0006450D02*
G03X0008000Y0006184I0000266J0000000D01*
G03X0008266Y0006450I0000000J0000266D01*
G03X0008000Y0006716I0000266J0000000D01*
G03X0007734Y0006450I0000000J0000266D01*
G01X0064069Y0002631D02*
G03X0064118Y0002750I0000119J0000119D01*
G01X0063684Y0004700D02*
G03X0063781Y0004494I0000266J0000000D01*
G01X0064216Y0004700D02*
G03X0063950Y0004966I0000266J0000000D01*
G03X0063684Y0004700I0000000J0000266D01*
G01X0063000Y0002234D02*
G03X0063145Y0002276I0000000J0000266D01*
G01X0063255Y0002423D02*
G03X0063266Y0002500I0000255J0000077D01*
G01X0063134Y0002200D02*
G03X0063400Y0001934I0000266J0000000D01*
G03X0063666Y0002200I0000000J0000266D01*
G01X0052731Y0002456D02*
G03X0052634Y0002250I0000169J0000206D01*
G01X0053364Y0001884D02*
G03X0053630Y0002150I0000000J0000266D01*
G03X0053364Y0002416I0000266J0000000D01*
G01X0007334Y0002100D02*
G03X0007600Y0001834I0000266J0000000D01*
Y0002366D02*
G03X0007334Y0002100I0000000J0000266D01*
G01X0007434Y0005700D02*
G03X0007700Y0005434I0000266J0000000D01*
G03X0007966Y0005700I0000000J0000266D01*
G03X0007700Y0005966I0000266J0000000D01*
G03X0007434Y0005700I0000000J0000266D01*
G01X0049800Y0007576D02*
G03X0049600Y0007666I0000200J0000176D01*
G01X0050000Y0007134D02*
G03X0050266Y0007400I0000000J0000266D01*
G01X0049800Y0007224D02*
G03X0050000Y0007134I0000200J0000176D01*
G01X0051419Y0007919D02*
G03X0051300Y0007968I0000119J0000119D01*
G01X0050400Y0007969D02*
G03X0050281Y0007919I0000000J0000169D01*
G01X0050266Y0007400D02*
G03X0050265Y0007426I0000266J0000000D01*
G01X0052562Y0007238D02*
G03X0052484Y0007050I0000188J0000188D01*
G01X0051531Y0007331D02*
G03X0051650Y0007282I0000119J0000119D01*
G01X0052635Y0007290D02*
G03X0052588Y0007261I0000115J0000240D01*
G01X0052621Y0007302D02*
G03X0052635Y0007290I0000179J0000198D01*
G01X0052194Y0007281D02*
G03X0052400Y0007184I0000206J0000169D01*
G01X0053734Y0002200D02*
G03X0054000Y0001934I0000266J0000000D01*
G03X0054266Y0002200I0000000J0000266D01*
G01X0054279Y0002871D02*
G03X0054366Y0003068I0000179J0000197D01*
G01X0054266Y0002200D02*
G03X0054158Y0002414I0000266J0000000D01*
G01X0053834Y0002674D02*
G03X0053941Y0002460I0000266J0000000D01*
G01X0054366Y0002674D02*
G03X0054279Y0002871I0000266J0000000D01*
G01X0058734Y0007150D02*
G03X0059000Y0006884I0000266J0000000D01*
G03X0059266Y0007150I0000000J0000266D01*
G03X0059000Y0007416I0000266J0000000D01*
G01X0057550Y0007619D02*
G03X0057431Y0007569I0000000J0000169D01*
G01X0057916Y0007150D02*
G03X0057882Y0007281I0000266J0000000D01*
G01X0058819Y0007569D02*
G03X0058700Y0007618I0000119J0000119D01*
G01X0059000Y0007416D02*
G03X0058973Y0007415I0000000J0000266D01*
G01X0052578Y0007648D02*
G03X0052400Y0007716I0000178J0000198D01*
G01X0052950Y0007819D02*
G03X0052831Y0007769I0000000J0000169D01*
G01X0054319D02*
G03X0054200Y0007818I0000119J0000119D01*
G01X0054469Y0002000D02*
G03X0054735Y0001734I0000266J0000000D01*
G03X0055001Y0002000I0000000J0000266D01*
G03X0054735Y0002266I0000266J0000000D01*
G03X0054469Y0002000I0000000J0000266D01*
G01X0008334Y0002350D02*
G03X0008600Y0002084I0000266J0000000D01*
G03X0008866Y0002350I0000000J0000266D01*
G03X0008600Y0002616I0000266J0000000D01*
G03X0008334Y0002350I0000000J0000266D01*
Y0006150D02*
G03X0008600Y0005884I0000266J0000000D01*
G03X0008866Y0006150I0000000J0000266D01*
G03X0008600Y0006416I0000266J0000000D01*
G03X0008334Y0006150I0000000J0000266D01*
G01X0062331Y-0000044D02*
G03X0062234Y-0000250I0000169J0000206D01*
G01X0062331Y0003282D02*
G03X0062100Y0003416I0000231J0000132D01*
G01X0062234Y0004000D02*
G03X0062331Y0003794I0000266J0000000D01*
G01X0062766Y0004000D02*
G03X0062500Y0004266I0000266J0000000D01*
G03X0062234Y0004000I0000000J0000266D01*
Y-0000250D02*
G03X0062500Y-0000516I0000266J0000000D01*
G03X0062766Y-0000250I0000000J0000266D01*
G01X0066004Y0000978D02*
G03X0066067Y0001150I0000204J0000172D01*
G01X0062766Y-0000250D02*
G03X0062669Y-0000044I0000266J0000000D01*
G01X0046634Y-0000650D02*
G03X0046900Y-0000916I0000266J0000000D01*
G03X0047166Y-0000650I0000000J0000266D01*
G03X0046900Y-0000384I0000266J0000000D01*
G03X0046634Y-0000650I0000000J0000266D01*
G01X0050550Y0003419D02*
G03X0050431Y0003369I0000000J0000169D01*
G01X0050400Y0007969D02*
G03X0050281Y0007919I0000000J0000169D01*
G01X0051000Y0002984D02*
G03X0051266Y0003250I0000000J0000266D01*
G03X0051000Y0003516I0000266J0000000D01*
G01X0052588Y0007261D02*
G03X0052621Y0007302I0000188J0000189D01*
G01X0050081Y0003019D02*
G03X0050032Y0002900I0000119J0000119D01*
G01X0051000Y0003516D02*
G03X0050794Y0003419I0000000J0000266D01*
G01X0050081Y0003019D02*
G03X0050032Y0002900I0000119J0000119D01*
G01X0049934Y0000300D02*
G03X0050200Y0000034I0000266J0000000D01*
G03X0050466Y0000300I0000000J0000266D01*
G03X0050369Y0000506I0000266J0000000D01*
G01X0053492Y0006581D02*
G03X0053758Y0006333I0000266J0000019D01*
G01X0052198Y0006837D02*
G03X0052100Y0006868I0000098J0000137D01*
G01X0051450Y0006434D02*
G03X0051656Y0006531I0000000J0000266D01*
Y0006869D02*
G03X0051450Y0006966I0000206J0000169D01*
G01X0053921Y0002871D02*
G03X0053834Y0002674I0000179J0000197D01*
G01X0050026Y0007665D02*
G03X0050000Y0007666I0000026J0000265D01*
G01X0054431Y0006381D02*
G03X0054550Y0006332I0000119J0000119D01*
G01X0056331Y0006081D02*
G03X0056450Y0006032I0000119J0000119D01*
G01X0057000Y0005934D02*
G03X0057266Y0006200I0000000J0000266D01*
G01X0056794Y0006031D02*
G03X0057000Y0005934I0000206J0000169D01*
G01X0010721Y0014000D02*
G03X0011250Y0013471I0000529J0000000D01*
G03X0011779Y0014000I0000000J0000529D01*
G01X0011422Y0014500D02*
G03X0011779Y0015000I0000172J0000500D01*
G01X0011422Y0015500D02*
G03X0011779Y0016000I0000172J0000500D01*
G03X0011250Y0016529I0000529J0000000D01*
G03X0010721Y0016000I0000000J0000529D01*
G01X0029000Y0001272D02*
G03X0028478Y0000750I0000000J0000522D01*
G01X0031522D02*
G03X0031000Y0001272I0000522J0000000D01*
G01X0030151Y0000250D02*
G03X0030500Y0000599I0000151J0000500D01*
G01X0031000Y-0000772D02*
G03X0031522Y-0000250I0000000J0000522D01*
G01X0028478Y0000750D02*
G03X0028788Y0000272I0000522J0000000D01*
G01X0031151Y0000250D02*
G03X0031522Y0000750I0000151J0000500D01*
G01X0030500Y-0000401D02*
G03X0031000Y-0000772I0000500J0000151D01*
G01X0023508Y-0000515D02*
G03X0023616Y-0000503I0000000J0000523D01*
G01X0025651Y0000500D02*
G03X0025998Y0000992I0000175J0000492D01*
G01X0024667Y0000500D02*
G03X0024984Y0000817I0000175J0000492D01*
G01X0025476Y-0000515D02*
G03X0025999Y0000008I0000000J0000523D01*
G03X0025651Y0000500I0000523J0000000D01*
G01X0023616Y-0000520D02*
G03X0024000Y-0000904I0000384J0000000D01*
G03X0024384Y-0000520I0000000J0000384D01*
G03X0024384Y-0000503I0000384J0000000D01*
G01X0023616D02*
G03X0023616Y-0000520I0000384J0000017D01*
G01X0030000Y0001272D02*
G03X0029500Y0000901I0000000J0000522D01*
G01X0022524Y0001514D02*
G03X0022002Y0000992I0000000J0000522D01*
G01X0022001D02*
G03X0022280Y0000530I0000523J0000000D01*
G01X0023015Y0001167D02*
G03X0022524Y0001513I0000491J0000175D01*
G01X0025999Y0000992D02*
G03X0025476Y0001515I0000523J0000000D01*
G01X0021993Y0015742D02*
G03X0022341Y0015250I0000523J0000000D01*
G01X0022516Y0016264D02*
G03X0021994Y0015742I0000000J0000522D01*
G01X0023008Y0015917D02*
G03X0022516Y0016264I0000492J0000175D01*
G01X0024376Y0016270D02*
G03X0023992Y0016654I0000384J0000000D01*
G03X0023608Y0016270I0000000J0000384D01*
G01X0024484Y0014235D02*
G03X0025007Y0014758I0000000J0000523D01*
G01X0023992Y0014583D02*
G03X0024484Y0014236I0000492J0000175D01*
G01X0023500Y0014235D02*
G03X0023992Y0014583I0000000J0000523D01*
G01X0023008D02*
G03X0023500Y0014236I0000492J0000175D01*
G01X0021993Y0014758D02*
G03X0022516Y0014235I0000523J0000000D01*
G03X0023008Y0014583I0000000J0000523D01*
G01X0071150Y0000416D02*
G03X0071123Y0000415I0000000J0000266D01*
G01X0062831Y0002706D02*
G03X0062734Y0002500I0000169J0000206D01*
G01X0050000Y0007666D02*
G03X0049800Y0007576I0000000J0000266D01*
G01X0054456Y-0001331D02*
G03X0054250Y-0001234I0000206J0000169D01*
G01X0055106Y-0000255D02*
G03X0055000Y-0000233I0000106J0000245D01*
G01X0058819Y0007569D02*
G03X0058700Y0007618I0000119J0000119D01*
G01X0053941Y0002460D02*
G03X0053733Y0002200I0000059J0000260D01*
G01X0034646Y-0001379D02*
G03X0036025Y0000000I0000000J0001379D01*
G01X0033267D02*
G03X0034646Y-0001379I0001379J0000000D01*
Y0001379D02*
G03X0033267Y0000000I0000000J0001379D01*
G01X0036024D02*
G03X0034646Y0001378I0001378J0000000D01*
G01X0074803Y0005314D02*
G03X0076182Y0006693I0000000J0001379D01*
G01X0073424D02*
G03X0074803Y0005314I0001379J0000000D01*
Y0008071D02*
G03X0073425Y0006693I0000000J0001378D01*
G01X0076182D02*
G03X0074803Y0008072I0001379J0000000D01*
G01X0029921Y0014369D02*
G03X0031300Y0015748I0000000J0001379D01*
G01X0028542D02*
G03X0029921Y0014369I0001379J0000000D01*
Y0017127D02*
G03X0028542Y0015748I0000000J0001379D01*
G01X0031300D02*
G03X0029921Y0017127I0001379J0000000D01*
G01X0046234Y0001750D02*
G03X0046500Y0001484I0000266J0000000D01*
G03X0046766Y0001750I0000000J0000266D01*
G03X0046500Y0002016I0000266J0000000D01*
G03X0046234Y0001750I0000000J0000266D01*
G01X0046934Y0001800D02*
G03X0047200Y0001534I0000266J0000000D01*
G03X0047466Y0001800I0000000J0000266D01*
G03X0047200Y0002066I0000266J0000000D01*
G03X0046934Y0001800I0000000J0000266D01*
G03X0047200Y0001534I0000266J0000000D01*
G03X0047466Y0001800I0000000J0000266D01*
G03X0047200Y0002066I0000266J0000000D01*
G03X0046934Y0001800I0000000J0000266D01*
G01X0055734Y0001750D02*
G03X0055831Y0001544I0000266J0000000D01*
G01X0056266Y0001750D02*
G03X0056000Y0002016I0000266J0000000D01*
G03X0055734Y0001750I0000000J0000266D01*
G01X0053834Y0003068D02*
G03X0053921Y0002871I0000266J0000000D01*
G01X0054366Y0003068D02*
G03X0054100Y0003334I0000266J0000000D01*
G03X0053834Y0003068I0000000J0000266D01*
G01X0053758Y0006334D02*
G03X0054024Y0006600I0000000J0000266D01*
G03X0053990Y0006731I0000266J0000000D01*
G01X0050449Y0006300D02*
G03X0050715Y0006034I0000266J0000000D01*
G03X0050981Y0006300I0000000J0000266D01*
G03X0050715Y0006566I0000266J0000000D01*
G03X0050449Y0006300I0000000J0000266D01*
G01X0048434Y0006280D02*
G03X0048700Y0006014I0000266J0000000D01*
G03X0048791Y0006030I0000000J0000266D01*
G01X0048700Y0006546D02*
G03X0048434Y0006280I0000000J0000266D01*
G01X0056119Y-0000319D02*
G03X0056168Y-0000200I0000119J0000119D01*
G01X0054250Y-0001234D02*
G03X0053984Y-0001500I0000000J0000266D01*
G01X0056169Y0001544D02*
G03X0056266Y0001750I0000169J0000206D01*
G01X0056119Y-0000319D02*
G03X0056168Y-0000200I0000119J0000119D01*
G01X0056169Y0001544D02*
G03X0056266Y0001750I0000169J0000206D01*
G01X0055734D02*
G03X0055831Y0001544I0000266J0000000D01*
G01X0056266Y0001750D02*
G03X0056000Y0002016I0000266J0000000D01*
G03X0055734Y0001750I0000000J0000266D01*
G01X0073484Y0000531D02*
G03X0073750Y0000265I0000266J0000000D01*
G03X0074016Y0000531I0000000J0000266D01*
G03X0073750Y0000797I0000266J0000000D01*
Y0000798D02*
G03X0073483Y0000531I0000000J0000267D01*
G01X0050449Y0006300D02*
G03X0050715Y0006034I0000266J0000000D01*
G03X0050981Y0006300I0000000J0000266D01*
G03X0050715Y0006566I0000266J0000000D01*
G03X0050449Y0006300I0000000J0000266D01*
G01X0033734Y0006750D02*
G03X0034000Y0006484I0000266J0000000D01*
G03X0034266Y0006750I0000000J0000266D01*
G03X0034254Y0006831I0000266J0000000D01*
G01X0033734Y0008350D02*
G03X0033746Y0008269I0000266J0000000D01*
G01X0034266Y0008350D02*
G03X0034000Y0008616I0000266J0000000D01*
G03X0033734Y0008350I0000000J0000266D01*
G01X0025700Y0004284D02*
G03X0025966Y0004550I0000000J0000266D01*
G03X0025700Y0004816I0000266J0000000D01*
G01X0007000Y0002784D02*
G03X0007266Y0003050I0000000J0000266D01*
G03X0007000Y0003316I0000266J0000000D01*
G01X0008584Y0011150D02*
G03X0008850Y0010884I0000266J0000000D01*
G03X0009116Y0011150I0000000J0000266D01*
G03X0008850Y0011416I0000266J0000000D01*
G03X0008584Y0011150I0000000J0000266D01*
G01X0022540Y0004350D02*
G03X0022720Y0004275I0000180J0000180D01*
Y0004276D02*
G03X0022781Y0004284I0000000J0000254D01*
G01X0022881Y0004804D02*
G03X0022800Y0004817I0000081J0000254D01*
G01X0025619Y0004296D02*
G03X0025700Y0004283I0000081J0000254D01*
G01X0022540Y0004350D02*
G03X0022720Y0004275I0000180J0000180D01*
Y0004276D02*
G03X0022781Y0004284I0000000J0000254D01*
G01X0022800Y0004816D02*
G03X0022792Y0004816I0000000J0000266D01*
G01X0021746Y0005250D02*
G03X0021820Y0005070I0000254J0000000D01*
G01X0021746Y0005250D02*
G03X0021820Y0005070I0000254J0000000D01*
G01X0028719Y0010996D02*
G03X0028800Y0010983I0000081J0000254D01*
G01X0031004Y0012500D02*
G03X0030929Y0012679I0000254J0000000D01*
G01X0030134Y0012850D02*
G03X0030278Y0012613I0000266J0000000D01*
G01X0030400Y0013116D02*
G03X0030134Y0012850I0000000J0000266D01*
G01X0024784Y0006280D02*
G03X0025050Y0006014I0000266J0000000D01*
G03X0025316Y0006280I0000000J0000266D01*
G03X0025050Y0006546I0000266J0000000D01*
G03X0024784Y0006280I0000000J0000266D01*
G01X0028800Y0011516D02*
G03X0028719Y0011504I0000000J0000266D01*
G01X0030750Y0010984D02*
G03X0031016Y0011250I0000000J0000266D01*
G01X0028800Y0010984D02*
G03X0028881Y0010996I0000000J0000266D01*
G01X0024284Y0011250D02*
G03X0024550Y0010984I0000266J0000000D01*
G03X0024631Y0010996I0000000J0000266D01*
G01X0024550Y0011516D02*
G03X0024284Y0011250I0000000J0000266D01*
G01X0040734Y0002750D02*
G03X0041000Y0002484I0000266J0000000D01*
G03X0041266Y0002750I0000000J0000266D01*
G03X0041000Y0003016I0000266J0000000D01*
G03X0040734Y0002750I0000000J0000266D01*
G01X0072384Y0000150D02*
G03X0072650Y-0000116I0000266J0000000D01*
G03X0072916Y0000150I0000000J0000266D01*
G03X0072650Y0000416I0000266J0000000D01*
G03X0072384Y0000150I0000000J0000266D01*
G01X0066781Y-0000100D02*
G03X0066788Y-0000149I0000169J0000000D01*
G01X0066684Y0001850D02*
G03X0066781Y0001644I0000266J0000000D01*
G01X0067216Y0001850D02*
G03X0066950Y0002116I0000266J0000000D01*
G03X0066684Y0001850I0000000J0000266D01*
G01X0066788Y-0000149D02*
G03X0066783Y-0000200I0000262J0000051D01*
G01X0066784D02*
G03X0067050Y-0000466I0000266J0000000D01*
G03X0067316Y-0000200I0000000J0000266D01*
G01X0028984Y0010000D02*
G03X0029250Y0009734I0000266J0000000D01*
G03X0029516Y0010000I0000000J0000266D01*
G03X0029250Y0010266I0000266J0000000D01*
G03X0028984Y0010000I0000000J0000266D01*
G01X0024784Y0006970D02*
G03X0025050Y0006704I0000266J0000000D01*
G03X0025316Y0006970I0000000J0000266D01*
G03X0025050Y0007236I0000266J0000000D01*
G03X0024784Y0006970I0000000J0000266D01*
G01X0046834Y-0001200D02*
G03X0047100Y-0001466I0000266J0000000D01*
G03X0047278Y-0001398I0000000J0000266D01*
G01X0047100Y-0000934D02*
G03X0046834Y-0001200I0000000J0000266D01*
G01X0047500Y-0001516D02*
G03X0047766Y-0001250I0000000J0000266D01*
G03X0047500Y-0000984I0000266J0000000D01*
G01X0047278Y-0001398D02*
G03X0047500Y-0001517I0000222J0000148D01*
G01X0056734Y-0000150D02*
G03X0057000Y-0000416I0000266J0000000D01*
G03X0057266Y-0000150I0000000J0000266D01*
G03X0057000Y0000116I0000266J0000000D01*
G03X0056734Y-0000150I0000000J0000266D01*
G01X0038484Y-0000200D02*
G03X0038750Y-0000466I0000266J0000000D01*
G03X0039016Y-0000200I0000000J0000266D01*
G03X0038750Y0000066I0000266J0000000D01*
G03X0038484Y-0000200I0000000J0000266D01*
G01X0046234Y0003250D02*
G03X0046500Y0002984I0000266J0000000D01*
G03X0046766Y0003250I0000000J0000266D01*
G03X0046500Y0003516I0000266J0000000D01*
G03X0046234Y0003250I0000000J0000266D01*
G01X0045234Y0003500D02*
G03X0045500Y0003234I0000266J0000000D01*
G03X0045766Y0003500I0000000J0000266D01*
G03X0045500Y0003766I0000266J0000000D01*
G03X0045234Y0003500I0000000J0000266D01*
G01X0070096Y0000950D02*
G03X0070156Y0000806I0000204J0000000D01*
G01X0067119Y0001644D02*
G03X0067216Y0001850I0000169J0000206D01*
G01X0070034Y0001800D02*
G03X0070096Y0001628I0000266J0000000D01*
G01X0070566Y0001800D02*
G03X0070300Y0002066I0000266J0000000D01*
G03X0070034Y0001800I0000000J0000266D01*
G01X0070504Y0001628D02*
G03X0070567Y0001800I0000204J0000172D01*
G01X0071150Y-0000116D02*
G03X0071416Y0000150I0000000J0000266D01*
G03X0071150Y0000416I0000266J0000000D01*
G01X0070898Y0000064D02*
G03X0071150Y-0000116I0000252J0000086D01*
G01X0049055Y0002731D02*
G03X0048984Y0002550I0000195J0000181D01*
G01X0048694Y0002980D02*
G03X0048960Y0002714I0000266J0000000D01*
Y0007506D02*
G03X0048694Y0007240I0000000J0000266D01*
G01X0045234Y0003500D02*
G03X0045500Y0003234I0000266J0000000D01*
G03X0045766Y0003500I0000000J0000266D01*
G03X0045500Y0003766I0000266J0000000D01*
G03X0045234Y0003500I0000000J0000266D01*
G01X0040734Y0002750D02*
G03X0041000Y0002484I0000266J0000000D01*
G03X0041266Y0002750I0000000J0000266D01*
G03X0041000Y0003016I0000266J0000000D01*
G03X0040734Y0002750I0000000J0000266D01*
G01X0062100Y0001534D02*
G03X0062331Y0001668I0000000J0000266D01*
G01X0061969Y0001568D02*
G03X0062100Y0001534I0000131J0000232D01*
G01X0065534Y-0000200D02*
G03X0065800Y-0000466I0000266J0000000D01*
G03X0066066Y-0000200I0000000J0000266D01*
G03X0066004Y-0000028I0000266J0000000D01*
G01X0066066Y0001150D02*
G03X0065800Y0001416I0000266J0000000D01*
G01X0050584Y0003856D02*
G03X0050850Y0003590I0000266J0000000D01*
G03X0051116Y0003856I0000000J0000266D01*
G03X0050850Y0004122I0000266J0000000D01*
G03X0050584Y0003856I0000000J0000266D01*
G01X0047984Y0002100D02*
G03X0048250Y0001834I0000266J0000000D01*
G03X0048516Y0002100I0000000J0000266D01*
G03X0048250Y0002366I0000266J0000000D01*
G03X0047984Y0002100I0000000J0000266D01*
G01X0055619Y-0000219D02*
G03X0055668Y-0000100I0000119J0000119D01*
G01X0055234Y0002700D02*
G03X0055331Y0002494I0000266J0000000D01*
G01X0055766Y0002700D02*
G03X0055500Y0002966I0000266J0000000D01*
G03X0055234Y0002700I0000000J0000266D01*
G01X0054734Y-0000500D02*
G03X0055000Y-0000766I0000266J0000000D01*
Y-0000234D02*
G03X0054734Y-0000500I0000000J0000266D01*
G01X0053295Y0000900D02*
G03X0053561Y0000634I0000266J0000000D01*
G03X0053827Y0000900I0000000J0000266D01*
G03X0053561Y0001166I0000266J0000000D01*
G03X0053295Y0000900I0000000J0000266D01*
G01X0008034Y0001750D02*
G03X0008300Y0001484I0000266J0000000D01*
G03X0008566Y0001750I0000000J0000266D01*
G03X0008300Y0002016I0000266J0000000D01*
G01X0049225Y0007264D02*
G03X0048960Y0007506I0000265J0000024D01*
Y0002714D02*
G03X0049055Y0002731I0000000J0000266D01*
G01X0048984Y0002550D02*
G03X0049250Y0002284I0000266J0000000D01*
G03X0049391Y0002324I0000000J0000266D01*
G01X0048694Y0007240D02*
G03X0048791Y0007034I0000266J0000000D01*
G01X0049600Y0007134D02*
G03X0049800Y0007224I0000000J0000266D01*
G01X0049600Y0007666D02*
G03X0049334Y0007400I0000000J0000266D01*
G01X0062100Y0003416D02*
G03X0062066Y0003414I0000000J0000266D01*
Y0003420D02*
G03X0061800Y0003686I0000266J0000000D01*
G01X0049334Y0007400D02*
G03X0049335Y0007373I0000266J0000000D01*
G01X0061800Y-0000216D02*
G03X0062066Y0000050I0000000J0000266D01*
G01X0061533Y0000047D02*
G03X0061800Y-0000217I0000267J0000003D01*
G01X0039734Y0003400D02*
G03X0040000Y0003134I0000266J0000000D01*
G03X0040266Y0003400I0000000J0000266D01*
G03X0040000Y0003666I0000266J0000000D01*
G03X0039734Y0003400I0000000J0000266D01*
G01X0019768Y0011268D02*
G03X0019500Y0011379I0000268J0000268D01*
G03X0019121Y0011000I0000000J0000379D01*
G03X0019232Y0010732I0000379J0000000D01*
G01X0019382Y0010582D02*
G03X0019650Y0010471I0000268J0000268D01*
G01X0022068Y0011118D02*
G03X0021800Y0011229I0000268J0000268D01*
G01X0021732Y0010382D02*
G03X0021746Y0010369I0000268J0000268D01*
G01X0022379Y0010650D02*
G03X0022268Y0010918I0000379J0000000D01*
G01X0024684Y0013220D02*
G03X0024950Y0012954I0000266J0000000D01*
G03X0025216Y0013220I0000000J0000266D01*
G03X0024950Y0013486I0000266J0000000D01*
G03X0024684Y0013220I0000000J0000266D01*
G01X0059634Y0007100D02*
G03X0059643Y0007031I0000266J0000000D01*
G01X0060166Y0007100D02*
G03X0059900Y0007366I0000266J0000000D01*
G03X0059634Y0007100I0000000J0000266D01*
G01X0028881Y0011504D02*
G03X0028800Y0011517I0000081J0000254D01*
G01X0059350Y0006331D02*
G03X0059469Y0006381I0000000J0000169D01*
G01X0059350Y0006331D02*
G03X0059469Y0006381I0000000J0000169D01*
G01X0054431D02*
G03X0054550Y0006332I0000119J0000119D01*
G01X0048791Y0003186D02*
G03X0048694Y0002980I0000169J0000206D01*
G01X0049826Y0003500D02*
G03X0049560Y0003766I0000266J0000000D01*
G01X0049679Y0000191D02*
G03X0049728Y0000310I0000119J0000119D01*
G01X0049331Y0000319D02*
G03X0049281Y0000206I0000119J0000119D01*
G01X0055000Y-0000766D02*
G03X0055252Y-0000586I0000000J0000266D01*
G01X0049716Y0000000D02*
G03X0049656Y0000168I0000266J0000000D01*
G01X0049331Y0000319D02*
G03X0049281Y0000206I0000119J0000119D01*
G01X0049184Y0000000D02*
G03X0049450Y-0000266I0000266J0000000D01*
G03X0049716Y0000000I0000000J0000266D01*
G01X0057650Y0006884D02*
G03X0057916Y0007150I0000000J0000266D01*
G01X0049281Y0000206D02*
G03X0049184Y0000000I0000169J0000206D01*
G01X0057623Y0006885D02*
G03X0057650Y0006884I0000027J0000265D01*
G01X0049573Y0007135D02*
G03X0049600Y0007134I0000027J0000265D01*
G01X0052486Y0007014D02*
G03X0052450Y0007016I0000036J0000264D01*
G01X0058735Y0007176D02*
G03X0058734Y0007150I0000265J0000026D01*
G01X0059923Y0006835D02*
G03X0060166Y0007100I0000023J0000265D01*
G01X0052826Y0007765D02*
G03X0052800Y0007766I0000026J0000265D01*
G01X0054319Y0007769D02*
G03X0054200Y0007818I0000119J0000119D01*
G01X0006750Y0002958D02*
G03X0007000Y0002784I0000250J0000092D01*
G01X0063666Y0002200D02*
G03X0063665Y0002226I0000266J0000000D01*
G01X0065331Y0000806D02*
G03X0065234Y0000600I0000169J0000206D01*
G01X0064119Y0004494D02*
G03X0064216Y0004700I0000169J0000206D01*
G01X0063169Y0004794D02*
G03X0063266Y0005000I0000169J0000206D01*
G01X0062669Y0003794D02*
G03X0062766Y0004000I0000169J0000206D01*
G01X0053157Y0002318D02*
G03X0053069Y0002456I0000257J0000068D01*
G01X0053106Y0002082D02*
G03X0053364Y0001883I0000258J0000068D01*
G01X0052800Y0007766D02*
G03X0052578Y0007648I0000000J0000266D01*
G01X0057266Y0006200D02*
G03X0057232Y0006331I0000266J0000000D01*
G01X0030669Y0010996D02*
G03X0030750Y0010983I0000081J0000254D01*
G01X0030849Y0000250D02*
G03X0030500Y-0000099I0000151J0000500D01*
Y0000901D02*
G03X0030000Y0001272I0000500J0000151D01*
G01X0031522Y-0000250D02*
G03X0031151Y0000250I0000522J0000000D01*
G01X0030500Y-0000099D02*
G03X0030151Y0000250I0000500J0000151D01*
G01X0029849D02*
G03X0029522Y-0000038I0000151J0000500D01*
G01X0029500Y0000901D02*
G03X0029000Y0001272I0000500J0000151D01*
G01X0031000D02*
G03X0030500Y0000901I0000000J0000522D01*
G01X0029500Y0000599D02*
G03X0029849Y0000250I0000500J0000151D01*
G01X0029211Y0000272D02*
G03X0029500Y0000599I0000211J0000478D01*
G01X0010721Y0016000D02*
G03X0011078Y0015500I0000529J0000000D01*
G01X0025700Y0004816D02*
G03X0025619Y0004804I0000000J0000266D01*
G01X0025301Y0000500D02*
G03X0024984Y0000182I0000175J0000492D01*
Y0000817D02*
G03X0025301Y0000500I0000492J0000175D01*
G01X0023608Y0016253D02*
G03X0023500Y0016264I0000108J0000511D01*
G01X0024371Y0016205D02*
G03X0024377Y0016270I0000379J0000065D01*
G01X0025007Y0014758D02*
G03X0024521Y0015279I0000523J0000000D01*
G01X0023608Y0016270D02*
G03X0023608Y0016253I0000384J0000000D01*
G01X0011078Y0015500D02*
G03X0010721Y0015000I0000172J0000500D01*
G01X0023500Y0016264D02*
G03X0023008Y0015917I0000000J0000522D01*
G01X0024384Y-0000503D02*
G03X0024492Y-0000514I0000108J0000511D01*
G01X0008264Y0002014D02*
G03X0008266Y0002050I0000264J0000036D01*
G01X0047315Y0006273D02*
G03X0047316Y0006300I0000265J0000027D01*
G01X0048791Y0006530D02*
G03X0048700Y0006546I0000091J0000250D01*
G01X0049729Y0003294D02*
G03X0049826Y0003500I0000169J0000206D01*
G01X0047531Y-0000494D02*
G03X0047434Y-0000700I0000169J0000206D01*
G01X0061331Y0000538D02*
G03X0061184Y0000300I0000119J0000238D01*
G01X0062066Y0000050D02*
G03X0061969Y0000256I0000266J0000000D01*
G01X0063400Y0002466D02*
G03X0063255Y0002423I0000000J0000266D01*
G01X0061669Y0003844D02*
G03X0061766Y0004050I0000169J0000206D01*
G01X0052450Y0007016D02*
G03X0052198Y0006837I0000000J0000266D01*
G01X0052539Y0006499D02*
G03X0052656Y0006581I0000089J0000251D01*
G01X0053364Y0002416D02*
G03X0053157Y0002318I0000000J0000266D01*
G01X0067316Y-0000200D02*
G03X0067119Y0000057I0000266J0000000D01*
G01X0065596Y-0000028D02*
G03X0065533Y-0000200I0000204J0000172D01*
G01X0055669Y0002494D02*
G03X0055766Y0002700I0000169J0000206D01*
G01X0008300Y0002016D02*
G03X0008264Y0002014I0000000J0000266D01*
G01X0063426Y0002465D02*
G03X0063400Y0002466I0000026J0000265D01*
G01X0065669Y0003544D02*
G03X0065766Y0003750I0000169J0000206D01*
G01X0008036Y0001786D02*
G03X0008034Y0001750I0000264J0000036D01*
G01X0053984Y-0001500D02*
G03X0054003Y-0001600I0000266J0000000D01*
G01X0022783Y0004284D02*
G03X0022800Y0004283I0000017J0000266D01*
Y0004284D02*
G03X0022881Y0004296I0000000J0000266D01*
G01X0034254Y0008269D02*
G03X0034267Y0008350I0000254J0000081D01*
G01X0031016Y0011250D02*
G03X0031004Y0011331I0000266J0000000D01*
G01X0003947Y0015896D02*
G03X0004000Y0015892I0000053J0000381D01*
G01X0005346Y0016312D02*
G03X0004955Y0016153I0000000J0000562D01*
G01X0000000Y-0001379D02*
G03X0001379Y0000000I0000000J0001379D01*
G01X-0001379D02*
G03X0000000Y-0001379I0001379J0000000D01*
Y0001379D02*
G03X-0001379Y0000000I0000000J0001379D01*
G01X0001379D02*
G03X0000000Y0001379I0001379J0000000D01*
Y0014369D02*
G03X0001379Y0015748I0000000J0001379D01*
G01X-0001379D02*
G03X0000000Y0014369I0001379J0000000D01*
Y0017127D02*
G03X-0001379Y0015748I0000000J0001379D01*
G01X0001379D02*
G03X0000000Y0017127I0001379J0000000D01*
G01X0004734Y0008000D02*
G03X0005000Y0007734I0000266J0000000D01*
G03X0005266Y0008000I0000000J0000266D01*
G03X0005000Y0008266I0000266J0000000D01*
G03X0004734Y0008000I0000000J0000266D01*
G01X0003584Y0007880D02*
G03X0003850Y0007614I0000266J0000000D01*
Y0008146D02*
G03X0003584Y0007880I0000000J0000266D01*
G01X0001934Y0008080D02*
G03X0002200Y0007814I0000266J0000000D01*
G03X0002466Y0008080I0000000J0000266D01*
G03X0002200Y0008346I0000266J0000000D01*
G03X0001934Y0008080I0000000J0000266D01*
G01X0004250Y0007734D02*
G03X0004516Y0008000I0000000J0000266D01*
G03X0004250Y0008266I0000266J0000000D01*
G01X0004097Y0007781D02*
G03X0004250Y0007733I0000153J0000219D01*
G01X0003584Y0007880D02*
G03X0003850Y0007614I0000266J0000000D01*
G03X0004097Y0007781I0000000J0000266D01*
G01X0004002Y0008098D02*
G03X0003850Y0008146I0000152J0000218D01*
G03X0003584Y0007880I0000000J0000266D01*
G01X0004734Y0008000D02*
G03X0005000Y0007734I0000266J0000000D01*
G03X0005266Y0008000I0000000J0000266D01*
G03X0005000Y0008266I0000266J0000000D01*
G03X0004734Y0008000I0000000J0000266D01*
G01X0003084Y0009450D02*
G03X0003350Y0009184I0000266J0000000D01*
G03X0003616Y0009450I0000000J0000266D01*
G03X0003350Y0009716I0000266J0000000D01*
G03X0003084Y0009450I0000000J0000266D01*
G01X0002934Y0006350D02*
G03X0003200Y0006084I0000266J0000000D01*
G03X0003466Y0006350I0000000J0000266D01*
G03X0003200Y0006616I0000266J0000000D01*
G03X0002934Y0006350I0000000J0000266D01*
G01X0004534Y0002200D02*
G03X0004800Y0001934I0000266J0000000D01*
G03X0005066Y0002200I0000000J0000266D01*
G03X0004800Y0002466I0000266J0000000D01*
G03X0004534Y0002200I0000000J0000266D01*
G01X0002934D02*
G03X0003200Y0001934I0000266J0000000D01*
G03X0003466Y0002200I0000000J0000266D01*
G03X0003200Y0002466I0000266J0000000D01*
G03X0002934Y0002200I0000000J0000266D01*
G01X0001718Y0002516D02*
G03X0001984Y0002250I0000266J0000000D01*
Y0002249D02*
G03X0002251Y0002516I0000000J0000267D01*
G03X0001984Y0002783I0000267J0000000D01*
Y0002782D02*
G03X0001718Y0002516I0000000J0000266D01*
G01X0005734Y0007950D02*
G03X0006000Y0007684I0000266J0000000D01*
G03X0006266Y0007950I0000000J0000266D01*
G03X0006000Y0008216I0000266J0000000D01*
G03X0005734Y0007950I0000000J0000266D01*
G01X0005484Y0013050D02*
G03X0005750Y0012784I0000266J0000000D01*
G03X0006016Y0013050I0000000J0000266D01*
G03X0005750Y0013316I0000266J0000000D01*
G03X0005484Y0013050I0000000J0000266D01*
G01X0002934Y0002200D02*
G03X0003200Y0001934I0000266J0000000D01*
G03X0003466Y0002200I0000000J0000266D01*
G03X0003200Y0002466I0000266J0000000D01*
G03X0002934Y0002200I0000000J0000266D01*
G01X0004534D02*
G03X0004800Y0001934I0000266J0000000D01*
G03X0005066Y0002200I0000000J0000266D01*
G03X0004800Y0002466I0000266J0000000D01*
G03X0004534Y0002200I0000000J0000266D01*
G01X0005484Y0013050D02*
G03X0005750Y0012784I0000266J0000000D01*
G03X0006016Y0013050I0000000J0000266D01*
G03X0005750Y0013316I0000266J0000000D01*
G03X0005484Y0013050I0000000J0000266D01*
G01X0004734Y0009450D02*
G03X0005000Y0009184I0000266J0000000D01*
G03X0005266Y0009450I0000000J0000266D01*
G03X0005000Y0009716I0000266J0000000D01*
G03X0004734Y0009450I0000000J0000266D01*
G01X0004900Y0006234D02*
G03X0005166Y0006500I0000000J0000266D01*
G03X0004900Y0006766I0000266J0000000D01*
G03X0004634Y0006500I0000000J0000266D01*
G01X0002284Y0006350D02*
G03X0002550Y0006084I0000266J0000000D01*
G03X0002816Y0006350I0000000J0000266D01*
G03X0002550Y0006616I0000266J0000000D01*
G03X0002284Y0006350I0000000J0000266D01*
G01X0001734Y0001500D02*
G03X0002000Y0001234I0000266J0000000D01*
G03X0002266Y0001500I0000000J0000266D01*
G03X0002000Y0001766I0000266J0000000D01*
G03X0001734Y0001500I0000000J0000266D01*
G01X0005534Y0002350D02*
G03X0005800Y0002084I0000266J0000000D01*
G03X0006066Y0002350I0000000J0000266D01*
G03X0005800Y0002616I0000266J0000000D01*
G03X0005534Y0002350I0000000J0000266D01*
G01X0004184Y0006250D02*
G03X0004450Y0005984I0000266J0000000D01*
G03X0004716Y0006250I0000000J0000266D01*
G01X0004450Y0006516D02*
G03X0004184Y0006250I0000000J0000266D01*
G01X0001384Y0008120D02*
G03X0001650Y0007854I0000266J0000000D01*
G03X0001916Y0008120I0000000J0000266D01*
G03X0001650Y0008386I0000266J0000000D01*
G03X0001384Y0008120I0000000J0000266D01*
G01X0004384Y0016277D02*
G03X0004000Y0016661I0000384J0000000D01*
Y0016662D02*
G03X0003615Y0016277I0000000J0000385D01*
G01X0004000Y0015893D02*
G03X0004029Y0015894I0000000J0000384D01*
G01X0005346Y0015188D02*
G03X0005908Y0015750I0000000J0000562D01*
G03X0005346Y0016312I0000562J0000000D01*
G01X0004955Y0015347D02*
G03X0005346Y0015188I0000391J0000403D01*
G01X0003508Y0015287D02*
G03X0003971Y0015750I0000000J0000463D01*
G01X0003139Y0015469D02*
G03X0003508Y0015286I0000369J0000281D01*
G01X0002092Y0015750D02*
G03X0002653Y0015189I0000561J0000000D01*
Y0015188D02*
G03X0003139Y0015469I0000000J0000562D01*
G01X0002653Y0016312D02*
G03X0002091Y0015750I0000000J0000562D01*
G01X0002464Y-0001000D02*
G03X0002888Y-0001424I0000424J0000000D01*
G03X0003281Y-0001156I0000000J0000424D01*
G01X0002888Y-0000576D02*
G03X0002464Y-0001000I0000000J0000424D01*
G01X0003675Y-0001424D02*
G03X0004069Y-0001156I0000000J0000424D01*
G01X0003281D02*
G03X0003675Y-0001424I0000394J0000156D01*
G01X0004463D02*
G03X0004826Y-0001217I0000000J0000424D01*
G01X0004069Y-0001156D02*
G03X0004463Y-0001424I0000394J0000156D01*
G01X0004069Y-0000843D02*
G03X0003675Y-0000576I0000394J0000157D01*
G01X-0000863Y0012984D02*
G03X-0000234Y0012355I0000629J0000000D01*
Y0012356D02*
G03X0000394Y0012984I0000000J0000628D01*
G03X-0000234Y0013612I0000628J0000000D01*
Y0013613D02*
G03X-0000863Y0012984I0000000J0000629D01*
G01X0001106D02*
G03X0001734Y0012356I0000628J0000000D01*
G03X0002362Y0012984I0000000J0000628D01*
G01X0002363D02*
G03X0001734Y0013613I0000629J0000000D01*
G03X0001105Y0012984I0000000J0000629D01*
G01X0001106Y0011016D02*
G03X0001734Y0010388I0000628J0000000D01*
Y0010387D02*
G03X0002363Y0011016I0000000J0000629D01*
G03X0001734Y0011645I0000629J0000000D01*
Y0011644D02*
G03X0001106Y0011016I0000000J0000628D01*
G01X0003971Y0015750D02*
G03X0003947Y0015896I0000463J0000000D01*
G01X0004826Y-0000782D02*
G03X0004463Y-0000577I0000363J0000218D01*
Y-0000576D02*
G03X0004069Y-0000843I0000000J0000424D01*
G01X0003281Y-0000844D02*
G03X0002888Y-0000577I0000393J0000156D01*
G01X0003675Y-0000576D02*
G03X0003281Y-0000844I0000000J0000424D01*
G01X0003139Y0016031D02*
G03X0002653Y0016311I0000486J0000281D01*
G01X0004708Y0006315D02*
G03X0004900Y0006233I0000192J0000185D01*
G01X0004716Y0006250D02*
G03X0004708Y0006315I0000266J0000000D01*
G01X0003508Y0016213D02*
G03X0003139Y0016031I0000000J0000463D01*
G01X0004250Y0008266D02*
G03X0004002Y0008098I0000000J0000266D01*
G01X0004642Y0006435D02*
G03X0004450Y0006517I0000192J0000185D01*
G01X0004634Y0006500D02*
G03X0004642Y0006435I0000266J0000000D01*
G01X0003850Y0007614D02*
G03X0004097Y0007781I0000000J0000266D01*
G01X0003624Y0016198D02*
G03X0003508Y0016213I0000116J0000448D01*
G01X0004379D02*
G03X0004384Y0016277I0000379J0000064D01*
G01X0003616D02*
G03X0003624Y0016198I0000384J0000000D01*
G01X0004002Y0008098D02*
G03X0003850Y0008146I0000152J0000218D01*
G54D62*
G01X0054250Y-0001500D02*
X0054700D01*
X0056000Y-0000200D01*
Y0001750D01*
X0066950Y0001850D02*
Y-0000100D01*
X0067050Y-0000200D01*
X0048960Y0002980D02*
Y0007240D01*
X0062100Y0003150D02*
Y0001800D01*
X0055500Y0002700D02*
Y-0000100D01*
X0055100Y-0000500D01*
X0055000D01*
X0049250Y0002550D02*
Y0007050D01*
X0049600Y0007400D01*
X0061800Y0003420D02*
Y0000050D01*
X0059900Y0007100D02*
Y0007050D01*
X0059350Y0006500D01*
X0056650D01*
X0056450Y0006700D01*
X0054600D01*
X0054100Y0007200D01*
X0053500D01*
X0049560Y0003500D02*
Y0000310D01*
X0049450Y0000200D01*
Y0000000D01*
X0057650Y0007150D02*
X0057250Y0006750D01*
X0056700D01*
X0056550Y0006900D01*
X0054650D01*
X0054070Y0007480D01*
X0053180D01*
X0052750Y0007050D01*
X0047050Y0006300D02*
X0047500Y0005850D01*
Y0003600D01*
X0047700Y0003400D01*
Y-0000700D01*
X0061500Y0004050D02*
Y0000350D01*
X0061450Y0000300D01*
X0063000Y0002500D02*
Y0005000D01*
X0052900Y0002250D02*
Y0005900D01*
X0052100Y0006700D01*
X0051450D01*
X0065500Y0000600D02*
Y0003750D01*
X0063950Y0004700D02*
Y0002750D01*
X0063400Y0002200D01*
X0050000Y0007400D02*
X0050400Y0007800D01*
X0051300D01*
X0051650Y0007450D01*
X0052400D01*
X0059000Y0007150D02*
X0058700Y0007450D01*
X0057550D01*
X0057200Y0007100D01*
X0054750D01*
X0054200Y0007650D01*
X0052950D01*
X0052800Y0007500D01*
X0062500Y0004000D02*
Y-0000250D01*
X0051000Y0003250D02*
X0050550D01*
X0050200Y0002900D01*
Y0000300D01*
X0052450Y0006750D02*
X0053500D01*
X0053650Y0006900D01*
X0054150D01*
X0054550Y0006500D01*
X0056150D01*
X0056450Y0006200D01*
X0057000D01*
G54D66*
G01X0019500Y0011000D02*
X0019650Y0010850D01*
X0021000D01*
X0021800D01*
X0022000Y0010650D01*
G54D68*
G01X0070300Y0001800D02*
Y0000950D01*
X0071100Y0000150D01*
X0071150D01*
X0065800Y-0000200D02*
Y0001150D01*
G54D70*
G01X0058127Y-0000633D02*
X0058220D01*
X0058173D02*
Y-0000233D01*
X0058220Y-0000300D01*
X0058410Y-0000433D02*
X0058597D01*
X0058740Y-0000500D02*
X0058927D01*
X0058833Y-0000233D01*
X0058787D01*
Y-0000633D01*
X0059187D02*
X0059233Y-0000567D01*
X0059257Y-0000500D01*
Y-0000367D01*
X0059233Y-0000300D01*
X0059187Y-0000233D01*
X0059140D01*
X0059093Y-0000300D01*
X0059070Y-0000367D01*
Y-0000500D01*
X0059093Y-0000567D01*
X0059140Y-0000633D01*
X0059187D01*
X0059587Y-0000567D02*
X0059540Y-0000633D01*
X0059447D01*
X0059400Y-0000567D01*
Y-0000500D01*
X0059493Y-0000367D01*
X0059400Y-0000233D01*
X0059587D01*
X0059730Y-0000433D02*
X0059917D01*
X0060060Y-0000633D02*
X0060247D01*
X0060060Y-0000367D01*
Y-0000300D01*
X0060083Y-0000233D01*
X0060223D01*
X0060247Y-0000300D01*
X0060390Y-0000633D02*
X0060577D01*
X0060390Y-0000367D01*
Y-0000300D01*
X0060413Y-0000233D01*
X0060553D01*
X0060577Y-0000300D01*
X0074107Y0004567D02*
X0074060D01*
Y0004633D01*
X0074107D01*
Y0004567D01*
X0074297Y0004900D02*
X0074320Y0004967D01*
X0074460D01*
X0074483Y0004900D01*
Y0004833D01*
X0074460Y0004767D01*
X0074320D01*
X0074297Y0004700D01*
Y0004633D01*
X0074320Y0004567D01*
X0074460D01*
X0074483Y0004633D01*
X0074673Y0004567D02*
X0074627D01*
Y0004633D01*
X0074673D01*
Y0004567D01*
X0074863D02*
X0075027D01*
Y0004967D01*
G54D10*
X0034646Y0000000D03*
X0029921Y0015748D03*
X0000000Y0000000D03*
Y0015748D03*
X0074803Y0006693D03*
G54D24*
X-0000234Y0011016D03*
X0001734D03*
X0002718Y0012000D03*
X0001734Y0012984D03*
X-0000234D03*
X0000750Y0012000D03*
G54D25*
X0030000Y-0000250D03*
X0031000D03*
Y0000750D03*
X0030000D03*
X0029000D03*
X0025476Y0000992D03*
X0024492D03*
X0023508D03*
X0022524D03*
X0025476Y0000008D03*
X0024492D03*
X0023508D03*
X0022516Y0014758D03*
X0023500D03*
X0024484D03*
X0022516Y0015742D03*
X0023500D03*
G54D26*
X0004000Y0016277D03*
X0024000Y-0000520D03*
X0023992Y0016270D03*
G54D27*
X0004492Y0015750D03*
X0024484Y0015742D03*
G54D28*
X0029000Y-0000250D03*
X0022524Y0000008D03*
G54D29*
X0004463Y-0001000D03*
X0003675D03*
X0002888D03*
G54D30*
X0005250D03*
G54D31*
X0002653Y0015750D03*
X0005346D03*
G54D32*
X0003508D03*
G54D45*
X0011250Y0016000D03*
Y0015000D03*
Y0014000D03*
G54D57*
X0001300Y0003150D03*
Y0003850D03*
Y0004650D03*
Y0005400D03*
X0001950D03*
Y0003850D03*
Y0004650D03*
X0002600Y0003850D03*
Y0004650D03*
X0005250D03*
X0005850D03*
Y0003850D03*
X0005250D03*
X0004650D03*
X0003950D03*
X0003300D03*
Y0004650D03*
X0003950D03*
X0004650D03*
X0001650Y0008120D03*
X0063700Y0001220D03*
X0044750Y0006250D03*
Y0005500D03*
Y0004750D03*
Y0004000D03*
Y0003250D03*
X0044000D03*
X0043250D03*
X0042500D03*
X0041750D03*
X0043250Y0005500D03*
Y0004750D03*
X0042500D03*
Y0005500D03*
X0041750D03*
Y0004750D03*
Y0004000D03*
X0042500D03*
X0043250D03*
X0044000D03*
Y0004750D03*
Y0005500D03*
Y0006250D03*
X0043250D03*
X0042500D03*
X0041750D03*
X0015000Y0013750D03*
Y0014500D03*
Y0015250D03*
Y0016000D03*
Y0016750D03*
X0020250Y0013750D03*
X0019500D03*
X0018750D03*
X0018000D03*
X0017250D03*
X0016500D03*
X0015750D03*
X0020250Y0014500D03*
X0019500D03*
X0018750D03*
X0018000D03*
X0017250D03*
X0016500D03*
X0015750D03*
X0020250Y0015250D03*
X0019500D03*
X0018750D03*
X0018000D03*
X0017250D03*
X0016500D03*
X0015750D03*
X0020250Y0016000D03*
X0019500D03*
X0018750D03*
X0018000D03*
X0017250D03*
X0016500D03*
X0015750D03*
X0020250Y0016750D03*
X0019500D03*
X0018750D03*
X0018000D03*
X0017250D03*
X0016500D03*
X0015750D03*
X0028500Y0002800D03*
Y0003500D03*
Y0004250D03*
Y0005000D03*
Y0005750D03*
Y0006500D03*
X0033000Y0002800D03*
Y0003500D03*
Y0004250D03*
Y0005000D03*
Y0005750D03*
Y0006500D03*
X0032250D03*
X0031500D03*
X0030750D03*
X0030000D03*
X0029250D03*
Y0005750D03*
X0030000D03*
X0030750D03*
X0031500D03*
X0032250D03*
Y0005000D03*
X0031500D03*
X0030750D03*
X0030000D03*
X0029250D03*
Y0004250D03*
X0030000D03*
X0030750D03*
X0031500D03*
X0032250D03*
X0031550Y0003500D03*
X0030750D03*
X0030000D03*
X0032250D03*
Y0002800D03*
X0031550D03*
X0030750D03*
X0029300Y0003500D03*
X0030000Y0002800D03*
X0029300D03*
X0020250Y0004000D03*
Y0004750D03*
Y0005500D03*
Y0006250D03*
Y0007000D03*
Y0007750D03*
Y0008500D03*
X0019500D03*
X0018750D03*
X0018000D03*
X0017250D03*
X0016500D03*
X0015750D03*
X0016500Y0004000D03*
X0017250D03*
X0018000D03*
X0018750D03*
X0019500D03*
Y0004750D03*
X0018750D03*
X0018000D03*
X0017250D03*
X0016500D03*
X0015750Y0004000D03*
Y0004750D03*
Y0005500D03*
X0016500D03*
X0017250D03*
X0018000D03*
X0018750D03*
X0019500D03*
Y0006250D03*
X0018750D03*
X0018000D03*
X0017250D03*
X0016500D03*
X0015750D03*
Y0007000D03*
X0016500D03*
X0017250D03*
X0018000D03*
X0018750D03*
X0019500D03*
Y0007750D03*
X0018750D03*
X0018000D03*
X0017250D03*
X0016500D03*
X0015750D03*
X0010250Y0004750D03*
X0011000D03*
X0011750D03*
X0012500D03*
X0013250D03*
Y0004000D03*
X0012500D03*
X0011750D03*
X0011000D03*
X0010250D03*
X0009500D03*
Y0004750D03*
X0013250Y0008500D03*
X0012500D03*
X0011750D03*
X0011000D03*
X0010250D03*
X0009500D03*
X0010250Y0005500D03*
X0011000D03*
X0011750D03*
X0012500D03*
X0013250D03*
Y0006250D03*
X0012500D03*
X0011750D03*
X0011000D03*
X0010250D03*
X0009500Y0005500D03*
Y0006250D03*
Y0007000D03*
X0010250D03*
X0011000D03*
X0011750D03*
X0012500D03*
X0013250D03*
Y0007750D03*
X0012500D03*
X0011750D03*
X0011000D03*
X0010250D03*
X0009500D03*
G54D64*
X0046500Y0001750D03*
X0047200Y0001800D03*
X0054100Y0003068D03*
X0053758Y0006600D03*
X0048700Y0006280D03*
X0018750Y-0001150D03*
X0013500Y-0001000D03*
X0046650Y0003590D03*
X0045500Y0005000D03*
X0046700Y0003970D03*
X0048250Y0004000D03*
X0050900Y0004250D03*
X0026200Y0017030D03*
X0026500Y0014250D03*
X0027300Y0016220D03*
Y0015530D03*
X0008000Y0011000D03*
X0071450Y0007220D03*
X0070550Y0006530D03*
X0071700Y0004050D03*
X0073750Y0002500D03*
X0068950Y0006530D03*
Y0007220D03*
X0062500Y0007150D03*
X0064000Y0007500D03*
X0063950Y0006530D03*
X0065250Y0004120D03*
X0066450Y0007220D03*
X0065550Y0006530D03*
X0061500Y0007150D03*
X0041450Y0001720D03*
X0040000Y0002100D03*
X0037000Y0002000D03*
X0010535Y0010200D03*
X0011250Y0010350D03*
X0012250Y0010800D03*
X0051050Y0006700D03*
X0051500Y0007100D03*
X0014500Y0009150D03*
X0021000Y0012650D03*
X0025750Y0013500D03*
X0032750Y0011250D03*
X0033500Y0011200D03*
X0033950Y0011970D03*
X0026950D03*
X0032800Y0012950D03*
X0031450Y0012400D03*
X0008000Y0012050D03*
X0060500Y0007150D03*
X0046900Y0003130D03*
X0048250Y0001600D03*
X0055500Y-0001500D03*
X0053500D03*
X0052000Y0000600D03*
X0059500Y0007300D03*
X0058500Y0007150D03*
X0023750Y0003750D03*
X0056050Y0006200D03*
X0002200Y0008080D03*
X0004250Y0008000D03*
X0003850Y0007880D03*
X0005000Y0008000D03*
X0068800Y-0001400D03*
X0067500Y-0001250D03*
X0063700Y-0000530D03*
X0070180Y0004550D03*
X0069300Y0001100D03*
X0054950Y0007400D03*
X0054290Y0006350D03*
X0038000Y0004250D03*
X0009250Y0013000D03*
X0050715Y0006300D03*
X0003350Y0009450D03*
X0003200Y0006350D03*
X0003250Y0000850D03*
X0034000Y0006750D03*
Y0008350D03*
X0005750Y0003049D03*
X0005000Y0000900D03*
X0008850Y0011150D03*
X0028800Y0011250D03*
X0001984Y0002516D03*
X0030400Y0012850D03*
X0025050Y0006280D03*
X0030750Y0011250D03*
X0024550D03*
X0067750Y0004120D03*
X0067950Y0001220D03*
X0008450Y0009400D03*
X0006000Y0007950D03*
X0072650Y0000150D03*
X0066950Y0001850D03*
X0067050Y-0000200D03*
X0037000Y0004850D03*
X0029250Y0010000D03*
X0047100Y-0001200D03*
X0047500Y-0001250D03*
X0000900Y0004500D03*
X0057000Y-0000150D03*
X0038750Y-0000200D03*
X0003200Y0002200D03*
X0046500Y0003250D03*
X0070300Y0001800D03*
X0071150Y0000150D03*
X0048960Y0002980D03*
Y0007240D03*
X0045500Y0003500D03*
X0041000Y0002750D03*
X0062100Y0003150D03*
Y0001800D03*
X0065800Y-0000200D03*
Y0001150D03*
X0050850Y0003856D03*
X0048250Y0002100D03*
X0055500Y0002700D03*
X0055000Y-0000500D03*
X0022000Y0012250D03*
X0025750Y0013000D03*
X0053561Y0000900D03*
X0008300Y0001750D03*
X0049250Y0002550D03*
X0049600Y0007400D03*
X0061800Y0003420D03*
Y0000050D03*
X0040000Y0003400D03*
X0019500Y0011000D03*
X0022000Y0010650D03*
X0024950Y0013220D03*
X0059900Y0007100D03*
X0053500Y0007200D03*
X0002250Y0003049D03*
X0049560Y0003500D03*
X0049450Y0000000D03*
X0057650Y0007150D03*
X0052750Y0007050D03*
X0047050Y0006300D03*
X0047700Y-0000700D03*
X0061500Y0004050D03*
X0061450Y0000300D03*
X0063000Y0002500D03*
Y0005000D03*
X0052900Y0002250D03*
X0051450Y0006700D03*
X0005750Y0013050D03*
X0056500Y0002750D03*
X0025050Y0006970D03*
X0005000Y0009450D03*
X0065500Y0000600D03*
Y0003750D03*
X0054250Y0001500D03*
X0008000Y0002050D03*
Y0006450D03*
X0004900Y0006500D03*
X0063950Y0004700D03*
X0063400Y0002200D03*
X0053364Y0002150D03*
X0007600Y0002100D03*
X0007700Y0005700D03*
X0002550Y0006350D03*
X0050000Y0007400D03*
X0052400Y0007450D03*
X0054000Y0002200D03*
X0002000Y0001500D03*
X0054100Y0002674D03*
X0005800Y0002350D03*
X0059000Y0007150D03*
X0052800Y0007500D03*
X0054735Y0002000D03*
X0008600Y0002350D03*
Y0006150D03*
X0004450Y0006250D03*
X0062500Y0004000D03*
Y-0000250D03*
X0046900Y-0000650D03*
X0051000Y0003250D03*
X0050200Y0000300D03*
G54D69*
X0054250Y-0001500D03*
X0056000Y0001750D03*
X0006750Y0013000D03*
X0008000Y0013250D03*
X0073750Y0000531D03*
X0022650Y0007750D03*
X0021300Y0001480D03*
X0012500Y-0000150D03*
X0022800Y0004550D03*
X0025700D03*
X0004800Y0002200D03*
X0007000Y0003050D03*
G54D71*
X0052450Y0006750D03*
X0057000Y0006200D03*
M02*
