*
G04 Mass Parameters ***
*
G04 Image ***
*
%IND:\UTENTI\00.LAVORI IN CORSO\METALTRONICA\22-304-1\22-304-1.SPT*%
%ICAS*%
%MOIN*%
%IPPOS*%
%ASAXBY*%
G74*%FSLAN2X34Y34*%
*
G04 Aperture Definitions ***
*
%AMTHERMAL76*
1,1,0.1211,0,0,*
1,0,0.0972,0,0,*
21,0,0.1212,0.0100,0,0,225.0*
21,0,0.1212,0.0100,0,0,315.0*%
%AMTHERMAL85*
1,1,0.1172,0,0,*
1,0,0.0933,0,0,*
21,0,0.1173,0.0100,0,0,45.0*
21,0,0.1173,0.0100,0,0,135.0*%
%AMTHERMAL88*
1,1,0.1172,0,0,*
1,0,0.0933,0,0,*
21,0,0.1173,0.0100,0,0,135.0*
21,0,0.1173,0.0100,0,0,225.0*%
%ADD10C,0.1260*%
%ADD11C,0.0394*%
%ADD12R,0.0380X0.0320*%
%ADD13R,0.1024X0.0510*%
%ADD14R,0.0380X0.0320*%
%ADD15R,0.0905X0.0886*%
%ADD16R,0.0501X0.0404*%
%ADD17R,0.0630X0.1260*%
%ADD18R,0.0710X0.0400*%
%ADD19R,0.0886X0.0905*%
%ADD20R,0.0197X0.0315*%
%ADD21R,0.0400X0.0500*%
%ADD22R,0.0550X0.0350*%
%ADD23R,0.1500X0.1670*%
%ADD24C,0.1000*%
%ADD25C,0.0787*%
%ADD26C,0.0512*%
%ADD27R,0.0669X0.0669*%
%ADD28R,0.0787X0.0787*%
%ADD29C,0.0590*%
%ADD30R,0.0590X0.0590*%
%ADD31C,0.0866*%
%ADD32C,0.0669*%
%ADD33R,0.0472X0.0118*%
%ADD34R,0.1181X0.1063*%
%ADD35R,0.0413X0.0236*%
%ADD36C,0.0187*%
%ADD37R,0.0500X0.0400*%
%ADD38R,0.0512X0.0354*%
%ADD39O,0.0650X0.0256*%
%ADD40O,0.0256X0.0650*%
%ADD41R,0.0820X0.1500*%
%ADD42R,0.4500X0.3500*%
%ADD43R,0.1701X0.1181*%
%ADD44R,0.0177X0.0649*%
%ADD45C,0.0800*%
%ADD46R,0.1000X0.0600*%
%ADD47R,0.2760X0.2760*%
%ADD48R,0.1500X0.0820*%
%ADD49R,0.3500X0.4500*%
%ADD50O,0.0700X0.0110*%
%ADD51R,0.0700X0.0110*%
%ADD52O,0.0110X0.0700*%
%ADD53R,0.0110X0.0700*%
%ADD54R,0.0250X0.0350*%
%ADD55R,0.0350X0.0250*%
%ADD56R,0.0197X0.0394*%
%ADD57C,0.0276*%
%ADD58C,0.0250*%
%ADD59C,0.0050*%
%ADD60C,0.0100*%
%ADD61C,0.0600*%
%ADD62C,0.0080*%
%ADD63C,0.0170*%
%ADD64C,0.0276*%
%ADD65C,0.0110*%
%ADD66C,0.0500*%
%ADD67C,0.0118*%
%ADD68C,0.0150*%
%ADD69C,0.0276*%
%ADD70C,0.0060*%
%ADD71C,0.0276*%
%ADD72C,0.1575*%
%ADD73C,0.1181*%
%ADD74C,0.1027*%
%ADD75R,0.1027X0.1027*%
%ADD76THERMAL76*%
%ADD77C,0.0787*%
%ADD78R,0.1027X0.1027*%
%ADD79C,0.1027*%
%ADD80C,0.0708*%
%ADD81R,0.0708X0.0708*%
%ADD82C,0.1024*%
%ADD83R,0.0827X0.0827*%
%ADD84C,0.0866*%
%ADD85THERMAL85*%
%ADD86R,0.0984X0.0984*%
%ADD87C,0.1100*%
%ADD88THERMAL88*%
%ADD89C,0.1100*%
%ADD90C,0.0050*%
%ADD91C,0.0394*%
%ADD92C,0.0394*%
%ADD93C,0.0050*%
%ADD94C,0.0394*%
%ADD95C,0.0050*%
%ADD96C,0.0590*%
*
G04 Plot Data ***
*
G54D59*
G01X0007283Y0016320D02*
X0007037D01*
X0007265Y0016275D02*
X0007037D01*
X0007250Y0016230D02*
X0007037D01*
X0007238Y0016185D02*
X0007037D01*
X0007228Y0016140D02*
X0007037D01*
X0007222Y0016095D02*
X0007037D01*
X0007218Y0016050D02*
X0007037D01*
X0007217Y0016005D02*
X0007037D01*
X0007219Y0015960D02*
X0007037D01*
X0007223Y0015915D02*
X0007037D01*
X0007230Y0015870D02*
X0007037D01*
X0007239Y0015825D02*
X0007037D01*
X0007252Y0015780D02*
X0007037D01*
X0007267Y0015735D02*
X0007037D01*
X0007285Y0015690D02*
X0007037D01*
X0007306Y0015645D02*
X0007037D01*
X0007331Y0015600D02*
X0007037D01*
X0007359Y0015555D02*
X0007037D01*
X0007392Y0015510D02*
X0007037D01*
X0007430Y0015465D02*
X0007037D01*
X0007474Y0015420D02*
X0007037D01*
X0007526Y0015375D02*
X0007037D01*
X0007589Y0015330D02*
X0007037D01*
X0007657Y0015285D02*
X0007037D01*
X0007657Y0015240D02*
X0007037D01*
X0007657Y0015195D02*
X0007037D01*
X0007657Y0015150D02*
X0007037D01*
X0007657Y0015105D02*
X0007037D01*
X0007617Y0015312D02*
Y0015020D01*
X0007572Y0015341D02*
Y0015020D01*
X0007527Y0015374D02*
Y0015020D01*
X0007482Y0015413D02*
Y0015020D01*
X0007437Y0015458D02*
Y0015020D01*
X0007392Y0015510D02*
Y0015020D01*
X0007347Y0015573D02*
Y0015020D01*
X0007302Y0015653D02*
Y0015020D01*
X0007257Y0015763D02*
Y0015020D01*
X0007212Y0016980D02*
Y0015020D01*
X0007167Y0016980D02*
Y0015020D01*
X0007122Y0016980D02*
Y0015020D01*
X0007077Y0016970D02*
Y0015030D01*
X0007257Y0016980D02*
Y0016252D01*
X0007657Y0016950D02*
X0007054D01*
X0007657Y0016905D02*
X0007037D01*
X0007657Y0016860D02*
X0007037D01*
X0007657Y0016815D02*
X0007037D01*
X0007657Y0016770D02*
X0007037D01*
X0007657Y0016725D02*
X0007037D01*
X0007609Y0016680D02*
X0007037D01*
X0007539Y0016635D02*
X0007037D01*
X0007482Y0016590D02*
X0007037D01*
X0007435Y0016545D02*
X0007037D01*
X0007395Y0016500D02*
X0007037D01*
X0007360Y0016455D02*
X0007037D01*
X0007330Y0016410D02*
X0007037D01*
X0007305Y0016365D02*
X0007037D01*
X0007617Y0016980D02*
Y0016684D01*
X0007572Y0016980D02*
Y0016657D01*
X0007527Y0016980D02*
Y0016626D01*
X0007482Y0016980D02*
Y0016589D01*
X0007437Y0016980D02*
Y0016547D01*
X0007392Y0016980D02*
Y0016496D01*
X0007347Y0016980D02*
Y0016435D01*
X0007302Y0016980D02*
Y0016359D01*
X0007657Y0015060D02*
X0007047D01*
X0007657Y0016710D02*
X0007647Y0016700D01*
X0007657Y0016980D02*
Y0016710D01*
Y0016980D02*
X0007117D01*
X0007115D01*
X0007037Y0016900D02*
Y0015100D01*
Y0015098D01*
X0007657Y0015020D02*
X0007117D01*
X0007657Y0015290D02*
Y0015020D01*
X0007217Y0016005D02*
Y0016000D01*
X0008978Y0016323D02*
X0008726D01*
X0008978Y0016278D02*
X0008745D01*
X0008978Y0016233D02*
X0008760D01*
X0008978Y0016188D02*
X0008773D01*
X0008978Y0016143D02*
X0008783D01*
X0008978Y0016098D02*
X0008791D01*
X0008978Y0016053D02*
X0008796D01*
X0008978Y0016008D02*
X0008798D01*
X0008978Y0015963D02*
X0008798D01*
X0008978Y0015918D02*
X0008794D01*
X0008978Y0015873D02*
X0008788D01*
X0008978Y0015828D02*
X0008780D01*
X0008978Y0015783D02*
X0008768D01*
X0008978Y0015738D02*
X0008754D01*
X0008978Y0015693D02*
X0008736D01*
X0008978Y0015648D02*
X0008715D01*
X0008978Y0015603D02*
X0008691D01*
X0008978Y0015558D02*
X0008662D01*
X0008978Y0015513D02*
X0008628D01*
X0008978Y0015468D02*
X0008590D01*
X0008978Y0015423D02*
X0008544D01*
X0008978Y0015378D02*
X0008489D01*
X0008978Y0015333D02*
X0008423D01*
X0008978Y0015288D02*
X0008358D01*
X0008978Y0015243D02*
X0008358D01*
X0008978Y0015198D02*
X0008358D01*
X0008978Y0015153D02*
X0008358D01*
X0008978Y0015108D02*
X0008358D01*
X0008938Y0016973D02*
Y0015033D01*
X0008893Y0016983D02*
Y0015023D01*
X0008848Y0016983D02*
Y0015023D01*
X0008803Y0016983D02*
Y0015023D01*
X0008758Y0015751D02*
Y0015023D01*
X0008713Y0015644D02*
Y0015023D01*
X0008668Y0015567D02*
Y0015023D01*
X0008623Y0015506D02*
Y0015023D01*
X0008578Y0015456D02*
Y0015023D01*
X0008533Y0015413D02*
Y0015023D01*
X0008488Y0015377D02*
Y0015023D01*
X0008443Y0015346D02*
Y0015023D01*
X0008398Y0015319D02*
Y0015023D01*
Y0016983D02*
Y0016690D01*
X0008961Y0016953D02*
X0008358D01*
X0008978Y0016908D02*
X0008358D01*
X0008978Y0016863D02*
X0008358D01*
X0008978Y0016818D02*
X0008358D01*
X0008978Y0016773D02*
X0008358D01*
X0008978Y0016728D02*
X0008358D01*
X0008978Y0016683D02*
X0008411D01*
X0008978Y0016638D02*
X0008476D01*
X0008978Y0016593D02*
X0008530D01*
X0008978Y0016548D02*
X0008576D01*
X0008978Y0016503D02*
X0008615D01*
X0008978Y0016458D02*
X0008649D01*
X0008978Y0016413D02*
X0008678D01*
X0008978Y0016368D02*
X0008704D01*
X0008758Y0016983D02*
Y0016239D01*
X0008713Y0016983D02*
Y0016350D01*
X0008668Y0016983D02*
Y0016429D01*
X0008623Y0016983D02*
Y0016493D01*
X0008578Y0016983D02*
Y0016545D01*
X0008533Y0016983D02*
Y0016590D01*
X0008488Y0016983D02*
Y0016628D01*
X0008443Y0016983D02*
Y0016662D01*
X0008968Y0015063D02*
X0008358D01*
X0008798Y0016003D02*
Y0015998D01*
X0008358Y0016983D02*
Y0016713D01*
X0008898Y0016983D02*
X0008358D01*
X0008900D02*
X0008898D01*
X0008978Y0016903D02*
Y0015103D01*
Y0015101D01*
X0008898Y0015023D02*
X0008358D01*
Y0015293D02*
Y0015023D01*
X0008368Y0015303D02*
X0008358Y0015293D01*
G01X0007115Y0016980D02*
G03X0007037Y0016902I0000000J0000078D01*
G03X0007037Y0016900I0000078J0000000D01*
Y0015098D02*
G03X0007115Y0015020I0000078J0000000D01*
G03X0007117Y0015020I0000000J0000078D01*
G01X0007217Y0016000D02*
G03X0007657Y0015290I0000820J0000017D01*
G01X0007647Y0016700D02*
G03X0007217Y0016005I0000346J0000695D01*
G01X0008368Y0015303D02*
G03X0008799Y0015998I0000345J0000695D01*
G01X0008798Y0016003D02*
G03X0008358Y0016713I0000820J0000017D01*
G01X0008978Y0016905D02*
G03X0008900Y0016983I0000078J0000000D01*
G01X0008978Y0016903D02*
G03X0008978Y0016905I0000078J0000002D01*
G01X0008900Y0015023D02*
G03X0008978Y0015101I0000000J0000078D01*
G01X0008898Y0015023D02*
G03X0008900Y0015023I0000002J0000078D01*
G54D60*
G01X0015740Y0015350D02*
Y0014000D01*
X0017650Y0015300D02*
X0015700D01*
X0017650Y0015210D02*
X0015700D01*
X0017650Y0015120D02*
X0015700D01*
X0017650Y0015030D02*
X0015700D01*
X0017650Y0014940D02*
X0015700D01*
X0017650Y0014850D02*
X0015700D01*
X0017650Y0014760D02*
X0015700D01*
X0017650Y0014670D02*
X0015700D01*
X0017650Y0014580D02*
X0015700D01*
X0017650Y0014490D02*
X0015700D01*
X0017650Y0014400D02*
X0015700D01*
X0017650Y0014310D02*
X0015700D01*
X0017650Y0014220D02*
X0015700D01*
X0017650Y0014130D02*
X0015700D01*
X0017090Y0015350D02*
Y0014000D01*
X0017000Y0015350D02*
Y0014000D01*
X0016910Y0015350D02*
Y0014000D01*
X0016820Y0015350D02*
Y0014000D01*
X0016730Y0015350D02*
Y0014000D01*
X0016640Y0015350D02*
Y0014000D01*
X0016550Y0015350D02*
Y0014000D01*
X0016460Y0015350D02*
Y0014000D01*
X0016370Y0015350D02*
Y0014000D01*
X0016280Y0015350D02*
Y0014000D01*
X0016190Y0015350D02*
Y0014000D01*
X0016100Y0015350D02*
Y0014000D01*
X0016010Y0015350D02*
Y0014000D01*
X0015920Y0015350D02*
Y0014000D01*
X0015830Y0015350D02*
Y0014000D01*
X0017650Y0014040D02*
X0015700D01*
Y0015350D02*
Y0014000D01*
X0017650Y0015350D02*
X0015700D01*
X0017650D02*
Y0014000D01*
X0015700D01*
X0017630Y0015350D02*
Y0014000D01*
X0017540Y0015350D02*
Y0014000D01*
X0017450Y0015350D02*
Y0014000D01*
X0017360Y0015350D02*
Y0014000D01*
X0017270Y0015350D02*
Y0014000D01*
X0017180Y0015350D02*
Y0014000D01*
X0017940Y0017050D02*
Y0015700D01*
X0019850Y0017000D02*
X0017900D01*
X0019850Y0016910D02*
X0017900D01*
X0019850Y0016820D02*
X0017900D01*
X0019850Y0016730D02*
X0017900D01*
X0019850Y0016640D02*
X0017900D01*
X0019850Y0016550D02*
X0017900D01*
X0019850Y0016460D02*
X0017900D01*
X0019850Y0016370D02*
X0017900D01*
X0019850Y0016280D02*
X0017900D01*
X0019850Y0016190D02*
X0017900D01*
X0019850Y0016100D02*
X0017900D01*
X0019850Y0016010D02*
X0017900D01*
X0019850Y0015920D02*
X0017900D01*
X0019850Y0015830D02*
X0017900D01*
X0019290Y0017050D02*
Y0015700D01*
X0019200Y0017050D02*
Y0015700D01*
X0019110Y0017050D02*
Y0015700D01*
X0019020Y0017050D02*
Y0015700D01*
X0018930Y0017050D02*
Y0015700D01*
X0018840Y0017050D02*
Y0015700D01*
X0018750Y0017050D02*
Y0015700D01*
X0018660Y0017050D02*
Y0015700D01*
X0018570Y0017050D02*
Y0015700D01*
X0018480Y0017050D02*
Y0015700D01*
X0018390Y0017050D02*
Y0015700D01*
X0018300Y0017050D02*
Y0015700D01*
X0018210Y0017050D02*
Y0015700D01*
X0018120Y0017050D02*
Y0015700D01*
X0018030Y0017050D02*
Y0015700D01*
X0019850Y0015740D02*
X0017900D01*
Y0017050D02*
Y0015700D01*
X0019850Y0017050D02*
X0017900D01*
X0019850D02*
Y0015700D01*
X0017900D01*
X0019830Y0017050D02*
Y0015700D01*
X0019740Y0017050D02*
Y0015700D01*
X0019650Y0017050D02*
Y0015700D01*
X0019560Y0017050D02*
Y0015700D01*
X0019470Y0017050D02*
Y0015700D01*
X0019380Y0017050D02*
Y0015700D01*
X0017940Y0015350D02*
Y0014000D01*
X0019850Y0015300D02*
X0017900D01*
X0019850Y0015210D02*
X0017900D01*
X0019850Y0015120D02*
X0017900D01*
X0019850Y0015030D02*
X0017900D01*
X0019850Y0014940D02*
X0017900D01*
X0019850Y0014850D02*
X0017900D01*
X0019850Y0014760D02*
X0017900D01*
X0019850Y0014670D02*
X0017900D01*
X0019850Y0014580D02*
X0017900D01*
X0019850Y0014490D02*
X0017900D01*
X0019850Y0014400D02*
X0017900D01*
X0019850Y0014310D02*
X0017900D01*
X0019850Y0014220D02*
X0017900D01*
X0019850Y0014130D02*
X0017900D01*
X0019290Y0015350D02*
Y0014000D01*
X0019200Y0015350D02*
Y0014000D01*
X0019110Y0015350D02*
Y0014000D01*
X0019020Y0015350D02*
Y0014000D01*
X0018930Y0015350D02*
Y0014000D01*
X0018840Y0015350D02*
Y0014000D01*
X0018750Y0015350D02*
Y0014000D01*
X0018660Y0015350D02*
Y0014000D01*
X0018570Y0015350D02*
Y0014000D01*
X0018480Y0015350D02*
Y0014000D01*
X0018390Y0015350D02*
Y0014000D01*
X0018300Y0015350D02*
Y0014000D01*
X0018210Y0015350D02*
Y0014000D01*
X0018120Y0015350D02*
Y0014000D01*
X0018030Y0015350D02*
Y0014000D01*
X0019850Y0014040D02*
X0017900D01*
Y0015350D02*
Y0014000D01*
X0019850Y0015350D02*
X0017900D01*
X0019850D02*
Y0014000D01*
X0017900D01*
X0019830Y0015350D02*
Y0014000D01*
X0019740Y0015350D02*
Y0014000D01*
X0019650Y0015350D02*
Y0014000D01*
X0019560Y0015350D02*
Y0014000D01*
X0019470Y0015350D02*
Y0014000D01*
X0019380Y0015350D02*
Y0014000D01*
X0015740Y0017050D02*
Y0015700D01*
X0017650Y0017000D02*
X0015700D01*
X0017650Y0016910D02*
X0015700D01*
X0017650Y0016820D02*
X0015700D01*
X0017650Y0016730D02*
X0015700D01*
X0017650Y0016640D02*
X0015700D01*
X0017650Y0016550D02*
X0015700D01*
X0017650Y0016460D02*
X0015700D01*
X0017650Y0016370D02*
X0015700D01*
X0017650Y0016280D02*
X0015700D01*
X0017650Y0016190D02*
X0015700D01*
X0017650Y0016100D02*
X0015700D01*
X0017650Y0016010D02*
X0015700D01*
X0017650Y0015920D02*
X0015700D01*
X0017650Y0015830D02*
X0015700D01*
X0017090Y0017050D02*
Y0015700D01*
X0017000Y0017050D02*
Y0015700D01*
X0016910Y0017050D02*
Y0015700D01*
X0016820Y0017050D02*
Y0015700D01*
X0016730Y0017050D02*
Y0015700D01*
X0016640Y0017050D02*
Y0015700D01*
X0016550Y0017050D02*
Y0015700D01*
X0016460Y0017050D02*
Y0015700D01*
X0016370Y0017050D02*
Y0015700D01*
X0016280Y0017050D02*
Y0015700D01*
X0016190Y0017050D02*
Y0015700D01*
X0016100Y0017050D02*
Y0015700D01*
X0016010Y0017050D02*
Y0015700D01*
X0015920Y0017050D02*
Y0015700D01*
X0015830Y0017050D02*
Y0015700D01*
X0017650Y0015740D02*
X0015700D01*
X0017650Y0015700D02*
X0015700D01*
X0017650Y0017050D02*
Y0015700D01*
Y0017050D02*
X0015700D01*
Y0015700D01*
X0017630Y0017050D02*
Y0015700D01*
X0017540Y0017050D02*
Y0015700D01*
X0017450Y0017050D02*
Y0015700D01*
X0017360Y0017050D02*
Y0015700D01*
X0017270Y0017050D02*
Y0015700D01*
X0017180Y0017050D02*
Y0015700D01*
X0032250Y0004090D02*
X0030900D01*
X0032250Y0004000D02*
X0030900D01*
X0032250Y0003910D02*
X0030900D01*
X0032250Y0003820D02*
X0030900D01*
X0032250Y0003730D02*
X0030900D01*
X0032250Y0003640D02*
X0030900D01*
X0032250Y0003550D02*
X0030900D01*
X0032250Y0003460D02*
X0030900D01*
X0032250Y0003370D02*
X0030900D01*
X0032250Y0003280D02*
X0030900D01*
X0032250Y0003190D02*
X0030900D01*
X0032250Y0003100D02*
X0030900D01*
X0032250Y0003010D02*
X0030900D01*
X0032250Y0002920D02*
X0030900D01*
X0032250Y0002830D02*
X0030900D01*
X0031660Y0004650D02*
Y0002700D01*
X0031570Y0004650D02*
Y0002700D01*
X0031480Y0004650D02*
Y0002700D01*
X0031390Y0004650D02*
Y0002700D01*
X0031300Y0004650D02*
Y0002700D01*
X0031210Y0004650D02*
Y0002700D01*
X0031120Y0004650D02*
Y0002700D01*
X0031030Y0004650D02*
Y0002700D01*
X0030940Y0004650D02*
Y0002700D01*
X0032250Y0004630D02*
X0030900D01*
X0032250Y0004540D02*
X0030900D01*
X0032250Y0004450D02*
X0030900D01*
X0032250Y0004360D02*
X0030900D01*
X0032250Y0004270D02*
X0030900D01*
X0032250Y0004180D02*
X0030900D01*
X0032250Y0002740D02*
X0030900D01*
X0032250Y0002700D02*
X0030900D01*
Y0004650D02*
Y0002700D01*
X0032250Y0004650D02*
X0030900D01*
X0032250D02*
Y0002700D01*
X0032200Y0004650D02*
Y0002700D01*
X0032110Y0004650D02*
Y0002700D01*
X0032020Y0004650D02*
Y0002700D01*
X0031930Y0004650D02*
Y0002700D01*
X0031840Y0004650D02*
Y0002700D01*
X0031750Y0004650D02*
Y0002700D01*
X0030550Y0006290D02*
X0029200D01*
X0030550Y0006200D02*
X0029200D01*
X0030550Y0006110D02*
X0029200D01*
X0030550Y0006020D02*
X0029200D01*
X0030550Y0005930D02*
X0029200D01*
X0030550Y0005840D02*
X0029200D01*
X0030550Y0005750D02*
X0029200D01*
X0030550Y0005660D02*
X0029200D01*
X0030550Y0005570D02*
X0029200D01*
X0030550Y0005480D02*
X0029200D01*
X0030550Y0005390D02*
X0029200D01*
X0030550Y0005300D02*
X0029200D01*
X0030550Y0005210D02*
X0029200D01*
X0030550Y0005120D02*
X0029200D01*
X0030550Y0005030D02*
X0029200D01*
X0029960Y0006850D02*
Y0004900D01*
X0029870Y0006850D02*
Y0004900D01*
X0029780Y0006850D02*
Y0004900D01*
X0029690Y0006850D02*
Y0004900D01*
X0029600Y0006850D02*
Y0004900D01*
X0029510Y0006850D02*
Y0004900D01*
X0029420Y0006850D02*
Y0004900D01*
X0029330Y0006850D02*
Y0004900D01*
X0029240Y0006850D02*
Y0004900D01*
X0030550Y0006830D02*
X0029200D01*
X0030550Y0006740D02*
X0029200D01*
X0030550Y0006650D02*
X0029200D01*
X0030550Y0006560D02*
X0029200D01*
X0030550Y0006470D02*
X0029200D01*
X0030550Y0006380D02*
X0029200D01*
X0030550Y0004940D02*
X0029200D01*
X0030550Y0004900D02*
X0029200D01*
Y0006850D02*
Y0004900D01*
X0030550Y0006850D02*
X0029200D01*
X0030550D02*
Y0004900D01*
X0030500Y0006850D02*
Y0004900D01*
X0030410Y0006850D02*
Y0004900D01*
X0030320Y0006850D02*
Y0004900D01*
X0030230Y0006850D02*
Y0004900D01*
X0030140Y0006850D02*
Y0004900D01*
X0030050Y0006850D02*
Y0004900D01*
X0032250Y0006290D02*
X0030900D01*
X0032250Y0006200D02*
X0030900D01*
X0032250Y0006110D02*
X0030900D01*
X0032250Y0006020D02*
X0030900D01*
X0032250Y0005930D02*
X0030900D01*
X0032250Y0005840D02*
X0030900D01*
X0032250Y0005750D02*
X0030900D01*
X0032250Y0005660D02*
X0030900D01*
X0032250Y0005570D02*
X0030900D01*
X0032250Y0005480D02*
X0030900D01*
X0032250Y0005390D02*
X0030900D01*
X0032250Y0005300D02*
X0030900D01*
X0032250Y0005210D02*
X0030900D01*
X0032250Y0005120D02*
X0030900D01*
X0032250Y0005030D02*
X0030900D01*
X0031660Y0006850D02*
Y0004900D01*
X0031570Y0006850D02*
Y0004900D01*
X0031480Y0006850D02*
Y0004900D01*
X0031390Y0006850D02*
Y0004900D01*
X0031300Y0006850D02*
Y0004900D01*
X0031210Y0006850D02*
Y0004900D01*
X0031120Y0006850D02*
Y0004900D01*
X0031030Y0006850D02*
Y0004900D01*
X0030940Y0006850D02*
Y0004900D01*
X0032250Y0006830D02*
X0030900D01*
X0032250Y0006740D02*
X0030900D01*
X0032250Y0006650D02*
X0030900D01*
X0032250Y0006560D02*
X0030900D01*
X0032250Y0006470D02*
X0030900D01*
X0032250Y0006380D02*
X0030900D01*
X0032250Y0004940D02*
X0030900D01*
X0032250Y0004900D02*
X0030900D01*
Y0006850D02*
Y0004900D01*
X0032250Y0006850D02*
X0030900D01*
X0032250D02*
Y0004900D01*
X0032200Y0006850D02*
Y0004900D01*
X0032110Y0006850D02*
Y0004900D01*
X0032020Y0006850D02*
Y0004900D01*
X0031930Y0006850D02*
Y0004900D01*
X0031840Y0006850D02*
Y0004900D01*
X0031750Y0006850D02*
Y0004900D01*
X0030550Y0004090D02*
X0029200D01*
X0030550Y0004000D02*
X0029200D01*
X0030550Y0003910D02*
X0029200D01*
X0030550Y0003820D02*
X0029200D01*
X0030550Y0003730D02*
X0029200D01*
X0030550Y0003640D02*
X0029200D01*
X0030550Y0003550D02*
X0029200D01*
X0030550Y0003460D02*
X0029200D01*
X0030550Y0003370D02*
X0029200D01*
X0030550Y0003280D02*
X0029200D01*
X0030550Y0003190D02*
X0029200D01*
X0030550Y0003100D02*
X0029200D01*
X0030550Y0003010D02*
X0029200D01*
X0030550Y0002920D02*
X0029200D01*
X0030550Y0002830D02*
X0029200D01*
X0029960Y0004650D02*
Y0002700D01*
X0029870Y0004650D02*
Y0002700D01*
X0029780Y0004650D02*
Y0002700D01*
X0029690Y0004650D02*
Y0002700D01*
X0029600Y0004650D02*
Y0002700D01*
X0029510Y0004650D02*
Y0002700D01*
X0029420Y0004650D02*
Y0002700D01*
X0029330Y0004650D02*
Y0002700D01*
X0029240Y0004650D02*
Y0002700D01*
X0030550Y0004630D02*
X0029200D01*
X0030550Y0004540D02*
X0029200D01*
X0030550Y0004450D02*
X0029200D01*
X0030550Y0004360D02*
X0029200D01*
X0030550Y0004270D02*
X0029200D01*
X0030550Y0004180D02*
X0029200D01*
X0030550Y0002740D02*
X0029200D01*
X0030550Y0004650D02*
Y0002700D01*
Y0004650D02*
X0029200D01*
Y0002700D01*
X0030550D02*
X0029200D01*
X0030500Y0004650D02*
Y0002700D01*
X0030410Y0004650D02*
Y0002700D01*
X0030320Y0004650D02*
Y0002700D01*
X0030230Y0004650D02*
Y0002700D01*
X0030140Y0004650D02*
Y0002700D01*
X0030050Y0004650D02*
Y0002700D01*
X0042600Y0006180D02*
X0041700D01*
X0042600Y0006090D02*
X0041700D01*
X0042600Y0006000D02*
X0041700D01*
X0042600Y0005910D02*
X0041700D01*
X0042600Y0005820D02*
X0041700D01*
X0042600Y0005730D02*
X0041700D01*
X0042600Y0005640D02*
X0041700D01*
X0042600Y0005550D02*
X0041700D01*
X0042600Y0005460D02*
X0041700D01*
X0042600Y0005370D02*
X0041700D01*
X0042600Y0005280D02*
X0041700D01*
X0042550Y0006200D02*
Y0005150D01*
X0042460Y0006200D02*
Y0005150D01*
X0042370Y0006200D02*
Y0005150D01*
X0042280Y0006200D02*
Y0005150D01*
X0042190Y0006200D02*
Y0005150D01*
X0042100Y0006200D02*
Y0005150D01*
X0042010Y0006200D02*
Y0005150D01*
X0041920Y0006200D02*
Y0005150D01*
X0041830Y0006200D02*
Y0005150D01*
X0041740Y0006200D02*
Y0005150D01*
X0042600Y0005190D02*
X0041700D01*
Y0006200D02*
Y0005150D01*
X0042600D02*
X0041700D01*
X0042600Y0006200D02*
Y0005150D01*
Y0006200D02*
X0041700D01*
X0043850Y0004880D02*
X0042950D01*
X0043850Y0004790D02*
X0042950D01*
X0043850Y0004700D02*
X0042950D01*
X0043850Y0004610D02*
X0042950D01*
X0043850Y0004520D02*
X0042950D01*
X0043850Y0004430D02*
X0042950D01*
X0043850Y0004340D02*
X0042950D01*
X0043850Y0004250D02*
X0042950D01*
X0043850Y0004160D02*
X0042950D01*
X0043850Y0004070D02*
X0042950D01*
X0043850Y0003980D02*
X0042950D01*
X0043800Y0004900D02*
Y0003850D01*
X0043710Y0004900D02*
Y0003850D01*
X0043620Y0004900D02*
Y0003850D01*
X0043530Y0004900D02*
Y0003850D01*
X0043440Y0004900D02*
Y0003850D01*
X0043350Y0004900D02*
Y0003850D01*
X0043260Y0004900D02*
Y0003850D01*
X0043170Y0004900D02*
Y0003850D01*
X0043080Y0004900D02*
Y0003850D01*
X0042990Y0004900D02*
Y0003850D01*
X0043850Y0003890D02*
X0042950D01*
Y0004900D02*
Y0003850D01*
X0043850D02*
X0042950D01*
X0043850Y0004900D02*
Y0003850D01*
Y0004900D02*
X0042950D01*
X0042600Y0004880D02*
X0041700D01*
X0042600Y0004790D02*
X0041700D01*
X0042600Y0004700D02*
X0041700D01*
X0042600Y0004610D02*
X0041700D01*
X0042600Y0004520D02*
X0041700D01*
X0042600Y0004430D02*
X0041700D01*
X0042600Y0004340D02*
X0041700D01*
X0042600Y0004250D02*
X0041700D01*
X0042600Y0004160D02*
X0041700D01*
X0042600Y0004070D02*
X0041700D01*
X0042600Y0003980D02*
X0041700D01*
X0042550Y0004900D02*
Y0003850D01*
X0042460Y0004900D02*
Y0003850D01*
X0042370Y0004900D02*
Y0003850D01*
X0042280Y0004900D02*
Y0003850D01*
X0042190Y0004900D02*
Y0003850D01*
X0042100Y0004900D02*
Y0003850D01*
X0042010Y0004900D02*
Y0003850D01*
X0041920Y0004900D02*
Y0003850D01*
X0041830Y0004900D02*
Y0003850D01*
X0041740Y0004900D02*
Y0003850D01*
X0042600Y0003890D02*
X0041700D01*
X0042600Y0004900D02*
X0041700D01*
X0042600D02*
Y0003850D01*
X0041700D01*
Y0004900D02*
Y0003850D01*
X0043850Y0006180D02*
X0042950D01*
X0043850Y0006090D02*
X0042950D01*
X0043850Y0006000D02*
X0042950D01*
X0043850Y0005910D02*
X0042950D01*
X0043850Y0005820D02*
X0042950D01*
X0043850Y0005730D02*
X0042950D01*
X0043850Y0005640D02*
X0042950D01*
X0043850Y0005550D02*
X0042950D01*
X0043850Y0005460D02*
X0042950D01*
X0043850Y0005370D02*
X0042950D01*
X0043850Y0005280D02*
X0042950D01*
X0043800Y0006200D02*
Y0005150D01*
X0043710Y0006200D02*
Y0005150D01*
X0043620Y0006200D02*
Y0005150D01*
X0043530Y0006200D02*
Y0005150D01*
X0043440Y0006200D02*
Y0005150D01*
X0043350Y0006200D02*
Y0005150D01*
X0043260Y0006200D02*
Y0005150D01*
X0043170Y0006200D02*
Y0005150D01*
X0043080Y0006200D02*
Y0005150D01*
X0042990Y0006200D02*
Y0005150D01*
X0043850Y0005190D02*
X0042950D01*
Y0006200D02*
Y0005150D01*
X0043850D02*
X0042950D01*
X0043850Y0006200D02*
Y0005150D01*
Y0006200D02*
X0042950D01*
X0009490Y0006350D02*
Y0005000D01*
X0011400Y0006300D02*
X0009450D01*
X0011400Y0006210D02*
X0009450D01*
X0011400Y0006120D02*
X0009450D01*
X0011400Y0006030D02*
X0009450D01*
X0011400Y0005940D02*
X0009450D01*
X0011400Y0005850D02*
X0009450D01*
X0011400Y0005760D02*
X0009450D01*
X0011400Y0005670D02*
X0009450D01*
X0011400Y0005580D02*
X0009450D01*
X0011400Y0005490D02*
X0009450D01*
X0011400Y0005400D02*
X0009450D01*
X0011400Y0005310D02*
X0009450D01*
X0011400Y0005220D02*
X0009450D01*
X0011400Y0005130D02*
X0009450D01*
X0010840Y0006350D02*
Y0005000D01*
X0010750Y0006350D02*
Y0005000D01*
X0010660Y0006350D02*
Y0005000D01*
X0010570Y0006350D02*
Y0005000D01*
X0010480Y0006350D02*
Y0005000D01*
X0010390Y0006350D02*
Y0005000D01*
X0010300Y0006350D02*
Y0005000D01*
X0010210Y0006350D02*
Y0005000D01*
X0010120Y0006350D02*
Y0005000D01*
X0010030Y0006350D02*
Y0005000D01*
X0009940Y0006350D02*
Y0005000D01*
X0009850Y0006350D02*
Y0005000D01*
X0009760Y0006350D02*
Y0005000D01*
X0009670Y0006350D02*
Y0005000D01*
X0009580Y0006350D02*
Y0005000D01*
X0011400Y0005040D02*
X0009450D01*
Y0006350D02*
Y0005000D01*
X0011400Y0006350D02*
X0009450D01*
X0011400D02*
Y0005000D01*
X0009450D01*
X0011380Y0006350D02*
Y0005000D01*
X0011290Y0006350D02*
Y0005000D01*
X0011200Y0006350D02*
Y0005000D01*
X0011110Y0006350D02*
Y0005000D01*
X0011020Y0006350D02*
Y0005000D01*
X0010930Y0006350D02*
Y0005000D01*
X0011690Y0008050D02*
Y0006700D01*
X0013600Y0008000D02*
X0011650D01*
X0013600Y0007910D02*
X0011650D01*
X0013600Y0007820D02*
X0011650D01*
X0013600Y0007730D02*
X0011650D01*
X0013600Y0007640D02*
X0011650D01*
X0013600Y0007550D02*
X0011650D01*
X0013600Y0007460D02*
X0011650D01*
X0013600Y0007370D02*
X0011650D01*
X0013600Y0007280D02*
X0011650D01*
X0013600Y0007190D02*
X0011650D01*
X0013600Y0007100D02*
X0011650D01*
X0013600Y0007010D02*
X0011650D01*
X0013600Y0006920D02*
X0011650D01*
X0013600Y0006830D02*
X0011650D01*
X0013040Y0008050D02*
Y0006700D01*
X0012950Y0008050D02*
Y0006700D01*
X0012860Y0008050D02*
Y0006700D01*
X0012770Y0008050D02*
Y0006700D01*
X0012680Y0008050D02*
Y0006700D01*
X0012590Y0008050D02*
Y0006700D01*
X0012500Y0008050D02*
Y0006700D01*
X0012410Y0008050D02*
Y0006700D01*
X0012320Y0008050D02*
Y0006700D01*
X0012230Y0008050D02*
Y0006700D01*
X0012140Y0008050D02*
Y0006700D01*
X0012050Y0008050D02*
Y0006700D01*
X0011960Y0008050D02*
Y0006700D01*
X0011870Y0008050D02*
Y0006700D01*
X0011780Y0008050D02*
Y0006700D01*
X0013600Y0006740D02*
X0011650D01*
Y0008050D02*
Y0006700D01*
X0013600Y0008050D02*
X0011650D01*
X0013600D02*
Y0006700D01*
X0011650D01*
X0013580Y0008050D02*
Y0006700D01*
X0013490Y0008050D02*
Y0006700D01*
X0013400Y0008050D02*
Y0006700D01*
X0013310Y0008050D02*
Y0006700D01*
X0013220Y0008050D02*
Y0006700D01*
X0013130Y0008050D02*
Y0006700D01*
X0011690Y0006350D02*
Y0005000D01*
X0013600Y0006300D02*
X0011650D01*
X0013600Y0006210D02*
X0011650D01*
X0013600Y0006120D02*
X0011650D01*
X0013600Y0006030D02*
X0011650D01*
X0013600Y0005940D02*
X0011650D01*
X0013600Y0005850D02*
X0011650D01*
X0013600Y0005760D02*
X0011650D01*
X0013600Y0005670D02*
X0011650D01*
X0013600Y0005580D02*
X0011650D01*
X0013600Y0005490D02*
X0011650D01*
X0013600Y0005400D02*
X0011650D01*
X0013600Y0005310D02*
X0011650D01*
X0013600Y0005220D02*
X0011650D01*
X0013600Y0005130D02*
X0011650D01*
X0013040Y0006350D02*
Y0005000D01*
X0012950Y0006350D02*
Y0005000D01*
X0012860Y0006350D02*
Y0005000D01*
X0012770Y0006350D02*
Y0005000D01*
X0012680Y0006350D02*
Y0005000D01*
X0012590Y0006350D02*
Y0005000D01*
X0012500Y0006350D02*
Y0005000D01*
X0012410Y0006350D02*
Y0005000D01*
X0012320Y0006350D02*
Y0005000D01*
X0012230Y0006350D02*
Y0005000D01*
X0012140Y0006350D02*
Y0005000D01*
X0012050Y0006350D02*
Y0005000D01*
X0011960Y0006350D02*
Y0005000D01*
X0011870Y0006350D02*
Y0005000D01*
X0011780Y0006350D02*
Y0005000D01*
X0013600Y0005040D02*
X0011650D01*
Y0006350D02*
Y0005000D01*
X0013600Y0006350D02*
X0011650D01*
X0013600D02*
Y0005000D01*
X0011650D01*
X0013580Y0006350D02*
Y0005000D01*
X0013490Y0006350D02*
Y0005000D01*
X0013400Y0006350D02*
Y0005000D01*
X0013310Y0006350D02*
Y0005000D01*
X0013220Y0006350D02*
Y0005000D01*
X0013130Y0006350D02*
Y0005000D01*
X0009490Y0008050D02*
Y0006700D01*
X0011400Y0008000D02*
X0009450D01*
X0011400Y0007910D02*
X0009450D01*
X0011400Y0007820D02*
X0009450D01*
X0011400Y0007730D02*
X0009450D01*
X0011400Y0007640D02*
X0009450D01*
X0011400Y0007550D02*
X0009450D01*
X0011400Y0007460D02*
X0009450D01*
X0011400Y0007370D02*
X0009450D01*
X0011400Y0007280D02*
X0009450D01*
X0011400Y0007190D02*
X0009450D01*
X0011400Y0007100D02*
X0009450D01*
X0011400Y0007010D02*
X0009450D01*
X0011400Y0006920D02*
X0009450D01*
X0011400Y0006830D02*
X0009450D01*
X0010840Y0008050D02*
Y0006700D01*
X0010750Y0008050D02*
Y0006700D01*
X0010660Y0008050D02*
Y0006700D01*
X0010570Y0008050D02*
Y0006700D01*
X0010480Y0008050D02*
Y0006700D01*
X0010390Y0008050D02*
Y0006700D01*
X0010300Y0008050D02*
Y0006700D01*
X0010210Y0008050D02*
Y0006700D01*
X0010120Y0008050D02*
Y0006700D01*
X0010030Y0008050D02*
Y0006700D01*
X0009940Y0008050D02*
Y0006700D01*
X0009850Y0008050D02*
Y0006700D01*
X0009760Y0008050D02*
Y0006700D01*
X0009670Y0008050D02*
Y0006700D01*
X0009580Y0008050D02*
Y0006700D01*
X0011400Y0006740D02*
X0009450D01*
X0011400Y0006700D02*
X0009450D01*
X0011400Y0008050D02*
Y0006700D01*
Y0008050D02*
X0009450D01*
Y0006700D01*
X0011380Y0008050D02*
Y0006700D01*
X0011290Y0008050D02*
Y0006700D01*
X0011200Y0008050D02*
Y0006700D01*
X0011110Y0008050D02*
Y0006700D01*
X0011020Y0008050D02*
Y0006700D01*
X0010930Y0008050D02*
Y0006700D01*
X0015740Y0006350D02*
Y0005000D01*
X0017650Y0006300D02*
X0015700D01*
X0017650Y0006210D02*
X0015700D01*
X0017650Y0006120D02*
X0015700D01*
X0017650Y0006030D02*
X0015700D01*
X0017650Y0005940D02*
X0015700D01*
X0017650Y0005850D02*
X0015700D01*
X0017650Y0005760D02*
X0015700D01*
X0017650Y0005670D02*
X0015700D01*
X0017650Y0005580D02*
X0015700D01*
X0017650Y0005490D02*
X0015700D01*
X0017650Y0005400D02*
X0015700D01*
X0017650Y0005310D02*
X0015700D01*
X0017650Y0005220D02*
X0015700D01*
X0017650Y0005130D02*
X0015700D01*
X0017090Y0006350D02*
Y0005000D01*
X0017000Y0006350D02*
Y0005000D01*
X0016910Y0006350D02*
Y0005000D01*
X0016820Y0006350D02*
Y0005000D01*
X0016730Y0006350D02*
Y0005000D01*
X0016640Y0006350D02*
Y0005000D01*
X0016550Y0006350D02*
Y0005000D01*
X0016460Y0006350D02*
Y0005000D01*
X0016370Y0006350D02*
Y0005000D01*
X0016280Y0006350D02*
Y0005000D01*
X0016190Y0006350D02*
Y0005000D01*
X0016100Y0006350D02*
Y0005000D01*
X0016010Y0006350D02*
Y0005000D01*
X0015920Y0006350D02*
Y0005000D01*
X0015830Y0006350D02*
Y0005000D01*
X0017650Y0005040D02*
X0015700D01*
Y0006350D02*
Y0005000D01*
X0017650Y0006350D02*
X0015700D01*
X0017650D02*
Y0005000D01*
X0015700D01*
X0017630Y0006350D02*
Y0005000D01*
X0017540Y0006350D02*
Y0005000D01*
X0017450Y0006350D02*
Y0005000D01*
X0017360Y0006350D02*
Y0005000D01*
X0017270Y0006350D02*
Y0005000D01*
X0017180Y0006350D02*
Y0005000D01*
X0017940Y0008050D02*
Y0006700D01*
X0019850Y0008000D02*
X0017900D01*
X0019850Y0007910D02*
X0017900D01*
X0019850Y0007820D02*
X0017900D01*
X0019850Y0007730D02*
X0017900D01*
X0019850Y0007640D02*
X0017900D01*
X0019850Y0007550D02*
X0017900D01*
X0019850Y0007460D02*
X0017900D01*
X0019850Y0007370D02*
X0017900D01*
X0019850Y0007280D02*
X0017900D01*
X0019850Y0007190D02*
X0017900D01*
X0019850Y0007100D02*
X0017900D01*
X0019850Y0007010D02*
X0017900D01*
X0019850Y0006920D02*
X0017900D01*
X0019850Y0006830D02*
X0017900D01*
X0019290Y0008050D02*
Y0006700D01*
X0019200Y0008050D02*
Y0006700D01*
X0019110Y0008050D02*
Y0006700D01*
X0019020Y0008050D02*
Y0006700D01*
X0018930Y0008050D02*
Y0006700D01*
X0018840Y0008050D02*
Y0006700D01*
X0018750Y0008050D02*
Y0006700D01*
X0018660Y0008050D02*
Y0006700D01*
X0018570Y0008050D02*
Y0006700D01*
X0018480Y0008050D02*
Y0006700D01*
X0018390Y0008050D02*
Y0006700D01*
X0018300Y0008050D02*
Y0006700D01*
X0018210Y0008050D02*
Y0006700D01*
X0018120Y0008050D02*
Y0006700D01*
X0018030Y0008050D02*
Y0006700D01*
X0019850Y0006740D02*
X0017900D01*
Y0008050D02*
Y0006700D01*
X0019850Y0008050D02*
X0017900D01*
X0019850D02*
Y0006700D01*
X0017900D01*
X0019830Y0008050D02*
Y0006700D01*
X0019740Y0008050D02*
Y0006700D01*
X0019650Y0008050D02*
Y0006700D01*
X0019560Y0008050D02*
Y0006700D01*
X0019470Y0008050D02*
Y0006700D01*
X0019380Y0008050D02*
Y0006700D01*
X0017940Y0006350D02*
Y0005000D01*
X0019850Y0006300D02*
X0017900D01*
X0019850Y0006210D02*
X0017900D01*
X0019850Y0006120D02*
X0017900D01*
X0019850Y0006030D02*
X0017900D01*
X0019850Y0005940D02*
X0017900D01*
X0019850Y0005850D02*
X0017900D01*
X0019850Y0005760D02*
X0017900D01*
X0019850Y0005670D02*
X0017900D01*
X0019850Y0005580D02*
X0017900D01*
X0019850Y0005490D02*
X0017900D01*
X0019850Y0005400D02*
X0017900D01*
X0019850Y0005310D02*
X0017900D01*
X0019850Y0005220D02*
X0017900D01*
X0019850Y0005130D02*
X0017900D01*
X0019290Y0006350D02*
Y0005000D01*
X0019200Y0006350D02*
Y0005000D01*
X0019110Y0006350D02*
Y0005000D01*
X0019020Y0006350D02*
Y0005000D01*
X0018930Y0006350D02*
Y0005000D01*
X0018840Y0006350D02*
Y0005000D01*
X0018750Y0006350D02*
Y0005000D01*
X0018660Y0006350D02*
Y0005000D01*
X0018570Y0006350D02*
Y0005000D01*
X0018480Y0006350D02*
Y0005000D01*
X0018390Y0006350D02*
Y0005000D01*
X0018300Y0006350D02*
Y0005000D01*
X0018210Y0006350D02*
Y0005000D01*
X0018120Y0006350D02*
Y0005000D01*
X0018030Y0006350D02*
Y0005000D01*
X0019850Y0005040D02*
X0017900D01*
Y0006350D02*
Y0005000D01*
X0019850Y0006350D02*
X0017900D01*
X0019850D02*
Y0005000D01*
X0017900D01*
X0019830Y0006350D02*
Y0005000D01*
X0019740Y0006350D02*
Y0005000D01*
X0019650Y0006350D02*
Y0005000D01*
X0019560Y0006350D02*
Y0005000D01*
X0019470Y0006350D02*
Y0005000D01*
X0019380Y0006350D02*
Y0005000D01*
X0015740Y0008050D02*
Y0006700D01*
X0017650Y0008000D02*
X0015700D01*
X0017650Y0007910D02*
X0015700D01*
X0017650Y0007820D02*
X0015700D01*
X0017650Y0007730D02*
X0015700D01*
X0017650Y0007640D02*
X0015700D01*
X0017650Y0007550D02*
X0015700D01*
X0017650Y0007460D02*
X0015700D01*
X0017650Y0007370D02*
X0015700D01*
X0017650Y0007280D02*
X0015700D01*
X0017650Y0007190D02*
X0015700D01*
X0017650Y0007100D02*
X0015700D01*
X0017650Y0007010D02*
X0015700D01*
X0017650Y0006920D02*
X0015700D01*
X0017650Y0006830D02*
X0015700D01*
X0017090Y0008050D02*
Y0006700D01*
X0017000Y0008050D02*
Y0006700D01*
X0016910Y0008050D02*
Y0006700D01*
X0016820Y0008050D02*
Y0006700D01*
X0016730Y0008050D02*
Y0006700D01*
X0016640Y0008050D02*
Y0006700D01*
X0016550Y0008050D02*
Y0006700D01*
X0016460Y0008050D02*
Y0006700D01*
X0016370Y0008050D02*
Y0006700D01*
X0016280Y0008050D02*
Y0006700D01*
X0016190Y0008050D02*
Y0006700D01*
X0016100Y0008050D02*
Y0006700D01*
X0016010Y0008050D02*
Y0006700D01*
X0015920Y0008050D02*
Y0006700D01*
X0015830Y0008050D02*
Y0006700D01*
X0017650Y0006740D02*
X0015700D01*
X0017650Y0006700D02*
X0015700D01*
X0017650Y0008050D02*
Y0006700D01*
Y0008050D02*
X0015700D01*
Y0006700D01*
X0017630Y0008050D02*
Y0006700D01*
X0017540Y0008050D02*
Y0006700D01*
X0017450Y0008050D02*
Y0006700D01*
X0017360Y0008050D02*
Y0006700D01*
X0017270Y0008050D02*
Y0006700D01*
X0017180Y0008050D02*
Y0006700D01*
G54D12*
X0025000Y0003970D03*
Y0004530D03*
X0002000Y0008470D03*
Y0009030D03*
X0025750Y0017030D03*
Y0016470D03*
Y0013970D03*
Y0014530D03*
X0026500Y0013780D03*
Y0013220D03*
Y0011970D03*
Y0012530D03*
X0027750Y0015530D03*
Y0014970D03*
G54D13*
X0037000Y0005650D03*
Y0004350D03*
X0021000Y0010850D03*
Y0012150D03*
X0040000Y0002900D03*
Y0001600D03*
X0011250Y0012150D03*
Y0010850D03*
X0012500Y0000650D03*
Y-0000650D03*
X0018750Y0000650D03*
Y-0000650D03*
G54D14*
X0052000Y-0000470D03*
Y-0001030D03*
X0052750D03*
Y-0000470D03*
X0055500D03*
Y-0001030D03*
X0056250D03*
Y-0000470D03*
X0049000D03*
Y-0001030D03*
X0049750D03*
Y-0000470D03*
X0048250Y0000220D03*
Y0000780D03*
Y-0001030D03*
Y-0000470D03*
X0033500Y0010220D03*
Y0010780D03*
X0032000D03*
Y0010220D03*
X0056500Y0004470D03*
Y0005030D03*
X0057500Y0004470D03*
Y0005030D03*
X0058500Y0004470D03*
Y0005030D03*
X0059500Y0004470D03*
Y0005030D03*
X0060500Y0004470D03*
Y0005030D03*
X0062500Y0004470D03*
Y0005030D03*
X0061500Y0004470D03*
Y0005030D03*
X0047500Y0005720D03*
Y0006280D03*
X0048250D03*
Y0005720D03*
X0046500Y0000530D03*
Y-0000030D03*
X0071000Y0007780D03*
Y0007220D03*
X0072250D03*
Y0007780D03*
X0071000Y0004720D03*
Y0005280D03*
X0072250Y0006530D03*
Y0005970D03*
Y0005280D03*
Y0004720D03*
X0068500Y0007780D03*
Y0007220D03*
X0069750D03*
Y0007780D03*
X0068500Y0004720D03*
Y0005280D03*
X0069750Y0006530D03*
Y0005970D03*
Y0005280D03*
Y0004720D03*
X0066000Y0007780D03*
Y0007220D03*
X0067250D03*
Y0007780D03*
X0066000Y0004720D03*
Y0005280D03*
X0067250Y0006530D03*
Y0005970D03*
Y0005280D03*
Y0004720D03*
X0063500Y0007220D03*
Y0007780D03*
X0064750Y0007220D03*
Y0007780D03*
X0063500Y0004720D03*
Y0005280D03*
X0064750Y0006530D03*
Y0005970D03*
Y0005280D03*
Y0004720D03*
X0063250Y0001780D03*
Y0001220D03*
Y0000030D03*
Y-0000530D03*
X0066250Y0001220D03*
Y0001780D03*
Y-0000220D03*
Y-0000780D03*
X0067500Y0001780D03*
Y0001220D03*
Y-0000220D03*
Y-0000780D03*
X0070750Y0001780D03*
Y0001220D03*
Y-0000220D03*
Y-0000780D03*
X0014250Y0015280D03*
Y0014720D03*
X0002750Y0006970D03*
Y0007530D03*
X0004250Y0009030D03*
Y0008470D03*
X0003500Y0006970D03*
Y0007530D03*
X0005000Y0006970D03*
Y0007530D03*
X0003500Y0009030D03*
Y0008470D03*
X0005000Y0009030D03*
Y0008470D03*
X0000500Y0009030D03*
Y0008470D03*
X0001250Y0009030D03*
Y0008470D03*
X0004250Y0006970D03*
Y0007530D03*
X0025500Y0006280D03*
Y0005720D03*
Y0006970D03*
Y0007530D03*
X0024250Y0004530D03*
Y0003970D03*
X0023250Y0004530D03*
Y0003970D03*
X0033500Y0011970D03*
Y0012530D03*
Y0013220D03*
Y0013780D03*
X0030750D03*
Y0013220D03*
X0032000D03*
Y0013780D03*
X0025750Y0012530D03*
Y0011970D03*
X0032750D03*
Y0012530D03*
X0030750Y0010780D03*
Y0010220D03*
X0024500Y0013780D03*
Y0013220D03*
X0032750Y0010220D03*
Y0010780D03*
X0024500Y0011970D03*
Y0012530D03*
X0054250Y-0001030D03*
Y-0000470D03*
X0046500Y0002780D03*
Y0002220D03*
X0071000Y0003470D03*
Y0004030D03*
X0068500Y0003470D03*
Y0004030D03*
X0066000Y0003470D03*
Y0004030D03*
X0063500Y0003470D03*
Y0004030D03*
X0027750Y0016780D03*
Y0016220D03*
X0050500Y-0000470D03*
Y-0001030D03*
X0051250Y-0000470D03*
Y-0001030D03*
X0048250Y0005030D03*
Y0004470D03*
X0046250Y0004530D03*
Y0003970D03*
X0053500Y-0000470D03*
Y-0001030D03*
X0047250Y0002220D03*
Y0002780D03*
X0056000Y0002220D03*
Y0002780D03*
X0054000Y0007220D03*
Y0007780D03*
X0050750Y0007220D03*
Y0007780D03*
X0045500Y0003970D03*
Y0004530D03*
X0071000Y0005970D03*
Y0006530D03*
X0068500Y0005970D03*
Y0006530D03*
X0066000Y0005970D03*
Y0006530D03*
X0038000Y0004720D03*
Y0005280D03*
X0063500Y0005970D03*
Y0006530D03*
X0022000Y0011780D03*
Y0011220D03*
X0041000Y0001720D03*
Y0002280D03*
X0012250Y0011470D03*
Y0012030D03*
X0008000Y0013720D03*
Y0014280D03*
X0006250Y0005720D03*
Y0006280D03*
X0007000D03*
Y0005720D03*
X0013500Y-0000530D03*
Y0000030D03*
X0020750Y0002030D03*
Y0001470D03*
G54D15*
X0012464Y0009500D03*
X0010535D03*
G54D16*
X0056500Y0006650D03*
Y0005850D03*
X0057500Y0006650D03*
Y0005850D03*
X0058500Y0006650D03*
Y0005850D03*
X0059500Y0006650D03*
Y0005850D03*
X0060500Y0006650D03*
Y0005850D03*
X0062500Y0006650D03*
Y0005850D03*
X0061500Y0006650D03*
Y0005850D03*
X0014250Y0016900D03*
Y0016100D03*
X0048250Y0002600D03*
Y0003400D03*
X0002000Y0007650D03*
Y0006850D03*
X0002750Y0008350D03*
Y0009150D03*
G54D17*
X0000250Y0004484D03*
Y0002516D03*
G54D18*
X0005000Y0000340D03*
Y0001660D03*
X0003250Y0000340D03*
Y0001660D03*
X0023500Y0012090D03*
Y0013410D03*
X0047250Y0004910D03*
Y0003590D03*
X0006000Y0008410D03*
Y0007090D03*
G54D19*
X0037000Y0003214D03*
Y0001285D03*
X0014250Y0011964D03*
Y0010035D03*
X0009250Y0014214D03*
Y0012285D03*
X0006750Y0014214D03*
Y0012285D03*
G54D20*
X0000500Y0006856D03*
Y0007644D03*
X0001250Y0006856D03*
Y0007644D03*
X0026500Y0010144D03*
Y0009356D03*
G54D21*
X0023750Y0002300D03*
X0024150Y0003200D03*
X0023350D03*
G54D22*
X0072250Y0003380D03*
Y0004120D03*
X0069750Y0003380D03*
Y0004120D03*
X0067250Y0003380D03*
Y0004120D03*
X0064750Y0003380D03*
Y0004120D03*
X0025250Y0002870D03*
Y0002130D03*
X0022250Y0002870D03*
Y0002130D03*
G54D23*
X0004500Y0013755D03*
Y0011245D03*
G54D33*
X0073264Y0002500D03*
Y0002303D03*
Y0002106D03*
Y0001909D03*
Y0001713D03*
Y0001516D03*
Y0001319D03*
Y0001122D03*
Y0000925D03*
Y0000728D03*
Y0000531D03*
Y0000335D03*
Y0000138D03*
Y-0000059D03*
G54D34*
X0073996Y-0000819D03*
Y0003260D03*
G54D35*
X0026850Y0015697D03*
X0025650D03*
Y0015303D03*
X0026850D03*
G54D37*
X0065200Y0001500D03*
X0064300Y0001900D03*
Y0001100D03*
X0065200Y-0000250D03*
X0064300Y0000150D03*
Y-0000650D03*
X0069700Y0001500D03*
X0068800Y0001900D03*
Y0001100D03*
X0069700Y-0000500D03*
X0068800Y-0000100D03*
Y-0000900D03*
X0007050Y0009000D03*
X0007950Y0008600D03*
Y0009400D03*
X0031050Y0012000D03*
X0031950Y0011600D03*
Y0012400D03*
G54D38*
X0029740Y0010750D03*
Y0011250D03*
X0027260D03*
Y0010750D03*
Y0010000D03*
Y0009500D03*
X0029740D03*
Y0010000D03*
G54D39*
X0029750Y0012250D03*
Y0012750D03*
Y0013250D03*
Y0013750D03*
X0027350D03*
Y0013250D03*
Y0012750D03*
Y0012250D03*
G54D40*
X0024500Y0007750D03*
X0024000D03*
X0023500D03*
X0023000D03*
Y0005350D03*
X0023500D03*
X0024000D03*
X0024500D03*
G54D41*
X0016750Y0011000D03*
X0018750D03*
X0010500Y0002000D03*
X0012500D03*
X0016750D03*
X0018750D03*
G54D43*
X0004000Y0004250D03*
G54D44*
X0005407Y0005451D03*
X0005151D03*
X0004896D03*
X0004640D03*
X0004384D03*
X0004128D03*
X0003872D03*
X0003616D03*
X0003360D03*
X0003104D03*
X0002848D03*
X0002593D03*
Y0003049D03*
X0002848D03*
X0003104D03*
X0003360D03*
X0003616D03*
X0003872D03*
X0004128D03*
X0004384D03*
X0004640D03*
X0004896D03*
X0005151D03*
X0005407D03*
G54D46*
X0040050Y0005900D03*
Y0004100D03*
G54D48*
X0035250Y0003750D03*
Y0005750D03*
G54D50*
X0054735Y0002280D03*
Y0002477D03*
Y0002674D03*
Y0003068D03*
Y0003265D03*
Y0003462D03*
Y0003659D03*
Y0003856D03*
Y0004053D03*
Y0004250D03*
Y0004447D03*
Y0004644D03*
Y0005038D03*
Y0005235D03*
X0050220D03*
Y0004841D03*
Y0004644D03*
Y0004447D03*
Y0004250D03*
Y0004053D03*
Y0003856D03*
Y0003659D03*
Y0003462D03*
Y0003265D03*
Y0002871D03*
Y0002674D03*
Y0002477D03*
Y0002280D03*
G54D51*
X0054735Y0002871D03*
Y0004841D03*
X0050220Y0005038D03*
Y0003068D03*
G54D52*
X0051197Y0001500D03*
X0051394D03*
X0051591D03*
X0051788D03*
X0051985D03*
X0052182D03*
X0052379D03*
X0052576D03*
X0052970D03*
X0053167D03*
X0053364D03*
X0053561D03*
X0053758D03*
X0053955D03*
Y0006015D03*
X0053758D03*
X0053561D03*
X0053364D03*
X0053167D03*
X0052970D03*
X0052773D03*
X0052379D03*
X0052182D03*
X0051985D03*
X0051788D03*
X0051591D03*
X0051394D03*
X0051197D03*
X0051000D03*
G54D53*
Y0001500D03*
X0052773D03*
X0052576Y0006015D03*
G54D56*
X0051216Y0000500D03*
X0050783D03*
M02*
