*
G04 Mass Parameters ***
*
G04 Image ***
*
%IND:\UTENTI\00.LAVORI IN CORSO\METALTRONICA\22-304-1\22-304-1.SMB*%
%ICAS*%
%MOIN*%
%IPPOS*%
%ASAXBY*%
G74*%FSLAN2X34Y34*%
*
G04 Aperture Definitions ***
*
%AMTHERMAL76*
1,1,0.1211,0,0,*
1,0,0.0972,0,0,*
21,0,0.1212,0.0100,0,0,225.0*
21,0,0.1212,0.0100,0,0,315.0*%
%AMTHERMAL85*
1,1,0.1172,0,0,*
1,0,0.0933,0,0,*
21,0,0.1173,0.0100,0,0,45.0*
21,0,0.1173,0.0100,0,0,135.0*%
%AMTHERMAL88*
1,1,0.1172,0,0,*
1,0,0.0933,0,0,*
21,0,0.1173,0.0100,0,0,135.0*
21,0,0.1173,0.0100,0,0,225.0*%
%ADD10C,0.1260*%
%ADD11C,0.0394*%
%ADD12R,0.0380X0.0320*%
%ADD13R,0.1024X0.0510*%
%ADD14R,0.0380X0.0320*%
%ADD15R,0.0905X0.0886*%
%ADD16R,0.0501X0.0404*%
%ADD17R,0.0630X0.1260*%
%ADD18R,0.0710X0.0400*%
%ADD19R,0.0886X0.0905*%
%ADD20R,0.0197X0.0315*%
%ADD21R,0.0400X0.0500*%
%ADD22R,0.0550X0.0350*%
%ADD23R,0.1500X0.1670*%
%ADD24C,0.1000*%
%ADD25C,0.0787*%
%ADD26C,0.0512*%
%ADD27R,0.0669X0.0669*%
%ADD28R,0.0787X0.0787*%
%ADD29C,0.0590*%
%ADD30R,0.0590X0.0590*%
%ADD31C,0.0866*%
%ADD32C,0.0669*%
%ADD33R,0.0472X0.0118*%
%ADD34R,0.1181X0.1063*%
%ADD35R,0.0413X0.0236*%
%ADD36C,0.0187*%
%ADD37R,0.0500X0.0400*%
%ADD38R,0.0512X0.0354*%
%ADD39O,0.0650X0.0256*%
%ADD40O,0.0256X0.0650*%
%ADD41R,0.0820X0.1500*%
%ADD42R,0.4500X0.3500*%
%ADD43R,0.1701X0.1181*%
%ADD44R,0.0177X0.0649*%
%ADD45C,0.0800*%
%ADD46R,0.1000X0.0600*%
%ADD47R,0.2760X0.2760*%
%ADD48R,0.1500X0.0820*%
%ADD49R,0.3500X0.4500*%
%ADD50O,0.0700X0.0110*%
%ADD51R,0.0700X0.0110*%
%ADD52O,0.0110X0.0700*%
%ADD53R,0.0110X0.0700*%
%ADD54R,0.0250X0.0350*%
%ADD55R,0.0350X0.0250*%
%ADD56R,0.0197X0.0394*%
%ADD57C,0.0276*%
%ADD58C,0.0250*%
%ADD59C,0.0050*%
%ADD60C,0.0100*%
%ADD61C,0.0600*%
%ADD62C,0.0080*%
%ADD63C,0.0170*%
%ADD64C,0.0276*%
%ADD65C,0.0110*%
%ADD66C,0.0500*%
%ADD67C,0.0118*%
%ADD68C,0.0150*%
%ADD69C,0.0276*%
%ADD70C,0.0060*%
%ADD71C,0.0276*%
%ADD72C,0.1575*%
%ADD73C,0.1181*%
%ADD74C,0.1027*%
%ADD75R,0.1027X0.1027*%
%ADD76THERMAL76*%
%ADD77C,0.0787*%
%ADD78R,0.1027X0.1027*%
%ADD79C,0.1027*%
%ADD80C,0.0708*%
%ADD81R,0.0708X0.0708*%
%ADD82C,0.1024*%
%ADD83R,0.0827X0.0827*%
%ADD84C,0.0866*%
%ADD85THERMAL85*%
%ADD86R,0.0984X0.0984*%
%ADD87C,0.1100*%
%ADD88THERMAL88*%
%ADD89C,0.1100*%
%ADD90C,0.0050*%
%ADD91C,0.0394*%
%ADD92C,0.0394*%
%ADD93C,0.0050*%
%ADD94C,0.0394*%
%ADD95C,0.0050*%
%ADD96C,0.0590*%
*
G04 Plot Data ***
*
G54D60*
G01X0006250Y0005730D02*
X-0001250D01*
X0006250Y0002940D02*
X-0001250D01*
Y0009800D02*
Y0001550D01*
X0001150Y0009800D02*
X-0001250D01*
X0001150D02*
Y0007450D01*
X0002200D02*
X0001150D01*
X0002200D02*
Y0005800D01*
X0006250D02*
X0002200D01*
X0006250D02*
Y0002850D01*
X0001600D01*
Y0001550D01*
X-0001250D01*
X0006170Y0005800D02*
Y0002850D01*
X0006080Y0005800D02*
Y0002850D01*
X0005990Y0005800D02*
Y0002850D01*
X0005900Y0005800D02*
Y0002850D01*
X0005810Y0005800D02*
Y0002850D01*
X0005720Y0005800D02*
Y0002850D01*
X0005630Y0005800D02*
Y0002850D01*
X0005540Y0005800D02*
Y0002850D01*
X0005450Y0005800D02*
Y0002850D01*
X0005360Y0005800D02*
Y0002850D01*
X0005270Y0005800D02*
Y0002850D01*
X0005180Y0005800D02*
Y0002850D01*
X0005090Y0005800D02*
Y0002850D01*
X0005000Y0005800D02*
Y0002850D01*
X0004910Y0005800D02*
Y0002850D01*
X0004820Y0005800D02*
Y0002850D01*
X0004730Y0005800D02*
Y0002850D01*
X0004640Y0005800D02*
Y0002850D01*
X0004550Y0005800D02*
Y0002850D01*
X0004460Y0005800D02*
Y0002850D01*
X0004370Y0005800D02*
Y0002850D01*
X0004280Y0005800D02*
Y0002850D01*
X0004190Y0005800D02*
Y0002850D01*
X0004100Y0005800D02*
Y0002850D01*
X0004010Y0005800D02*
Y0002850D01*
X0003920Y0005800D02*
Y0002850D01*
X0003830Y0005800D02*
Y0002850D01*
X0003740Y0005800D02*
Y0002850D01*
X0003650Y0005800D02*
Y0002850D01*
X0003560Y0005800D02*
Y0002850D01*
X0003470Y0005800D02*
Y0002850D01*
X0003380Y0005800D02*
Y0002850D01*
X0003290Y0005800D02*
Y0002850D01*
X0003200Y0005800D02*
Y0002850D01*
X0003110Y0005800D02*
Y0002850D01*
X0003020Y0005800D02*
Y0002850D01*
X0002930Y0005800D02*
Y0002850D01*
X0002840Y0005800D02*
Y0002850D01*
X0002750Y0005800D02*
Y0002850D01*
X0002660Y0005800D02*
Y0002850D01*
X0002570Y0005800D02*
Y0002850D01*
X0002480Y0005800D02*
Y0002850D01*
X0002390Y0005800D02*
Y0002850D01*
X0002300Y0005800D02*
Y0002850D01*
X0002210Y0005800D02*
Y0002850D01*
X0002120Y0007450D02*
Y0002850D01*
X0002030Y0007450D02*
Y0002850D01*
X0001940Y0007450D02*
Y0002850D01*
X0001850Y0007450D02*
Y0002850D01*
X0001760Y0007450D02*
Y0002850D01*
X0001670Y0007450D02*
Y0002850D01*
X0001580Y0007450D02*
Y0001550D01*
X0001490Y0007450D02*
Y0001550D01*
X0001400Y0007450D02*
Y0001550D01*
X0001310Y0007450D02*
Y0001550D01*
X0001220Y0007450D02*
Y0001550D01*
X0001130Y0009800D02*
Y0001550D01*
X0001040Y0009800D02*
Y0001550D01*
X0000950Y0009800D02*
Y0001550D01*
X0000860Y0009800D02*
Y0001550D01*
X0000770Y0009800D02*
Y0001550D01*
X0000680Y0009800D02*
Y0001550D01*
X0000590Y0009800D02*
Y0001550D01*
X0000500Y0009800D02*
Y0001550D01*
X0000410Y0009800D02*
Y0001550D01*
X0000320Y0009800D02*
Y0001550D01*
X0000230Y0009800D02*
Y0001550D01*
X0000140Y0009800D02*
Y0001550D01*
X0000050Y0009800D02*
Y0001550D01*
X-0000040Y0009800D02*
Y0001550D01*
X-0000130Y0009800D02*
Y0001550D01*
X-0000220Y0009800D02*
Y0001550D01*
X-0000310Y0009800D02*
Y0001550D01*
X-0000400Y0009800D02*
Y0001550D01*
X-0000490Y0009800D02*
Y0001550D01*
X-0000580Y0009800D02*
Y0001550D01*
X-0000670Y0009800D02*
Y0001550D01*
X-0000760Y0009800D02*
Y0001550D01*
X-0000850Y0009800D02*
Y0001550D01*
X-0000940Y0009800D02*
Y0001550D01*
X-0001030Y0009800D02*
Y0001550D01*
X-0001120Y0009800D02*
Y0001550D01*
X0001150Y0009780D02*
X-0001250D01*
X0001150Y0009690D02*
X-0001250D01*
X0001150Y0009600D02*
X-0001250D01*
X0001150Y0009510D02*
X-0001250D01*
X0001150Y0009420D02*
X-0001250D01*
X0001150Y0009330D02*
X-0001250D01*
X0001150Y0009240D02*
X-0001250D01*
X0001150Y0009150D02*
X-0001250D01*
X0001150Y0009060D02*
X-0001250D01*
X0001150Y0008970D02*
X-0001250D01*
X0001150Y0008880D02*
X-0001250D01*
X0001150Y0008790D02*
X-0001250D01*
X0001150Y0008700D02*
X-0001250D01*
X0001150Y0008610D02*
X-0001250D01*
X0001150Y0008520D02*
X-0001250D01*
X0001150Y0008430D02*
X-0001250D01*
X0001150Y0008340D02*
X-0001250D01*
X0001150Y0008250D02*
X-0001250D01*
X0001150Y0008160D02*
X-0001250D01*
X0001150Y0008070D02*
X-0001250D01*
X0001150Y0007980D02*
X-0001250D01*
X0001150Y0007890D02*
X-0001250D01*
X0001150Y0007800D02*
X-0001250D01*
X0001150Y0007710D02*
X-0001250D01*
X0001150Y0007620D02*
X-0001250D01*
X0001150Y0007530D02*
X-0001250D01*
X0002200Y0007440D02*
X-0001250D01*
X0002200Y0007350D02*
X-0001250D01*
X0002200Y0007260D02*
X-0001250D01*
X0002200Y0007170D02*
X-0001250D01*
X0002200Y0007080D02*
X-0001250D01*
X0002200Y0006990D02*
X-0001250D01*
X0002200Y0006900D02*
X-0001250D01*
X0002200Y0006810D02*
X-0001250D01*
X0002200Y0006720D02*
X-0001250D01*
X0002200Y0006630D02*
X-0001250D01*
X0002200Y0006540D02*
X-0001250D01*
X0002200Y0006450D02*
X-0001250D01*
X0002200Y0006360D02*
X-0001250D01*
X0002200Y0006270D02*
X-0001250D01*
X0002200Y0006180D02*
X-0001250D01*
X0002200Y0006090D02*
X-0001250D01*
X0002200Y0006000D02*
X-0001250D01*
X0002200Y0005910D02*
X-0001250D01*
X0002200Y0005820D02*
X-0001250D01*
X-0001210Y0009800D02*
Y0001550D01*
X0006250Y0005640D02*
X-0001250D01*
X0006250Y0005550D02*
X-0001250D01*
X0006250Y0005460D02*
X-0001250D01*
X0006250Y0005370D02*
X-0001250D01*
X0006250Y0005280D02*
X-0001250D01*
X0006250Y0005190D02*
X-0001250D01*
X0006250Y0005100D02*
X-0001250D01*
X0006250Y0005010D02*
X-0001250D01*
X0006250Y0004920D02*
X-0001250D01*
X0006250Y0004830D02*
X-0001250D01*
X0006250Y0004740D02*
X-0001250D01*
X0006250Y0004650D02*
X-0001250D01*
X0006250Y0004560D02*
X-0001250D01*
X0006250Y0004470D02*
X-0001250D01*
X0006250Y0004380D02*
X-0001250D01*
X0006250Y0004290D02*
X-0001250D01*
X0006250Y0004200D02*
X-0001250D01*
X0006250Y0004110D02*
X-0001250D01*
X0006250Y0004020D02*
X-0001250D01*
X0006250Y0003930D02*
X-0001250D01*
X0006250Y0003840D02*
X-0001250D01*
X0006250Y0003750D02*
X-0001250D01*
X0006250Y0003660D02*
X-0001250D01*
X0006250Y0003570D02*
X-0001250D01*
X0006250Y0003480D02*
X-0001250D01*
X0006250Y0003390D02*
X-0001250D01*
X0006250Y0003300D02*
X-0001250D01*
X0006250Y0003210D02*
X-0001250D01*
X0006250Y0003120D02*
X-0001250D01*
X0006250Y0003030D02*
X-0001250D01*
X0001600Y0001590D02*
X-0001250D01*
X0001600Y0002850D02*
X-0001250D01*
X0001600Y0002760D02*
X-0001250D01*
X0001600Y0002670D02*
X-0001250D01*
X0001600Y0002580D02*
X-0001250D01*
X0001600Y0002490D02*
X-0001250D01*
X0001600Y0002400D02*
X-0001250D01*
X0001600Y0002310D02*
X-0001250D01*
X0001600Y0002220D02*
X-0001250D01*
X0001600Y0002130D02*
X-0001250D01*
X0001600Y0002040D02*
X-0001250D01*
X0001600Y0001950D02*
X-0001250D01*
X0001600Y0001860D02*
X-0001250D01*
X0001600Y0001770D02*
X-0001250D01*
X0001600Y0001680D02*
X-0001250D01*
X0045200Y0002340D02*
X0041500D01*
Y0002250D02*
Y0002100D01*
Y0002250D02*
X0039300D01*
Y-0001300D01*
X0045200D02*
X0039300D01*
X0045200Y0007900D02*
Y-0001300D01*
Y0007900D02*
X0041500D01*
Y0002100D01*
X0045200Y0003420D02*
X0041500D01*
X0045190Y0007900D02*
Y-0001300D01*
X0045100Y0007900D02*
Y-0001300D01*
X0045010Y0007900D02*
Y-0001300D01*
X0044920Y0007900D02*
Y-0001300D01*
X0044830Y0007900D02*
Y-0001300D01*
X0044740Y0007900D02*
Y-0001300D01*
X0044650Y0007900D02*
Y-0001300D01*
X0044560Y0007900D02*
Y-0001300D01*
X0044470Y0007900D02*
Y-0001300D01*
X0044380Y0007900D02*
Y-0001300D01*
X0044290Y0007900D02*
Y-0001300D01*
X0044200Y0007900D02*
Y-0001300D01*
X0044110Y0007900D02*
Y-0001300D01*
X0044020Y0007900D02*
Y-0001300D01*
X0043930Y0007900D02*
Y-0001300D01*
X0043840Y0007900D02*
Y-0001300D01*
X0043750Y0007900D02*
Y-0001300D01*
X0043660Y0007900D02*
Y-0001300D01*
X0043570Y0007900D02*
Y-0001300D01*
X0043480Y0007900D02*
Y-0001300D01*
X0043390Y0007900D02*
Y-0001300D01*
X0043300Y0007900D02*
Y-0001300D01*
X0043210Y0007900D02*
Y-0001300D01*
X0043120Y0007900D02*
Y-0001300D01*
X0043030Y0007900D02*
Y-0001300D01*
X0042940Y0007900D02*
Y-0001300D01*
X0042850Y0007900D02*
Y-0001300D01*
X0042760Y0007900D02*
Y-0001300D01*
X0042670Y0007900D02*
Y-0001300D01*
X0042580Y0007900D02*
Y-0001300D01*
X0042490Y0007900D02*
Y-0001300D01*
X0042400Y0007900D02*
Y-0001300D01*
X0042310Y0007900D02*
Y-0001300D01*
X0042220Y0007900D02*
Y-0001300D01*
X0042130Y0007900D02*
Y-0001300D01*
X0042040Y0007900D02*
Y-0001300D01*
X0041950Y0007900D02*
Y-0001300D01*
X0041860Y0007900D02*
Y-0001300D01*
X0041770Y0007900D02*
Y-0001300D01*
X0041680Y0007900D02*
Y-0001300D01*
X0045200Y-0001260D02*
X0039300D01*
X0041500Y0002100D02*
Y-0001300D01*
X0041410Y0002250D02*
Y-0001300D01*
X0041320Y0002250D02*
Y-0001300D01*
X0041230Y0002250D02*
Y-0001300D01*
X0041140Y0002250D02*
Y-0001300D01*
X0041050Y0002250D02*
Y-0001300D01*
X0040960Y0002250D02*
Y-0001300D01*
X0040870Y0002250D02*
Y-0001300D01*
X0040780Y0002250D02*
Y-0001300D01*
X0040690Y0002250D02*
Y-0001300D01*
X0040600Y0002250D02*
Y-0001300D01*
X0040510Y0002250D02*
Y-0001300D01*
X0040420Y0002250D02*
Y-0001300D01*
X0040330Y0002250D02*
Y-0001300D01*
X0040240Y0002250D02*
Y-0001300D01*
X0040150Y0002250D02*
Y-0001300D01*
X0040060Y0002250D02*
Y-0001300D01*
X0039970Y0002250D02*
Y-0001300D01*
X0039880Y0002250D02*
Y-0001300D01*
X0039790Y0002250D02*
Y-0001300D01*
X0039700Y0002250D02*
Y-0001300D01*
X0039610Y0002250D02*
Y-0001300D01*
X0039520Y0002250D02*
Y-0001300D01*
X0039430Y0002250D02*
Y-0001300D01*
X0045200Y0007830D02*
X0041500D01*
X0045200Y0007740D02*
X0041500D01*
X0045200Y0007650D02*
X0041500D01*
X0045200Y0007560D02*
X0041500D01*
X0045200Y0007470D02*
X0041500D01*
X0045200Y0007380D02*
X0041500D01*
X0045200Y0007290D02*
X0041500D01*
X0045200Y0007200D02*
X0041500D01*
X0045200Y0007110D02*
X0041500D01*
X0045200Y0007020D02*
X0041500D01*
X0045200Y0006930D02*
X0041500D01*
X0045200Y0006840D02*
X0041500D01*
X0045200Y0006750D02*
X0041500D01*
X0045200Y0006660D02*
X0041500D01*
X0045200Y0006570D02*
X0041500D01*
X0045200Y0006480D02*
X0041500D01*
X0045200Y0006390D02*
X0041500D01*
X0045200Y0006300D02*
X0041500D01*
X0045200Y0006210D02*
X0041500D01*
X0045200Y0006120D02*
X0041500D01*
X0045200Y0006030D02*
X0041500D01*
X0045200Y0005940D02*
X0041500D01*
X0045200Y0005850D02*
X0041500D01*
X0045200Y0005760D02*
X0041500D01*
X0045200Y0005670D02*
X0041500D01*
X0045200Y0005580D02*
X0041500D01*
X0045200Y0005490D02*
X0041500D01*
X0045200Y0005400D02*
X0041500D01*
X0045200Y0005310D02*
X0041500D01*
X0045200Y0005220D02*
X0041500D01*
X0045200Y0005130D02*
X0041500D01*
X0045200Y0005040D02*
X0041500D01*
X0045200Y0004950D02*
X0041500D01*
X0045200Y0004860D02*
X0041500D01*
X0045200Y0004770D02*
X0041500D01*
X0045200Y0004680D02*
X0041500D01*
X0045200Y0004590D02*
X0041500D01*
X0045200Y0004500D02*
X0041500D01*
X0045200Y0004410D02*
X0041500D01*
X0045200Y0004320D02*
X0041500D01*
X0045200Y0004230D02*
X0041500D01*
X0045200Y0004140D02*
X0041500D01*
X0045200Y0004050D02*
X0041500D01*
X0045200Y0003960D02*
X0041500D01*
X0045200Y0003870D02*
X0041500D01*
X0045200Y0003780D02*
X0041500D01*
X0045200Y0003690D02*
X0041500D01*
X0045200Y0003600D02*
X0041500D01*
X0045200Y0003510D02*
X0041500D01*
X0039340Y0002250D02*
Y-0001300D01*
X0045200Y0003330D02*
X0041500D01*
X0045200Y0003240D02*
X0041500D01*
X0045200Y0003150D02*
X0041500D01*
X0045200Y0003060D02*
X0041500D01*
X0045200Y0002970D02*
X0041500D01*
X0045200Y0002880D02*
X0041500D01*
X0045200Y0002790D02*
X0041500D01*
X0045200Y0002700D02*
X0041500D01*
X0045200Y0002610D02*
X0041500D01*
X0045200Y0002520D02*
X0041500D01*
X0045200Y0002430D02*
X0041500D01*
X0041590Y0007900D02*
Y-0001300D01*
X0045200Y0002250D02*
X0041500D01*
X0045200Y0002160D02*
X0039300D01*
X0045200Y0002070D02*
X0039300D01*
X0045200Y0001980D02*
X0039300D01*
X0045200Y0001890D02*
X0039300D01*
X0045200Y0001800D02*
X0039300D01*
X0045200Y0001710D02*
X0039300D01*
X0045200Y0001620D02*
X0039300D01*
X0045200Y0001530D02*
X0039300D01*
X0045200Y0001440D02*
X0039300D01*
X0045200Y0001350D02*
X0039300D01*
X0045200Y0001260D02*
X0039300D01*
X0045200Y0001170D02*
X0039300D01*
X0045200Y0001080D02*
X0039300D01*
X0045200Y0000990D02*
X0039300D01*
X0045200Y0000900D02*
X0039300D01*
X0045200Y0000810D02*
X0039300D01*
X0045200Y0000720D02*
X0039300D01*
X0045200Y0000630D02*
X0039300D01*
X0045200Y0000540D02*
X0039300D01*
X0045200Y0000450D02*
X0039300D01*
X0045200Y0000360D02*
X0039300D01*
X0045200Y0000270D02*
X0039300D01*
X0045200Y0000180D02*
X0039300D01*
X0045200Y0000090D02*
X0039300D01*
X0045200Y0000000D02*
X0039300D01*
X0045200Y-0000090D02*
X0039300D01*
X0045200Y-0000180D02*
X0039300D01*
X0045200Y-0000270D02*
X0039300D01*
X0045200Y-0000360D02*
X0039300D01*
X0045200Y-0000450D02*
X0039300D01*
X0045200Y-0000540D02*
X0039300D01*
X0045200Y-0000630D02*
X0039300D01*
X0045200Y-0000720D02*
X0039300D01*
X0045200Y-0000810D02*
X0039300D01*
X0045200Y-0000900D02*
X0039300D01*
X0045200Y-0000990D02*
X0039300D01*
X0045200Y-0001080D02*
X0039300D01*
X0045200Y-0001170D02*
X0039300D01*
X0033550Y0001540D02*
X0026150D01*
X0033550Y0001500D02*
X0026150D01*
X0033550Y0009400D02*
Y0001500D01*
Y0009400D02*
X0026150D01*
Y0001500D01*
X0033550Y0005500D02*
X0026150D01*
X0033480Y0009400D02*
Y0001500D01*
X0033390Y0009400D02*
Y0001500D01*
X0033300Y0009400D02*
Y0001500D01*
X0033210Y0009400D02*
Y0001500D01*
X0033120Y0009400D02*
Y0001500D01*
X0033030Y0009400D02*
Y0001500D01*
X0032940Y0009400D02*
Y0001500D01*
X0032850Y0009400D02*
Y0001500D01*
X0032760Y0009400D02*
Y0001500D01*
X0032670Y0009400D02*
Y0001500D01*
X0032580Y0009400D02*
Y0001500D01*
X0032490Y0009400D02*
Y0001500D01*
X0032400Y0009400D02*
Y0001500D01*
X0032310Y0009400D02*
Y0001500D01*
X0032220Y0009400D02*
Y0001500D01*
X0032130Y0009400D02*
Y0001500D01*
X0032040Y0009400D02*
Y0001500D01*
X0031950Y0009400D02*
Y0001500D01*
X0031860Y0009400D02*
Y0001500D01*
X0031770Y0009400D02*
Y0001500D01*
X0031680Y0009400D02*
Y0001500D01*
X0031590Y0009400D02*
Y0001500D01*
X0031500Y0009400D02*
Y0001500D01*
X0031410Y0009400D02*
Y0001500D01*
X0031320Y0009400D02*
Y0001500D01*
X0031230Y0009400D02*
Y0001500D01*
X0031140Y0009400D02*
Y0001500D01*
X0031050Y0009400D02*
Y0001500D01*
X0030960Y0009400D02*
Y0001500D01*
X0030870Y0009400D02*
Y0001500D01*
X0030780Y0009400D02*
Y0001500D01*
X0030690Y0009400D02*
Y0001500D01*
X0030600Y0009400D02*
Y0001500D01*
X0030510Y0009400D02*
Y0001500D01*
X0030420Y0009400D02*
Y0001500D01*
X0030330Y0009400D02*
Y0001500D01*
X0030240Y0009400D02*
Y0001500D01*
X0030150Y0009400D02*
Y0001500D01*
X0030060Y0009400D02*
Y0001500D01*
X0029970Y0009400D02*
Y0001500D01*
X0029880Y0009400D02*
Y0001500D01*
X0029790Y0009400D02*
Y0001500D01*
X0029700Y0009400D02*
Y0001500D01*
X0029610Y0009400D02*
Y0001500D01*
X0029520Y0009400D02*
Y0001500D01*
X0029430Y0009400D02*
Y0001500D01*
X0029340Y0009400D02*
Y0001500D01*
X0029250Y0009400D02*
Y0001500D01*
X0029160Y0009400D02*
Y0001500D01*
X0029070Y0009400D02*
Y0001500D01*
X0028980Y0009400D02*
Y0001500D01*
X0028890Y0009400D02*
Y0001500D01*
X0028800Y0009400D02*
Y0001500D01*
X0028710Y0009400D02*
Y0001500D01*
X0028620Y0009400D02*
Y0001500D01*
X0028530Y0009400D02*
Y0001500D01*
X0028440Y0009400D02*
Y0001500D01*
X0028350Y0009400D02*
Y0001500D01*
X0028260Y0009400D02*
Y0001500D01*
X0028170Y0009400D02*
Y0001500D01*
X0028080Y0009400D02*
Y0001500D01*
X0027990Y0009400D02*
Y0001500D01*
X0027900Y0009400D02*
Y0001500D01*
X0027810Y0009400D02*
Y0001500D01*
X0027720Y0009400D02*
Y0001500D01*
X0027630Y0009400D02*
Y0001500D01*
X0027540Y0009400D02*
Y0001500D01*
X0027450Y0009400D02*
Y0001500D01*
X0027360Y0009400D02*
Y0001500D01*
X0027270Y0009400D02*
Y0001500D01*
X0027180Y0009400D02*
Y0001500D01*
X0027090Y0009400D02*
Y0001500D01*
X0027000Y0009400D02*
Y0001500D01*
X0026910Y0009400D02*
Y0001500D01*
X0026820Y0009400D02*
Y0001500D01*
X0026730Y0009400D02*
Y0001500D01*
X0026640Y0009400D02*
Y0001500D01*
X0026550Y0009400D02*
Y0001500D01*
X0026460Y0009400D02*
Y0001500D01*
X0026370Y0009400D02*
Y0001500D01*
X0026280Y0009400D02*
Y0001500D01*
X0033550Y0009370D02*
X0026150D01*
X0033550Y0009280D02*
X0026150D01*
X0033550Y0009190D02*
X0026150D01*
X0033550Y0009100D02*
X0026150D01*
X0033550Y0009010D02*
X0026150D01*
X0033550Y0008920D02*
X0026150D01*
X0033550Y0008830D02*
X0026150D01*
X0033550Y0008740D02*
X0026150D01*
X0033550Y0008650D02*
X0026150D01*
X0033550Y0008560D02*
X0026150D01*
X0033550Y0008470D02*
X0026150D01*
X0033550Y0008380D02*
X0026150D01*
X0033550Y0008290D02*
X0026150D01*
X0033550Y0008200D02*
X0026150D01*
X0033550Y0008110D02*
X0026150D01*
X0033550Y0008020D02*
X0026150D01*
X0033550Y0007930D02*
X0026150D01*
X0033550Y0007840D02*
X0026150D01*
X0033550Y0007750D02*
X0026150D01*
X0033550Y0007660D02*
X0026150D01*
X0033550Y0007570D02*
X0026150D01*
X0033550Y0007480D02*
X0026150D01*
X0033550Y0007390D02*
X0026150D01*
X0033550Y0007300D02*
X0026150D01*
X0033550Y0007210D02*
X0026150D01*
X0033550Y0007120D02*
X0026150D01*
X0033550Y0007030D02*
X0026150D01*
X0033550Y0006940D02*
X0026150D01*
X0033550Y0006850D02*
X0026150D01*
X0033550Y0006760D02*
X0026150D01*
X0033550Y0006670D02*
X0026150D01*
X0033550Y0006580D02*
X0026150D01*
X0033550Y0006490D02*
X0026150D01*
X0033550Y0006400D02*
X0026150D01*
X0033550Y0006310D02*
X0026150D01*
X0033550Y0006220D02*
X0026150D01*
X0033550Y0006130D02*
X0026150D01*
X0033550Y0006040D02*
X0026150D01*
X0033550Y0005950D02*
X0026150D01*
X0033550Y0005860D02*
X0026150D01*
X0033550Y0005770D02*
X0026150D01*
X0033550Y0005680D02*
X0026150D01*
X0033550Y0005590D02*
X0026150D01*
X0026190Y0009400D02*
Y0001500D01*
X0033550Y0005410D02*
X0026150D01*
X0033550Y0005320D02*
X0026150D01*
X0033550Y0005230D02*
X0026150D01*
X0033550Y0005140D02*
X0026150D01*
X0033550Y0005050D02*
X0026150D01*
X0033550Y0004960D02*
X0026150D01*
X0033550Y0004870D02*
X0026150D01*
X0033550Y0004780D02*
X0026150D01*
X0033550Y0004690D02*
X0026150D01*
X0033550Y0004600D02*
X0026150D01*
X0033550Y0004510D02*
X0026150D01*
X0033550Y0004420D02*
X0026150D01*
X0033550Y0004330D02*
X0026150D01*
X0033550Y0004240D02*
X0026150D01*
X0033550Y0004150D02*
X0026150D01*
X0033550Y0004060D02*
X0026150D01*
X0033550Y0003970D02*
X0026150D01*
X0033550Y0003880D02*
X0026150D01*
X0033550Y0003790D02*
X0026150D01*
X0033550Y0003700D02*
X0026150D01*
X0033550Y0003610D02*
X0026150D01*
X0033550Y0003520D02*
X0026150D01*
X0033550Y0003430D02*
X0026150D01*
X0033550Y0003340D02*
X0026150D01*
X0033550Y0003250D02*
X0026150D01*
X0033550Y0003160D02*
X0026150D01*
X0033550Y0003070D02*
X0026150D01*
X0033550Y0002980D02*
X0026150D01*
X0033550Y0002890D02*
X0026150D01*
X0033550Y0002800D02*
X0026150D01*
X0033550Y0002710D02*
X0026150D01*
X0033550Y0002620D02*
X0026150D01*
X0033550Y0002530D02*
X0026150D01*
X0033550Y0002440D02*
X0026150D01*
X0033550Y0002350D02*
X0026150D01*
X0033550Y0002260D02*
X0026150D01*
X0033550Y0002170D02*
X0026150D01*
X0033550Y0002080D02*
X0026150D01*
X0033550Y0001990D02*
X0026150D01*
X0033550Y0001900D02*
X0026150D01*
X0033550Y0001810D02*
X0026150D01*
X0033550Y0001720D02*
X0026150D01*
X0033550Y0001630D02*
X0026150D01*
X0021310Y0017200D02*
Y0011650D01*
X0021220Y0017200D02*
Y0011650D01*
X0021130Y0017200D02*
Y0011650D01*
X0021040Y0017200D02*
Y0011650D01*
X0020950Y0017200D02*
Y0011650D01*
X0020860Y0017200D02*
Y0011650D01*
X0020770Y0017200D02*
Y0011650D01*
X0020680Y0017200D02*
Y0011650D01*
X0020590Y0017200D02*
Y0011650D01*
X0020500Y0017200D02*
Y0011650D01*
X0020410Y0017200D02*
Y0011650D01*
X0020320Y0017200D02*
Y0011650D01*
X0020230Y0017200D02*
Y0011650D01*
X0020140Y0017200D02*
Y0011650D01*
X0020050Y0017200D02*
Y0011650D01*
X0019960Y0017200D02*
Y0011650D01*
X0019870Y0017200D02*
Y0011650D01*
X0019780Y0017200D02*
Y0011650D01*
X0019690Y0017200D02*
Y0011650D01*
X0019600Y0017200D02*
Y0011650D01*
X0019510Y0017200D02*
Y0011650D01*
X0019420Y0017200D02*
Y0011650D01*
X0019330Y0017200D02*
Y0011650D01*
X0019240Y0017200D02*
Y0011650D01*
X0019150Y0017200D02*
Y0011650D01*
X0019060Y0017200D02*
Y0011650D01*
X0018970Y0017200D02*
Y0011650D01*
X0021400Y0017200D02*
Y0011650D01*
X0009340Y0013150D02*
Y-0001350D01*
X0021600Y0017200D02*
Y0011650D01*
Y0017200D02*
X0012400D01*
Y0013150D01*
X0009250D01*
Y0010450D01*
X0007050D01*
Y0007200D01*
X0009000D02*
X0007050D01*
X0009000D02*
Y-0001350D01*
X0021400D02*
X0009000D01*
X0021400Y0010100D02*
Y-0001350D01*
Y0010100D02*
X0018950D01*
Y0011650D02*
Y0010100D01*
X0021600Y0011650D02*
X0018950D01*
X0021400Y0008050D02*
X0007050D01*
X0021580Y0017200D02*
Y0011650D01*
X0021600Y0011740D02*
X0009250D01*
X0021490Y0017200D02*
Y0011650D01*
X0021310Y0010100D02*
Y-0001350D01*
X0021220Y0010100D02*
Y-0001350D01*
X0021130Y0010100D02*
Y-0001350D01*
X0021040Y0010100D02*
Y-0001350D01*
X0020950Y0010100D02*
Y-0001350D01*
X0020860Y0010100D02*
Y-0001350D01*
X0020770Y0010100D02*
Y-0001350D01*
X0020680Y0010100D02*
Y-0001350D01*
X0020590Y0010100D02*
Y-0001350D01*
X0020500Y0010100D02*
Y-0001350D01*
X0020410Y0010100D02*
Y-0001350D01*
X0020320Y0010100D02*
Y-0001350D01*
X0020230Y0010100D02*
Y-0001350D01*
X0020140Y0010100D02*
Y-0001350D01*
X0020050Y0010100D02*
Y-0001350D01*
X0019960Y0010100D02*
Y-0001350D01*
X0019870Y0010100D02*
Y-0001350D01*
X0019780Y0010100D02*
Y-0001350D01*
X0019690Y0010100D02*
Y-0001350D01*
X0019600Y0010100D02*
Y-0001350D01*
X0019510Y0010100D02*
Y-0001350D01*
X0019420Y0010100D02*
Y-0001350D01*
X0019330Y0010100D02*
Y-0001350D01*
X0019240Y0010100D02*
Y-0001350D01*
X0019150Y0010100D02*
Y-0001350D01*
X0019060Y0010100D02*
Y-0001350D01*
X0018970Y0010100D02*
Y-0001350D01*
X0018880Y0017200D02*
Y-0001350D01*
X0018790Y0017200D02*
Y-0001350D01*
X0018700Y0017200D02*
Y-0001350D01*
X0018610Y0017200D02*
Y-0001350D01*
X0018520Y0017200D02*
Y-0001350D01*
X0018430Y0017200D02*
Y-0001350D01*
X0018340Y0017200D02*
Y-0001350D01*
X0018250Y0017200D02*
Y-0001350D01*
X0018160Y0017200D02*
Y-0001350D01*
X0018070Y0017200D02*
Y-0001350D01*
X0017980Y0017200D02*
Y-0001350D01*
X0017890Y0017200D02*
Y-0001350D01*
X0017800Y0017200D02*
Y-0001350D01*
X0017710Y0017200D02*
Y-0001350D01*
X0017620Y0017200D02*
Y-0001350D01*
X0017530Y0017200D02*
Y-0001350D01*
X0017440Y0017200D02*
Y-0001350D01*
X0017350Y0017200D02*
Y-0001350D01*
X0017260Y0017200D02*
Y-0001350D01*
X0017170Y0017200D02*
Y-0001350D01*
X0017080Y0017200D02*
Y-0001350D01*
X0016990Y0017200D02*
Y-0001350D01*
X0016900Y0017200D02*
Y-0001350D01*
X0016810Y0017200D02*
Y-0001350D01*
X0016720Y0017200D02*
Y-0001350D01*
X0016630Y0017200D02*
Y-0001350D01*
X0016540Y0017200D02*
Y-0001350D01*
X0016450Y0017200D02*
Y-0001350D01*
X0016360Y0017200D02*
Y-0001350D01*
X0016270Y0017200D02*
Y-0001350D01*
X0016180Y0017200D02*
Y-0001350D01*
X0016090Y0017200D02*
Y-0001350D01*
X0016000Y0017200D02*
Y-0001350D01*
X0015910Y0017200D02*
Y-0001350D01*
X0015820Y0017200D02*
Y-0001350D01*
X0015730Y0017200D02*
Y-0001350D01*
X0015640Y0017200D02*
Y-0001350D01*
X0015550Y0017200D02*
Y-0001350D01*
X0015460Y0017200D02*
Y-0001350D01*
X0015370Y0017200D02*
Y-0001350D01*
X0015280Y0017200D02*
Y-0001350D01*
X0015190Y0017200D02*
Y-0001350D01*
X0015100Y0017200D02*
Y-0001350D01*
X0015010Y0017200D02*
Y-0001350D01*
X0014920Y0017200D02*
Y-0001350D01*
X0014830Y0017200D02*
Y-0001350D01*
X0014740Y0017200D02*
Y-0001350D01*
X0014650Y0017200D02*
Y-0001350D01*
X0014560Y0017200D02*
Y-0001350D01*
X0014470Y0017200D02*
Y-0001350D01*
X0021400Y0003370D02*
X0009000D01*
X0014290Y0017200D02*
Y-0001350D01*
X0014200Y0017200D02*
Y-0001350D01*
X0014110Y0017200D02*
Y-0001350D01*
X0014020Y0017200D02*
Y-0001350D01*
X0013930Y0017200D02*
Y-0001350D01*
X0013840Y0017200D02*
Y-0001350D01*
X0013750Y0017200D02*
Y-0001350D01*
X0013660Y0017200D02*
Y-0001350D01*
X0013570Y0017200D02*
Y-0001350D01*
X0013480Y0017200D02*
Y-0001350D01*
X0013390Y0017200D02*
Y-0001350D01*
X0013300Y0017200D02*
Y-0001350D01*
X0013210Y0017200D02*
Y-0001350D01*
X0013120Y0017200D02*
Y-0001350D01*
X0013030Y0017200D02*
Y-0001350D01*
X0012940Y0017200D02*
Y-0001350D01*
X0012850Y0017200D02*
Y-0001350D01*
X0012760Y0017200D02*
Y-0001350D01*
X0012670Y0017200D02*
Y-0001350D01*
X0012580Y0017200D02*
Y-0001350D01*
X0012400Y0013150D02*
Y-0001350D01*
X0012310Y0013150D02*
Y-0001350D01*
X0012220Y0013150D02*
Y-0001350D01*
X0012130Y0013150D02*
Y-0001350D01*
X0012040Y0013150D02*
Y-0001350D01*
X0011950Y0013150D02*
Y-0001350D01*
X0011860Y0013150D02*
Y-0001350D01*
X0011770Y0013150D02*
Y-0001350D01*
X0011680Y0013150D02*
Y-0001350D01*
X0011590Y0013150D02*
Y-0001350D01*
X0011500Y0013150D02*
Y-0001350D01*
X0011410Y0013150D02*
Y-0001350D01*
X0011320Y0013150D02*
Y-0001350D01*
X0011230Y0013150D02*
Y-0001350D01*
X0011140Y0013150D02*
Y-0001350D01*
X0011050Y0013150D02*
Y-0001350D01*
X0010960Y0013150D02*
Y-0001350D01*
X0010870Y0013150D02*
Y-0001350D01*
X0010780Y0013150D02*
Y-0001350D01*
X0010690Y0013150D02*
Y-0001350D01*
X0010600Y0013150D02*
Y-0001350D01*
X0010510Y0013150D02*
Y-0001350D01*
X0010420Y0013150D02*
Y-0001350D01*
X0010330Y0013150D02*
Y-0001350D01*
X0010240Y0013150D02*
Y-0001350D01*
X0010150Y0013150D02*
Y-0001350D01*
X0010060Y0013150D02*
Y-0001350D01*
X0009970Y0013150D02*
Y-0001350D01*
X0009880Y0013150D02*
Y-0001350D01*
X0009790Y0013150D02*
Y-0001350D01*
X0009700Y0013150D02*
Y-0001350D01*
X0009610Y0013150D02*
Y-0001350D01*
X0009520Y0013150D02*
Y-0001350D01*
X0009430Y0013150D02*
Y-0001350D01*
X0012490Y0017200D02*
Y-0001350D01*
X0009250Y0010450D02*
Y-0001350D01*
X0009160Y0010450D02*
Y-0001350D01*
X0009070Y0010450D02*
Y-0001350D01*
X0008980Y0010450D02*
Y0007200D01*
X0008890Y0010450D02*
Y0007200D01*
X0008800Y0010450D02*
Y0007200D01*
X0008710Y0010450D02*
Y0007200D01*
X0008620Y0010450D02*
Y0007200D01*
X0008530Y0010450D02*
Y0007200D01*
X0008440Y0010450D02*
Y0007200D01*
X0008350Y0010450D02*
Y0007200D01*
X0008260Y0010450D02*
Y0007200D01*
X0008170Y0010450D02*
Y0007200D01*
X0008080Y0010450D02*
Y0007200D01*
X0007990Y0010450D02*
Y0007200D01*
X0007900Y0010450D02*
Y0007200D01*
X0007810Y0010450D02*
Y0007200D01*
X0007720Y0010450D02*
Y0007200D01*
X0007630Y0010450D02*
Y0007200D01*
X0007540Y0010450D02*
Y0007200D01*
X0007450Y0010450D02*
Y0007200D01*
X0007360Y0010450D02*
Y0007200D01*
X0007270Y0010450D02*
Y0007200D01*
X0007180Y0010450D02*
Y0007200D01*
X0021600Y0017140D02*
X0012400D01*
X0021600Y0017050D02*
X0012400D01*
X0021600Y0016960D02*
X0012400D01*
X0021600Y0016870D02*
X0012400D01*
X0021600Y0016780D02*
X0012400D01*
X0021600Y0016690D02*
X0012400D01*
X0021600Y0016600D02*
X0012400D01*
X0021600Y0016510D02*
X0012400D01*
X0021600Y0016420D02*
X0012400D01*
X0021600Y0016330D02*
X0012400D01*
X0021600Y0016240D02*
X0012400D01*
X0021600Y0016150D02*
X0012400D01*
X0021600Y0016060D02*
X0012400D01*
X0021600Y0015970D02*
X0012400D01*
X0021600Y0015880D02*
X0012400D01*
X0021600Y0015790D02*
X0012400D01*
X0021600Y0015700D02*
X0012400D01*
X0021600Y0015610D02*
X0012400D01*
X0021600Y0015520D02*
X0012400D01*
X0021600Y0015430D02*
X0012400D01*
X0021600Y0015340D02*
X0012400D01*
X0021600Y0015250D02*
X0012400D01*
X0021600Y0015160D02*
X0012400D01*
X0021600Y0015070D02*
X0012400D01*
X0021600Y0014980D02*
X0012400D01*
X0021600Y0014890D02*
X0012400D01*
X0021600Y0014800D02*
X0012400D01*
X0021600Y0014710D02*
X0012400D01*
X0021600Y0014620D02*
X0012400D01*
X0021600Y0014530D02*
X0012400D01*
X0021600Y0014440D02*
X0012400D01*
X0021600Y0014350D02*
X0012400D01*
X0021600Y0014260D02*
X0012400D01*
X0021600Y0014170D02*
X0012400D01*
X0021600Y0014080D02*
X0012400D01*
X0021600Y0013990D02*
X0012400D01*
X0021600Y0013900D02*
X0012400D01*
X0021600Y0013810D02*
X0012400D01*
X0021600Y0013720D02*
X0012400D01*
X0021600Y0013630D02*
X0012400D01*
X0021600Y0013540D02*
X0012400D01*
X0021600Y0013450D02*
X0012400D01*
X0021600Y0013360D02*
X0012400D01*
X0021600Y0013270D02*
X0012400D01*
X0021600Y0013180D02*
X0012400D01*
X0021600Y0013090D02*
X0009250D01*
X0021600Y0013000D02*
X0009250D01*
X0021600Y0012910D02*
X0009250D01*
X0021600Y0012820D02*
X0009250D01*
X0021600Y0012730D02*
X0009250D01*
X0021600Y0012640D02*
X0009250D01*
X0021600Y0012550D02*
X0009250D01*
X0021600Y0012460D02*
X0009250D01*
X0021600Y0012370D02*
X0009250D01*
X0021600Y0012280D02*
X0009250D01*
X0021600Y0012190D02*
X0009250D01*
X0021600Y0012100D02*
X0009250D01*
X0021600Y0012010D02*
X0009250D01*
X0021600Y0011920D02*
X0009250D01*
X0021600Y0011830D02*
X0009250D01*
X0021400Y-0001310D02*
X0009000D01*
X0018950Y0011650D02*
X0009250D01*
X0018950Y0011560D02*
X0009250D01*
X0018950Y0011470D02*
X0009250D01*
X0018950Y0011380D02*
X0009250D01*
X0018950Y0011290D02*
X0009250D01*
X0018950Y0011200D02*
X0009250D01*
X0018950Y0011110D02*
X0009250D01*
X0018950Y0011020D02*
X0009250D01*
X0018950Y0010930D02*
X0009250D01*
X0018950Y0010840D02*
X0009250D01*
X0018950Y0010750D02*
X0009250D01*
X0018950Y0010660D02*
X0009250D01*
X0018950Y0010570D02*
X0009250D01*
X0018950Y0010480D02*
X0009250D01*
X0018950Y0010390D02*
X0007050D01*
X0018950Y0010300D02*
X0007050D01*
X0018950Y0010210D02*
X0007050D01*
X0018950Y0010120D02*
X0007050D01*
X0021400Y0010030D02*
X0007050D01*
X0021400Y0009940D02*
X0007050D01*
X0021400Y0009850D02*
X0007050D01*
X0021400Y0009760D02*
X0007050D01*
X0021400Y0009670D02*
X0007050D01*
X0021400Y0009580D02*
X0007050D01*
X0021400Y0009490D02*
X0007050D01*
X0021400Y0009400D02*
X0007050D01*
X0021400Y0009310D02*
X0007050D01*
X0021400Y0009220D02*
X0007050D01*
X0021400Y0009130D02*
X0007050D01*
X0021400Y0009040D02*
X0007050D01*
X0021400Y0008950D02*
X0007050D01*
X0021400Y0008860D02*
X0007050D01*
X0021400Y0008770D02*
X0007050D01*
X0021400Y0008680D02*
X0007050D01*
X0021400Y0008590D02*
X0007050D01*
X0021400Y0008500D02*
X0007050D01*
X0021400Y0008410D02*
X0007050D01*
X0021400Y0008320D02*
X0007050D01*
X0021400Y0008230D02*
X0007050D01*
X0021400Y0008140D02*
X0007050D01*
X0014380Y0017200D02*
Y-0001350D01*
X0021400Y0007960D02*
X0007050D01*
X0021400Y0007870D02*
X0007050D01*
X0021400Y0007780D02*
X0007050D01*
X0021400Y0007690D02*
X0007050D01*
X0021400Y0007600D02*
X0007050D01*
X0021400Y0007510D02*
X0007050D01*
X0021400Y0007420D02*
X0007050D01*
X0021400Y0007330D02*
X0007050D01*
X0021400Y0007240D02*
X0007050D01*
X0021400Y0007150D02*
X0009000D01*
X0021400Y0007060D02*
X0009000D01*
X0021400Y0006970D02*
X0009000D01*
X0021400Y0006880D02*
X0009000D01*
X0021400Y0006790D02*
X0009000D01*
X0021400Y0006700D02*
X0009000D01*
X0021400Y0006610D02*
X0009000D01*
X0021400Y0006520D02*
X0009000D01*
X0021400Y0006430D02*
X0009000D01*
X0021400Y0006340D02*
X0009000D01*
X0021400Y0006250D02*
X0009000D01*
X0021400Y0006160D02*
X0009000D01*
X0021400Y0006070D02*
X0009000D01*
X0021400Y0005980D02*
X0009000D01*
X0021400Y0005890D02*
X0009000D01*
X0021400Y0005800D02*
X0009000D01*
X0021400Y0005710D02*
X0009000D01*
X0021400Y0005620D02*
X0009000D01*
X0021400Y0005530D02*
X0009000D01*
X0021400Y0005440D02*
X0009000D01*
X0021400Y0005350D02*
X0009000D01*
X0021400Y0005260D02*
X0009000D01*
X0021400Y0005170D02*
X0009000D01*
X0021400Y0005080D02*
X0009000D01*
X0021400Y0004990D02*
X0009000D01*
X0021400Y0004900D02*
X0009000D01*
X0021400Y0004810D02*
X0009000D01*
X0021400Y0004720D02*
X0009000D01*
X0021400Y0004630D02*
X0009000D01*
X0021400Y0004540D02*
X0009000D01*
X0021400Y0004450D02*
X0009000D01*
X0021400Y0004360D02*
X0009000D01*
X0021400Y0004270D02*
X0009000D01*
X0021400Y0004180D02*
X0009000D01*
X0021400Y0004090D02*
X0009000D01*
X0021400Y0004000D02*
X0009000D01*
X0021400Y0003910D02*
X0009000D01*
X0021400Y0003820D02*
X0009000D01*
X0021400Y0003730D02*
X0009000D01*
X0021400Y0003640D02*
X0009000D01*
X0021400Y0003550D02*
X0009000D01*
X0021400Y0003460D02*
X0009000D01*
X0007090Y0010450D02*
Y0007200D01*
X0021400Y0003280D02*
X0009000D01*
X0021400Y0003190D02*
X0009000D01*
X0021400Y0003100D02*
X0009000D01*
X0021400Y0003010D02*
X0009000D01*
X0021400Y0002920D02*
X0009000D01*
X0021400Y0002830D02*
X0009000D01*
X0021400Y0002740D02*
X0009000D01*
X0021400Y0002650D02*
X0009000D01*
X0021400Y0002560D02*
X0009000D01*
X0021400Y0002470D02*
X0009000D01*
X0021400Y0002380D02*
X0009000D01*
X0021400Y0002290D02*
X0009000D01*
X0021400Y0002200D02*
X0009000D01*
X0021400Y0002110D02*
X0009000D01*
X0021400Y0002020D02*
X0009000D01*
X0021400Y0001930D02*
X0009000D01*
X0021400Y0001840D02*
X0009000D01*
X0021400Y0001750D02*
X0009000D01*
X0021400Y0001660D02*
X0009000D01*
X0021400Y0001570D02*
X0009000D01*
X0021400Y0001480D02*
X0009000D01*
X0021400Y0001390D02*
X0009000D01*
X0021400Y0001300D02*
X0009000D01*
X0021400Y0001210D02*
X0009000D01*
X0021400Y0001120D02*
X0009000D01*
X0021400Y0001030D02*
X0009000D01*
X0021400Y0000940D02*
X0009000D01*
X0021400Y0000850D02*
X0009000D01*
X0021400Y0000760D02*
X0009000D01*
X0021400Y0000670D02*
X0009000D01*
X0021400Y0000580D02*
X0009000D01*
X0021400Y0000490D02*
X0009000D01*
X0021400Y0000400D02*
X0009000D01*
X0021400Y0000310D02*
X0009000D01*
X0021400Y0000220D02*
X0009000D01*
X0021400Y0000130D02*
X0009000D01*
X0021400Y0000040D02*
X0009000D01*
X0021400Y-0000050D02*
X0009000D01*
X0021400Y-0000140D02*
X0009000D01*
X0021400Y-0000230D02*
X0009000D01*
X0021400Y-0000320D02*
X0009000D01*
X0021400Y-0000410D02*
X0009000D01*
X0021400Y-0000500D02*
X0009000D01*
X0021400Y-0000590D02*
X0009000D01*
X0021400Y-0000680D02*
X0009000D01*
X0021400Y-0000770D02*
X0009000D01*
X0021400Y-0000860D02*
X0009000D01*
X0021400Y-0000950D02*
X0009000D01*
X0021400Y-0001040D02*
X0009000D01*
X0021400Y-0001130D02*
X0009000D01*
X0021400Y-0001220D02*
X0009000D01*
G54D24*
X-0000234Y0011016D03*
X0001734D03*
X0002718Y0012000D03*
X0001734Y0012984D03*
X-0000234D03*
X0000750Y0012000D03*
G54D25*
X0030000Y-0000250D03*
X0031000D03*
Y0000750D03*
X0030000D03*
X0029000D03*
X0025476Y0000992D03*
X0024492D03*
X0023508D03*
X0022524D03*
X0025476Y0000008D03*
X0024492D03*
X0023508D03*
X0022516Y0014758D03*
X0023500D03*
X0024484D03*
X0022516Y0015742D03*
X0023500D03*
G54D27*
X0004492Y0015750D03*
X0024484Y0015742D03*
G54D28*
X0029000Y-0000250D03*
X0022524Y0000008D03*
G54D29*
X0004463Y-0001000D03*
X0003675D03*
X0002888D03*
G54D30*
X0005250D03*
G54D31*
X0002653Y0015750D03*
X0005346D03*
G54D32*
X0003508D03*
G54D45*
X0011250Y0016000D03*
Y0015000D03*
Y0014000D03*
M02*
