*
G04 Mass Parameters ***
*
G04 Image ***
*
%IND:\UTENTI\00.LAVORI IN CORSO\METALTRONICA\22-304-1\22-304-1.SST*%
%ICAS*%
%MOIN*%
%IPPOS*%
%ASAXBY*%
G74*%FSLAN2X34Y34*%
*
G04 Aperture Definitions ***
*
%AMTHERMAL76*
1,1,0.1211,0,0,*
1,0,0.0972,0,0,*
21,0,0.1212,0.0100,0,0,225.0*
21,0,0.1212,0.0100,0,0,315.0*%
%AMTHERMAL85*
1,1,0.1172,0,0,*
1,0,0.0933,0,0,*
21,0,0.1173,0.0100,0,0,45.0*
21,0,0.1173,0.0100,0,0,135.0*%
%AMTHERMAL88*
1,1,0.1172,0,0,*
1,0,0.0933,0,0,*
21,0,0.1173,0.0100,0,0,135.0*
21,0,0.1173,0.0100,0,0,225.0*%
%ADD10C,0.1260*%
%ADD11C,0.0394*%
%ADD12R,0.0380X0.0320*%
%ADD13R,0.1024X0.0510*%
%ADD14R,0.0380X0.0320*%
%ADD15R,0.0905X0.0886*%
%ADD16R,0.0501X0.0404*%
%ADD17R,0.0630X0.1260*%
%ADD18R,0.0710X0.0400*%
%ADD19R,0.0886X0.0905*%
%ADD20R,0.0197X0.0315*%
%ADD21R,0.0400X0.0500*%
%ADD22R,0.0550X0.0350*%
%ADD23R,0.1500X0.1670*%
%ADD24C,0.1000*%
%ADD25C,0.0787*%
%ADD26C,0.0512*%
%ADD27R,0.0669X0.0669*%
%ADD28R,0.0787X0.0787*%
%ADD29C,0.0590*%
%ADD30R,0.0590X0.0590*%
%ADD31C,0.0866*%
%ADD32C,0.0669*%
%ADD33R,0.0472X0.0118*%
%ADD34R,0.1181X0.1063*%
%ADD35R,0.0413X0.0236*%
%ADD36C,0.0187*%
%ADD37R,0.0500X0.0400*%
%ADD38R,0.0512X0.0354*%
%ADD39O,0.0650X0.0256*%
%ADD40O,0.0256X0.0650*%
%ADD41R,0.0820X0.1500*%
%ADD42R,0.4500X0.3500*%
%ADD43R,0.1701X0.1181*%
%ADD44R,0.0177X0.0649*%
%ADD45C,0.0800*%
%ADD46R,0.1000X0.0600*%
%ADD47R,0.2760X0.2760*%
%ADD48R,0.1500X0.0820*%
%ADD49R,0.3500X0.4500*%
%ADD50O,0.0700X0.0110*%
%ADD51R,0.0700X0.0110*%
%ADD52O,0.0110X0.0700*%
%ADD53R,0.0110X0.0700*%
%ADD54R,0.0250X0.0350*%
%ADD55R,0.0350X0.0250*%
%ADD56R,0.0197X0.0394*%
%ADD57C,0.0276*%
%ADD58C,0.0250*%
%ADD59C,0.0050*%
%ADD60C,0.0100*%
%ADD61C,0.0600*%
%ADD62C,0.0080*%
%ADD63C,0.0170*%
%ADD64C,0.0276*%
%ADD65C,0.0110*%
%ADD66C,0.0500*%
%ADD67C,0.0118*%
%ADD68C,0.0150*%
%ADD69C,0.0276*%
%ADD70C,0.0060*%
%ADD71C,0.0276*%
%ADD72C,0.1575*%
%ADD73C,0.1181*%
%ADD74C,0.1027*%
%ADD75R,0.1027X0.1027*%
%ADD76THERMAL76*%
%ADD77C,0.0787*%
%ADD78R,0.1027X0.1027*%
%ADD79C,0.1027*%
%ADD80C,0.0708*%
%ADD81R,0.0708X0.0708*%
%ADD82C,0.1024*%
%ADD83R,0.0827X0.0827*%
%ADD84C,0.0866*%
%ADD85THERMAL85*%
%ADD86R,0.0984X0.0984*%
%ADD87C,0.1100*%
%ADD88THERMAL88*%
%ADD89C,0.1100*%
%ADD90C,0.0050*%
%ADD91C,0.0394*%
%ADD92C,0.0394*%
%ADD93C,0.0050*%
%ADD94C,0.0394*%
%ADD95C,0.0050*%
%ADD96C,0.0590*%
%ADD97C,0.0079*%
*
G04 Plot Data ***
*
G54D59*
G01X0006897Y0014880D02*
X0009127D01*
Y0017100D01*
X0006897D01*
Y0014880D01*
G54D60*
G01X0022492Y-0001392D02*
X0022325D01*
X0022408D02*
Y-0000892D01*
X0022325Y-0000975D01*
X0028342Y-0000542D02*
X0028175D01*
X0028258D02*
Y-0000042D01*
X0028175Y-0000125D01*
X0072754Y-0000571D02*
Y-0000404D01*
Y-0000488D02*
X0073254D01*
X0073171Y-0000404D01*
X0024882Y0016588D02*
X0024715D01*
X0024798D02*
Y0017088D01*
X0024715Y0017005D01*
X0042170Y-0000100D02*
Y-0000750D01*
X0042080Y-0000100D02*
Y-0000750D01*
X0041990Y-0000100D02*
Y-0000750D01*
X0041900Y-0000100D02*
Y-0000750D01*
X0041810Y-0000100D02*
Y-0000750D01*
X0041720Y-0000100D02*
Y-0000750D01*
X0041630Y-0000100D02*
Y-0000750D01*
X0041540Y-0000100D02*
Y-0000750D01*
X0041450Y-0000100D02*
Y-0000750D01*
X0041360Y-0000100D02*
Y-0000750D01*
X0041270Y-0000100D02*
Y-0000750D01*
X0041180Y-0000100D02*
Y-0000750D01*
X0041090Y-0000100D02*
Y-0000750D01*
X0045950Y-0000170D02*
X0041050D01*
X0045950Y-0000260D02*
X0041050D01*
X0045950Y-0000350D02*
X0041050D01*
X0045950Y-0000440D02*
X0041050D01*
X0045950Y-0000530D02*
X0041050D01*
X0045950Y-0000620D02*
X0041050D01*
X0043970Y-0000100D02*
Y-0000750D01*
X0043880Y-0000100D02*
Y-0000750D01*
X0043790Y-0000100D02*
Y-0000750D01*
X0043700Y-0000100D02*
Y-0000750D01*
X0043610Y-0000100D02*
Y-0000750D01*
X0043520Y-0000100D02*
Y-0000750D01*
X0043430Y-0000100D02*
Y-0000750D01*
X0043340Y-0000100D02*
Y-0000750D01*
X0043250Y-0000100D02*
Y-0000750D01*
X0043160Y-0000100D02*
Y-0000750D01*
X0043070Y-0000100D02*
Y-0000750D01*
X0042980Y-0000100D02*
Y-0000750D01*
X0042890Y-0000100D02*
Y-0000750D01*
X0042800Y-0000100D02*
Y-0000750D01*
X0042710Y-0000100D02*
Y-0000750D01*
X0042620Y-0000100D02*
Y-0000750D01*
X0042530Y-0000100D02*
Y-0000750D01*
X0042440Y-0000100D02*
Y-0000750D01*
X0042350Y-0000100D02*
Y-0000750D01*
X0042260Y-0000100D02*
Y-0000750D01*
X0045770Y-0000100D02*
Y-0000750D01*
X0045680Y-0000100D02*
Y-0000750D01*
X0045590Y-0000100D02*
Y-0000750D01*
X0045500Y-0000100D02*
Y-0000750D01*
X0045410Y-0000100D02*
Y-0000750D01*
X0045320Y-0000100D02*
Y-0000750D01*
X0045230Y-0000100D02*
Y-0000750D01*
X0045140Y-0000100D02*
Y-0000750D01*
X0045050Y-0000100D02*
Y-0000750D01*
X0044960Y-0000100D02*
Y-0000750D01*
X0044870Y-0000100D02*
Y-0000750D01*
X0044780Y-0000100D02*
Y-0000750D01*
X0044690Y-0000100D02*
Y-0000750D01*
X0044600Y-0000100D02*
Y-0000750D01*
X0044510Y-0000100D02*
Y-0000750D01*
X0044420Y-0000100D02*
Y-0000750D01*
X0044330Y-0000100D02*
Y-0000750D01*
X0044240Y-0000100D02*
Y-0000750D01*
X0044150Y-0000100D02*
Y-0000750D01*
X0044060Y-0000100D02*
Y-0000750D01*
X0045950D02*
X0041050D01*
X0045950Y-0000100D02*
Y-0000750D01*
Y-0000100D02*
X0041050D01*
Y-0000750D01*
X0045950Y-0000710D02*
X0041050D01*
X0045860Y-0000100D02*
Y-0000750D01*
X0042170Y0000750D02*
Y0000100D01*
X0042080Y0000750D02*
Y0000100D01*
X0041990Y0000750D02*
Y0000100D01*
X0041900Y0000750D02*
Y0000100D01*
X0041810Y0000750D02*
Y0000100D01*
X0041720Y0000750D02*
Y0000100D01*
X0041630Y0000750D02*
Y0000100D01*
X0041540Y0000750D02*
Y0000100D01*
X0041450Y0000750D02*
Y0000100D01*
X0041360Y0000750D02*
Y0000100D01*
X0041270Y0000750D02*
Y0000100D01*
X0041180Y0000750D02*
Y0000100D01*
X0041090Y0000750D02*
Y0000100D01*
X0045950Y0000680D02*
X0041050D01*
X0045950Y0000590D02*
X0041050D01*
X0045950Y0000500D02*
X0041050D01*
X0045950Y0000410D02*
X0041050D01*
X0045950Y0000320D02*
X0041050D01*
X0045950Y0000230D02*
X0041050D01*
X0043970Y0000750D02*
Y0000100D01*
X0043880Y0000750D02*
Y0000100D01*
X0043790Y0000750D02*
Y0000100D01*
X0043700Y0000750D02*
Y0000100D01*
X0043610Y0000750D02*
Y0000100D01*
X0043520Y0000750D02*
Y0000100D01*
X0043430Y0000750D02*
Y0000100D01*
X0043340Y0000750D02*
Y0000100D01*
X0043250Y0000750D02*
Y0000100D01*
X0043160Y0000750D02*
Y0000100D01*
X0043070Y0000750D02*
Y0000100D01*
X0042980Y0000750D02*
Y0000100D01*
X0042890Y0000750D02*
Y0000100D01*
X0042800Y0000750D02*
Y0000100D01*
X0042710Y0000750D02*
Y0000100D01*
X0042620Y0000750D02*
Y0000100D01*
X0042530Y0000750D02*
Y0000100D01*
X0042440Y0000750D02*
Y0000100D01*
X0042350Y0000750D02*
Y0000100D01*
X0042260Y0000750D02*
Y0000100D01*
X0045770Y0000750D02*
Y0000100D01*
X0045680Y0000750D02*
Y0000100D01*
X0045590Y0000750D02*
Y0000100D01*
X0045500Y0000750D02*
Y0000100D01*
X0045410Y0000750D02*
Y0000100D01*
X0045320Y0000750D02*
Y0000100D01*
X0045230Y0000750D02*
Y0000100D01*
X0045140Y0000750D02*
Y0000100D01*
X0045050Y0000750D02*
Y0000100D01*
X0044960Y0000750D02*
Y0000100D01*
X0044870Y0000750D02*
Y0000100D01*
X0044780Y0000750D02*
Y0000100D01*
X0044690Y0000750D02*
Y0000100D01*
X0044600Y0000750D02*
Y0000100D01*
X0044510Y0000750D02*
Y0000100D01*
X0044420Y0000750D02*
Y0000100D01*
X0044330Y0000750D02*
Y0000100D01*
X0044240Y0000750D02*
Y0000100D01*
X0044150Y0000750D02*
Y0000100D01*
X0044060Y0000750D02*
Y0000100D01*
X0045950D02*
X0041050D01*
X0045950Y0000750D02*
Y0000100D01*
Y0000750D02*
X0041050D01*
Y0000100D01*
X0045950Y0000140D02*
X0041050D01*
X0045860Y0000750D02*
Y0000100D01*
X0013492Y0012640D02*
X0010463Y0012638D01*
X0010345Y0012640D01*
Y0017362D01*
X0013492D01*
Y0012640D01*
X0010902Y0017044D02*
Y0016956D01*
X0010812Y0017145D02*
Y0016854D01*
X0010722Y0017155D02*
Y0016844D01*
X0010632Y0017105D02*
Y0016895D01*
X0010794Y0017152D02*
X0010706D01*
X0010895Y0017062D02*
X0010604D01*
X0010905Y0016972D02*
X0010594D01*
X0010855Y0016882D02*
X0010645D01*
X0003500Y0014700D02*
X0005500D01*
Y0010300D01*
X0003500D01*
Y0014700D01*
G01X0010592Y0017000D02*
G03X0010750Y0016842I0000158J0000000D01*
Y0017158D02*
G03X0010592Y0017000I0000000J0000158D01*
G01X0010908D02*
G03X0010750Y0017158I0000158J0000000D01*
Y0016842D02*
G03X0010908Y0017000I0000000J0000158D01*
G54D62*
G01X0050837Y0001217D02*
X0050730D01*
X0050783D02*
Y0001617D01*
X0050730Y0001550D01*
X0023789Y0008264D02*
Y0008478D01*
X0024055Y0008371D01*
Y0008318D01*
X0023655D01*
X0024055Y0008664D02*
X0023722D01*
X0023655Y0008691D01*
Y0008851D01*
X0023722Y0008878D01*
X0024055D01*
X0009895Y0016564D02*
X0009962Y0016538D01*
X0010029D01*
X0010095Y0016564D01*
Y0016724D01*
X0010029Y0016751D01*
X0009962D01*
X0009895Y0016724D01*
Y0016564D01*
X0009829Y0016538D01*
X0009762D01*
X0009695Y0016564D01*
Y0016724D01*
X0009762Y0016751D01*
X0009829D01*
X0009895Y0016724D01*
X0010095Y0016938D02*
X0009762D01*
X0009695Y0016964D01*
Y0017124D01*
X0009762Y0017151D01*
X0010095D01*
X0028788Y0014484D02*
X0028721Y0014431D01*
Y0014324D01*
X0028788Y0014271D01*
X0028854D01*
X0028988Y0014378D01*
X0029121Y0014271D01*
Y0014484D01*
Y0014671D02*
X0028788D01*
X0028721Y0014698D01*
Y0014858D01*
X0028788Y0014884D01*
X0029121D01*
G54D70*
G01X0060523Y0001317D02*
X0060430D01*
X0060477D02*
Y0001717D01*
X0060430Y0001650D01*
X0060240Y0001517D02*
X0060053D01*
X0059910Y0001450D02*
X0059723D01*
X0059817Y0001717D01*
X0059863D01*
Y0001317D01*
X0059463D02*
X0059417Y0001383D01*
X0059393Y0001450D01*
Y0001583D01*
X0059417Y0001650D01*
X0059463Y0001717D01*
X0059510D01*
X0059557Y0001650D01*
X0059580Y0001583D01*
Y0001450D01*
X0059557Y0001383D01*
X0059510Y0001317D01*
X0059463D01*
X0059063Y0001383D02*
X0059110Y0001317D01*
X0059203D01*
X0059250Y0001383D01*
Y0001450D01*
X0059157Y0001583D01*
X0059250Y0001717D01*
X0059063D01*
X0058920Y0001517D02*
X0058733D01*
X0058590Y0001317D02*
X0058403D01*
X0058590Y0001583D01*
Y0001650D01*
X0058567Y0001717D01*
X0058427D01*
X0058403Y0001650D01*
X0058260Y0001317D02*
X0058073D01*
X0058260Y0001583D01*
Y0001650D01*
X0058237Y0001717D01*
X0058097D01*
X0058073Y0001650D01*
X0040775Y-0000372D02*
X0040557D01*
X0040775Y-0000606D02*
Y-0000139D01*
X0040557Y-0000606D02*
Y-0000139D01*
X0040410Y-0000528D02*
X0040383Y-0000606D01*
X0040219D01*
X0040192Y-0000528D01*
Y-0000217D01*
X0040219Y-0000139D01*
X0040383D01*
X0040410Y-0000217D01*
X0040045D02*
X0040018Y-0000139D01*
X0039854D01*
X0039827Y-0000217D01*
Y-0000294D01*
X0039854Y-0000372D01*
X0040018D01*
X0040045Y-0000450D01*
Y-0000528D01*
X0040018Y-0000606D01*
X0039854D01*
X0039827Y-0000528D01*
X0040681Y0000194D02*
Y0000428D01*
X0040790Y0000661D02*
X0040708Y0000428D01*
X0040654D01*
X0040572Y0000661D01*
X0040425Y0000583D02*
X0040398Y0000661D01*
X0040234D01*
X0040207Y0000583D01*
Y0000505D01*
X0040234Y0000428D01*
X0040398D01*
X0040425Y0000350D01*
Y0000272D01*
X0040398Y0000194D01*
X0040234D01*
X0040207Y0000272D01*
X0040060Y0000583D02*
X0040033Y0000661D01*
X0039869D01*
X0039842Y0000583D01*
Y0000505D01*
X0039869Y0000428D01*
X0040033D01*
X0040060Y0000350D01*
Y0000272D01*
X0040033Y0000194D01*
X0039869D01*
X0039842Y0000272D01*
X0039695Y0000350D02*
X0039477D01*
X0039695Y0000194D02*
Y0000428D01*
X0039613Y0000661D01*
X0039559D01*
X0039477Y0000428D01*
Y0000194D01*
X0062326Y0007313D02*
X0062259Y0007267D01*
Y0007173D01*
X0062326Y0007127D01*
X0062392D01*
X0062526Y0007220D01*
X0062659Y0007127D01*
Y0007313D01*
X0062259Y0007457D02*
Y0007620D01*
X0062659D01*
X0062259Y0007927D02*
X0062659D01*
X0062259Y0007950D02*
Y0007810D01*
X0062392Y0007763D01*
X0062526D01*
X0062659Y0007810D01*
Y0007950D01*
X0066489Y0006022D02*
X0066423Y0005975D01*
Y0005882D01*
X0066489Y0005835D01*
X0066556D01*
X0066689Y0005929D01*
X0066823Y0005835D01*
Y0006022D01*
X0066489Y0006352D02*
X0066423Y0006305D01*
Y0006212D01*
X0066489Y0006165D01*
X0066556D01*
X0066689Y0006259D01*
X0066823Y0006165D01*
Y0006352D01*
X0066489Y0006495D02*
X0066423Y0006519D01*
Y0006659D01*
X0066489Y0006682D01*
X0066756D01*
X0066823Y0006659D01*
Y0006519D01*
X0066756Y0006495D01*
X0048827Y0004511D02*
X0048760Y0004488D01*
Y0004348D01*
X0048827Y0004324D01*
X0048960D01*
X0049027Y0004371D01*
Y0004511D01*
X0049160D01*
Y0004324D01*
X0048894Y0004654D02*
Y0004841D01*
X0049160Y0004748D01*
Y0004701D01*
X0048760D01*
X0048827Y0004984D02*
X0048760Y0005008D01*
Y0005148D01*
X0048827Y0005171D01*
X0049094D01*
X0049160Y0005148D01*
Y0005008D01*
X0049094Y0004984D01*
X0033517Y-0001303D02*
Y-0001443D01*
X0033450Y-0001467D01*
X0033383D01*
X0033317Y-0001443D01*
Y-0001303D01*
X0033383Y-0001280D01*
X0033450D01*
X0033717Y-0001373D01*
X0033450Y-0000973D02*
X0033383D01*
X0033317Y-0000997D01*
Y-0001090D01*
X0033383Y-0001113D01*
X0033717D01*
Y-0001137D02*
Y-0001043D01*
X0024223Y0010912D02*
Y0011005D01*
Y0010959D02*
X0024623D01*
X0024556Y0011005D01*
X0024423Y0011265D02*
X0024223Y0011195D01*
X0024423Y0011382D02*
Y0011242D01*
X0024489Y0011195D01*
X0024556D01*
X0024623Y0011242D01*
Y0011382D01*
X0024223D01*
X0005944Y0000753D02*
X0006011Y0000730D01*
X0006078D01*
X0006144Y0000753D01*
Y0000893D01*
X0006078Y0000916D01*
X0006011D01*
X0005944Y0000893D01*
Y0000753D01*
X0005878Y0000730D01*
X0005811D01*
X0005744Y0000753D01*
Y0000893D01*
X0005811Y0000916D01*
X0005878D01*
X0005944Y0000893D01*
X0005744Y0001060D02*
Y0001153D01*
Y0001106D02*
X0006144D01*
X0006078Y0001153D01*
X0005944Y0001413D02*
X0005744Y0001343D01*
X0005944Y0001530D02*
Y0001390D01*
X0006011Y0001343D01*
X0006078D01*
X0006144Y0001390D01*
Y0001530D01*
X0005744D01*
X0049948Y0005602D02*
Y0005789D01*
X0050215Y0005602D01*
X0050281D01*
X0050348Y0005626D01*
Y0005766D01*
X0050281Y0005789D01*
X0049948Y0005932D02*
Y0006026D01*
Y0005979D02*
X0050348D01*
X0050281Y0006026D01*
X0050348Y0006216D02*
X0050015D01*
X0049948Y0006239D01*
Y0006379D01*
X0050015Y0006402D01*
X0050348D01*
X0070873Y0002729D02*
X0071273Y0002589D01*
Y0002775D01*
X0070873Y0002919D02*
Y0003082D01*
X0071273D01*
X0059323Y0003185D02*
Y0003372D01*
X0059589Y0003185D01*
X0059656D01*
X0059723Y0003209D01*
Y0003349D01*
X0059656Y0003372D01*
X0059523Y0003679D02*
Y0003539D01*
X0059456Y0003515D01*
X0059389D01*
X0059323Y0003539D01*
Y0003679D01*
X0059389Y0003702D01*
X0059456D01*
X0059723Y0003609D01*
X0059523Y0003915D02*
X0059323Y0003845D01*
X0059523Y0004032D02*
Y0003892D01*
X0059589Y0003845D01*
X0059656D01*
X0059723Y0003892D01*
Y0004032D01*
X0059323D01*
X0006046Y0002873D02*
X0006446Y0002733D01*
Y0002920D01*
Y0003063D02*
X0006113D01*
X0006046Y0003086D01*
Y0003226D01*
X0006113Y0003250D01*
X0006446D01*
X0062323Y0003302D02*
X0062389Y0003349D01*
X0062456Y0003372D01*
X0062589D01*
X0062656Y0003349D01*
X0062723Y0003302D01*
Y0003255D01*
X0062656Y0003209D01*
X0062589Y0003185D01*
X0062456D01*
X0062389Y0003209D01*
X0062323Y0003255D01*
Y0003302D01*
X0062523Y0003679D02*
Y0003539D01*
X0062456Y0003515D01*
X0062389D01*
X0062323Y0003539D01*
Y0003679D01*
X0062389Y0003702D01*
X0062456D01*
X0062723Y0003609D01*
X0062523Y0003915D02*
X0062323Y0003845D01*
X0062523Y0004032D02*
Y0003892D01*
X0062589Y0003845D01*
X0062656D01*
X0062723Y0003892D01*
Y0004032D01*
X0062323D01*
X0056206Y-0000014D02*
Y0000172D01*
X0056473Y0000079D01*
Y0000032D01*
X0056073D01*
Y0000455D02*
X0056473Y0000315D01*
Y0000502D01*
X0056273Y0000715D02*
X0056073Y0000645D01*
X0056273Y0000832D02*
Y0000692D01*
X0056339Y0000645D01*
X0056406D01*
X0056473Y0000692D01*
Y0000832D01*
X0056073D01*
X0046044Y0004924D02*
Y0005111D01*
X0046310Y0005018D01*
Y0004971D01*
X0045910D01*
X0046044Y0005254D02*
Y0005441D01*
X0046310Y0005348D01*
Y0005301D01*
X0045910D01*
X0045977Y0005584D02*
X0045910Y0005608D01*
Y0005748D01*
X0045977Y0005771D01*
X0046244D01*
X0046310Y0005748D01*
Y0005608D01*
X0046244Y0005584D01*
X0027077Y0014141D02*
X0027010Y0014094D01*
Y0014001D01*
X0027077Y0013954D01*
X0027144D01*
X0027277Y0014048D01*
X0027410Y0013954D01*
Y0014141D01*
X0027077Y0014284D02*
X0027010Y0014308D01*
Y0014448D01*
X0027077Y0014471D01*
X0027344D01*
X0027410Y0014448D01*
Y0014308D01*
X0027344Y0014284D01*
X0017633Y0011726D02*
X0017700Y0011772D01*
X0017767Y0011796D01*
X0017900D01*
X0017967Y0011772D01*
X0018033Y0011726D01*
Y0011679D01*
X0017967Y0011632D01*
X0017900Y0011609D01*
X0017767D01*
X0017700Y0011632D01*
X0017633Y0011679D01*
Y0011726D01*
Y0011939D02*
Y0012032D01*
Y0011986D02*
X0018033D01*
X0017967Y0012032D01*
X0018033Y0012222D02*
X0017700D01*
X0017633Y0012246D01*
Y0012386D01*
X0017700Y0012409D01*
X0018033D01*
X0001678Y-0001043D02*
X0001611Y-0001089D01*
Y-0001183D01*
X0001678Y-0001229D01*
X0001744D01*
X0001878Y-0001136D01*
X0002011Y-0001229D01*
Y-0001043D01*
X0001744Y-0000736D02*
X0001678D01*
X0001611Y-0000759D01*
Y-0000853D01*
X0001678Y-0000876D01*
X0002011D01*
Y-0000899D02*
Y-0000806D01*
X0006342Y-0001287D02*
X0006249D01*
X0006295D02*
Y-0000887D01*
X0006249Y-0000954D01*
X0028296Y0008437D02*
Y0008530D01*
Y0008484D02*
X0028696D01*
X0028629Y0008530D01*
X0028696Y0008720D02*
X0028363D01*
X0028296Y0008744D01*
Y0008884D01*
X0028363Y0008907D01*
X0028696D01*
X0061259Y0007177D02*
Y0007363D01*
X0061526Y0007177D01*
X0061592D01*
X0061659Y0007200D01*
Y0007340D01*
X0061592Y0007363D01*
X0061259Y0007507D02*
Y0007670D01*
X0061659D01*
X0061259Y0007977D02*
X0061659D01*
X0061259Y0008000D02*
Y0007860D01*
X0061392Y0007813D01*
X0061526D01*
X0061659Y0007860D01*
Y0008000D01*
X0071410Y-0000902D02*
X0071477Y-0000925D01*
X0071544D01*
X0071610Y-0000902D01*
Y-0000762D01*
X0071544Y-0000739D01*
X0071477D01*
X0071410Y-0000762D01*
Y-0000902D01*
X0071344Y-0000925D01*
X0071277D01*
X0071210Y-0000902D01*
Y-0000762D01*
X0071277Y-0000739D01*
X0071344D01*
X0071410Y-0000762D01*
X0071210Y-0000595D02*
Y-0000409D01*
X0071477Y-0000595D01*
X0071544D01*
X0071610Y-0000572D01*
Y-0000432D01*
X0071544Y-0000409D01*
X0071410Y-0000195D02*
X0071210Y-0000265D01*
X0071410Y-0000079D02*
Y-0000219D01*
X0071477Y-0000265D01*
X0071544D01*
X0071610Y-0000219D01*
Y-0000079D01*
X0071210D01*
X0003726Y0006155D02*
X0003539D01*
X0003633Y0006422D01*
X0003679D01*
Y0006022D01*
X0003396D02*
X0003209D01*
X0003396Y0006289D01*
Y0006355D01*
X0003373Y0006422D01*
X0003233D01*
X0003209Y0006355D01*
X0002996Y0006222D02*
X0003066Y0006022D01*
X0002879Y0006222D02*
X0003019D01*
X0003066Y0006289D01*
Y0006355D01*
X0003019Y0006422D01*
X0002879D01*
Y0006022D01*
X0002144Y0000770D02*
X0002544Y0000630D01*
Y0000816D01*
X0002144Y0000960D02*
Y0001053D01*
Y0001006D02*
X0002544D01*
X0002478Y0001053D01*
X0002344Y0001313D02*
X0002144Y0001243D01*
X0002344Y0001430D02*
Y0001290D01*
X0002411Y0001243D01*
X0002478D01*
X0002544Y0001290D01*
Y0001430D01*
X0002144D01*
X0037823Y0005785D02*
Y0005972D01*
X0038089Y0005785D01*
X0038156D01*
X0038223Y0005809D01*
Y0005949D01*
X0038156Y0005972D01*
X0037889Y0006302D02*
X0037823Y0006255D01*
Y0006162D01*
X0037889Y0006115D01*
X0037956D01*
X0038089Y0006209D01*
X0038223Y0006115D01*
Y0006302D01*
X0037889Y0006445D02*
X0037823Y0006469D01*
Y0006609D01*
X0037889Y0006632D01*
X0038156D01*
X0038223Y0006609D01*
Y0006469D01*
X0038156Y0006445D01*
X0066527Y0007261D02*
X0066460Y0007238D01*
Y0007098D01*
X0066527Y0007074D01*
X0066660D01*
X0066727Y0007121D01*
Y0007261D01*
X0066860D01*
Y0007074D01*
X0066594Y0007404D02*
Y0007591D01*
X0066860Y0007498D01*
Y0007451D01*
X0066460D01*
X0066660Y0007804D02*
X0066460Y0007734D01*
X0066660Y0007921D02*
Y0007781D01*
X0066727Y0007734D01*
X0066794D01*
X0066860Y0007781D01*
Y0007921D01*
X0066460D01*
X0028284Y0004390D02*
Y0004483D01*
Y0004437D02*
X0028684D01*
X0028617Y0004483D01*
X0028284Y0004673D02*
Y0004767D01*
Y0004720D02*
X0028684D01*
X0028617Y0004767D01*
X0028684Y0004957D02*
X0028351D01*
X0028284Y0004980D01*
Y0005120D01*
X0028351Y0005143D01*
X0028684D01*
X0056509Y0007200D02*
X0056576Y0007177D01*
X0056642D01*
X0056709Y0007200D01*
Y0007340D01*
X0056642Y0007363D01*
X0056576D01*
X0056509Y0007340D01*
Y0007200D01*
X0056442Y0007177D01*
X0056376D01*
X0056309Y0007200D01*
Y0007340D01*
X0056376Y0007363D01*
X0056442D01*
X0056509Y0007340D01*
X0056309Y0007507D02*
Y0007670D01*
X0056709D01*
X0056309Y0007977D02*
X0056709D01*
X0056309Y0008000D02*
Y0007860D01*
X0056442Y0007813D01*
X0056576D01*
X0056709Y0007860D01*
Y0008000D01*
X0025941Y0002169D02*
Y0002356D01*
X0026208Y0002262D01*
Y0002216D01*
X0025808D01*
Y0002662D02*
X0026208D01*
X0025808Y0002686D02*
Y0002546D01*
X0025941Y0002499D01*
X0026075D01*
X0026208Y0002546D01*
Y0002686D01*
X0006360Y0015960D02*
X0006294Y0015913D01*
Y0015820D01*
X0006360Y0015773D01*
X0006427D01*
X0006560Y0015867D01*
X0006694Y0015773D01*
Y0015960D01*
X0006294Y0016103D02*
Y0016267D01*
X0006694D01*
X0033473Y0008909D02*
Y0009049D01*
X0033539Y0009072D01*
X0033606D01*
X0033673Y0009049D01*
Y0008909D01*
X0033606Y0008885D01*
X0033539D01*
X0033273Y0008979D01*
X0033473Y0009379D02*
Y0009239D01*
X0033406Y0009215D01*
X0033339D01*
X0033273Y0009239D01*
Y0009379D01*
X0033339Y0009402D01*
X0033406D01*
X0033673Y0009309D01*
X0033473Y0009615D02*
X0033273Y0009545D01*
X0033473Y0009732D02*
Y0009592D01*
X0033539Y0009545D01*
X0033606D01*
X0033673Y0009592D01*
Y0009732D01*
X0033273D01*
X0066489Y0004772D02*
X0066423Y0004725D01*
Y0004632D01*
X0066489Y0004585D01*
X0066556D01*
X0066689Y0004679D01*
X0066823Y0004585D01*
Y0004772D01*
X0066556Y0004915D02*
Y0005102D01*
X0066823Y0005009D01*
Y0004962D01*
X0066423D01*
X0066623Y0005315D02*
X0066423Y0005245D01*
X0066623Y0005432D02*
Y0005292D01*
X0066689Y0005245D01*
X0066756D01*
X0066823Y0005292D01*
Y0005432D01*
X0066423D01*
X0046655Y0005664D02*
X0046589Y0005617D01*
Y0005524D01*
X0046655Y0005477D01*
X0046722D01*
X0046855Y0005570D01*
X0046989Y0005477D01*
Y0005664D01*
X0046722Y0005807D02*
Y0005994D01*
X0046989Y0005900D01*
Y0005854D01*
X0046589D01*
X0046655Y0006137D02*
X0046589Y0006160D01*
Y0006300D01*
X0046655Y0006324D01*
X0046922D01*
X0046989Y0006300D01*
Y0006160D01*
X0046922Y0006137D01*
X0026746Y0011172D02*
X0026559D01*
X0026746Y0011439D01*
Y0011505D01*
X0026723Y0011572D01*
X0026583D01*
X0026559Y0011505D01*
X0026416Y0011239D02*
X0026393Y0011172D01*
X0026253D01*
X0026229Y0011239D01*
Y0011505D01*
X0026253Y0011572D01*
X0026393D01*
X0026416Y0011505D01*
X0021217Y-0000217D02*
Y-0000030D01*
X0021483Y-0000217D01*
X0021550D01*
X0021617Y-0000193D01*
Y-0000053D01*
X0021550Y-0000030D01*
X0021350Y0000277D02*
X0021283D01*
X0021217Y0000253D01*
Y0000160D01*
X0021283Y0000137D01*
X0021617D01*
Y0000113D02*
Y0000207D01*
X0061523Y0003209D02*
Y0003349D01*
X0061589Y0003372D01*
X0061656D01*
X0061723Y0003349D01*
Y0003209D01*
X0061656Y0003185D01*
X0061589D01*
X0061323Y0003279D01*
X0061389Y0003702D02*
X0061323Y0003679D01*
Y0003539D01*
X0061389Y0003515D01*
X0061523D01*
X0061589Y0003562D01*
Y0003702D01*
X0061723D01*
Y0003515D01*
X0061523Y0003915D02*
X0061323Y0003845D01*
X0061523Y0004032D02*
Y0003892D01*
X0061589Y0003845D01*
X0061656D01*
X0061723Y0003892D01*
Y0004032D01*
X0061323D01*
X0004516Y0006222D02*
X0004656D01*
X0004679Y0006155D01*
Y0006089D01*
X0004656Y0006022D01*
X0004516D01*
X0004493Y0006089D01*
Y0006155D01*
X0004586Y0006422D01*
X0004349Y0006022D02*
X0004256D01*
X0004303D02*
Y0006422D01*
X0004256Y0006355D01*
X0003996Y0006222D02*
X0004066Y0006022D01*
X0003879Y0006222D02*
X0004019D01*
X0004066Y0006289D01*
Y0006355D01*
X0004019Y0006422D01*
X0003879D01*
Y0006022D01*
X0067806Y0007035D02*
Y0007222D01*
X0068073Y0007129D01*
Y0007082D01*
X0067673D01*
X0067806Y0007365D02*
Y0007552D01*
X0068073Y0007459D01*
Y0007412D01*
X0067673D01*
X0067873Y0007765D02*
X0067673Y0007695D01*
X0067873Y0007882D02*
Y0007742D01*
X0067939Y0007695D01*
X0068006D01*
X0068073Y0007742D01*
Y0007882D01*
X0067673D01*
X0014759Y0016023D02*
Y0016117D01*
Y0016070D02*
X0015159D01*
X0015092Y0016117D01*
X0014759Y0016307D02*
Y0016470D01*
X0015159D01*
X0014759Y0016777D02*
X0015159D01*
X0014759Y0016800D02*
Y0016660D01*
X0014892Y0016613D01*
X0015026D01*
X0015159Y0016660D01*
Y0016800D01*
X0056339Y0003422D02*
X0056273Y0003399D01*
Y0003259D01*
X0056339Y0003235D01*
X0056473D01*
X0056539Y0003282D01*
Y0003422D01*
X0056673D01*
Y0003235D01*
X0056473Y0003729D02*
Y0003589D01*
X0056406Y0003565D01*
X0056339D01*
X0056273Y0003589D01*
Y0003729D01*
X0056339Y0003752D01*
X0056406D01*
X0056673Y0003659D01*
X0056473Y0003965D02*
X0056273Y0003895D01*
X0056473Y0004082D02*
Y0003942D01*
X0056539Y0003895D01*
X0056606D01*
X0056673Y0003942D01*
Y0004082D01*
X0056273D01*
X0005489Y0006139D02*
X0005536Y0006072D01*
X0005629D01*
X0005676Y0006139D01*
Y0006205D01*
X0005583Y0006339D01*
X0005676Y0006472D01*
X0005489D01*
X0005346Y0006072D02*
X0005159D01*
X0005346Y0006339D01*
Y0006405D01*
X0005323Y0006472D01*
X0005183D01*
X0005159Y0006405D01*
X0004946Y0006272D02*
X0005016Y0006072D01*
X0004829Y0006272D02*
X0004969D01*
X0005016Y0006339D01*
Y0006405D01*
X0004969Y0006472D01*
X0004829D01*
Y0006072D01*
X0053360Y-0000075D02*
Y0000111D01*
X0053627Y-0000075D01*
X0053694D01*
X0053760Y-0000052D01*
Y0000088D01*
X0053694Y0000111D01*
X0053494Y0000254D02*
Y0000441D01*
X0053760Y0000348D01*
Y0000301D01*
X0053360D01*
X0053427Y0000584D02*
X0053360Y0000608D01*
Y0000748D01*
X0053427Y0000771D01*
X0053694D01*
X0053760Y0000748D01*
Y0000608D01*
X0053694Y0000584D01*
X0069056Y0005835D02*
Y0006022D01*
X0069323Y0005929D01*
Y0005882D01*
X0068923D01*
X0068989Y0006352D02*
X0068923Y0006305D01*
Y0006212D01*
X0068989Y0006165D01*
X0069056D01*
X0069189Y0006259D01*
X0069323Y0006165D01*
Y0006352D01*
X0068989Y0006495D02*
X0068923Y0006519D01*
Y0006659D01*
X0068989Y0006682D01*
X0069256D01*
X0069323Y0006659D01*
Y0006519D01*
X0069256Y0006495D01*
X0021325Y0002306D02*
X0021258Y0002259D01*
Y0002166D01*
X0021325Y0002119D01*
X0021391D01*
X0021525Y0002212D01*
X0021658Y0002119D01*
Y0002306D01*
X0021258Y0002612D02*
X0021658D01*
X0021258Y0002636D02*
Y0002496D01*
X0021391Y0002449D01*
X0021525D01*
X0021658Y0002496D01*
Y0002636D01*
X0005739Y0009064D02*
X0006139Y0008924D01*
Y0009110D01*
X0005739Y0009254D02*
Y0009347D01*
Y0009300D02*
X0006139D01*
X0006072Y0009347D01*
X0005805Y0009537D02*
X0005739Y0009560D01*
Y0009700D01*
X0005805Y0009724D01*
X0006072D01*
X0006139Y0009700D01*
Y0009560D01*
X0006072Y0009537D01*
X0025027Y0013241D02*
X0024960Y0013194D01*
Y0013101D01*
X0025027Y0013054D01*
X0025094D01*
X0025227Y0013148D01*
X0025360Y0013054D01*
Y0013241D01*
X0025160Y0013454D02*
X0024960Y0013384D01*
X0025160Y0013571D02*
Y0013431D01*
X0025227Y0013384D01*
X0025294D01*
X0025360Y0013431D01*
Y0013571D01*
X0024960D01*
X0047023Y0000932D02*
Y0001025D01*
Y0000979D02*
X0047423D01*
X0047356Y0001025D01*
X0047156Y0001215D02*
Y0001402D01*
X0047423Y0001309D01*
Y0001262D01*
X0047023D01*
X0047089Y0001545D02*
X0047023Y0001569D01*
Y0001709D01*
X0047089Y0001732D01*
X0047356D01*
X0047423Y0001709D01*
Y0001569D01*
X0047356Y0001545D01*
X0025510Y0011094D02*
X0025910Y0010954D01*
Y0011141D01*
X0025710Y0011354D02*
X0025510Y0011284D01*
X0025710Y0011471D02*
Y0011331D01*
X0025777Y0011284D01*
X0025844D01*
X0025910Y0011331D01*
Y0011471D01*
X0025510D01*
X0062494Y-0000725D02*
Y-0000539D01*
X0062760Y-0000632D01*
Y-0000679D01*
X0062360D01*
X0062427Y-0000209D02*
X0062360Y-0000255D01*
Y-0000349D01*
X0062427Y-0000395D01*
X0062494D01*
X0062627Y-0000302D01*
X0062760Y-0000395D01*
Y-0000209D01*
X0062560Y0000004D02*
X0062360Y-0000065D01*
X0062560Y0000121D02*
Y-0000019D01*
X0062627Y-0000065D01*
X0062694D01*
X0062760Y-0000019D01*
Y0000121D01*
X0062360D01*
X0067660Y0005774D02*
Y0005961D01*
X0067927Y0005774D01*
X0067994D01*
X0068060Y0005798D01*
Y0005938D01*
X0067994Y0005961D01*
X0067794Y0006104D02*
Y0006291D01*
X0068060Y0006198D01*
Y0006151D01*
X0067660D01*
X0067860Y0006504D02*
X0067660Y0006434D01*
X0067860Y0006621D02*
Y0006481D01*
X0067927Y0006434D01*
X0067994D01*
X0068060Y0006481D01*
Y0006621D01*
X0067660D01*
X0000364Y0006240D02*
Y0006100D01*
X0000298Y0006077D01*
X0000231D01*
X0000164Y0006100D01*
Y0006240D01*
X0000231Y0006263D01*
X0000298D01*
X0000564Y0006170D01*
X0000164Y0006570D02*
X0000564D01*
X0000164Y0006593D02*
Y0006453D01*
X0000298Y0006407D01*
X0000431D01*
X0000564Y0006453D01*
Y0006593D01*
X0032010Y0008898D02*
X0032077Y0008874D01*
X0032144D01*
X0032210Y0008898D01*
Y0009038D01*
X0032144Y0009061D01*
X0032077D01*
X0032010Y0009038D01*
Y0008898D01*
X0031944Y0008874D01*
X0031877D01*
X0031810Y0008898D01*
Y0009038D01*
X0031877Y0009061D01*
X0031944D01*
X0032010Y0009038D01*
Y0009368D02*
Y0009228D01*
X0031944Y0009204D01*
X0031877D01*
X0031810Y0009228D01*
Y0009368D01*
X0031877Y0009391D01*
X0031944D01*
X0032210Y0009298D01*
X0032010Y0009604D02*
X0031810Y0009534D01*
X0032010Y0009721D02*
Y0009581D01*
X0032077Y0009534D01*
X0032144D01*
X0032210Y0009581D01*
Y0009721D01*
X0031810D01*
X0071975Y0002284D02*
X0072042Y0002331D01*
X0072108Y0002354D01*
X0072242D01*
X0072308Y0002331D01*
X0072375Y0002284D01*
Y0002238D01*
X0072308Y0002191D01*
X0072242Y0002168D01*
X0072108D01*
X0072042Y0002191D01*
X0071975Y0002238D01*
Y0002284D01*
Y0002498D02*
Y0002591D01*
Y0002544D02*
X0072375D01*
X0072308Y0002591D01*
X0071975Y0002944D02*
X0072375D01*
X0071975Y0002968D02*
Y0002828D01*
X0072108Y0002781D01*
X0072242D01*
X0072375Y0002828D01*
Y0002968D01*
X0047423Y-0000068D02*
Y0000025D01*
Y-0000021D02*
X0047823D01*
X0047756Y0000025D01*
X0047423Y0000355D02*
X0047823Y0000215D01*
Y0000402D01*
X0047623Y0000615D02*
X0047423Y0000545D01*
X0047623Y0000732D02*
Y0000592D01*
X0047689Y0000545D01*
X0047756D01*
X0047823Y0000592D01*
Y0000732D01*
X0047423D01*
X0030710Y0014278D02*
Y0014418D01*
X0030777Y0014441D01*
X0030844D01*
X0030910Y0014418D01*
Y0014278D01*
X0030844Y0014254D01*
X0030777D01*
X0030510Y0014348D01*
X0030710Y0014654D02*
X0030510Y0014584D01*
X0030710Y0014771D02*
Y0014631D01*
X0030777Y0014584D01*
X0030844D01*
X0030910Y0014631D01*
Y0014771D01*
X0030510D01*
X0056473Y0002002D02*
X0056539Y0002049D01*
X0056606Y0002072D01*
X0056739D01*
X0056806Y0002049D01*
X0056873Y0002002D01*
Y0001955D01*
X0056806Y0001909D01*
X0056739Y0001885D01*
X0056606D01*
X0056539Y0001909D01*
X0056473Y0001955D01*
Y0002002D01*
X0056606Y0002215D02*
Y0002402D01*
X0056873Y0002309D01*
Y0002262D01*
X0056473D01*
X0056539Y0002545D02*
X0056473Y0002569D01*
Y0002709D01*
X0056539Y0002732D01*
X0056806D01*
X0056873Y0002709D01*
Y0002569D01*
X0056806Y0002545D01*
X0028260Y0015251D02*
Y0015344D01*
Y0015298D02*
X0028660D01*
X0028594Y0015344D01*
X0028327Y0015534D02*
X0028260Y0015558D01*
Y0015698D01*
X0028327Y0015721D01*
X0028594D01*
X0028660Y0015698D01*
Y0015558D01*
X0028594Y0015534D01*
X0048060Y0006914D02*
X0048460Y0006774D01*
Y0006961D01*
X0048127Y0007291D02*
X0048060Y0007268D01*
Y0007128D01*
X0048127Y0007104D01*
X0048260D01*
X0048327Y0007151D01*
Y0007291D01*
X0048460D01*
Y0007104D01*
X0048260Y0007504D02*
X0048060Y0007434D01*
X0048260Y0007621D02*
Y0007481D01*
X0048327Y0007434D01*
X0048394D01*
X0048460Y0007481D01*
Y0007621D01*
X0048060D01*
X0069123Y0004659D02*
X0069189Y0004635D01*
X0069256D01*
X0069323Y0004659D01*
Y0004799D01*
X0069256Y0004822D01*
X0069189D01*
X0069123Y0004799D01*
Y0004659D01*
X0069056Y0004635D01*
X0068989D01*
X0068923Y0004659D01*
Y0004799D01*
X0068989Y0004822D01*
X0069056D01*
X0069123Y0004799D01*
X0069056Y0004965D02*
Y0005152D01*
X0069323Y0005059D01*
Y0005012D01*
X0068923D01*
X0069123Y0005365D02*
X0068923Y0005295D01*
X0069123Y0005482D02*
Y0005342D01*
X0069189Y0005295D01*
X0069256D01*
X0069323Y0005342D01*
Y0005482D01*
X0068923D01*
X0067660Y0004621D02*
Y0004714D01*
Y0004668D02*
X0068060D01*
X0067994Y0004714D01*
X0067794Y0004904D02*
Y0005091D01*
X0068060Y0004998D01*
Y0004951D01*
X0067660D01*
X0067860Y0005304D02*
X0067660Y0005234D01*
X0067860Y0005421D02*
Y0005281D01*
X0067927Y0005234D01*
X0067994D01*
X0068060Y0005281D01*
Y0005421D01*
X0067660D01*
X0060392Y0007177D02*
Y0007363D01*
X0060659Y0007270D01*
Y0007223D01*
X0060259D01*
Y0007507D02*
Y0007670D01*
X0060659D01*
X0060259Y0007977D02*
X0060659D01*
X0060259Y0008000D02*
Y0007860D01*
X0060392Y0007813D01*
X0060526D01*
X0060659Y0007860D01*
Y0008000D01*
X0000781Y0006263D02*
X0000714Y0006240D01*
Y0006100D01*
X0000781Y0006077D01*
X0000914D01*
X0000981Y0006123D01*
Y0006263D01*
X0001114D01*
Y0006077D01*
X0000714Y0006570D02*
X0001114D01*
X0000714Y0006593D02*
Y0006453D01*
X0000848Y0006407D01*
X0000981D01*
X0001114Y0006453D01*
Y0006593D01*
X0012839Y0011572D02*
X0012773Y0011525D01*
Y0011432D01*
X0012839Y0011385D01*
X0012906D01*
X0013039Y0011479D01*
X0013173Y0011385D01*
Y0011572D01*
X0012773Y0011715D02*
Y0011902D01*
X0013039Y0011715D01*
X0013106D01*
X0013173Y0011739D01*
Y0011879D01*
X0013106Y0011902D01*
X0012839Y0012045D02*
X0012773Y0012069D01*
Y0012209D01*
X0012839Y0012232D01*
X0013106D01*
X0013173Y0012209D01*
Y0012069D01*
X0013106Y0012045D01*
X0058509Y0007290D02*
Y0007150D01*
X0058442Y0007127D01*
X0058376D01*
X0058309Y0007150D01*
Y0007290D01*
X0058376Y0007313D01*
X0058442D01*
X0058709Y0007220D01*
X0058309Y0007457D02*
Y0007620D01*
X0058709D01*
X0058309Y0007927D02*
X0058709D01*
X0058309Y0007950D02*
Y0007810D01*
X0058442Y0007763D01*
X0058576D01*
X0058709Y0007810D01*
Y0007950D01*
X0015235Y0010457D02*
Y0010643D01*
X0015502Y0010550D01*
Y0010503D01*
X0015102D01*
Y0010787D02*
Y0010973D01*
X0015368Y0010787D01*
X0015435D01*
X0015502Y0010810D01*
Y0010950D01*
X0015435Y0010973D01*
X0015168Y0011117D02*
X0015102Y0011140D01*
Y0011280D01*
X0015168Y0011303D01*
X0015435D01*
X0015502Y0011280D01*
Y0011140D01*
X0015435Y0011117D01*
X0034023Y0011879D02*
Y0011972D01*
Y0011925D02*
X0034423D01*
X0034356Y0011972D01*
X0034023Y0012162D02*
Y0012255D01*
Y0012209D02*
X0034423D01*
X0034356Y0012255D01*
X0034223Y0012515D02*
X0034023Y0012445D01*
X0034223Y0012632D02*
Y0012492D01*
X0034289Y0012445D01*
X0034356D01*
X0034423Y0012492D01*
Y0012632D01*
X0034023D01*
X0031973Y0014289D02*
X0032039Y0014265D01*
X0032106D01*
X0032173Y0014289D01*
Y0014429D01*
X0032106Y0014452D01*
X0032039D01*
X0031973Y0014429D01*
Y0014289D01*
X0031906Y0014265D01*
X0031839D01*
X0031773Y0014289D01*
Y0014429D01*
X0031839Y0014452D01*
X0031906D01*
X0031973Y0014429D01*
Y0014665D02*
X0031773Y0014595D01*
X0031973Y0014782D02*
Y0014642D01*
X0032039Y0014595D01*
X0032106D01*
X0032173Y0014642D01*
Y0014782D01*
X0031773D01*
X0069625Y0002474D02*
Y0002614D01*
X0069692Y0002638D01*
X0069758D01*
X0069825Y0002614D01*
Y0002474D01*
X0069758Y0002451D01*
X0069692D01*
X0069425Y0002544D01*
Y0002944D02*
X0069825D01*
X0069425Y0002968D02*
Y0002828D01*
X0069558Y0002781D01*
X0069692D01*
X0069825Y0002828D01*
Y0002968D01*
X0025523Y0004055D02*
X0025923Y0003915D01*
Y0004102D01*
X0025589Y0004245D02*
X0025523Y0004269D01*
Y0004409D01*
X0025589Y0004432D01*
X0025856D01*
X0025923Y0004409D01*
Y0004269D01*
X0025856Y0004245D01*
X0006516Y0005172D02*
X0006656D01*
X0006679Y0005105D01*
Y0005039D01*
X0006656Y0004972D01*
X0006516D01*
X0006493Y0005039D01*
Y0005105D01*
X0006586Y0005372D01*
X0006349Y0004972D02*
X0006256D01*
X0006303D02*
Y0005372D01*
X0006256Y0005305D01*
X0006066Y0005039D02*
X0006043Y0004972D01*
X0005903D01*
X0005879Y0005039D01*
Y0005305D01*
X0005903Y0005372D01*
X0006043D01*
X0006066Y0005305D01*
X0068910Y0007241D02*
X0068977Y0007288D01*
X0069044Y0007311D01*
X0069177D01*
X0069244Y0007288D01*
X0069310Y0007241D01*
Y0007194D01*
X0069244Y0007148D01*
X0069177Y0007124D01*
X0069044D01*
X0068977Y0007148D01*
X0068910Y0007194D01*
Y0007241D01*
X0068977Y0007641D02*
X0068910Y0007618D01*
Y0007478D01*
X0068977Y0007454D01*
X0069110D01*
X0069177Y0007501D01*
Y0007641D01*
X0069310D01*
Y0007454D01*
X0069110Y0007854D02*
X0068910Y0007784D01*
X0069110Y0007971D02*
Y0007831D01*
X0069177Y0007784D01*
X0069244D01*
X0069310Y0007831D01*
Y0007971D01*
X0068910D01*
X0053273Y0007109D02*
Y0007249D01*
X0053339Y0007272D01*
X0053406D01*
X0053473Y0007249D01*
Y0007109D01*
X0053406Y0007085D01*
X0053339D01*
X0053073Y0007179D01*
X0053139Y0007602D02*
X0053073Y0007555D01*
Y0007462D01*
X0053139Y0007415D01*
X0053206D01*
X0053339Y0007509D01*
X0053473Y0007415D01*
Y0007602D01*
X0053139Y0007745D02*
X0053073Y0007769D01*
Y0007909D01*
X0053139Y0007932D01*
X0053406D01*
X0053473Y0007909D01*
Y0007769D01*
X0053406Y0007745D01*
X0046360Y-0001162D02*
Y-0001302D01*
X0046294Y-0001325D01*
X0046227D01*
X0046160Y-0001302D01*
Y-0001162D01*
X0046227Y-0001139D01*
X0046294D01*
X0046560Y-0001232D01*
X0046227Y-0000809D02*
X0046160Y-0000832D01*
Y-0000972D01*
X0046227Y-0000995D01*
X0046360D01*
X0046427Y-0000949D01*
Y-0000809D01*
X0046560D01*
Y-0000995D01*
X0046360Y-0000595D02*
X0046160Y-0000665D01*
X0046360Y-0000479D02*
Y-0000619D01*
X0046427Y-0000665D01*
X0046494D01*
X0046560Y-0000619D01*
Y-0000479D01*
X0046160D01*
X0047273Y-0001098D02*
X0047339Y-0001051D01*
X0047406Y-0001028D01*
X0047539D01*
X0047606Y-0001051D01*
X0047673Y-0001098D01*
Y-0001144D01*
X0047606Y-0001191D01*
X0047539Y-0001214D01*
X0047406D01*
X0047339Y-0001191D01*
X0047273Y-0001144D01*
Y-0001098D01*
Y-0000744D02*
X0047673Y-0000884D01*
Y-0000698D01*
X0047473Y-0000484D02*
X0047273Y-0000554D01*
X0047473Y-0000368D02*
Y-0000508D01*
X0047539Y-0000554D01*
X0047606D01*
X0047673Y-0000508D01*
Y-0000368D01*
X0047273D01*
X0060273Y0003232D02*
Y0003325D01*
Y0003279D02*
X0060673D01*
X0060606Y0003325D01*
X0060473Y0003679D02*
Y0003539D01*
X0060406Y0003515D01*
X0060339D01*
X0060273Y0003539D01*
Y0003679D01*
X0060339Y0003702D01*
X0060406D01*
X0060673Y0003609D01*
X0060473Y0003915D02*
X0060273Y0003845D01*
X0060473Y0004032D02*
Y0003892D01*
X0060539Y0003845D01*
X0060606D01*
X0060673Y0003892D01*
Y0004032D01*
X0060273D01*
X0010129Y0010933D02*
Y0011119D01*
X0010396Y0010933D01*
X0010462D01*
X0010529Y0010956D01*
Y0011096D01*
X0010462Y0011119D01*
X0010129Y0011263D02*
Y0011449D01*
X0010396Y0011263D01*
X0010462D01*
X0010529Y0011286D01*
Y0011426D01*
X0010462Y0011449D01*
X0010196Y0011593D02*
X0010129Y0011616D01*
Y0011756D01*
X0010196Y0011779D01*
X0010462D01*
X0010529Y0011756D01*
Y0011616D01*
X0010462Y0011593D01*
X0058289Y0003322D02*
X0058223Y0003275D01*
Y0003182D01*
X0058289Y0003135D01*
X0058356D01*
X0058489Y0003229D01*
X0058623Y0003135D01*
Y0003322D01*
X0058423Y0003629D02*
Y0003489D01*
X0058356Y0003465D01*
X0058289D01*
X0058223Y0003489D01*
Y0003629D01*
X0058289Y0003652D01*
X0058356D01*
X0058623Y0003559D01*
X0058423Y0003865D02*
X0058223Y0003795D01*
X0058423Y0003982D02*
Y0003842D01*
X0058489Y0003795D01*
X0058556D01*
X0058623Y0003842D01*
Y0003982D01*
X0058223D01*
X0065926Y0000360D02*
X0065859Y0000336D01*
Y0000196D01*
X0065926Y0000173D01*
X0066059D01*
X0066126Y0000220D01*
Y0000360D01*
X0066259D01*
Y0000173D01*
X0065992Y0000596D02*
X0065859Y0000503D01*
X0065926Y0000690D02*
X0065859Y0000666D01*
Y0000573D01*
X0065926Y0000550D01*
X0065992Y0000503D01*
X0066192D01*
X0066259Y0000526D01*
Y0000666D01*
X0066192Y0000690D01*
X0065926D01*
X0026077Y0005808D02*
X0026010Y0005784D01*
Y0005644D01*
X0026077Y0005621D01*
X0026210D01*
X0026277Y0005668D01*
Y0005808D01*
X0026410D01*
Y0005621D01*
X0026010Y0005951D02*
Y0006044D01*
Y0005998D02*
X0026410D01*
X0026344Y0006044D01*
X0026210Y0006304D02*
X0026010Y0006234D01*
X0026210Y0006421D02*
Y0006281D01*
X0026277Y0006234D01*
X0026344D01*
X0026410Y0006281D01*
Y0006421D01*
X0026010D01*
X0067910Y0001021D02*
Y0001114D01*
Y0001068D02*
X0068310D01*
X0068244Y0001114D01*
X0067977Y0001491D02*
X0067910Y0001444D01*
Y0001351D01*
X0067977Y0001304D01*
X0068044D01*
X0068177Y0001398D01*
X0068310Y0001304D01*
Y0001491D01*
X0068110Y0001704D02*
X0067910Y0001634D01*
X0068110Y0001821D02*
Y0001681D01*
X0068177Y0001634D01*
X0068244D01*
X0068310Y0001681D01*
Y0001821D01*
X0067910D01*
X0006877Y0006908D02*
X0006810Y0006884D01*
Y0006744D01*
X0006877Y0006721D01*
X0007010D01*
X0007077Y0006768D01*
Y0006908D01*
X0007210D01*
Y0006721D01*
X0006810Y0007051D02*
Y0007144D01*
Y0007098D02*
X0007210D01*
X0007144Y0007144D01*
X0006877Y0007334D02*
X0006810Y0007358D01*
Y0007498D01*
X0006877Y0007521D01*
X0007144D01*
X0007210Y0007498D01*
Y0007358D01*
X0007144Y0007334D01*
X0014023Y-0000718D02*
Y-0000531D01*
X0014289Y-0000718D01*
X0014356D01*
X0014423Y-0000694D01*
Y-0000554D01*
X0014356Y-0000531D01*
X0014023Y-0000388D02*
Y-0000294D01*
Y-0000341D02*
X0014423D01*
X0014356Y-0000294D01*
X0014089Y-0000104D02*
X0014023Y-0000081D01*
Y0000059D01*
X0014089Y0000082D01*
X0014356D01*
X0014423Y0000059D01*
Y-0000081D01*
X0014356Y-0000104D01*
X0070373Y0007109D02*
Y0007249D01*
X0070439Y0007272D01*
X0070506D01*
X0070573Y0007249D01*
Y0007109D01*
X0070506Y0007085D01*
X0070439D01*
X0070173Y0007179D01*
X0070306Y0007415D02*
Y0007602D01*
X0070573Y0007509D01*
Y0007462D01*
X0070173D01*
X0070373Y0007815D02*
X0070173Y0007745D01*
X0070373Y0007932D02*
Y0007792D01*
X0070439Y0007745D01*
X0070506D01*
X0070573Y0007792D01*
Y0007932D01*
X0070173D01*
X0051573Y0007109D02*
X0051639Y0007085D01*
X0051706D01*
X0051773Y0007109D01*
Y0007249D01*
X0051706Y0007272D01*
X0051639D01*
X0051573Y0007249D01*
Y0007109D01*
X0051506Y0007085D01*
X0051439D01*
X0051373Y0007109D01*
Y0007249D01*
X0051439Y0007272D01*
X0051506D01*
X0051573Y0007249D01*
X0051439Y0007602D02*
X0051373Y0007555D01*
Y0007462D01*
X0051439Y0007415D01*
X0051506D01*
X0051639Y0007509D01*
X0051773Y0007415D01*
Y0007602D01*
X0051439Y0007745D02*
X0051373Y0007769D01*
Y0007909D01*
X0051439Y0007932D01*
X0051706D01*
X0051773Y0007909D01*
Y0007769D01*
X0051706Y0007745D01*
X0059326Y0007363D02*
X0059259Y0007340D01*
Y0007200D01*
X0059326Y0007177D01*
X0059459D01*
X0059526Y0007223D01*
Y0007363D01*
X0059659D01*
Y0007177D01*
X0059259Y0007507D02*
Y0007670D01*
X0059659D01*
X0059259Y0007977D02*
X0059659D01*
X0059259Y0008000D02*
Y0007860D01*
X0059392Y0007813D01*
X0059526D01*
X0059659Y0007860D01*
Y0008000D01*
X0067225Y0002424D02*
X0067292Y0002401D01*
X0067358D01*
X0067425Y0002424D01*
Y0002564D01*
X0067358Y0002588D01*
X0067292D01*
X0067225Y0002564D01*
Y0002424D01*
X0067158Y0002401D01*
X0067092D01*
X0067025Y0002424D01*
Y0002564D01*
X0067092Y0002588D01*
X0067158D01*
X0067225Y0002564D01*
X0067025Y0002894D02*
X0067425D01*
X0067025Y0002918D02*
Y0002778D01*
X0067158Y0002731D01*
X0067292D01*
X0067425Y0002778D01*
Y0002918D01*
X0026327Y0016991D02*
X0026260Y0016968D01*
Y0016828D01*
X0026327Y0016804D01*
X0026460D01*
X0026527Y0016851D01*
Y0016991D01*
X0026660D01*
Y0016804D01*
X0026327Y0017134D02*
X0026260Y0017158D01*
Y0017298D01*
X0026327Y0017321D01*
X0026594D01*
X0026660Y0017298D01*
Y0017158D01*
X0026594Y0017134D01*
X0009102Y0010903D02*
Y0010997D01*
Y0010950D02*
X0009502D01*
X0009435Y0010997D01*
X0009102Y0011187D02*
Y0011373D01*
X0009368Y0011187D01*
X0009435D01*
X0009502Y0011210D01*
Y0011350D01*
X0009435Y0011373D01*
X0009168Y0011517D02*
X0009102Y0011540D01*
Y0011680D01*
X0009168Y0011703D01*
X0009435D01*
X0009502Y0011680D01*
Y0011540D01*
X0009435Y0011517D01*
X0011279Y-0000424D02*
Y-0000330D01*
Y-0000377D02*
X0011679D01*
X0011612Y-0000330D01*
X0011279Y-0000140D02*
Y-0000047D01*
Y-0000094D02*
X0011679D01*
X0011612Y-0000047D01*
X0011346Y0000143D02*
X0011279Y0000166D01*
Y0000306D01*
X0011346Y0000329D01*
X0011612D01*
X0011679Y0000306D01*
Y0000166D01*
X0011612Y0000143D01*
X0037802Y0001803D02*
Y0001897D01*
Y0001850D02*
X0038202D01*
X0038135Y0001897D01*
X0037868Y0002273D02*
X0037802Y0002227D01*
Y0002133D01*
X0037868Y0002087D01*
X0037935D01*
X0038068Y0002180D01*
X0038202Y0002087D01*
Y0002273D01*
X0037868Y0002417D02*
X0037802Y0002440D01*
Y0002580D01*
X0037868Y0002603D01*
X0038135D01*
X0038202Y0002580D01*
Y0002440D01*
X0038135Y0002417D01*
X0004427Y0009561D02*
X0004360Y0009538D01*
Y0009398D01*
X0004427Y0009374D01*
X0004560D01*
X0004627Y0009421D01*
Y0009561D01*
X0004760D01*
Y0009374D01*
X0004360Y0009704D02*
Y0009891D01*
X0004627Y0009704D01*
X0004694D01*
X0004760Y0009728D01*
Y0009868D01*
X0004694Y0009891D01*
X0004560Y0010104D02*
X0004360Y0010034D01*
X0004560Y0010221D02*
Y0010081D01*
X0004627Y0010034D01*
X0004694D01*
X0004760Y0010081D01*
Y0010221D01*
X0004360D01*
X0032773Y0013229D02*
Y0013089D01*
X0032706Y0013065D01*
X0032639D01*
X0032573Y0013089D01*
Y0013229D01*
X0032639Y0013252D01*
X0032706D01*
X0032973Y0013159D01*
X0032773Y0013465D02*
X0032573Y0013395D01*
X0032773Y0013582D02*
Y0013442D01*
X0032839Y0013395D01*
X0032906D01*
X0032973Y0013442D01*
Y0013582D01*
X0032573D01*
X0026106Y0006882D02*
Y0007069D01*
X0026373Y0006975D01*
Y0006929D01*
X0025973D01*
Y0007212D02*
Y0007305D01*
Y0007259D02*
X0026373D01*
X0026306Y0007305D01*
X0026173Y0007565D02*
X0025973Y0007495D01*
X0026173Y0007682D02*
Y0007542D01*
X0026239Y0007495D01*
X0026306D01*
X0026373Y0007542D01*
Y0007682D01*
X0025973D01*
X0017829Y-0000314D02*
X0017896Y-0000337D01*
X0017962D01*
X0018029Y-0000314D01*
Y-0000174D01*
X0017962Y-0000150D01*
X0017896D01*
X0017829Y-0000174D01*
Y-0000314D01*
X0017762Y-0000337D01*
X0017696D01*
X0017629Y-0000314D01*
Y-0000174D01*
X0017696Y-0000150D01*
X0017762D01*
X0017829Y-0000174D01*
X0017696Y-0000007D02*
X0017629Y0000016D01*
Y0000156D01*
X0017696Y0000179D01*
X0017962D01*
X0018029Y0000156D01*
Y0000016D01*
X0017962Y-0000007D01*
X0002083Y0009622D02*
X0002223D01*
X0002246Y0009555D01*
Y0009489D01*
X0002223Y0009422D01*
X0002083D01*
X0002059Y0009489D01*
Y0009555D01*
X0002153Y0009822D01*
X0001916Y0009489D02*
X0001893Y0009422D01*
X0001753D01*
X0001729Y0009489D01*
Y0009755D01*
X0001753Y0009822D01*
X0001893D01*
X0001916Y0009755D01*
X0063923Y0007202D02*
X0063989Y0007249D01*
X0064056Y0007272D01*
X0064189D01*
X0064256Y0007249D01*
X0064323Y0007202D01*
Y0007155D01*
X0064256Y0007109D01*
X0064189Y0007085D01*
X0064056D01*
X0063989Y0007109D01*
X0063923Y0007155D01*
Y0007202D01*
X0064056Y0007415D02*
Y0007602D01*
X0064323Y0007509D01*
Y0007462D01*
X0063923D01*
X0064123Y0007815D02*
X0063923Y0007745D01*
X0064123Y0007932D02*
Y0007792D01*
X0064189Y0007745D01*
X0064256D01*
X0064323Y0007792D01*
Y0007932D01*
X0063923D01*
X0071489Y0005972D02*
X0071423Y0005949D01*
Y0005809D01*
X0071489Y0005785D01*
X0071623D01*
X0071689Y0005832D01*
Y0005972D01*
X0071823D01*
Y0005785D01*
X0071489Y0006302D02*
X0071423Y0006255D01*
Y0006162D01*
X0071489Y0006115D01*
X0071556D01*
X0071689Y0006209D01*
X0071823Y0006115D01*
Y0006302D01*
X0071489Y0006445D02*
X0071423Y0006469D01*
Y0006609D01*
X0071489Y0006632D01*
X0071756D01*
X0071823Y0006609D01*
Y0006469D01*
X0071756Y0006445D01*
X0004613Y0016517D02*
X0004520D01*
X0004567D02*
Y0016917D01*
X0004520Y0016850D01*
X0002600Y0014433D02*
Y0014620D01*
X0002867Y0014527D01*
Y0014480D01*
X0002467D01*
X0002600Y0014927D02*
X0002533D01*
X0002467Y0014903D01*
Y0014810D01*
X0002533Y0014787D01*
X0002867D01*
Y0014763D02*
Y0014857D01*
X0052160Y0000064D02*
X0052560Y-0000075D01*
Y0000111D01*
X0052160Y0000394D02*
X0052560Y0000254D01*
Y0000441D01*
X0052360Y0000654D02*
X0052160Y0000584D01*
X0052360Y0000771D02*
Y0000631D01*
X0052427Y0000584D01*
X0052494D01*
X0052560Y0000631D01*
Y0000771D01*
X0052160D01*
X-0001358Y0001687D02*
Y0001874D01*
X-0001091Y0001780D01*
Y0001734D01*
X-0001491D01*
Y0002017D02*
Y0002110D01*
Y0002064D02*
X-0001091D01*
X-0001158Y0002110D01*
X-0001425Y0002300D02*
X-0001491Y0002324D01*
Y0002464D01*
X-0001425Y0002487D01*
X-0001158D01*
X-0001091Y0002464D01*
Y0002324D01*
X-0001158Y0002300D01*
X0062377Y0001261D02*
X0062310Y0001238D01*
Y0001098D01*
X0062377Y0001074D01*
X0062510D01*
X0062577Y0001121D01*
Y0001261D01*
X0062710D01*
Y0001074D01*
X0062377Y0001591D02*
X0062310Y0001544D01*
Y0001451D01*
X0062377Y0001404D01*
X0062444D01*
X0062577Y0001498D01*
X0062710Y0001404D01*
Y0001591D01*
X0062510Y0001804D02*
X0062310Y0001734D01*
X0062510Y0001921D02*
Y0001781D01*
X0062577Y0001734D01*
X0062644D01*
X0062710Y0001781D01*
Y0001921D01*
X0062310D01*
X0022330Y0003317D02*
Y0003504D01*
X0022596Y0003317D01*
X0022663D01*
X0022730Y0003341D01*
Y0003481D01*
X0022663Y0003504D01*
X0022330Y0003811D02*
X0022730D01*
X0022330Y0003834D02*
Y0003694D01*
X0022463Y0003647D01*
X0022596D01*
X0022730Y0003694D01*
Y0003834D01*
X0068473Y0002702D02*
Y0002562D01*
X0068406Y0002539D01*
X0068339D01*
X0068273Y0002562D01*
Y0002702D01*
X0068339Y0002725D01*
X0068406D01*
X0068673Y0002632D01*
X0068273Y0002869D02*
Y0003032D01*
X0068673D01*
X0026306Y0014365D02*
Y0014552D01*
X0026573Y0014459D01*
Y0014412D01*
X0026173D01*
X0026239Y0014695D02*
X0026173Y0014719D01*
Y0014859D01*
X0026239Y0014882D01*
X0026506D01*
X0026573Y0014859D01*
Y0014719D01*
X0026506Y0014695D01*
X0006552Y0010923D02*
X0006618Y0010970D01*
X0006685Y0010993D01*
X0006818D01*
X0006885Y0010970D01*
X0006952Y0010923D01*
Y0010877D01*
X0006885Y0010830D01*
X0006818Y0010807D01*
X0006685D01*
X0006618Y0010830D01*
X0006552Y0010877D01*
Y0010923D01*
Y0011137D02*
Y0011323D01*
X0006818Y0011137D01*
X0006885D01*
X0006952Y0011160D01*
Y0011300D01*
X0006885Y0011323D01*
X0006618Y0011467D02*
X0006552Y0011490D01*
Y0011630D01*
X0006618Y0011653D01*
X0006885D01*
X0006952Y0011630D01*
Y0011490D01*
X0006885Y0011467D01*
X0070442Y0002173D02*
Y0002360D01*
X0070709Y0002266D01*
Y0002220D01*
X0070309D01*
X0070442Y0002596D02*
X0070309Y0002503D01*
X0070376Y0002690D02*
X0070309Y0002666D01*
Y0002573D01*
X0070376Y0002550D01*
X0070442Y0002503D01*
X0070642D01*
X0070709Y0002526D01*
Y0002666D01*
X0070642Y0002690D01*
X0070376D01*
X0032573Y0009215D02*
Y0009402D01*
X0032839Y0009215D01*
X0032906D01*
X0032973Y0009239D01*
Y0009379D01*
X0032906Y0009402D01*
X0032773Y0009615D02*
X0032573Y0009545D01*
X0032773Y0009732D02*
Y0009592D01*
X0032839Y0009545D01*
X0032906D01*
X0032973Y0009592D01*
Y0009732D01*
X0032573D01*
X0066660Y-0000975D02*
Y-0000789D01*
X0066927Y-0000975D01*
X0066994D01*
X0067060Y-0000952D01*
Y-0000812D01*
X0066994Y-0000789D01*
X0066727Y-0000459D02*
X0066660Y-0000505D01*
Y-0000599D01*
X0066727Y-0000645D01*
X0066794D01*
X0066927Y-0000552D01*
X0067060Y-0000645D01*
Y-0000459D01*
X0066860Y-0000245D02*
X0066660Y-0000315D01*
X0066860Y-0000129D02*
Y-0000269D01*
X0066927Y-0000315D01*
X0066994D01*
X0067060Y-0000269D01*
Y-0000129D01*
X0066660D01*
X0020110Y0001478D02*
Y0001618D01*
X0020177Y0001641D01*
X0020244D01*
X0020310Y0001618D01*
Y0001478D01*
X0020244Y0001454D01*
X0020177D01*
X0019910Y0001548D01*
X0019977Y0001784D02*
X0019910Y0001808D01*
Y0001948D01*
X0019977Y0001971D01*
X0020244D01*
X0020310Y0001948D01*
Y0001808D01*
X0020244Y0001784D01*
X0026517Y0016130D02*
Y0016223D01*
Y0016177D02*
X0026917D01*
X0026850Y0016223D01*
X0026517Y0016413D02*
Y0016577D01*
X0026917D01*
X0025380Y0005028D02*
X0025427Y0004961D01*
X0025520D01*
X0025567Y0005028D01*
Y0005094D01*
X0025474Y0005228D01*
X0025567Y0005361D01*
X0025380D01*
X0025237Y0004961D02*
X0025144D01*
X0025190D02*
Y0005361D01*
X0025144Y0005294D01*
X0024884Y0005161D02*
X0024954Y0004961D01*
X0024767Y0005161D02*
X0024907D01*
X0024954Y0005228D01*
Y0005294D01*
X0024907Y0005361D01*
X0024767D01*
Y0004961D01*
X0064525Y0002591D02*
X0064925Y0002451D01*
Y0002638D01*
X0064525Y0002944D02*
X0064925D01*
X0064525Y0002968D02*
Y0002828D01*
X0064658Y0002781D01*
X0064792D01*
X0064925Y0002828D01*
Y0002968D01*
X0039949Y0004617D02*
Y0004757D01*
X0040016Y0004780D01*
X0040082D01*
X0040149Y0004757D01*
Y0004617D01*
X0040082Y0004593D01*
X0040016D01*
X0039749Y0004687D01*
X0040149Y0004923D02*
X0039816D01*
X0039749Y0004947D01*
Y0005087D01*
X0039816Y0005110D01*
X0040149D01*
X0065373Y0007109D02*
Y0007249D01*
X0065439Y0007272D01*
X0065506D01*
X0065573Y0007249D01*
Y0007109D01*
X0065506Y0007085D01*
X0065439D01*
X0065173Y0007179D01*
X0065239Y0007602D02*
X0065173Y0007555D01*
Y0007462D01*
X0065239Y0007415D01*
X0065306D01*
X0065439Y0007509D01*
X0065573Y0007415D01*
Y0007602D01*
X0065373Y0007815D02*
X0065173Y0007745D01*
X0065373Y0007932D02*
Y0007792D01*
X0065439Y0007745D01*
X0065506D01*
X0065573Y0007792D01*
Y0007932D01*
X0065173D01*
X0070160Y0005864D02*
X0070560Y0005724D01*
Y0005911D01*
X0070294Y0006054D02*
Y0006241D01*
X0070560Y0006148D01*
Y0006101D01*
X0070160D01*
X0070360Y0006454D02*
X0070160Y0006384D01*
X0070360Y0006571D02*
Y0006431D01*
X0070427Y0006384D01*
X0070494D01*
X0070560Y0006431D01*
Y0006571D01*
X0070160D01*
X0054273Y0000012D02*
Y0000152D01*
X0054339Y0000175D01*
X0054406D01*
X0054473Y0000152D01*
Y0000012D01*
X0054406Y-0000011D01*
X0054339D01*
X0054073Y0000082D01*
Y0000319D02*
Y0000482D01*
X0054473D01*
X0003271Y0009624D02*
X0003204Y0009577D01*
Y0009484D01*
X0003271Y0009437D01*
X0003338D01*
X0003471Y0009530D01*
X0003604Y0009437D01*
Y0009624D01*
X0003204Y0009767D02*
Y0009860D01*
Y0009814D02*
X0003604D01*
X0003538Y0009860D01*
X0003271Y0010050D02*
X0003204Y0010074D01*
Y0010214D01*
X0003271Y0010237D01*
X0003538D01*
X0003604Y0010214D01*
Y0010074D01*
X0003538Y0010050D01*
X0023261Y0011100D02*
X0023194Y0011076D01*
Y0010936D01*
X0023261Y0010913D01*
X0023394D01*
X0023461Y0010960D01*
Y0011100D01*
X0023594D01*
Y0010913D01*
X0023394Y0011313D02*
X0023194Y0011243D01*
X0023394Y0011430D02*
Y0011290D01*
X0023461Y0011243D01*
X0023528D01*
X0023594Y0011290D01*
Y0011430D01*
X0023194D01*
X0052973Y0000099D02*
Y-0000041D01*
X0052906Y-0000064D01*
X0052839D01*
X0052773Y-0000041D01*
Y0000099D01*
X0052839Y0000122D01*
X0052906D01*
X0053173Y0000029D01*
X0052773Y0000405D02*
X0053173Y0000265D01*
Y0000452D01*
X0052973Y0000665D02*
X0052773Y0000595D01*
X0052973Y0000782D02*
Y0000642D01*
X0053039Y0000595D01*
X0053106D01*
X0053173Y0000642D01*
Y0000782D01*
X0052773D01*
X0008023Y0012455D02*
Y0012595D01*
X0008089Y0012619D01*
X0008156D01*
X0008223Y0012595D01*
Y0012455D01*
X0008156Y0012432D01*
X0008089D01*
X0007823Y0012525D01*
Y0012762D02*
Y0012855D01*
Y0012809D02*
X0008223D01*
X0008156Y0012855D01*
X0007889Y0013045D02*
X0007823Y0013069D01*
Y0013209D01*
X0007889Y0013232D01*
X0008156D01*
X0008223Y0013209D01*
Y0013069D01*
X0008156Y0013045D01*
X0009433Y0003106D02*
Y0002966D01*
X0009367Y0002942D01*
X0009300D01*
X0009233Y0002966D01*
Y0003106D01*
X0009300Y0003129D01*
X0009367D01*
X0009633Y0003036D01*
Y0003272D02*
X0009300D01*
X0009233Y0003296D01*
Y0003436D01*
X0009300Y0003459D01*
X0009633D01*
X0071489Y0004772D02*
X0071423Y0004725D01*
Y0004632D01*
X0071489Y0004585D01*
X0071556D01*
X0071689Y0004679D01*
X0071823Y0004585D01*
Y0004772D01*
X0071489Y0005102D02*
X0071423Y0005079D01*
Y0004939D01*
X0071489Y0004915D01*
X0071623D01*
X0071689Y0004962D01*
Y0005102D01*
X0071823D01*
Y0004915D01*
X0071623Y0005315D02*
X0071423Y0005245D01*
X0071623Y0005432D02*
Y0005292D01*
X0071689Y0005245D01*
X0071756D01*
X0071823Y0005292D01*
Y0005432D01*
X0071423D01*
X0022310Y0004171D02*
Y0004358D01*
X0022577Y0004171D01*
X0022644D01*
X0022710Y0004194D01*
Y0004334D01*
X0022644Y0004358D01*
X0022310Y0004501D02*
Y0004594D01*
Y0004548D02*
X0022710D01*
X0022644Y0004594D01*
X0022510Y0004854D02*
X0022310Y0004784D01*
X0022510Y0004971D02*
Y0004831D01*
X0022577Y0004784D01*
X0022644D01*
X0022710Y0004831D01*
Y0004971D01*
X0022310D01*
X0017600Y0002329D02*
X0017533Y0002306D01*
Y0002166D01*
X0017600Y0002142D01*
X0017733D01*
X0017800Y0002189D01*
Y0002329D01*
X0017933D01*
Y0002142D01*
Y0002472D02*
X0017600D01*
X0017533Y0002496D01*
Y0002636D01*
X0017600Y0002659D01*
X0017933D01*
X0070360Y0004788D02*
Y0004648D01*
X0070294Y0004624D01*
X0070227D01*
X0070160Y0004648D01*
Y0004788D01*
X0070227Y0004811D01*
X0070294D01*
X0070560Y0004718D01*
X0070294Y0004954D02*
Y0005141D01*
X0070560Y0005048D01*
Y0005001D01*
X0070160D01*
X0070360Y0005354D02*
X0070160Y0005284D01*
X0070360Y0005471D02*
Y0005331D01*
X0070427Y0005284D01*
X0070494D01*
X0070560Y0005331D01*
Y0005471D01*
X0070160D01*
X0001479Y0005689D02*
X0001545Y0005666D01*
X0001612D01*
X0001679Y0005689D01*
Y0005829D01*
X0001612Y0005853D01*
X0001545D01*
X0001479Y0005829D01*
Y0005689D01*
X0001412Y0005666D01*
X0001345D01*
X0001279Y0005689D01*
Y0005829D01*
X0001345Y0005853D01*
X0001412D01*
X0001479Y0005829D01*
X0001279Y0005996D02*
Y0006089D01*
Y0006043D02*
X0001679D01*
X0001612Y0006089D01*
X0001345Y0006279D02*
X0001279Y0006303D01*
Y0006443D01*
X0001345Y0006466D01*
X0001612D01*
X0001679Y0006443D01*
Y0006303D01*
X0001612Y0006279D01*
X0000397Y0009411D02*
X0000350Y0009478D01*
X0000327Y0009544D01*
Y0009678D01*
X0000350Y0009744D01*
X0000397Y0009811D01*
X0000444D01*
X0000490Y0009744D01*
X0000514Y0009678D01*
Y0009544D01*
X0000490Y0009478D01*
X0000444Y0009411D01*
X0000397D01*
X0000184D02*
X-0000003D01*
X0000184Y0009678D01*
Y0009744D01*
X0000160Y0009811D01*
X0000020D01*
X-0000003Y0009744D01*
X-0000216Y0009611D02*
X-0000146Y0009411D01*
X-0000333Y0009611D02*
X-0000193D01*
X-0000146Y0009678D01*
Y0009744D01*
X-0000193Y0009811D01*
X-0000333D01*
Y0009411D01*
X0048804Y0002730D02*
X0049204Y0002590D01*
Y0002777D01*
X0048871Y0003107D02*
X0048804Y0003060D01*
Y0002967D01*
X0048871Y0002920D01*
X0048938D01*
X0049071Y0003014D01*
X0049204Y0002920D01*
Y0003107D01*
X0048871Y0003250D02*
X0048804Y0003274D01*
Y0003414D01*
X0048871Y0003437D01*
X0049138D01*
X0049204Y0003414D01*
Y0003274D01*
X0049138Y0003250D01*
X0048827Y0000111D02*
X0048760Y0000064D01*
Y-0000029D01*
X0048827Y-0000075D01*
X0048894D01*
X0049027Y0000018D01*
X0049160Y-0000075D01*
Y0000111D01*
X0048760Y0000394D02*
X0049160Y0000254D01*
Y0000441D01*
X0048960Y0000654D02*
X0048760Y0000584D01*
X0048960Y0000771D02*
Y0000631D01*
X0049027Y0000584D01*
X0049094D01*
X0049160Y0000631D01*
Y0000771D01*
X0048760D01*
X0065839Y0002725D02*
X0065773Y0002702D01*
Y0002562D01*
X0065839Y0002539D01*
X0065973D01*
X0066039Y0002585D01*
Y0002725D01*
X0066173D01*
Y0002539D01*
X0065773Y0002869D02*
Y0003032D01*
X0066173D01*
X0046510Y0001101D02*
X0046577Y0001078D01*
X0046644D01*
X0046710Y0001101D01*
Y0001241D01*
X0046644Y0001264D01*
X0046577D01*
X0046510Y0001241D01*
Y0001101D01*
X0046444Y0001078D01*
X0046377D01*
X0046310Y0001101D01*
Y0001241D01*
X0046377Y0001264D01*
X0046444D01*
X0046510Y0001241D01*
X0046310Y0001408D02*
Y0001571D01*
X0046710D01*
X0026437Y0010479D02*
Y0010666D01*
X0026704Y0010479D01*
X0026771D01*
X0026837Y0010503D01*
Y0010643D01*
X0026771Y0010666D01*
X0026837Y0010809D02*
X0026504D01*
X0026437Y0010833D01*
Y0010973D01*
X0026504Y0010996D01*
X0026837D01*
X0072669Y-0001269D02*
X0072603Y-0001293D01*
Y-0001433D01*
X0072669Y-0001456D01*
X0072803D01*
X0072869Y-0001409D01*
Y-0001269D01*
X0073003D01*
Y-0001456D01*
X0072736Y-0000963D02*
X0072669D01*
X0072603Y-0000986D01*
Y-0001079D01*
X0072669Y-0001103D01*
X0073003D01*
Y-0001126D02*
Y-0001033D01*
X0049960Y0000064D02*
X0050360Y-0000075D01*
Y0000111D01*
X0050094Y0000254D02*
Y0000441D01*
X0050360Y0000348D01*
Y0000301D01*
X0049960D01*
X0050027Y0000584D02*
X0049960Y0000608D01*
Y0000748D01*
X0050027Y0000771D01*
X0050294D01*
X0050360Y0000748D01*
Y0000608D01*
X0050294Y0000584D01*
X0071477Y0007261D02*
X0071410Y0007238D01*
Y0007098D01*
X0071477Y0007074D01*
X0071610D01*
X0071677Y0007121D01*
Y0007261D01*
X0071810D01*
Y0007074D01*
X0071477Y0007591D02*
X0071410Y0007568D01*
Y0007428D01*
X0071477Y0007404D01*
X0071610D01*
X0071677Y0007451D01*
Y0007591D01*
X0071810D01*
Y0007404D01*
X0071610Y0007804D02*
X0071410Y0007734D01*
X0071610Y0007921D02*
Y0007781D01*
X0071677Y0007734D01*
X0071744D01*
X0071810Y0007781D01*
Y0007921D01*
X0071410D01*
X0065359Y0002636D02*
Y0002496D01*
X0065292Y0002473D01*
X0065226D01*
X0065159Y0002496D01*
Y0002636D01*
X0065226Y0002660D01*
X0065292D01*
X0065559Y0002566D01*
X0065292Y0002896D02*
X0065159Y0002803D01*
X0065226Y0002990D02*
X0065159Y0002966D01*
Y0002873D01*
X0065226Y0002850D01*
X0065292Y0002803D01*
X0065492D01*
X0065559Y0002826D01*
Y0002966D01*
X0065492Y0002990D01*
X0065226D01*
X0022087Y0013380D02*
Y0013473D01*
Y0013427D02*
X0022487D01*
X0022420Y0013473D01*
X0022220Y0013827D02*
X0022153D01*
X0022087Y0013803D01*
Y0013710D01*
X0022153Y0013687D01*
X0022487D01*
Y0013663D02*
Y0013757D01*
X0014760Y0014664D02*
X0015160Y0014524D01*
Y0014711D01*
X0014760Y0014854D02*
Y0015041D01*
X0015027Y0014854D01*
X0015094D01*
X0015160Y0014878D01*
Y0015018D01*
X0015094Y0015041D01*
X0014960Y0015254D02*
X0014760Y0015184D01*
X0014960Y0015371D02*
Y0015231D01*
X0015027Y0015184D01*
X0015094D01*
X0015160Y0015231D01*
Y0015371D01*
X0014760D01*
X0002563Y0006222D02*
X0002703D01*
X0002726Y0006155D01*
Y0006089D01*
X0002703Y0006022D01*
X0002563D01*
X0002539Y0006089D01*
Y0006155D01*
X0002633Y0006422D01*
X0002396Y0006022D02*
X0002209D01*
X0002396Y0006289D01*
Y0006355D01*
X0002373Y0006422D01*
X0002233D01*
X0002209Y0006355D01*
X0001996Y0006222D02*
X0002066Y0006022D01*
X0001879Y0006222D02*
X0002019D01*
X0002066Y0006289D01*
Y0006355D01*
X0002019Y0006422D01*
X0001879D01*
Y0006022D01*
X0022010Y0009848D02*
X0022077Y0009824D01*
X0022144D01*
X0022210Y0009848D01*
Y0009988D01*
X0022144Y0010011D01*
X0022077D01*
X0022010Y0009988D01*
Y0009848D01*
X0021944Y0009824D01*
X0021877D01*
X0021810Y0009848D01*
Y0009988D01*
X0021877Y0010011D01*
X0021944D01*
X0022010Y0009988D01*
X0021810Y0010154D02*
Y0010341D01*
X0022077Y0010154D01*
X0022144D01*
X0022210Y0010178D01*
Y0010318D01*
X0022144Y0010341D01*
X0021877Y0010484D02*
X0021810Y0010508D01*
Y0010648D01*
X0021877Y0010671D01*
X0022144D01*
X0022210Y0010648D01*
Y0010508D01*
X0022144Y0010484D01*
X0001494Y0009611D02*
X0001354D01*
X0001330Y0009678D01*
Y0009744D01*
X0001354Y0009811D01*
X0001494D01*
X0001517Y0009744D01*
Y0009678D01*
X0001424Y0009411D01*
X0001187D02*
X0001094D01*
X0001140D02*
Y0009811D01*
X0001094Y0009744D01*
X0000834Y0009611D02*
X0000904Y0009411D01*
X0000717Y0009611D02*
X0000857D01*
X0000904Y0009678D01*
Y0009744D01*
X0000857Y0009811D01*
X0000717D01*
Y0009411D01*
X0047523Y0006809D02*
X0047589Y0006785D01*
X0047656D01*
X0047723Y0006809D01*
Y0006949D01*
X0047656Y0006972D01*
X0047589D01*
X0047523Y0006949D01*
Y0006809D01*
X0047456Y0006785D01*
X0047389D01*
X0047323Y0006809D01*
Y0006949D01*
X0047389Y0006972D01*
X0047456D01*
X0047523Y0006949D01*
X0047389Y0007302D02*
X0047323Y0007279D01*
Y0007139D01*
X0047389Y0007115D01*
X0047523D01*
X0047589Y0007162D01*
Y0007302D01*
X0047723D01*
Y0007115D01*
X0047523Y0007515D02*
X0047323Y0007445D01*
X0047523Y0007632D02*
Y0007492D01*
X0047589Y0007445D01*
X0047656D01*
X0047723Y0007492D01*
Y0007632D01*
X0047323D01*
X0071360Y0001148D02*
Y0001288D01*
X0071427Y0001311D01*
X0071494D01*
X0071560Y0001288D01*
Y0001148D01*
X0071494Y0001124D01*
X0071427D01*
X0071160Y0001218D01*
Y0001454D02*
Y0001641D01*
X0071427Y0001454D01*
X0071494D01*
X0071560Y0001478D01*
Y0001618D01*
X0071494Y0001641D01*
X0071360Y0001854D02*
X0071160Y0001784D01*
X0071360Y0001971D02*
Y0001831D01*
X0071427Y0001784D01*
X0071494D01*
X0071560Y0001831D01*
Y0001971D01*
X0071160D01*
X0031174Y0010593D02*
Y0010687D01*
Y0010640D02*
X0031574D01*
X0031507Y0010687D01*
X0031307Y0010970D02*
X0031174Y0010877D01*
X0031241Y0011063D02*
X0031174Y0011040D01*
Y0010947D01*
X0031241Y0010923D01*
X0031307Y0010877D01*
X0031507D01*
X0031574Y0010900D01*
Y0011040D01*
X0031507Y0011063D01*
X0031241D01*
X0057259Y0007217D02*
X0057659Y0007077D01*
Y0007263D01*
X0057259Y0007407D02*
Y0007570D01*
X0057659D01*
X0057259Y0007877D02*
X0057659D01*
X0057259Y0007900D02*
Y0007760D01*
X0057392Y0007713D01*
X0057526D01*
X0057659Y0007760D01*
Y0007900D01*
X0049373Y-0000064D02*
Y0000122D01*
X0049639Y-0000064D01*
X0049706D01*
X0049773Y-0000041D01*
Y0000099D01*
X0049706Y0000122D01*
X0049373Y0000405D02*
X0049773Y0000265D01*
Y0000452D01*
X0049573Y0000665D02*
X0049373Y0000595D01*
X0049573Y0000782D02*
Y0000642D01*
X0049639Y0000595D01*
X0049706D01*
X0049773Y0000642D01*
Y0000782D01*
X0049373D01*
X0051810Y0000088D02*
Y-0000052D01*
X0051744Y-0000075D01*
X0051677D01*
X0051610Y-0000052D01*
Y0000088D01*
X0051677Y0000111D01*
X0051744D01*
X0052010Y0000018D01*
X0051744Y0000254D02*
Y0000441D01*
X0052010Y0000348D01*
Y0000301D01*
X0051610D01*
X0051677Y0000584D02*
X0051610Y0000608D01*
Y0000748D01*
X0051677Y0000771D01*
X0051944D01*
X0052010Y0000748D01*
Y0000608D01*
X0051944Y0000584D01*
X0072856Y0007135D02*
Y0007322D01*
X0073123Y0007229D01*
Y0007182D01*
X0072723D01*
X0072789Y0007652D02*
X0072723Y0007629D01*
Y0007489D01*
X0072789Y0007465D01*
X0072923D01*
X0072989Y0007512D01*
Y0007652D01*
X0073123D01*
Y0007465D01*
X0072923Y0007865D02*
X0072723Y0007795D01*
X0072923Y0007982D02*
Y0007842D01*
X0072989Y0007795D01*
X0073056D01*
X0073123Y0007842D01*
Y0007982D01*
X0072723D01*
X0067860Y-0000859D02*
X0067927Y-0000812D01*
X0067994Y-0000789D01*
X0068127D01*
X0068194Y-0000812D01*
X0068260Y-0000859D01*
Y-0000905D01*
X0068194Y-0000952D01*
X0068127Y-0000975D01*
X0067994D01*
X0067927Y-0000952D01*
X0067860Y-0000905D01*
Y-0000859D01*
X0067927Y-0000459D02*
X0067860Y-0000505D01*
Y-0000599D01*
X0067927Y-0000645D01*
X0067994D01*
X0068127Y-0000552D01*
X0068260Y-0000645D01*
Y-0000459D01*
X0068060Y-0000245D02*
X0067860Y-0000315D01*
X0068060Y-0000129D02*
Y-0000269D01*
X0068127Y-0000315D01*
X0068194D01*
X0068260Y-0000269D01*
Y-0000129D01*
X0067860D01*
X0064123Y0005859D02*
Y0005999D01*
X0064189Y0006022D01*
X0064256D01*
X0064323Y0005999D01*
Y0005859D01*
X0064256Y0005835D01*
X0064189D01*
X0063923Y0005929D01*
Y0006165D02*
Y0006352D01*
X0064189Y0006165D01*
X0064256D01*
X0064323Y0006189D01*
Y0006329D01*
X0064256Y0006352D01*
X0063989Y0006495D02*
X0063923Y0006519D01*
Y0006659D01*
X0063989Y0006682D01*
X0064256D01*
X0064323Y0006659D01*
Y0006519D01*
X0064256Y0006495D01*
X0030644Y0009204D02*
Y0009391D01*
X0030910Y0009298D01*
Y0009251D01*
X0030510D01*
X0030710Y0009604D02*
X0030510Y0009534D01*
X0030710Y0009721D02*
Y0009581D01*
X0030777Y0009534D01*
X0030844D01*
X0030910Y0009581D01*
Y0009721D01*
X0030510D01*
X0065160Y0005964D02*
X0065560Y0005824D01*
Y0006011D01*
X0065227Y0006341D02*
X0065160Y0006294D01*
Y0006201D01*
X0065227Y0006154D01*
X0065294D01*
X0065427Y0006248D01*
X0065560Y0006154D01*
Y0006341D01*
X0065360Y0006554D02*
X0065160Y0006484D01*
X0065360Y0006671D02*
Y0006531D01*
X0065427Y0006484D01*
X0065494D01*
X0065560Y0006531D01*
Y0006671D01*
X0065160D01*
X0045523Y0005399D02*
Y0005259D01*
X0045456Y0005235D01*
X0045389D01*
X0045323Y0005259D01*
Y0005399D01*
X0045389Y0005422D01*
X0045456D01*
X0045723Y0005329D01*
X0045389Y0005752D02*
X0045323Y0005705D01*
Y0005612D01*
X0045389Y0005565D01*
X0045456D01*
X0045589Y0005659D01*
X0045723Y0005565D01*
Y0005752D01*
X0045389Y0005895D02*
X0045323Y0005919D01*
Y0006059D01*
X0045389Y0006082D01*
X0045656D01*
X0045723Y0006059D01*
Y0005919D01*
X0045656Y0005895D01*
X-0000520Y0009307D02*
X-0000613D01*
X-0000567D02*
Y0009707D01*
X-0000613Y0009640D01*
X-0000897Y0009307D02*
Y0009707D01*
X-0000803D02*
X-0000990D01*
X-0001133Y0009307D02*
X-0001297D01*
Y0009707D01*
X-0001487Y0009507D02*
X-0001627D01*
Y0009307D02*
Y0009707D01*
X-0001440D01*
X0057456Y0003185D02*
Y0003372D01*
X0057723Y0003279D01*
Y0003232D01*
X0057323D01*
X0057523Y0003679D02*
Y0003539D01*
X0057456Y0003515D01*
X0057389D01*
X0057323Y0003539D01*
Y0003679D01*
X0057389Y0003702D01*
X0057456D01*
X0057723Y0003609D01*
X0057523Y0003915D02*
X0057323Y0003845D01*
X0057523Y0004032D02*
Y0003892D01*
X0057589Y0003845D01*
X0057656D01*
X0057723Y0003892D01*
Y0004032D01*
X0057323D01*
X0025669Y0009490D02*
Y0009583D01*
Y0009536D02*
X0026069D01*
X0026002Y0009583D01*
X0025669Y0009936D02*
X0026069D01*
X0025669Y0009960D02*
Y0009820D01*
X0025802Y0009773D01*
X0025935D01*
X0026069Y0009820D01*
Y0009960D01*
X0065360Y0004788D02*
Y0004648D01*
X0065294Y0004624D01*
X0065227D01*
X0065160Y0004648D01*
Y0004788D01*
X0065227Y0004811D01*
X0065294D01*
X0065560Y0004718D01*
X0065227Y0005141D02*
X0065160Y0005094D01*
Y0005001D01*
X0065227Y0004954D01*
X0065294D01*
X0065427Y0005048D01*
X0065560Y0004954D01*
Y0005141D01*
X0065360Y0005354D02*
X0065160Y0005284D01*
X0065360Y0005471D02*
Y0005331D01*
X0065427Y0005284D01*
X0065494D01*
X0065560Y0005331D01*
Y0005471D01*
X0065160D01*
X0066739Y0001222D02*
X0066673Y0001175D01*
Y0001082D01*
X0066739Y0001035D01*
X0066806D01*
X0066939Y0001129D01*
X0067073Y0001035D01*
Y0001222D01*
X0066739Y0001552D02*
X0066673Y0001505D01*
Y0001412D01*
X0066739Y0001365D01*
X0066806D01*
X0066939Y0001459D01*
X0067073Y0001365D01*
Y0001552D01*
X0066873Y0001765D02*
X0066673Y0001695D01*
X0066873Y0001882D02*
Y0001742D01*
X0066939Y0001695D01*
X0067006D01*
X0067073Y0001742D01*
Y0001882D01*
X0066673D01*
X0003810Y0009374D02*
Y0009561D01*
X0004077Y0009374D01*
X0004144D01*
X0004210Y0009398D01*
Y0009538D01*
X0004144Y0009561D01*
X0003810Y0009704D02*
Y0009891D01*
X0004077Y0009704D01*
X0004144D01*
X0004210Y0009728D01*
Y0009868D01*
X0004144Y0009891D01*
X0004010Y0010104D02*
X0003810Y0010034D01*
X0004010Y0010221D02*
Y0010081D01*
X0004077Y0010034D01*
X0004144D01*
X0004210Y0010081D01*
Y0010221D01*
X0003810D01*
X0072760Y0005874D02*
Y0006061D01*
X0073027Y0005874D01*
X0073094D01*
X0073160Y0005898D01*
Y0006038D01*
X0073094Y0006061D01*
X0072827Y0006391D02*
X0072760Y0006368D01*
Y0006228D01*
X0072827Y0006204D01*
X0072960D01*
X0073027Y0006251D01*
Y0006391D01*
X0073160D01*
Y0006204D01*
X0072960Y0006604D02*
X0072760Y0006534D01*
X0072960Y0006721D02*
Y0006581D01*
X0073027Y0006534D01*
X0073094D01*
X0073160Y0006581D01*
Y0006721D01*
X0072760D01*
X0020754Y0009667D02*
X0021154Y0009527D01*
Y0009714D01*
X0020754Y0009857D02*
Y0010044D01*
X0021021Y0009857D01*
X0021087D01*
X0021154Y0009880D01*
Y0010020D01*
X0021087Y0010044D01*
X0020821Y0010187D02*
X0020754Y0010210D01*
Y0010350D01*
X0020821Y0010374D01*
X0021087D01*
X0021154Y0010350D01*
Y0010210D01*
X0021087Y0010187D01*
X0064123Y0004659D02*
X0064189Y0004635D01*
X0064256D01*
X0064323Y0004659D01*
Y0004799D01*
X0064256Y0004822D01*
X0064189D01*
X0064123Y0004799D01*
Y0004659D01*
X0064056Y0004635D01*
X0063989D01*
X0063923Y0004659D01*
Y0004799D01*
X0063989Y0004822D01*
X0064056D01*
X0064123Y0004799D01*
X0063989Y0005152D02*
X0063923Y0005105D01*
Y0005012D01*
X0063989Y0004965D01*
X0064056D01*
X0064189Y0005059D01*
X0064323Y0004965D01*
Y0005152D01*
X0064123Y0005365D02*
X0063923Y0005295D01*
X0064123Y0005482D02*
Y0005342D01*
X0064189Y0005295D01*
X0064256D01*
X0064323Y0005342D01*
Y0005482D01*
X0063923D01*
X0009493Y0009258D02*
X0009560Y0009305D01*
X0009627Y0009328D01*
X0009760D01*
X0009827Y0009305D01*
X0009893Y0009258D01*
Y0009211D01*
X0009827Y0009165D01*
X0009760Y0009141D01*
X0009627D01*
X0009560Y0009165D01*
X0009493Y0009211D01*
Y0009258D01*
Y0009471D02*
Y0009565D01*
Y0009518D02*
X0009893D01*
X0009827Y0009565D01*
X0009560Y0009755D02*
X0009493Y0009778D01*
Y0009918D01*
X0009560Y0009941D01*
X0009827D01*
X0009893Y0009918D01*
Y0009778D01*
X0009827Y0009755D01*
X0008574Y0008797D02*
Y0008983D01*
X0008841Y0008797D01*
X0008907D01*
X0008974Y0008820D01*
Y0008960D01*
X0008907Y0008983D01*
X0008707Y0009220D02*
X0008574Y0009127D01*
X0008641Y0009313D02*
X0008574Y0009290D01*
Y0009197D01*
X0008641Y0009173D01*
X0008707Y0009127D01*
X0008907D01*
X0008974Y0009150D01*
Y0009290D01*
X0008907Y0009313D01*
X0008641D01*
X0028260Y0016178D02*
Y0016364D01*
X0028527Y0016178D01*
X0028594D01*
X0028660Y0016201D01*
Y0016341D01*
X0028594Y0016364D01*
X0028260Y0016508D02*
Y0016671D01*
X0028660D01*
X0005699Y0010890D02*
Y0010983D01*
Y0010937D02*
X0006099D01*
X0006032Y0010983D01*
X0005899Y0011220D02*
Y0011360D01*
X0005699D02*
X0006099D01*
Y0011173D01*
X0034023Y0013249D02*
X0034089Y0013295D01*
X0034156Y0013319D01*
X0034289D01*
X0034356Y0013295D01*
X0034423Y0013249D01*
Y0013202D01*
X0034356Y0013155D01*
X0034289Y0013132D01*
X0034156D01*
X0034089Y0013155D01*
X0034023Y0013202D01*
Y0013249D01*
Y0013462D02*
Y0013555D01*
Y0013509D02*
X0034423D01*
X0034356Y0013555D01*
X0034223Y0013815D02*
X0034023Y0013745D01*
X0034223Y0013932D02*
Y0013792D01*
X0034289Y0013745D01*
X0034356D01*
X0034423Y0013792D01*
Y0013932D01*
X0034023D01*
X0041023Y0002849D02*
Y0002709D01*
X0040956Y0002685D01*
X0040889D01*
X0040823Y0002709D01*
Y0002849D01*
X0040889Y0002872D01*
X0040956D01*
X0041223Y0002779D01*
X0040823Y0003015D02*
Y0003202D01*
X0041089Y0003015D01*
X0041156D01*
X0041223Y0003039D01*
Y0003179D01*
X0041156Y0003202D01*
X0040889Y0003345D02*
X0040823Y0003369D01*
Y0003509D01*
X0040889Y0003532D01*
X0041156D01*
X0041223Y0003509D01*
Y0003369D01*
X0041156Y0003345D01*
X0063356Y0002539D02*
Y0002725D01*
X0063623Y0002632D01*
Y0002585D01*
X0063223D01*
Y0002869D02*
Y0003032D01*
X0063623D01*
X0070376Y0000410D02*
X0070309Y0000363D01*
Y0000270D01*
X0070376Y0000223D01*
X0070442D01*
X0070576Y0000316D01*
X0070709Y0000223D01*
Y0000410D01*
X0070442Y0000646D02*
X0070309Y0000553D01*
X0070376Y0000740D02*
X0070309Y0000716D01*
Y0000623D01*
X0070376Y0000600D01*
X0070442Y0000553D01*
X0070642D01*
X0070709Y0000576D01*
Y0000716D01*
X0070642Y0000740D01*
X0070376D01*
X0050167Y0000950D02*
Y0001043D01*
Y0000997D02*
X0050567D01*
X0050500Y0001043D01*
X0050167Y0001327D02*
X0050567D01*
Y0001233D02*
Y0001420D01*
X0050167Y0001563D02*
X0050567Y0001703D01*
Y0001563D02*
X0050167Y0001703D01*
X0072710Y0004671D02*
Y0004764D01*
Y0004718D02*
X0073110D01*
X0073044Y0004764D01*
X0072777Y0005141D02*
X0072710Y0005118D01*
Y0004978D01*
X0072777Y0004954D01*
X0072910D01*
X0072977Y0005001D01*
Y0005141D01*
X0073110D01*
Y0004954D01*
X0072910Y0005354D02*
X0072710Y0005284D01*
X0072910Y0005471D02*
Y0005331D01*
X0072977Y0005284D01*
X0073044D01*
X0073110Y0005331D01*
Y0005471D01*
X0072710D01*
X0036829Y0006349D02*
X0036896Y0006396D01*
X0036962Y0006419D01*
X0037096D01*
X0037162Y0006396D01*
X0037229Y0006349D01*
Y0006303D01*
X0037162Y0006256D01*
X0037096Y0006233D01*
X0036962D01*
X0036896Y0006256D01*
X0036829Y0006303D01*
Y0006349D01*
X0036896Y0006749D02*
X0036829Y0006703D01*
Y0006609D01*
X0036896Y0006563D01*
X0036962D01*
X0037096Y0006656D01*
X0037229Y0006563D01*
Y0006749D01*
X0036896Y0006893D02*
X0036829Y0006916D01*
Y0007056D01*
X0036896Y0007079D01*
X0037162D01*
X0037229Y0007056D01*
Y0006916D01*
X0037162Y0006893D01*
X0038946Y0002019D02*
X0038879Y0001996D01*
Y0001856D01*
X0038946Y0001833D01*
X0039079D01*
X0039146Y0001879D01*
Y0002019D01*
X0039279D01*
Y0001833D01*
X0038879Y0002163D02*
Y0002349D01*
X0039146Y0002163D01*
X0039212D01*
X0039279Y0002186D01*
Y0002326D01*
X0039212Y0002349D01*
X0038946Y0002493D02*
X0038879Y0002516D01*
Y0002656D01*
X0038946Y0002679D01*
X0039212D01*
X0039279Y0002656D01*
Y0002516D01*
X0039212Y0002493D01*
X0055377Y0000161D02*
X0055310Y0000138D01*
Y-0000002D01*
X0055377Y-0000025D01*
X0055510D01*
X0055577Y0000021D01*
Y0000161D01*
X0055710D01*
Y-0000025D01*
X0055310Y0000444D02*
X0055710Y0000304D01*
Y0000491D01*
X0055510Y0000704D02*
X0055310Y0000634D01*
X0055510Y0000821D02*
Y0000681D01*
X0055577Y0000634D01*
X0055644D01*
X0055710Y0000681D01*
Y0000821D01*
X0055310D01*
X0004960Y0009421D02*
Y0009514D01*
Y0009468D02*
X0005360D01*
X0005294Y0009514D01*
X0004960Y0009704D02*
Y0009891D01*
X0005227Y0009704D01*
X0005294D01*
X0005360Y0009728D01*
Y0009868D01*
X0005294Y0009891D01*
X0005160Y0010104D02*
X0004960Y0010034D01*
X0005160Y0010221D02*
Y0010081D01*
X0005227Y0010034D01*
X0005294D01*
X0005360Y0010081D01*
Y0010221D01*
X0004960D01*
X0055175Y-0000175D02*
Y-0001325D01*
X0055820D01*
Y-0000175D01*
X0055175D01*
X0004675Y0009325D02*
Y0008175D01*
X0005320D01*
Y0009325D01*
X0004675D01*
X0059250Y0006950D02*
X0059750D01*
X0059850Y0006850D01*
Y0005550D01*
X0059150D01*
Y0006850D01*
X0059250Y0006950D01*
X0059150Y0006350D02*
X0059850D01*
X0039550Y0001250D02*
X0040600D01*
Y0003250D01*
X0039400D01*
Y0001250D01*
X0039550D01*
X0062250Y0006950D02*
X0062750D01*
X0062850Y0006850D01*
Y0005550D01*
X0062150D01*
Y0006850D01*
X0062250Y0006950D01*
X0062150Y0006350D02*
X0062850D01*
X0066325Y0005675D02*
Y0006825D01*
X0065680D01*
Y0005675D01*
X0066325D01*
X0047925Y0005325D02*
Y0004175D01*
X0048570D01*
Y0005325D01*
X0047925D01*
X0027405Y0001500D02*
X0032594D01*
X0032831Y0001736D01*
X0027169D01*
X0027405Y0001500D01*
Y-0001000D01*
X0027169Y-0001236D01*
Y0001736D01*
X0030886Y-0001492D02*
X0029114D01*
X0026992D01*
Y0001992D01*
X0027838D01*
X0028094D02*
X0029872D01*
X0030128D02*
X0031905D01*
X0032161D02*
X0033008D01*
Y-0001492D01*
X0030886D01*
Y-0001236D01*
X0032831D01*
X0032594Y-0001000D01*
Y0001500D01*
X0027405Y-0001000D02*
X0029114D01*
Y-0001236D01*
X0027169D01*
X0032594Y-0001000D02*
X0030886D01*
Y-0001236D01*
X0032831D02*
Y0001736D01*
X0029114Y-0001492D02*
Y-0001236D01*
X0029953Y0000797D02*
X0029874Y0000876D01*
Y0000624D01*
X0029953Y0000703D01*
Y0000797D01*
X0030047D01*
X0030126Y0000876D01*
X0029874D01*
X0030047Y0000797D02*
Y0000703D01*
X0030126Y0000624D01*
X0029874D01*
X0030126Y0000876D02*
Y0000624D01*
X0029953Y0000703D02*
X0030047D01*
X0028953Y-0000203D02*
X0028874Y-0000124D01*
Y-0000376D01*
X0028953Y-0000297D01*
Y-0000203D01*
X0029047D01*
X0029126Y-0000124D01*
X0028874D01*
X0029047Y-0000203D02*
Y-0000297D01*
X0029126Y-0000376D01*
X0028874D01*
X0029126Y-0000124D02*
Y-0000376D01*
X0028953Y-0000297D02*
X0029047D01*
X0029953Y-0000203D02*
X0029874Y-0000124D01*
Y-0000376D01*
X0029953Y-0000297D01*
Y-0000203D01*
X0030047D01*
X0030126Y-0000124D01*
X0029874D01*
X0030047Y-0000203D02*
Y-0000297D01*
X0030126Y-0000376D01*
X0029874D01*
X0030126Y-0000124D02*
Y-0000376D01*
X0029953Y-0000297D02*
X0030047D01*
X0030953Y-0000203D02*
X0030874Y-0000124D01*
Y-0000376D01*
X0030953Y-0000297D01*
Y-0000203D01*
X0031047D01*
X0031126Y-0000124D01*
X0030874D01*
X0031047Y-0000203D02*
Y-0000297D01*
X0031126Y-0000376D01*
X0030874D01*
X0031126Y-0000124D02*
Y-0000376D01*
X0030953Y-0000297D02*
X0031047D01*
X0030953Y0000797D02*
X0030874Y0000876D01*
Y0000624D01*
X0030953Y0000703D01*
Y0000797D01*
X0031047D01*
X0031126Y0000876D01*
X0030874D01*
X0031047Y0000797D02*
Y0000703D01*
X0031126Y0000624D01*
X0030874D01*
X0031126Y0000876D02*
Y0000624D01*
X0030953Y0000703D02*
X0031047D01*
X0028953Y0000797D02*
X0028874Y0000876D01*
Y0000624D01*
X0028953Y0000703D01*
Y0000797D01*
X0029047D01*
X0029126Y0000876D01*
X0028874D01*
X0029047Y0000797D02*
Y0000703D01*
X0029126Y0000624D01*
X0028874D01*
X0029126Y0000876D02*
Y0000624D01*
X0028953Y0000703D02*
X0029047D01*
X0024825Y0011675D02*
Y0012825D01*
X0024180D01*
Y0011675D01*
X0024825D01*
X0005550Y-0000050D02*
X0004450D01*
Y0002050D01*
X0005550D01*
Y-0000050D01*
X0051200Y0002000D02*
X0054250D01*
Y0005500D01*
X0050750D01*
Y0002450D01*
X0051200Y0002000D01*
X0050902Y0002044D02*
Y0001956D01*
X0050848Y0002124D02*
Y0001876D01*
X0050794Y0002152D02*
Y0001848D01*
X0050740Y0002158D02*
Y0001842D01*
X0050686Y0002144D02*
Y0001855D01*
X0050632Y0002105D02*
Y0001895D01*
X0050794Y0002152D02*
X0050706D01*
X0050874Y0002098D02*
X0050626D01*
X0050902Y0002044D02*
X0050598D01*
X0050908Y0001990D02*
X0050592D01*
X0050894Y0001936D02*
X0050605D01*
X0050855Y0001882D02*
X0050645D01*
X0071325Y0003175D02*
Y0004325D01*
X0070680D01*
Y0003175D01*
X0071325D01*
X0059825Y0004175D02*
Y0005325D01*
X0059180D01*
Y0004175D01*
X0059825D01*
X0062825D02*
Y0005325D01*
X0062180D01*
Y0004175D01*
X0062825D01*
X0056575Y-0001325D02*
Y-0000175D01*
X0055930D01*
Y-0001325D01*
X0056575D01*
X0045925Y0004825D02*
Y0003675D01*
X0046570D01*
Y0004825D01*
X0045925D01*
X0026175Y0014075D02*
Y0012925D01*
X0026820D01*
Y0014075D01*
X0026175D01*
X0020050Y0013650D02*
Y0017300D01*
X0015450D01*
Y0013650D01*
X0015500D01*
X0016550D01*
Y0011900D01*
X0016950D01*
Y0013650D01*
X0018550D01*
Y0011900D01*
X0018950D01*
Y0013650D01*
X0020050D01*
X0027248Y0010310D02*
X0027121D01*
X0027208Y0010407D02*
Y0010274D01*
X0027154Y0010404D02*
Y0010277D01*
X0027251Y0010364D02*
X0027118D01*
X0061250Y0006950D02*
X0061750D01*
X0061850Y0006850D01*
Y0005550D01*
X0061150D01*
Y0006850D01*
X0061250Y0006950D01*
X0061150Y0006350D02*
X0061850D01*
X0070425Y0000075D02*
Y-0001075D01*
X0071070D01*
Y0000075D01*
X0070425D01*
X0003825Y0006675D02*
Y0007825D01*
X0003180D01*
Y0006675D01*
X0003825D01*
X0003800Y-0000050D02*
X0002700D01*
Y0002050D01*
X0003800D01*
Y-0000050D01*
X0038325Y0004425D02*
Y0005575D01*
X0037680D01*
Y0004425D01*
X0038325D01*
X0065675Y0008075D02*
Y0006925D01*
X0066320D01*
Y0008075D01*
X0065675D01*
X0032600Y0007050D02*
X0028950D01*
Y0002450D01*
X0032600D01*
Y0002500D01*
Y0003550D01*
X0034350D01*
Y0003950D01*
X0032600D01*
Y0005550D01*
X0034350D01*
Y0005950D01*
X0032600D01*
Y0007050D01*
X0056250Y0006950D02*
X0056750D01*
X0056850Y0006850D01*
Y0005550D01*
X0056150D01*
Y0006850D01*
X0056250Y0006950D01*
X0056150Y0006350D02*
X0056850D01*
X0025650Y0003100D02*
Y0003150D01*
X0025000D01*
X0024850Y0003000D01*
Y0001850D01*
X0025650D01*
Y0003100D01*
X0007999Y0015020D02*
Y0015034D01*
X0007998D01*
X0007547Y0015145D02*
X0007541Y0015134D01*
X0007131Y0015545D02*
X0007143Y0015551D01*
X0007118Y0015600D01*
X0007111Y0015617D01*
X0007104Y0015634D01*
X0007097Y0015651D01*
X0007090Y0015668D01*
X0007084Y0015685D01*
X0007078Y0015703D01*
X0007073Y0015721D01*
X0007068Y0015739D01*
X0007063Y0015757D01*
X0007058Y0015775D01*
X0007054Y0015793D01*
X0007044Y0015848D01*
X0007041Y0015867D01*
X0007038Y0015886D01*
X0007036Y0015905D01*
X0007032Y0016001D01*
X0007033Y0016054D01*
X0007035Y0016088D01*
X0007037Y0016106D01*
X0007039Y0016123D01*
X0007057Y0016223D01*
X0007061Y0016239D01*
X0007065Y0016256D01*
X0007085Y0016320D01*
X0007091Y0016335D01*
X0007097Y0016351D01*
X0007103Y0016366D01*
X0007123Y0016412D01*
X0007111Y0016417D01*
X0007104Y0016402D01*
X0007091Y0016371D01*
X0007084Y0016356D01*
X0007079Y0016340D01*
X0007073Y0016324D01*
X0007053Y0016259D01*
X0007048Y0016243D01*
X0007044Y0016226D01*
X0007041Y0016209D01*
X0007037Y0016192D01*
X0007031Y0016159D01*
X0007028Y0016141D01*
X0007026Y0016124D01*
X0007024Y0016107D01*
X0007022Y0016089D01*
X0007020Y0016054D01*
X0007019Y0016001D01*
X0007023Y0015904D01*
X0007025Y0015884D01*
X0007028Y0015865D01*
X0007031Y0015846D01*
X0007050Y0015753D01*
X0007055Y0015735D01*
X0007060Y0015717D01*
X0007066Y0015699D01*
X0007072Y0015681D01*
X0007092Y0015629D01*
X0007099Y0015612D01*
X0007107Y0015595D01*
X0007131Y0015545D01*
X0007999Y0016982D02*
Y0016969D01*
X0008096Y0016964D01*
X0008134Y0016960D01*
X0008152Y0016957D01*
X0008208Y0016947D01*
X0008226Y0016942D01*
X0008244Y0016938D01*
X0008280Y0016928D01*
X0008298Y0016922D01*
X0008315Y0016916D01*
X0008350Y0016904D01*
X0008367Y0016897D01*
X0008401Y0016882D01*
X0008450Y0016858D01*
X0008456Y0016870D01*
X0008406Y0016894D01*
X0008389Y0016902D01*
X0008372Y0016909D01*
X0008319Y0016929D01*
X0008302Y0016935D01*
X0008284Y0016940D01*
X0008266Y0016946D01*
X0008247Y0016950D01*
X0008154Y0016970D01*
X0008135Y0016973D01*
X0008097Y0016977D01*
X0007999Y0016982D01*
X0008868Y0016458D02*
X0008856Y0016452D01*
X0008967Y0016001D02*
X0008980D01*
X0008895Y0015017D02*
X0007435D01*
Y0015037D01*
X0008900Y0015038D01*
X0008963Y0015106D02*
Y0016566D01*
X0008984D01*
Y0015106D01*
X0008895Y0015017D02*
Y0015021D01*
X0008980Y0015105D02*
Y0015614D01*
X0008824D01*
Y0015601D01*
X0008967D01*
Y0015100D01*
X0008901Y0015034D02*
X0008414D01*
Y0015180D01*
X0008830Y0015605D02*
X0008818Y0015611D01*
X0008401Y0015188D02*
Y0015021D01*
X0008895D01*
X0007595Y0016825D02*
X0007615D01*
Y0016986D01*
X0007377D01*
X0007015Y0016630D01*
Y0016404D01*
X0007191D01*
X0007205Y0016431D01*
X0007217Y0016452D01*
X0007254Y0016512D01*
X0007268Y0016531D01*
X0007312Y0016587D01*
X0007327Y0016605D01*
X0007343Y0016622D01*
X0007360Y0016639D01*
X0007377Y0016655D01*
X0007394Y0016671D01*
X0007412Y0016687D01*
X0007448Y0016717D01*
X0007467Y0016731D01*
X0007546Y0016783D01*
X0007567Y0016794D01*
X0007588Y0016806D01*
X0007609Y0016816D01*
X0007600Y0016834D01*
X0007557Y0016812D01*
X0007536Y0016800D01*
X0007455Y0016747D01*
X0007436Y0016733D01*
X0007345Y0016653D01*
X0007328Y0016636D01*
X0007312Y0016618D01*
X0007296Y0016600D01*
X0007281Y0016581D01*
X0007266Y0016562D01*
X0007224Y0016503D01*
X0007211Y0016483D01*
X0007199Y0016462D01*
X0007187Y0016441D01*
X0007179Y0016425D01*
X0007035D01*
Y0016621D01*
X0007385Y0016965D01*
X0007595D01*
Y0016825D01*
X0007035Y0016621D02*
Y0015437D01*
X0007015D01*
Y0016630D01*
X0007385Y0016965D02*
X0008564D01*
Y0016986D01*
X0007377D01*
X0007473Y0015466D02*
X0007464Y0015475D01*
X0007244Y0015255D01*
X0007254Y0015246D01*
X0007473Y0015466D01*
X0008754Y0016757D02*
X0008982Y0016566D01*
X0008780Y0016364D01*
X0008773Y0016379D01*
X0008519Y0016696D02*
X0008530Y0016688D01*
X0008784Y0016386D02*
X0008963Y0016565D01*
X0008746Y0016747D01*
X0008563Y0016965D01*
X0008384Y0016786D01*
X0008528Y0016697D02*
X0008521Y0016687D01*
X0008362Y0016782D02*
X0008564Y0016984D01*
X0008754Y0016757D01*
X0008746Y0016747D01*
X0008969Y0016561D01*
X0008979Y0016557D01*
X0008555Y0016981D02*
X0008559Y0016970D01*
X0008745Y0016748D01*
X0008755Y0016756D01*
X0008570Y0016977D01*
X0008574Y0016969D01*
X0008967Y0016575D02*
X0008975Y0016572D01*
X0008754Y0016757D01*
X0008750Y0016752D01*
X0008565Y0016974D01*
X0008564Y0016975D01*
X0008973Y0016566D02*
X0008972Y0016567D01*
X0008750Y0016752D01*
X0008754Y0016747D01*
X0008745Y0016756D01*
X0008525Y0016536D01*
X0008535Y0016527D01*
X0008754Y0016747D01*
X0007026Y0015437D02*
X0007027Y0015436D01*
X0007249Y0015251D01*
X0007435Y0015029D01*
Y0015028D01*
X0007429Y0015026D01*
X0007426Y0015034D01*
X0007032Y0015427D02*
X0007245Y0015246D01*
X0007254Y0015256D01*
X0007031Y0015442D01*
X0007020Y0015447D01*
X0007444Y0015022D02*
X0007440Y0015032D01*
X0007254Y0015255D01*
X0007244Y0015247D01*
X0007429Y0015026D01*
X0007310Y0015486D02*
X0007305Y0015481D01*
X0007637Y0015220D02*
X0007435Y0015018D01*
X0007244Y0015247D01*
X0007016Y0015437D01*
X0007218Y0015639D01*
X0007314Y0015480D02*
X0007304Y0015472D01*
X0007215Y0015616D02*
X0007036Y0015437D01*
X0007254Y0015255D01*
X0007435Y0015037D01*
X0007614Y0015217D01*
X0007313Y0015471D02*
X0007305Y0015481D01*
X0007310Y0015486D01*
X0008694Y0016521D02*
X0008686Y0016531D01*
X0008695Y0016530D02*
X0008685Y0016523D01*
X0033825Y0009925D02*
Y0011075D01*
X0033180D01*
Y0009925D01*
X0033825D01*
X0066325Y0004425D02*
Y0005575D01*
X0065680D01*
Y0004425D01*
X0066325D01*
X0046700Y0005300D02*
X0047800D01*
Y0003200D01*
X0046700D01*
Y0005300D01*
X0026825Y0011675D02*
Y0012825D01*
X0026180D01*
Y0011675D01*
X0026825D01*
X0025913Y0001423D02*
X0025039D01*
Y0000561D01*
X0025398D01*
Y0000439D01*
X0025039D01*
Y-0000423D01*
X0025913D01*
Y0001423D01*
X0023134Y-0001004D02*
X0022976D01*
Y-0000677D01*
X0021846D01*
Y0001677D01*
X0026153D01*
Y-0000677D01*
X0025024D01*
Y-0001004D01*
X0024866D01*
Y-0001468D01*
X0023134D01*
Y-0001004D01*
Y-0000423D01*
X0023476D01*
X0023945D01*
Y0000439D01*
X0023071D01*
Y-0000423D01*
X0023134D01*
X0024866Y-0001004D02*
Y-0000423D01*
X0024929D01*
Y0000439D01*
X0024055D01*
Y-0000423D01*
X0024524D01*
Y-0000531D01*
X0023476D01*
Y-0000423D01*
X0022399Y0001117D02*
Y0000867D01*
X0022649D01*
Y0001117D01*
X0022399D01*
X0022458Y0001058D01*
Y0000926D01*
X0022589D01*
Y0001058D01*
X0022458D01*
X0022589Y-0000058D02*
X0022649Y-0000117D01*
X0022399D01*
X0022458Y-0000058D01*
X0022589D01*
Y0000074D01*
X0022649Y0000133D01*
X0022399D01*
X0022458Y0000074D01*
X0022589D01*
X0022399Y0000133D02*
Y-0000117D01*
Y0000867D02*
X0022458Y0000926D01*
X0022649Y0000867D02*
X0022589Y0000926D01*
X0022649Y0001117D02*
X0022589Y0001058D01*
X0025410D02*
X0025351Y0001117D01*
X0025601D01*
X0025542Y0001058D01*
X0025410D01*
Y0000926D01*
X0025351Y0000867D01*
X0025601D01*
X0025542Y0000926D01*
X0025410D01*
X0025542Y0001058D02*
Y0000926D01*
Y-0000058D02*
X0025601Y-0000117D01*
X0025351D01*
X0025410Y-0000058D01*
X0025542D01*
Y0000074D01*
X0025601Y0000133D01*
X0025351D01*
X0025410Y0000074D01*
X0025542D01*
X0025351Y0001117D02*
Y0000867D01*
Y0000133D02*
Y-0000117D01*
X0025410Y-0000058D02*
Y0000074D01*
X0025601Y0001117D02*
Y0000867D01*
Y0000133D02*
Y-0000117D01*
X0025398Y0000561D02*
X0025634D01*
Y0000439D01*
X0025398D01*
X0025913Y0000561D02*
X0025634D01*
Y0000439D02*
X0025913D01*
X0023383Y0001117D02*
Y0000867D01*
X0023633D01*
X0023574Y0000926D01*
Y0001058D01*
X0023633Y0001117D01*
X0023383D01*
X0023442Y0001058D01*
Y0000926D01*
X0023574D01*
X0023442Y0001058D02*
X0023574D01*
X0023383Y0000867D02*
X0023442Y0000926D01*
X0023574Y-0000058D02*
X0023633Y-0000117D01*
X0023383D01*
X0023442Y-0000058D01*
X0023574D01*
Y0000074D01*
X0023633Y0000133D01*
X0023383D01*
X0023442Y0000074D01*
X0023574D01*
X0023383Y0000133D02*
Y-0000117D01*
X0023442Y-0000058D02*
Y0000074D01*
X0023633Y0001117D02*
Y0000867D01*
Y0000133D02*
Y-0000117D01*
X0024367Y0001117D02*
Y0000867D01*
X0024617D01*
X0024558Y0000926D01*
Y0001058D01*
X0024617Y0001117D01*
X0024367D01*
X0024426Y0001058D01*
Y0000926D01*
X0024558D01*
X0024426Y0001058D02*
X0024558D01*
X0024367Y0000867D02*
X0024426Y0000926D01*
X0024558Y-0000058D02*
X0024617Y-0000117D01*
X0024367D01*
X0024426Y-0000058D01*
X0024558D01*
Y0000074D01*
X0024617Y0000133D01*
X0024367D01*
X0024426Y0000074D01*
X0024558D01*
X0024367Y0000133D02*
Y-0000117D01*
X0024426Y-0000058D02*
Y0000074D01*
X0024617Y0001117D02*
Y0000867D01*
Y0000133D02*
Y-0000117D01*
X0022976Y-0001724D02*
Y-0001579D01*
X0025024D01*
Y-0001724D01*
X0024945Y-0001803D02*
X0023055D01*
X0022976Y-0001004D02*
Y-0001579D01*
X0025024Y-0001004D02*
Y-0001579D01*
X0024524Y-0000423D02*
X0024866D01*
X0022961D02*
Y0000439D01*
X0022087D01*
Y-0000423D01*
X0022961D01*
X0024929Y0001423D02*
X0024055D01*
Y0000561D01*
X0024929D01*
Y0001423D01*
X0023945D02*
X0023071D01*
Y0000561D01*
X0023945D01*
Y0001423D01*
X0022961D02*
X0022087D01*
Y0000561D01*
X0022961D01*
Y0001423D01*
X0022458Y-0000058D02*
Y0000074D01*
X0022649Y0000133D02*
Y-0000117D01*
X0061825Y0004175D02*
Y0005325D01*
X0061180D01*
Y0004175D01*
X0061825D01*
X0004575Y0006675D02*
Y0007825D01*
X0003930D01*
Y0006675D01*
X0004575D01*
X0067575Y0006925D02*
Y0008075D01*
X0066930D01*
Y0006925D01*
X0067575D01*
X0014000Y0017200D02*
X0014500D01*
X0014600Y0017100D01*
Y0015800D01*
X0013900D01*
Y0017100D01*
X0014000Y0017200D01*
X0013900Y0016600D02*
X0014600D01*
X0056825Y0004175D02*
Y0005325D01*
X0056180D01*
Y0004175D01*
X0056825D01*
X0005325Y0006675D02*
Y0007825D01*
X0004680D01*
Y0006675D01*
X0005325D01*
X0053175Y-0000175D02*
Y-0001325D01*
X0053820D01*
Y-0000175D01*
X0053175D01*
X0068825Y0005675D02*
Y0006825D01*
X0068180D01*
Y0005675D01*
X0068825D01*
X0022650Y0003100D02*
Y0003150D01*
X0022000D01*
X0021850Y0003000D01*
Y0001850D01*
X0022650D01*
Y0003100D01*
X0005450Y0008800D02*
X0006550D01*
Y0006700D01*
X0005450D01*
Y0008800D01*
X0024175Y0014075D02*
Y0012925D01*
X0024820D01*
Y0014075D01*
X0024175D01*
X0047575Y0001925D02*
Y0003075D01*
X0046930D01*
Y0001925D01*
X0047575D01*
X0025425Y0012825D02*
Y0011675D01*
X0026070D01*
Y0012825D01*
X0025425D01*
X0062925Y0000325D02*
Y-0000825D01*
X0063570D01*
Y0000325D01*
X0062925D01*
X0066925Y0006825D02*
Y0005675D01*
X0067570D01*
Y0006825D01*
X0066925D01*
X0000303Y0007093D02*
Y0007132D01*
X0000697D01*
Y0007093D01*
X0000303D01*
X0000343Y0007525D02*
X0000303D01*
Y0006975D01*
X0000343D01*
X0000657D02*
X0000697D01*
Y0007525D01*
X0000657D01*
X0024917Y0007466D02*
Y0007369D01*
X0024863Y0007499D02*
Y0007337D01*
X0024809Y0007488D02*
Y0007347D01*
X0024899Y0007484D02*
X0024802D01*
X0024932Y0007430D02*
X0024769D01*
X0024921Y0007376D02*
X0024780D01*
X0024900Y0007000D02*
Y0005800D01*
X0022700D01*
Y0007300D01*
X0024600D01*
X0024900Y0007000D01*
X0031675Y0011075D02*
Y0009925D01*
X0032320D01*
Y0011075D01*
X0031675D01*
X0071850Y0003150D02*
Y0003100D01*
X0072500D01*
X0072650Y0003250D01*
Y0004400D01*
X0071850D01*
Y0003150D01*
X0048575Y-0000075D02*
Y0001075D01*
X0047930D01*
Y-0000075D01*
X0048575D01*
X0030425Y0014075D02*
Y0012925D01*
X0031070D01*
Y0014075D01*
X0030425D01*
X0056325Y0001925D02*
Y0003075D01*
X0055680D01*
Y0001925D01*
X0056325D01*
X0027425Y0015825D02*
Y0014675D01*
X0028070D01*
Y0015825D01*
X0027425D01*
X0047925Y0006575D02*
Y0005425D01*
X0048570D01*
Y0006575D01*
X0047925D01*
X0068825Y0004425D02*
Y0005575D01*
X0068180D01*
Y0004425D01*
X0068825D01*
X0066925Y0005575D02*
Y0004425D01*
X0067570D01*
Y0005575D01*
X0066925D01*
X0060250Y0006950D02*
X0060750D01*
X0060850Y0006850D01*
Y0005550D01*
X0060150D01*
Y0006850D01*
X0060250Y0006950D01*
X0060150Y0006350D02*
X0060850D01*
X0001053Y0007093D02*
Y0007132D01*
X0001447D01*
Y0007093D01*
X0001053D01*
X0001093Y0007525D02*
X0001053D01*
Y0006975D01*
X0001093D01*
X0001407D02*
X0001447D01*
Y0007525D01*
X0001407D01*
X0012575Y0011175D02*
Y0012325D01*
X0011930D01*
Y0011175D01*
X0012575D01*
X0058250Y0006950D02*
X0058750D01*
X0058850Y0006850D01*
Y0005550D01*
X0058150D01*
Y0006850D01*
X0058250Y0006950D01*
X0058150Y0006350D02*
X0058850D01*
X0014097Y0011450D02*
Y0011325D01*
X0014043Y0011450D02*
Y0011325D01*
X0013989Y0011450D02*
Y0011325D01*
X0013935Y0011450D02*
Y0011325D01*
X0013881Y0011450D02*
Y0011325D01*
X0013827Y0011450D02*
Y0011325D01*
X0013773Y0011450D02*
Y0011325D01*
X0013719Y0011450D02*
Y0011325D01*
X0013665Y0011450D02*
Y0011325D01*
X0014875Y0011419D02*
X0013625D01*
X0014691Y0011450D02*
Y0011325D01*
X0014637Y0011450D02*
Y0011325D01*
X0014583Y0011450D02*
Y0011325D01*
X0014529Y0011450D02*
Y0011325D01*
X0014475Y0011450D02*
Y0011325D01*
X0014421Y0011450D02*
Y0011325D01*
X0014367Y0011450D02*
Y0011325D01*
X0014313Y0011450D02*
Y0011325D01*
X0014259Y0011450D02*
Y0011325D01*
X0014205Y0011450D02*
Y0011325D01*
X0014151Y0011450D02*
Y0011325D01*
X0014875Y0011365D02*
X0013625D01*
Y0011450D02*
Y0011325D01*
X0014875D02*
X0013625D01*
X0014875Y0011450D02*
Y0011325D01*
Y0011450D02*
X0013625D01*
X0014853D02*
Y0011325D01*
X0014799Y0011450D02*
Y0011325D01*
X0014745Y0011450D02*
Y0011325D01*
X0014762Y0012181D02*
X0014880D01*
Y0009819D01*
X0014762D01*
X0013708Y0012368D02*
X0013611D01*
X0013704Y0012398D02*
Y0012357D01*
X0013650Y0012426D02*
Y0012329D01*
X0013680Y0012422D02*
X0013638D01*
X0013738Y0012181D02*
X0013620D01*
Y0009819D01*
X0013738D01*
X0033825Y0011675D02*
Y0012825D01*
X0033180D01*
Y0011675D01*
X0033825D01*
X0032325Y0012925D02*
Y0014075D01*
X0031680D01*
Y0012925D01*
X0032325D01*
X0069350Y0003150D02*
Y0003100D01*
X0070000D01*
X0070150Y0003250D01*
Y0004400D01*
X0069350D01*
Y0003150D01*
X0025325Y0003675D02*
Y0004825D01*
X0024680D01*
Y0003675D01*
X0025325D01*
X0006575Y0005425D02*
Y0006575D01*
X0005930D01*
Y0005425D01*
X0006575D01*
X0068175Y0008075D02*
Y0006925D01*
X0068820D01*
Y0008075D01*
X0068175D01*
X0054325Y0006925D02*
Y0008075D01*
X0053680D01*
Y0006925D01*
X0054325D01*
X0046175Y0000825D02*
Y-0000325D01*
X0046820D01*
Y0000825D01*
X0046175D01*
X0048575Y-0001325D02*
Y-0000175D01*
X0047930D01*
Y-0001325D01*
X0048575D01*
X0060825Y0004175D02*
Y0005325D01*
X0060180D01*
Y0004175D01*
X0060825D01*
X0010800Y0010500D02*
X0011850D01*
Y0012500D01*
X0010650D01*
Y0010500D01*
X0010800D01*
X0058825Y0004175D02*
Y0005325D01*
X0058180D01*
Y0004175D01*
X0058825D01*
X0063850Y0000550D02*
Y-0001050D01*
X0065650D01*
Y-0000350D01*
X0065550Y-0000250D01*
X0065650Y-0000150D01*
Y0000550D01*
X0063850D01*
X0025175Y0006575D02*
Y0005425D01*
X0025820D01*
Y0006575D01*
X0025175D01*
X0067175Y0002075D02*
Y0000925D01*
X0067820D01*
Y0002075D01*
X0067175D01*
X0006675Y0006575D02*
Y0005425D01*
X0007320D01*
Y0006575D01*
X0006675D01*
X0013825Y-0000825D02*
Y0000325D01*
X0013180D01*
Y-0000825D01*
X0013825D01*
X0070075Y0006925D02*
Y0008075D01*
X0069430D01*
Y0006925D01*
X0070075D01*
X0051075D02*
Y0008075D01*
X0050430D01*
Y0006925D01*
X0051075D01*
X0066850Y0003150D02*
Y0003100D01*
X0067500D01*
X0067650Y0003250D01*
Y0004400D01*
X0066850D01*
Y0003150D01*
X0025425Y0017325D02*
Y0016175D01*
X0026070D01*
Y0017325D01*
X0025425D01*
X0009097Y0013700D02*
Y0013575D01*
X0009043Y0013700D02*
Y0013575D01*
X0008989Y0013700D02*
Y0013575D01*
X0008935Y0013700D02*
Y0013575D01*
X0008881Y0013700D02*
Y0013575D01*
X0008827Y0013700D02*
Y0013575D01*
X0008773Y0013700D02*
Y0013575D01*
X0008719Y0013700D02*
Y0013575D01*
X0008665Y0013700D02*
Y0013575D01*
X0009875Y0013669D02*
X0008625D01*
X0009691Y0013700D02*
Y0013575D01*
X0009637Y0013700D02*
Y0013575D01*
X0009583Y0013700D02*
Y0013575D01*
X0009529Y0013700D02*
Y0013575D01*
X0009475Y0013700D02*
Y0013575D01*
X0009421Y0013700D02*
Y0013575D01*
X0009367Y0013700D02*
Y0013575D01*
X0009313Y0013700D02*
Y0013575D01*
X0009259Y0013700D02*
Y0013575D01*
X0009205Y0013700D02*
Y0013575D01*
X0009151Y0013700D02*
Y0013575D01*
X0009875Y0013615D02*
X0008625D01*
Y0013700D02*
Y0013575D01*
X0009875D02*
X0008625D01*
X0009875Y0013700D02*
Y0013575D01*
Y0013700D02*
X0008625D01*
X0009853D02*
Y0013575D01*
X0009799Y0013700D02*
Y0013575D01*
X0009745Y0013700D02*
Y0013575D01*
X0009762Y0014431D02*
X0009880D01*
Y0012069D01*
X0009762D01*
X0008708Y0014618D02*
X0008611D01*
X0008704Y0014648D02*
Y0014607D01*
X0008650Y0014676D02*
Y0014579D01*
X0008680Y0014672D02*
X0008638D01*
X0008738Y0014431D02*
X0008620D01*
Y0012069D01*
X0008738D01*
X0012050Y-0001000D02*
X0013100D01*
Y0001000D01*
X0011900D01*
Y-0001000D01*
X0012050D01*
X0036847Y0002700D02*
Y0002575D01*
X0036793Y0002700D02*
Y0002575D01*
X0036739Y0002700D02*
Y0002575D01*
X0036685Y0002700D02*
Y0002575D01*
X0036631Y0002700D02*
Y0002575D01*
X0036577Y0002700D02*
Y0002575D01*
X0036523Y0002700D02*
Y0002575D01*
X0036469Y0002700D02*
Y0002575D01*
X0036415Y0002700D02*
Y0002575D01*
X0037625Y0002669D02*
X0036375D01*
X0037441Y0002700D02*
Y0002575D01*
X0037387Y0002700D02*
Y0002575D01*
X0037333Y0002700D02*
Y0002575D01*
X0037279Y0002700D02*
Y0002575D01*
X0037225Y0002700D02*
Y0002575D01*
X0037171Y0002700D02*
Y0002575D01*
X0037117Y0002700D02*
Y0002575D01*
X0037063Y0002700D02*
Y0002575D01*
X0037009Y0002700D02*
Y0002575D01*
X0036955Y0002700D02*
Y0002575D01*
X0036901Y0002700D02*
Y0002575D01*
X0037625Y0002615D02*
X0036375D01*
Y0002700D02*
Y0002575D01*
X0037625D02*
X0036375D01*
X0037625Y0002700D02*
Y0002575D01*
Y0002700D02*
X0036375D01*
X0037603D02*
Y0002575D01*
X0037549Y0002700D02*
Y0002575D01*
X0037495Y0002700D02*
Y0002575D01*
X0037512Y0003431D02*
X0037630D01*
Y0001069D01*
X0037512D01*
X0036458Y0003618D02*
X0036361D01*
X0036454Y0003648D02*
Y0003607D01*
X0036400Y0003676D02*
Y0003579D01*
X0036430Y0003672D02*
X0036388D01*
X0036488Y0003431D02*
X0036370D01*
Y0001069D01*
X0036488D01*
X0003925Y0009325D02*
Y0008175D01*
X0004570D01*
Y0009325D01*
X0003925D01*
X0033075Y0011675D02*
Y0012825D01*
X0032430D01*
Y0011675D01*
X0033075D01*
X0025825Y0006675D02*
Y0007825D01*
X0025180D01*
Y0006675D01*
X0025825D01*
X0018300Y-0001000D02*
X0019350D01*
Y0001000D01*
X0018150D01*
Y-0001000D01*
X0018300D01*
X0002325Y0008175D02*
Y0009325D01*
X0001680D01*
Y0008175D01*
X0002325D01*
X0063825Y0006925D02*
Y0008075D01*
X0063180D01*
Y0006925D01*
X0063825D01*
X0071325Y0005675D02*
Y0006825D01*
X0070680D01*
Y0005675D01*
X0071325D01*
X0002831Y0015224D02*
X0002295D01*
Y0015065D01*
X0002831D01*
Y0016435D01*
X0002976D01*
Y0016758D01*
X0003134D01*
Y0017226D01*
X0004866D01*
Y0016758D01*
X0005024D01*
Y0017333D01*
X0002976D01*
Y0016758D01*
X0005169Y0015224D02*
X0005705D01*
Y0016276D01*
Y0016435D01*
X0005169D01*
Y0015065D01*
X0005705D01*
Y0015224D01*
X0004866Y0016758D02*
Y0016181D01*
X0004929D01*
Y0015319D01*
X0003071D01*
Y0016181D01*
X0003134D01*
X0003476D01*
X0003945D01*
Y0015835D01*
Y0015598D01*
X0004055D01*
Y0015835D01*
X0003945D01*
X0004866Y0016181D02*
X0004524D01*
X0004055D01*
Y0015835D01*
X0003476Y0016181D02*
Y0016291D01*
X0004524D01*
Y0016181D01*
X0002976Y0017333D02*
Y0017561D01*
X0005024D01*
Y0017333D01*
X0003134Y0016758D02*
Y0016181D01*
X0002831Y0016276D02*
X0002295D01*
Y0016435D01*
X0002831D01*
X0004617Y0015875D02*
X0004367D01*
Y0015625D01*
X0004426Y0015684D01*
X0004558D01*
X0004617Y0015625D01*
Y0015875D01*
X0004558Y0015816D01*
Y0015684D01*
X0004367Y0015625D02*
X0004617D01*
X0003442Y0015816D02*
X0003383Y0015875D01*
X0003633D01*
X0003574Y0015816D01*
X0003442D01*
Y0015684D01*
X0003383Y0015625D01*
X0003633D01*
X0003574Y0015684D01*
X0003442D01*
X0003633Y0015625D02*
Y0015875D01*
X0003574Y0015816D02*
Y0015684D01*
X0003383Y0015625D02*
Y0015875D01*
X0005169Y0016276D02*
X0005705D01*
X0005024Y0016758D02*
Y0016435D01*
X0005169D01*
X0003945Y0015598D02*
Y0015319D01*
X0004055Y0015598D02*
Y0015319D01*
X0004367Y0015875D02*
X0004426Y0015816D01*
X0004558D01*
X0004426D02*
Y0015684D01*
X0002295Y0016276D02*
Y0015224D01*
X0005169Y0015065D02*
X0002831D01*
X0051675Y-0000175D02*
Y-0001325D01*
X0052320D01*
Y-0000175D01*
X0051675D01*
X-0000203Y0002066D02*
Y0001937D01*
X-0000257Y0002090D02*
Y0001914D01*
X-0000311Y0002076D02*
Y0001928D01*
X-0000199Y0002062D02*
X-0000328D01*
X-0000175Y0002008D02*
X-0000351D01*
X-0000189Y0001954D02*
X-0000337D01*
X0000694Y0002316D02*
Y0002202D01*
X0001037D01*
X0001548Y0002713D01*
Y0004798D01*
X0000690D01*
Y0004664D01*
X-0000182Y0002320D02*
Y0002202D01*
X-0000537D01*
X-0001048Y0002713D01*
Y0004798D01*
X-0000194D01*
Y0004676D01*
X0062925Y0002075D02*
Y0000925D01*
X0063570D01*
Y0002075D01*
X0062925D01*
X0024550Y0003650D02*
X0022950D01*
Y0001850D01*
X0023650D01*
X0023750Y0001950D01*
X0023850Y0001850D01*
X0024550D01*
Y0003650D01*
X0068825Y0003175D02*
Y0004325D01*
X0068180D01*
Y0003175D01*
X0068825D01*
X0026075Y0013675D02*
Y0014825D01*
X0025430D01*
Y0013675D01*
X0026075D01*
X0006597Y0013700D02*
Y0013575D01*
X0006543Y0013700D02*
Y0013575D01*
X0006489Y0013700D02*
Y0013575D01*
X0006435Y0013700D02*
Y0013575D01*
X0006381Y0013700D02*
Y0013575D01*
X0006327Y0013700D02*
Y0013575D01*
X0006273Y0013700D02*
Y0013575D01*
X0006219Y0013700D02*
Y0013575D01*
X0006165Y0013700D02*
Y0013575D01*
X0007375Y0013669D02*
X0006125D01*
X0007191Y0013700D02*
Y0013575D01*
X0007137Y0013700D02*
Y0013575D01*
X0007083Y0013700D02*
Y0013575D01*
X0007029Y0013700D02*
Y0013575D01*
X0006975Y0013700D02*
Y0013575D01*
X0006921Y0013700D02*
Y0013575D01*
X0006867Y0013700D02*
Y0013575D01*
X0006813Y0013700D02*
Y0013575D01*
X0006759Y0013700D02*
Y0013575D01*
X0006705Y0013700D02*
Y0013575D01*
X0006651Y0013700D02*
Y0013575D01*
X0007375Y0013615D02*
X0006125D01*
Y0013700D02*
Y0013575D01*
X0007375D02*
X0006125D01*
X0007375Y0013700D02*
Y0013575D01*
Y0013700D02*
X0006125D01*
X0007353D02*
Y0013575D01*
X0007299Y0013700D02*
Y0013575D01*
X0007245Y0013700D02*
Y0013575D01*
X0007262Y0014431D02*
X0007380D01*
Y0012069D01*
X0007262D01*
X0006208Y0014618D02*
X0006111D01*
X0006204Y0014648D02*
Y0014607D01*
X0006150Y0014676D02*
Y0014579D01*
X0006180Y0014672D02*
X0006138D01*
X0006238Y0014431D02*
X0006120D01*
Y0012069D01*
X0006238D01*
X0068350Y0002300D02*
Y0000700D01*
X0070150D01*
Y0001400D01*
X0070050Y0001500D01*
X0070150Y0001600D01*
Y0002300D01*
X0068350D01*
X0033075Y0009925D02*
Y0011075D01*
X0032430D01*
Y0009925D01*
X0033075D01*
X0065925Y0000075D02*
Y-0001075D01*
X0066570D01*
Y0000075D01*
X0065925D01*
X0020425Y0002325D02*
Y0001175D01*
X0021070D01*
Y0002325D01*
X0020425D01*
X0025640Y0015992D02*
X0025620D01*
Y0015972D01*
Y0015027D01*
Y0015008D01*
X0025640D01*
X0026860D02*
X0026880D01*
Y0015027D01*
Y0015972D01*
Y0015992D01*
X0026860D01*
Y0015008D02*
X0025640D01*
Y0015992D02*
X0026860D01*
X0025640Y0015382D02*
Y0015224D01*
X0026860Y0015618D02*
Y0015776D01*
X0023925Y0004825D02*
Y0003675D01*
X0024570D01*
Y0004825D01*
X0023925D01*
X0064350Y0003150D02*
Y0003100D01*
X0065000D01*
X0065150Y0003250D01*
Y0004400D01*
X0064350D01*
Y0003150D01*
X0039500Y0006400D02*
Y0003600D01*
X0044150D01*
Y0006400D01*
X0039500D01*
X0065075Y0006925D02*
Y0008075D01*
X0064430D01*
Y0006925D01*
X0065075D01*
X0069425Y0006825D02*
Y0005675D01*
X0070070D01*
Y0006825D01*
X0069425D01*
X0054575Y-0001325D02*
Y-0000175D01*
X0053930D01*
Y-0001325D01*
X0054575D01*
X0003100Y0008050D02*
Y0009450D01*
X0002400D01*
Y0008050D01*
X0003100D01*
X0024050Y0011700D02*
X0022950D01*
Y0013800D01*
X0024050D01*
Y0011700D01*
X0053075Y-0001325D02*
Y-0000175D01*
X0052430D01*
Y-0001325D01*
X0053075D01*
X0008325Y0013425D02*
Y0014575D01*
X0007680D01*
Y0013425D01*
X0008325D01*
X0013800Y0004650D02*
Y0008300D01*
X0009200D01*
Y0004650D01*
X0009250D01*
X0010300D01*
Y0002900D01*
X0010700D01*
Y0004650D01*
X0012300D01*
Y0002900D01*
X0012700D01*
Y0004650D01*
X0013800D01*
X0071325Y0004425D02*
Y0005575D01*
X0070680D01*
Y0004425D01*
X0071325D01*
X0022925Y0004825D02*
Y0003675D01*
X0023570D01*
Y0004825D01*
X0022925D01*
X0020050Y0004650D02*
Y0008300D01*
X0015450D01*
Y0004650D01*
X0015500D01*
X0016550D01*
Y0002900D01*
X0016950D01*
Y0004650D01*
X0018550D01*
Y0002900D01*
X0018950D01*
Y0004650D01*
X0020050D01*
X0069425Y0005575D02*
Y0004425D01*
X0070070D01*
Y0005575D01*
X0069425D01*
X0001650Y0007950D02*
Y0006550D01*
X0002350D01*
Y0007950D01*
X0001650D01*
X0000175Y0009325D02*
Y0008175D01*
X0000820D01*
Y0009325D01*
X0000175D01*
X0048600Y0002300D02*
Y0003700D01*
X0047900D01*
Y0002300D01*
X0048600D01*
X0048675Y-0000175D02*
Y-0001325D01*
X0049320D01*
Y-0000175D01*
X0048675D01*
X0066325Y0003175D02*
Y0004325D01*
X0065680D01*
Y0003175D01*
X0066325D01*
X0046175Y0003075D02*
Y0001925D01*
X0046820D01*
Y0003075D01*
X0046175D01*
X0029879Y0010378D02*
X0029751D01*
X0029838Y0010476D02*
Y0010342D01*
X0029784Y0010473D02*
Y0010345D01*
X0029882Y0010432D02*
X0029748D01*
X0073579Y0003102D02*
X0073480D01*
X0073421Y0003161D01*
Y0003465D01*
X0074602D01*
Y0002886D02*
Y-0000445D01*
X0073618D01*
X0073421Y-0000248D01*
Y-0000098D01*
X0073618D01*
Y-0000020D01*
X0073421D01*
Y-0000098D01*
X0073303D01*
X0073106D01*
Y-0000020D01*
X0073303D01*
X0073421D01*
Y0000098D01*
X0073618D01*
Y0000177D01*
X0073421D01*
Y0000098D01*
X0073303D01*
X0073106D01*
Y0000177D01*
X0073303D01*
X0073421D01*
Y0000295D01*
X0073618D01*
Y0000374D01*
X0073421D01*
Y0000295D01*
X0073303D01*
X0073106D01*
Y0000374D01*
X0073303D01*
X0073421D01*
Y0000492D01*
X0073618D01*
Y0000571D01*
X0073421D01*
Y0000492D01*
X0073303D01*
X0073106D01*
Y0000571D01*
X0073303D01*
X0073421D01*
Y0000689D01*
X0073618D01*
Y0000768D01*
X0073421D01*
Y0000689D01*
X0073303D01*
X0073106D01*
Y0000768D01*
X0073303D01*
X0073421D01*
Y0000886D01*
Y0000965D01*
X0073303D01*
Y0000886D01*
X0073421D01*
X0073618D01*
Y0000965D01*
X0073421D01*
Y0001083D01*
X0073618D01*
Y0001161D01*
X0073421D01*
Y0001083D01*
X0073303D01*
X0073106D01*
Y0001161D01*
X0073303D01*
X0073421D01*
Y0001279D01*
X0073618D01*
Y0001358D01*
X0073421D01*
Y0001279D01*
X0073303D01*
X0073106D01*
Y0001358D01*
X0073303D01*
X0073421D01*
Y0001476D01*
X0073618D01*
Y0001555D01*
X0073421D01*
Y0001673D01*
X0073618D01*
Y0001752D01*
X0073421D01*
Y0001673D01*
X0073303D01*
X0073106D01*
Y0001752D01*
X0073303D01*
X0073421D01*
Y0001870D01*
Y0001949D01*
X0073303D01*
Y0001870D01*
X0073421D01*
X0073618D01*
Y0001949D01*
X0073421D01*
Y0002067D01*
X0073618D01*
Y0002146D01*
X0073421D01*
Y0002067D01*
X0073303D01*
X0073106D01*
Y0002146D01*
X0073303D01*
X0073421D01*
Y0002264D01*
X0073618D01*
Y0002342D01*
X0073421D01*
Y0002264D01*
X0073303D01*
X0073106D01*
Y0002342D01*
X0073303D01*
X0073421D01*
Y0002460D01*
Y0002539D01*
X0073303D01*
Y0002460D01*
X0073421D01*
X0073618D01*
Y0002539D01*
X0073421D01*
Y0002689D01*
X0073618Y0002886D01*
X0074602D01*
Y0003740D01*
Y0003858D01*
X0075075D01*
X0075114Y0003819D02*
Y-0001378D01*
X0075075Y-0001417D02*
Y0003858D01*
X0074405Y-0000445D02*
Y-0000527D01*
Y-0000957D01*
X0073579D01*
Y-0000602D01*
X0073539D01*
X0073480Y-0000661D01*
X0073421Y-0000720D01*
Y-0001024D01*
X0074602D01*
Y-0000524D02*
X0074445D01*
Y-0000661D01*
X0074405D01*
X0074602Y0002965D02*
X0074445D01*
Y0003102D01*
X0074405D01*
X0073894Y0003181D02*
Y0002968D01*
Y0002886D01*
X0074405D02*
Y0002968D01*
Y0003398D01*
X0073579D01*
Y0003043D01*
Y0002968D01*
X0073775D01*
Y0002886D01*
Y0002968D02*
Y0003043D01*
Y0003181D01*
X0075075Y-0001417D02*
X0074602D01*
Y-0001299D01*
Y-0000445D01*
X0073775D02*
Y-0000527D01*
Y-0000602D01*
Y-0000740D01*
X0073894D02*
Y-0000527D01*
Y-0000445D01*
X0073480Y0003102D02*
X0073539Y0003043D01*
X0073579D01*
X0074445Y-0000602D02*
X0074405D01*
X0073776Y0003043D02*
X0073894D01*
Y0003102D02*
X0073775D01*
X0073894Y-0000661D02*
X0073775D01*
X0073618Y-0000445D02*
X0073579D01*
Y-0000524D01*
Y-0000527D01*
Y-0000602D01*
X0074504Y0003642D02*
X0074012D01*
X0073909D01*
X0073681D01*
X0073579D01*
X0073421D01*
Y0003465D01*
X0074504Y0003642D02*
Y0003464D01*
X0073303Y0001870D02*
X0073106D01*
Y0001949D01*
X0073303D01*
Y0002342D02*
Y0002264D01*
Y0000177D02*
Y0000098D01*
Y0002460D02*
X0073106D01*
Y0002539D01*
X0073303D01*
Y0000886D02*
X0073106D01*
Y0000965D01*
X0073303D01*
Y0001161D02*
Y0001083D01*
X0073894Y-0000602D02*
X0073776D01*
X0074405Y0003043D02*
X0074445D01*
X0073579Y-0000661D02*
X0073480D01*
X0073681Y-0001201D02*
X0073657Y-0001319D01*
X0073579Y-0001311D02*
Y-0001201D01*
X0073681D01*
X0073909D01*
X0074012D01*
X0074504D01*
X0074012D02*
Y-0001311D01*
X0073934Y-0001319D02*
X0073909Y-0001201D01*
X0073934Y0003760D02*
X0073909Y0003642D01*
X0073303Y0000571D02*
Y0000492D01*
Y0000768D02*
Y0000689D01*
X0073500Y0002886D02*
Y0002965D01*
X0073579D01*
Y0002886D01*
X0073500D01*
X0073579Y0002965D02*
Y0002968D01*
X0073618Y0002886D02*
X0073579D01*
X0074405Y0002968D02*
X0073894D01*
X0073681Y0003642D02*
X0073657Y0003760D01*
X0074012Y0003642D02*
Y0003752D01*
X0073579Y0003642D02*
Y0003752D01*
X0073421Y-0001024D02*
Y-0001201D01*
X0073579D01*
X0074504Y-0001024D02*
Y-0001201D01*
X0073303Y0001358D02*
Y0001279D01*
X0073421Y0001555D02*
Y0001476D01*
X0073303D01*
Y0001555D01*
X0073421D01*
X0073303Y0001476D02*
X0073106D01*
Y0001555D01*
X0073303D01*
Y0001752D02*
Y0001673D01*
Y0002146D02*
Y0002067D01*
X0073775Y-0000527D02*
X0073579D01*
Y-0000524D01*
X0073500D01*
Y-0000445D01*
X0073579D01*
X0074405Y-0000527D02*
X0073894D01*
X0073303Y-0000020D02*
Y-0000098D01*
Y0000374D02*
Y0000295D01*
X0073892Y0002888D02*
Y0002971D01*
Y0003046D01*
Y0003184D01*
X0073774D02*
Y0002971D01*
Y0002888D01*
X0073907Y0003647D02*
X0073932Y0003765D01*
X0074010Y0003757D02*
Y0003647D01*
X0073906D01*
X0073566Y0003648D02*
Y0003758D01*
X0073644Y0003766D02*
X0073669Y0003648D01*
X0050175Y-0000175D02*
Y-0001325D01*
X0050820D01*
Y-0000175D01*
X0050175D01*
X0070675Y0008075D02*
Y0006925D01*
X0071320D01*
Y0008075D01*
X0070675D01*
X0063850Y0002300D02*
Y0000700D01*
X0065650D01*
Y0001400D01*
X0065550Y0001500D01*
X0065650Y0001600D01*
Y0002300D01*
X0063850D01*
X0024366Y0016754D02*
X0024524D01*
Y0016427D01*
X0025161D01*
Y0014073D01*
X0021838D01*
Y0016427D01*
X0022476D01*
Y0016754D01*
X0022634D01*
Y0017218D01*
X0024366D01*
Y0016754D01*
Y0016173D01*
X0024047D01*
X0023063D02*
Y0015311D01*
X0023937D01*
Y0016173D01*
X0023063D01*
X0024366D02*
X0024921D01*
Y0015311D01*
X0024047D01*
Y0016281D01*
X0022953D01*
Y0015311D01*
X0022594D01*
Y0015189D01*
X0022953D01*
Y0014327D01*
X0022079D01*
Y0016173D01*
X0022634D01*
Y0016754D01*
X0024609Y0014633D02*
Y0014883D01*
X0024359D01*
Y0014633D01*
X0024609D01*
X0024550Y0014692D01*
Y0014824D01*
X0024418D01*
Y0014692D01*
X0024550D01*
X0024418Y0015808D02*
X0024359Y0015867D01*
X0024609D01*
X0024550Y0015808D01*
X0024418D01*
Y0015676D01*
X0024359Y0015617D01*
X0024609D01*
X0024550Y0015676D01*
X0024418D01*
X0024609Y0015617D02*
Y0015867D01*
Y0014883D02*
X0024550Y0014824D01*
X0024359Y0014883D02*
X0024418Y0014824D01*
X0024359Y0014633D02*
X0024418Y0014692D01*
X0022582D02*
X0022641Y0014633D01*
X0022391D01*
X0022450Y0014692D01*
X0022582D01*
Y0014824D01*
X0022641Y0014883D01*
X0022391D01*
X0022450Y0014824D01*
X0022582D01*
X0022450Y0014692D02*
Y0014824D01*
Y0015808D02*
X0022391Y0015867D01*
X0022641D01*
X0022582Y0015808D01*
X0022450D01*
Y0015676D01*
X0022391Y0015617D01*
X0022641D01*
X0022582Y0015676D01*
X0022450D01*
X0022641Y0014633D02*
Y0014883D01*
Y0015617D02*
Y0015867D01*
X0022582Y0015808D02*
Y0015676D01*
X0022391Y0014633D02*
Y0014883D01*
Y0015617D02*
Y0015867D01*
X0022594Y0015189D02*
X0022358D01*
Y0015311D01*
X0022594D01*
X0022079Y0015189D02*
X0022358D01*
Y0015311D02*
X0022079D01*
X0022953Y0016173D02*
X0022634D01*
X0024524Y0017474D02*
Y0017329D01*
X0022476D01*
Y0017474D01*
X0022555Y0017553D02*
X0024450D01*
X0024524Y0017329D02*
Y0016754D01*
X0022476D02*
Y0017329D01*
X0023625Y0014633D02*
Y0014883D01*
X0023375D01*
X0023434Y0014824D01*
Y0014692D01*
X0023375Y0014633D01*
X0023625D01*
X0023566Y0014692D01*
Y0014824D01*
X0023434D01*
X0023566Y0014692D02*
X0023434D01*
X0023625Y0014883D02*
X0023566Y0014824D01*
X0023434Y0015808D02*
X0023375Y0015867D01*
X0023625D01*
X0023566Y0015808D01*
X0023434D01*
Y0015676D01*
X0023375Y0015617D01*
X0023625D01*
X0023566Y0015676D01*
X0023434D01*
X0023625Y0015617D02*
Y0015867D01*
X0023566Y0015808D02*
Y0015676D01*
X0023375Y0014633D02*
Y0014883D01*
Y0015617D02*
Y0015867D01*
X0024047Y0014327D02*
X0024921D01*
Y0015189D01*
X0024047D01*
Y0014327D01*
X0023063D02*
X0023937D01*
Y0015189D01*
X0023063D01*
Y0014327D01*
X0024550Y0015808D02*
Y0015676D01*
X0024359Y0015617D02*
Y0015867D01*
X0013925Y0015575D02*
Y0014425D01*
X0014570D01*
Y0015575D01*
X0013925D01*
X0003075Y0006675D02*
Y0007825D01*
X0002430D01*
Y0006675D01*
X0003075D01*
X0021675Y0012075D02*
Y0010925D01*
X0022320D01*
Y0012075D01*
X0021675D01*
X0000925Y0009325D02*
Y0008175D01*
X0001570D01*
Y0009325D01*
X0000925D01*
X0047825Y0005425D02*
Y0006575D01*
X0047180D01*
Y0005425D01*
X0047825D01*
X0070425Y0002075D02*
Y0000925D01*
X0071070D01*
Y0002075D01*
X0070425D01*
X0032400Y0011200D02*
Y0012800D01*
X0030600D01*
Y0012100D01*
X0030700Y0012000D01*
X0030600Y0011900D01*
Y0011200D01*
X0032400D01*
X0057250Y0006950D02*
X0057750D01*
X0057850Y0006850D01*
Y0005550D01*
X0057150D01*
Y0006850D01*
X0057250Y0006950D01*
X0057150Y0006350D02*
X0057850D01*
X0050075Y-0001325D02*
Y-0000175D01*
X0049430D01*
Y-0001325D01*
X0050075D01*
X0050925Y-0000175D02*
Y-0001325D01*
X0051570D01*
Y-0000175D01*
X0050925D01*
X0072575Y0006925D02*
Y0008075D01*
X0071930D01*
Y0006925D01*
X0072575D01*
X0067175Y0000075D02*
Y-0001075D01*
X0067820D01*
Y0000075D01*
X0067175D01*
X0063825Y0005675D02*
Y0006825D01*
X0063180D01*
Y0005675D01*
X0063825D01*
X0030425Y0011075D02*
Y0009925D01*
X0031070D01*
Y0011075D01*
X0030425D01*
X0064425Y0006825D02*
Y0005675D01*
X0065070D01*
Y0006825D01*
X0064425D01*
X0045825Y0003675D02*
Y0004825D01*
X0045180D01*
Y0003675D01*
X0045825D01*
X0002837Y0011882D02*
Y0011842D01*
X0001429Y0012512D02*
Y0011488D01*
X0001351Y0011409D02*
X0001035D01*
X0000464D01*
X0001665Y0012331D02*
X0001660Y0011681D01*
X0001744D01*
X0001175Y0011055D02*
Y0011273D01*
X0000325D01*
X-0000244Y0011681D02*
Y0011488D01*
X-0000262Y0011392D02*
X-0000382Y0011071D01*
X-0000087Y0010961D02*
X0000033Y0011281D01*
X0000070Y0011488D02*
Y0012512D01*
X0000033Y0012718D02*
X-0000087Y0013039D01*
X-0000382Y0012929D02*
X-0000262Y0012608D01*
X-0000244Y0012512D02*
Y0012319D01*
X-0000165Y0012331D02*
X-0000290Y0012191D01*
Y0011809D01*
X-0000165Y0011668D01*
X-0001337Y0012118D02*
Y0012157D01*
X0001035Y0011409D02*
Y0011488D01*
Y0012512D01*
Y0012590D01*
X0000325Y0012727D02*
X0000450Y0012852D01*
Y0011148D02*
X0001050D01*
X0001175Y0011273D01*
X0001790Y0012191D02*
Y0011809D01*
X0001680Y0011699D01*
X0001050Y0012852D02*
X0001175Y0012727D01*
X0001050Y0011055D02*
Y0011148D01*
X-0001337Y0011842D02*
Y0011882D01*
X0002837Y0012157D02*
Y0012118D01*
X0000149Y0012590D02*
X0000464D01*
X0001744Y0011681D02*
Y0011488D01*
X0001762Y0011392D02*
X0001882Y0011071D01*
X0001587Y0010961D02*
X0001467Y0011281D01*
X0003112Y0011842D02*
X0002482D01*
Y0012157D01*
X0003112D01*
Y0014165D01*
X-0001612D01*
Y0012157D01*
X-0000982D01*
Y0011842D01*
X-0001612D01*
Y0009835D01*
X0003112D01*
Y0011842D01*
X0002876Y0011882D02*
X0002561D01*
Y0012118D01*
X0002876D01*
Y0011882D01*
X-0001061D02*
X-0001376D01*
Y0012118D01*
X-0001061D01*
Y0011882D01*
X0000450Y0011055D02*
Y0011148D01*
X0000325Y0011273D01*
Y0011055D01*
X-0000244Y0011681D02*
X-0000180Y0011680D01*
X-0000170Y0011690D01*
X-0000165Y0011670D01*
Y0012331D01*
X-0000244Y0012319D01*
X0000325Y0012945D02*
Y0012727D01*
X0001175D01*
Y0012945D01*
X0000450D02*
Y0012852D01*
X0001050D01*
Y0012945D01*
X0001790Y0012191D02*
X0001665Y0012331D01*
X0001744Y0012319D01*
Y0012512D01*
X0001762Y0012608D02*
X0001882Y0012929D01*
X0001587Y0013039D02*
X0001467Y0012718D01*
X0001351Y0012590D02*
X0000464D01*
Y0011409D01*
X0000149D01*
X0057825Y0004175D02*
Y0005325D01*
X0057180D01*
Y0004175D01*
X0057825D01*
X0026697Y0009907D02*
Y0009868D01*
X0026303D01*
Y0009907D01*
X0026697D01*
X0026657Y0009475D02*
X0026697D01*
Y0010025D01*
X0026657D01*
X0026343D02*
X0026303D01*
Y0009475D01*
X0026343D01*
X0064425Y0005575D02*
Y0004425D01*
X0065070D01*
Y0005575D01*
X0064425D01*
X0066575Y0000925D02*
Y0002075D01*
X0065930D01*
Y0000925D01*
X0066575D01*
X0003175Y0009325D02*
Y0008175D01*
X0003820D01*
Y0009325D01*
X0003175D01*
X0071925Y0006825D02*
Y0005675D01*
X0072570D01*
Y0006825D01*
X0071925D01*
X0021450Y0012500D02*
X0020400D01*
Y0010500D01*
X0021600D01*
Y0012500D01*
X0021450D01*
X0063825Y0004425D02*
Y0005575D01*
X0063180D01*
Y0004425D01*
X0063825D01*
X0011950Y0009509D02*
X0011825D01*
X0011950Y0009455D02*
X0011825D01*
X0011950Y0009401D02*
X0011825D01*
X0011950Y0009347D02*
X0011825D01*
X0011950Y0009293D02*
X0011825D01*
X0011950Y0009239D02*
X0011825D01*
X0011950Y0009185D02*
X0011825D01*
X0011950Y0009131D02*
X0011825D01*
X0011950Y0009077D02*
X0011825D01*
X0011950Y0009023D02*
X0011825D01*
X0011950Y0008969D02*
X0011825D01*
X0011950Y0010103D02*
X0011825D01*
X0011950Y0010049D02*
X0011825D01*
X0011950Y0009995D02*
X0011825D01*
X0011950Y0009941D02*
X0011825D01*
X0011950Y0009887D02*
X0011825D01*
X0011950Y0009833D02*
X0011825D01*
X0011950Y0009779D02*
X0011825D01*
X0011950Y0009725D02*
X0011825D01*
X0011950Y0009671D02*
X0011825D01*
X0011950Y0009617D02*
X0011825D01*
X0011950Y0009563D02*
X0011825D01*
X0011950Y0008915D02*
X0011825D01*
X0011950Y0010125D02*
X0011825D01*
Y0008875D01*
X0011950D02*
X0011825D01*
X0011950Y0010125D02*
Y0008875D01*
X0011919Y0010125D02*
Y0008875D01*
X0011865Y0010125D02*
Y0008875D01*
X0012681Y0008988D02*
Y0008870D01*
X0010319D01*
Y0008988D01*
X0012926Y0010081D02*
X0012829D01*
X0012922Y0010111D02*
Y0010069D01*
X0012868Y0010139D02*
Y0010042D01*
X0012898Y0010135D02*
X0012857D01*
X0012681Y0010012D02*
Y0010130D01*
X0010319D01*
Y0010012D01*
X0008400Y0008200D02*
Y0009800D01*
X0006600D01*
Y0009100D01*
X0006700Y0009000D01*
X0006600Y0008900D01*
Y0008200D01*
X0008400D01*
X0027425Y0017075D02*
Y0015925D01*
X0028070D01*
Y0017075D01*
X0027425D01*
X0033825Y0012925D02*
Y0014075D01*
X0033180D01*
Y0012925D01*
X0033825D01*
X0041325Y0001425D02*
Y0002575D01*
X0040680D01*
Y0001425D01*
X0041325D01*
X0063825Y0003175D02*
Y0004325D01*
X0063180D01*
Y0003175D01*
X0063825D01*
X0068350Y0000300D02*
Y-0001300D01*
X0070150D01*
Y-0000600D01*
X0070050Y-0000500D01*
X0070150Y-0000400D01*
Y0000300D01*
X0068350D01*
X0029484Y0011948D02*
Y0011851D01*
X0029430Y0011980D02*
Y0011818D01*
X0029376Y0011970D02*
Y0011829D01*
X0029466Y0011965D02*
X0029369D01*
X0029499Y0011911D02*
X0029337D01*
X0029488Y0011857D02*
X0029347D01*
X0029000Y0011850D02*
X0027800D01*
Y0014050D01*
X0029300D01*
Y0012150D01*
X0029000Y0011850D01*
X0051450Y0000800D02*
X0050550D01*
Y0000200D01*
X0051450D01*
Y0000800D01*
X0071925Y0005575D02*
Y0004425D01*
X0072570D01*
Y0005575D01*
X0071925D01*
X0036550Y0004000D02*
X0037600D01*
Y0006000D01*
X0036400D01*
Y0004000D01*
X0036550D01*
G01X0027966Y0002090D02*
G03X0027838Y0001992I0000000J0000132D01*
G01X0028094D02*
G03X0027966Y0002090I0000128J0000034D01*
G01X0030000Y0002120D02*
G03X0029872Y0001992I0000000J0000128D01*
G01X0030128D02*
G03X0030000Y0002120I0000128J0000000D01*
G01X0032033Y0002090D02*
G03X0031905Y0001992I0000000J0000132D01*
G01X0032161D02*
G03X0032033Y0002090I0000128J0000034D01*
G01X0050750Y0001842D02*
G03X0050908Y0002000I0000000J0000158D01*
G01X0050592D02*
G03X0050750Y0001842I0000158J0000000D01*
Y0002158D02*
G03X0050592Y0002000I0000000J0000158D01*
G01X0050908D02*
G03X0050750Y0002158I0000158J0000000D01*
G01X0027185Y0010270D02*
G03X0027255Y0010340I0000000J0000070D01*
G01X0027114D02*
G03X0027185Y0010269I0000071J0000000D01*
Y0010411D02*
G03X0027114Y0010340I0000000J0000071D01*
G01X0027255D02*
G03X0027185Y0010410I0000070J0000000D01*
G01X0007547Y0015145D02*
G03X0007998Y0015033I0000451J0000854D01*
G01X0007541Y0015134D02*
G03X0007998Y0015021I0000457J0000864D01*
G01X0008967Y0016003D02*
G03X0008856Y0016452I0000963J0000000D01*
G01X0008967Y0016001D02*
G03X0008967Y0016003I0000963J0000002D01*
G01X0008980Y0016001D02*
G03X0008980Y0016003I0000977J0000002D01*
G03X0008868Y0016458I0000977J0000000D01*
G01X0008900Y0015038D02*
G03X0008963Y0015106I0000005J0000068D01*
G01X0008895Y0015017D02*
G03X0008984Y0015106I0000000J0000089D01*
G01X0008895Y0015021D02*
G03X0008980Y0015105I0000000J0000085D01*
G01X0008901Y0015034D02*
G03X0008967Y0015100I0000006J0000072D01*
G01X0008414Y0015180D02*
G03X0008830Y0015605I0000416J0000824D01*
G01X0008401Y0015188D02*
G03X0008818Y0015611I0000404J0000816D01*
G01X0008773Y0016379D02*
G03X0008689Y0016517I0000772J0000376D01*
G01X0008613Y0016491D02*
G03X0008689Y0016517I0000000J0000124D01*
G01X0008489Y0016615D02*
G03X0008613Y0016491I0000124J0000000D01*
G01X0008519Y0016696D02*
G03X0008489Y0016615I0000094J0000081D01*
G01X0008530Y0016688D02*
G03X0008502Y0016615I0000083J0000073D01*
G03X0008613Y0016504I0000111J0000000D01*
G03X0008691Y0016536I0000000J0000111D01*
G01X0008784Y0016386D02*
G03X0008691Y0016536I0000786J0000385D01*
G01X0008528Y0016697D02*
G03X0008384Y0016786I0000526J0000692D01*
G01X0008521Y0016687D02*
G03X0008362Y0016782I0000524J0000689D01*
G01X0008979Y0016557D02*
G03X0008980Y0016584I0000397J0000027D01*
G03X0008582Y0016982I0000398J0000000D01*
G03X0008555Y0016981I0000000J0000398D01*
G01X0008582Y0016969D02*
G03X0008574Y0016969I0000000J0000385D01*
G01X0008967Y0016584D02*
G03X0008582Y0016969I0000385J0000000D01*
G01X0008967Y0016575D02*
G03X0008967Y0016584I0000385J0000009D01*
G01X0008582Y0016976D02*
G03X0008564Y0016975I0000000J0000392D01*
G01X0008974Y0016584D02*
G03X0008582Y0016976I0000392J0000000D01*
G01X0008973Y0016566D02*
G03X0008973Y0016584I0000391J0000018D01*
G01X0007417Y0015027D02*
G03X0007435Y0015028I0000000J0000392D01*
G01X0007026Y0015419D02*
G03X0007417Y0015028I0000391J0000000D01*
G01X0007026Y0015437D02*
G03X0007026Y0015419I0000391J0000018D01*
G01X0007417Y0015034D02*
G03X0007426Y0015034I0000000J0000385D01*
G01X0007032Y0015419D02*
G03X0007417Y0015034I0000385J0000000D01*
G01X0007032Y0015427D02*
G03X0007032Y0015419I0000385J0000008D01*
G01X0007020Y0015447D02*
G03X0007019Y0015419I0000397J0000028D01*
G03X0007417Y0015021I0000398J0000000D01*
G03X0007444Y0015022I0000000J0000398D01*
G01X0007386Y0015512D02*
G03X0007310Y0015486I0000000J0000124D01*
G01X0007386Y0015512D02*
G03X0007305Y0015481I0000000J0000124D01*
G01X0007510Y0015388D02*
G03X0007386Y0015512I0000124J0000000D01*
G01X0007484Y0015312D02*
G03X0007510Y0015388I0000098J0000076D01*
G01X0007484Y0015312D02*
G03X0007637Y0015220I0000516J0000692D01*
G01X0007218Y0015639D02*
G03X0007314Y0015480I0000772J0000357D01*
G01X0007215Y0015616D02*
G03X0007304Y0015472I0000776J0000380D01*
G01X0007465Y0015309D02*
G03X0007614Y0015217I0000534J0000694D01*
G01X0007465Y0015309D02*
G03X0007498Y0015388I0000079J0000079D01*
G01X0007497D02*
G03X0007386Y0015499I0000111J0000000D01*
G03X0007313Y0015471I0000000J0000111D01*
G01X0007138Y0016002D02*
G03X0007310Y0015486I0000861J0000000D01*
G01X0007999Y0016863D02*
G03X0007138Y0016002I0000000J0000861D01*
G01X0008515Y0016691D02*
G03X0007999Y0016863I0000516J0000689D01*
G01X0008515Y0016691D02*
G03X0008489Y0016615I0000098J0000076D01*
G03X0008613Y0016491I0000124J0000000D01*
G03X0008694Y0016521I0000000J0000124D01*
G01X0008613Y0016504D02*
G03X0008686Y0016531I0000000J0000111D01*
G01X0008502Y0016615D02*
G03X0008613Y0016504I0000111J0000000D01*
G01X0008534Y0016693D02*
G03X0008502Y0016615I0000079J0000078D01*
G01X0008534Y0016693D02*
G03X0007999Y0016876I0000535J0000692D01*
G03X0007124Y0016001I0000000J0000875D01*
G01X0007125D02*
G03X0007308Y0015467I0000874J0000000D01*
G01X0007386Y0015499D02*
G03X0007308Y0015467I0000000J0000112D01*
G01X0007497Y0015387D02*
G03X0007386Y0015498I0000111J0000000D01*
G01X0007465Y0015309D02*
G03X0007497Y0015387I0000079J0000078D01*
G01X0007465Y0015309D02*
G03X0007999Y0015127I0000534J0000692D01*
G03X0008873Y0016001I0000000J0000874D01*
G01X0008874D02*
G03X0008695Y0016530I0000875J0000000D01*
G01X0008861Y0016001D02*
G03X0008685Y0016523I0000861J0000000D01*
G01X0008000Y0015140D02*
G03X0008861Y0016001I0000000J0000861D01*
G01X0007484Y0015312D02*
G03X0008000Y0015140I0000516J0000689D01*
G01X0007484Y0015312D02*
G03X0007510Y0015388I0000098J0000076D01*
G01X0024945Y-0001803D02*
G03X0025024Y-0001724I0000000J0000079D01*
G01X0023042Y-0001804D02*
G03X0023055Y-0001803I0000000J0000068D01*
G01X0022974Y-0001736D02*
G03X0023042Y-0001804I0000068J0000000D01*
G01X0022975Y-0001723D02*
G03X0022974Y-0001736I0000067J0000013D01*
G01X0024769Y0007418D02*
G03X0024851Y0007336I0000082J0000000D01*
Y0007500D02*
G03X0024769Y0007418I0000000J0000082D01*
G01X0024933D02*
G03X0024851Y0007500I0000082J0000000D01*
Y0007336D02*
G03X0024933Y0007418I0000000J0000082D01*
G01X0013659Y0012328D02*
G03X0013709Y0012378I0000000J0000050D01*
G01X0013610D02*
G03X0013659Y0012329I0000049J0000000D01*
Y0012427D02*
G03X0013610Y0012378I0000000J0000049D01*
G01X0013709D02*
G03X0013659Y0012428I0000050J0000000D01*
G01X0008659Y0014578D02*
G03X0008709Y0014628I0000000J0000050D01*
G01X0008610D02*
G03X0008659Y0014579I0000049J0000000D01*
Y0014677D02*
G03X0008610Y0014628I0000000J0000049D01*
G01X0008709D02*
G03X0008659Y0014678I0000050J0000000D01*
G01X0036409Y0003578D02*
G03X0036459Y0003628I0000000J0000050D01*
G01X0036360D02*
G03X0036409Y0003579I0000049J0000000D01*
Y0003677D02*
G03X0036360Y0003628I0000000J0000049D01*
G01X0036459D02*
G03X0036409Y0003678I0000050J0000000D01*
G01X0000250Y0002260D02*
G03X0001490Y0003500I0000000J0001240D01*
G01X-0000990D02*
G03X0000250Y0002260I0001240J0000000D01*
Y0004740D02*
G03X-0000990Y0003500I0000000J0001240D01*
G01X0001490D02*
G03X0000250Y0004740I0001240J0000000D01*
G01X-0000351Y0002002D02*
G03X-0000263Y0001914I0000088J0000000D01*
Y0002090D02*
G03X-0000351Y0002002I0000000J0000088D01*
G01X-0000175D02*
G03X-0000263Y0002090I0000088J0000000D01*
Y0001914D02*
G03X-0000175Y0002002I0000000J0000088D01*
G01X0006159Y0014578D02*
G03X0006209Y0014628I0000000J0000050D01*
G01X0006110D02*
G03X0006159Y0014579I0000049J0000000D01*
Y0014677D02*
G03X0006110Y0014628I0000000J0000049D01*
G01X0006209D02*
G03X0006159Y0014678I0000050J0000000D01*
G01X0025640Y0015992D02*
G03X0025620Y0015972I0000000J0000020D01*
Y0015027D02*
G03X0025640Y0015007I0000020J0000000D01*
G01X0026860Y0015008D02*
G03X0026879Y0015027I0000000J0000019D01*
G01X0026880Y0015972D02*
G03X0026860Y0015992I0000020J0000000D01*
G01X0029815Y0010338D02*
G03X0029886Y0010409I0000000J0000071D01*
G01X0029744D02*
G03X0029815Y0010338I0000071J0000000D01*
Y0010480D02*
G03X0029744Y0010409I0000000J0000071D01*
G01X0029886D02*
G03X0029815Y0010480I0000071J0000000D01*
G01X0075114Y0003819D02*
G03X0075075Y0003858I0000039J0000000D01*
Y-0001417D02*
G03X0075114Y-0001378I0000000J0000039D01*
G01X0073775Y-0000740D02*
G03X0073834Y-0000799I0000059J0000000D01*
G03X0073893Y-0000740I0000000J0000059D01*
G01X0074504Y0003642D02*
G03X0074602Y0003740I0000000J0000098D01*
G01X0073618Y-0001350D02*
G03X0073657Y-0001319I0000000J0000039D01*
G01X0073579Y-0001311D02*
G03X0073618Y-0001350I0000039J0000000D01*
G01X0074602Y-0001299D02*
G03X0074504Y-0001201I0000098J0000000D01*
G01X0073972Y-0001350D02*
G03X0074011Y-0001311I0000000J0000039D01*
G01X0073934Y-0001319D02*
G03X0073972Y-0001350I0000038J0000008D01*
G03X0074011Y-0001311I0000000J0000039D01*
G01X0073934Y-0001319D02*
G03X0073972Y-0001350I0000038J0000008D01*
G01X0073892Y0003184D02*
G03X0073833Y0003243I0000059J0000000D01*
G03X0073774Y0003184I0000000J0000059D01*
G01X0073971Y0003796D02*
G03X0073932Y0003765I0000000J0000039D01*
G01X0074010Y0003757D02*
G03X0073971Y0003796I0000039J0000000D01*
G01X0073606Y0003797D02*
G03X0073567Y0003758I0000000J0000039D01*
G01X0073644Y0003766D02*
G03X0073606Y0003797I0000038J0000008D01*
G01X0022555Y0017553D02*
G03X0022476Y0017474I0000000J0000079D01*
G01X0024456Y0017553D02*
G03X0024450Y0017553I0000000J0000074D01*
G01X0024530Y0017479D02*
G03X0024456Y0017553I0000074J0000000D01*
G01X0024530Y0017473D02*
G03X0024530Y0017479I0000074J0000006D01*
G01X0001351Y0011409D02*
G03X0001430Y0011488I0000000J0000079D01*
G01X0001803Y0011684D02*
G03X0001744Y0011681I0000000J0000629D01*
G01X0002432Y0011055D02*
G03X0001803Y0011684I0000629J0000000D01*
Y0010426D02*
G03X0002432Y0011055I0000000J0000629D01*
G01X0001175D02*
G03X0001803Y0010427I0000628J0000000D01*
G01X-0000262Y0011392D02*
G03X-0000245Y0011488I0000258J0000096D01*
G01X-0000382Y0011071D02*
G03X-0000392Y0011016I0000148J0000055D01*
G03X-0000289Y0010868I0000158J0000000D01*
G03X-0000234Y0010858I0000055J0000148D01*
G03X-0000087Y0010961I0000000J0000158D01*
G01X0000033Y0011281D02*
G03X0000070Y0011488I0000553J0000207D01*
Y0012512D02*
G03X0000033Y0012718I0000590J0000000D01*
G01X-0000087Y0013039D02*
G03X-0000234Y0013141I0000147J0000055D01*
Y0013142D02*
G03X-0000392Y0012984I0000000J0000158D01*
G03X-0000382Y0012929I0000158J0000000D01*
G01X-0000244Y0012512D02*
G03X-0000262Y0012608I0000276J0000000D01*
G01X-0000244Y0012319D02*
G03X-0000223Y0012321I0000059J0000626D01*
G03X-0000165Y0012331I0000080J0000624D01*
G01X0000451Y0011017D02*
G03X0000450Y0011050I0000718J0000000D01*
G01X-0000267Y0010299D02*
G03X0000451Y0011017I0000000J0000718D01*
G01X-0000300Y0010300D02*
G03X-0000267Y0010299I0000033J0000717D01*
G01X-0001057Y0011055D02*
G03X-0000303Y0010301I0000754J0000000D01*
Y0011809D02*
G03X-0001057Y0011055I0000000J0000754D01*
G01X-0000290Y0011809D02*
G03X-0000303Y0011809I0000013J0000754D01*
G01X0002557Y0011055D02*
G03X0001803Y0011809I0000754J0000000D01*
Y0010301D02*
G03X0002557Y0011055I0000000J0000754D01*
G01X0001050D02*
G03X0001803Y0010302I0000753J0000000D01*
G01X0000149Y0012590D02*
G03X0000071Y0012512I0000000J0000078D01*
G01X0001744Y0011488D02*
G03X0001762Y0011392I0000276J0000000D01*
G01X0001892Y0011016D02*
G03X0001882Y0011071I0000158J0000000D01*
G01X0001789Y0010868D02*
G03X0001892Y0011016I0000055J0000148D01*
G01X0001734Y0010858D02*
G03X0001789Y0010868I0000000J0000158D01*
G01X0001587Y0010961D02*
G03X0001734Y0010859I0000147J0000055D01*
G01X0001429Y0011488D02*
G03X0001467Y0011281I0000591J0000000D01*
G01X-0000303Y0010426D02*
G03X0000326Y0011055I0000000J0000629D01*
G01X-0000932D02*
G03X-0000303Y0010426I0000629J0000000D01*
Y0011684D02*
G03X-0000932Y0011055I0000000J0000629D01*
G01X-0000244Y0011681D02*
G03X-0000303Y0011684I0000059J0000626D01*
Y0012316D02*
G03X-0000244Y0012319I0000000J0000629D01*
G01X-0000932Y0012945D02*
G03X-0000303Y0012316I0000629J0000000D01*
Y0013574D02*
G03X-0000932Y0012945I0000000J0000629D01*
G01X0000325D02*
G03X-0000303Y0013573I0000628J0000000D01*
G01X0001803Y0013574D02*
G03X0001174Y0012945I0000000J0000629D01*
G01X0002432D02*
G03X0001803Y0013574I0000629J0000000D01*
Y0012316D02*
G03X0002432Y0012945I0000000J0000629D01*
G01X0001744Y0012319D02*
G03X0001803Y0012316I0000059J0000626D01*
G01X0001723Y0012321D02*
G03X0001744Y0012319I0000080J0000624D01*
G01X-0000331Y0012200D02*
G03X-0000300Y0012200I0000000J0000726D01*
G01X-0001057Y0012926D02*
G03X-0000331Y0012200I0000726J0000000D01*
G01X-0001057Y0012945D02*
G03X-0001057Y0012926I0000726J0000019D01*
G01X-0000303Y0013699D02*
G03X-0001057Y0012945I0000000J0000754D01*
G01X0000450D02*
G03X-0000303Y0013698I0000753J0000000D01*
G01X0001803Y0013699D02*
G03X0001049Y0012945I0000000J0000754D01*
G01X0002557D02*
G03X0001803Y0013699I0000754J0000000D01*
Y0012191D02*
G03X0002557Y0012945I0000000J0000754D01*
G01X0001790Y0012191D02*
G03X0001803Y0012191I0000013J0000754D01*
G01X0001762Y0012608D02*
G03X0001745Y0012512I0000258J0000096D01*
G01X0001882Y0012929D02*
G03X0001892Y0012984I0000148J0000055D01*
G03X0001734Y0013142I0000158J0000000D01*
G03X0001587Y0013039I0000000J0000158D01*
G01X0001467Y0012718D02*
G03X0001430Y0012512I0000553J0000206D01*
G01X0001429D02*
G03X0001351Y0012590I0000078J0000000D01*
G01X0012878Y0010041D02*
G03X0012927Y0010090I0000000J0000049D01*
G01X0012828D02*
G03X0012878Y0010040I0000050J0000000D01*
Y0010140D02*
G03X0012828Y0010090I0000000J0000050D01*
G01X0012927D02*
G03X0012878Y0010139I0000049J0000000D01*
G01X0029336Y0011899D02*
G03X0029418Y0011817I0000082J0000000D01*
Y0011981D02*
G03X0029336Y0011899I0000000J0000082D01*
G01X0029500D02*
G03X0029418Y0011981I0000082J0000000D01*
Y0011817D02*
G03X0029500Y0011899I0000000J0000082D01*
G54D97*
G01X0002337Y0002587D02*
X0005663D01*
Y0004762D01*
X0005535Y0004890D01*
X0005663Y0005018D01*
Y0005785D01*
X0005535Y0005913D01*
X0002337D01*
Y0002587D01*
X0002258Y-0001787D02*
X0006116D01*
Y-0000370D01*
X0002258D01*
Y-0001787D01*
X0006116Y-0001394D02*
X0005958D01*
Y-0000528D01*
X0002415D01*
Y-0001394D01*
X0002258D01*
X0005387Y-0001594D02*
Y-0001787D01*
X0005316Y-0001531D02*
Y-0001787D01*
X0005245Y-0001476D02*
Y-0001787D01*
X0005174Y-0001539D02*
Y-0001787D01*
X0005103Y-0001602D02*
Y-0001787D01*
X0005033Y-0001665D02*
Y-0001787D01*
X0004962Y-0001728D02*
Y-0001787D01*
X0005291Y-0001508D02*
X0005209D01*
X0005370Y-0001579D02*
X0005129D01*
X0005450Y-0001650D02*
X0005050D01*
X0005529Y-0001721D02*
X0004970D01*
X0004935Y-0001787D02*
X0004896D01*
X0005604D02*
X0004935D01*
X0005250Y-0001472D02*
X0005604Y-0001787D01*
X0005250Y-0001472D02*
X0004896Y-0001787D01*
X0005528Y-0001720D02*
Y-0001787D01*
X0005457Y-0001657D02*
Y-0001787D01*
X0027850Y0010340D02*
X0029350D01*
Y0009150D01*
X0027640D01*
Y0010130D01*
X0027850Y0010340D01*
X0029150Y0010410D02*
X0027650D01*
Y0011600D01*
X0029360D01*
Y0010620D01*
X0029150Y0010410D01*
M02*
