*
G04 Mass Parameters ***
*
G04 Image ***
*
%IND:\UTENTI\00.LAVORI IN CORSO\METALTRONICA\22-304-1\22-304-1.GND*%
%ICAS*%
%MOIN*%
%IPPOS*%
%ASAXBY*%
G74*%FSLAN2X34Y34*%
*
G04 Aperture Definitions ***
*
%AMTHERMAL76*
1,1,0.1211,0,0,*
1,0,0.0972,0,0,*
21,0,0.1212,0.0100,0,0,225.0*
21,0,0.1212,0.0100,0,0,315.0*%
%AMTHERMAL85*
1,1,0.1172,0,0,*
1,0,0.0933,0,0,*
21,0,0.1173,0.0100,0,0,45.0*
21,0,0.1173,0.0100,0,0,135.0*%
%AMTHERMAL88*
1,1,0.1172,0,0,*
1,0,0.0933,0,0,*
21,0,0.1173,0.0100,0,0,135.0*
21,0,0.1173,0.0100,0,0,225.0*%
%ADD10C,0.1260*%
%ADD11C,0.0394*%
%ADD12R,0.0380X0.0320*%
%ADD13R,0.1024X0.0510*%
%ADD14R,0.0380X0.0320*%
%ADD15R,0.0905X0.0886*%
%ADD16R,0.0501X0.0404*%
%ADD17R,0.0630X0.1260*%
%ADD18R,0.0710X0.0400*%
%ADD19R,0.0886X0.0905*%
%ADD20R,0.0197X0.0315*%
%ADD21R,0.0400X0.0500*%
%ADD22R,0.0550X0.0350*%
%ADD23R,0.1500X0.1670*%
%ADD24C,0.1000*%
%ADD25C,0.0787*%
%ADD26C,0.0512*%
%ADD27R,0.0669X0.0669*%
%ADD28R,0.0787X0.0787*%
%ADD29C,0.0590*%
%ADD30R,0.0590X0.0590*%
%ADD31C,0.0866*%
%ADD32C,0.0669*%
%ADD33R,0.0472X0.0118*%
%ADD34R,0.1181X0.1063*%
%ADD35R,0.0413X0.0236*%
%ADD36C,0.0187*%
%ADD37R,0.0500X0.0400*%
%ADD38R,0.0512X0.0354*%
%ADD39O,0.0650X0.0256*%
%ADD40O,0.0256X0.0650*%
%ADD41R,0.0820X0.1500*%
%ADD42R,0.4500X0.3500*%
%ADD43R,0.1701X0.1181*%
%ADD44R,0.0177X0.0649*%
%ADD45C,0.0800*%
%ADD46R,0.1000X0.0600*%
%ADD47R,0.2760X0.2760*%
%ADD48R,0.1500X0.0820*%
%ADD49R,0.3500X0.4500*%
%ADD50O,0.0700X0.0110*%
%ADD51R,0.0700X0.0110*%
%ADD52O,0.0110X0.0700*%
%ADD53R,0.0110X0.0700*%
%ADD54R,0.0250X0.0350*%
%ADD55R,0.0350X0.0250*%
%ADD56R,0.0197X0.0394*%
%ADD57C,0.0276*%
%ADD58C,0.0250*%
%ADD59C,0.0050*%
%ADD60C,0.0100*%
%ADD61C,0.0600*%
%ADD62C,0.0080*%
%ADD63C,0.0170*%
%ADD64C,0.0276*%
%ADD65C,0.0110*%
%ADD66C,0.0500*%
%ADD67C,0.0118*%
%ADD68C,0.0150*%
%ADD69C,0.0276*%
%ADD70C,0.0060*%
%ADD71C,0.0276*%
%ADD72C,0.1575*%
%ADD73C,0.1181*%
%ADD74C,0.1027*%
%ADD75R,0.1027X0.1027*%
%ADD76THERMAL76*%
%ADD77C,0.0787*%
%ADD78R,0.1027X0.1027*%
%ADD79C,0.1027*%
%ADD80C,0.0708*%
%ADD81R,0.0708X0.0708*%
%ADD82C,0.1024*%
%ADD83R,0.0827X0.0827*%
%ADD84C,0.0866*%
%ADD85THERMAL85*%
%ADD86R,0.0984X0.0984*%
%ADD87C,0.1100*%
%ADD88THERMAL88*%
%ADD89C,0.1100*%
%ADD90C,0.0050*%
%ADD91C,0.0394*%
%ADD92C,0.0394*%
%ADD93C,0.0050*%
%ADD94C,0.0394*%
%ADD95C,0.0050*%
*
G04 Plot Data ***
*
G54D76*
X0025476Y0000992D03*
Y0000008D03*
G54D85*
X0030000Y-0000250D03*
G54D88*
X0011250Y0015000D03*
G54D60*
G01X0010783Y-0000492D02*
Y0000008D01*
X0010742Y-0000492D02*
X0010992D01*
X0011075Y-0000325D01*
Y-0000158D01*
X0010992Y0000008D01*
X0010742D01*
X0010500D02*
Y-0000492D01*
X0010417Y-0000408D01*
X0010250Y-0000075D01*
X0010167Y0000008D01*
Y-0000492D01*
X0009758Y-0000242D02*
X0009925D01*
Y-0000408D01*
X0009883Y-0000492D01*
X0009633D01*
X0009592Y-0000408D01*
Y-0000075D01*
X0009633Y0000008D01*
X0009883D01*
X0009925Y-0000075D01*
G54D66*
G01X0076772Y0008661D02*
X0040157D01*
X0031102Y0017716D01*
X-0001968D01*
Y-0001968D01*
X0076772D01*
Y0008661D01*
G54D25*
X0023992Y0016270D03*
G54D72*
X0034646Y0000000D03*
X0029921Y0015748D03*
X0000000Y0000000D03*
Y0015748D03*
X0074803Y0006693D03*
G54D73*
X-0000234Y0011016D03*
X0001734D03*
X0002718Y0012000D03*
X0001734Y0012984D03*
X-0000234D03*
X0000750Y0012000D03*
G54D74*
X0031000Y-0000250D03*
Y0000750D03*
X0030000D03*
X0029000D03*
X0024492Y0000008D03*
X0023508D03*
X0022516Y0014758D03*
X0023500D03*
X0024484D03*
X0022516Y0015742D03*
X0023500D03*
G54D75*
X0024484D03*
G54D77*
X0004000Y0016277D03*
X0024000Y-0000520D03*
G54D78*
X0022524Y0000008D03*
G54D79*
X0024492Y0000992D03*
X0023508D03*
X0022524D03*
G54D80*
X0004463Y-0001000D03*
X0003675D03*
X0002888D03*
G54D81*
X0005250D03*
G54D82*
X0002653Y0015750D03*
X0005346D03*
G54D83*
X0004492D03*
G54D84*
X0003508D03*
G54D86*
X0029000Y-0000250D03*
G54D87*
X0011250Y0014000D03*
G54D89*
Y0016000D03*
G54D90*
X0001650Y0008120D03*
X0063700Y0001220D03*
X0044750Y0006250D03*
Y0005500D03*
Y0004750D03*
Y0004000D03*
Y0003250D03*
X0044000D03*
X0043250D03*
X0042500D03*
X0041750D03*
X0043250Y0005500D03*
Y0004750D03*
X0042500D03*
Y0005500D03*
X0041750D03*
Y0004750D03*
Y0004000D03*
X0042500D03*
X0043250D03*
X0044000D03*
Y0004750D03*
Y0005500D03*
Y0006250D03*
X0043250D03*
X0042500D03*
X0041750D03*
X0015000Y0013750D03*
Y0014500D03*
Y0015250D03*
Y0016000D03*
Y0016750D03*
X0020250Y0013750D03*
X0019500D03*
X0018750D03*
X0018000D03*
X0017250D03*
X0016500D03*
X0015750D03*
X0020250Y0014500D03*
X0019500D03*
X0018750D03*
X0018000D03*
X0017250D03*
X0016500D03*
X0015750D03*
X0020250Y0015250D03*
X0019500D03*
X0018750D03*
X0018000D03*
X0017250D03*
X0016500D03*
X0015750D03*
X0020250Y0016000D03*
X0019500D03*
X0018750D03*
X0018000D03*
X0017250D03*
X0016500D03*
X0015750D03*
X0020250Y0016750D03*
X0019500D03*
X0018750D03*
X0018000D03*
X0017250D03*
X0016500D03*
X0015750D03*
X0028500Y0002800D03*
Y0003500D03*
Y0004250D03*
Y0005000D03*
Y0005750D03*
Y0006500D03*
X0033000Y0002800D03*
Y0003500D03*
Y0004250D03*
Y0005000D03*
Y0005750D03*
Y0006500D03*
X0032250D03*
X0031500D03*
X0030750D03*
X0030000D03*
X0029250D03*
Y0005750D03*
X0030000D03*
X0030750D03*
X0031500D03*
X0032250D03*
Y0005000D03*
X0031500D03*
X0030750D03*
X0030000D03*
X0029250D03*
Y0004250D03*
X0030000D03*
X0030750D03*
X0031500D03*
X0032250D03*
X0031550Y0003500D03*
X0030750D03*
X0030000D03*
X0032250D03*
Y0002800D03*
X0031550D03*
X0030750D03*
X0029300Y0003500D03*
X0030000Y0002800D03*
X0029300D03*
X0020250Y0004000D03*
Y0004750D03*
Y0005500D03*
Y0006250D03*
Y0007000D03*
Y0007750D03*
Y0008500D03*
X0019500D03*
X0018750D03*
X0018000D03*
X0017250D03*
X0016500D03*
X0015750D03*
X0016500Y0004000D03*
X0017250D03*
X0018000D03*
X0018750D03*
X0019500D03*
Y0004750D03*
X0018750D03*
X0018000D03*
X0017250D03*
X0016500D03*
X0015750Y0004000D03*
Y0004750D03*
Y0005500D03*
X0016500D03*
X0017250D03*
X0018000D03*
X0018750D03*
X0019500D03*
Y0006250D03*
X0018750D03*
X0018000D03*
X0017250D03*
X0016500D03*
X0015750D03*
Y0007000D03*
X0016500D03*
X0017250D03*
X0018000D03*
X0018750D03*
X0019500D03*
Y0007750D03*
X0018750D03*
X0018000D03*
X0017250D03*
X0016500D03*
X0015750D03*
X0010250Y0004750D03*
X0011000D03*
X0011750D03*
X0012500D03*
X0013250D03*
Y0004000D03*
X0012500D03*
X0011750D03*
X0011000D03*
X0010250D03*
X0009500D03*
Y0004750D03*
X0013250Y0008500D03*
X0012500D03*
X0011750D03*
X0011000D03*
X0010250D03*
X0009500D03*
X0010250Y0005500D03*
X0011000D03*
X0011750D03*
X0012500D03*
X0013250D03*
Y0006250D03*
X0012500D03*
X0011750D03*
X0011000D03*
X0010250D03*
X0009500Y0005500D03*
Y0006250D03*
Y0007000D03*
X0010250D03*
X0011000D03*
X0011750D03*
X0012500D03*
X0013250D03*
Y0007750D03*
X0012500D03*
X0011750D03*
X0011000D03*
X0010250D03*
X0009500D03*
G54D91*
X0001300Y0003150D03*
Y0003850D03*
Y0004650D03*
Y0005400D03*
X0001950D03*
Y0003850D03*
Y0004650D03*
X0002600Y0003850D03*
Y0004650D03*
X0005250D03*
X0005850D03*
Y0003850D03*
X0005250D03*
X0004650D03*
X0003950D03*
X0003300D03*
Y0004650D03*
X0003950D03*
X0004650D03*
G54D92*
X0005750Y0003049D03*
X0008850Y0011150D03*
X0028800Y0011250D03*
X0001984Y0002516D03*
X0030400Y0012850D03*
X0025050Y0006280D03*
X0030750Y0011250D03*
X0024550D03*
X0072650Y0000150D03*
X0066950Y0001850D03*
X0067050Y-0000200D03*
X0029250Y0010000D03*
X0047100Y-0001200D03*
X0047500Y-0001250D03*
X0000900Y0004500D03*
X0057000Y-0000150D03*
X0038750Y-0000200D03*
X0003200Y0002200D03*
X0046500Y0003250D03*
X0070300Y0001800D03*
X0071150Y0000150D03*
X0048960Y0002980D03*
Y0007240D03*
X0045500Y0003500D03*
X0041000Y0002750D03*
X0062100Y0003150D03*
Y0001800D03*
X0065800Y-0000200D03*
Y0001150D03*
X0055500Y0002700D03*
X0055000Y-0000500D03*
X0053561Y0000900D03*
X0008300Y0001750D03*
X0049250Y0002550D03*
X0049600Y0007400D03*
X0061800Y0003420D03*
Y0000050D03*
X0040000Y0003400D03*
X0019500Y0011000D03*
X0022000Y0010650D03*
X0024950Y0013220D03*
X0059900Y0007100D03*
X0053500Y0007200D03*
X0002250Y0003049D03*
X0049560Y0003500D03*
X0049450Y0000000D03*
X0057650Y0007150D03*
X0052750Y0007050D03*
X0047050Y0006300D03*
X0047700Y-0000700D03*
X0061500Y0004050D03*
X0061450Y0000300D03*
X0063000Y0002500D03*
Y0005000D03*
X0052900Y0002250D03*
X0051450Y0006700D03*
X0005750Y0013050D03*
X0025050Y0006970D03*
X0005000Y0009450D03*
X0065500Y0000600D03*
Y0003750D03*
X0054250Y0001500D03*
X0008000Y0002050D03*
Y0006450D03*
X0004900Y0006500D03*
X0063950Y0004700D03*
X0063400Y0002200D03*
X0053364Y0002150D03*
X0007600Y0002100D03*
X0007700Y0005700D03*
X0002550Y0006350D03*
X0050000Y0007400D03*
X0052400Y0007450D03*
X0054000Y0002200D03*
X0002000Y0001500D03*
X0054100Y0002674D03*
X0005800Y0002350D03*
X0059000Y0007150D03*
X0052800Y0007500D03*
X0054735Y0002000D03*
X0008600Y0002350D03*
Y0006150D03*
X0004450Y0006250D03*
X0062500Y0004000D03*
Y-0000250D03*
X0046900Y-0000650D03*
X0051000Y0003250D03*
X0050200Y0000300D03*
X0052450Y0006750D03*
X0057000Y0006200D03*
G54D93*
X0056500Y0002750D03*
G54D94*
X0046500Y0001750D03*
X0047200Y0001800D03*
X0048250Y0002100D03*
X0054100Y0003068D03*
X0053758Y0006600D03*
X0048700Y0006280D03*
X0054250Y-0001500D03*
X0056000Y0001750D03*
X0008000Y0013250D03*
X0073750Y0000531D03*
X0050850Y0003856D03*
X0050715Y0006300D03*
X0003350Y0009450D03*
X0003200Y0006350D03*
X0006750Y0013000D03*
X0003250Y0000850D03*
X0005000Y0000900D03*
X0034000Y0006750D03*
Y0008350D03*
X0022800Y0004550D03*
X0025700D03*
X0004800Y0002200D03*
X0007000Y0003050D03*
G54D95*
X0022650Y0007750D03*
X0021300Y0001480D03*
X0018750Y-0001150D03*
X0013500Y-0001000D03*
X0012500Y-0000150D03*
X0046650Y0003590D03*
X0045500Y0005000D03*
X0046700Y0003970D03*
X0048250Y0004000D03*
X0050900Y0004250D03*
X0026200Y0017030D03*
X0026500Y0014250D03*
X0027300Y0016220D03*
Y0015530D03*
X0008000Y0011000D03*
X0071450Y0007220D03*
X0070550Y0006530D03*
X0071700Y0004050D03*
X0073750Y0002500D03*
X0068950Y0006530D03*
Y0007220D03*
X0062500Y0007150D03*
X0064000Y0007500D03*
X0063950Y0006530D03*
X0065250Y0004120D03*
X0066450Y0007220D03*
X0065550Y0006530D03*
X0061500Y0007150D03*
X0041450Y0001720D03*
X0040000Y0002100D03*
X0037000Y0002000D03*
X0010535Y0010200D03*
X0011250Y0010350D03*
X0012250Y0010800D03*
X0051050Y0006700D03*
X0051500Y0007100D03*
X0014500Y0009150D03*
X0021000Y0012650D03*
X0022000Y0012250D03*
X0025750Y0013500D03*
X0032750Y0011250D03*
X0033500Y0011200D03*
X0033950Y0011970D03*
X0025750Y0013000D03*
X0026950Y0011970D03*
X0032800Y0012950D03*
X0031450Y0012400D03*
X0008000Y0012050D03*
X0060500Y0007150D03*
X0046900Y0003130D03*
X0048250Y0001600D03*
X0055500Y-0001500D03*
X0053500D03*
X0052000Y0000600D03*
X0059500Y0007300D03*
X0058500Y0007150D03*
X0023750Y0003750D03*
X0056050Y0006200D03*
X0002200Y0008080D03*
X0004250Y0008000D03*
X0003850Y0007880D03*
X0008450Y0009400D03*
X0005000Y0008000D03*
X0006000Y0007950D03*
X0068800Y-0001400D03*
X0067500Y-0001250D03*
X0063700Y-0000530D03*
X0070180Y0004550D03*
X0067750Y0004120D03*
X0069300Y0001100D03*
X0067950Y0001220D03*
X0054950Y0007400D03*
X0054290Y0006350D03*
X0038000Y0004250D03*
X0037000Y0004850D03*
X0009250Y0013000D03*
M02*
