*
G04 Mass Parameters ***
*
G04 Image ***
*
%IND:\UTENTI\00.LAVORI IN CORSO\METALTRONICA\22-304-1\22-304-1.DRD*%
%ICAS*%
%MOIN*%
%IPPOS*%
%ASAXBY*%
G74*%FSLAN2X34Y34*%
*
G04 Aperture Definitions ***
*
%AMTHERMAL76*
1,1,0.1211,0,0,*
1,0,0.0972,0,0,*
21,0,0.1212,0.0100,0,0,225.0*
21,0,0.1212,0.0100,0,0,315.0*%
%AMTHERMAL85*
1,1,0.1172,0,0,*
1,0,0.0933,0,0,*
21,0,0.1173,0.0100,0,0,45.0*
21,0,0.1173,0.0100,0,0,135.0*%
%AMTHERMAL88*
1,1,0.1172,0,0,*
1,0,0.0933,0,0,*
21,0,0.1173,0.0100,0,0,135.0*
21,0,0.1173,0.0100,0,0,225.0*%
%ADD10C,0.1260*%
%ADD11C,0.0394*%
%ADD12R,0.0380X0.0320*%
%ADD13R,0.1024X0.0510*%
%ADD14R,0.0380X0.0320*%
%ADD15R,0.0905X0.0886*%
%ADD16R,0.0501X0.0404*%
%ADD17R,0.0630X0.1260*%
%ADD18R,0.0710X0.0400*%
%ADD19R,0.0886X0.0905*%
%ADD20R,0.0197X0.0315*%
%ADD21R,0.0400X0.0500*%
%ADD22R,0.0550X0.0350*%
%ADD23R,0.1500X0.1670*%
%ADD24C,0.1000*%
%ADD25C,0.0787*%
%ADD26C,0.0512*%
%ADD27R,0.0669X0.0669*%
%ADD28R,0.0787X0.0787*%
%ADD29C,0.0590*%
%ADD30R,0.0590X0.0590*%
%ADD31C,0.0866*%
%ADD32C,0.0669*%
%ADD33R,0.0472X0.0118*%
%ADD34R,0.1181X0.1063*%
%ADD35R,0.0413X0.0236*%
%ADD36C,0.0187*%
%ADD37R,0.0500X0.0400*%
%ADD38R,0.0512X0.0354*%
%ADD39O,0.0650X0.0256*%
%ADD40O,0.0256X0.0650*%
%ADD41R,0.0820X0.1500*%
%ADD42R,0.4500X0.3500*%
%ADD43R,0.1701X0.1181*%
%ADD44R,0.0177X0.0649*%
%ADD45C,0.0800*%
%ADD46R,0.1000X0.0600*%
%ADD47R,0.2760X0.2760*%
%ADD48R,0.1500X0.0820*%
%ADD49R,0.3500X0.4500*%
%ADD50O,0.0700X0.0110*%
%ADD51R,0.0700X0.0110*%
%ADD52O,0.0110X0.0700*%
%ADD53R,0.0110X0.0700*%
%ADD54R,0.0250X0.0350*%
%ADD55R,0.0350X0.0250*%
%ADD56R,0.0197X0.0394*%
%ADD57C,0.0276*%
%ADD58C,0.0250*%
%ADD59C,0.0050*%
%ADD60C,0.0100*%
%ADD61C,0.0600*%
%ADD62C,0.0080*%
%ADD63C,0.0170*%
%ADD64C,0.0276*%
%ADD65C,0.0110*%
%ADD66C,0.0500*%
%ADD67C,0.0118*%
%ADD68C,0.0150*%
%ADD69C,0.0276*%
%ADD70C,0.0060*%
%ADD71C,0.0276*%
%ADD72C,0.1575*%
%ADD73C,0.1181*%
%ADD74C,0.1027*%
%ADD75R,0.1027X0.1027*%
%ADD76THERMAL76*%
%ADD77C,0.0787*%
%ADD78R,0.1027X0.1027*%
%ADD79C,0.1027*%
%ADD80C,0.0708*%
%ADD81R,0.0708X0.0708*%
%ADD82C,0.1024*%
%ADD83R,0.0827X0.0827*%
%ADD84C,0.0866*%
%ADD85THERMAL85*%
%ADD86R,0.0984X0.0984*%
%ADD87C,0.1100*%
%ADD88THERMAL88*%
%ADD89C,0.1100*%
%ADD90C,0.0050*%
%ADD91C,0.0394*%
%ADD92C,0.0394*%
%ADD93C,0.0050*%
%ADD94C,0.0394*%
%ADD95C,0.0050*%
%ADD96C,0.0590*%
%ADD97C,0.0079*%
*
G04 Plot Data ***
*
G54D60*
G01X0022658Y-0019500D02*
X0021992D01*
X0022325Y-0018833D01*
X0022492D01*
Y-0019833D01*
X0021042Y-0019667D02*
X0021125Y-0019833D01*
X0021625D01*
X0021708Y-0019667D01*
Y-0019333D01*
X0021542Y-0019167D01*
X0021042D01*
Y-0018833D01*
X0021708D01*
X0020758Y-0019500D02*
X0020092D01*
X0020425Y-0018833D01*
X0020592D01*
Y-0019833D01*
X0010262D02*
X0009679D01*
Y-0018833D01*
X0009396Y-0019500D02*
X0008729D01*
X0009396Y-0019833D02*
Y-0019333D01*
X0009146Y-0018833D01*
X0008979D01*
X0008729Y-0019333D01*
Y-0019833D01*
X0008112D02*
Y-0018833D01*
X0008446D02*
X0007779D01*
X0006912Y-0019833D02*
X0006829Y-0019667D01*
Y-0019000D01*
X0006912Y-0018833D01*
X0007412D01*
X0007496Y-0019000D01*
Y-0019667D01*
X0007412Y-0019833D01*
X0006912D01*
X0006212D02*
Y-0018833D01*
X0006546D02*
X0005879D01*
X0030514Y-0017972D02*
Y-0017306D01*
X0030458Y-0017972D02*
X0030791D01*
X0030903Y-0017750D01*
Y-0017528D01*
X0030791Y-0017306D01*
X0030458D01*
X0030091Y-0017639D02*
X0029758D01*
X0030203Y-0017972D02*
X0029758D01*
Y-0017306D01*
X0030203D01*
X0029280Y-0017972D02*
Y-0017306D01*
X0029503D02*
X0029058D01*
X0028803Y-0017750D02*
X0028358D01*
X0028803Y-0017972D02*
Y-0017639D01*
X0028636Y-0017306D01*
X0028525D01*
X0028358Y-0017639D01*
Y-0017972D01*
X0028103D02*
X0027714D01*
Y-0017306D01*
X0027014Y-0017639D02*
X0027347D01*
X0027458Y-0017528D01*
Y-0017417D01*
X0027347Y-0017306D01*
X0027014D01*
Y-0017972D01*
X0026758Y-0017639D02*
X0026314D01*
X0026058Y-0017306D02*
Y-0017972D01*
X0025947Y-0017861D01*
X0025725Y-0017417D01*
X0025614Y-0017306D01*
Y-0017972D01*
X0024969D02*
X0024914Y-0017861D01*
Y-0017417D01*
X0024969Y-0017306D01*
X0025303D01*
X0025358Y-0017417D01*
Y-0017861D01*
X0025303Y-0017972D01*
X0024969D01*
X0024658Y-0017306D02*
Y-0017972D01*
X0024547Y-0017861D01*
X0024325Y-0017417D01*
X0024214Y-0017306D01*
Y-0017972D01*
X0022214Y-0017861D02*
X0022269Y-0017972D01*
X0022603D01*
X0022658Y-0017861D01*
Y-0017639D01*
X0022547Y-0017528D01*
X0022214D01*
Y-0017306D01*
X0022658D01*
X0008819Y-0017972D02*
Y-0017639D01*
X0009042Y-0017972D02*
Y-0017639D01*
X0008986Y-0017528D01*
X0008875D01*
X0008819Y-0017639D01*
X0008764Y-0017528D01*
X0008653D01*
X0008597Y-0017639D01*
Y-0017972D01*
X0008119D02*
Y-0017639D01*
X0008342Y-0017972D02*
Y-0017639D01*
X0008286Y-0017528D01*
X0008175D01*
X0008119Y-0017639D01*
X0008064Y-0017528D01*
X0007953D01*
X0007897Y-0017639D01*
Y-0017972D01*
X0006414D02*
X0006303Y-0017861D01*
X0006247Y-0017750D01*
Y-0017528D01*
X0006303Y-0017417D01*
X0006414Y-0017306D01*
X0006525D01*
X0006636Y-0017417D01*
X0006692Y-0017528D01*
Y-0017750D01*
X0006636Y-0017861D01*
X0006525Y-0017972D01*
X0006414D01*
X0005714D02*
X0005603Y-0017861D01*
X0005547Y-0017750D01*
Y-0017528D01*
X0005603Y-0017417D01*
X0005714Y-0017306D01*
X0005825D01*
X0005936Y-0017417D01*
X0005992Y-0017528D01*
Y-0017750D01*
X0005936Y-0017861D01*
X0005825Y-0017972D01*
X0005714D01*
X0005292D02*
X0004847D01*
X0005292Y-0017528D01*
Y-0017417D01*
X0005236Y-0017306D01*
X0004903D01*
X0004847Y-0017417D01*
X0004481Y-0017972D02*
X0004592D01*
Y-0017861D01*
X0004481D01*
Y-0017972D01*
X0003669Y-0017861D02*
X0003781Y-0017972D01*
X0004003D01*
X0004114Y-0017861D01*
Y-0017750D01*
X0003892Y-0017528D01*
X0004114Y-0017306D01*
X0003669D01*
X0022658Y-0016472D02*
X0022214D01*
X0022658Y-0016028D01*
Y-0015917D01*
X0022603Y-0015806D01*
X0022269D01*
X0022214Y-0015917D01*
X0008819Y-0016472D02*
Y-0016139D01*
X0009042Y-0016472D02*
Y-0016139D01*
X0008986Y-0016028D01*
X0008875D01*
X0008819Y-0016139D01*
X0008764Y-0016028D01*
X0008653D01*
X0008597Y-0016139D01*
Y-0016472D01*
X0008119D02*
Y-0016139D01*
X0008342Y-0016472D02*
Y-0016139D01*
X0008286Y-0016028D01*
X0008175D01*
X0008119Y-0016139D01*
X0008064Y-0016028D01*
X0007953D01*
X0007897Y-0016139D01*
Y-0016472D01*
X0006414D02*
X0006303Y-0016361D01*
X0006247Y-0016250D01*
Y-0016028D01*
X0006303Y-0015917D01*
X0006414Y-0015806D01*
X0006525D01*
X0006636Y-0015917D01*
X0006692Y-0016028D01*
Y-0016250D01*
X0006636Y-0016361D01*
X0006525Y-0016472D01*
X0006414D01*
X0005714D02*
X0005603Y-0016361D01*
X0005547Y-0016250D01*
Y-0016028D01*
X0005603Y-0015917D01*
X0005714Y-0015806D01*
X0005825D01*
X0005936Y-0015917D01*
X0005992Y-0016028D01*
Y-0016250D01*
X0005936Y-0016361D01*
X0005825Y-0016472D01*
X0005714D01*
X0004903Y-0016139D02*
X0005236D01*
X0005292Y-0016250D01*
Y-0016361D01*
X0005236Y-0016472D01*
X0004903D01*
X0004847Y-0016361D01*
Y-0016250D01*
X0005069Y-0015806D01*
X0004481Y-0016472D02*
X0004592D01*
Y-0016361D01*
X0004481D01*
Y-0016472D01*
X0004114D02*
X0003892D01*
X0004003D02*
Y-0015806D01*
X0003892Y-0015917D01*
X0030514Y-0014972D02*
Y-0014306D01*
X0030458Y-0014972D02*
X0030791D01*
X0030903Y-0014750D01*
Y-0014528D01*
X0030791Y-0014306D01*
X0030458D01*
X0030091Y-0014639D02*
X0029758D01*
X0030203Y-0014972D02*
X0029758D01*
Y-0014306D01*
X0030203D01*
X0029280Y-0014972D02*
Y-0014306D01*
X0029503D02*
X0029058D01*
X0028803Y-0014750D02*
X0028358D01*
X0028803Y-0014972D02*
Y-0014639D01*
X0028636Y-0014306D01*
X0028525D01*
X0028358Y-0014639D01*
Y-0014972D01*
X0028103D02*
X0027714D01*
Y-0014306D01*
X0027014Y-0014639D02*
X0027347D01*
X0027458Y-0014528D01*
Y-0014417D01*
X0027347Y-0014306D01*
X0027014D01*
Y-0014972D01*
X0026758Y-0014639D02*
X0026314D01*
X0026058Y-0014306D02*
Y-0014972D01*
X0025947Y-0014861D01*
X0025725Y-0014417D01*
X0025614Y-0014306D01*
Y-0014972D01*
X0024969D02*
X0024914Y-0014861D01*
Y-0014417D01*
X0024969Y-0014306D01*
X0025303D01*
X0025358Y-0014417D01*
Y-0014861D01*
X0025303Y-0014972D01*
X0024969D01*
X0024658Y-0014306D02*
Y-0014972D01*
X0024547Y-0014861D01*
X0024325Y-0014417D01*
X0024214Y-0014306D01*
Y-0014972D01*
X0022214Y-0014861D02*
X0022325Y-0014972D01*
X0022547D01*
X0022658Y-0014861D01*
Y-0014750D01*
X0022436Y-0014528D01*
X0022658Y-0014306D01*
X0022214D01*
X0008819Y-0014972D02*
Y-0014639D01*
X0009042Y-0014972D02*
Y-0014639D01*
X0008986Y-0014528D01*
X0008875D01*
X0008819Y-0014639D01*
X0008764Y-0014528D01*
X0008653D01*
X0008597Y-0014639D01*
Y-0014972D01*
X0008119D02*
Y-0014639D01*
X0008342Y-0014972D02*
Y-0014639D01*
X0008286Y-0014528D01*
X0008175D01*
X0008119Y-0014639D01*
X0008064Y-0014528D01*
X0007953D01*
X0007897Y-0014639D01*
Y-0014972D01*
X0006414D02*
X0006303Y-0014861D01*
X0006247Y-0014750D01*
Y-0014528D01*
X0006303Y-0014417D01*
X0006414Y-0014306D01*
X0006525D01*
X0006636Y-0014417D01*
X0006692Y-0014528D01*
Y-0014750D01*
X0006636Y-0014861D01*
X0006525Y-0014972D01*
X0006414D01*
X0005714D02*
X0005603Y-0014861D01*
X0005547Y-0014750D01*
Y-0014528D01*
X0005603Y-0014417D01*
X0005714Y-0014306D01*
X0005825D01*
X0005936Y-0014417D01*
X0005992Y-0014528D01*
Y-0014750D01*
X0005936Y-0014861D01*
X0005825Y-0014972D01*
X0005714D01*
X0004847Y-0014861D02*
X0004958Y-0014972D01*
X0005180D01*
X0005292Y-0014861D01*
Y-0014750D01*
X0005069Y-0014528D01*
X0005292Y-0014306D01*
X0004847D01*
X0004481Y-0014972D02*
X0004592D01*
Y-0014861D01*
X0004481D01*
Y-0014972D01*
X0004114D02*
X0003892D01*
X0004003D02*
Y-0014306D01*
X0003892Y-0014417D01*
X0022658Y-0013472D02*
X0022214D01*
X0022658Y-0013028D01*
Y-0012917D01*
X0022603Y-0012806D01*
X0022269D01*
X0022214Y-0012917D01*
X0021958Y-0013472D02*
X0021514D01*
X0021958Y-0013028D01*
Y-0012917D01*
X0021903Y-0012806D01*
X0021569D01*
X0021514Y-0012917D01*
X0008819Y-0013472D02*
Y-0013139D01*
X0009042Y-0013472D02*
Y-0013139D01*
X0008986Y-0013028D01*
X0008875D01*
X0008819Y-0013139D01*
X0008764Y-0013028D01*
X0008653D01*
X0008597Y-0013139D01*
Y-0013472D01*
X0008119D02*
Y-0013139D01*
X0008342Y-0013472D02*
Y-0013139D01*
X0008286Y-0013028D01*
X0008175D01*
X0008119Y-0013139D01*
X0008064Y-0013028D01*
X0007953D01*
X0007897Y-0013139D01*
Y-0013472D01*
X0006414D02*
X0006303Y-0013361D01*
X0006247Y-0013250D01*
Y-0013028D01*
X0006303Y-0012917D01*
X0006414Y-0012806D01*
X0006525D01*
X0006636Y-0012917D01*
X0006692Y-0013028D01*
Y-0013250D01*
X0006636Y-0013361D01*
X0006525Y-0013472D01*
X0006414D01*
X0005714D02*
X0005603Y-0013361D01*
X0005547Y-0013250D01*
Y-0013028D01*
X0005603Y-0012917D01*
X0005714Y-0012806D01*
X0005825D01*
X0005936Y-0012917D01*
X0005992Y-0013028D01*
Y-0013250D01*
X0005936Y-0013361D01*
X0005825Y-0013472D01*
X0005714D01*
X0005292D02*
X0004847D01*
X0005292Y-0013028D01*
Y-0012917D01*
X0005236Y-0012806D01*
X0004903D01*
X0004847Y-0012917D01*
X0004481Y-0013472D02*
X0004592D01*
Y-0013361D01*
X0004481D01*
Y-0013472D01*
X0004114D02*
X0003892D01*
X0004003D02*
Y-0012806D01*
X0003892Y-0012917D01*
X0022603Y-0011639D02*
X0022269D01*
X0022214Y-0011528D01*
Y-0011417D01*
X0022269Y-0011306D01*
X0022603D01*
X0022658Y-0011417D01*
Y-0011528D01*
X0022436Y-0011972D01*
X0008819D02*
Y-0011639D01*
X0009042Y-0011972D02*
Y-0011639D01*
X0008986Y-0011528D01*
X0008875D01*
X0008819Y-0011639D01*
X0008764Y-0011528D01*
X0008653D01*
X0008597Y-0011639D01*
Y-0011972D01*
X0008119D02*
Y-0011639D01*
X0008342Y-0011972D02*
Y-0011639D01*
X0008286Y-0011528D01*
X0008175D01*
X0008119Y-0011639D01*
X0008064Y-0011528D01*
X0007953D01*
X0007897Y-0011639D01*
Y-0011972D01*
X0006414D02*
X0006303Y-0011861D01*
X0006247Y-0011750D01*
Y-0011528D01*
X0006303Y-0011417D01*
X0006414Y-0011306D01*
X0006525D01*
X0006636Y-0011417D01*
X0006692Y-0011528D01*
Y-0011750D01*
X0006636Y-0011861D01*
X0006525Y-0011972D01*
X0006414D01*
X0005714D02*
X0005603Y-0011861D01*
X0005547Y-0011750D01*
Y-0011528D01*
X0005603Y-0011417D01*
X0005714Y-0011306D01*
X0005825D01*
X0005936Y-0011417D01*
X0005992Y-0011528D01*
Y-0011750D01*
X0005936Y-0011861D01*
X0005825Y-0011972D01*
X0005714D01*
X0005292D02*
X0005069D01*
X0005180D02*
Y-0011306D01*
X0005069Y-0011417D01*
X0004592Y-0011972D02*
X0004703D01*
Y-0011861D01*
X0004592D01*
Y-0011972D01*
X0004225D02*
X0004003D01*
X0004114D02*
Y-0011306D01*
X0004003Y-0011417D01*
X0022658Y-0010250D02*
X0022214D01*
X0022436Y-0009806D01*
X0022547D01*
Y-0010472D01*
X0008819D02*
Y-0010139D01*
X0009042Y-0010472D02*
Y-0010139D01*
X0008986Y-0010028D01*
X0008875D01*
X0008819Y-0010139D01*
X0008764Y-0010028D01*
X0008653D01*
X0008597Y-0010139D01*
Y-0010472D01*
X0008119D02*
Y-0010139D01*
X0008342Y-0010472D02*
Y-0010139D01*
X0008286Y-0010028D01*
X0008175D01*
X0008119Y-0010139D01*
X0008064Y-0010028D01*
X0007953D01*
X0007897Y-0010139D01*
Y-0010472D01*
X0006414D02*
X0006303Y-0010361D01*
X0006247Y-0010250D01*
Y-0010028D01*
X0006303Y-0009917D01*
X0006414Y-0009806D01*
X0006525D01*
X0006636Y-0009917D01*
X0006692Y-0010028D01*
Y-0010250D01*
X0006636Y-0010361D01*
X0006525Y-0010472D01*
X0006414D01*
X0005714D02*
X0005603Y-0010361D01*
X0005547Y-0010250D01*
Y-0010028D01*
X0005603Y-0009917D01*
X0005714Y-0009806D01*
X0005825D01*
X0005936Y-0009917D01*
X0005992Y-0010028D01*
Y-0010250D01*
X0005936Y-0010361D01*
X0005825Y-0010472D01*
X0005714D01*
X0005236Y-0010139D02*
X0004903D01*
X0004847Y-0010028D01*
Y-0009917D01*
X0004903Y-0009806D01*
X0005236D01*
X0005292Y-0009917D01*
Y-0010028D01*
X0005069Y-0010472D01*
X0004481D02*
X0004592D01*
Y-0010361D01*
X0004481D01*
Y-0010472D01*
X0003836D02*
X0003725Y-0010361D01*
X0003669Y-0010250D01*
Y-0010028D01*
X0003725Y-0009917D01*
X0003836Y-0009806D01*
X0003947D01*
X0004058Y-0009917D01*
X0004114Y-0010028D01*
Y-0010250D01*
X0004058Y-0010361D01*
X0003947Y-0010472D01*
X0003836D01*
X0022603Y-0008639D02*
X0022269D01*
X0022214Y-0008528D01*
Y-0008417D01*
X0022269Y-0008306D01*
X0022603D01*
X0022658Y-0008417D01*
Y-0008528D01*
X0022436Y-0008972D01*
X0021680D02*
X0021569Y-0008861D01*
X0021514Y-0008750D01*
Y-0008528D01*
X0021569Y-0008417D01*
X0021680Y-0008306D01*
X0021792D01*
X0021903Y-0008417D01*
X0021958Y-0008528D01*
Y-0008750D01*
X0021903Y-0008861D01*
X0021792Y-0008972D01*
X0021680D01*
X0021258Y-0008750D02*
X0020814D01*
X0021036Y-0008306D01*
X0021147D01*
Y-0008972D01*
X0008819D02*
Y-0008639D01*
X0009042Y-0008972D02*
Y-0008639D01*
X0008986Y-0008528D01*
X0008875D01*
X0008819Y-0008639D01*
X0008764Y-0008528D01*
X0008653D01*
X0008597Y-0008639D01*
Y-0008972D01*
X0008119D02*
Y-0008639D01*
X0008342Y-0008972D02*
Y-0008639D01*
X0008286Y-0008528D01*
X0008175D01*
X0008119Y-0008639D01*
X0008064Y-0008528D01*
X0007953D01*
X0007897Y-0008639D01*
Y-0008972D01*
X0006414D02*
X0006303Y-0008861D01*
X0006247Y-0008750D01*
Y-0008528D01*
X0006303Y-0008417D01*
X0006414Y-0008306D01*
X0006525D01*
X0006636Y-0008417D01*
X0006692Y-0008528D01*
Y-0008750D01*
X0006636Y-0008861D01*
X0006525Y-0008972D01*
X0006414D01*
X0005714D02*
X0005603Y-0008861D01*
X0005547Y-0008750D01*
Y-0008528D01*
X0005603Y-0008417D01*
X0005714Y-0008306D01*
X0005825D01*
X0005936Y-0008417D01*
X0005992Y-0008528D01*
Y-0008750D01*
X0005936Y-0008861D01*
X0005825Y-0008972D01*
X0005714D01*
X0005292D02*
X0004847D01*
X0005292Y-0008528D01*
Y-0008417D01*
X0005236Y-0008306D01*
X0004903D01*
X0004847Y-0008417D01*
X0004481Y-0008972D02*
X0004592D01*
Y-0008861D01*
X0004481D01*
Y-0008972D01*
X0003836D02*
X0003725Y-0008861D01*
X0003669Y-0008750D01*
Y-0008528D01*
X0003725Y-0008417D01*
X0003836Y-0008306D01*
X0003947D01*
X0004058Y-0008417D01*
X0004114Y-0008528D01*
Y-0008750D01*
X0004058Y-0008861D01*
X0003947Y-0008972D01*
X0003836D01*
X0031062Y-0006833D02*
X0030562D01*
X0031229Y-0007333D02*
X0030562D01*
Y-0006333D01*
X0031229D01*
X0029946Y-0007333D02*
Y-0006333D01*
X0030279D02*
X0029612D01*
X0028746Y-0007333D02*
X0028662Y-0007167D01*
Y-0006500D01*
X0028746Y-0006333D01*
X0029246D01*
X0029329Y-0006500D01*
Y-0007167D01*
X0029246Y-0007333D01*
X0028746D01*
X0028379Y-0006333D02*
Y-0007333D01*
X0028212Y-0007167D01*
X0027879Y-0006500D01*
X0027712Y-0006333D01*
Y-0007333D01*
X0021875D02*
Y-0006833D01*
X0022208Y-0006333D02*
X0021958Y-0006833D01*
X0021792D01*
X0021542Y-0006333D01*
X0020925Y-0007333D02*
Y-0006333D01*
X0021258D02*
X0020592D01*
X0019975Y-0007000D02*
X0020308Y-0007333D01*
X0019642Y-0007167D02*
X0019725Y-0007333D01*
X0020058D01*
X0020142Y-0007167D01*
X0020308Y-0007000D01*
Y-0006500D01*
X0020225Y-0006333D01*
X0019725D01*
X0019642Y-0006500D01*
Y-0007167D01*
X0015358Y-0007333D02*
X0014775D01*
Y-0006333D01*
X0013908Y-0007333D02*
X0013825Y-0007167D01*
Y-0006500D01*
X0013908Y-0006333D01*
X0014408D01*
X0014492Y-0006500D01*
Y-0007167D01*
X0014408Y-0007333D01*
X0013908D01*
X0013208D02*
Y-0006333D01*
X0013542D02*
X0012875D01*
X0007537Y-0007333D02*
Y-0006333D01*
X0007371Y-0006500D01*
X0007204Y-0006833D01*
X0007037Y-0006500D01*
X0006871Y-0006333D01*
Y-0007333D01*
X0006587Y-0007000D02*
X0005921D01*
X0006587Y-0007333D02*
Y-0006833D01*
X0006337Y-0006333D01*
X0006171D01*
X0005921Y-0006833D01*
Y-0007333D01*
X0005637D02*
X0005304D01*
X0005471D02*
Y-0006333D01*
X0005637D02*
X0005304D01*
X0004271Y-0007333D02*
Y-0006333D01*
X0004187Y-0007333D02*
X0004687D01*
X0004854Y-0007000D01*
Y-0006667D01*
X0004687Y-0006333D01*
X0004187D01*
X0001100Y-0007333D02*
Y-0006333D01*
X0000933Y-0006500D01*
X0000767Y-0006833D01*
X0000600Y-0006500D01*
X0000433Y-0006333D01*
Y-0007333D01*
X-0000183D02*
Y-0006833D01*
X0000150Y-0006333D02*
X-0000100Y-0006833D01*
X-0000267D01*
X-0000517Y-0006333D01*
X-0000800Y-0006500D02*
X-0000883Y-0006333D01*
X-0001383D01*
X-0001467Y-0006500D01*
Y-0006667D01*
X-0001383Y-0006833D01*
X-0000883D01*
X-0000800Y-0007000D01*
Y-0007167D01*
X-0000883Y-0007333D01*
X-0001383D01*
X-0001467Y-0007167D01*
X0021387Y-0005333D02*
Y-0004333D01*
X0021721D02*
X0021054D01*
X0020521Y-0004833D02*
X0020771Y-0005333D01*
X0020104Y-0004833D02*
X0020604D01*
X0020771Y-0004667D01*
Y-0004500D01*
X0020604Y-0004333D01*
X0020104D01*
Y-0005333D01*
X0019821Y-0005000D02*
X0019154D01*
X0019821Y-0005333D02*
Y-0004833D01*
X0019571Y-0004333D01*
X0019404D01*
X0019154Y-0004833D01*
Y-0005333D01*
X0018871Y-0004833D02*
X0018204D01*
X0018871Y-0005333D02*
Y-0004333D01*
X0018204Y-0005333D02*
Y-0004333D01*
X0017921Y-0005167D02*
X0017837Y-0005333D01*
X0017337D01*
X0017254Y-0005167D01*
Y-0004500D01*
X0017337Y-0004333D01*
X0017837D01*
X0017921Y-0004500D01*
X0015646Y-0005333D02*
X0015062D01*
Y-0004333D01*
X0014779Y-0005333D02*
X0014196D01*
Y-0004333D01*
X0013912Y-0005333D02*
X0013579D01*
X0013746D02*
Y-0004333D01*
X0013912D02*
X0013579D01*
X0012879Y-0004833D02*
X0013129Y-0005333D01*
X0012462Y-0004833D02*
X0012962D01*
X0013129Y-0004667D01*
Y-0004500D01*
X0012962Y-0004333D01*
X0012462D01*
Y-0005333D01*
X0011596D02*
Y-0004333D01*
X0011512Y-0005333D02*
X0012012D01*
X0012179Y-0005000D01*
Y-0004667D01*
X0012012Y-0004333D01*
X0011512D01*
X0034617Y-0005192D02*
X0034367Y-0004942D01*
X0034617Y-0004692D01*
X0034283D02*
Y-0005192D01*
X0033750D02*
X0033708Y-0005108D01*
Y-0004775D01*
X0033750Y-0004692D01*
X0034000D01*
X0034042Y-0004775D01*
Y-0005108D01*
X0034000Y-0005192D01*
X0033750D01*
X0032704Y-0005108D02*
X0032662Y-0005192D01*
X0032412D01*
X0032371Y-0005108D01*
Y-0004775D01*
X0032412Y-0004692D01*
X0032662D01*
X0032704Y-0004775D01*
X0032004Y-0004942D02*
X0032129Y-0005192D01*
X0031796Y-0004942D02*
X0032046D01*
X0032129Y-0004858D01*
Y-0004775D01*
X0032046Y-0004692D01*
X0031796D01*
Y-0005192D01*
X0031262D02*
Y-0004692D01*
X0031221Y-0005192D02*
X0031471D01*
X0031554Y-0005025D01*
Y-0004858D01*
X0031471Y-0004692D01*
X0031221D01*
X0030217Y-0005192D02*
X0030050D01*
X0030133D02*
Y-0004692D01*
X0030050Y-0004775D01*
X0029392Y-0005108D02*
X0029433Y-0005192D01*
X0029683D01*
X0029725Y-0005108D01*
Y-0004942D01*
X0029642Y-0004858D01*
X0029392D01*
Y-0004692D01*
X0029725D01*
X0046250Y0001850D02*
Y0001650D01*
X0046400Y0002000D02*
X0046250Y0001850D01*
X0046600Y0002000D02*
X0046400D01*
X0046750Y0001850D02*
X0046600Y0002000D01*
X0046750Y0001650D02*
Y0001850D01*
X0046600Y0001500D02*
X0046750Y0001650D01*
X0046400Y0001500D02*
X0046600D01*
X0046250Y0001650D02*
X0046400Y0001500D01*
X0046950Y0001900D02*
Y0001700D01*
X0047100Y0002050D02*
X0046950Y0001900D01*
X0047300Y0002050D02*
X0047100D01*
X0047450Y0001900D02*
X0047300Y0002050D01*
X0047450Y0001700D02*
Y0001900D01*
X0047300Y0001550D02*
X0047450Y0001700D01*
X0047100Y0001550D02*
X0047300D01*
X0046950Y0001700D02*
X0047100Y0001550D01*
X0046950Y0001900D02*
Y0001700D01*
X0047100Y0002050D02*
X0046950Y0001900D01*
X0047300Y0002050D02*
X0047100D01*
X0047450Y0001900D02*
X0047300Y0002050D01*
X0047450Y0001700D02*
Y0001900D01*
X0047300Y0001550D02*
X0047450Y0001700D01*
X0047100Y0001550D02*
X0047300D01*
X0046950Y0001700D02*
X0047100Y0001550D01*
X0048000Y0002200D02*
Y0002000D01*
X0048150Y0002350D02*
X0048000Y0002200D01*
X0048350Y0002350D02*
X0048150D01*
X0048500Y0002200D02*
X0048350Y0002350D01*
X0048500Y0002000D02*
Y0002200D01*
X0048350Y0001850D02*
X0048500Y0002000D01*
X0048150Y0001850D02*
X0048350D01*
X0048000Y0002000D02*
X0048150Y0001850D01*
X0050600Y0003956D02*
Y0003756D01*
X0050750Y0004106D02*
X0050600Y0003956D01*
X0050950Y0004106D02*
X0050750D01*
X0051100Y0003956D02*
X0050950Y0004106D01*
X0051100Y0003756D02*
Y0003956D01*
X0050950Y0003606D02*
X0051100Y0003756D01*
X0050750Y0003606D02*
X0050950D01*
X0050600Y0003756D02*
X0050750Y0003606D01*
X0053850Y0003168D02*
Y0002968D01*
X0054000Y0003318D02*
X0053850Y0003168D01*
X0054200Y0003318D02*
X0054000D01*
X0054350Y0003168D02*
X0054200Y0003318D01*
X0054350Y0002968D02*
Y0003168D01*
X0054200Y0002818D02*
X0054350Y0002968D01*
X0054000Y0002818D02*
X0054200D01*
X0053850Y0002968D02*
X0054000Y0002818D01*
X0055750Y0001850D02*
Y0001650D01*
X0055900Y0002000D02*
X0055750Y0001850D01*
X0056100Y0002000D02*
X0055900D01*
X0056250Y0001850D02*
X0056100Y0002000D01*
X0056250Y0001650D02*
Y0001850D01*
X0056100Y0001500D02*
X0056250Y0001650D01*
X0055900Y0001500D02*
X0056100D01*
X0055750Y0001650D02*
X0055900Y0001500D01*
X0053850Y0003168D02*
Y0002968D01*
X0054000Y0003318D02*
X0053850Y0003168D01*
X0054200Y0003318D02*
X0054000D01*
X0054350Y0003168D02*
X0054200Y0003318D01*
X0054350Y0002968D02*
Y0003168D01*
X0054200Y0002818D02*
X0054350Y0002968D01*
X0054000Y0002818D02*
X0054200D01*
X0053850Y0002968D02*
X0054000Y0002818D01*
X0050465Y0006400D02*
Y0006200D01*
X0050615Y0006550D02*
X0050465Y0006400D01*
X0050815Y0006550D02*
X0050615D01*
X0050965Y0006400D02*
X0050815Y0006550D01*
X0050965Y0006200D02*
Y0006400D01*
X0050815Y0006050D02*
X0050965Y0006200D01*
X0050615Y0006050D02*
X0050815D01*
X0050465Y0006200D02*
X0050615Y0006050D01*
X0053508Y0006700D02*
Y0006500D01*
X0053658Y0006850D02*
X0053508Y0006700D01*
X0053858Y0006850D02*
X0053658D01*
X0054008Y0006700D02*
X0053858Y0006850D01*
X0054008Y0006500D02*
Y0006700D01*
X0053858Y0006350D02*
X0054008Y0006500D01*
X0053658Y0006350D02*
X0053858D01*
X0053508Y0006500D02*
X0053658Y0006350D01*
X0050465Y0006400D02*
Y0006200D01*
X0050615Y0006550D02*
X0050465Y0006400D01*
X0050815Y0006550D02*
X0050615D01*
X0050965Y0006400D02*
X0050815Y0006550D01*
X0050965Y0006200D02*
Y0006400D01*
X0050815Y0006050D02*
X0050965Y0006200D01*
X0050615Y0006050D02*
X0050815D01*
X0050465Y0006200D02*
X0050615Y0006050D01*
X0048450Y0006380D02*
Y0006180D01*
X0048600Y0006530D02*
X0048450Y0006380D01*
X0048800Y0006530D02*
X0048600D01*
X0048950Y0006380D02*
X0048800Y0006530D01*
X0048950Y0006180D02*
Y0006380D01*
X0048800Y0006030D02*
X0048950Y0006180D01*
X0048600Y0006030D02*
X0048800D01*
X0048450Y0006180D02*
X0048600Y0006030D01*
X0054000Y-0001400D02*
Y-0001600D01*
X0054150Y-0001250D02*
X0054000Y-0001400D01*
X0054350Y-0001250D02*
X0054150D01*
X0054500Y-0001400D02*
X0054350Y-0001250D01*
X0054500Y-0001600D02*
Y-0001400D01*
X0054350Y-0001750D02*
X0054500Y-0001600D01*
X0054150Y-0001750D02*
X0054350D01*
X0054000Y-0001600D02*
X0054150Y-0001750D01*
X0055750Y0001850D02*
Y0001650D01*
X0055900Y0002000D02*
X0055750Y0001850D01*
X0056100Y0002000D02*
X0055900D01*
X0056250Y0001850D02*
X0056100Y0002000D01*
X0056250Y0001650D02*
Y0001850D01*
X0056100Y0001500D02*
X0056250Y0001650D01*
X0055900Y0001500D02*
X0056100D01*
X0055750Y0001650D02*
X0055900Y0001500D01*
X0006500Y0013100D02*
Y0012900D01*
X0006650Y0013250D02*
X0006500Y0013100D01*
X0006850Y0013250D02*
X0006650D01*
X0007000Y0013100D02*
X0006850Y0013250D01*
X0007000Y0012900D02*
Y0013100D01*
X0006850Y0012750D02*
X0007000Y0012900D01*
X0006650Y0012750D02*
X0006850D01*
X0006500Y0012900D02*
X0006650Y0012750D01*
X0007750Y0013350D02*
Y0013150D01*
X0007900Y0013500D02*
X0007750Y0013350D01*
X0008100Y0013500D02*
X0007900D01*
X0008250Y0013350D02*
X0008100Y0013500D01*
X0008250Y0013150D02*
Y0013350D01*
X0008100Y0013000D02*
X0008250Y0013150D01*
X0007900Y0013000D02*
X0008100D01*
X0007750Y0013150D02*
X0007900Y0013000D01*
X0007750Y0013350D02*
Y0013150D01*
X0007900Y0013500D02*
X0007750Y0013350D01*
X0008100Y0013500D02*
X0007900D01*
X0008250Y0013350D02*
X0008100Y0013500D01*
X0008250Y0013150D02*
Y0013350D01*
X0008100Y0013000D02*
X0008250Y0013150D01*
X0007900Y0013000D02*
X0008100D01*
X0007750Y0013150D02*
X0007900Y0013000D01*
X0073500Y0000631D02*
Y0000431D01*
X0073650Y0000781D02*
X0073500Y0000631D01*
X0073850Y0000781D02*
X0073650D01*
X0074000Y0000631D02*
X0073850Y0000781D01*
X0074000Y0000431D02*
Y0000631D01*
X0073850Y0000281D02*
X0074000Y0000431D01*
X0073650Y0000281D02*
X0073850D01*
X0073500Y0000431D02*
X0073650Y0000281D01*
X0022400Y0007850D02*
Y0007650D01*
X0022550Y0008000D02*
X0022400Y0007850D01*
X0022750Y0008000D02*
X0022550D01*
X0022900Y0007850D02*
X0022750Y0008000D01*
X0022900Y0007650D02*
Y0007850D01*
X0022750Y0007500D02*
X0022900Y0007650D01*
X0022550Y0007500D02*
X0022750D01*
X0022400Y0007650D02*
X0022550Y0007500D01*
X0021050Y0001580D02*
Y0001380D01*
X0021200Y0001730D02*
X0021050Y0001580D01*
X0021400Y0001730D02*
X0021200D01*
X0021550Y0001580D02*
X0021400Y0001730D01*
X0021550Y0001380D02*
Y0001580D01*
X0021400Y0001230D02*
X0021550Y0001380D01*
X0021200Y0001230D02*
X0021400D01*
X0021050Y0001380D02*
X0021200Y0001230D01*
X0012250Y-0000050D02*
Y-0000250D01*
X0012400Y0000100D02*
X0012250Y-0000050D01*
X0012600Y0000100D02*
X0012400D01*
X0012750Y-0000050D02*
X0012600Y0000100D01*
X0012750Y-0000250D02*
Y-0000050D01*
X0012600Y-0000400D02*
X0012750Y-0000250D01*
X0012400Y-0000400D02*
X0012600D01*
X0012250Y-0000250D02*
X0012400Y-0000400D01*
X0021050Y0001580D02*
Y0001380D01*
X0021200Y0001730D02*
X0021050Y0001580D01*
X0021400Y0001730D02*
X0021200D01*
X0021550Y0001580D02*
X0021400Y0001730D01*
X0021550Y0001380D02*
Y0001580D01*
X0021400Y0001230D02*
X0021550Y0001380D01*
X0021200Y0001230D02*
X0021400D01*
X0021050Y0001380D02*
X0021200Y0001230D01*
X0018500Y-0001050D02*
Y-0001250D01*
X0018650Y-0000900D02*
X0018500Y-0001050D01*
X0018850Y-0000900D02*
X0018650D01*
X0019000Y-0001050D02*
X0018850Y-0000900D01*
X0019000Y-0001250D02*
Y-0001050D01*
X0018850Y-0001400D02*
X0019000Y-0001250D01*
X0018650Y-0001400D02*
X0018850D01*
X0018500Y-0001250D02*
X0018650Y-0001400D01*
X0014250Y0009250D02*
Y0009050D01*
X0014400Y0009400D02*
X0014250Y0009250D01*
X0014600Y0009400D02*
X0014400D01*
X0014750Y0009250D02*
X0014600Y0009400D01*
X0014750Y0009050D02*
Y0009250D01*
X0014600Y0008900D02*
X0014750Y0009050D01*
X0014400Y0008900D02*
X0014600D01*
X0014250Y0009050D02*
X0014400Y0008900D01*
X0013250Y-0000900D02*
Y-0001100D01*
X0013400Y-0000750D02*
X0013250Y-0000900D01*
X0013600Y-0000750D02*
X0013400D01*
X0013750Y-0000900D02*
X0013600Y-0000750D01*
X0013750Y-0001100D02*
Y-0000900D01*
X0013600Y-0001250D02*
X0013750Y-0001100D01*
X0013400Y-0001250D02*
X0013600D01*
X0013250Y-0001100D02*
X0013400Y-0001250D01*
X0012250Y-0000050D02*
Y-0000250D01*
X0012400Y0000100D02*
X0012250Y-0000050D01*
X0012600Y0000100D02*
X0012400D01*
X0012750Y-0000050D02*
X0012600Y0000100D01*
X0012750Y-0000250D02*
Y-0000050D01*
X0012600Y-0000400D02*
X0012750Y-0000250D01*
X0012400Y-0000400D02*
X0012600D01*
X0012250Y-0000250D02*
X0012400Y-0000400D01*
X0051250Y0007200D02*
Y0007000D01*
X0051400Y0007350D02*
X0051250Y0007200D01*
X0051600Y0007350D02*
X0051400D01*
X0051750Y0007200D02*
X0051600Y0007350D01*
X0051750Y0007000D02*
Y0007200D01*
X0051600Y0006850D02*
X0051750Y0007000D01*
X0051400Y0006850D02*
X0051600D01*
X0051250Y0007000D02*
X0051400Y0006850D01*
X0054040Y0006450D02*
Y0006250D01*
X0054190Y0006600D02*
X0054040Y0006450D01*
X0054390Y0006600D02*
X0054190D01*
X0054540Y0006450D02*
X0054390Y0006600D01*
X0054540Y0006250D02*
Y0006450D01*
X0054390Y0006100D02*
X0054540Y0006250D01*
X0054190Y0006100D02*
X0054390D01*
X0054040Y0006250D02*
X0054190Y0006100D01*
X0050650Y0004350D02*
Y0004150D01*
X0050800Y0004500D02*
X0050650Y0004350D01*
X0051000Y0004500D02*
X0050800D01*
X0051150Y0004350D02*
X0051000Y0004500D01*
X0051150Y0004150D02*
Y0004350D01*
X0051000Y0004000D02*
X0051150Y0004150D01*
X0050800Y0004000D02*
X0051000D01*
X0050650Y0004150D02*
X0050800Y0004000D01*
X0045250Y0005100D02*
Y0004900D01*
X0045400Y0005250D02*
X0045250Y0005100D01*
X0045600Y0005250D02*
X0045400D01*
X0045750Y0005100D02*
X0045600Y0005250D01*
X0045750Y0004900D02*
Y0005100D01*
X0045600Y0004750D02*
X0045750Y0004900D01*
X0045400Y0004750D02*
X0045600D01*
X0045250Y0004900D02*
X0045400Y0004750D01*
X0046450Y0004070D02*
Y0003870D01*
X0046600Y0004220D02*
X0046450Y0004070D01*
X0046800Y0004220D02*
X0046600D01*
X0046950Y0004070D02*
X0046800Y0004220D01*
X0046950Y0003870D02*
Y0004070D01*
X0046800Y0003720D02*
X0046950Y0003870D01*
X0046600Y0003720D02*
X0046800D01*
X0046450Y0003870D02*
X0046600Y0003720D01*
X0046400Y0003690D02*
Y0003490D01*
X0046550Y0003840D02*
X0046400Y0003690D01*
X0046750Y0003840D02*
X0046550D01*
X0046900Y0003690D02*
X0046750Y0003840D01*
X0046900Y0003490D02*
Y0003690D01*
X0046750Y0003340D02*
X0046900Y0003490D01*
X0046550Y0003340D02*
X0046750D01*
X0046400Y0003490D02*
X0046550Y0003340D01*
X0046450Y0004070D02*
Y0003870D01*
X0046600Y0004220D02*
X0046450Y0004070D01*
X0046800Y0004220D02*
X0046600D01*
X0046950Y0004070D02*
X0046800Y0004220D01*
X0046950Y0003870D02*
Y0004070D01*
X0046800Y0003720D02*
X0046950Y0003870D01*
X0046600Y0003720D02*
X0046800D01*
X0046450Y0003870D02*
X0046600Y0003720D01*
X0045250Y0005100D02*
Y0004900D01*
X0045400Y0005250D02*
X0045250Y0005100D01*
X0045600Y0005250D02*
X0045400D01*
X0045750Y0005100D02*
X0045600Y0005250D01*
X0045750Y0004900D02*
Y0005100D01*
X0045600Y0004750D02*
X0045750Y0004900D01*
X0045400Y0004750D02*
X0045600D01*
X0045250Y0004900D02*
X0045400Y0004750D01*
X0046450Y0004070D02*
Y0003870D01*
X0046600Y0004220D02*
X0046450Y0004070D01*
X0046800Y0004220D02*
X0046600D01*
X0046950Y0004070D02*
X0046800Y0004220D01*
X0046950Y0003870D02*
Y0004070D01*
X0046800Y0003720D02*
X0046950Y0003870D01*
X0046600Y0003720D02*
X0046800D01*
X0046450Y0003870D02*
X0046600Y0003720D01*
X0048000Y0004100D02*
Y0003900D01*
X0048150Y0004250D02*
X0048000Y0004100D01*
X0048350Y0004250D02*
X0048150D01*
X0048500Y0004100D02*
X0048350Y0004250D01*
X0048500Y0003900D02*
Y0004100D01*
X0048350Y0003750D02*
X0048500Y0003900D01*
X0048150Y0003750D02*
X0048350D01*
X0048000Y0003900D02*
X0048150Y0003750D01*
X0050800Y0006800D02*
Y0006600D01*
X0050950Y0006950D02*
X0050800Y0006800D01*
X0051150Y0006950D02*
X0050950D01*
X0051300Y0006800D02*
X0051150Y0006950D01*
X0051300Y0006600D02*
Y0006800D01*
X0051150Y0006450D02*
X0051300Y0006600D01*
X0050950Y0006450D02*
X0051150D01*
X0050800Y0006600D02*
X0050950Y0006450D01*
X0050650Y0004350D02*
Y0004150D01*
X0050800Y0004500D02*
X0050650Y0004350D01*
X0051000Y0004500D02*
X0050800D01*
X0051150Y0004350D02*
X0051000Y0004500D01*
X0051150Y0004150D02*
Y0004350D01*
X0051000Y0004000D02*
X0051150Y0004150D01*
X0050800Y0004000D02*
X0051000D01*
X0050650Y0004150D02*
X0050800Y0004000D01*
X0020750Y0012750D02*
Y0012550D01*
X0020900Y0012900D02*
X0020750Y0012750D01*
X0021100Y0012900D02*
X0020900D01*
X0021250Y0012750D02*
X0021100Y0012900D01*
X0021250Y0012550D02*
Y0012750D01*
X0021100Y0012400D02*
X0021250Y0012550D01*
X0020900Y0012400D02*
X0021100D01*
X0020750Y0012550D02*
X0020900Y0012400D01*
X0062250Y0007250D02*
Y0007050D01*
X0062400Y0007400D02*
X0062250Y0007250D01*
X0062600Y0007400D02*
X0062400D01*
X0062750Y0007250D02*
X0062600Y0007400D01*
X0062750Y0007050D02*
Y0007250D01*
X0062600Y0006900D02*
X0062750Y0007050D01*
X0062400Y0006900D02*
X0062600D01*
X0062250Y0007050D02*
X0062400Y0006900D01*
X0061250Y0007250D02*
Y0007050D01*
X0061400Y0007400D02*
X0061250Y0007250D01*
X0061600Y0007400D02*
X0061400D01*
X0061750Y0007250D02*
X0061600Y0007400D01*
X0061750Y0007050D02*
Y0007250D01*
X0061600Y0006900D02*
X0061750Y0007050D01*
X0061400Y0006900D02*
X0061600D01*
X0061250Y0007050D02*
X0061400Y0006900D01*
X0027050Y0016320D02*
Y0016120D01*
X0027200Y0016470D02*
X0027050Y0016320D01*
X0027400Y0016470D02*
X0027200D01*
X0027550Y0016320D02*
X0027400Y0016470D01*
X0027550Y0016120D02*
Y0016320D01*
X0027400Y0015970D02*
X0027550Y0016120D01*
X0027200Y0015970D02*
X0027400D01*
X0027050Y0016120D02*
X0027200Y0015970D01*
X0025950Y0017130D02*
Y0016930D01*
X0026100Y0017280D02*
X0025950Y0017130D01*
X0026300Y0017280D02*
X0026100D01*
X0026450Y0017130D02*
X0026300Y0017280D01*
X0026450Y0016930D02*
Y0017130D01*
X0026300Y0016780D02*
X0026450Y0016930D01*
X0026100Y0016780D02*
X0026300D01*
X0025950Y0016930D02*
X0026100Y0016780D01*
X0027050Y0015630D02*
Y0015430D01*
X0027200Y0015780D02*
X0027050Y0015630D01*
X0027400Y0015780D02*
X0027200D01*
X0027550Y0015630D02*
X0027400Y0015780D01*
X0027550Y0015430D02*
Y0015630D01*
X0027400Y0015280D02*
X0027550Y0015430D01*
X0027200Y0015280D02*
X0027400D01*
X0027050Y0015430D02*
X0027200Y0015280D01*
X0026250Y0014350D02*
Y0014150D01*
X0026400Y0014500D02*
X0026250Y0014350D01*
X0026600Y0014500D02*
X0026400D01*
X0026750Y0014350D02*
X0026600Y0014500D01*
X0026750Y0014150D02*
Y0014350D01*
X0026600Y0014000D02*
X0026750Y0014150D01*
X0026400Y0014000D02*
X0026600D01*
X0026250Y0014150D02*
X0026400Y0014000D01*
X0025500Y0013600D02*
Y0013400D01*
X0025650Y0013750D02*
X0025500Y0013600D01*
X0025850Y0013750D02*
X0025650D01*
X0026000Y0013600D02*
X0025850Y0013750D01*
X0026000Y0013400D02*
Y0013600D01*
X0025850Y0013250D02*
X0026000Y0013400D01*
X0025650Y0013250D02*
X0025850D01*
X0025500Y0013400D02*
X0025650Y0013250D01*
X0026250Y0014350D02*
Y0014150D01*
X0026400Y0014500D02*
X0026250Y0014350D01*
X0026600Y0014500D02*
X0026400D01*
X0026750Y0014350D02*
X0026600Y0014500D01*
X0026750Y0014150D02*
Y0014350D01*
X0026600Y0014000D02*
X0026750Y0014150D01*
X0026400Y0014000D02*
X0026600D01*
X0026250Y0014150D02*
X0026400Y0014000D01*
X0027050Y0016320D02*
Y0016120D01*
X0027200Y0016470D02*
X0027050Y0016320D01*
X0027400Y0016470D02*
X0027200D01*
X0027550Y0016320D02*
X0027400Y0016470D01*
X0027550Y0016120D02*
Y0016320D01*
X0027400Y0015970D02*
X0027550Y0016120D01*
X0027200Y0015970D02*
X0027400D01*
X0027050Y0016120D02*
X0027200Y0015970D01*
X0027050Y0015630D02*
Y0015430D01*
X0027200Y0015780D02*
X0027050Y0015630D01*
X0027400Y0015780D02*
X0027200D01*
X0027550Y0015630D02*
X0027400Y0015780D01*
X0027550Y0015430D02*
Y0015630D01*
X0027400Y0015280D02*
X0027550Y0015430D01*
X0027200Y0015280D02*
X0027400D01*
X0027050Y0015430D02*
X0027200Y0015280D01*
X0008200Y0009500D02*
Y0009300D01*
X0008350Y0009650D02*
X0008200Y0009500D01*
X0008550Y0009650D02*
X0008350D01*
X0008700Y0009500D02*
X0008550Y0009650D01*
X0008700Y0009300D02*
Y0009500D01*
X0008550Y0009150D02*
X0008700Y0009300D01*
X0008350Y0009150D02*
X0008550D01*
X0008200Y0009300D02*
X0008350Y0009150D01*
X0007750Y0011100D02*
Y0010900D01*
X0007900Y0011250D02*
X0007750Y0011100D01*
X0008100Y0011250D02*
X0007900D01*
X0008250Y0011100D02*
X0008100Y0011250D01*
X0008250Y0010900D02*
Y0011100D01*
X0008100Y0010750D02*
X0008250Y0010900D01*
X0007900Y0010750D02*
X0008100D01*
X0007750Y0010900D02*
X0007900Y0010750D01*
X0066200Y0007320D02*
Y0007120D01*
X0066350Y0007470D02*
X0066200Y0007320D01*
X0066550Y0007470D02*
X0066350D01*
X0066700Y0007320D02*
X0066550Y0007470D01*
X0066700Y0007120D02*
Y0007320D01*
X0066550Y0006970D02*
X0066700Y0007120D01*
X0066350Y0006970D02*
X0066550D01*
X0066200Y0007120D02*
X0066350Y0006970D01*
X0068700Y0007320D02*
Y0007120D01*
X0068850Y0007470D02*
X0068700Y0007320D01*
X0069050Y0007470D02*
X0068850D01*
X0069200Y0007320D02*
X0069050Y0007470D01*
X0069200Y0007120D02*
Y0007320D01*
X0069050Y0006970D02*
X0069200Y0007120D01*
X0068850Y0006970D02*
X0069050D01*
X0068700Y0007120D02*
X0068850Y0006970D01*
X0068700Y0006630D02*
Y0006430D01*
X0068850Y0006780D02*
X0068700Y0006630D01*
X0069050Y0006780D02*
X0068850D01*
X0069200Y0006630D02*
X0069050Y0006780D01*
X0069200Y0006430D02*
Y0006630D01*
X0069050Y0006280D02*
X0069200Y0006430D01*
X0068850Y0006280D02*
X0069050D01*
X0068700Y0006430D02*
X0068850Y0006280D01*
X0070300Y0006630D02*
Y0006430D01*
X0070450Y0006780D02*
X0070300Y0006630D01*
X0070650Y0006780D02*
X0070450D01*
X0070800Y0006630D02*
X0070650Y0006780D01*
X0070800Y0006430D02*
Y0006630D01*
X0070650Y0006280D02*
X0070800Y0006430D01*
X0070450Y0006280D02*
X0070650D01*
X0070300Y0006430D02*
X0070450Y0006280D01*
X0070300Y0006630D02*
Y0006430D01*
X0070450Y0006780D02*
X0070300Y0006630D01*
X0070650Y0006780D02*
X0070450D01*
X0070800Y0006630D02*
X0070650Y0006780D01*
X0070800Y0006430D02*
Y0006630D01*
X0070650Y0006280D02*
X0070800Y0006430D01*
X0070450Y0006280D02*
X0070650D01*
X0070300Y0006430D02*
X0070450Y0006280D01*
X0069930Y0004650D02*
Y0004450D01*
X0070080Y0004800D02*
X0069930Y0004650D01*
X0070280Y0004800D02*
X0070080D01*
X0070430Y0004650D02*
X0070280Y0004800D01*
X0070430Y0004450D02*
Y0004650D01*
X0070280Y0004300D02*
X0070430Y0004450D01*
X0070080Y0004300D02*
X0070280D01*
X0069930Y0004450D02*
X0070080Y0004300D01*
X0071200Y0007320D02*
Y0007120D01*
X0071350Y0007470D02*
X0071200Y0007320D01*
X0071550Y0007470D02*
X0071350D01*
X0071700Y0007320D02*
X0071550Y0007470D01*
X0071700Y0007120D02*
Y0007320D01*
X0071550Y0006970D02*
X0071700Y0007120D01*
X0071350Y0006970D02*
X0071550D01*
X0071200Y0007120D02*
X0071350Y0006970D01*
X0070300Y0006630D02*
Y0006430D01*
X0070450Y0006780D02*
X0070300Y0006630D01*
X0070650Y0006780D02*
X0070450D01*
X0070800Y0006630D02*
X0070650Y0006780D01*
X0070800Y0006430D02*
Y0006630D01*
X0070650Y0006280D02*
X0070800Y0006430D01*
X0070450Y0006280D02*
X0070650D01*
X0070300Y0006430D02*
X0070450Y0006280D01*
X0069930Y0004650D02*
Y0004450D01*
X0070080Y0004800D02*
X0069930Y0004650D01*
X0070280Y0004800D02*
X0070080D01*
X0070430Y0004650D02*
X0070280Y0004800D01*
X0070430Y0004450D02*
Y0004650D01*
X0070280Y0004300D02*
X0070430Y0004450D01*
X0070080Y0004300D02*
X0070280D01*
X0069930Y0004450D02*
X0070080Y0004300D01*
X0071450Y0004150D02*
Y0003950D01*
X0071600Y0004300D02*
X0071450Y0004150D01*
X0071800Y0004300D02*
X0071600D01*
X0071950Y0004150D02*
X0071800Y0004300D01*
X0071950Y0003950D02*
Y0004150D01*
X0071800Y0003800D02*
X0071950Y0003950D01*
X0071600Y0003800D02*
X0071800D01*
X0071450Y0003950D02*
X0071600Y0003800D01*
X0073500Y0002600D02*
Y0002400D01*
X0073650Y0002750D02*
X0073500Y0002600D01*
X0073850Y0002750D02*
X0073650D01*
X0074000Y0002600D02*
X0073850Y0002750D01*
X0074000Y0002400D02*
Y0002600D01*
X0073850Y0002250D02*
X0074000Y0002400D01*
X0073650Y0002250D02*
X0073850D01*
X0073500Y0002400D02*
X0073650Y0002250D01*
X0063700Y0006630D02*
Y0006430D01*
X0063850Y0006780D02*
X0063700Y0006630D01*
X0064050Y0006780D02*
X0063850D01*
X0064200Y0006630D02*
X0064050Y0006780D01*
X0064200Y0006430D02*
Y0006630D01*
X0064050Y0006280D02*
X0064200Y0006430D01*
X0063850Y0006280D02*
X0064050D01*
X0063700Y0006430D02*
X0063850Y0006280D01*
X0065300Y0006630D02*
Y0006430D01*
X0065450Y0006780D02*
X0065300Y0006630D01*
X0065650Y0006780D02*
X0065450D01*
X0065800Y0006630D02*
X0065650Y0006780D01*
X0065800Y0006430D02*
Y0006630D01*
X0065650Y0006280D02*
X0065800Y0006430D01*
X0065450Y0006280D02*
X0065650D01*
X0065300Y0006430D02*
X0065450Y0006280D01*
X0068700Y0006630D02*
Y0006430D01*
X0068850Y0006780D02*
X0068700Y0006630D01*
X0069050Y0006780D02*
X0068850D01*
X0069200Y0006630D02*
X0069050Y0006780D01*
X0069200Y0006430D02*
Y0006630D01*
X0069050Y0006280D02*
X0069200Y0006430D01*
X0068850Y0006280D02*
X0069050D01*
X0068700Y0006430D02*
X0068850Y0006280D01*
X0068700Y0007320D02*
Y0007120D01*
X0068850Y0007470D02*
X0068700Y0007320D01*
X0069050Y0007470D02*
X0068850D01*
X0069200Y0007320D02*
X0069050Y0007470D01*
X0069200Y0007120D02*
Y0007320D01*
X0069050Y0006970D02*
X0069200Y0007120D01*
X0068850Y0006970D02*
X0069050D01*
X0068700Y0007120D02*
X0068850Y0006970D01*
X0062250Y0007250D02*
Y0007050D01*
X0062400Y0007400D02*
X0062250Y0007250D01*
X0062600Y0007400D02*
X0062400D01*
X0062750Y0007250D02*
X0062600Y0007400D01*
X0062750Y0007050D02*
Y0007250D01*
X0062600Y0006900D02*
X0062750Y0007050D01*
X0062400Y0006900D02*
X0062600D01*
X0062250Y0007050D02*
X0062400Y0006900D01*
X0063750Y0007600D02*
Y0007400D01*
X0063900Y0007750D02*
X0063750Y0007600D01*
X0064100Y0007750D02*
X0063900D01*
X0064250Y0007600D02*
X0064100Y0007750D01*
X0064250Y0007400D02*
Y0007600D01*
X0064100Y0007250D02*
X0064250Y0007400D01*
X0063900Y0007250D02*
X0064100D01*
X0063750Y0007400D02*
X0063900Y0007250D01*
X0063750Y0007600D02*
Y0007400D01*
X0063900Y0007750D02*
X0063750Y0007600D01*
X0064100Y0007750D02*
X0063900D01*
X0064250Y0007600D02*
X0064100Y0007750D01*
X0064250Y0007400D02*
Y0007600D01*
X0064100Y0007250D02*
X0064250Y0007400D01*
X0063900Y0007250D02*
X0064100D01*
X0063750Y0007400D02*
X0063900Y0007250D01*
X0063700Y0006630D02*
Y0006430D01*
X0063850Y0006780D02*
X0063700Y0006630D01*
X0064050Y0006780D02*
X0063850D01*
X0064200Y0006630D02*
X0064050Y0006780D01*
X0064200Y0006430D02*
Y0006630D01*
X0064050Y0006280D02*
X0064200Y0006430D01*
X0063850Y0006280D02*
X0064050D01*
X0063700Y0006430D02*
X0063850Y0006280D01*
X0065300Y0006630D02*
Y0006430D01*
X0065450Y0006780D02*
X0065300Y0006630D01*
X0065650Y0006780D02*
X0065450D01*
X0065800Y0006630D02*
X0065650Y0006780D01*
X0065800Y0006430D02*
Y0006630D01*
X0065650Y0006280D02*
X0065800Y0006430D01*
X0065450Y0006280D02*
X0065650D01*
X0065300Y0006430D02*
X0065450Y0006280D01*
X0065000Y0004220D02*
Y0004020D01*
X0065150Y0004370D02*
X0065000Y0004220D01*
X0065350Y0004370D02*
X0065150D01*
X0065500Y0004220D02*
X0065350Y0004370D01*
X0065500Y0004020D02*
Y0004220D01*
X0065350Y0003870D02*
X0065500Y0004020D01*
X0065150Y0003870D02*
X0065350D01*
X0065000Y0004020D02*
X0065150Y0003870D01*
X0066200Y0007320D02*
Y0007120D01*
X0066350Y0007470D02*
X0066200Y0007320D01*
X0066550Y0007470D02*
X0066350D01*
X0066700Y0007320D02*
X0066550Y0007470D01*
X0066700Y0007120D02*
Y0007320D01*
X0066550Y0006970D02*
X0066700Y0007120D01*
X0066350Y0006970D02*
X0066550D01*
X0066200Y0007120D02*
X0066350Y0006970D01*
X0065300Y0006630D02*
Y0006430D01*
X0065450Y0006780D02*
X0065300Y0006630D01*
X0065650Y0006780D02*
X0065450D01*
X0065800Y0006630D02*
X0065650Y0006780D01*
X0065800Y0006430D02*
Y0006630D01*
X0065650Y0006280D02*
X0065800Y0006430D01*
X0065450Y0006280D02*
X0065650D01*
X0065300Y0006430D02*
X0065450Y0006280D01*
X0061250Y0007250D02*
Y0007050D01*
X0061400Y0007400D02*
X0061250Y0007250D01*
X0061600Y0007400D02*
X0061400D01*
X0061750Y0007250D02*
X0061600Y0007400D01*
X0061750Y0007050D02*
Y0007250D01*
X0061600Y0006900D02*
X0061750Y0007050D01*
X0061400Y0006900D02*
X0061600D01*
X0061250Y0007050D02*
X0061400Y0006900D01*
X0060250Y0007250D02*
Y0007050D01*
X0060400Y0007400D02*
X0060250Y0007250D01*
X0060600Y0007400D02*
X0060400D01*
X0060750Y0007250D02*
X0060600Y0007400D01*
X0060750Y0007050D02*
Y0007250D01*
X0060600Y0006900D02*
X0060750Y0007050D01*
X0060400Y0006900D02*
X0060600D01*
X0060250Y0007050D02*
X0060400Y0006900D01*
X0039750Y0002200D02*
Y0002000D01*
X0039900Y0002350D02*
X0039750Y0002200D01*
X0040100Y0002350D02*
X0039900D01*
X0040250Y0002200D02*
X0040100Y0002350D01*
X0040250Y0002000D02*
Y0002200D01*
X0040100Y0001850D02*
X0040250Y0002000D01*
X0039900Y0001850D02*
X0040100D01*
X0039750Y0002000D02*
X0039900Y0001850D01*
X0037750Y0004350D02*
Y0004150D01*
X0037900Y0004500D02*
X0037750Y0004350D01*
X0038100Y0004500D02*
X0037900D01*
X0038250Y0004350D02*
X0038100Y0004500D01*
X0038250Y0004150D02*
Y0004350D01*
X0038100Y0004000D02*
X0038250Y0004150D01*
X0037900Y0004000D02*
X0038100D01*
X0037750Y0004150D02*
X0037900Y0004000D01*
X0041200Y0001820D02*
Y0001620D01*
X0041350Y0001970D02*
X0041200Y0001820D01*
X0041550Y0001970D02*
X0041350D01*
X0041700Y0001820D02*
X0041550Y0001970D01*
X0041700Y0001620D02*
Y0001820D01*
X0041550Y0001470D02*
X0041700Y0001620D01*
X0041350Y0001470D02*
X0041550D01*
X0041200Y0001620D02*
X0041350Y0001470D01*
X0041200Y0001820D02*
Y0001620D01*
X0041350Y0001970D02*
X0041200Y0001820D01*
X0041550Y0001970D02*
X0041350D01*
X0041700Y0001820D02*
X0041550Y0001970D01*
X0041700Y0001620D02*
Y0001820D01*
X0041550Y0001470D02*
X0041700Y0001620D01*
X0041350Y0001470D02*
X0041550D01*
X0041200Y0001620D02*
X0041350Y0001470D01*
X0039750Y0002200D02*
Y0002000D01*
X0039900Y0002350D02*
X0039750Y0002200D01*
X0040100Y0002350D02*
X0039900D01*
X0040250Y0002200D02*
X0040100Y0002350D01*
X0040250Y0002000D02*
Y0002200D01*
X0040100Y0001850D02*
X0040250Y0002000D01*
X0039900Y0001850D02*
X0040100D01*
X0039750Y0002000D02*
X0039900Y0001850D01*
X0036750Y0002100D02*
Y0001900D01*
X0036900Y0002250D02*
X0036750Y0002100D01*
X0037100Y0002250D02*
X0036900D01*
X0037250Y0002100D02*
X0037100Y0002250D01*
X0037250Y0001900D02*
Y0002100D01*
X0037100Y0001750D02*
X0037250Y0001900D01*
X0036900Y0001750D02*
X0037100D01*
X0036750Y0001900D02*
X0036900Y0001750D01*
X0037750Y0004350D02*
Y0004150D01*
X0037900Y0004500D02*
X0037750Y0004350D01*
X0038100Y0004500D02*
X0037900D01*
X0038250Y0004350D02*
X0038100Y0004500D01*
X0038250Y0004150D02*
Y0004350D01*
X0038100Y0004000D02*
X0038250Y0004150D01*
X0037900Y0004000D02*
X0038100D01*
X0037750Y0004150D02*
X0037900Y0004000D01*
X0010285Y0010300D02*
Y0010100D01*
X0010435Y0010450D02*
X0010285Y0010300D01*
X0010635Y0010450D02*
X0010435D01*
X0010785Y0010300D02*
X0010635Y0010450D01*
X0010785Y0010100D02*
Y0010300D01*
X0010635Y0009950D02*
X0010785Y0010100D01*
X0010435Y0009950D02*
X0010635D01*
X0010285Y0010100D02*
X0010435Y0009950D01*
X0011000Y0010450D02*
Y0010250D01*
X0011150Y0010600D02*
X0011000Y0010450D01*
X0011350Y0010600D02*
X0011150D01*
X0011500Y0010450D02*
X0011350Y0010600D01*
X0011500Y0010250D02*
Y0010450D01*
X0011350Y0010100D02*
X0011500Y0010250D01*
X0011150Y0010100D02*
X0011350D01*
X0011000Y0010250D02*
X0011150Y0010100D01*
X0011000Y0010450D02*
Y0010250D01*
X0011150Y0010600D02*
X0011000Y0010450D01*
X0011350Y0010600D02*
X0011150D01*
X0011500Y0010450D02*
X0011350Y0010600D01*
X0011500Y0010250D02*
Y0010450D01*
X0011350Y0010100D02*
X0011500Y0010250D01*
X0011150Y0010100D02*
X0011350D01*
X0011000Y0010250D02*
X0011150Y0010100D01*
X0012000Y0010900D02*
Y0010700D01*
X0012150Y0011050D02*
X0012000Y0010900D01*
X0012350Y0011050D02*
X0012150D01*
X0012500Y0010900D02*
X0012350Y0011050D01*
X0012500Y0010700D02*
Y0010900D01*
X0012350Y0010550D02*
X0012500Y0010700D01*
X0012150Y0010550D02*
X0012350D01*
X0012000Y0010700D02*
X0012150Y0010550D01*
X0050800Y0006800D02*
Y0006600D01*
X0050950Y0006950D02*
X0050800Y0006800D01*
X0051150Y0006950D02*
X0050950D01*
X0051300Y0006800D02*
X0051150Y0006950D01*
X0051300Y0006600D02*
Y0006800D01*
X0051150Y0006450D02*
X0051300Y0006600D01*
X0050950Y0006450D02*
X0051150D01*
X0050800Y0006600D02*
X0050950Y0006450D01*
X0051250Y0007200D02*
Y0007000D01*
X0051400Y0007350D02*
X0051250Y0007200D01*
X0051600Y0007350D02*
X0051400D01*
X0051750Y0007200D02*
X0051600Y0007350D01*
X0051750Y0007000D02*
Y0007200D01*
X0051600Y0006850D02*
X0051750Y0007000D01*
X0051400Y0006850D02*
X0051600D01*
X0051250Y0007000D02*
X0051400Y0006850D01*
X0014250Y0009250D02*
Y0009050D01*
X0014400Y0009400D02*
X0014250Y0009250D01*
X0014600Y0009400D02*
X0014400D01*
X0014750Y0009250D02*
X0014600Y0009400D01*
X0014750Y0009050D02*
Y0009250D01*
X0014600Y0008900D02*
X0014750Y0009050D01*
X0014400Y0008900D02*
X0014600D01*
X0014250Y0009050D02*
X0014400Y0008900D01*
X0020750Y0012750D02*
Y0012550D01*
X0020900Y0012900D02*
X0020750Y0012750D01*
X0021100Y0012900D02*
X0020900D01*
X0021250Y0012750D02*
X0021100Y0012900D01*
X0021250Y0012550D02*
Y0012750D01*
X0021100Y0012400D02*
X0021250Y0012550D01*
X0020900Y0012400D02*
X0021100D01*
X0020750Y0012550D02*
X0020900Y0012400D01*
X0021750Y0012350D02*
Y0012150D01*
X0021900Y0012500D02*
X0021750Y0012350D01*
X0022100Y0012500D02*
X0021900D01*
X0022250Y0012350D02*
X0022100Y0012500D01*
X0022250Y0012150D02*
Y0012350D01*
X0022100Y0012000D02*
X0022250Y0012150D01*
X0021900Y0012000D02*
X0022100D01*
X0021750Y0012150D02*
X0021900Y0012000D01*
X0025500Y0013600D02*
Y0013400D01*
X0025650Y0013750D02*
X0025500Y0013600D01*
X0025850Y0013750D02*
X0025650D01*
X0026000Y0013600D02*
X0025850Y0013750D01*
X0026000Y0013400D02*
Y0013600D01*
X0025850Y0013250D02*
X0026000Y0013400D01*
X0025650Y0013250D02*
X0025850D01*
X0025500Y0013400D02*
X0025650Y0013250D01*
X0025500Y0013100D02*
Y0012900D01*
X0025650Y0013250D02*
X0025500Y0013100D01*
X0025850Y0013250D02*
X0025650D01*
X0026000Y0013100D02*
X0025850Y0013250D01*
X0026000Y0012900D02*
Y0013100D01*
X0025850Y0012750D02*
X0026000Y0012900D01*
X0025650Y0012750D02*
X0025850D01*
X0025500Y0012900D02*
X0025650Y0012750D01*
X0026700Y0012070D02*
Y0011870D01*
X0026850Y0012220D02*
X0026700Y0012070D01*
X0027050Y0012220D02*
X0026850D01*
X0027200Y0012070D02*
X0027050Y0012220D01*
X0027200Y0011870D02*
Y0012070D01*
X0027050Y0011720D02*
X0027200Y0011870D01*
X0026850Y0011720D02*
X0027050D01*
X0026700Y0011870D02*
X0026850Y0011720D01*
X0031200Y0012500D02*
Y0012300D01*
X0031350Y0012650D02*
X0031200Y0012500D01*
X0031550Y0012650D02*
X0031350D01*
X0031700Y0012500D02*
X0031550Y0012650D01*
X0031700Y0012300D02*
Y0012500D01*
X0031550Y0012150D02*
X0031700Y0012300D01*
X0031350Y0012150D02*
X0031550D01*
X0031200Y0012300D02*
X0031350Y0012150D01*
X0032500Y0011350D02*
Y0011150D01*
X0032650Y0011500D02*
X0032500Y0011350D01*
X0032850Y0011500D02*
X0032650D01*
X0033000Y0011350D02*
X0032850Y0011500D01*
X0033000Y0011150D02*
Y0011350D01*
X0032850Y0011000D02*
X0033000Y0011150D01*
X0032650Y0011000D02*
X0032850D01*
X0032500Y0011150D02*
X0032650Y0011000D01*
X0033250Y0011300D02*
Y0011100D01*
X0033400Y0011450D02*
X0033250Y0011300D01*
X0033600Y0011450D02*
X0033400D01*
X0033750Y0011300D02*
X0033600Y0011450D01*
X0033750Y0011100D02*
Y0011300D01*
X0033600Y0010950D02*
X0033750Y0011100D01*
X0033400Y0010950D02*
X0033600D01*
X0033250Y0011100D02*
X0033400Y0010950D01*
X0033700Y0012070D02*
Y0011870D01*
X0033850Y0012220D02*
X0033700Y0012070D01*
X0034050Y0012220D02*
X0033850D01*
X0034200Y0012070D02*
X0034050Y0012220D01*
X0034200Y0011870D02*
Y0012070D01*
X0034050Y0011720D02*
X0034200Y0011870D01*
X0033850Y0011720D02*
X0034050D01*
X0033700Y0011870D02*
X0033850Y0011720D01*
X0032550Y0013050D02*
Y0012850D01*
X0032700Y0013200D02*
X0032550Y0013050D01*
X0032900Y0013200D02*
X0032700D01*
X0033050Y0013050D02*
X0032900Y0013200D01*
X0033050Y0012850D02*
Y0013050D01*
X0032900Y0012700D02*
X0033050Y0012850D01*
X0032700Y0012700D02*
X0032900D01*
X0032550Y0012850D02*
X0032700Y0012700D01*
X0033250Y0011300D02*
Y0011100D01*
X0033400Y0011450D02*
X0033250Y0011300D01*
X0033600Y0011450D02*
X0033400D01*
X0033750Y0011300D02*
X0033600Y0011450D01*
X0033750Y0011100D02*
Y0011300D01*
X0033600Y0010950D02*
X0033750Y0011100D01*
X0033400Y0010950D02*
X0033600D01*
X0033250Y0011100D02*
X0033400Y0010950D01*
X0033700Y0012070D02*
Y0011870D01*
X0033850Y0012220D02*
X0033700Y0012070D01*
X0034050Y0012220D02*
X0033850D01*
X0034200Y0012070D02*
X0034050Y0012220D01*
X0034200Y0011870D02*
Y0012070D01*
X0034050Y0011720D02*
X0034200Y0011870D01*
X0033850Y0011720D02*
X0034050D01*
X0033700Y0011870D02*
X0033850Y0011720D01*
X0025500Y0013100D02*
Y0012900D01*
X0025650Y0013250D02*
X0025500Y0013100D01*
X0025850Y0013250D02*
X0025650D01*
X0026000Y0013100D02*
X0025850Y0013250D01*
X0026000Y0012900D02*
Y0013100D01*
X0025850Y0012750D02*
X0026000Y0012900D01*
X0025650Y0012750D02*
X0025850D01*
X0025500Y0012900D02*
X0025650Y0012750D01*
X0026700Y0012070D02*
Y0011870D01*
X0026850Y0012220D02*
X0026700Y0012070D01*
X0027050Y0012220D02*
X0026850D01*
X0027200Y0012070D02*
X0027050Y0012220D01*
X0027200Y0011870D02*
Y0012070D01*
X0027050Y0011720D02*
X0027200Y0011870D01*
X0026850Y0011720D02*
X0027050D01*
X0026700Y0011870D02*
X0026850Y0011720D01*
X0032550Y0013050D02*
Y0012850D01*
X0032700Y0013200D02*
X0032550Y0013050D01*
X0032900Y0013200D02*
X0032700D01*
X0033050Y0013050D02*
X0032900Y0013200D01*
X0033050Y0012850D02*
Y0013050D01*
X0032900Y0012700D02*
X0033050Y0012850D01*
X0032700Y0012700D02*
X0032900D01*
X0032550Y0012850D02*
X0032700Y0012700D01*
X0031200Y0012500D02*
Y0012300D01*
X0031350Y0012650D02*
X0031200Y0012500D01*
X0031550Y0012650D02*
X0031350D01*
X0031700Y0012500D02*
X0031550Y0012650D01*
X0031700Y0012300D02*
Y0012500D01*
X0031550Y0012150D02*
X0031700Y0012300D01*
X0031350Y0012150D02*
X0031550D01*
X0031200Y0012300D02*
X0031350Y0012150D01*
X0009000Y0013100D02*
Y0012900D01*
X0009150Y0013250D02*
X0009000Y0013100D01*
X0009350Y0013250D02*
X0009150D01*
X0009500Y0013100D02*
X0009350Y0013250D01*
X0009500Y0012900D02*
Y0013100D01*
X0009350Y0012750D02*
X0009500Y0012900D01*
X0009150Y0012750D02*
X0009350D01*
X0009000Y0012900D02*
X0009150Y0012750D01*
X0007750Y0012150D02*
Y0011950D01*
X0007900Y0012300D02*
X0007750Y0012150D01*
X0008100Y0012300D02*
X0007900D01*
X0008250Y0012150D02*
X0008100Y0012300D01*
X0008250Y0011950D02*
Y0012150D01*
X0008100Y0011800D02*
X0008250Y0011950D01*
X0007900Y0011800D02*
X0008100D01*
X0007750Y0011950D02*
X0007900Y0011800D01*
X0060250Y0007250D02*
Y0007050D01*
X0060400Y0007400D02*
X0060250Y0007250D01*
X0060600Y0007400D02*
X0060400D01*
X0060750Y0007250D02*
X0060600Y0007400D01*
X0060750Y0007050D02*
Y0007250D01*
X0060600Y0006900D02*
X0060750Y0007050D01*
X0060400Y0006900D02*
X0060600D01*
X0060250Y0007050D02*
X0060400Y0006900D01*
X0059250Y0007400D02*
Y0007200D01*
X0059400Y0007550D02*
X0059250Y0007400D01*
X0059600Y0007550D02*
X0059400D01*
X0059750Y0007400D02*
X0059600Y0007550D01*
X0059750Y0007200D02*
Y0007400D01*
X0059600Y0007050D02*
X0059750Y0007200D01*
X0059400Y0007050D02*
X0059600D01*
X0059250Y0007200D02*
X0059400Y0007050D01*
X0046650Y0003230D02*
Y0003030D01*
X0046800Y0003380D02*
X0046650Y0003230D01*
X0047000Y0003380D02*
X0046800D01*
X0047150Y0003230D02*
X0047000Y0003380D01*
X0047150Y0003030D02*
Y0003230D01*
X0047000Y0002880D02*
X0047150Y0003030D01*
X0046800Y0002880D02*
X0047000D01*
X0046650Y0003030D02*
X0046800Y0002880D01*
X0048000Y0001700D02*
Y0001500D01*
X0048150Y0001850D02*
X0048000Y0001700D01*
X0048350Y0001850D02*
X0048150D01*
X0048500Y0001700D02*
X0048350Y0001850D01*
X0048500Y0001500D02*
Y0001700D01*
X0048350Y0001350D02*
X0048500Y0001500D01*
X0048150Y0001350D02*
X0048350D01*
X0048000Y0001500D02*
X0048150Y0001350D01*
X0048000Y0001700D02*
Y0001500D01*
X0048150Y0001850D02*
X0048000Y0001700D01*
X0048350Y0001850D02*
X0048150D01*
X0048500Y0001700D02*
X0048350Y0001850D01*
X0048500Y0001500D02*
Y0001700D01*
X0048350Y0001350D02*
X0048500Y0001500D01*
X0048150Y0001350D02*
X0048350D01*
X0048000Y0001500D02*
X0048150Y0001350D01*
X0055250Y-0001400D02*
Y-0001600D01*
X0055400Y-0001250D02*
X0055250Y-0001400D01*
X0055600Y-0001250D02*
X0055400D01*
X0055750Y-0001400D02*
X0055600Y-0001250D01*
X0055750Y-0001600D02*
Y-0001400D01*
X0055600Y-0001750D02*
X0055750Y-0001600D01*
X0055400Y-0001750D02*
X0055600D01*
X0055250Y-0001600D02*
X0055400Y-0001750D01*
X0053250Y-0001400D02*
Y-0001600D01*
X0053400Y-0001250D02*
X0053250Y-0001400D01*
X0053600Y-0001250D02*
X0053400D01*
X0053750Y-0001400D02*
X0053600Y-0001250D01*
X0053750Y-0001600D02*
Y-0001400D01*
X0053600Y-0001750D02*
X0053750Y-0001600D01*
X0053400Y-0001750D02*
X0053600D01*
X0053250Y-0001600D02*
X0053400Y-0001750D01*
X0051750Y0000700D02*
Y0000500D01*
X0051900Y0000850D02*
X0051750Y0000700D01*
X0052100Y0000850D02*
X0051900D01*
X0052250Y0000700D02*
X0052100Y0000850D01*
X0052250Y0000500D02*
Y0000700D01*
X0052100Y0000350D02*
X0052250Y0000500D01*
X0051900Y0000350D02*
X0052100D01*
X0051750Y0000500D02*
X0051900Y0000350D01*
X0059250Y0007400D02*
Y0007200D01*
X0059400Y0007550D02*
X0059250Y0007400D01*
X0059600Y0007550D02*
X0059400D01*
X0059750Y0007400D02*
X0059600Y0007550D01*
X0059750Y0007200D02*
Y0007400D01*
X0059600Y0007050D02*
X0059750Y0007200D01*
X0059400Y0007050D02*
X0059600D01*
X0059250Y0007200D02*
X0059400Y0007050D01*
X0058250Y0007250D02*
Y0007050D01*
X0058400Y0007400D02*
X0058250Y0007250D01*
X0058600Y0007400D02*
X0058400D01*
X0058750Y0007250D02*
X0058600Y0007400D01*
X0058750Y0007050D02*
Y0007250D01*
X0058600Y0006900D02*
X0058750Y0007050D01*
X0058400Y0006900D02*
X0058600D01*
X0058250Y0007050D02*
X0058400Y0006900D01*
X0004000Y0008100D02*
Y0007900D01*
X0004150Y0008250D02*
X0004000Y0008100D01*
X0004350Y0008250D02*
X0004150D01*
X0004500Y0008100D02*
X0004350Y0008250D01*
X0004500Y0007900D02*
Y0008100D01*
X0004350Y0007750D02*
X0004500Y0007900D01*
X0004150Y0007750D02*
X0004350D01*
X0004000Y0007900D02*
X0004150Y0007750D01*
X0004750Y0008100D02*
Y0007900D01*
X0004900Y0008250D02*
X0004750Y0008100D01*
X0005100Y0008250D02*
X0004900D01*
X0005250Y0008100D02*
X0005100Y0008250D01*
X0005250Y0007900D02*
Y0008100D01*
X0005100Y0007750D02*
X0005250Y0007900D01*
X0004900Y0007750D02*
X0005100D01*
X0004750Y0007900D02*
X0004900Y0007750D01*
X0067700Y0001320D02*
Y0001120D01*
X0067850Y0001470D02*
X0067700Y0001320D01*
X0068050Y0001470D02*
X0067850D01*
X0068200Y0001320D02*
X0068050Y0001470D01*
X0068200Y0001120D02*
Y0001320D01*
X0068050Y0000970D02*
X0068200Y0001120D01*
X0067850Y0000970D02*
X0068050D01*
X0067700Y0001120D02*
X0067850Y0000970D01*
X0067250Y-0001150D02*
Y-0001350D01*
X0067400Y-0001000D02*
X0067250Y-0001150D01*
X0067600Y-0001000D02*
X0067400D01*
X0067750Y-0001150D02*
X0067600Y-0001000D01*
X0067750Y-0001350D02*
Y-0001150D01*
X0067600Y-0001500D02*
X0067750Y-0001350D01*
X0067400Y-0001500D02*
X0067600D01*
X0067250Y-0001350D02*
X0067400Y-0001500D01*
X0058250Y0007250D02*
Y0007050D01*
X0058400Y0007400D02*
X0058250Y0007250D01*
X0058600Y0007400D02*
X0058400D01*
X0058750Y0007250D02*
X0058600Y0007400D01*
X0058750Y0007050D02*
Y0007250D01*
X0058600Y0006900D02*
X0058750Y0007050D01*
X0058400Y0006900D02*
X0058600D01*
X0058250Y0007050D02*
X0058400Y0006900D01*
X0067250Y-0001150D02*
Y-0001350D01*
X0067400Y-0001000D02*
X0067250Y-0001150D01*
X0067600Y-0001000D02*
X0067400D01*
X0067750Y-0001150D02*
X0067600Y-0001000D01*
X0067750Y-0001350D02*
Y-0001150D01*
X0067600Y-0001500D02*
X0067750Y-0001350D01*
X0067400Y-0001500D02*
X0067600D01*
X0067250Y-0001350D02*
X0067400Y-0001500D01*
X0023500Y0003850D02*
Y0003650D01*
X0023650Y0004000D02*
X0023500Y0003850D01*
X0023850Y0004000D02*
X0023650D01*
X0024000Y0003850D02*
X0023850Y0004000D01*
X0024000Y0003650D02*
Y0003850D01*
X0023850Y0003500D02*
X0024000Y0003650D01*
X0023650Y0003500D02*
X0023850D01*
X0023500Y0003650D02*
X0023650Y0003500D01*
X0023500Y0003850D02*
Y0003650D01*
X0023650Y0004000D02*
X0023500Y0003850D01*
X0023850Y0004000D02*
X0023650D01*
X0024000Y0003850D02*
X0023850Y0004000D01*
X0024000Y0003650D02*
Y0003850D01*
X0023850Y0003500D02*
X0024000Y0003650D01*
X0023650Y0003500D02*
X0023850D01*
X0023500Y0003650D02*
X0023650Y0003500D01*
X0003600Y0007980D02*
Y0007780D01*
X0003750Y0008130D02*
X0003600Y0007980D01*
X0003950Y0008130D02*
X0003750D01*
X0004100Y0007980D02*
X0003950Y0008130D01*
X0004100Y0007780D02*
Y0007980D01*
X0003950Y0007630D02*
X0004100Y0007780D01*
X0003750Y0007630D02*
X0003950D01*
X0003600Y0007780D02*
X0003750Y0007630D01*
X0055800Y0006300D02*
Y0006100D01*
X0055950Y0006450D02*
X0055800Y0006300D01*
X0056150Y0006450D02*
X0055950D01*
X0056300Y0006300D02*
X0056150Y0006450D01*
X0056300Y0006100D02*
Y0006300D01*
X0056150Y0005950D02*
X0056300Y0006100D01*
X0055950Y0005950D02*
X0056150D01*
X0055800Y0006100D02*
X0055950Y0005950D01*
X0054700Y0007500D02*
Y0007300D01*
X0054850Y0007650D02*
X0054700Y0007500D01*
X0055050Y0007650D02*
X0054850D01*
X0055200Y0007500D02*
X0055050Y0007650D01*
X0055200Y0007300D02*
Y0007500D01*
X0055050Y0007150D02*
X0055200Y0007300D01*
X0054850Y0007150D02*
X0055050D01*
X0054700Y0007300D02*
X0054850Y0007150D01*
X0001950Y0008180D02*
Y0007980D01*
X0002100Y0008330D02*
X0001950Y0008180D01*
X0002300Y0008330D02*
X0002100D01*
X0002450Y0008180D02*
X0002300Y0008330D01*
X0002450Y0007980D02*
Y0008180D01*
X0002300Y0007830D02*
X0002450Y0007980D01*
X0002100Y0007830D02*
X0002300D01*
X0001950Y0007980D02*
X0002100Y0007830D01*
X0004000Y0008100D02*
Y0007900D01*
X0004150Y0008250D02*
X0004000Y0008100D01*
X0004350Y0008250D02*
X0004150D01*
X0004500Y0008100D02*
X0004350Y0008250D01*
X0004500Y0007900D02*
Y0008100D01*
X0004350Y0007750D02*
X0004500Y0007900D01*
X0004150Y0007750D02*
X0004350D01*
X0004000Y0007900D02*
X0004150Y0007750D01*
X0003600Y0007980D02*
Y0007780D01*
X0003750Y0008130D02*
X0003600Y0007980D01*
X0003950Y0008130D02*
X0003750D01*
X0004100Y0007980D02*
X0003950Y0008130D01*
X0004100Y0007780D02*
Y0007980D01*
X0003950Y0007630D02*
X0004100Y0007780D01*
X0003750Y0007630D02*
X0003950D01*
X0003600Y0007780D02*
X0003750Y0007630D01*
X0008200Y0009500D02*
Y0009300D01*
X0008350Y0009650D02*
X0008200Y0009500D01*
X0008550Y0009650D02*
X0008350D01*
X0008700Y0009500D02*
X0008550Y0009650D01*
X0008700Y0009300D02*
Y0009500D01*
X0008550Y0009150D02*
X0008700Y0009300D01*
X0008350Y0009150D02*
X0008550D01*
X0008200Y0009300D02*
X0008350Y0009150D01*
X0004750Y0008100D02*
Y0007900D01*
X0004900Y0008250D02*
X0004750Y0008100D01*
X0005100Y0008250D02*
X0004900D01*
X0005250Y0008100D02*
X0005100Y0008250D01*
X0005250Y0007900D02*
Y0008100D01*
X0005100Y0007750D02*
X0005250Y0007900D01*
X0004900Y0007750D02*
X0005100D01*
X0004750Y0007900D02*
X0004900Y0007750D01*
X0005750Y0008050D02*
Y0007850D01*
X0005900Y0008200D02*
X0005750Y0008050D01*
X0006100Y0008200D02*
X0005900D01*
X0006250Y0008050D02*
X0006100Y0008200D01*
X0006250Y0007850D02*
Y0008050D01*
X0006100Y0007700D02*
X0006250Y0007850D01*
X0005900Y0007700D02*
X0006100D01*
X0005750Y0007850D02*
X0005900Y0007700D01*
X0068550Y-0001300D02*
Y-0001500D01*
X0068700Y-0001150D02*
X0068550Y-0001300D01*
X0068900Y-0001150D02*
X0068700D01*
X0069050Y-0001300D02*
X0068900Y-0001150D01*
X0069050Y-0001500D02*
Y-0001300D01*
X0068900Y-0001650D02*
X0069050Y-0001500D01*
X0068700Y-0001650D02*
X0068900D01*
X0068550Y-0001500D02*
X0068700Y-0001650D01*
X0067250Y-0001150D02*
Y-0001350D01*
X0067400Y-0001000D02*
X0067250Y-0001150D01*
X0067600Y-0001000D02*
X0067400D01*
X0067750Y-0001150D02*
X0067600Y-0001000D01*
X0067750Y-0001350D02*
Y-0001150D01*
X0067600Y-0001500D02*
X0067750Y-0001350D01*
X0067400Y-0001500D02*
X0067600D01*
X0067250Y-0001350D02*
X0067400Y-0001500D01*
X0063450Y-0000430D02*
Y-0000630D01*
X0063600Y-0000280D02*
X0063450Y-0000430D01*
X0063800Y-0000280D02*
X0063600D01*
X0063950Y-0000430D02*
X0063800Y-0000280D01*
X0063950Y-0000630D02*
Y-0000430D01*
X0063800Y-0000780D02*
X0063950Y-0000630D01*
X0063600Y-0000780D02*
X0063800D01*
X0063450Y-0000630D02*
X0063600Y-0000780D01*
X0069930Y0004650D02*
Y0004450D01*
X0070080Y0004800D02*
X0069930Y0004650D01*
X0070280Y0004800D02*
X0070080D01*
X0070430Y0004650D02*
X0070280Y0004800D01*
X0070430Y0004450D02*
Y0004650D01*
X0070280Y0004300D02*
X0070430Y0004450D01*
X0070080Y0004300D02*
X0070280D01*
X0069930Y0004450D02*
X0070080Y0004300D01*
X0067500Y0004220D02*
Y0004020D01*
X0067650Y0004370D02*
X0067500Y0004220D01*
X0067850Y0004370D02*
X0067650D01*
X0068000Y0004220D02*
X0067850Y0004370D01*
X0068000Y0004020D02*
Y0004220D01*
X0067850Y0003870D02*
X0068000Y0004020D01*
X0067650Y0003870D02*
X0067850D01*
X0067500Y0004020D02*
X0067650Y0003870D01*
X0069050Y0001200D02*
Y0001000D01*
X0069200Y0001350D02*
X0069050Y0001200D01*
X0069400Y0001350D02*
X0069200D01*
X0069550Y0001200D02*
X0069400Y0001350D01*
X0069550Y0001000D02*
Y0001200D01*
X0069400Y0000850D02*
X0069550Y0001000D01*
X0069200Y0000850D02*
X0069400D01*
X0069050Y0001000D02*
X0069200Y0000850D01*
X0067700Y0001320D02*
Y0001120D01*
X0067850Y0001470D02*
X0067700Y0001320D01*
X0068050Y0001470D02*
X0067850D01*
X0068200Y0001320D02*
X0068050Y0001470D01*
X0068200Y0001120D02*
Y0001320D01*
X0068050Y0000970D02*
X0068200Y0001120D01*
X0067850Y0000970D02*
X0068050D01*
X0067700Y0001120D02*
X0067850Y0000970D01*
X0054700Y0007500D02*
Y0007300D01*
X0054850Y0007650D02*
X0054700Y0007500D01*
X0055050Y0007650D02*
X0054850D01*
X0055200Y0007500D02*
X0055050Y0007650D01*
X0055200Y0007300D02*
Y0007500D01*
X0055050Y0007150D02*
X0055200Y0007300D01*
X0054850Y0007150D02*
X0055050D01*
X0054700Y0007300D02*
X0054850Y0007150D01*
X0054040Y0006450D02*
Y0006250D01*
X0054190Y0006600D02*
X0054040Y0006450D01*
X0054390Y0006600D02*
X0054190D01*
X0054540Y0006450D02*
X0054390Y0006600D01*
X0054540Y0006250D02*
Y0006450D01*
X0054390Y0006100D02*
X0054540Y0006250D01*
X0054190Y0006100D02*
X0054390D01*
X0054040Y0006250D02*
X0054190Y0006100D01*
X0054040Y0006450D02*
Y0006250D01*
X0054190Y0006600D02*
X0054040Y0006450D01*
X0054390Y0006600D02*
X0054190D01*
X0054540Y0006450D02*
X0054390Y0006600D01*
X0054540Y0006250D02*
Y0006450D01*
X0054390Y0006100D02*
X0054540Y0006250D01*
X0054190Y0006100D02*
X0054390D01*
X0054040Y0006250D02*
X0054190Y0006100D01*
X0037750Y0004350D02*
Y0004150D01*
X0037900Y0004500D02*
X0037750Y0004350D01*
X0038100Y0004500D02*
X0037900D01*
X0038250Y0004350D02*
X0038100Y0004500D01*
X0038250Y0004150D02*
Y0004350D01*
X0038100Y0004000D02*
X0038250Y0004150D01*
X0037900Y0004000D02*
X0038100D01*
X0037750Y0004150D02*
X0037900Y0004000D01*
X0036750Y0004950D02*
Y0004750D01*
X0036900Y0005100D02*
X0036750Y0004950D01*
X0037100Y0005100D02*
X0036900D01*
X0037250Y0004950D02*
X0037100Y0005100D01*
X0037250Y0004750D02*
Y0004950D01*
X0037100Y0004600D02*
X0037250Y0004750D01*
X0036900Y0004600D02*
X0037100D01*
X0036750Y0004750D02*
X0036900Y0004600D01*
X0009000Y0013100D02*
Y0012900D01*
X0009150Y0013250D02*
X0009000Y0013100D01*
X0009350Y0013250D02*
X0009150D01*
X0009500Y0013100D02*
X0009350Y0013250D01*
X0009500Y0012900D02*
Y0013100D01*
X0009350Y0012750D02*
X0009500Y0012900D01*
X0009150Y0012750D02*
X0009350D01*
X0009000Y0012900D02*
X0009150Y0012750D01*
X0050600Y0003956D02*
Y0003756D01*
X0050750Y0004106D02*
X0050600Y0003956D01*
X0050950Y0004106D02*
X0050750D01*
X0051100Y0003956D02*
X0050950Y0004106D01*
X0051100Y0003756D02*
Y0003956D01*
X0050950Y0003606D02*
X0051100Y0003756D01*
X0050750Y0003606D02*
X0050950D01*
X0050600Y0003756D02*
X0050750Y0003606D01*
X0050465Y0006400D02*
Y0006200D01*
X0050615Y0006550D02*
X0050465Y0006400D01*
X0050815Y0006550D02*
X0050615D01*
X0050965Y0006400D02*
X0050815Y0006550D01*
X0050965Y0006200D02*
Y0006400D01*
X0050815Y0006050D02*
X0050965Y0006200D01*
X0050615Y0006050D02*
X0050815D01*
X0050465Y0006200D02*
X0050615Y0006050D01*
X0003100Y0009550D02*
Y0009350D01*
X0003250Y0009700D02*
X0003100Y0009550D01*
X0003450Y0009700D02*
X0003250D01*
X0003600Y0009550D02*
X0003450Y0009700D01*
X0003600Y0009350D02*
Y0009550D01*
X0003450Y0009200D02*
X0003600Y0009350D01*
X0003250Y0009200D02*
X0003450D01*
X0003100Y0009350D02*
X0003250Y0009200D01*
X0002950Y0006450D02*
Y0006250D01*
X0003100Y0006600D02*
X0002950Y0006450D01*
X0003300Y0006600D02*
X0003100D01*
X0003450Y0006450D02*
X0003300Y0006600D01*
X0003450Y0006250D02*
Y0006450D01*
X0003300Y0006100D02*
X0003450Y0006250D01*
X0003100Y0006100D02*
X0003300D01*
X0002950Y0006250D02*
X0003100Y0006100D01*
X0006500Y0013100D02*
Y0012900D01*
X0006650Y0013250D02*
X0006500Y0013100D01*
X0006850Y0013250D02*
X0006650D01*
X0007000Y0013100D02*
X0006850Y0013250D01*
X0007000Y0012900D02*
Y0013100D01*
X0006850Y0012750D02*
X0007000Y0012900D01*
X0006650Y0012750D02*
X0006850D01*
X0006500Y0012900D02*
X0006650Y0012750D01*
X0003000Y0000950D02*
Y0000750D01*
X0003150Y0001100D02*
X0003000Y0000950D01*
X0003350Y0001100D02*
X0003150D01*
X0003500Y0000950D02*
X0003350Y0001100D01*
X0003500Y0000750D02*
Y0000950D01*
X0003350Y0000600D02*
X0003500Y0000750D01*
X0003150Y0000600D02*
X0003350D01*
X0003000Y0000750D02*
X0003150Y0000600D01*
X0004750Y0001000D02*
Y0000800D01*
X0004900Y0001150D02*
X0004750Y0001000D01*
X0005100Y0001150D02*
X0004900D01*
X0005250Y0001000D02*
X0005100Y0001150D01*
X0005250Y0000800D02*
Y0001000D01*
X0005100Y0000650D02*
X0005250Y0000800D01*
X0004900Y0000650D02*
X0005100D01*
X0004750Y0000800D02*
X0004900Y0000650D01*
X0033750Y0006850D02*
Y0006650D01*
X0033900Y0007000D02*
X0033750Y0006850D01*
X0034100Y0007000D02*
X0033900D01*
X0034250Y0006850D02*
X0034100Y0007000D01*
X0034250Y0006650D02*
Y0006850D01*
X0034100Y0006500D02*
X0034250Y0006650D01*
X0033900Y0006500D02*
X0034100D01*
X0033750Y0006650D02*
X0033900Y0006500D01*
X0033750Y0008450D02*
Y0008250D01*
X0033900Y0008600D02*
X0033750Y0008450D01*
X0034100Y0008600D02*
X0033900D01*
X0034250Y0008450D02*
X0034100Y0008600D01*
X0034250Y0008250D02*
Y0008450D01*
X0034100Y0008100D02*
X0034250Y0008250D01*
X0033900Y0008100D02*
X0034100D01*
X0033750Y0008250D02*
X0033900Y0008100D01*
X0022550Y0004650D02*
Y0004450D01*
X0022700Y0004800D02*
X0022550Y0004650D01*
X0022900Y0004800D02*
X0022700D01*
X0023050Y0004650D02*
X0022900Y0004800D01*
X0023050Y0004450D02*
Y0004650D01*
X0022900Y0004300D02*
X0023050Y0004450D01*
X0022700Y0004300D02*
X0022900D01*
X0022550Y0004450D02*
X0022700Y0004300D01*
X0025450Y0004650D02*
Y0004450D01*
X0025600Y0004800D02*
X0025450Y0004650D01*
X0025800Y0004800D02*
X0025600D01*
X0025950Y0004650D02*
X0025800Y0004800D01*
X0025950Y0004450D02*
Y0004650D01*
X0025800Y0004300D02*
X0025950Y0004450D01*
X0025600Y0004300D02*
X0025800D01*
X0025450Y0004450D02*
X0025600Y0004300D01*
X0004550Y0002300D02*
Y0002100D01*
X0004700Y0002450D02*
X0004550Y0002300D01*
X0004900Y0002450D02*
X0004700D01*
X0005050Y0002300D02*
X0004900Y0002450D01*
X0005050Y0002100D02*
Y0002300D01*
X0004900Y0001950D02*
X0005050Y0002100D01*
X0004700Y0001950D02*
X0004900D01*
X0004550Y0002100D02*
X0004700Y0001950D01*
X0006750Y0003150D02*
Y0002950D01*
X0006900Y0003300D02*
X0006750Y0003150D01*
X0007100Y0003300D02*
X0006900D01*
X0007250Y0003150D02*
X0007100Y0003300D01*
X0007250Y0002950D02*
Y0003150D01*
X0007100Y0002800D02*
X0007250Y0002950D01*
X0006900Y0002800D02*
X0007100D01*
X0006750Y0002950D02*
X0006900Y0002800D01*
X0005500Y0003149D02*
Y0002949D01*
X0005650Y0003299D02*
X0005500Y0003149D01*
X0005850Y0003299D02*
X0005650D01*
X0006000Y0003149D02*
X0005850Y0003299D01*
X0006000Y0002949D02*
Y0003149D01*
X0005850Y0002799D02*
X0006000Y0002949D01*
X0005650Y0002799D02*
X0005850D01*
X0005500Y0002949D02*
X0005650Y0002799D01*
X0004750Y0001000D02*
Y0000800D01*
X0004900Y0001150D02*
X0004750Y0001000D01*
X0005100Y0001150D02*
X0004900D01*
X0005250Y0001000D02*
X0005100Y0001150D01*
X0005250Y0000800D02*
Y0001000D01*
X0005100Y0000650D02*
X0005250Y0000800D01*
X0004900Y0000650D02*
X0005100D01*
X0004750Y0000800D02*
X0004900Y0000650D01*
X0001734Y0002616D02*
Y0002416D01*
X0001884Y0002766D02*
X0001734Y0002616D01*
X0002084Y0002766D02*
X0001884D01*
X0002234Y0002616D02*
X0002084Y0002766D01*
X0002234Y0002416D02*
Y0002616D01*
X0002084Y0002266D02*
X0002234Y0002416D01*
X0001884Y0002266D02*
X0002084D01*
X0001734Y0002416D02*
X0001884Y0002266D01*
X0002950Y0002300D02*
Y0002100D01*
X0003100Y0002450D02*
X0002950Y0002300D01*
X0003300Y0002450D02*
X0003100D01*
X0003450Y0002300D02*
X0003300Y0002450D01*
X0003450Y0002100D02*
Y0002300D01*
X0003300Y0001950D02*
X0003450Y0002100D01*
X0003100Y0001950D02*
X0003300D01*
X0002950Y0002100D02*
X0003100Y0001950D01*
X0019250Y0011100D02*
Y0010900D01*
X0019400Y0011250D02*
X0019250Y0011100D01*
X0019600Y0011250D02*
X0019400D01*
X0019750Y0011100D02*
X0019600Y0011250D01*
X0019750Y0010900D02*
Y0011100D01*
X0019600Y0010750D02*
X0019750Y0010900D01*
X0019400Y0010750D02*
X0019600D01*
X0019250Y0010900D02*
X0019400Y0010750D01*
X0008600Y0011250D02*
Y0011050D01*
X0008750Y0011400D02*
X0008600Y0011250D01*
X0008950Y0011400D02*
X0008750D01*
X0009100Y0011250D02*
X0008950Y0011400D01*
X0009100Y0011050D02*
Y0011250D01*
X0008950Y0010900D02*
X0009100Y0011050D01*
X0008750Y0010900D02*
X0008950D01*
X0008600Y0011050D02*
X0008750Y0010900D01*
X0022550Y0004650D02*
Y0004450D01*
X0022700Y0004800D02*
X0022550Y0004650D01*
X0022900Y0004800D02*
X0022700D01*
X0023050Y0004650D02*
X0022900Y0004800D01*
X0023050Y0004450D02*
Y0004650D01*
X0022900Y0004300D02*
X0023050Y0004450D01*
X0022700Y0004300D02*
X0022900D01*
X0022550Y0004450D02*
X0022700Y0004300D01*
X0021750Y0010750D02*
Y0010550D01*
X0021900Y0010900D02*
X0021750Y0010750D01*
X0022100Y0010900D02*
X0021900D01*
X0022250Y0010750D02*
X0022100Y0010900D01*
X0022250Y0010550D02*
Y0010750D01*
X0022100Y0010400D02*
X0022250Y0010550D01*
X0021900Y0010400D02*
X0022100D01*
X0021750Y0010550D02*
X0021900Y0010400D01*
X0030500Y0011350D02*
Y0011150D01*
X0030650Y0011500D02*
X0030500Y0011350D01*
X0030850Y0011500D02*
X0030650D01*
X0031000Y0011350D02*
X0030850Y0011500D01*
X0031000Y0011150D02*
Y0011350D01*
X0030850Y0011000D02*
X0031000Y0011150D01*
X0030650Y0011000D02*
X0030850D01*
X0030500Y0011150D02*
X0030650Y0011000D01*
X0028550Y0011350D02*
Y0011150D01*
X0028700Y0011500D02*
X0028550Y0011350D01*
X0028900Y0011500D02*
X0028700D01*
X0029050Y0011350D02*
X0028900Y0011500D01*
X0029050Y0011150D02*
Y0011350D01*
X0028900Y0011000D02*
X0029050Y0011150D01*
X0028700Y0011000D02*
X0028900D01*
X0028550Y0011150D02*
X0028700Y0011000D01*
X0001734Y0002616D02*
Y0002416D01*
X0001884Y0002766D02*
X0001734Y0002616D01*
X0002084Y0002766D02*
X0001884D01*
X0002234Y0002616D02*
X0002084Y0002766D01*
X0002234Y0002416D02*
Y0002616D01*
X0002084Y0002266D02*
X0002234Y0002416D01*
X0001884Y0002266D02*
X0002084D01*
X0001734Y0002416D02*
X0001884Y0002266D01*
X0030500Y0011350D02*
Y0011150D01*
X0030650Y0011500D02*
X0030500Y0011350D01*
X0030850Y0011500D02*
X0030650D01*
X0031000Y0011350D02*
X0030850Y0011500D01*
X0031000Y0011150D02*
Y0011350D01*
X0030850Y0011000D02*
X0031000Y0011150D01*
X0030650Y0011000D02*
X0030850D01*
X0030500Y0011150D02*
X0030650Y0011000D01*
X0030150Y0012950D02*
Y0012750D01*
X0030300Y0013100D02*
X0030150Y0012950D01*
X0030500Y0013100D02*
X0030300D01*
X0030650Y0012950D02*
X0030500Y0013100D01*
X0030650Y0012750D02*
Y0012950D01*
X0030500Y0012600D02*
X0030650Y0012750D01*
X0030300Y0012600D02*
X0030500D01*
X0030150Y0012750D02*
X0030300Y0012600D01*
X0024800Y0006380D02*
Y0006180D01*
X0024950Y0006530D02*
X0024800Y0006380D01*
X0025150Y0006530D02*
X0024950D01*
X0025300Y0006380D02*
X0025150Y0006530D01*
X0025300Y0006180D02*
Y0006380D01*
X0025150Y0006030D02*
X0025300Y0006180D01*
X0024950Y0006030D02*
X0025150D01*
X0024800Y0006180D02*
X0024950Y0006030D01*
X0024800Y0007070D02*
Y0006870D01*
X0024950Y0007220D02*
X0024800Y0007070D01*
X0025150Y0007220D02*
X0024950D01*
X0025300Y0007070D02*
X0025150Y0007220D01*
X0025300Y0006870D02*
Y0007070D01*
X0025150Y0006720D02*
X0025300Y0006870D01*
X0024950Y0006720D02*
X0025150D01*
X0024800Y0006870D02*
X0024950Y0006720D01*
X0030500Y0011350D02*
Y0011150D01*
X0030650Y0011500D02*
X0030500Y0011350D01*
X0030850Y0011500D02*
X0030650D01*
X0031000Y0011350D02*
X0030850Y0011500D01*
X0031000Y0011150D02*
Y0011350D01*
X0030850Y0011000D02*
X0031000Y0011150D01*
X0030650Y0011000D02*
X0030850D01*
X0030500Y0011150D02*
X0030650Y0011000D01*
X0024300Y0011350D02*
Y0011150D01*
X0024450Y0011500D02*
X0024300Y0011350D01*
X0024650Y0011500D02*
X0024450D01*
X0024800Y0011350D02*
X0024650Y0011500D01*
X0024800Y0011150D02*
Y0011350D01*
X0024650Y0011000D02*
X0024800Y0011150D01*
X0024450Y0011000D02*
X0024650D01*
X0024300Y0011150D02*
X0024450Y0011000D01*
X0040750Y0002850D02*
Y0002650D01*
X0040900Y0003000D02*
X0040750Y0002850D01*
X0041100Y0003000D02*
X0040900D01*
X0041250Y0002850D02*
X0041100Y0003000D01*
X0041250Y0002650D02*
Y0002850D01*
X0041100Y0002500D02*
X0041250Y0002650D01*
X0040900Y0002500D02*
X0041100D01*
X0040750Y0002650D02*
X0040900Y0002500D01*
X0039750Y0003500D02*
Y0003300D01*
X0039900Y0003650D02*
X0039750Y0003500D01*
X0040100Y0003650D02*
X0039900D01*
X0040250Y0003500D02*
X0040100Y0003650D01*
X0040250Y0003300D02*
Y0003500D01*
X0040100Y0003150D02*
X0040250Y0003300D01*
X0039900Y0003150D02*
X0040100D01*
X0039750Y0003300D02*
X0039900Y0003150D01*
X0067500Y0004220D02*
Y0004020D01*
X0067650Y0004370D02*
X0067500Y0004220D01*
X0067850Y0004370D02*
X0067650D01*
X0068000Y0004220D02*
X0067850Y0004370D01*
X0068000Y0004020D02*
Y0004220D01*
X0067850Y0003870D02*
X0068000Y0004020D01*
X0067650Y0003870D02*
X0067850D01*
X0067500Y0004020D02*
X0067650Y0003870D01*
X0067700Y0001320D02*
Y0001120D01*
X0067850Y0001470D02*
X0067700Y0001320D01*
X0068050Y0001470D02*
X0067850D01*
X0068200Y0001320D02*
X0068050Y0001470D01*
X0068200Y0001120D02*
Y0001320D01*
X0068050Y0000970D02*
X0068200Y0001120D01*
X0067850Y0000970D02*
X0068050D01*
X0067700Y0001120D02*
X0067850Y0000970D01*
X0008200Y0009500D02*
Y0009300D01*
X0008350Y0009650D02*
X0008200Y0009500D01*
X0008550Y0009650D02*
X0008350D01*
X0008700Y0009500D02*
X0008550Y0009650D01*
X0008700Y0009300D02*
Y0009500D01*
X0008550Y0009150D02*
X0008700Y0009300D01*
X0008350Y0009150D02*
X0008550D01*
X0008200Y0009300D02*
X0008350Y0009150D01*
X0005750Y0008050D02*
Y0007850D01*
X0005900Y0008200D02*
X0005750Y0008050D01*
X0006100Y0008200D02*
X0005900D01*
X0006250Y0008050D02*
X0006100Y0008200D01*
X0006250Y0007850D02*
Y0008050D01*
X0006100Y0007700D02*
X0006250Y0007850D01*
X0005900Y0007700D02*
X0006100D01*
X0005750Y0007850D02*
X0005900Y0007700D01*
X0000650Y0004600D02*
Y0004400D01*
X0000800Y0004750D02*
X0000650Y0004600D01*
X0001000Y0004750D02*
X0000800D01*
X0001150Y0004600D02*
X0001000Y0004750D01*
X0001150Y0004400D02*
Y0004600D01*
X0001000Y0004250D02*
X0001150Y0004400D01*
X0000800Y0004250D02*
X0001000D01*
X0000650Y0004400D02*
X0000800Y0004250D01*
X0005500Y0013150D02*
Y0012950D01*
X0005650Y0013300D02*
X0005500Y0013150D01*
X0005850Y0013300D02*
X0005650D01*
X0006000Y0013150D02*
X0005850Y0013300D01*
X0006000Y0012950D02*
Y0013150D01*
X0005850Y0012800D02*
X0006000Y0012950D01*
X0005650Y0012800D02*
X0005850D01*
X0005500Y0012950D02*
X0005650Y0012800D01*
X0072400Y0000250D02*
Y0000050D01*
X0072550Y0000400D02*
X0072400Y0000250D01*
X0072750Y0000400D02*
X0072550D01*
X0072900Y0000250D02*
X0072750Y0000400D01*
X0072900Y0000050D02*
Y0000250D01*
X0072750Y-0000100D02*
X0072900Y0000050D01*
X0072550Y-0000100D02*
X0072750D01*
X0072400Y0000050D02*
X0072550Y-0000100D01*
X0066700Y0001950D02*
Y0001750D01*
X0066850Y0002100D02*
X0066700Y0001950D01*
X0067050Y0002100D02*
X0066850D01*
X0067200Y0001950D02*
X0067050Y0002100D01*
X0067200Y0001750D02*
Y0001950D01*
X0067050Y0001600D02*
X0067200Y0001750D01*
X0066850Y0001600D02*
X0067050D01*
X0066700Y0001750D02*
X0066850Y0001600D01*
X0066800Y-0000100D02*
Y-0000300D01*
X0066950Y0000050D02*
X0066800Y-0000100D01*
X0067150Y0000050D02*
X0066950D01*
X0067300Y-0000100D02*
X0067150Y0000050D01*
X0067300Y-0000300D02*
Y-0000100D01*
X0067150Y-0000450D02*
X0067300Y-0000300D01*
X0066950Y-0000450D02*
X0067150D01*
X0066800Y-0000300D02*
X0066950Y-0000450D01*
X0036750Y0004950D02*
Y0004750D01*
X0036900Y0005100D02*
X0036750Y0004950D01*
X0037100Y0005100D02*
X0036900D01*
X0037250Y0004950D02*
X0037100Y0005100D01*
X0037250Y0004750D02*
Y0004950D01*
X0037100Y0004600D02*
X0037250Y0004750D01*
X0036900Y0004600D02*
X0037100D01*
X0036750Y0004750D02*
X0036900Y0004600D01*
X0029000Y0010100D02*
Y0009900D01*
X0029150Y0010250D02*
X0029000Y0010100D01*
X0029350Y0010250D02*
X0029150D01*
X0029500Y0010100D02*
X0029350Y0010250D01*
X0029500Y0009900D02*
Y0010100D01*
X0029350Y0009750D02*
X0029500Y0009900D01*
X0029150Y0009750D02*
X0029350D01*
X0029000Y0009900D02*
X0029150Y0009750D01*
X0024800Y0007070D02*
Y0006870D01*
X0024950Y0007220D02*
X0024800Y0007070D01*
X0025150Y0007220D02*
X0024950D01*
X0025300Y0007070D02*
X0025150Y0007220D01*
X0025300Y0006870D02*
Y0007070D01*
X0025150Y0006720D02*
X0025300Y0006870D01*
X0024950Y0006720D02*
X0025150D01*
X0024800Y0006870D02*
X0024950Y0006720D01*
X0046850Y-0001100D02*
Y-0001300D01*
X0047000Y-0000950D02*
X0046850Y-0001100D01*
X0047200Y-0000950D02*
X0047000D01*
X0047350Y-0001100D02*
X0047200Y-0000950D01*
X0047350Y-0001300D02*
Y-0001100D01*
X0047200Y-0001450D02*
X0047350Y-0001300D01*
X0047000Y-0001450D02*
X0047200D01*
X0046850Y-0001300D02*
X0047000Y-0001450D01*
X0047250Y-0001150D02*
Y-0001350D01*
X0047400Y-0001000D02*
X0047250Y-0001150D01*
X0047600Y-0001000D02*
X0047400D01*
X0047750Y-0001150D02*
X0047600Y-0001000D01*
X0047750Y-0001350D02*
Y-0001150D01*
X0047600Y-0001500D02*
X0047750Y-0001350D01*
X0047400Y-0001500D02*
X0047600D01*
X0047250Y-0001350D02*
X0047400Y-0001500D01*
X0000650Y0004600D02*
Y0004400D01*
X0000800Y0004750D02*
X0000650Y0004600D01*
X0001000Y0004750D02*
X0000800D01*
X0001150Y0004600D02*
X0001000Y0004750D01*
X0001150Y0004400D02*
Y0004600D01*
X0001000Y0004250D02*
X0001150Y0004400D01*
X0000800Y0004250D02*
X0001000D01*
X0000650Y0004400D02*
X0000800Y0004250D01*
X0056750Y-0000050D02*
Y-0000250D01*
X0056900Y0000100D02*
X0056750Y-0000050D01*
X0057100Y0000100D02*
X0056900D01*
X0057250Y-0000050D02*
X0057100Y0000100D01*
X0057250Y-0000250D02*
Y-0000050D01*
X0057100Y-0000400D02*
X0057250Y-0000250D01*
X0056900Y-0000400D02*
X0057100D01*
X0056750Y-0000250D02*
X0056900Y-0000400D01*
X0038500Y-0000100D02*
Y-0000300D01*
X0038650Y0000050D02*
X0038500Y-0000100D01*
X0038850Y0000050D02*
X0038650D01*
X0039000Y-0000100D02*
X0038850Y0000050D01*
X0039000Y-0000300D02*
Y-0000100D01*
X0038850Y-0000450D02*
X0039000Y-0000300D01*
X0038650Y-0000450D02*
X0038850D01*
X0038500Y-0000300D02*
X0038650Y-0000450D01*
X0002950Y0002300D02*
Y0002100D01*
X0003100Y0002450D02*
X0002950Y0002300D01*
X0003300Y0002450D02*
X0003100D01*
X0003450Y0002300D02*
X0003300Y0002450D01*
X0003450Y0002100D02*
Y0002300D01*
X0003300Y0001950D02*
X0003450Y0002100D01*
X0003100Y0001950D02*
X0003300D01*
X0002950Y0002100D02*
X0003100Y0001950D01*
X0004550Y0002300D02*
Y0002100D01*
X0004700Y0002450D02*
X0004550Y0002300D01*
X0004900Y0002450D02*
X0004700D01*
X0005050Y0002300D02*
X0004900Y0002450D01*
X0005050Y0002100D02*
Y0002300D01*
X0004900Y0001950D02*
X0005050Y0002100D01*
X0004700Y0001950D02*
X0004900D01*
X0004550Y0002100D02*
X0004700Y0001950D01*
X0046250Y0003350D02*
Y0003150D01*
X0046400Y0003500D02*
X0046250Y0003350D01*
X0046600Y0003500D02*
X0046400D01*
X0046750Y0003350D02*
X0046600Y0003500D01*
X0046750Y0003150D02*
Y0003350D01*
X0046600Y0003000D02*
X0046750Y0003150D01*
X0046400Y0003000D02*
X0046600D01*
X0046250Y0003150D02*
X0046400Y0003000D01*
X0045250Y0003600D02*
Y0003400D01*
X0045400Y0003750D02*
X0045250Y0003600D01*
X0045600Y0003750D02*
X0045400D01*
X0045750Y0003600D02*
X0045600Y0003750D01*
X0045750Y0003400D02*
Y0003600D01*
X0045600Y0003250D02*
X0045750Y0003400D01*
X0045400Y0003250D02*
X0045600D01*
X0045250Y0003400D02*
X0045400Y0003250D01*
X0070050Y0001900D02*
Y0001700D01*
X0070200Y0002050D02*
X0070050Y0001900D01*
X0070400Y0002050D02*
X0070200D01*
X0070550Y0001900D02*
X0070400Y0002050D01*
X0070550Y0001700D02*
Y0001900D01*
X0070400Y0001550D02*
X0070550Y0001700D01*
X0070200Y0001550D02*
X0070400D01*
X0070050Y0001700D02*
X0070200Y0001550D01*
X0070900Y0000250D02*
Y0000050D01*
X0071050Y0000400D02*
X0070900Y0000250D01*
X0071250Y0000400D02*
X0071050D01*
X0071400Y0000250D02*
X0071250Y0000400D01*
X0071400Y0000050D02*
Y0000250D01*
X0071250Y-0000100D02*
X0071400Y0000050D01*
X0071050Y-0000100D02*
X0071250D01*
X0070900Y0000050D02*
X0071050Y-0000100D01*
X0048710Y0003080D02*
Y0002880D01*
X0048860Y0003230D02*
X0048710Y0003080D01*
X0049060Y0003230D02*
X0048860D01*
X0049210Y0003080D02*
X0049060Y0003230D01*
X0049210Y0002880D02*
Y0003080D01*
X0049060Y0002730D02*
X0049210Y0002880D01*
X0048860Y0002730D02*
X0049060D01*
X0048710Y0002880D02*
X0048860Y0002730D01*
X0048710Y0007340D02*
Y0007140D01*
X0048860Y0007490D02*
X0048710Y0007340D01*
X0049060Y0007490D02*
X0048860D01*
X0049210Y0007340D02*
X0049060Y0007490D01*
X0049210Y0007140D02*
Y0007340D01*
X0049060Y0006990D02*
X0049210Y0007140D01*
X0048860Y0006990D02*
X0049060D01*
X0048710Y0007140D02*
X0048860Y0006990D01*
X0045250Y0003600D02*
Y0003400D01*
X0045400Y0003750D02*
X0045250Y0003600D01*
X0045600Y0003750D02*
X0045400D01*
X0045750Y0003600D02*
X0045600Y0003750D01*
X0045750Y0003400D02*
Y0003600D01*
X0045600Y0003250D02*
X0045750Y0003400D01*
X0045400Y0003250D02*
X0045600D01*
X0045250Y0003400D02*
X0045400Y0003250D01*
X0040750Y0002850D02*
Y0002650D01*
X0040900Y0003000D02*
X0040750Y0002850D01*
X0041100Y0003000D02*
X0040900D01*
X0041250Y0002850D02*
X0041100Y0003000D01*
X0041250Y0002650D02*
Y0002850D01*
X0041100Y0002500D02*
X0041250Y0002650D01*
X0040900Y0002500D02*
X0041100D01*
X0040750Y0002650D02*
X0040900Y0002500D01*
X0061850Y0003250D02*
Y0003050D01*
X0062000Y0003400D02*
X0061850Y0003250D01*
X0062200Y0003400D02*
X0062000D01*
X0062350Y0003250D02*
X0062200Y0003400D01*
X0062350Y0003050D02*
Y0003250D01*
X0062200Y0002900D02*
X0062350Y0003050D01*
X0062000Y0002900D02*
X0062200D01*
X0061850Y0003050D02*
X0062000Y0002900D01*
X0061850Y0001900D02*
Y0001700D01*
X0062000Y0002050D02*
X0061850Y0001900D01*
X0062200Y0002050D02*
X0062000D01*
X0062350Y0001900D02*
X0062200Y0002050D01*
X0062350Y0001700D02*
Y0001900D01*
X0062200Y0001550D02*
X0062350Y0001700D01*
X0062000Y0001550D02*
X0062200D01*
X0061850Y0001700D02*
X0062000Y0001550D01*
X0065550Y-0000100D02*
Y-0000300D01*
X0065700Y0000050D02*
X0065550Y-0000100D01*
X0065900Y0000050D02*
X0065700D01*
X0066050Y-0000100D02*
X0065900Y0000050D01*
X0066050Y-0000300D02*
Y-0000100D01*
X0065900Y-0000450D02*
X0066050Y-0000300D01*
X0065700Y-0000450D02*
X0065900D01*
X0065550Y-0000300D02*
X0065700Y-0000450D01*
X0065550Y0001250D02*
Y0001050D01*
X0065700Y0001400D02*
X0065550Y0001250D01*
X0065900Y0001400D02*
X0065700D01*
X0066050Y0001250D02*
X0065900Y0001400D01*
X0066050Y0001050D02*
Y0001250D01*
X0065900Y0000900D02*
X0066050Y0001050D01*
X0065700Y0000900D02*
X0065900D01*
X0065550Y0001050D02*
X0065700Y0000900D01*
X0050600Y0003956D02*
Y0003756D01*
X0050750Y0004106D02*
X0050600Y0003956D01*
X0050950Y0004106D02*
X0050750D01*
X0051100Y0003956D02*
X0050950Y0004106D01*
X0051100Y0003756D02*
Y0003956D01*
X0050950Y0003606D02*
X0051100Y0003756D01*
X0050750Y0003606D02*
X0050950D01*
X0050600Y0003756D02*
X0050750Y0003606D01*
X0048000Y0002200D02*
Y0002000D01*
X0048150Y0002350D02*
X0048000Y0002200D01*
X0048350Y0002350D02*
X0048150D01*
X0048500Y0002200D02*
X0048350Y0002350D01*
X0048500Y0002000D02*
Y0002200D01*
X0048350Y0001850D02*
X0048500Y0002000D01*
X0048150Y0001850D02*
X0048350D01*
X0048000Y0002000D02*
X0048150Y0001850D01*
X0055250Y0002800D02*
Y0002600D01*
X0055400Y0002950D02*
X0055250Y0002800D01*
X0055600Y0002950D02*
X0055400D01*
X0055750Y0002800D02*
X0055600Y0002950D01*
X0055750Y0002600D02*
Y0002800D01*
X0055600Y0002450D02*
X0055750Y0002600D01*
X0055400Y0002450D02*
X0055600D01*
X0055250Y0002600D02*
X0055400Y0002450D01*
X0054750Y-0000400D02*
Y-0000600D01*
X0054900Y-0000250D02*
X0054750Y-0000400D01*
X0055100Y-0000250D02*
X0054900D01*
X0055250Y-0000400D02*
X0055100Y-0000250D01*
X0055250Y-0000600D02*
Y-0000400D01*
X0055100Y-0000750D02*
X0055250Y-0000600D01*
X0054900Y-0000750D02*
X0055100D01*
X0054750Y-0000600D02*
X0054900Y-0000750D01*
X0021750Y0012350D02*
Y0012150D01*
X0021900Y0012500D02*
X0021750Y0012350D01*
X0022100Y0012500D02*
X0021900D01*
X0022250Y0012350D02*
X0022100Y0012500D01*
X0022250Y0012150D02*
Y0012350D01*
X0022100Y0012000D02*
X0022250Y0012150D01*
X0021900Y0012000D02*
X0022100D01*
X0021750Y0012150D02*
X0021900Y0012000D01*
X0025500Y0013100D02*
Y0012900D01*
X0025650Y0013250D02*
X0025500Y0013100D01*
X0025850Y0013250D02*
X0025650D01*
X0026000Y0013100D02*
X0025850Y0013250D01*
X0026000Y0012900D02*
Y0013100D01*
X0025850Y0012750D02*
X0026000Y0012900D01*
X0025650Y0012750D02*
X0025850D01*
X0025500Y0012900D02*
X0025650Y0012750D01*
X0053311Y0001000D02*
Y0000800D01*
X0053461Y0001150D02*
X0053311Y0001000D01*
X0053661Y0001150D02*
X0053461D01*
X0053811Y0001000D02*
X0053661Y0001150D01*
X0053811Y0000800D02*
Y0001000D01*
X0053661Y0000650D02*
X0053811Y0000800D01*
X0053461Y0000650D02*
X0053661D01*
X0053311Y0000800D02*
X0053461Y0000650D01*
X0008050Y0001850D02*
Y0001650D01*
X0008200Y0002000D02*
X0008050Y0001850D01*
X0008400Y0002000D02*
X0008200D01*
X0008550Y0001850D02*
X0008400Y0002000D01*
X0008550Y0001650D02*
Y0001850D01*
X0008400Y0001500D02*
X0008550Y0001650D01*
X0008200Y0001500D02*
X0008400D01*
X0008050Y0001650D02*
X0008200Y0001500D01*
X0049000Y0002650D02*
Y0002450D01*
X0049150Y0002800D02*
X0049000Y0002650D01*
X0049350Y0002800D02*
X0049150D01*
X0049500Y0002650D02*
X0049350Y0002800D01*
X0049500Y0002450D02*
Y0002650D01*
X0049350Y0002300D02*
X0049500Y0002450D01*
X0049150Y0002300D02*
X0049350D01*
X0049000Y0002450D02*
X0049150Y0002300D01*
X0049350Y0007500D02*
Y0007300D01*
X0049500Y0007650D02*
X0049350Y0007500D01*
X0049700Y0007650D02*
X0049500D01*
X0049850Y0007500D02*
X0049700Y0007650D01*
X0049850Y0007300D02*
Y0007500D01*
X0049700Y0007150D02*
X0049850Y0007300D01*
X0049500Y0007150D02*
X0049700D01*
X0049350Y0007300D02*
X0049500Y0007150D01*
X0061550Y0003520D02*
Y0003320D01*
X0061700Y0003670D02*
X0061550Y0003520D01*
X0061900Y0003670D02*
X0061700D01*
X0062050Y0003520D02*
X0061900Y0003670D01*
X0062050Y0003320D02*
Y0003520D01*
X0061900Y0003170D02*
X0062050Y0003320D01*
X0061700Y0003170D02*
X0061900D01*
X0061550Y0003320D02*
X0061700Y0003170D01*
X0061550Y0000150D02*
Y-0000050D01*
X0061700Y0000300D02*
X0061550Y0000150D01*
X0061900Y0000300D02*
X0061700D01*
X0062050Y0000150D02*
X0061900Y0000300D01*
X0062050Y-0000050D02*
Y0000150D01*
X0061900Y-0000200D02*
X0062050Y-0000050D01*
X0061700Y-0000200D02*
X0061900D01*
X0061550Y-0000050D02*
X0061700Y-0000200D01*
X0039750Y0003500D02*
Y0003300D01*
X0039900Y0003650D02*
X0039750Y0003500D01*
X0040100Y0003650D02*
X0039900D01*
X0040250Y0003500D02*
X0040100Y0003650D01*
X0040250Y0003300D02*
Y0003500D01*
X0040100Y0003150D02*
X0040250Y0003300D01*
X0039900Y0003150D02*
X0040100D01*
X0039750Y0003300D02*
X0039900Y0003150D01*
X0019250Y0011100D02*
Y0010900D01*
X0019400Y0011250D02*
X0019250Y0011100D01*
X0019600Y0011250D02*
X0019400D01*
X0019750Y0011100D02*
X0019600Y0011250D01*
X0019750Y0010900D02*
Y0011100D01*
X0019600Y0010750D02*
X0019750Y0010900D01*
X0019400Y0010750D02*
X0019600D01*
X0019250Y0010900D02*
X0019400Y0010750D01*
X0021750D02*
Y0010550D01*
X0021900Y0010900D02*
X0021750Y0010750D01*
X0022100Y0010900D02*
X0021900D01*
X0022250Y0010750D02*
X0022100Y0010900D01*
X0022250Y0010550D02*
Y0010750D01*
X0022100Y0010400D02*
X0022250Y0010550D01*
X0021900Y0010400D02*
X0022100D01*
X0021750Y0010550D02*
X0021900Y0010400D01*
X0024700Y0013320D02*
Y0013120D01*
X0024850Y0013470D02*
X0024700Y0013320D01*
X0025050Y0013470D02*
X0024850D01*
X0025200Y0013320D02*
X0025050Y0013470D01*
X0025200Y0013120D02*
Y0013320D01*
X0025050Y0012970D02*
X0025200Y0013120D01*
X0024850Y0012970D02*
X0025050D01*
X0024700Y0013120D02*
X0024850Y0012970D01*
X0059650Y0007200D02*
Y0007000D01*
X0059800Y0007350D02*
X0059650Y0007200D01*
X0060000Y0007350D02*
X0059800D01*
X0060150Y0007200D02*
X0060000Y0007350D01*
X0060150Y0007000D02*
Y0007200D01*
X0060000Y0006850D02*
X0060150Y0007000D01*
X0059800Y0006850D02*
X0060000D01*
X0059650Y0007000D02*
X0059800Y0006850D01*
X0053250Y0007300D02*
Y0007100D01*
X0053400Y0007450D02*
X0053250Y0007300D01*
X0053600Y0007450D02*
X0053400D01*
X0053750Y0007300D02*
X0053600Y0007450D01*
X0053750Y0007100D02*
Y0007300D01*
X0053600Y0006950D02*
X0053750Y0007100D01*
X0053400Y0006950D02*
X0053600D01*
X0053250Y0007100D02*
X0053400Y0006950D01*
X0002000Y0003149D02*
Y0002949D01*
X0002150Y0003299D02*
X0002000Y0003149D01*
X0002350Y0003299D02*
X0002150D01*
X0002500Y0003149D02*
X0002350Y0003299D01*
X0002500Y0002949D02*
Y0003149D01*
X0002350Y0002799D02*
X0002500Y0002949D01*
X0002150Y0002799D02*
X0002350D01*
X0002000Y0002949D02*
X0002150Y0002799D01*
X0049310Y0003600D02*
Y0003400D01*
X0049460Y0003750D02*
X0049310Y0003600D01*
X0049660Y0003750D02*
X0049460D01*
X0049810Y0003600D02*
X0049660Y0003750D01*
X0049810Y0003400D02*
Y0003600D01*
X0049660Y0003250D02*
X0049810Y0003400D01*
X0049460Y0003250D02*
X0049660D01*
X0049310Y0003400D02*
X0049460Y0003250D01*
X0049200Y0000100D02*
Y-0000100D01*
X0049350Y0000250D02*
X0049200Y0000100D01*
X0049550Y0000250D02*
X0049350D01*
X0049700Y0000100D02*
X0049550Y0000250D01*
X0049700Y-0000100D02*
Y0000100D01*
X0049550Y-0000250D02*
X0049700Y-0000100D01*
X0049350Y-0000250D02*
X0049550D01*
X0049200Y-0000100D02*
X0049350Y-0000250D01*
X0057400Y0007250D02*
Y0007050D01*
X0057550Y0007400D02*
X0057400Y0007250D01*
X0057750Y0007400D02*
X0057550D01*
X0057900Y0007250D02*
X0057750Y0007400D01*
X0057900Y0007050D02*
Y0007250D01*
X0057750Y0006900D02*
X0057900Y0007050D01*
X0057550Y0006900D02*
X0057750D01*
X0057400Y0007050D02*
X0057550Y0006900D01*
X0052500Y0007150D02*
Y0006950D01*
X0052650Y0007300D02*
X0052500Y0007150D01*
X0052850Y0007300D02*
X0052650D01*
X0053000Y0007150D02*
X0052850Y0007300D01*
X0053000Y0006950D02*
Y0007150D01*
X0052850Y0006800D02*
X0053000Y0006950D01*
X0052650Y0006800D02*
X0052850D01*
X0052500Y0006950D02*
X0052650Y0006800D01*
X0046800Y0006400D02*
Y0006200D01*
X0046950Y0006550D02*
X0046800Y0006400D01*
X0047150Y0006550D02*
X0046950D01*
X0047300Y0006400D02*
X0047150Y0006550D01*
X0047300Y0006200D02*
Y0006400D01*
X0047150Y0006050D02*
X0047300Y0006200D01*
X0046950Y0006050D02*
X0047150D01*
X0046800Y0006200D02*
X0046950Y0006050D01*
X0047450Y-0000600D02*
Y-0000800D01*
X0047600Y-0000450D02*
X0047450Y-0000600D01*
X0047800Y-0000450D02*
X0047600D01*
X0047950Y-0000600D02*
X0047800Y-0000450D01*
X0047950Y-0000800D02*
Y-0000600D01*
X0047800Y-0000950D02*
X0047950Y-0000800D01*
X0047600Y-0000950D02*
X0047800D01*
X0047450Y-0000800D02*
X0047600Y-0000950D01*
X0061250Y0004150D02*
Y0003950D01*
X0061400Y0004300D02*
X0061250Y0004150D01*
X0061600Y0004300D02*
X0061400D01*
X0061750Y0004150D02*
X0061600Y0004300D01*
X0061750Y0003950D02*
Y0004150D01*
X0061600Y0003800D02*
X0061750Y0003950D01*
X0061400Y0003800D02*
X0061600D01*
X0061250Y0003950D02*
X0061400Y0003800D01*
X0061200Y0000400D02*
Y0000200D01*
X0061350Y0000550D02*
X0061200Y0000400D01*
X0061550Y0000550D02*
X0061350D01*
X0061700Y0000400D02*
X0061550Y0000550D01*
X0061700Y0000200D02*
Y0000400D01*
X0061550Y0000050D02*
X0061700Y0000200D01*
X0061350Y0000050D02*
X0061550D01*
X0061200Y0000200D02*
X0061350Y0000050D01*
X0062750Y0002600D02*
Y0002400D01*
X0062900Y0002750D02*
X0062750Y0002600D01*
X0063100Y0002750D02*
X0062900D01*
X0063250Y0002600D02*
X0063100Y0002750D01*
X0063250Y0002400D02*
Y0002600D01*
X0063100Y0002250D02*
X0063250Y0002400D01*
X0062900Y0002250D02*
X0063100D01*
X0062750Y0002400D02*
X0062900Y0002250D01*
X0062750Y0005100D02*
Y0004900D01*
X0062900Y0005250D02*
X0062750Y0005100D01*
X0063100Y0005250D02*
X0062900D01*
X0063250Y0005100D02*
X0063100Y0005250D01*
X0063250Y0004900D02*
Y0005100D01*
X0063100Y0004750D02*
X0063250Y0004900D01*
X0062900Y0004750D02*
X0063100D01*
X0062750Y0004900D02*
X0062900Y0004750D01*
X0052650Y0002350D02*
Y0002150D01*
X0052800Y0002500D02*
X0052650Y0002350D01*
X0053000Y0002500D02*
X0052800D01*
X0053150Y0002350D02*
X0053000Y0002500D01*
X0053150Y0002150D02*
Y0002350D01*
X0053000Y0002000D02*
X0053150Y0002150D01*
X0052800Y0002000D02*
X0053000D01*
X0052650Y0002150D02*
X0052800Y0002000D01*
X0051200Y0006800D02*
Y0006600D01*
X0051350Y0006950D02*
X0051200Y0006800D01*
X0051550Y0006950D02*
X0051350D01*
X0051700Y0006800D02*
X0051550Y0006950D01*
X0051700Y0006600D02*
Y0006800D01*
X0051550Y0006450D02*
X0051700Y0006600D01*
X0051350Y0006450D02*
X0051550D01*
X0051200Y0006600D02*
X0051350Y0006450D01*
X0005500Y0013150D02*
Y0012950D01*
X0005650Y0013300D02*
X0005500Y0013150D01*
X0005850Y0013300D02*
X0005650D01*
X0006000Y0013150D02*
X0005850Y0013300D01*
X0006000Y0012950D02*
Y0013150D01*
X0005850Y0012800D02*
X0006000Y0012950D01*
X0005650Y0012800D02*
X0005850D01*
X0005500Y0012950D02*
X0005650Y0012800D01*
X0056250Y0002850D02*
Y0002650D01*
X0056400Y0003000D02*
X0056250Y0002850D01*
X0056600Y0003000D02*
X0056400D01*
X0056750Y0002850D02*
X0056600Y0003000D01*
X0056750Y0002650D02*
Y0002850D01*
X0056600Y0002500D02*
X0056750Y0002650D01*
X0056400Y0002500D02*
X0056600D01*
X0056250Y0002650D02*
X0056400Y0002500D01*
X0024800Y0007070D02*
Y0006870D01*
X0024950Y0007220D02*
X0024800Y0007070D01*
X0025150Y0007220D02*
X0024950D01*
X0025300Y0007070D02*
X0025150Y0007220D01*
X0025300Y0006870D02*
Y0007070D01*
X0025150Y0006720D02*
X0025300Y0006870D01*
X0024950Y0006720D02*
X0025150D01*
X0024800Y0006870D02*
X0024950Y0006720D01*
X0004750Y0009550D02*
Y0009350D01*
X0004900Y0009700D02*
X0004750Y0009550D01*
X0005100Y0009700D02*
X0004900D01*
X0005250Y0009550D02*
X0005100Y0009700D01*
X0005250Y0009350D02*
Y0009550D01*
X0005100Y0009200D02*
X0005250Y0009350D01*
X0004900Y0009200D02*
X0005100D01*
X0004750Y0009350D02*
X0004900Y0009200D01*
X0065250Y0000700D02*
Y0000500D01*
X0065400Y0000850D02*
X0065250Y0000700D01*
X0065600Y0000850D02*
X0065400D01*
X0065750Y0000700D02*
X0065600Y0000850D01*
X0065750Y0000500D02*
Y0000700D01*
X0065600Y0000350D02*
X0065750Y0000500D01*
X0065400Y0000350D02*
X0065600D01*
X0065250Y0000500D02*
X0065400Y0000350D01*
X0065250Y0003850D02*
Y0003650D01*
X0065400Y0004000D02*
X0065250Y0003850D01*
X0065600Y0004000D02*
X0065400D01*
X0065750Y0003850D02*
X0065600Y0004000D01*
X0065750Y0003650D02*
Y0003850D01*
X0065600Y0003500D02*
X0065750Y0003650D01*
X0065400Y0003500D02*
X0065600D01*
X0065250Y0003650D02*
X0065400Y0003500D01*
X0054000Y0001600D02*
Y0001400D01*
X0054150Y0001750D02*
X0054000Y0001600D01*
X0054350Y0001750D02*
X0054150D01*
X0054500Y0001600D02*
X0054350Y0001750D01*
X0054500Y0001400D02*
Y0001600D01*
X0054350Y0001250D02*
X0054500Y0001400D01*
X0054150Y0001250D02*
X0054350D01*
X0054000Y0001400D02*
X0054150Y0001250D01*
X0007750Y0002150D02*
Y0001950D01*
X0007900Y0002300D02*
X0007750Y0002150D01*
X0008100Y0002300D02*
X0007900D01*
X0008250Y0002150D02*
X0008100Y0002300D01*
X0008250Y0001950D02*
Y0002150D01*
X0008100Y0001800D02*
X0008250Y0001950D01*
X0007900Y0001800D02*
X0008100D01*
X0007750Y0001950D02*
X0007900Y0001800D01*
X0007750Y0006550D02*
Y0006350D01*
X0007900Y0006700D02*
X0007750Y0006550D01*
X0008100Y0006700D02*
X0007900D01*
X0008250Y0006550D02*
X0008100Y0006700D01*
X0008250Y0006350D02*
Y0006550D01*
X0008100Y0006200D02*
X0008250Y0006350D01*
X0007900Y0006200D02*
X0008100D01*
X0007750Y0006350D02*
X0007900Y0006200D01*
X0004650Y0006600D02*
Y0006400D01*
X0004800Y0006750D02*
X0004650Y0006600D01*
X0005000Y0006750D02*
X0004800D01*
X0005150Y0006600D02*
X0005000Y0006750D01*
X0005150Y0006400D02*
Y0006600D01*
X0005000Y0006250D02*
X0005150Y0006400D01*
X0004800Y0006250D02*
X0005000D01*
X0004650Y0006400D02*
X0004800Y0006250D01*
X0063700Y0004800D02*
Y0004600D01*
X0063850Y0004950D02*
X0063700Y0004800D01*
X0064050Y0004950D02*
X0063850D01*
X0064200Y0004800D02*
X0064050Y0004950D01*
X0064200Y0004600D02*
Y0004800D01*
X0064050Y0004450D02*
X0064200Y0004600D01*
X0063850Y0004450D02*
X0064050D01*
X0063700Y0004600D02*
X0063850Y0004450D01*
X0063150Y0002300D02*
Y0002100D01*
X0063300Y0002450D02*
X0063150Y0002300D01*
X0063500Y0002450D02*
X0063300D01*
X0063650Y0002300D02*
X0063500Y0002450D01*
X0063650Y0002100D02*
Y0002300D01*
X0063500Y0001950D02*
X0063650Y0002100D01*
X0063300Y0001950D02*
X0063500D01*
X0063150Y0002100D02*
X0063300Y0001950D01*
X0053114Y0002250D02*
Y0002050D01*
X0053264Y0002400D02*
X0053114Y0002250D01*
X0053464Y0002400D02*
X0053264D01*
X0053614Y0002250D02*
X0053464Y0002400D01*
X0053614Y0002050D02*
Y0002250D01*
X0053464Y0001900D02*
X0053614Y0002050D01*
X0053264Y0001900D02*
X0053464D01*
X0053114Y0002050D02*
X0053264Y0001900D01*
X0007350Y0002200D02*
Y0002000D01*
X0007500Y0002350D02*
X0007350Y0002200D01*
X0007700Y0002350D02*
X0007500D01*
X0007850Y0002200D02*
X0007700Y0002350D01*
X0007850Y0002000D02*
Y0002200D01*
X0007700Y0001850D02*
X0007850Y0002000D01*
X0007500Y0001850D02*
X0007700D01*
X0007350Y0002000D02*
X0007500Y0001850D01*
X0007450Y0005800D02*
Y0005600D01*
X0007600Y0005950D02*
X0007450Y0005800D01*
X0007800Y0005950D02*
X0007600D01*
X0007950Y0005800D02*
X0007800Y0005950D01*
X0007950Y0005600D02*
Y0005800D01*
X0007800Y0005450D02*
X0007950Y0005600D01*
X0007600Y0005450D02*
X0007800D01*
X0007450Y0005600D02*
X0007600Y0005450D01*
X0002300Y0006450D02*
Y0006250D01*
X0002450Y0006600D02*
X0002300Y0006450D01*
X0002650Y0006600D02*
X0002450D01*
X0002800Y0006450D02*
X0002650Y0006600D01*
X0002800Y0006250D02*
Y0006450D01*
X0002650Y0006100D02*
X0002800Y0006250D01*
X0002450Y0006100D02*
X0002650D01*
X0002300Y0006250D02*
X0002450Y0006100D01*
X0049750Y0007500D02*
Y0007300D01*
X0049900Y0007650D02*
X0049750Y0007500D01*
X0050100Y0007650D02*
X0049900D01*
X0050250Y0007500D02*
X0050100Y0007650D01*
X0050250Y0007300D02*
Y0007500D01*
X0050100Y0007150D02*
X0050250Y0007300D01*
X0049900Y0007150D02*
X0050100D01*
X0049750Y0007300D02*
X0049900Y0007150D01*
X0052150Y0007550D02*
Y0007350D01*
X0052300Y0007700D02*
X0052150Y0007550D01*
X0052500Y0007700D02*
X0052300D01*
X0052650Y0007550D02*
X0052500Y0007700D01*
X0052650Y0007350D02*
Y0007550D01*
X0052500Y0007200D02*
X0052650Y0007350D01*
X0052300Y0007200D02*
X0052500D01*
X0052150Y0007350D02*
X0052300Y0007200D01*
X0053750Y0002300D02*
Y0002100D01*
X0053900Y0002450D02*
X0053750Y0002300D01*
X0054100Y0002450D02*
X0053900D01*
X0054250Y0002300D02*
X0054100Y0002450D01*
X0054250Y0002100D02*
Y0002300D01*
X0054100Y0001950D02*
X0054250Y0002100D01*
X0053900Y0001950D02*
X0054100D01*
X0053750Y0002100D02*
X0053900Y0001950D01*
X0001750Y0001600D02*
Y0001400D01*
X0001900Y0001750D02*
X0001750Y0001600D01*
X0002100Y0001750D02*
X0001900D01*
X0002250Y0001600D02*
X0002100Y0001750D01*
X0002250Y0001400D02*
Y0001600D01*
X0002100Y0001250D02*
X0002250Y0001400D01*
X0001900Y0001250D02*
X0002100D01*
X0001750Y0001400D02*
X0001900Y0001250D01*
X0053850Y0002774D02*
Y0002574D01*
X0054000Y0002924D02*
X0053850Y0002774D01*
X0054200Y0002924D02*
X0054000D01*
X0054350Y0002774D02*
X0054200Y0002924D01*
X0054350Y0002574D02*
Y0002774D01*
X0054200Y0002424D02*
X0054350Y0002574D01*
X0054000Y0002424D02*
X0054200D01*
X0053850Y0002574D02*
X0054000Y0002424D01*
X0005550Y0002450D02*
Y0002250D01*
X0005700Y0002600D02*
X0005550Y0002450D01*
X0005900Y0002600D02*
X0005700D01*
X0006050Y0002450D02*
X0005900Y0002600D01*
X0006050Y0002250D02*
Y0002450D01*
X0005900Y0002100D02*
X0006050Y0002250D01*
X0005700Y0002100D02*
X0005900D01*
X0005550Y0002250D02*
X0005700Y0002100D01*
X0058750Y0007250D02*
Y0007050D01*
X0058900Y0007400D02*
X0058750Y0007250D01*
X0059100Y0007400D02*
X0058900D01*
X0059250Y0007250D02*
X0059100Y0007400D01*
X0059250Y0007050D02*
Y0007250D01*
X0059100Y0006900D02*
X0059250Y0007050D01*
X0058900Y0006900D02*
X0059100D01*
X0058750Y0007050D02*
X0058900Y0006900D01*
X0052550Y0007600D02*
Y0007400D01*
X0052700Y0007750D02*
X0052550Y0007600D01*
X0052900Y0007750D02*
X0052700D01*
X0053050Y0007600D02*
X0052900Y0007750D01*
X0053050Y0007400D02*
Y0007600D01*
X0052900Y0007250D02*
X0053050Y0007400D01*
X0052700Y0007250D02*
X0052900D01*
X0052550Y0007400D02*
X0052700Y0007250D01*
X0054485Y0002100D02*
Y0001900D01*
X0054635Y0002250D02*
X0054485Y0002100D01*
X0054835Y0002250D02*
X0054635D01*
X0054985Y0002100D02*
X0054835Y0002250D01*
X0054985Y0001900D02*
Y0002100D01*
X0054835Y0001750D02*
X0054985Y0001900D01*
X0054635Y0001750D02*
X0054835D01*
X0054485Y0001900D02*
X0054635Y0001750D01*
X0008350Y0002450D02*
Y0002250D01*
X0008500Y0002600D02*
X0008350Y0002450D01*
X0008700Y0002600D02*
X0008500D01*
X0008850Y0002450D02*
X0008700Y0002600D01*
X0008850Y0002250D02*
Y0002450D01*
X0008700Y0002100D02*
X0008850Y0002250D01*
X0008500Y0002100D02*
X0008700D01*
X0008350Y0002250D02*
X0008500Y0002100D01*
X0008350Y0006250D02*
Y0006050D01*
X0008500Y0006400D02*
X0008350Y0006250D01*
X0008700Y0006400D02*
X0008500D01*
X0008850Y0006250D02*
X0008700Y0006400D01*
X0008850Y0006050D02*
Y0006250D01*
X0008700Y0005900D02*
X0008850Y0006050D01*
X0008500Y0005900D02*
X0008700D01*
X0008350Y0006050D02*
X0008500Y0005900D01*
X0004200Y0006350D02*
Y0006150D01*
X0004350Y0006500D02*
X0004200Y0006350D01*
X0004550Y0006500D02*
X0004350D01*
X0004700Y0006350D02*
X0004550Y0006500D01*
X0004700Y0006150D02*
Y0006350D01*
X0004550Y0006000D02*
X0004700Y0006150D01*
X0004350Y0006000D02*
X0004550D01*
X0004200Y0006150D02*
X0004350Y0006000D01*
X0062250Y0004100D02*
Y0003900D01*
X0062400Y0004250D02*
X0062250Y0004100D01*
X0062600Y0004250D02*
X0062400D01*
X0062750Y0004100D02*
X0062600Y0004250D01*
X0062750Y0003900D02*
Y0004100D01*
X0062600Y0003750D02*
X0062750Y0003900D01*
X0062400Y0003750D02*
X0062600D01*
X0062250Y0003900D02*
X0062400Y0003750D01*
X0062250Y-0000150D02*
Y-0000350D01*
X0062400Y0000000D02*
X0062250Y-0000150D01*
X0062600Y0000000D02*
X0062400D01*
X0062750Y-0000150D02*
X0062600Y0000000D01*
X0062750Y-0000350D02*
Y-0000150D01*
X0062600Y-0000500D02*
X0062750Y-0000350D01*
X0062400Y-0000500D02*
X0062600D01*
X0062250Y-0000350D02*
X0062400Y-0000500D01*
X0046650Y-0000550D02*
Y-0000750D01*
X0046800Y-0000400D02*
X0046650Y-0000550D01*
X0047000Y-0000400D02*
X0046800D01*
X0047150Y-0000550D02*
X0047000Y-0000400D01*
X0047150Y-0000750D02*
Y-0000550D01*
X0047000Y-0000900D02*
X0047150Y-0000750D01*
X0046800Y-0000900D02*
X0047000D01*
X0046650Y-0000750D02*
X0046800Y-0000900D01*
X0050750Y0003350D02*
Y0003150D01*
X0050900Y0003500D02*
X0050750Y0003350D01*
X0051100Y0003500D02*
X0050900D01*
X0051250Y0003350D02*
X0051100Y0003500D01*
X0051250Y0003150D02*
Y0003350D01*
X0051100Y0003000D02*
X0051250Y0003150D01*
X0050900Y0003000D02*
X0051100D01*
X0050750Y0003150D02*
X0050900Y0003000D01*
X0049950Y0000400D02*
Y0000200D01*
X0050100Y0000550D02*
X0049950Y0000400D01*
X0050300Y0000550D02*
X0050100D01*
X0050450Y0000400D02*
X0050300Y0000550D01*
X0050450Y0000200D02*
Y0000400D01*
X0050300Y0000050D02*
X0050450Y0000200D01*
X0050100Y0000050D02*
X0050300D01*
X0049950Y0000200D02*
X0050100Y0000050D01*
X0052200Y0006850D02*
Y0006650D01*
X0052350Y0007000D02*
X0052200Y0006850D01*
X0052550Y0007000D02*
X0052350D01*
X0052700Y0006850D02*
X0052550Y0007000D01*
X0052700Y0006650D02*
Y0006850D01*
X0052550Y0006500D02*
X0052700Y0006650D01*
X0052350Y0006500D02*
X0052550D01*
X0052200Y0006650D02*
X0052350Y0006500D01*
X0056750Y0006300D02*
Y0006100D01*
X0056900Y0006450D02*
X0056750Y0006300D01*
X0057100Y0006450D02*
X0056900D01*
X0057250Y0006300D02*
X0057100Y0006450D01*
X0057250Y0006100D02*
Y0006300D01*
X0057100Y0005950D02*
X0057250Y0006100D01*
X0056900Y0005950D02*
X0057100D01*
X0056750Y0006100D02*
X0056900Y0005950D01*
X-0000475Y-0017500D02*
Y-0017750D01*
X-0000225Y-0017500D02*
X-0000475D01*
X-0000225Y-0018000D02*
Y-0017500D01*
X0000025Y-0018000D02*
X-0000225D01*
X0000025Y-0017750D02*
Y-0018000D01*
X-0000475Y-0017750D02*
X0000025D01*
X-0000475Y-0016000D02*
Y-0016500D01*
X0000025Y-0016000D02*
X-0000475D01*
X0000025Y-0016500D02*
Y-0016000D01*
X-0000475Y-0016500D02*
X0000025D01*
Y-0016250D02*
X-0000475D01*
X-0000225Y-0016000D02*
Y-0016500D01*
X-0000475Y-0014500D02*
Y-0015000D01*
X0000025Y-0014500D02*
X-0000475D01*
X0000025Y-0015000D02*
Y-0014500D01*
X-0000475Y-0015000D02*
X0000025D01*
Y-0014500D02*
X-0000475Y-0015000D01*
X0000025D02*
X-0000475Y-0014500D01*
X-0000225Y-0013000D02*
X-0000475Y-0013250D01*
X0000025D02*
X-0000225Y-0013000D01*
Y-0013500D02*
X0000025Y-0013250D01*
X-0000475D02*
X-0000225Y-0013500D01*
X0000025Y-0011750D02*
X-0000475D01*
X-0000225Y-0011500D02*
Y-0012000D01*
Y-0010100D02*
X-0000475Y-0010350D01*
X0000025D02*
X-0000225Y-0010100D01*
X-0000475Y-0010350D02*
X0000025D01*
X-0000475Y-0008650D02*
Y-0008850D01*
X-0000325Y-0008500D02*
X-0000475Y-0008650D01*
X-0000125Y-0008500D02*
X-0000325D01*
X0000025Y-0008650D02*
X-0000125Y-0008500D01*
X0000025Y-0008850D02*
Y-0008650D01*
X-0000125Y-0009000D02*
X0000025Y-0008850D01*
X-0000325Y-0009000D02*
X-0000125D01*
X-0000475Y-0008850D02*
X-0000325Y-0009000D01*
X0035250Y-0020550D02*
X-0002100D01*
X0035200Y-0020500D02*
X-0002050D01*
X0035200Y-0018500D02*
X-0002050D01*
X0035200Y-0017000D02*
X-0002050D01*
X0035200Y-0015500D02*
X-0002050D01*
X0035200Y-0014000D02*
X-0002050D01*
X0035200Y-0012500D02*
X-0002050D01*
X0035200Y-0011000D02*
X-0002050D01*
X0035200Y-0009500D02*
X-0002050D01*
X0035200Y-0008000D02*
X-0002050D01*
X0035200Y-0007950D02*
X-0002050D01*
X0035200Y-0006000D02*
X-0002050D01*
X0035200Y-0005950D02*
X-0002050D01*
X0035200Y-0004000D02*
X-0002050D01*
X0035250Y-0003950D02*
X-0002100D01*
X0035250Y-0020500D02*
Y-0004000D01*
X0035200Y-0020500D02*
Y-0004000D01*
X0023658Y-0020500D02*
Y-0006000D01*
X0018108Y-0020500D02*
Y-0006000D01*
X0010042Y-0018500D02*
Y-0006000D01*
X0001650Y-0018500D02*
Y-0006000D01*
X0001600Y-0018500D02*
Y-0006000D01*
X-0002100Y-0020500D02*
Y-0004000D01*
X-0002050Y-0020500D02*
Y-0004000D01*
X0001050Y0003250D02*
Y0003050D01*
X0001200Y0003400D02*
X0001050Y0003250D01*
X0001400Y0003400D02*
X0001200D01*
X0001550Y0003250D02*
X0001400Y0003400D01*
X0001550Y0003050D02*
Y0003250D01*
X0001400Y0002900D02*
X0001550Y0003050D01*
X0001200Y0002900D02*
X0001400D01*
X0001050Y0003050D02*
X0001200Y0002900D01*
X0001050Y0003950D02*
Y0003750D01*
X0001200Y0004100D02*
X0001050Y0003950D01*
X0001400Y0004100D02*
X0001200D01*
X0001550Y0003950D02*
X0001400Y0004100D01*
X0001550Y0003750D02*
Y0003950D01*
X0001400Y0003600D02*
X0001550Y0003750D01*
X0001200Y0003600D02*
X0001400D01*
X0001050Y0003750D02*
X0001200Y0003600D01*
X0001050Y0004750D02*
Y0004550D01*
X0001200Y0004900D02*
X0001050Y0004750D01*
X0001400Y0004900D02*
X0001200D01*
X0001550Y0004750D02*
X0001400Y0004900D01*
X0001550Y0004550D02*
Y0004750D01*
X0001400Y0004400D02*
X0001550Y0004550D01*
X0001200Y0004400D02*
X0001400D01*
X0001050Y0004550D02*
X0001200Y0004400D01*
X0001050Y0005500D02*
Y0005300D01*
X0001200Y0005650D02*
X0001050Y0005500D01*
X0001400Y0005650D02*
X0001200D01*
X0001550Y0005500D02*
X0001400Y0005650D01*
X0001550Y0005300D02*
Y0005500D01*
X0001400Y0005150D02*
X0001550Y0005300D01*
X0001200Y0005150D02*
X0001400D01*
X0001050Y0005300D02*
X0001200Y0005150D01*
X0001700Y0005500D02*
Y0005300D01*
X0001850Y0005650D02*
X0001700Y0005500D01*
X0002050Y0005650D02*
X0001850D01*
X0002200Y0005500D02*
X0002050Y0005650D01*
X0002200Y0005300D02*
Y0005500D01*
X0002050Y0005150D02*
X0002200Y0005300D01*
X0001850Y0005150D02*
X0002050D01*
X0001700Y0005300D02*
X0001850Y0005150D01*
X0001700Y0003950D02*
Y0003750D01*
X0001850Y0004100D02*
X0001700Y0003950D01*
X0002050Y0004100D02*
X0001850D01*
X0002200Y0003950D02*
X0002050Y0004100D01*
X0002200Y0003750D02*
Y0003950D01*
X0002050Y0003600D02*
X0002200Y0003750D01*
X0001850Y0003600D02*
X0002050D01*
X0001700Y0003750D02*
X0001850Y0003600D01*
X0001700Y0004750D02*
Y0004550D01*
X0001850Y0004900D02*
X0001700Y0004750D01*
X0002050Y0004900D02*
X0001850D01*
X0002200Y0004750D02*
X0002050Y0004900D01*
X0002200Y0004550D02*
Y0004750D01*
X0002050Y0004400D02*
X0002200Y0004550D01*
X0001850Y0004400D02*
X0002050D01*
X0001700Y0004550D02*
X0001850Y0004400D01*
X0002350Y0003950D02*
Y0003750D01*
X0002500Y0004100D02*
X0002350Y0003950D01*
X0002700Y0004100D02*
X0002500D01*
X0002850Y0003950D02*
X0002700Y0004100D01*
X0002850Y0003750D02*
Y0003950D01*
X0002700Y0003600D02*
X0002850Y0003750D01*
X0002500Y0003600D02*
X0002700D01*
X0002350Y0003750D02*
X0002500Y0003600D01*
X0002350Y0004750D02*
Y0004550D01*
X0002500Y0004900D02*
X0002350Y0004750D01*
X0002700Y0004900D02*
X0002500D01*
X0002850Y0004750D02*
X0002700Y0004900D01*
X0002850Y0004550D02*
Y0004750D01*
X0002700Y0004400D02*
X0002850Y0004550D01*
X0002500Y0004400D02*
X0002700D01*
X0002350Y0004550D02*
X0002500Y0004400D01*
X0005000Y0004750D02*
Y0004550D01*
X0005150Y0004900D02*
X0005000Y0004750D01*
X0005350Y0004900D02*
X0005150D01*
X0005500Y0004750D02*
X0005350Y0004900D01*
X0005500Y0004550D02*
Y0004750D01*
X0005350Y0004400D02*
X0005500Y0004550D01*
X0005150Y0004400D02*
X0005350D01*
X0005000Y0004550D02*
X0005150Y0004400D01*
X0005600Y0004750D02*
Y0004550D01*
X0005750Y0004900D02*
X0005600Y0004750D01*
X0005950Y0004900D02*
X0005750D01*
X0006100Y0004750D02*
X0005950Y0004900D01*
X0006100Y0004550D02*
Y0004750D01*
X0005950Y0004400D02*
X0006100Y0004550D01*
X0005750Y0004400D02*
X0005950D01*
X0005600Y0004550D02*
X0005750Y0004400D01*
X0005600Y0003950D02*
Y0003750D01*
X0005750Y0004100D02*
X0005600Y0003950D01*
X0005950Y0004100D02*
X0005750D01*
X0006100Y0003950D02*
X0005950Y0004100D01*
X0006100Y0003750D02*
Y0003950D01*
X0005950Y0003600D02*
X0006100Y0003750D01*
X0005750Y0003600D02*
X0005950D01*
X0005600Y0003750D02*
X0005750Y0003600D01*
X0005000Y0003950D02*
Y0003750D01*
X0005150Y0004100D02*
X0005000Y0003950D01*
X0005350Y0004100D02*
X0005150D01*
X0005500Y0003950D02*
X0005350Y0004100D01*
X0005500Y0003750D02*
Y0003950D01*
X0005350Y0003600D02*
X0005500Y0003750D01*
X0005150Y0003600D02*
X0005350D01*
X0005000Y0003750D02*
X0005150Y0003600D01*
X0004400Y0003950D02*
Y0003750D01*
X0004550Y0004100D02*
X0004400Y0003950D01*
X0004750Y0004100D02*
X0004550D01*
X0004900Y0003950D02*
X0004750Y0004100D01*
X0004900Y0003750D02*
Y0003950D01*
X0004750Y0003600D02*
X0004900Y0003750D01*
X0004550Y0003600D02*
X0004750D01*
X0004400Y0003750D02*
X0004550Y0003600D01*
X0003700Y0003950D02*
Y0003750D01*
X0003850Y0004100D02*
X0003700Y0003950D01*
X0004050Y0004100D02*
X0003850D01*
X0004200Y0003950D02*
X0004050Y0004100D01*
X0004200Y0003750D02*
Y0003950D01*
X0004050Y0003600D02*
X0004200Y0003750D01*
X0003850Y0003600D02*
X0004050D01*
X0003700Y0003750D02*
X0003850Y0003600D01*
X0003050Y0003950D02*
Y0003750D01*
X0003200Y0004100D02*
X0003050Y0003950D01*
X0003400Y0004100D02*
X0003200D01*
X0003550Y0003950D02*
X0003400Y0004100D01*
X0003550Y0003750D02*
Y0003950D01*
X0003400Y0003600D02*
X0003550Y0003750D01*
X0003200Y0003600D02*
X0003400D01*
X0003050Y0003750D02*
X0003200Y0003600D01*
X0003050Y0004750D02*
Y0004550D01*
X0003200Y0004900D02*
X0003050Y0004750D01*
X0003400Y0004900D02*
X0003200D01*
X0003550Y0004750D02*
X0003400Y0004900D01*
X0003550Y0004550D02*
Y0004750D01*
X0003400Y0004400D02*
X0003550Y0004550D01*
X0003200Y0004400D02*
X0003400D01*
X0003050Y0004550D02*
X0003200Y0004400D01*
X0003700Y0004750D02*
Y0004550D01*
X0003850Y0004900D02*
X0003700Y0004750D01*
X0004050Y0004900D02*
X0003850D01*
X0004200Y0004750D02*
X0004050Y0004900D01*
X0004200Y0004550D02*
Y0004750D01*
X0004050Y0004400D02*
X0004200Y0004550D01*
X0003850Y0004400D02*
X0004050D01*
X0003700Y0004550D02*
X0003850Y0004400D01*
X0004400Y0004750D02*
Y0004550D01*
X0004550Y0004900D02*
X0004400Y0004750D01*
X0004750Y0004900D02*
X0004550D01*
X0004900Y0004750D02*
X0004750Y0004900D01*
X0004900Y0004550D02*
Y0004750D01*
X0004750Y0004400D02*
X0004900Y0004550D01*
X0004550Y0004400D02*
X0004750D01*
X0004400Y0004550D02*
X0004550Y0004400D01*
X0001400Y0008220D02*
Y0008020D01*
X0001550Y0008370D02*
X0001400Y0008220D01*
X0001750Y0008370D02*
X0001550D01*
X0001900Y0008220D02*
X0001750Y0008370D01*
X0001900Y0008020D02*
Y0008220D01*
X0001750Y0007870D02*
X0001900Y0008020D01*
X0001550Y0007870D02*
X0001750D01*
X0001400Y0008020D02*
X0001550Y0007870D01*
X0063450Y0001320D02*
Y0001120D01*
X0063600Y0001470D02*
X0063450Y0001320D01*
X0063800Y0001470D02*
X0063600D01*
X0063950Y0001320D02*
X0063800Y0001470D01*
X0063950Y0001120D02*
Y0001320D01*
X0063800Y0000970D02*
X0063950Y0001120D01*
X0063600Y0000970D02*
X0063800D01*
X0063450Y0001120D02*
X0063600Y0000970D01*
X0044500Y0006350D02*
Y0006150D01*
X0044650Y0006500D02*
X0044500Y0006350D01*
X0044850Y0006500D02*
X0044650D01*
X0045000Y0006350D02*
X0044850Y0006500D01*
X0045000Y0006150D02*
Y0006350D01*
X0044850Y0006000D02*
X0045000Y0006150D01*
X0044650Y0006000D02*
X0044850D01*
X0044500Y0006150D02*
X0044650Y0006000D01*
X0044500Y0005600D02*
Y0005400D01*
X0044650Y0005750D02*
X0044500Y0005600D01*
X0044850Y0005750D02*
X0044650D01*
X0045000Y0005600D02*
X0044850Y0005750D01*
X0045000Y0005400D02*
Y0005600D01*
X0044850Y0005250D02*
X0045000Y0005400D01*
X0044650Y0005250D02*
X0044850D01*
X0044500Y0005400D02*
X0044650Y0005250D01*
X0044500Y0004850D02*
Y0004650D01*
X0044650Y0005000D02*
X0044500Y0004850D01*
X0044850Y0005000D02*
X0044650D01*
X0045000Y0004850D02*
X0044850Y0005000D01*
X0045000Y0004650D02*
Y0004850D01*
X0044850Y0004500D02*
X0045000Y0004650D01*
X0044650Y0004500D02*
X0044850D01*
X0044500Y0004650D02*
X0044650Y0004500D01*
X0044500Y0004100D02*
Y0003900D01*
X0044650Y0004250D02*
X0044500Y0004100D01*
X0044850Y0004250D02*
X0044650D01*
X0045000Y0004100D02*
X0044850Y0004250D01*
X0045000Y0003900D02*
Y0004100D01*
X0044850Y0003750D02*
X0045000Y0003900D01*
X0044650Y0003750D02*
X0044850D01*
X0044500Y0003900D02*
X0044650Y0003750D01*
X0044500Y0003350D02*
Y0003150D01*
X0044650Y0003500D02*
X0044500Y0003350D01*
X0044850Y0003500D02*
X0044650D01*
X0045000Y0003350D02*
X0044850Y0003500D01*
X0045000Y0003150D02*
Y0003350D01*
X0044850Y0003000D02*
X0045000Y0003150D01*
X0044650Y0003000D02*
X0044850D01*
X0044500Y0003150D02*
X0044650Y0003000D01*
X0043750Y0003350D02*
Y0003150D01*
X0043900Y0003500D02*
X0043750Y0003350D01*
X0044100Y0003500D02*
X0043900D01*
X0044250Y0003350D02*
X0044100Y0003500D01*
X0044250Y0003150D02*
Y0003350D01*
X0044100Y0003000D02*
X0044250Y0003150D01*
X0043900Y0003000D02*
X0044100D01*
X0043750Y0003150D02*
X0043900Y0003000D01*
X0043000Y0003350D02*
Y0003150D01*
X0043150Y0003500D02*
X0043000Y0003350D01*
X0043350Y0003500D02*
X0043150D01*
X0043500Y0003350D02*
X0043350Y0003500D01*
X0043500Y0003150D02*
Y0003350D01*
X0043350Y0003000D02*
X0043500Y0003150D01*
X0043150Y0003000D02*
X0043350D01*
X0043000Y0003150D02*
X0043150Y0003000D01*
X0042250Y0003350D02*
Y0003150D01*
X0042400Y0003500D02*
X0042250Y0003350D01*
X0042600Y0003500D02*
X0042400D01*
X0042750Y0003350D02*
X0042600Y0003500D01*
X0042750Y0003150D02*
Y0003350D01*
X0042600Y0003000D02*
X0042750Y0003150D01*
X0042400Y0003000D02*
X0042600D01*
X0042250Y0003150D02*
X0042400Y0003000D01*
X0041500Y0003350D02*
Y0003150D01*
X0041650Y0003500D02*
X0041500Y0003350D01*
X0041850Y0003500D02*
X0041650D01*
X0042000Y0003350D02*
X0041850Y0003500D01*
X0042000Y0003150D02*
Y0003350D01*
X0041850Y0003000D02*
X0042000Y0003150D01*
X0041650Y0003000D02*
X0041850D01*
X0041500Y0003150D02*
X0041650Y0003000D01*
X0043000Y0005600D02*
Y0005400D01*
X0043150Y0005750D02*
X0043000Y0005600D01*
X0043350Y0005750D02*
X0043150D01*
X0043500Y0005600D02*
X0043350Y0005750D01*
X0043500Y0005400D02*
Y0005600D01*
X0043350Y0005250D02*
X0043500Y0005400D01*
X0043150Y0005250D02*
X0043350D01*
X0043000Y0005400D02*
X0043150Y0005250D01*
X0043000Y0004850D02*
Y0004650D01*
X0043150Y0005000D02*
X0043000Y0004850D01*
X0043350Y0005000D02*
X0043150D01*
X0043500Y0004850D02*
X0043350Y0005000D01*
X0043500Y0004650D02*
Y0004850D01*
X0043350Y0004500D02*
X0043500Y0004650D01*
X0043150Y0004500D02*
X0043350D01*
X0043000Y0004650D02*
X0043150Y0004500D01*
X0042250Y0004850D02*
Y0004650D01*
X0042400Y0005000D02*
X0042250Y0004850D01*
X0042600Y0005000D02*
X0042400D01*
X0042750Y0004850D02*
X0042600Y0005000D01*
X0042750Y0004650D02*
Y0004850D01*
X0042600Y0004500D02*
X0042750Y0004650D01*
X0042400Y0004500D02*
X0042600D01*
X0042250Y0004650D02*
X0042400Y0004500D01*
X0042250Y0005600D02*
Y0005400D01*
X0042400Y0005750D02*
X0042250Y0005600D01*
X0042600Y0005750D02*
X0042400D01*
X0042750Y0005600D02*
X0042600Y0005750D01*
X0042750Y0005400D02*
Y0005600D01*
X0042600Y0005250D02*
X0042750Y0005400D01*
X0042400Y0005250D02*
X0042600D01*
X0042250Y0005400D02*
X0042400Y0005250D01*
X0041500Y0005600D02*
Y0005400D01*
X0041650Y0005750D02*
X0041500Y0005600D01*
X0041850Y0005750D02*
X0041650D01*
X0042000Y0005600D02*
X0041850Y0005750D01*
X0042000Y0005400D02*
Y0005600D01*
X0041850Y0005250D02*
X0042000Y0005400D01*
X0041650Y0005250D02*
X0041850D01*
X0041500Y0005400D02*
X0041650Y0005250D01*
X0041500Y0004850D02*
Y0004650D01*
X0041650Y0005000D02*
X0041500Y0004850D01*
X0041850Y0005000D02*
X0041650D01*
X0042000Y0004850D02*
X0041850Y0005000D01*
X0042000Y0004650D02*
Y0004850D01*
X0041850Y0004500D02*
X0042000Y0004650D01*
X0041650Y0004500D02*
X0041850D01*
X0041500Y0004650D02*
X0041650Y0004500D01*
X0041500Y0004100D02*
Y0003900D01*
X0041650Y0004250D02*
X0041500Y0004100D01*
X0041850Y0004250D02*
X0041650D01*
X0042000Y0004100D02*
X0041850Y0004250D01*
X0042000Y0003900D02*
Y0004100D01*
X0041850Y0003750D02*
X0042000Y0003900D01*
X0041650Y0003750D02*
X0041850D01*
X0041500Y0003900D02*
X0041650Y0003750D01*
X0042250Y0004100D02*
Y0003900D01*
X0042400Y0004250D02*
X0042250Y0004100D01*
X0042600Y0004250D02*
X0042400D01*
X0042750Y0004100D02*
X0042600Y0004250D01*
X0042750Y0003900D02*
Y0004100D01*
X0042600Y0003750D02*
X0042750Y0003900D01*
X0042400Y0003750D02*
X0042600D01*
X0042250Y0003900D02*
X0042400Y0003750D01*
X0043000Y0004100D02*
Y0003900D01*
X0043150Y0004250D02*
X0043000Y0004100D01*
X0043350Y0004250D02*
X0043150D01*
X0043500Y0004100D02*
X0043350Y0004250D01*
X0043500Y0003900D02*
Y0004100D01*
X0043350Y0003750D02*
X0043500Y0003900D01*
X0043150Y0003750D02*
X0043350D01*
X0043000Y0003900D02*
X0043150Y0003750D01*
X0043750Y0004100D02*
Y0003900D01*
X0043900Y0004250D02*
X0043750Y0004100D01*
X0044100Y0004250D02*
X0043900D01*
X0044250Y0004100D02*
X0044100Y0004250D01*
X0044250Y0003900D02*
Y0004100D01*
X0044100Y0003750D02*
X0044250Y0003900D01*
X0043900Y0003750D02*
X0044100D01*
X0043750Y0003900D02*
X0043900Y0003750D01*
X0043750Y0004850D02*
Y0004650D01*
X0043900Y0005000D02*
X0043750Y0004850D01*
X0044100Y0005000D02*
X0043900D01*
X0044250Y0004850D02*
X0044100Y0005000D01*
X0044250Y0004650D02*
Y0004850D01*
X0044100Y0004500D02*
X0044250Y0004650D01*
X0043900Y0004500D02*
X0044100D01*
X0043750Y0004650D02*
X0043900Y0004500D01*
X0043750Y0005600D02*
Y0005400D01*
X0043900Y0005750D02*
X0043750Y0005600D01*
X0044100Y0005750D02*
X0043900D01*
X0044250Y0005600D02*
X0044100Y0005750D01*
X0044250Y0005400D02*
Y0005600D01*
X0044100Y0005250D02*
X0044250Y0005400D01*
X0043900Y0005250D02*
X0044100D01*
X0043750Y0005400D02*
X0043900Y0005250D01*
X0043750Y0006350D02*
Y0006150D01*
X0043900Y0006500D02*
X0043750Y0006350D01*
X0044100Y0006500D02*
X0043900D01*
X0044250Y0006350D02*
X0044100Y0006500D01*
X0044250Y0006150D02*
Y0006350D01*
X0044100Y0006000D02*
X0044250Y0006150D01*
X0043900Y0006000D02*
X0044100D01*
X0043750Y0006150D02*
X0043900Y0006000D01*
X0043000Y0006350D02*
Y0006150D01*
X0043150Y0006500D02*
X0043000Y0006350D01*
X0043350Y0006500D02*
X0043150D01*
X0043500Y0006350D02*
X0043350Y0006500D01*
X0043500Y0006150D02*
Y0006350D01*
X0043350Y0006000D02*
X0043500Y0006150D01*
X0043150Y0006000D02*
X0043350D01*
X0043000Y0006150D02*
X0043150Y0006000D01*
X0042250Y0006350D02*
Y0006150D01*
X0042400Y0006500D02*
X0042250Y0006350D01*
X0042600Y0006500D02*
X0042400D01*
X0042750Y0006350D02*
X0042600Y0006500D01*
X0042750Y0006150D02*
Y0006350D01*
X0042600Y0006000D02*
X0042750Y0006150D01*
X0042400Y0006000D02*
X0042600D01*
X0042250Y0006150D02*
X0042400Y0006000D01*
X0041500Y0006350D02*
Y0006150D01*
X0041650Y0006500D02*
X0041500Y0006350D01*
X0041850Y0006500D02*
X0041650D01*
X0042000Y0006350D02*
X0041850Y0006500D01*
X0042000Y0006150D02*
Y0006350D01*
X0041850Y0006000D02*
X0042000Y0006150D01*
X0041650Y0006000D02*
X0041850D01*
X0041500Y0006150D02*
X0041650Y0006000D01*
X0014750Y0013850D02*
Y0013650D01*
X0014900Y0014000D02*
X0014750Y0013850D01*
X0015100Y0014000D02*
X0014900D01*
X0015250Y0013850D02*
X0015100Y0014000D01*
X0015250Y0013650D02*
Y0013850D01*
X0015100Y0013500D02*
X0015250Y0013650D01*
X0014900Y0013500D02*
X0015100D01*
X0014750Y0013650D02*
X0014900Y0013500D01*
X0014750Y0014600D02*
Y0014400D01*
X0014900Y0014750D02*
X0014750Y0014600D01*
X0015100Y0014750D02*
X0014900D01*
X0015250Y0014600D02*
X0015100Y0014750D01*
X0015250Y0014400D02*
Y0014600D01*
X0015100Y0014250D02*
X0015250Y0014400D01*
X0014900Y0014250D02*
X0015100D01*
X0014750Y0014400D02*
X0014900Y0014250D01*
X0014750Y0015350D02*
Y0015150D01*
X0014900Y0015500D02*
X0014750Y0015350D01*
X0015100Y0015500D02*
X0014900D01*
X0015250Y0015350D02*
X0015100Y0015500D01*
X0015250Y0015150D02*
Y0015350D01*
X0015100Y0015000D02*
X0015250Y0015150D01*
X0014900Y0015000D02*
X0015100D01*
X0014750Y0015150D02*
X0014900Y0015000D01*
X0014750Y0016100D02*
Y0015900D01*
X0014900Y0016250D02*
X0014750Y0016100D01*
X0015100Y0016250D02*
X0014900D01*
X0015250Y0016100D02*
X0015100Y0016250D01*
X0015250Y0015900D02*
Y0016100D01*
X0015100Y0015750D02*
X0015250Y0015900D01*
X0014900Y0015750D02*
X0015100D01*
X0014750Y0015900D02*
X0014900Y0015750D01*
X0014750Y0016850D02*
Y0016650D01*
X0014900Y0017000D02*
X0014750Y0016850D01*
X0015100Y0017000D02*
X0014900D01*
X0015250Y0016850D02*
X0015100Y0017000D01*
X0015250Y0016650D02*
Y0016850D01*
X0015100Y0016500D02*
X0015250Y0016650D01*
X0014900Y0016500D02*
X0015100D01*
X0014750Y0016650D02*
X0014900Y0016500D01*
X0020000Y0013850D02*
Y0013650D01*
X0020150Y0014000D02*
X0020000Y0013850D01*
X0020350Y0014000D02*
X0020150D01*
X0020500Y0013850D02*
X0020350Y0014000D01*
X0020500Y0013650D02*
Y0013850D01*
X0020350Y0013500D02*
X0020500Y0013650D01*
X0020150Y0013500D02*
X0020350D01*
X0020000Y0013650D02*
X0020150Y0013500D01*
X0019250Y0013850D02*
Y0013650D01*
X0019400Y0014000D02*
X0019250Y0013850D01*
X0019600Y0014000D02*
X0019400D01*
X0019750Y0013850D02*
X0019600Y0014000D01*
X0019750Y0013650D02*
Y0013850D01*
X0019600Y0013500D02*
X0019750Y0013650D01*
X0019400Y0013500D02*
X0019600D01*
X0019250Y0013650D02*
X0019400Y0013500D01*
X0018500Y0013850D02*
Y0013650D01*
X0018650Y0014000D02*
X0018500Y0013850D01*
X0018850Y0014000D02*
X0018650D01*
X0019000Y0013850D02*
X0018850Y0014000D01*
X0019000Y0013650D02*
Y0013850D01*
X0018850Y0013500D02*
X0019000Y0013650D01*
X0018650Y0013500D02*
X0018850D01*
X0018500Y0013650D02*
X0018650Y0013500D01*
X0017750Y0013850D02*
Y0013650D01*
X0017900Y0014000D02*
X0017750Y0013850D01*
X0018100Y0014000D02*
X0017900D01*
X0018250Y0013850D02*
X0018100Y0014000D01*
X0018250Y0013650D02*
Y0013850D01*
X0018100Y0013500D02*
X0018250Y0013650D01*
X0017900Y0013500D02*
X0018100D01*
X0017750Y0013650D02*
X0017900Y0013500D01*
X0017000Y0013850D02*
Y0013650D01*
X0017150Y0014000D02*
X0017000Y0013850D01*
X0017350Y0014000D02*
X0017150D01*
X0017500Y0013850D02*
X0017350Y0014000D01*
X0017500Y0013650D02*
Y0013850D01*
X0017350Y0013500D02*
X0017500Y0013650D01*
X0017150Y0013500D02*
X0017350D01*
X0017000Y0013650D02*
X0017150Y0013500D01*
X0016250Y0013850D02*
Y0013650D01*
X0016400Y0014000D02*
X0016250Y0013850D01*
X0016600Y0014000D02*
X0016400D01*
X0016750Y0013850D02*
X0016600Y0014000D01*
X0016750Y0013650D02*
Y0013850D01*
X0016600Y0013500D02*
X0016750Y0013650D01*
X0016400Y0013500D02*
X0016600D01*
X0016250Y0013650D02*
X0016400Y0013500D01*
X0015500Y0013850D02*
Y0013650D01*
X0015650Y0014000D02*
X0015500Y0013850D01*
X0015850Y0014000D02*
X0015650D01*
X0016000Y0013850D02*
X0015850Y0014000D01*
X0016000Y0013650D02*
Y0013850D01*
X0015850Y0013500D02*
X0016000Y0013650D01*
X0015650Y0013500D02*
X0015850D01*
X0015500Y0013650D02*
X0015650Y0013500D01*
X0020000Y0014600D02*
Y0014400D01*
X0020150Y0014750D02*
X0020000Y0014600D01*
X0020350Y0014750D02*
X0020150D01*
X0020500Y0014600D02*
X0020350Y0014750D01*
X0020500Y0014400D02*
Y0014600D01*
X0020350Y0014250D02*
X0020500Y0014400D01*
X0020150Y0014250D02*
X0020350D01*
X0020000Y0014400D02*
X0020150Y0014250D01*
X0019250Y0014600D02*
Y0014400D01*
X0019400Y0014750D02*
X0019250Y0014600D01*
X0019600Y0014750D02*
X0019400D01*
X0019750Y0014600D02*
X0019600Y0014750D01*
X0019750Y0014400D02*
Y0014600D01*
X0019600Y0014250D02*
X0019750Y0014400D01*
X0019400Y0014250D02*
X0019600D01*
X0019250Y0014400D02*
X0019400Y0014250D01*
X0018500Y0014600D02*
Y0014400D01*
X0018650Y0014750D02*
X0018500Y0014600D01*
X0018850Y0014750D02*
X0018650D01*
X0019000Y0014600D02*
X0018850Y0014750D01*
X0019000Y0014400D02*
Y0014600D01*
X0018850Y0014250D02*
X0019000Y0014400D01*
X0018650Y0014250D02*
X0018850D01*
X0018500Y0014400D02*
X0018650Y0014250D01*
X0017750Y0014600D02*
Y0014400D01*
X0017900Y0014750D02*
X0017750Y0014600D01*
X0018100Y0014750D02*
X0017900D01*
X0018250Y0014600D02*
X0018100Y0014750D01*
X0018250Y0014400D02*
Y0014600D01*
X0018100Y0014250D02*
X0018250Y0014400D01*
X0017900Y0014250D02*
X0018100D01*
X0017750Y0014400D02*
X0017900Y0014250D01*
X0017000Y0014600D02*
Y0014400D01*
X0017150Y0014750D02*
X0017000Y0014600D01*
X0017350Y0014750D02*
X0017150D01*
X0017500Y0014600D02*
X0017350Y0014750D01*
X0017500Y0014400D02*
Y0014600D01*
X0017350Y0014250D02*
X0017500Y0014400D01*
X0017150Y0014250D02*
X0017350D01*
X0017000Y0014400D02*
X0017150Y0014250D01*
X0016250Y0014600D02*
Y0014400D01*
X0016400Y0014750D02*
X0016250Y0014600D01*
X0016600Y0014750D02*
X0016400D01*
X0016750Y0014600D02*
X0016600Y0014750D01*
X0016750Y0014400D02*
Y0014600D01*
X0016600Y0014250D02*
X0016750Y0014400D01*
X0016400Y0014250D02*
X0016600D01*
X0016250Y0014400D02*
X0016400Y0014250D01*
X0015500Y0014600D02*
Y0014400D01*
X0015650Y0014750D02*
X0015500Y0014600D01*
X0015850Y0014750D02*
X0015650D01*
X0016000Y0014600D02*
X0015850Y0014750D01*
X0016000Y0014400D02*
Y0014600D01*
X0015850Y0014250D02*
X0016000Y0014400D01*
X0015650Y0014250D02*
X0015850D01*
X0015500Y0014400D02*
X0015650Y0014250D01*
X0020000Y0015350D02*
Y0015150D01*
X0020150Y0015500D02*
X0020000Y0015350D01*
X0020350Y0015500D02*
X0020150D01*
X0020500Y0015350D02*
X0020350Y0015500D01*
X0020500Y0015150D02*
Y0015350D01*
X0020350Y0015000D02*
X0020500Y0015150D01*
X0020150Y0015000D02*
X0020350D01*
X0020000Y0015150D02*
X0020150Y0015000D01*
X0019250Y0015350D02*
Y0015150D01*
X0019400Y0015500D02*
X0019250Y0015350D01*
X0019600Y0015500D02*
X0019400D01*
X0019750Y0015350D02*
X0019600Y0015500D01*
X0019750Y0015150D02*
Y0015350D01*
X0019600Y0015000D02*
X0019750Y0015150D01*
X0019400Y0015000D02*
X0019600D01*
X0019250Y0015150D02*
X0019400Y0015000D01*
X0018500Y0015350D02*
Y0015150D01*
X0018650Y0015500D02*
X0018500Y0015350D01*
X0018850Y0015500D02*
X0018650D01*
X0019000Y0015350D02*
X0018850Y0015500D01*
X0019000Y0015150D02*
Y0015350D01*
X0018850Y0015000D02*
X0019000Y0015150D01*
X0018650Y0015000D02*
X0018850D01*
X0018500Y0015150D02*
X0018650Y0015000D01*
X0017750Y0015350D02*
Y0015150D01*
X0017900Y0015500D02*
X0017750Y0015350D01*
X0018100Y0015500D02*
X0017900D01*
X0018250Y0015350D02*
X0018100Y0015500D01*
X0018250Y0015150D02*
Y0015350D01*
X0018100Y0015000D02*
X0018250Y0015150D01*
X0017900Y0015000D02*
X0018100D01*
X0017750Y0015150D02*
X0017900Y0015000D01*
X0017000Y0015350D02*
Y0015150D01*
X0017150Y0015500D02*
X0017000Y0015350D01*
X0017350Y0015500D02*
X0017150D01*
X0017500Y0015350D02*
X0017350Y0015500D01*
X0017500Y0015150D02*
Y0015350D01*
X0017350Y0015000D02*
X0017500Y0015150D01*
X0017150Y0015000D02*
X0017350D01*
X0017000Y0015150D02*
X0017150Y0015000D01*
X0016250Y0015350D02*
Y0015150D01*
X0016400Y0015500D02*
X0016250Y0015350D01*
X0016600Y0015500D02*
X0016400D01*
X0016750Y0015350D02*
X0016600Y0015500D01*
X0016750Y0015150D02*
Y0015350D01*
X0016600Y0015000D02*
X0016750Y0015150D01*
X0016400Y0015000D02*
X0016600D01*
X0016250Y0015150D02*
X0016400Y0015000D01*
X0015500Y0015350D02*
Y0015150D01*
X0015650Y0015500D02*
X0015500Y0015350D01*
X0015850Y0015500D02*
X0015650D01*
X0016000Y0015350D02*
X0015850Y0015500D01*
X0016000Y0015150D02*
Y0015350D01*
X0015850Y0015000D02*
X0016000Y0015150D01*
X0015650Y0015000D02*
X0015850D01*
X0015500Y0015150D02*
X0015650Y0015000D01*
X0020000Y0016100D02*
Y0015900D01*
X0020150Y0016250D02*
X0020000Y0016100D01*
X0020350Y0016250D02*
X0020150D01*
X0020500Y0016100D02*
X0020350Y0016250D01*
X0020500Y0015900D02*
Y0016100D01*
X0020350Y0015750D02*
X0020500Y0015900D01*
X0020150Y0015750D02*
X0020350D01*
X0020000Y0015900D02*
X0020150Y0015750D01*
X0019250Y0016100D02*
Y0015900D01*
X0019400Y0016250D02*
X0019250Y0016100D01*
X0019600Y0016250D02*
X0019400D01*
X0019750Y0016100D02*
X0019600Y0016250D01*
X0019750Y0015900D02*
Y0016100D01*
X0019600Y0015750D02*
X0019750Y0015900D01*
X0019400Y0015750D02*
X0019600D01*
X0019250Y0015900D02*
X0019400Y0015750D01*
X0018500Y0016100D02*
Y0015900D01*
X0018650Y0016250D02*
X0018500Y0016100D01*
X0018850Y0016250D02*
X0018650D01*
X0019000Y0016100D02*
X0018850Y0016250D01*
X0019000Y0015900D02*
Y0016100D01*
X0018850Y0015750D02*
X0019000Y0015900D01*
X0018650Y0015750D02*
X0018850D01*
X0018500Y0015900D02*
X0018650Y0015750D01*
X0017750Y0016100D02*
Y0015900D01*
X0017900Y0016250D02*
X0017750Y0016100D01*
X0018100Y0016250D02*
X0017900D01*
X0018250Y0016100D02*
X0018100Y0016250D01*
X0018250Y0015900D02*
Y0016100D01*
X0018100Y0015750D02*
X0018250Y0015900D01*
X0017900Y0015750D02*
X0018100D01*
X0017750Y0015900D02*
X0017900Y0015750D01*
X0017000Y0016100D02*
Y0015900D01*
X0017150Y0016250D02*
X0017000Y0016100D01*
X0017350Y0016250D02*
X0017150D01*
X0017500Y0016100D02*
X0017350Y0016250D01*
X0017500Y0015900D02*
Y0016100D01*
X0017350Y0015750D02*
X0017500Y0015900D01*
X0017150Y0015750D02*
X0017350D01*
X0017000Y0015900D02*
X0017150Y0015750D01*
X0016250Y0016100D02*
Y0015900D01*
X0016400Y0016250D02*
X0016250Y0016100D01*
X0016600Y0016250D02*
X0016400D01*
X0016750Y0016100D02*
X0016600Y0016250D01*
X0016750Y0015900D02*
Y0016100D01*
X0016600Y0015750D02*
X0016750Y0015900D01*
X0016400Y0015750D02*
X0016600D01*
X0016250Y0015900D02*
X0016400Y0015750D01*
X0015500Y0016100D02*
Y0015900D01*
X0015650Y0016250D02*
X0015500Y0016100D01*
X0015850Y0016250D02*
X0015650D01*
X0016000Y0016100D02*
X0015850Y0016250D01*
X0016000Y0015900D02*
Y0016100D01*
X0015850Y0015750D02*
X0016000Y0015900D01*
X0015650Y0015750D02*
X0015850D01*
X0015500Y0015900D02*
X0015650Y0015750D01*
X0020000Y0016850D02*
Y0016650D01*
X0020150Y0017000D02*
X0020000Y0016850D01*
X0020350Y0017000D02*
X0020150D01*
X0020500Y0016850D02*
X0020350Y0017000D01*
X0020500Y0016650D02*
Y0016850D01*
X0020350Y0016500D02*
X0020500Y0016650D01*
X0020150Y0016500D02*
X0020350D01*
X0020000Y0016650D02*
X0020150Y0016500D01*
X0019250Y0016850D02*
Y0016650D01*
X0019400Y0017000D02*
X0019250Y0016850D01*
X0019600Y0017000D02*
X0019400D01*
X0019750Y0016850D02*
X0019600Y0017000D01*
X0019750Y0016650D02*
Y0016850D01*
X0019600Y0016500D02*
X0019750Y0016650D01*
X0019400Y0016500D02*
X0019600D01*
X0019250Y0016650D02*
X0019400Y0016500D01*
X0018500Y0016850D02*
Y0016650D01*
X0018650Y0017000D02*
X0018500Y0016850D01*
X0018850Y0017000D02*
X0018650D01*
X0019000Y0016850D02*
X0018850Y0017000D01*
X0019000Y0016650D02*
Y0016850D01*
X0018850Y0016500D02*
X0019000Y0016650D01*
X0018650Y0016500D02*
X0018850D01*
X0018500Y0016650D02*
X0018650Y0016500D01*
X0017750Y0016850D02*
Y0016650D01*
X0017900Y0017000D02*
X0017750Y0016850D01*
X0018100Y0017000D02*
X0017900D01*
X0018250Y0016850D02*
X0018100Y0017000D01*
X0018250Y0016650D02*
Y0016850D01*
X0018100Y0016500D02*
X0018250Y0016650D01*
X0017900Y0016500D02*
X0018100D01*
X0017750Y0016650D02*
X0017900Y0016500D01*
X0017000Y0016850D02*
Y0016650D01*
X0017150Y0017000D02*
X0017000Y0016850D01*
X0017350Y0017000D02*
X0017150D01*
X0017500Y0016850D02*
X0017350Y0017000D01*
X0017500Y0016650D02*
Y0016850D01*
X0017350Y0016500D02*
X0017500Y0016650D01*
X0017150Y0016500D02*
X0017350D01*
X0017000Y0016650D02*
X0017150Y0016500D01*
X0016250Y0016850D02*
Y0016650D01*
X0016400Y0017000D02*
X0016250Y0016850D01*
X0016600Y0017000D02*
X0016400D01*
X0016750Y0016850D02*
X0016600Y0017000D01*
X0016750Y0016650D02*
Y0016850D01*
X0016600Y0016500D02*
X0016750Y0016650D01*
X0016400Y0016500D02*
X0016600D01*
X0016250Y0016650D02*
X0016400Y0016500D01*
X0015500Y0016850D02*
Y0016650D01*
X0015650Y0017000D02*
X0015500Y0016850D01*
X0015850Y0017000D02*
X0015650D01*
X0016000Y0016850D02*
X0015850Y0017000D01*
X0016000Y0016650D02*
Y0016850D01*
X0015850Y0016500D02*
X0016000Y0016650D01*
X0015650Y0016500D02*
X0015850D01*
X0015500Y0016650D02*
X0015650Y0016500D01*
X0028250Y0002900D02*
Y0002700D01*
X0028400Y0003050D02*
X0028250Y0002900D01*
X0028600Y0003050D02*
X0028400D01*
X0028750Y0002900D02*
X0028600Y0003050D01*
X0028750Y0002700D02*
Y0002900D01*
X0028600Y0002550D02*
X0028750Y0002700D01*
X0028400Y0002550D02*
X0028600D01*
X0028250Y0002700D02*
X0028400Y0002550D01*
X0028250Y0003600D02*
Y0003400D01*
X0028400Y0003750D02*
X0028250Y0003600D01*
X0028600Y0003750D02*
X0028400D01*
X0028750Y0003600D02*
X0028600Y0003750D01*
X0028750Y0003400D02*
Y0003600D01*
X0028600Y0003250D02*
X0028750Y0003400D01*
X0028400Y0003250D02*
X0028600D01*
X0028250Y0003400D02*
X0028400Y0003250D01*
X0028250Y0004350D02*
Y0004150D01*
X0028400Y0004500D02*
X0028250Y0004350D01*
X0028600Y0004500D02*
X0028400D01*
X0028750Y0004350D02*
X0028600Y0004500D01*
X0028750Y0004150D02*
Y0004350D01*
X0028600Y0004000D02*
X0028750Y0004150D01*
X0028400Y0004000D02*
X0028600D01*
X0028250Y0004150D02*
X0028400Y0004000D01*
X0028250Y0005100D02*
Y0004900D01*
X0028400Y0005250D02*
X0028250Y0005100D01*
X0028600Y0005250D02*
X0028400D01*
X0028750Y0005100D02*
X0028600Y0005250D01*
X0028750Y0004900D02*
Y0005100D01*
X0028600Y0004750D02*
X0028750Y0004900D01*
X0028400Y0004750D02*
X0028600D01*
X0028250Y0004900D02*
X0028400Y0004750D01*
X0028250Y0005850D02*
Y0005650D01*
X0028400Y0006000D02*
X0028250Y0005850D01*
X0028600Y0006000D02*
X0028400D01*
X0028750Y0005850D02*
X0028600Y0006000D01*
X0028750Y0005650D02*
Y0005850D01*
X0028600Y0005500D02*
X0028750Y0005650D01*
X0028400Y0005500D02*
X0028600D01*
X0028250Y0005650D02*
X0028400Y0005500D01*
X0028250Y0006600D02*
Y0006400D01*
X0028400Y0006750D02*
X0028250Y0006600D01*
X0028600Y0006750D02*
X0028400D01*
X0028750Y0006600D02*
X0028600Y0006750D01*
X0028750Y0006400D02*
Y0006600D01*
X0028600Y0006250D02*
X0028750Y0006400D01*
X0028400Y0006250D02*
X0028600D01*
X0028250Y0006400D02*
X0028400Y0006250D01*
X0032750Y0002900D02*
Y0002700D01*
X0032900Y0003050D02*
X0032750Y0002900D01*
X0033100Y0003050D02*
X0032900D01*
X0033250Y0002900D02*
X0033100Y0003050D01*
X0033250Y0002700D02*
Y0002900D01*
X0033100Y0002550D02*
X0033250Y0002700D01*
X0032900Y0002550D02*
X0033100D01*
X0032750Y0002700D02*
X0032900Y0002550D01*
X0032750Y0003600D02*
Y0003400D01*
X0032900Y0003750D02*
X0032750Y0003600D01*
X0033100Y0003750D02*
X0032900D01*
X0033250Y0003600D02*
X0033100Y0003750D01*
X0033250Y0003400D02*
Y0003600D01*
X0033100Y0003250D02*
X0033250Y0003400D01*
X0032900Y0003250D02*
X0033100D01*
X0032750Y0003400D02*
X0032900Y0003250D01*
X0032750Y0004350D02*
Y0004150D01*
X0032900Y0004500D02*
X0032750Y0004350D01*
X0033100Y0004500D02*
X0032900D01*
X0033250Y0004350D02*
X0033100Y0004500D01*
X0033250Y0004150D02*
Y0004350D01*
X0033100Y0004000D02*
X0033250Y0004150D01*
X0032900Y0004000D02*
X0033100D01*
X0032750Y0004150D02*
X0032900Y0004000D01*
X0032750Y0005100D02*
Y0004900D01*
X0032900Y0005250D02*
X0032750Y0005100D01*
X0033100Y0005250D02*
X0032900D01*
X0033250Y0005100D02*
X0033100Y0005250D01*
X0033250Y0004900D02*
Y0005100D01*
X0033100Y0004750D02*
X0033250Y0004900D01*
X0032900Y0004750D02*
X0033100D01*
X0032750Y0004900D02*
X0032900Y0004750D01*
X0032750Y0005850D02*
Y0005650D01*
X0032900Y0006000D02*
X0032750Y0005850D01*
X0033100Y0006000D02*
X0032900D01*
X0033250Y0005850D02*
X0033100Y0006000D01*
X0033250Y0005650D02*
Y0005850D01*
X0033100Y0005500D02*
X0033250Y0005650D01*
X0032900Y0005500D02*
X0033100D01*
X0032750Y0005650D02*
X0032900Y0005500D01*
X0032750Y0006600D02*
Y0006400D01*
X0032900Y0006750D02*
X0032750Y0006600D01*
X0033100Y0006750D02*
X0032900D01*
X0033250Y0006600D02*
X0033100Y0006750D01*
X0033250Y0006400D02*
Y0006600D01*
X0033100Y0006250D02*
X0033250Y0006400D01*
X0032900Y0006250D02*
X0033100D01*
X0032750Y0006400D02*
X0032900Y0006250D01*
X0032000Y0006600D02*
Y0006400D01*
X0032150Y0006750D02*
X0032000Y0006600D01*
X0032350Y0006750D02*
X0032150D01*
X0032500Y0006600D02*
X0032350Y0006750D01*
X0032500Y0006400D02*
Y0006600D01*
X0032350Y0006250D02*
X0032500Y0006400D01*
X0032150Y0006250D02*
X0032350D01*
X0032000Y0006400D02*
X0032150Y0006250D01*
X0031250Y0006600D02*
Y0006400D01*
X0031400Y0006750D02*
X0031250Y0006600D01*
X0031600Y0006750D02*
X0031400D01*
X0031750Y0006600D02*
X0031600Y0006750D01*
X0031750Y0006400D02*
Y0006600D01*
X0031600Y0006250D02*
X0031750Y0006400D01*
X0031400Y0006250D02*
X0031600D01*
X0031250Y0006400D02*
X0031400Y0006250D01*
X0030500Y0006600D02*
Y0006400D01*
X0030650Y0006750D02*
X0030500Y0006600D01*
X0030850Y0006750D02*
X0030650D01*
X0031000Y0006600D02*
X0030850Y0006750D01*
X0031000Y0006400D02*
Y0006600D01*
X0030850Y0006250D02*
X0031000Y0006400D01*
X0030650Y0006250D02*
X0030850D01*
X0030500Y0006400D02*
X0030650Y0006250D01*
X0029750Y0006600D02*
Y0006400D01*
X0029900Y0006750D02*
X0029750Y0006600D01*
X0030100Y0006750D02*
X0029900D01*
X0030250Y0006600D02*
X0030100Y0006750D01*
X0030250Y0006400D02*
Y0006600D01*
X0030100Y0006250D02*
X0030250Y0006400D01*
X0029900Y0006250D02*
X0030100D01*
X0029750Y0006400D02*
X0029900Y0006250D01*
X0029000Y0006600D02*
Y0006400D01*
X0029150Y0006750D02*
X0029000Y0006600D01*
X0029350Y0006750D02*
X0029150D01*
X0029500Y0006600D02*
X0029350Y0006750D01*
X0029500Y0006400D02*
Y0006600D01*
X0029350Y0006250D02*
X0029500Y0006400D01*
X0029150Y0006250D02*
X0029350D01*
X0029000Y0006400D02*
X0029150Y0006250D01*
X0029000Y0005850D02*
Y0005650D01*
X0029150Y0006000D02*
X0029000Y0005850D01*
X0029350Y0006000D02*
X0029150D01*
X0029500Y0005850D02*
X0029350Y0006000D01*
X0029500Y0005650D02*
Y0005850D01*
X0029350Y0005500D02*
X0029500Y0005650D01*
X0029150Y0005500D02*
X0029350D01*
X0029000Y0005650D02*
X0029150Y0005500D01*
X0029750Y0005850D02*
Y0005650D01*
X0029900Y0006000D02*
X0029750Y0005850D01*
X0030100Y0006000D02*
X0029900D01*
X0030250Y0005850D02*
X0030100Y0006000D01*
X0030250Y0005650D02*
Y0005850D01*
X0030100Y0005500D02*
X0030250Y0005650D01*
X0029900Y0005500D02*
X0030100D01*
X0029750Y0005650D02*
X0029900Y0005500D01*
X0030500Y0005850D02*
Y0005650D01*
X0030650Y0006000D02*
X0030500Y0005850D01*
X0030850Y0006000D02*
X0030650D01*
X0031000Y0005850D02*
X0030850Y0006000D01*
X0031000Y0005650D02*
Y0005850D01*
X0030850Y0005500D02*
X0031000Y0005650D01*
X0030650Y0005500D02*
X0030850D01*
X0030500Y0005650D02*
X0030650Y0005500D01*
X0031250Y0005850D02*
Y0005650D01*
X0031400Y0006000D02*
X0031250Y0005850D01*
X0031600Y0006000D02*
X0031400D01*
X0031750Y0005850D02*
X0031600Y0006000D01*
X0031750Y0005650D02*
Y0005850D01*
X0031600Y0005500D02*
X0031750Y0005650D01*
X0031400Y0005500D02*
X0031600D01*
X0031250Y0005650D02*
X0031400Y0005500D01*
X0032000Y0005850D02*
Y0005650D01*
X0032150Y0006000D02*
X0032000Y0005850D01*
X0032350Y0006000D02*
X0032150D01*
X0032500Y0005850D02*
X0032350Y0006000D01*
X0032500Y0005650D02*
Y0005850D01*
X0032350Y0005500D02*
X0032500Y0005650D01*
X0032150Y0005500D02*
X0032350D01*
X0032000Y0005650D02*
X0032150Y0005500D01*
X0032000Y0005100D02*
Y0004900D01*
X0032150Y0005250D02*
X0032000Y0005100D01*
X0032350Y0005250D02*
X0032150D01*
X0032500Y0005100D02*
X0032350Y0005250D01*
X0032500Y0004900D02*
Y0005100D01*
X0032350Y0004750D02*
X0032500Y0004900D01*
X0032150Y0004750D02*
X0032350D01*
X0032000Y0004900D02*
X0032150Y0004750D01*
X0031250Y0005100D02*
Y0004900D01*
X0031400Y0005250D02*
X0031250Y0005100D01*
X0031600Y0005250D02*
X0031400D01*
X0031750Y0005100D02*
X0031600Y0005250D01*
X0031750Y0004900D02*
Y0005100D01*
X0031600Y0004750D02*
X0031750Y0004900D01*
X0031400Y0004750D02*
X0031600D01*
X0031250Y0004900D02*
X0031400Y0004750D01*
X0030500Y0005100D02*
Y0004900D01*
X0030650Y0005250D02*
X0030500Y0005100D01*
X0030850Y0005250D02*
X0030650D01*
X0031000Y0005100D02*
X0030850Y0005250D01*
X0031000Y0004900D02*
Y0005100D01*
X0030850Y0004750D02*
X0031000Y0004900D01*
X0030650Y0004750D02*
X0030850D01*
X0030500Y0004900D02*
X0030650Y0004750D01*
X0029750Y0005100D02*
Y0004900D01*
X0029900Y0005250D02*
X0029750Y0005100D01*
X0030100Y0005250D02*
X0029900D01*
X0030250Y0005100D02*
X0030100Y0005250D01*
X0030250Y0004900D02*
Y0005100D01*
X0030100Y0004750D02*
X0030250Y0004900D01*
X0029900Y0004750D02*
X0030100D01*
X0029750Y0004900D02*
X0029900Y0004750D01*
X0029000Y0005100D02*
Y0004900D01*
X0029150Y0005250D02*
X0029000Y0005100D01*
X0029350Y0005250D02*
X0029150D01*
X0029500Y0005100D02*
X0029350Y0005250D01*
X0029500Y0004900D02*
Y0005100D01*
X0029350Y0004750D02*
X0029500Y0004900D01*
X0029150Y0004750D02*
X0029350D01*
X0029000Y0004900D02*
X0029150Y0004750D01*
X0029000Y0004350D02*
Y0004150D01*
X0029150Y0004500D02*
X0029000Y0004350D01*
X0029350Y0004500D02*
X0029150D01*
X0029500Y0004350D02*
X0029350Y0004500D01*
X0029500Y0004150D02*
Y0004350D01*
X0029350Y0004000D02*
X0029500Y0004150D01*
X0029150Y0004000D02*
X0029350D01*
X0029000Y0004150D02*
X0029150Y0004000D01*
X0029750Y0004350D02*
Y0004150D01*
X0029900Y0004500D02*
X0029750Y0004350D01*
X0030100Y0004500D02*
X0029900D01*
X0030250Y0004350D02*
X0030100Y0004500D01*
X0030250Y0004150D02*
Y0004350D01*
X0030100Y0004000D02*
X0030250Y0004150D01*
X0029900Y0004000D02*
X0030100D01*
X0029750Y0004150D02*
X0029900Y0004000D01*
X0030500Y0004350D02*
Y0004150D01*
X0030650Y0004500D02*
X0030500Y0004350D01*
X0030850Y0004500D02*
X0030650D01*
X0031000Y0004350D02*
X0030850Y0004500D01*
X0031000Y0004150D02*
Y0004350D01*
X0030850Y0004000D02*
X0031000Y0004150D01*
X0030650Y0004000D02*
X0030850D01*
X0030500Y0004150D02*
X0030650Y0004000D01*
X0031250Y0004350D02*
Y0004150D01*
X0031400Y0004500D02*
X0031250Y0004350D01*
X0031600Y0004500D02*
X0031400D01*
X0031750Y0004350D02*
X0031600Y0004500D01*
X0031750Y0004150D02*
Y0004350D01*
X0031600Y0004000D02*
X0031750Y0004150D01*
X0031400Y0004000D02*
X0031600D01*
X0031250Y0004150D02*
X0031400Y0004000D01*
X0032000Y0004350D02*
Y0004150D01*
X0032150Y0004500D02*
X0032000Y0004350D01*
X0032350Y0004500D02*
X0032150D01*
X0032500Y0004350D02*
X0032350Y0004500D01*
X0032500Y0004150D02*
Y0004350D01*
X0032350Y0004000D02*
X0032500Y0004150D01*
X0032150Y0004000D02*
X0032350D01*
X0032000Y0004150D02*
X0032150Y0004000D01*
X0031300Y0003600D02*
Y0003400D01*
X0031450Y0003750D02*
X0031300Y0003600D01*
X0031650Y0003750D02*
X0031450D01*
X0031800Y0003600D02*
X0031650Y0003750D01*
X0031800Y0003400D02*
Y0003600D01*
X0031650Y0003250D02*
X0031800Y0003400D01*
X0031450Y0003250D02*
X0031650D01*
X0031300Y0003400D02*
X0031450Y0003250D01*
X0030500Y0003600D02*
Y0003400D01*
X0030650Y0003750D02*
X0030500Y0003600D01*
X0030850Y0003750D02*
X0030650D01*
X0031000Y0003600D02*
X0030850Y0003750D01*
X0031000Y0003400D02*
Y0003600D01*
X0030850Y0003250D02*
X0031000Y0003400D01*
X0030650Y0003250D02*
X0030850D01*
X0030500Y0003400D02*
X0030650Y0003250D01*
X0029750Y0003600D02*
Y0003400D01*
X0029900Y0003750D02*
X0029750Y0003600D01*
X0030100Y0003750D02*
X0029900D01*
X0030250Y0003600D02*
X0030100Y0003750D01*
X0030250Y0003400D02*
Y0003600D01*
X0030100Y0003250D02*
X0030250Y0003400D01*
X0029900Y0003250D02*
X0030100D01*
X0029750Y0003400D02*
X0029900Y0003250D01*
X0032000Y0003600D02*
Y0003400D01*
X0032150Y0003750D02*
X0032000Y0003600D01*
X0032350Y0003750D02*
X0032150D01*
X0032500Y0003600D02*
X0032350Y0003750D01*
X0032500Y0003400D02*
Y0003600D01*
X0032350Y0003250D02*
X0032500Y0003400D01*
X0032150Y0003250D02*
X0032350D01*
X0032000Y0003400D02*
X0032150Y0003250D01*
X0032000Y0002900D02*
Y0002700D01*
X0032150Y0003050D02*
X0032000Y0002900D01*
X0032350Y0003050D02*
X0032150D01*
X0032500Y0002900D02*
X0032350Y0003050D01*
X0032500Y0002700D02*
Y0002900D01*
X0032350Y0002550D02*
X0032500Y0002700D01*
X0032150Y0002550D02*
X0032350D01*
X0032000Y0002700D02*
X0032150Y0002550D01*
X0031300Y0002900D02*
Y0002700D01*
X0031450Y0003050D02*
X0031300Y0002900D01*
X0031650Y0003050D02*
X0031450D01*
X0031800Y0002900D02*
X0031650Y0003050D01*
X0031800Y0002700D02*
Y0002900D01*
X0031650Y0002550D02*
X0031800Y0002700D01*
X0031450Y0002550D02*
X0031650D01*
X0031300Y0002700D02*
X0031450Y0002550D01*
X0030500Y0002900D02*
Y0002700D01*
X0030650Y0003050D02*
X0030500Y0002900D01*
X0030850Y0003050D02*
X0030650D01*
X0031000Y0002900D02*
X0030850Y0003050D01*
X0031000Y0002700D02*
Y0002900D01*
X0030850Y0002550D02*
X0031000Y0002700D01*
X0030650Y0002550D02*
X0030850D01*
X0030500Y0002700D02*
X0030650Y0002550D01*
X0029050Y0003600D02*
Y0003400D01*
X0029200Y0003750D02*
X0029050Y0003600D01*
X0029400Y0003750D02*
X0029200D01*
X0029550Y0003600D02*
X0029400Y0003750D01*
X0029550Y0003400D02*
Y0003600D01*
X0029400Y0003250D02*
X0029550Y0003400D01*
X0029200Y0003250D02*
X0029400D01*
X0029050Y0003400D02*
X0029200Y0003250D01*
X0029750Y0002900D02*
Y0002700D01*
X0029900Y0003050D02*
X0029750Y0002900D01*
X0030100Y0003050D02*
X0029900D01*
X0030250Y0002900D02*
X0030100Y0003050D01*
X0030250Y0002700D02*
Y0002900D01*
X0030100Y0002550D02*
X0030250Y0002700D01*
X0029900Y0002550D02*
X0030100D01*
X0029750Y0002700D02*
X0029900Y0002550D01*
X0029050Y0002900D02*
Y0002700D01*
X0029200Y0003050D02*
X0029050Y0002900D01*
X0029400Y0003050D02*
X0029200D01*
X0029550Y0002900D02*
X0029400Y0003050D01*
X0029550Y0002700D02*
Y0002900D01*
X0029400Y0002550D02*
X0029550Y0002700D01*
X0029200Y0002550D02*
X0029400D01*
X0029050Y0002700D02*
X0029200Y0002550D01*
X0020000Y0004100D02*
Y0003900D01*
X0020150Y0004250D02*
X0020000Y0004100D01*
X0020350Y0004250D02*
X0020150D01*
X0020500Y0004100D02*
X0020350Y0004250D01*
X0020500Y0003900D02*
Y0004100D01*
X0020350Y0003750D02*
X0020500Y0003900D01*
X0020150Y0003750D02*
X0020350D01*
X0020000Y0003900D02*
X0020150Y0003750D01*
X0020000Y0004850D02*
Y0004650D01*
X0020150Y0005000D02*
X0020000Y0004850D01*
X0020350Y0005000D02*
X0020150D01*
X0020500Y0004850D02*
X0020350Y0005000D01*
X0020500Y0004650D02*
Y0004850D01*
X0020350Y0004500D02*
X0020500Y0004650D01*
X0020150Y0004500D02*
X0020350D01*
X0020000Y0004650D02*
X0020150Y0004500D01*
X0020000Y0005600D02*
Y0005400D01*
X0020150Y0005750D02*
X0020000Y0005600D01*
X0020350Y0005750D02*
X0020150D01*
X0020500Y0005600D02*
X0020350Y0005750D01*
X0020500Y0005400D02*
Y0005600D01*
X0020350Y0005250D02*
X0020500Y0005400D01*
X0020150Y0005250D02*
X0020350D01*
X0020000Y0005400D02*
X0020150Y0005250D01*
X0020000Y0006350D02*
Y0006150D01*
X0020150Y0006500D02*
X0020000Y0006350D01*
X0020350Y0006500D02*
X0020150D01*
X0020500Y0006350D02*
X0020350Y0006500D01*
X0020500Y0006150D02*
Y0006350D01*
X0020350Y0006000D02*
X0020500Y0006150D01*
X0020150Y0006000D02*
X0020350D01*
X0020000Y0006150D02*
X0020150Y0006000D01*
X0020000Y0007100D02*
Y0006900D01*
X0020150Y0007250D02*
X0020000Y0007100D01*
X0020350Y0007250D02*
X0020150D01*
X0020500Y0007100D02*
X0020350Y0007250D01*
X0020500Y0006900D02*
Y0007100D01*
X0020350Y0006750D02*
X0020500Y0006900D01*
X0020150Y0006750D02*
X0020350D01*
X0020000Y0006900D02*
X0020150Y0006750D01*
X0020000Y0007850D02*
Y0007650D01*
X0020150Y0008000D02*
X0020000Y0007850D01*
X0020350Y0008000D02*
X0020150D01*
X0020500Y0007850D02*
X0020350Y0008000D01*
X0020500Y0007650D02*
Y0007850D01*
X0020350Y0007500D02*
X0020500Y0007650D01*
X0020150Y0007500D02*
X0020350D01*
X0020000Y0007650D02*
X0020150Y0007500D01*
X0020000Y0008600D02*
Y0008400D01*
X0020150Y0008750D02*
X0020000Y0008600D01*
X0020350Y0008750D02*
X0020150D01*
X0020500Y0008600D02*
X0020350Y0008750D01*
X0020500Y0008400D02*
Y0008600D01*
X0020350Y0008250D02*
X0020500Y0008400D01*
X0020150Y0008250D02*
X0020350D01*
X0020000Y0008400D02*
X0020150Y0008250D01*
X0019250Y0008600D02*
Y0008400D01*
X0019400Y0008750D02*
X0019250Y0008600D01*
X0019600Y0008750D02*
X0019400D01*
X0019750Y0008600D02*
X0019600Y0008750D01*
X0019750Y0008400D02*
Y0008600D01*
X0019600Y0008250D02*
X0019750Y0008400D01*
X0019400Y0008250D02*
X0019600D01*
X0019250Y0008400D02*
X0019400Y0008250D01*
X0018500Y0008600D02*
Y0008400D01*
X0018650Y0008750D02*
X0018500Y0008600D01*
X0018850Y0008750D02*
X0018650D01*
X0019000Y0008600D02*
X0018850Y0008750D01*
X0019000Y0008400D02*
Y0008600D01*
X0018850Y0008250D02*
X0019000Y0008400D01*
X0018650Y0008250D02*
X0018850D01*
X0018500Y0008400D02*
X0018650Y0008250D01*
X0017750Y0008600D02*
Y0008400D01*
X0017900Y0008750D02*
X0017750Y0008600D01*
X0018100Y0008750D02*
X0017900D01*
X0018250Y0008600D02*
X0018100Y0008750D01*
X0018250Y0008400D02*
Y0008600D01*
X0018100Y0008250D02*
X0018250Y0008400D01*
X0017900Y0008250D02*
X0018100D01*
X0017750Y0008400D02*
X0017900Y0008250D01*
X0017000Y0008600D02*
Y0008400D01*
X0017150Y0008750D02*
X0017000Y0008600D01*
X0017350Y0008750D02*
X0017150D01*
X0017500Y0008600D02*
X0017350Y0008750D01*
X0017500Y0008400D02*
Y0008600D01*
X0017350Y0008250D02*
X0017500Y0008400D01*
X0017150Y0008250D02*
X0017350D01*
X0017000Y0008400D02*
X0017150Y0008250D01*
X0016250Y0008600D02*
Y0008400D01*
X0016400Y0008750D02*
X0016250Y0008600D01*
X0016600Y0008750D02*
X0016400D01*
X0016750Y0008600D02*
X0016600Y0008750D01*
X0016750Y0008400D02*
Y0008600D01*
X0016600Y0008250D02*
X0016750Y0008400D01*
X0016400Y0008250D02*
X0016600D01*
X0016250Y0008400D02*
X0016400Y0008250D01*
X0015500Y0008600D02*
Y0008400D01*
X0015650Y0008750D02*
X0015500Y0008600D01*
X0015850Y0008750D02*
X0015650D01*
X0016000Y0008600D02*
X0015850Y0008750D01*
X0016000Y0008400D02*
Y0008600D01*
X0015850Y0008250D02*
X0016000Y0008400D01*
X0015650Y0008250D02*
X0015850D01*
X0015500Y0008400D02*
X0015650Y0008250D01*
X0016250Y0004100D02*
Y0003900D01*
X0016400Y0004250D02*
X0016250Y0004100D01*
X0016600Y0004250D02*
X0016400D01*
X0016750Y0004100D02*
X0016600Y0004250D01*
X0016750Y0003900D02*
Y0004100D01*
X0016600Y0003750D02*
X0016750Y0003900D01*
X0016400Y0003750D02*
X0016600D01*
X0016250Y0003900D02*
X0016400Y0003750D01*
X0017000Y0004100D02*
Y0003900D01*
X0017150Y0004250D02*
X0017000Y0004100D01*
X0017350Y0004250D02*
X0017150D01*
X0017500Y0004100D02*
X0017350Y0004250D01*
X0017500Y0003900D02*
Y0004100D01*
X0017350Y0003750D02*
X0017500Y0003900D01*
X0017150Y0003750D02*
X0017350D01*
X0017000Y0003900D02*
X0017150Y0003750D01*
X0017750Y0004100D02*
Y0003900D01*
X0017900Y0004250D02*
X0017750Y0004100D01*
X0018100Y0004250D02*
X0017900D01*
X0018250Y0004100D02*
X0018100Y0004250D01*
X0018250Y0003900D02*
Y0004100D01*
X0018100Y0003750D02*
X0018250Y0003900D01*
X0017900Y0003750D02*
X0018100D01*
X0017750Y0003900D02*
X0017900Y0003750D01*
X0018500Y0004100D02*
Y0003900D01*
X0018650Y0004250D02*
X0018500Y0004100D01*
X0018850Y0004250D02*
X0018650D01*
X0019000Y0004100D02*
X0018850Y0004250D01*
X0019000Y0003900D02*
Y0004100D01*
X0018850Y0003750D02*
X0019000Y0003900D01*
X0018650Y0003750D02*
X0018850D01*
X0018500Y0003900D02*
X0018650Y0003750D01*
X0019250Y0004100D02*
Y0003900D01*
X0019400Y0004250D02*
X0019250Y0004100D01*
X0019600Y0004250D02*
X0019400D01*
X0019750Y0004100D02*
X0019600Y0004250D01*
X0019750Y0003900D02*
Y0004100D01*
X0019600Y0003750D02*
X0019750Y0003900D01*
X0019400Y0003750D02*
X0019600D01*
X0019250Y0003900D02*
X0019400Y0003750D01*
X0019250Y0004850D02*
Y0004650D01*
X0019400Y0005000D02*
X0019250Y0004850D01*
X0019600Y0005000D02*
X0019400D01*
X0019750Y0004850D02*
X0019600Y0005000D01*
X0019750Y0004650D02*
Y0004850D01*
X0019600Y0004500D02*
X0019750Y0004650D01*
X0019400Y0004500D02*
X0019600D01*
X0019250Y0004650D02*
X0019400Y0004500D01*
X0018500Y0004850D02*
Y0004650D01*
X0018650Y0005000D02*
X0018500Y0004850D01*
X0018850Y0005000D02*
X0018650D01*
X0019000Y0004850D02*
X0018850Y0005000D01*
X0019000Y0004650D02*
Y0004850D01*
X0018850Y0004500D02*
X0019000Y0004650D01*
X0018650Y0004500D02*
X0018850D01*
X0018500Y0004650D02*
X0018650Y0004500D01*
X0017750Y0004850D02*
Y0004650D01*
X0017900Y0005000D02*
X0017750Y0004850D01*
X0018100Y0005000D02*
X0017900D01*
X0018250Y0004850D02*
X0018100Y0005000D01*
X0018250Y0004650D02*
Y0004850D01*
X0018100Y0004500D02*
X0018250Y0004650D01*
X0017900Y0004500D02*
X0018100D01*
X0017750Y0004650D02*
X0017900Y0004500D01*
X0017000Y0004850D02*
Y0004650D01*
X0017150Y0005000D02*
X0017000Y0004850D01*
X0017350Y0005000D02*
X0017150D01*
X0017500Y0004850D02*
X0017350Y0005000D01*
X0017500Y0004650D02*
Y0004850D01*
X0017350Y0004500D02*
X0017500Y0004650D01*
X0017150Y0004500D02*
X0017350D01*
X0017000Y0004650D02*
X0017150Y0004500D01*
X0016250Y0004850D02*
Y0004650D01*
X0016400Y0005000D02*
X0016250Y0004850D01*
X0016600Y0005000D02*
X0016400D01*
X0016750Y0004850D02*
X0016600Y0005000D01*
X0016750Y0004650D02*
Y0004850D01*
X0016600Y0004500D02*
X0016750Y0004650D01*
X0016400Y0004500D02*
X0016600D01*
X0016250Y0004650D02*
X0016400Y0004500D01*
X0015500Y0004100D02*
Y0003900D01*
X0015650Y0004250D02*
X0015500Y0004100D01*
X0015850Y0004250D02*
X0015650D01*
X0016000Y0004100D02*
X0015850Y0004250D01*
X0016000Y0003900D02*
Y0004100D01*
X0015850Y0003750D02*
X0016000Y0003900D01*
X0015650Y0003750D02*
X0015850D01*
X0015500Y0003900D02*
X0015650Y0003750D01*
X0015500Y0004850D02*
Y0004650D01*
X0015650Y0005000D02*
X0015500Y0004850D01*
X0015850Y0005000D02*
X0015650D01*
X0016000Y0004850D02*
X0015850Y0005000D01*
X0016000Y0004650D02*
Y0004850D01*
X0015850Y0004500D02*
X0016000Y0004650D01*
X0015650Y0004500D02*
X0015850D01*
X0015500Y0004650D02*
X0015650Y0004500D01*
X0015500Y0005600D02*
Y0005400D01*
X0015650Y0005750D02*
X0015500Y0005600D01*
X0015850Y0005750D02*
X0015650D01*
X0016000Y0005600D02*
X0015850Y0005750D01*
X0016000Y0005400D02*
Y0005600D01*
X0015850Y0005250D02*
X0016000Y0005400D01*
X0015650Y0005250D02*
X0015850D01*
X0015500Y0005400D02*
X0015650Y0005250D01*
X0016250Y0005600D02*
Y0005400D01*
X0016400Y0005750D02*
X0016250Y0005600D01*
X0016600Y0005750D02*
X0016400D01*
X0016750Y0005600D02*
X0016600Y0005750D01*
X0016750Y0005400D02*
Y0005600D01*
X0016600Y0005250D02*
X0016750Y0005400D01*
X0016400Y0005250D02*
X0016600D01*
X0016250Y0005400D02*
X0016400Y0005250D01*
X0017000Y0005600D02*
Y0005400D01*
X0017150Y0005750D02*
X0017000Y0005600D01*
X0017350Y0005750D02*
X0017150D01*
X0017500Y0005600D02*
X0017350Y0005750D01*
X0017500Y0005400D02*
Y0005600D01*
X0017350Y0005250D02*
X0017500Y0005400D01*
X0017150Y0005250D02*
X0017350D01*
X0017000Y0005400D02*
X0017150Y0005250D01*
X0017750Y0005600D02*
Y0005400D01*
X0017900Y0005750D02*
X0017750Y0005600D01*
X0018100Y0005750D02*
X0017900D01*
X0018250Y0005600D02*
X0018100Y0005750D01*
X0018250Y0005400D02*
Y0005600D01*
X0018100Y0005250D02*
X0018250Y0005400D01*
X0017900Y0005250D02*
X0018100D01*
X0017750Y0005400D02*
X0017900Y0005250D01*
X0018500Y0005600D02*
Y0005400D01*
X0018650Y0005750D02*
X0018500Y0005600D01*
X0018850Y0005750D02*
X0018650D01*
X0019000Y0005600D02*
X0018850Y0005750D01*
X0019000Y0005400D02*
Y0005600D01*
X0018850Y0005250D02*
X0019000Y0005400D01*
X0018650Y0005250D02*
X0018850D01*
X0018500Y0005400D02*
X0018650Y0005250D01*
X0019250Y0005600D02*
Y0005400D01*
X0019400Y0005750D02*
X0019250Y0005600D01*
X0019600Y0005750D02*
X0019400D01*
X0019750Y0005600D02*
X0019600Y0005750D01*
X0019750Y0005400D02*
Y0005600D01*
X0019600Y0005250D02*
X0019750Y0005400D01*
X0019400Y0005250D02*
X0019600D01*
X0019250Y0005400D02*
X0019400Y0005250D01*
X0019250Y0006350D02*
Y0006150D01*
X0019400Y0006500D02*
X0019250Y0006350D01*
X0019600Y0006500D02*
X0019400D01*
X0019750Y0006350D02*
X0019600Y0006500D01*
X0019750Y0006150D02*
Y0006350D01*
X0019600Y0006000D02*
X0019750Y0006150D01*
X0019400Y0006000D02*
X0019600D01*
X0019250Y0006150D02*
X0019400Y0006000D01*
X0018500Y0006350D02*
Y0006150D01*
X0018650Y0006500D02*
X0018500Y0006350D01*
X0018850Y0006500D02*
X0018650D01*
X0019000Y0006350D02*
X0018850Y0006500D01*
X0019000Y0006150D02*
Y0006350D01*
X0018850Y0006000D02*
X0019000Y0006150D01*
X0018650Y0006000D02*
X0018850D01*
X0018500Y0006150D02*
X0018650Y0006000D01*
X0017750Y0006350D02*
Y0006150D01*
X0017900Y0006500D02*
X0017750Y0006350D01*
X0018100Y0006500D02*
X0017900D01*
X0018250Y0006350D02*
X0018100Y0006500D01*
X0018250Y0006150D02*
Y0006350D01*
X0018100Y0006000D02*
X0018250Y0006150D01*
X0017900Y0006000D02*
X0018100D01*
X0017750Y0006150D02*
X0017900Y0006000D01*
X0017000Y0006350D02*
Y0006150D01*
X0017150Y0006500D02*
X0017000Y0006350D01*
X0017350Y0006500D02*
X0017150D01*
X0017500Y0006350D02*
X0017350Y0006500D01*
X0017500Y0006150D02*
Y0006350D01*
X0017350Y0006000D02*
X0017500Y0006150D01*
X0017150Y0006000D02*
X0017350D01*
X0017000Y0006150D02*
X0017150Y0006000D01*
X0016250Y0006350D02*
Y0006150D01*
X0016400Y0006500D02*
X0016250Y0006350D01*
X0016600Y0006500D02*
X0016400D01*
X0016750Y0006350D02*
X0016600Y0006500D01*
X0016750Y0006150D02*
Y0006350D01*
X0016600Y0006000D02*
X0016750Y0006150D01*
X0016400Y0006000D02*
X0016600D01*
X0016250Y0006150D02*
X0016400Y0006000D01*
X0015500Y0006350D02*
Y0006150D01*
X0015650Y0006500D02*
X0015500Y0006350D01*
X0015850Y0006500D02*
X0015650D01*
X0016000Y0006350D02*
X0015850Y0006500D01*
X0016000Y0006150D02*
Y0006350D01*
X0015850Y0006000D02*
X0016000Y0006150D01*
X0015650Y0006000D02*
X0015850D01*
X0015500Y0006150D02*
X0015650Y0006000D01*
X0015500Y0007100D02*
Y0006900D01*
X0015650Y0007250D02*
X0015500Y0007100D01*
X0015850Y0007250D02*
X0015650D01*
X0016000Y0007100D02*
X0015850Y0007250D01*
X0016000Y0006900D02*
Y0007100D01*
X0015850Y0006750D02*
X0016000Y0006900D01*
X0015650Y0006750D02*
X0015850D01*
X0015500Y0006900D02*
X0015650Y0006750D01*
X0016250Y0007100D02*
Y0006900D01*
X0016400Y0007250D02*
X0016250Y0007100D01*
X0016600Y0007250D02*
X0016400D01*
X0016750Y0007100D02*
X0016600Y0007250D01*
X0016750Y0006900D02*
Y0007100D01*
X0016600Y0006750D02*
X0016750Y0006900D01*
X0016400Y0006750D02*
X0016600D01*
X0016250Y0006900D02*
X0016400Y0006750D01*
X0017000Y0007100D02*
Y0006900D01*
X0017150Y0007250D02*
X0017000Y0007100D01*
X0017350Y0007250D02*
X0017150D01*
X0017500Y0007100D02*
X0017350Y0007250D01*
X0017500Y0006900D02*
Y0007100D01*
X0017350Y0006750D02*
X0017500Y0006900D01*
X0017150Y0006750D02*
X0017350D01*
X0017000Y0006900D02*
X0017150Y0006750D01*
X0017750Y0007100D02*
Y0006900D01*
X0017900Y0007250D02*
X0017750Y0007100D01*
X0018100Y0007250D02*
X0017900D01*
X0018250Y0007100D02*
X0018100Y0007250D01*
X0018250Y0006900D02*
Y0007100D01*
X0018100Y0006750D02*
X0018250Y0006900D01*
X0017900Y0006750D02*
X0018100D01*
X0017750Y0006900D02*
X0017900Y0006750D01*
X0018500Y0007100D02*
Y0006900D01*
X0018650Y0007250D02*
X0018500Y0007100D01*
X0018850Y0007250D02*
X0018650D01*
X0019000Y0007100D02*
X0018850Y0007250D01*
X0019000Y0006900D02*
Y0007100D01*
X0018850Y0006750D02*
X0019000Y0006900D01*
X0018650Y0006750D02*
X0018850D01*
X0018500Y0006900D02*
X0018650Y0006750D01*
X0019250Y0007100D02*
Y0006900D01*
X0019400Y0007250D02*
X0019250Y0007100D01*
X0019600Y0007250D02*
X0019400D01*
X0019750Y0007100D02*
X0019600Y0007250D01*
X0019750Y0006900D02*
Y0007100D01*
X0019600Y0006750D02*
X0019750Y0006900D01*
X0019400Y0006750D02*
X0019600D01*
X0019250Y0006900D02*
X0019400Y0006750D01*
X0019250Y0007850D02*
Y0007650D01*
X0019400Y0008000D02*
X0019250Y0007850D01*
X0019600Y0008000D02*
X0019400D01*
X0019750Y0007850D02*
X0019600Y0008000D01*
X0019750Y0007650D02*
Y0007850D01*
X0019600Y0007500D02*
X0019750Y0007650D01*
X0019400Y0007500D02*
X0019600D01*
X0019250Y0007650D02*
X0019400Y0007500D01*
X0018500Y0007850D02*
Y0007650D01*
X0018650Y0008000D02*
X0018500Y0007850D01*
X0018850Y0008000D02*
X0018650D01*
X0019000Y0007850D02*
X0018850Y0008000D01*
X0019000Y0007650D02*
Y0007850D01*
X0018850Y0007500D02*
X0019000Y0007650D01*
X0018650Y0007500D02*
X0018850D01*
X0018500Y0007650D02*
X0018650Y0007500D01*
X0017750Y0007850D02*
Y0007650D01*
X0017900Y0008000D02*
X0017750Y0007850D01*
X0018100Y0008000D02*
X0017900D01*
X0018250Y0007850D02*
X0018100Y0008000D01*
X0018250Y0007650D02*
Y0007850D01*
X0018100Y0007500D02*
X0018250Y0007650D01*
X0017900Y0007500D02*
X0018100D01*
X0017750Y0007650D02*
X0017900Y0007500D01*
X0017000Y0007850D02*
Y0007650D01*
X0017150Y0008000D02*
X0017000Y0007850D01*
X0017350Y0008000D02*
X0017150D01*
X0017500Y0007850D02*
X0017350Y0008000D01*
X0017500Y0007650D02*
Y0007850D01*
X0017350Y0007500D02*
X0017500Y0007650D01*
X0017150Y0007500D02*
X0017350D01*
X0017000Y0007650D02*
X0017150Y0007500D01*
X0016250Y0007850D02*
Y0007650D01*
X0016400Y0008000D02*
X0016250Y0007850D01*
X0016600Y0008000D02*
X0016400D01*
X0016750Y0007850D02*
X0016600Y0008000D01*
X0016750Y0007650D02*
Y0007850D01*
X0016600Y0007500D02*
X0016750Y0007650D01*
X0016400Y0007500D02*
X0016600D01*
X0016250Y0007650D02*
X0016400Y0007500D01*
X0015500Y0007850D02*
Y0007650D01*
X0015650Y0008000D02*
X0015500Y0007850D01*
X0015850Y0008000D02*
X0015650D01*
X0016000Y0007850D02*
X0015850Y0008000D01*
X0016000Y0007650D02*
Y0007850D01*
X0015850Y0007500D02*
X0016000Y0007650D01*
X0015650Y0007500D02*
X0015850D01*
X0015500Y0007650D02*
X0015650Y0007500D01*
X0010000Y0004850D02*
Y0004650D01*
X0010150Y0005000D02*
X0010000Y0004850D01*
X0010350Y0005000D02*
X0010150D01*
X0010500Y0004850D02*
X0010350Y0005000D01*
X0010500Y0004650D02*
Y0004850D01*
X0010350Y0004500D02*
X0010500Y0004650D01*
X0010150Y0004500D02*
X0010350D01*
X0010000Y0004650D02*
X0010150Y0004500D01*
X0010750Y0004850D02*
Y0004650D01*
X0010900Y0005000D02*
X0010750Y0004850D01*
X0011100Y0005000D02*
X0010900D01*
X0011250Y0004850D02*
X0011100Y0005000D01*
X0011250Y0004650D02*
Y0004850D01*
X0011100Y0004500D02*
X0011250Y0004650D01*
X0010900Y0004500D02*
X0011100D01*
X0010750Y0004650D02*
X0010900Y0004500D01*
X0011500Y0004850D02*
Y0004650D01*
X0011650Y0005000D02*
X0011500Y0004850D01*
X0011850Y0005000D02*
X0011650D01*
X0012000Y0004850D02*
X0011850Y0005000D01*
X0012000Y0004650D02*
Y0004850D01*
X0011850Y0004500D02*
X0012000Y0004650D01*
X0011650Y0004500D02*
X0011850D01*
X0011500Y0004650D02*
X0011650Y0004500D01*
X0012250Y0004850D02*
Y0004650D01*
X0012400Y0005000D02*
X0012250Y0004850D01*
X0012600Y0005000D02*
X0012400D01*
X0012750Y0004850D02*
X0012600Y0005000D01*
X0012750Y0004650D02*
Y0004850D01*
X0012600Y0004500D02*
X0012750Y0004650D01*
X0012400Y0004500D02*
X0012600D01*
X0012250Y0004650D02*
X0012400Y0004500D01*
X0013000Y0004850D02*
Y0004650D01*
X0013150Y0005000D02*
X0013000Y0004850D01*
X0013350Y0005000D02*
X0013150D01*
X0013500Y0004850D02*
X0013350Y0005000D01*
X0013500Y0004650D02*
Y0004850D01*
X0013350Y0004500D02*
X0013500Y0004650D01*
X0013150Y0004500D02*
X0013350D01*
X0013000Y0004650D02*
X0013150Y0004500D01*
X0013000Y0004100D02*
Y0003900D01*
X0013150Y0004250D02*
X0013000Y0004100D01*
X0013350Y0004250D02*
X0013150D01*
X0013500Y0004100D02*
X0013350Y0004250D01*
X0013500Y0003900D02*
Y0004100D01*
X0013350Y0003750D02*
X0013500Y0003900D01*
X0013150Y0003750D02*
X0013350D01*
X0013000Y0003900D02*
X0013150Y0003750D01*
X0012250Y0004100D02*
Y0003900D01*
X0012400Y0004250D02*
X0012250Y0004100D01*
X0012600Y0004250D02*
X0012400D01*
X0012750Y0004100D02*
X0012600Y0004250D01*
X0012750Y0003900D02*
Y0004100D01*
X0012600Y0003750D02*
X0012750Y0003900D01*
X0012400Y0003750D02*
X0012600D01*
X0012250Y0003900D02*
X0012400Y0003750D01*
X0011500Y0004100D02*
Y0003900D01*
X0011650Y0004250D02*
X0011500Y0004100D01*
X0011850Y0004250D02*
X0011650D01*
X0012000Y0004100D02*
X0011850Y0004250D01*
X0012000Y0003900D02*
Y0004100D01*
X0011850Y0003750D02*
X0012000Y0003900D01*
X0011650Y0003750D02*
X0011850D01*
X0011500Y0003900D02*
X0011650Y0003750D01*
X0010750Y0004100D02*
Y0003900D01*
X0010900Y0004250D02*
X0010750Y0004100D01*
X0011100Y0004250D02*
X0010900D01*
X0011250Y0004100D02*
X0011100Y0004250D01*
X0011250Y0003900D02*
Y0004100D01*
X0011100Y0003750D02*
X0011250Y0003900D01*
X0010900Y0003750D02*
X0011100D01*
X0010750Y0003900D02*
X0010900Y0003750D01*
X0010000Y0004100D02*
Y0003900D01*
X0010150Y0004250D02*
X0010000Y0004100D01*
X0010350Y0004250D02*
X0010150D01*
X0010500Y0004100D02*
X0010350Y0004250D01*
X0010500Y0003900D02*
Y0004100D01*
X0010350Y0003750D02*
X0010500Y0003900D01*
X0010150Y0003750D02*
X0010350D01*
X0010000Y0003900D02*
X0010150Y0003750D01*
X0009250Y0004100D02*
Y0003900D01*
X0009400Y0004250D02*
X0009250Y0004100D01*
X0009600Y0004250D02*
X0009400D01*
X0009750Y0004100D02*
X0009600Y0004250D01*
X0009750Y0003900D02*
Y0004100D01*
X0009600Y0003750D02*
X0009750Y0003900D01*
X0009400Y0003750D02*
X0009600D01*
X0009250Y0003900D02*
X0009400Y0003750D01*
X0009250Y0004850D02*
Y0004650D01*
X0009400Y0005000D02*
X0009250Y0004850D01*
X0009600Y0005000D02*
X0009400D01*
X0009750Y0004850D02*
X0009600Y0005000D01*
X0009750Y0004650D02*
Y0004850D01*
X0009600Y0004500D02*
X0009750Y0004650D01*
X0009400Y0004500D02*
X0009600D01*
X0009250Y0004650D02*
X0009400Y0004500D01*
X0013000Y0008600D02*
Y0008400D01*
X0013150Y0008750D02*
X0013000Y0008600D01*
X0013350Y0008750D02*
X0013150D01*
X0013500Y0008600D02*
X0013350Y0008750D01*
X0013500Y0008400D02*
Y0008600D01*
X0013350Y0008250D02*
X0013500Y0008400D01*
X0013150Y0008250D02*
X0013350D01*
X0013000Y0008400D02*
X0013150Y0008250D01*
X0012250Y0008600D02*
Y0008400D01*
X0012400Y0008750D02*
X0012250Y0008600D01*
X0012600Y0008750D02*
X0012400D01*
X0012750Y0008600D02*
X0012600Y0008750D01*
X0012750Y0008400D02*
Y0008600D01*
X0012600Y0008250D02*
X0012750Y0008400D01*
X0012400Y0008250D02*
X0012600D01*
X0012250Y0008400D02*
X0012400Y0008250D01*
X0011500Y0008600D02*
Y0008400D01*
X0011650Y0008750D02*
X0011500Y0008600D01*
X0011850Y0008750D02*
X0011650D01*
X0012000Y0008600D02*
X0011850Y0008750D01*
X0012000Y0008400D02*
Y0008600D01*
X0011850Y0008250D02*
X0012000Y0008400D01*
X0011650Y0008250D02*
X0011850D01*
X0011500Y0008400D02*
X0011650Y0008250D01*
X0010750Y0008600D02*
Y0008400D01*
X0010900Y0008750D02*
X0010750Y0008600D01*
X0011100Y0008750D02*
X0010900D01*
X0011250Y0008600D02*
X0011100Y0008750D01*
X0011250Y0008400D02*
Y0008600D01*
X0011100Y0008250D02*
X0011250Y0008400D01*
X0010900Y0008250D02*
X0011100D01*
X0010750Y0008400D02*
X0010900Y0008250D01*
X0010000Y0008600D02*
Y0008400D01*
X0010150Y0008750D02*
X0010000Y0008600D01*
X0010350Y0008750D02*
X0010150D01*
X0010500Y0008600D02*
X0010350Y0008750D01*
X0010500Y0008400D02*
Y0008600D01*
X0010350Y0008250D02*
X0010500Y0008400D01*
X0010150Y0008250D02*
X0010350D01*
X0010000Y0008400D02*
X0010150Y0008250D01*
X0009250Y0008600D02*
Y0008400D01*
X0009400Y0008750D02*
X0009250Y0008600D01*
X0009600Y0008750D02*
X0009400D01*
X0009750Y0008600D02*
X0009600Y0008750D01*
X0009750Y0008400D02*
Y0008600D01*
X0009600Y0008250D02*
X0009750Y0008400D01*
X0009400Y0008250D02*
X0009600D01*
X0009250Y0008400D02*
X0009400Y0008250D01*
X0010000Y0005600D02*
Y0005400D01*
X0010150Y0005750D02*
X0010000Y0005600D01*
X0010350Y0005750D02*
X0010150D01*
X0010500Y0005600D02*
X0010350Y0005750D01*
X0010500Y0005400D02*
Y0005600D01*
X0010350Y0005250D02*
X0010500Y0005400D01*
X0010150Y0005250D02*
X0010350D01*
X0010000Y0005400D02*
X0010150Y0005250D01*
X0010750Y0005600D02*
Y0005400D01*
X0010900Y0005750D02*
X0010750Y0005600D01*
X0011100Y0005750D02*
X0010900D01*
X0011250Y0005600D02*
X0011100Y0005750D01*
X0011250Y0005400D02*
Y0005600D01*
X0011100Y0005250D02*
X0011250Y0005400D01*
X0010900Y0005250D02*
X0011100D01*
X0010750Y0005400D02*
X0010900Y0005250D01*
X0011500Y0005600D02*
Y0005400D01*
X0011650Y0005750D02*
X0011500Y0005600D01*
X0011850Y0005750D02*
X0011650D01*
X0012000Y0005600D02*
X0011850Y0005750D01*
X0012000Y0005400D02*
Y0005600D01*
X0011850Y0005250D02*
X0012000Y0005400D01*
X0011650Y0005250D02*
X0011850D01*
X0011500Y0005400D02*
X0011650Y0005250D01*
X0012250Y0005600D02*
Y0005400D01*
X0012400Y0005750D02*
X0012250Y0005600D01*
X0012600Y0005750D02*
X0012400D01*
X0012750Y0005600D02*
X0012600Y0005750D01*
X0012750Y0005400D02*
Y0005600D01*
X0012600Y0005250D02*
X0012750Y0005400D01*
X0012400Y0005250D02*
X0012600D01*
X0012250Y0005400D02*
X0012400Y0005250D01*
X0013000Y0005600D02*
Y0005400D01*
X0013150Y0005750D02*
X0013000Y0005600D01*
X0013350Y0005750D02*
X0013150D01*
X0013500Y0005600D02*
X0013350Y0005750D01*
X0013500Y0005400D02*
Y0005600D01*
X0013350Y0005250D02*
X0013500Y0005400D01*
X0013150Y0005250D02*
X0013350D01*
X0013000Y0005400D02*
X0013150Y0005250D01*
X0013000Y0006350D02*
Y0006150D01*
X0013150Y0006500D02*
X0013000Y0006350D01*
X0013350Y0006500D02*
X0013150D01*
X0013500Y0006350D02*
X0013350Y0006500D01*
X0013500Y0006150D02*
Y0006350D01*
X0013350Y0006000D02*
X0013500Y0006150D01*
X0013150Y0006000D02*
X0013350D01*
X0013000Y0006150D02*
X0013150Y0006000D01*
X0012250Y0006350D02*
Y0006150D01*
X0012400Y0006500D02*
X0012250Y0006350D01*
X0012600Y0006500D02*
X0012400D01*
X0012750Y0006350D02*
X0012600Y0006500D01*
X0012750Y0006150D02*
Y0006350D01*
X0012600Y0006000D02*
X0012750Y0006150D01*
X0012400Y0006000D02*
X0012600D01*
X0012250Y0006150D02*
X0012400Y0006000D01*
X0011500Y0006350D02*
Y0006150D01*
X0011650Y0006500D02*
X0011500Y0006350D01*
X0011850Y0006500D02*
X0011650D01*
X0012000Y0006350D02*
X0011850Y0006500D01*
X0012000Y0006150D02*
Y0006350D01*
X0011850Y0006000D02*
X0012000Y0006150D01*
X0011650Y0006000D02*
X0011850D01*
X0011500Y0006150D02*
X0011650Y0006000D01*
X0010750Y0006350D02*
Y0006150D01*
X0010900Y0006500D02*
X0010750Y0006350D01*
X0011100Y0006500D02*
X0010900D01*
X0011250Y0006350D02*
X0011100Y0006500D01*
X0011250Y0006150D02*
Y0006350D01*
X0011100Y0006000D02*
X0011250Y0006150D01*
X0010900Y0006000D02*
X0011100D01*
X0010750Y0006150D02*
X0010900Y0006000D01*
X0010000Y0006350D02*
Y0006150D01*
X0010150Y0006500D02*
X0010000Y0006350D01*
X0010350Y0006500D02*
X0010150D01*
X0010500Y0006350D02*
X0010350Y0006500D01*
X0010500Y0006150D02*
Y0006350D01*
X0010350Y0006000D02*
X0010500Y0006150D01*
X0010150Y0006000D02*
X0010350D01*
X0010000Y0006150D02*
X0010150Y0006000D01*
X0009250Y0005600D02*
Y0005400D01*
X0009400Y0005750D02*
X0009250Y0005600D01*
X0009600Y0005750D02*
X0009400D01*
X0009750Y0005600D02*
X0009600Y0005750D01*
X0009750Y0005400D02*
Y0005600D01*
X0009600Y0005250D02*
X0009750Y0005400D01*
X0009400Y0005250D02*
X0009600D01*
X0009250Y0005400D02*
X0009400Y0005250D01*
X0009250Y0006350D02*
Y0006150D01*
X0009400Y0006500D02*
X0009250Y0006350D01*
X0009600Y0006500D02*
X0009400D01*
X0009750Y0006350D02*
X0009600Y0006500D01*
X0009750Y0006150D02*
Y0006350D01*
X0009600Y0006000D02*
X0009750Y0006150D01*
X0009400Y0006000D02*
X0009600D01*
X0009250Y0006150D02*
X0009400Y0006000D01*
X0009250Y0007100D02*
Y0006900D01*
X0009400Y0007250D02*
X0009250Y0007100D01*
X0009600Y0007250D02*
X0009400D01*
X0009750Y0007100D02*
X0009600Y0007250D01*
X0009750Y0006900D02*
Y0007100D01*
X0009600Y0006750D02*
X0009750Y0006900D01*
X0009400Y0006750D02*
X0009600D01*
X0009250Y0006900D02*
X0009400Y0006750D01*
X0010000Y0007100D02*
Y0006900D01*
X0010150Y0007250D02*
X0010000Y0007100D01*
X0010350Y0007250D02*
X0010150D01*
X0010500Y0007100D02*
X0010350Y0007250D01*
X0010500Y0006900D02*
Y0007100D01*
X0010350Y0006750D02*
X0010500Y0006900D01*
X0010150Y0006750D02*
X0010350D01*
X0010000Y0006900D02*
X0010150Y0006750D01*
X0010750Y0007100D02*
Y0006900D01*
X0010900Y0007250D02*
X0010750Y0007100D01*
X0011100Y0007250D02*
X0010900D01*
X0011250Y0007100D02*
X0011100Y0007250D01*
X0011250Y0006900D02*
Y0007100D01*
X0011100Y0006750D02*
X0011250Y0006900D01*
X0010900Y0006750D02*
X0011100D01*
X0010750Y0006900D02*
X0010900Y0006750D01*
X0011500Y0007100D02*
Y0006900D01*
X0011650Y0007250D02*
X0011500Y0007100D01*
X0011850Y0007250D02*
X0011650D01*
X0012000Y0007100D02*
X0011850Y0007250D01*
X0012000Y0006900D02*
Y0007100D01*
X0011850Y0006750D02*
X0012000Y0006900D01*
X0011650Y0006750D02*
X0011850D01*
X0011500Y0006900D02*
X0011650Y0006750D01*
X0012250Y0007100D02*
Y0006900D01*
X0012400Y0007250D02*
X0012250Y0007100D01*
X0012600Y0007250D02*
X0012400D01*
X0012750Y0007100D02*
X0012600Y0007250D01*
X0012750Y0006900D02*
Y0007100D01*
X0012600Y0006750D02*
X0012750Y0006900D01*
X0012400Y0006750D02*
X0012600D01*
X0012250Y0006900D02*
X0012400Y0006750D01*
X0013000Y0007100D02*
Y0006900D01*
X0013150Y0007250D02*
X0013000Y0007100D01*
X0013350Y0007250D02*
X0013150D01*
X0013500Y0007100D02*
X0013350Y0007250D01*
X0013500Y0006900D02*
Y0007100D01*
X0013350Y0006750D02*
X0013500Y0006900D01*
X0013150Y0006750D02*
X0013350D01*
X0013000Y0006900D02*
X0013150Y0006750D01*
X0013000Y0007850D02*
Y0007650D01*
X0013150Y0008000D02*
X0013000Y0007850D01*
X0013350Y0008000D02*
X0013150D01*
X0013500Y0007850D02*
X0013350Y0008000D01*
X0013500Y0007650D02*
Y0007850D01*
X0013350Y0007500D02*
X0013500Y0007650D01*
X0013150Y0007500D02*
X0013350D01*
X0013000Y0007650D02*
X0013150Y0007500D01*
X0012250Y0007850D02*
Y0007650D01*
X0012400Y0008000D02*
X0012250Y0007850D01*
X0012600Y0008000D02*
X0012400D01*
X0012750Y0007850D02*
X0012600Y0008000D01*
X0012750Y0007650D02*
Y0007850D01*
X0012600Y0007500D02*
X0012750Y0007650D01*
X0012400Y0007500D02*
X0012600D01*
X0012250Y0007650D02*
X0012400Y0007500D01*
X0011500Y0007850D02*
Y0007650D01*
X0011650Y0008000D02*
X0011500Y0007850D01*
X0011850Y0008000D02*
X0011650D01*
X0012000Y0007850D02*
X0011850Y0008000D01*
X0012000Y0007650D02*
Y0007850D01*
X0011850Y0007500D02*
X0012000Y0007650D01*
X0011650Y0007500D02*
X0011850D01*
X0011500Y0007650D02*
X0011650Y0007500D01*
X0010750Y0007850D02*
Y0007650D01*
X0010900Y0008000D02*
X0010750Y0007850D01*
X0011100Y0008000D02*
X0010900D01*
X0011250Y0007850D02*
X0011100Y0008000D01*
X0011250Y0007650D02*
Y0007850D01*
X0011100Y0007500D02*
X0011250Y0007650D01*
X0010900Y0007500D02*
X0011100D01*
X0010750Y0007650D02*
X0010900Y0007500D01*
X0010000Y0007850D02*
Y0007650D01*
X0010150Y0008000D02*
X0010000Y0007850D01*
X0010350Y0008000D02*
X0010150D01*
X0010500Y0007850D02*
X0010350Y0008000D01*
X0010500Y0007650D02*
Y0007850D01*
X0010350Y0007500D02*
X0010500Y0007650D01*
X0010150Y0007500D02*
X0010350D01*
X0010000Y0007650D02*
X0010150Y0007500D01*
X0009250Y0007850D02*
Y0007650D01*
X0009400Y0008000D02*
X0009250Y0007850D01*
X0009600Y0008000D02*
X0009400D01*
X0009750Y0007850D02*
X0009600Y0008000D01*
X0009750Y0007650D02*
Y0007850D01*
X0009600Y0007500D02*
X0009750Y0007650D01*
X0009400Y0007500D02*
X0009600D01*
X0009250Y0007650D02*
X0009400Y0007500D01*
X0011500Y0016000D02*
X0011000D01*
X0011250Y0016250D02*
Y0015750D01*
X0011500Y0015000D02*
X0011000D01*
X0011250Y0015250D02*
Y0014750D01*
X0011500Y0014000D02*
X0011000D01*
X0011250Y0014250D02*
Y0013750D01*
X0029250Y-0000250D02*
X0028750D01*
X0029000Y0000000D02*
Y-0000500D01*
X0030250Y-0000250D02*
X0029750D01*
X0030000Y0000000D02*
Y-0000500D01*
X0031250Y-0000250D02*
X0030750D01*
X0031000Y0000000D02*
Y-0000500D01*
X0031250Y0000750D02*
X0030750D01*
X0031000Y0001000D02*
Y0000500D01*
X0030250Y0000750D02*
X0029750D01*
X0030000Y0001000D02*
Y0000500D01*
X0029250Y0000750D02*
X0028750D01*
X0029000Y0001000D02*
Y0000500D01*
X0002403Y0016000D02*
Y0015500D01*
X0002903Y0016000D02*
X0002403D01*
X0002903Y0015500D02*
Y0016000D01*
X0002403Y0015500D02*
X0002903D01*
Y0015750D02*
X0002403D01*
X0002653Y0016000D02*
Y0015500D01*
X0003508Y0016000D02*
X0003258Y0015750D01*
X0003758D02*
X0003508Y0016000D01*
Y0015500D02*
X0003758Y0015750D01*
X0003258D02*
X0003508Y0015500D01*
X0004492Y0016000D02*
X0004242Y0015750D01*
X0004742D02*
X0004492Y0016000D01*
Y0015500D02*
X0004742Y0015750D01*
X0004242D02*
X0004492Y0015500D01*
X0005096Y0016000D02*
Y0015500D01*
X0005596Y0016000D02*
X0005096D01*
X0005596Y0015500D02*
Y0016000D01*
X0005096Y0015500D02*
X0005596D01*
Y0015750D02*
X0005096D01*
X0005346Y0016000D02*
Y0015500D01*
X0003750Y0016527D02*
Y0016027D01*
X0004250Y0016527D02*
X0003750D01*
X0004250Y0016027D02*
Y0016527D01*
X0003750Y0016027D02*
X0004250D01*
Y0016527D02*
X0003750Y0016027D01*
X0004250D02*
X0003750Y0016527D01*
X0005250Y-0000850D02*
X0005000Y-0001100D01*
X0005500D02*
X0005250Y-0000850D01*
X0005000Y-0001100D02*
X0005500D01*
X0004463Y-0000850D02*
X0004213Y-0001100D01*
X0004713D02*
X0004463Y-0000850D01*
X0004213Y-0001100D02*
X0004713D01*
X0003675Y-0000850D02*
X0003425Y-0001100D01*
X0003925D02*
X0003675Y-0000850D01*
X0003425Y-0001100D02*
X0003925D01*
X0002888Y-0000850D02*
X0002638Y-0001100D01*
X0003138D02*
X0002888Y-0000850D01*
X0002638Y-0001100D02*
X0003138D01*
X0025476Y0001242D02*
X0025226Y0000992D01*
X0025726D02*
X0025476Y0001242D01*
Y0000742D02*
X0025726Y0000992D01*
X0025226D02*
X0025476Y0000742D01*
X0024492Y0001242D02*
X0024242Y0000992D01*
X0024742D02*
X0024492Y0001242D01*
Y0000742D02*
X0024742Y0000992D01*
X0024242D02*
X0024492Y0000742D01*
X0023508Y0001242D02*
X0023258Y0000992D01*
X0023758D02*
X0023508Y0001242D01*
Y0000742D02*
X0023758Y0000992D01*
X0023258D02*
X0023508Y0000742D01*
X0022524Y0001242D02*
X0022274Y0000992D01*
X0022774D02*
X0022524Y0001242D01*
Y0000742D02*
X0022774Y0000992D01*
X0022274D02*
X0022524Y0000742D01*
Y0000258D02*
X0022274Y0000008D01*
X0022774D02*
X0022524Y0000258D01*
Y-0000242D02*
X0022774Y0000008D01*
X0022274D02*
X0022524Y-0000242D01*
X0023750Y-0000270D02*
Y-0000770D01*
X0024250Y-0000270D02*
X0023750D01*
X0024250Y-0000770D02*
Y-0000270D01*
X0023750Y-0000770D02*
X0024250D01*
Y-0000270D02*
X0023750Y-0000770D01*
X0024250D02*
X0023750Y-0000270D01*
X0025476Y0000258D02*
X0025226Y0000008D01*
X0025726D02*
X0025476Y0000258D01*
Y-0000242D02*
X0025726Y0000008D01*
X0025226D02*
X0025476Y-0000242D01*
X0024492Y0000258D02*
X0024242Y0000008D01*
X0024742D02*
X0024492Y0000258D01*
Y-0000242D02*
X0024742Y0000008D01*
X0024242D02*
X0024492Y-0000242D01*
X0023508Y0000258D02*
X0023258Y0000008D01*
X0023758D02*
X0023508Y0000258D01*
Y-0000242D02*
X0023758Y0000008D01*
X0023258D02*
X0023508Y-0000242D01*
X0022516Y0015008D02*
X0022266Y0014758D01*
X0022766D02*
X0022516Y0015008D01*
Y0014508D02*
X0022766Y0014758D01*
X0022266D02*
X0022516Y0014508D01*
X0023500Y0015008D02*
X0023250Y0014758D01*
X0023750D02*
X0023500Y0015008D01*
Y0014508D02*
X0023750Y0014758D01*
X0023250D02*
X0023500Y0014508D01*
X0024484Y0015008D02*
X0024234Y0014758D01*
X0024734D02*
X0024484Y0015008D01*
Y0014508D02*
X0024734Y0014758D01*
X0024234D02*
X0024484Y0014508D01*
Y0015992D02*
X0024234Y0015742D01*
X0024734D02*
X0024484Y0015992D01*
Y0015492D02*
X0024734Y0015742D01*
X0024234D02*
X0024484Y0015492D01*
X0023742Y0016520D02*
Y0016020D01*
X0024242Y0016520D02*
X0023742D01*
X0024242Y0016020D02*
Y0016520D01*
X0023742Y0016020D02*
X0024242D01*
Y0016520D02*
X0023742Y0016020D01*
X0024242D02*
X0023742Y0016520D01*
X0022516Y0015992D02*
X0022266Y0015742D01*
X0022766D02*
X0022516Y0015992D01*
Y0015492D02*
X0022766Y0015742D01*
X0022266D02*
X0022516Y0015492D01*
X0023500Y0015992D02*
X0023250Y0015742D01*
X0023750D02*
X0023500Y0015992D01*
Y0015492D02*
X0023750Y0015742D01*
X0023250D02*
X0023500Y0015492D01*
X-0000234Y0011266D02*
X-0000484Y0011016D01*
X0000016D02*
X-0000234Y0011266D01*
Y0010766D02*
X0000016Y0011016D01*
X-0000484D02*
X-0000234Y0010766D01*
X0001734Y0011266D02*
X0001484Y0011016D01*
X0001984D02*
X0001734Y0011266D01*
Y0010766D02*
X0001984Y0011016D01*
X0001484D02*
X0001734Y0010766D01*
X0002718Y0012250D02*
X0002468Y0012000D01*
X0002968D02*
X0002718Y0012250D01*
Y0011750D02*
X0002968Y0012000D01*
X0002468D02*
X0002718Y0011750D01*
X0001734Y0013234D02*
X0001484Y0012984D01*
X0001984D02*
X0001734Y0013234D01*
Y0012734D02*
X0001984Y0012984D01*
X0001484D02*
X0001734Y0012734D01*
X-0000234Y0013234D02*
X-0000484Y0012984D01*
X0000016D02*
X-0000234Y0013234D01*
Y0012734D02*
X0000016Y0012984D01*
X-0000484D02*
X-0000234Y0012734D01*
X0000750Y0012250D02*
X0000500Y0012000D01*
X0001000D02*
X0000750Y0012250D01*
Y0011750D02*
X0001000Y0012000D01*
X0000500D02*
X0000750Y0011750D01*
X0034396Y0000250D02*
Y0000000D01*
X0034646Y0000250D02*
X0034396D01*
X0034646Y-0000250D02*
Y0000250D01*
X0034896Y-0000250D02*
X0034646D01*
X0034896Y0000000D02*
Y-0000250D01*
X0034396Y0000000D02*
X0034896D01*
X0029671Y0015998D02*
Y0015748D01*
X0029921Y0015998D02*
X0029671D01*
X0029921Y0015498D02*
Y0015998D01*
X0030171Y0015498D02*
X0029921D01*
X0030171Y0015748D02*
Y0015498D01*
X0029671Y0015748D02*
X0030171D01*
X-0000250Y0000250D02*
Y0000000D01*
X0000000Y0000250D02*
X-0000250D01*
X0000000Y-0000250D02*
Y0000250D01*
X0000250Y-0000250D02*
X0000000D01*
X0000250Y0000000D02*
Y-0000250D01*
X-0000250Y0000000D02*
X0000250D01*
X-0000250Y0015998D02*
Y0015748D01*
X0000000Y0015998D02*
X-0000250D01*
X0000000Y0015498D02*
Y0015998D01*
X0000250Y0015498D02*
X0000000D01*
X0000250Y0015748D02*
Y0015498D01*
X-0000250Y0015748D02*
X0000250D01*
X0074553Y0006943D02*
Y0006693D01*
X0074803Y0006943D02*
X0074553D01*
X0074803Y0006443D02*
Y0006943D01*
X0075053Y0006443D02*
X0074803D01*
X0075053Y0006693D02*
Y0006443D01*
X0074553Y0006693D02*
X0075053D01*
G54D66*
G01X0076772Y0008661D02*
X0040157D01*
X0031102Y0017716D01*
X-0001968D01*
Y-0001968D01*
X0076772D01*
Y0008661D01*
M02*
