%
T1C0.0079F200S100
X000900Y004500
X001300Y003150
X001300Y003850
X001300Y004650
X001300Y005400
X001650Y008120
X001950Y003850
X001950Y004650
X001950Y005400
X001984Y002516
X002000Y001500
X002200Y008080
X002250Y003049
X002550Y006350
X002600Y003850
X002600Y004650
X003200Y002200
X003250Y000850
X003200Y006350
X003300Y003850
X003300Y004650
X003350Y009450
X003850Y007880
X003950Y003850
X003950Y004650
X004250Y008000
X004450Y006250
X004650Y003850
X004650Y004650
X004800Y002200
X004900Y006500
X005000Y000900
X005000Y008000
X005000Y009450
X005250Y003850
X005250Y004650
X005750Y003049
X005750Y013050
X005800Y002350
X005850Y003850
X005850Y004650
X006000Y007950
X006750Y013000
X007000Y003050
X007600Y002100
X007700Y005700
X008000Y002050
X008000Y006450
X008000Y011000
X008000Y012050
X008000Y013250
X008300Y001750
X008450Y009400
X008600Y002350
X008600Y006150
X008850Y011150
X009250Y013000
X009500Y004000
X009500Y004750
X009500Y005500
X009500Y006250
X009500Y007000
X009500Y007750
X009500Y008500
X010250Y004000
X010250Y004750
X010250Y005500
X010250Y006250
X010250Y007000
X010250Y007750
X010250Y008500
X010535Y010200
X011000Y004000
X011000Y004750
X011000Y005500
X011000Y006250
X011000Y007000
X011000Y007750
X011000Y008500
X011250Y010350
X011750Y004000
X011750Y004750
X011750Y005500
X011750Y006250
X011750Y007000
X011750Y007750
X011750Y008500
X012250Y010800
X012500Y-000150
X012500Y004000
X012500Y004750
X012500Y005500
X012500Y006250
X012500Y007000
X012500Y007750
X012500Y008500
X013250Y004000
X013250Y004750
X013250Y005500
X013250Y006250
X013250Y007000
X013250Y007750
X013250Y008500
X013500Y-001000
X014500Y009150
X015000Y013750
X015000Y014500
X015000Y015250
X015000Y016000
X015000Y016750
X015750Y004000
X015750Y004750
X015750Y005500
X015750Y006250
X015750Y007000
X015750Y007750
X015750Y008500
X015750Y013750
X015750Y014500
X015750Y015250
X015750Y016000
X015750Y016750
X016500Y004000
X016500Y004750
X016500Y005500
X016500Y006250
X016500Y007000
X016500Y007750
X016500Y008500
X017250Y004000
X017250Y004750
X017250Y005500
X017250Y006250
X017250Y007000
X017250Y007750
X017250Y008500
X017250Y013750
X016500Y013750
X016500Y014500
X016500Y015250
X016500Y016000
X016500Y016750
X017250Y014500
X017250Y015250
X017250Y016000
X017250Y016750
X018000Y004000
X018000Y004750
X018000Y005500
X018000Y006250
X018000Y007000
X018000Y007750
X018000Y008500
X018000Y013750
X018000Y014500
X018000Y015250
X018000Y016000
X018000Y016750
X018750Y-001150
X018750Y004000
X018750Y004750
X018750Y005500
X018750Y006250
X018750Y007000
X018750Y007750
X018750Y008500
X018750Y013750
X018750Y014500
X018750Y015250
X018750Y016000
X018750Y016750
X019500Y004000
X019500Y004750
X019500Y005500
X019500Y006250
X019500Y007000
X019500Y007750
X019500Y008500
X019500Y011000
X019500Y013750
X019500Y014500
X019500Y015250
X019500Y016000
X019500Y016750
X020250Y004000
X020250Y004750
X020250Y005500
X020250Y006250
X020250Y007000
X020250Y007750
X020250Y008500
X020250Y013750
X020250Y014500
X020250Y015250
X020250Y016000
X020250Y016750
X021000Y012650
X021300Y001480
X022000Y010650
X022000Y012250
X022650Y007750
X022800Y004550
X023750Y003750
X024550Y011250
X024950Y013220
X025050Y006280
X025050Y006970
X025700Y004550
X025750Y013000
X025750Y013500
X026200Y017030
X026500Y014250
X026950Y011970
X027300Y015530
X027300Y016220
X028500Y002800
X028500Y003500
X028500Y004250
X028500Y005000
X028500Y005750
X028500Y006500
X028800Y011250
X029250Y004250
X029250Y005000
X029250Y005750
X029250Y006500
X029250Y010000
X029300Y002800
X029300Y003500
X030000Y002800
X030000Y003500
X030000Y004250
X030000Y005000
X030000Y005750
X030000Y006500
X030400Y012850
X030750Y002800
X030750Y003500
X030750Y004250
X030750Y005000
X030750Y005750
X030750Y006500
X030750Y011250
X031450Y012400
X031500Y004250
X031500Y005000
X031500Y005750
X031500Y006500
X031550Y002800
X031550Y003500
X032250Y002800
X032250Y003500
X032250Y004250
X032250Y005000
X032250Y005750
X032250Y006500
X032750Y011250
X032800Y012950
X033000Y002800
X033000Y003500
X033000Y004250
X033000Y005000
X033000Y005750
X033000Y006500
X033500Y011200
X033950Y011970
X034000Y006750
X034000Y008350
X037000Y002000
X038000Y004250
X037000Y004850
X038750Y-000200
X040000Y002100
X040000Y003400
X041000Y002750
X041450Y001720
X041750Y003250
X041750Y004000
X041750Y004750
X041750Y005500
X041750Y006250
X042500Y003250
X042500Y004000
X042500Y004750
X042500Y005500
X042500Y006250
X043250Y003250
X043250Y004000
X043250Y004750
X043250Y005500
X043250Y006250
X044000Y003250
X044000Y004000
X044000Y004750
X044000Y005500
X044000Y006250
X044750Y003250
X044750Y004000
X044750Y004750
X044750Y005500
X044750Y006250
X045500Y003500
X045500Y005000
X046500Y001750
X046500Y003250
X046650Y003590
X046700Y003970
X046900Y-000650
X046900Y003130
X047050Y006300
X047100Y-001200
X047200Y001800
X047500Y-001250
X047700Y-000700
X048250Y001600
X048250Y002100
X048250Y004000
X048700Y006280
X048960Y002980
X048960Y007240
X049250Y002550
X049450Y000000
X049560Y003500
X049600Y007400
X050000Y007400
X050200Y000300
X050715Y006300
X050850Y003856
X050900Y004250
X051000Y003250
X051050Y006700
X051450Y006700
X051500Y007100
X052000Y000600
X052400Y007450
X052450Y006750
X052750Y007050
X052800Y007500
X052900Y002250
X053364Y002150
X053500Y-001500
X053561Y000900
X053500Y007200
X053758Y006600
X054000Y002200
X054100Y002674
X054100Y003068
X054250Y-001500
X054250Y001500
X054290Y006350
X054735Y002000
X054950Y007400
X055000Y-000500
X055500Y-001500
X056000Y001750
X055500Y002700
X056050Y006200
X056500Y002750
X057000Y-000150
X057000Y006200
X057650Y007150
X058500Y007150
X059000Y007150
X059500Y007300
X059900Y007100
X060500Y007150
X061450Y000300
X061500Y004050
X061500Y007150
X061800Y000050
X061800Y003420
X062100Y001800
X062100Y003150
X062500Y-000250
X062500Y004000
X062500Y007150
X063000Y002500
X063400Y002200
X063000Y005000
X063700Y-000530
X063700Y001220
X063950Y004700
X063950Y006530
X064000Y007500
X065250Y004120
X065500Y000600
X065500Y003750
X065550Y006530
X065800Y-000200
X065800Y001150
X066450Y007220
X066950Y001850
X067050Y-000200
X067500Y-001250
X067750Y004120
X067950Y001220
X068800Y-001400
X068950Y006530
X068950Y007220
X069300Y001100
X070180Y004550
X070300Y001800
X070550Y006530
X071150Y000150
X071450Y007220
X071700Y004050
X072650Y000150
X073750Y000531
X073750Y002500
T4C0.0472F200S100
X-000234Y011016
X000750Y012000
X-000234Y012984
X001734Y011016
X002718Y012000
X001734Y012984
X003508Y015750
X004492Y015750
X022516Y014758
X022516Y015742
X022524Y000008
X022524Y000992
X023500Y014758
X023500Y015742
X023508Y000008
X023508Y000992
X024484Y014758
X024484Y015742
X024492Y000008
X024492Y000992
X025476Y000008
X025476Y000992
T3C0.0433F200S100
X011250Y014000
X011250Y015000
X011250Y016000
X029000Y-000250
X029000Y000750
X030000Y-000250
X030000Y000750
X031000Y-000250
X031000Y000750
T6C0.0630F200S100
X002653Y015750
X005346Y015750
T2C0.0354F200S100
X002888Y-001000
X003675Y-001000
X004463Y-001000
X005250Y-001000
M30
